%TF.GenerationSoftware,KiCad,Pcbnew,6.0.10+dfsg-1~bpo11+1*%
%TF.CreationDate,2023-02-01T15:11:05+08:00*%
%TF.ProjectId,MiniVerb v2.0 - Main,4d696e69-5665-4726-9220-76322e30202d,rev?*%
%TF.SameCoordinates,Original*%
%TF.FileFunction,Legend,Top*%
%TF.FilePolarity,Positive*%
%FSLAX46Y46*%
G04 Gerber Fmt 4.6, Leading zero omitted, Abs format (unit mm)*
G04 Created by KiCad (PCBNEW 6.0.10+dfsg-1~bpo11+1) date 2023-02-01 15:11:05*
%MOMM*%
%LPD*%
G01*
G04 APERTURE LIST*
%ADD10C,0.150000*%
%ADD11C,0.120000*%
G04 APERTURE END LIST*
D10*
%TO.C,C13*%
X135557142Y-127042857D02*
X135604761Y-127090476D01*
X135652380Y-127233333D01*
X135652380Y-127328571D01*
X135604761Y-127471428D01*
X135509523Y-127566666D01*
X135414285Y-127614285D01*
X135223809Y-127661904D01*
X135080952Y-127661904D01*
X134890476Y-127614285D01*
X134795238Y-127566666D01*
X134700000Y-127471428D01*
X134652380Y-127328571D01*
X134652380Y-127233333D01*
X134700000Y-127090476D01*
X134747619Y-127042857D01*
X135652380Y-126090476D02*
X135652380Y-126661904D01*
X135652380Y-126376190D02*
X134652380Y-126376190D01*
X134795238Y-126471428D01*
X134890476Y-126566666D01*
X134938095Y-126661904D01*
X134652380Y-125757142D02*
X134652380Y-125138095D01*
X135033333Y-125471428D01*
X135033333Y-125328571D01*
X135080952Y-125233333D01*
X135128571Y-125185714D01*
X135223809Y-125138095D01*
X135461904Y-125138095D01*
X135557142Y-125185714D01*
X135604761Y-125233333D01*
X135652380Y-125328571D01*
X135652380Y-125614285D01*
X135604761Y-125709523D01*
X135557142Y-125757142D01*
%TO.C,C5*%
X142833333Y-133368142D02*
X142785714Y-133415761D01*
X142642857Y-133463380D01*
X142547619Y-133463380D01*
X142404761Y-133415761D01*
X142309523Y-133320523D01*
X142261904Y-133225285D01*
X142214285Y-133034809D01*
X142214285Y-132891952D01*
X142261904Y-132701476D01*
X142309523Y-132606238D01*
X142404761Y-132511000D01*
X142547619Y-132463380D01*
X142642857Y-132463380D01*
X142785714Y-132511000D01*
X142833333Y-132558619D01*
X143738095Y-132463380D02*
X143261904Y-132463380D01*
X143214285Y-132939571D01*
X143261904Y-132891952D01*
X143357142Y-132844333D01*
X143595238Y-132844333D01*
X143690476Y-132891952D01*
X143738095Y-132939571D01*
X143785714Y-133034809D01*
X143785714Y-133272904D01*
X143738095Y-133368142D01*
X143690476Y-133415761D01*
X143595238Y-133463380D01*
X143357142Y-133463380D01*
X143261904Y-133415761D01*
X143214285Y-133368142D01*
%TO.C,FEEDBACK_POT1*%
X129447619Y-103478571D02*
X129114285Y-103478571D01*
X129114285Y-104002380D02*
X129114285Y-103002380D01*
X129590476Y-103002380D01*
X129971428Y-103478571D02*
X130304761Y-103478571D01*
X130447619Y-104002380D02*
X129971428Y-104002380D01*
X129971428Y-103002380D01*
X130447619Y-103002380D01*
X130876190Y-103478571D02*
X131209523Y-103478571D01*
X131352380Y-104002380D02*
X130876190Y-104002380D01*
X130876190Y-103002380D01*
X131352380Y-103002380D01*
X131780952Y-104002380D02*
X131780952Y-103002380D01*
X132019047Y-103002380D01*
X132161904Y-103050000D01*
X132257142Y-103145238D01*
X132304761Y-103240476D01*
X132352380Y-103430952D01*
X132352380Y-103573809D01*
X132304761Y-103764285D01*
X132257142Y-103859523D01*
X132161904Y-103954761D01*
X132019047Y-104002380D01*
X131780952Y-104002380D01*
X133114285Y-103478571D02*
X133257142Y-103526190D01*
X133304761Y-103573809D01*
X133352380Y-103669047D01*
X133352380Y-103811904D01*
X133304761Y-103907142D01*
X133257142Y-103954761D01*
X133161904Y-104002380D01*
X132780952Y-104002380D01*
X132780952Y-103002380D01*
X133114285Y-103002380D01*
X133209523Y-103050000D01*
X133257142Y-103097619D01*
X133304761Y-103192857D01*
X133304761Y-103288095D01*
X133257142Y-103383333D01*
X133209523Y-103430952D01*
X133114285Y-103478571D01*
X132780952Y-103478571D01*
X133733333Y-103716666D02*
X134209523Y-103716666D01*
X133638095Y-104002380D02*
X133971428Y-103002380D01*
X134304761Y-104002380D01*
X135209523Y-103907142D02*
X135161904Y-103954761D01*
X135019047Y-104002380D01*
X134923809Y-104002380D01*
X134780952Y-103954761D01*
X134685714Y-103859523D01*
X134638095Y-103764285D01*
X134590476Y-103573809D01*
X134590476Y-103430952D01*
X134638095Y-103240476D01*
X134685714Y-103145238D01*
X134780952Y-103050000D01*
X134923809Y-103002380D01*
X135019047Y-103002380D01*
X135161904Y-103050000D01*
X135209523Y-103097619D01*
X135638095Y-104002380D02*
X135638095Y-103002380D01*
X136209523Y-104002380D02*
X135780952Y-103430952D01*
X136209523Y-103002380D02*
X135638095Y-103573809D01*
X136400000Y-104097619D02*
X137161904Y-104097619D01*
X137400000Y-104002380D02*
X137400000Y-103002380D01*
X137780952Y-103002380D01*
X137876190Y-103050000D01*
X137923809Y-103097619D01*
X137971428Y-103192857D01*
X137971428Y-103335714D01*
X137923809Y-103430952D01*
X137876190Y-103478571D01*
X137780952Y-103526190D01*
X137400000Y-103526190D01*
X138590476Y-103002380D02*
X138780952Y-103002380D01*
X138876190Y-103050000D01*
X138971428Y-103145238D01*
X139019047Y-103335714D01*
X139019047Y-103669047D01*
X138971428Y-103859523D01*
X138876190Y-103954761D01*
X138780952Y-104002380D01*
X138590476Y-104002380D01*
X138495238Y-103954761D01*
X138400000Y-103859523D01*
X138352380Y-103669047D01*
X138352380Y-103335714D01*
X138400000Y-103145238D01*
X138495238Y-103050000D01*
X138590476Y-103002380D01*
X139304761Y-103002380D02*
X139876190Y-103002380D01*
X139590476Y-104002380D02*
X139590476Y-103002380D01*
X140733333Y-104002380D02*
X140161904Y-104002380D01*
X140447619Y-104002380D02*
X140447619Y-103002380D01*
X140352380Y-103145238D01*
X140257142Y-103240476D01*
X140161904Y-103288095D01*
X133519047Y-88128571D02*
X133661904Y-88176190D01*
X133709523Y-88223809D01*
X133757142Y-88319047D01*
X133757142Y-88461904D01*
X133709523Y-88557142D01*
X133661904Y-88604761D01*
X133566666Y-88652380D01*
X133185714Y-88652380D01*
X133185714Y-87652380D01*
X133519047Y-87652380D01*
X133614285Y-87700000D01*
X133661904Y-87747619D01*
X133709523Y-87842857D01*
X133709523Y-87938095D01*
X133661904Y-88033333D01*
X133614285Y-88080952D01*
X133519047Y-88128571D01*
X133185714Y-88128571D01*
X134709523Y-88652380D02*
X134138095Y-88652380D01*
X134423809Y-88652380D02*
X134423809Y-87652380D01*
X134328571Y-87795238D01*
X134233333Y-87890476D01*
X134138095Y-87938095D01*
X135328571Y-87652380D02*
X135423809Y-87652380D01*
X135519047Y-87700000D01*
X135566666Y-87747619D01*
X135614285Y-87842857D01*
X135661904Y-88033333D01*
X135661904Y-88271428D01*
X135614285Y-88461904D01*
X135566666Y-88557142D01*
X135519047Y-88604761D01*
X135423809Y-88652380D01*
X135328571Y-88652380D01*
X135233333Y-88604761D01*
X135185714Y-88557142D01*
X135138095Y-88461904D01*
X135090476Y-88271428D01*
X135090476Y-88033333D01*
X135138095Y-87842857D01*
X135185714Y-87747619D01*
X135233333Y-87700000D01*
X135328571Y-87652380D01*
X136090476Y-88652380D02*
X136090476Y-87652380D01*
X136661904Y-88652380D02*
X136233333Y-88080952D01*
X136661904Y-87652380D02*
X136090476Y-88223809D01*
%TO.C,TP5*%
X138963095Y-63979380D02*
X139534523Y-63979380D01*
X139248809Y-64979380D02*
X139248809Y-63979380D01*
X139867857Y-64979380D02*
X139867857Y-63979380D01*
X140248809Y-63979380D01*
X140344047Y-64027000D01*
X140391666Y-64074619D01*
X140439285Y-64169857D01*
X140439285Y-64312714D01*
X140391666Y-64407952D01*
X140344047Y-64455571D01*
X140248809Y-64503190D01*
X139867857Y-64503190D01*
X141344047Y-63979380D02*
X140867857Y-63979380D01*
X140820238Y-64455571D01*
X140867857Y-64407952D01*
X140963095Y-64360333D01*
X141201190Y-64360333D01*
X141296428Y-64407952D01*
X141344047Y-64455571D01*
X141391666Y-64550809D01*
X141391666Y-64788904D01*
X141344047Y-64884142D01*
X141296428Y-64931761D01*
X141201190Y-64979380D01*
X140963095Y-64979380D01*
X140867857Y-64931761D01*
X140820238Y-64884142D01*
%TO.C,U2*%
X133360095Y-151636380D02*
X133360095Y-152445904D01*
X133407714Y-152541142D01*
X133455333Y-152588761D01*
X133550571Y-152636380D01*
X133741047Y-152636380D01*
X133836285Y-152588761D01*
X133883904Y-152541142D01*
X133931523Y-152445904D01*
X133931523Y-151636380D01*
X134360095Y-151731619D02*
X134407714Y-151684000D01*
X134502952Y-151636380D01*
X134741047Y-151636380D01*
X134836285Y-151684000D01*
X134883904Y-151731619D01*
X134931523Y-151826857D01*
X134931523Y-151922095D01*
X134883904Y-152064952D01*
X134312476Y-152636380D01*
X134931523Y-152636380D01*
%TO.C,R17*%
X133621142Y-130798880D02*
X133287809Y-130322690D01*
X133049714Y-130798880D02*
X133049714Y-129798880D01*
X133430666Y-129798880D01*
X133525904Y-129846500D01*
X133573523Y-129894119D01*
X133621142Y-129989357D01*
X133621142Y-130132214D01*
X133573523Y-130227452D01*
X133525904Y-130275071D01*
X133430666Y-130322690D01*
X133049714Y-130322690D01*
X134573523Y-130798880D02*
X134002095Y-130798880D01*
X134287809Y-130798880D02*
X134287809Y-129798880D01*
X134192571Y-129941738D01*
X134097333Y-130036976D01*
X134002095Y-130084595D01*
X134906857Y-129798880D02*
X135573523Y-129798880D01*
X135144952Y-130798880D01*
%TO.C,C6*%
X142833333Y-148868142D02*
X142785714Y-148915761D01*
X142642857Y-148963380D01*
X142547619Y-148963380D01*
X142404761Y-148915761D01*
X142309523Y-148820523D01*
X142261904Y-148725285D01*
X142214285Y-148534809D01*
X142214285Y-148391952D01*
X142261904Y-148201476D01*
X142309523Y-148106238D01*
X142404761Y-148011000D01*
X142547619Y-147963380D01*
X142642857Y-147963380D01*
X142785714Y-148011000D01*
X142833333Y-148058619D01*
X143690476Y-147963380D02*
X143500000Y-147963380D01*
X143404761Y-148011000D01*
X143357142Y-148058619D01*
X143261904Y-148201476D01*
X143214285Y-148391952D01*
X143214285Y-148772904D01*
X143261904Y-148868142D01*
X143309523Y-148915761D01*
X143404761Y-148963380D01*
X143595238Y-148963380D01*
X143690476Y-148915761D01*
X143738095Y-148868142D01*
X143785714Y-148772904D01*
X143785714Y-148534809D01*
X143738095Y-148439571D01*
X143690476Y-148391952D01*
X143595238Y-148344333D01*
X143404761Y-148344333D01*
X143309523Y-148391952D01*
X143261904Y-148439571D01*
X143214285Y-148534809D01*
%TO.C,TP3*%
X143752380Y-129161904D02*
X143752380Y-128590476D01*
X144752380Y-128876190D02*
X143752380Y-128876190D01*
X144752380Y-128257142D02*
X143752380Y-128257142D01*
X143752380Y-127876190D01*
X143800000Y-127780952D01*
X143847619Y-127733333D01*
X143942857Y-127685714D01*
X144085714Y-127685714D01*
X144180952Y-127733333D01*
X144228571Y-127780952D01*
X144276190Y-127876190D01*
X144276190Y-128257142D01*
X143752380Y-127352380D02*
X143752380Y-126733333D01*
X144133333Y-127066666D01*
X144133333Y-126923809D01*
X144180952Y-126828571D01*
X144228571Y-126780952D01*
X144323809Y-126733333D01*
X144561904Y-126733333D01*
X144657142Y-126780952D01*
X144704761Y-126828571D01*
X144752380Y-126923809D01*
X144752380Y-127209523D01*
X144704761Y-127304761D01*
X144657142Y-127352380D01*
%TO.C,R14*%
X129226380Y-126989357D02*
X128750190Y-127322690D01*
X129226380Y-127560785D02*
X128226380Y-127560785D01*
X128226380Y-127179833D01*
X128274000Y-127084595D01*
X128321619Y-127036976D01*
X128416857Y-126989357D01*
X128559714Y-126989357D01*
X128654952Y-127036976D01*
X128702571Y-127084595D01*
X128750190Y-127179833D01*
X128750190Y-127560785D01*
X129226380Y-126036976D02*
X129226380Y-126608404D01*
X129226380Y-126322690D02*
X128226380Y-126322690D01*
X128369238Y-126417928D01*
X128464476Y-126513166D01*
X128512095Y-126608404D01*
X128559714Y-125179833D02*
X129226380Y-125179833D01*
X128178761Y-125417928D02*
X128893047Y-125656023D01*
X128893047Y-125036976D01*
%TO.C,CV1_IN1*%
X127715714Y-140017142D02*
X127668095Y-140064761D01*
X127525238Y-140112380D01*
X127430000Y-140112380D01*
X127287142Y-140064761D01*
X127191904Y-139969523D01*
X127144285Y-139874285D01*
X127096666Y-139683809D01*
X127096666Y-139540952D01*
X127144285Y-139350476D01*
X127191904Y-139255238D01*
X127287142Y-139160000D01*
X127430000Y-139112380D01*
X127525238Y-139112380D01*
X127668095Y-139160000D01*
X127715714Y-139207619D01*
X128001428Y-139112380D02*
X128334761Y-140112380D01*
X128668095Y-139112380D01*
X129525238Y-140112380D02*
X128953809Y-140112380D01*
X129239523Y-140112380D02*
X129239523Y-139112380D01*
X129144285Y-139255238D01*
X129049047Y-139350476D01*
X128953809Y-139398095D01*
X129715714Y-140207619D02*
X130477619Y-140207619D01*
X130715714Y-140112380D02*
X130715714Y-139112380D01*
X131191904Y-140112380D02*
X131191904Y-139112380D01*
X131763333Y-140112380D01*
X131763333Y-139112380D01*
X132763333Y-140112380D02*
X132191904Y-140112380D01*
X132477619Y-140112380D02*
X132477619Y-139112380D01*
X132382380Y-139255238D01*
X132287142Y-139350476D01*
X132191904Y-139398095D01*
%TO.C,U3*%
X130538095Y-122852380D02*
X130538095Y-123661904D01*
X130585714Y-123757142D01*
X130633333Y-123804761D01*
X130728571Y-123852380D01*
X130919047Y-123852380D01*
X131014285Y-123804761D01*
X131061904Y-123757142D01*
X131109523Y-123661904D01*
X131109523Y-122852380D01*
X131490476Y-122852380D02*
X132109523Y-122852380D01*
X131776190Y-123233333D01*
X131919047Y-123233333D01*
X132014285Y-123280952D01*
X132061904Y-123328571D01*
X132109523Y-123423809D01*
X132109523Y-123661904D01*
X132061904Y-123757142D01*
X132014285Y-123804761D01*
X131919047Y-123852380D01*
X131633333Y-123852380D01*
X131538095Y-123804761D01*
X131490476Y-123757142D01*
%TO.C,C14*%
X133661142Y-129173642D02*
X133613523Y-129221261D01*
X133470666Y-129268880D01*
X133375428Y-129268880D01*
X133232571Y-129221261D01*
X133137333Y-129126023D01*
X133089714Y-129030785D01*
X133042095Y-128840309D01*
X133042095Y-128697452D01*
X133089714Y-128506976D01*
X133137333Y-128411738D01*
X133232571Y-128316500D01*
X133375428Y-128268880D01*
X133470666Y-128268880D01*
X133613523Y-128316500D01*
X133661142Y-128364119D01*
X134613523Y-129268880D02*
X134042095Y-129268880D01*
X134327809Y-129268880D02*
X134327809Y-128268880D01*
X134232571Y-128411738D01*
X134137333Y-128506976D01*
X134042095Y-128554595D01*
X135470666Y-128602214D02*
X135470666Y-129268880D01*
X135232571Y-128221261D02*
X134994476Y-128935547D01*
X135613523Y-128935547D01*
%TO.C,AUDIO_OUT1*%
X135690476Y-161308666D02*
X136166666Y-161308666D01*
X135595238Y-161594380D02*
X135928571Y-160594380D01*
X136261904Y-161594380D01*
X136595238Y-160594380D02*
X136595238Y-161403904D01*
X136642857Y-161499142D01*
X136690476Y-161546761D01*
X136785714Y-161594380D01*
X136976190Y-161594380D01*
X137071428Y-161546761D01*
X137119047Y-161499142D01*
X137166666Y-161403904D01*
X137166666Y-160594380D01*
X137642857Y-161594380D02*
X137642857Y-160594380D01*
X137880952Y-160594380D01*
X138023809Y-160642000D01*
X138119047Y-160737238D01*
X138166666Y-160832476D01*
X138214285Y-161022952D01*
X138214285Y-161165809D01*
X138166666Y-161356285D01*
X138119047Y-161451523D01*
X138023809Y-161546761D01*
X137880952Y-161594380D01*
X137642857Y-161594380D01*
X138642857Y-161594380D02*
X138642857Y-160594380D01*
X139309523Y-160594380D02*
X139500000Y-160594380D01*
X139595238Y-160642000D01*
X139690476Y-160737238D01*
X139738095Y-160927714D01*
X139738095Y-161261047D01*
X139690476Y-161451523D01*
X139595238Y-161546761D01*
X139500000Y-161594380D01*
X139309523Y-161594380D01*
X139214285Y-161546761D01*
X139119047Y-161451523D01*
X139071428Y-161261047D01*
X139071428Y-160927714D01*
X139119047Y-160737238D01*
X139214285Y-160642000D01*
X139309523Y-160594380D01*
X139928571Y-161689619D02*
X140690476Y-161689619D01*
X141119047Y-160594380D02*
X141309523Y-160594380D01*
X141404761Y-160642000D01*
X141500000Y-160737238D01*
X141547619Y-160927714D01*
X141547619Y-161261047D01*
X141500000Y-161451523D01*
X141404761Y-161546761D01*
X141309523Y-161594380D01*
X141119047Y-161594380D01*
X141023809Y-161546761D01*
X140928571Y-161451523D01*
X140880952Y-161261047D01*
X140880952Y-160927714D01*
X140928571Y-160737238D01*
X141023809Y-160642000D01*
X141119047Y-160594380D01*
X141976190Y-160594380D02*
X141976190Y-161403904D01*
X142023809Y-161499142D01*
X142071428Y-161546761D01*
X142166666Y-161594380D01*
X142357142Y-161594380D01*
X142452380Y-161546761D01*
X142500000Y-161499142D01*
X142547619Y-161403904D01*
X142547619Y-160594380D01*
X142880952Y-160594380D02*
X143452380Y-160594380D01*
X143166666Y-161594380D02*
X143166666Y-160594380D01*
X144309523Y-161594380D02*
X143738095Y-161594380D01*
X144023809Y-161594380D02*
X144023809Y-160594380D01*
X143928571Y-160737238D01*
X143833333Y-160832476D01*
X143738095Y-160880095D01*
%TO.C,R11*%
X143962380Y-141814857D02*
X143486190Y-142148190D01*
X143962380Y-142386285D02*
X142962380Y-142386285D01*
X142962380Y-142005333D01*
X143010000Y-141910095D01*
X143057619Y-141862476D01*
X143152857Y-141814857D01*
X143295714Y-141814857D01*
X143390952Y-141862476D01*
X143438571Y-141910095D01*
X143486190Y-142005333D01*
X143486190Y-142386285D01*
X143962380Y-140862476D02*
X143962380Y-141433904D01*
X143962380Y-141148190D02*
X142962380Y-141148190D01*
X143105238Y-141243428D01*
X143200476Y-141338666D01*
X143248095Y-141433904D01*
X143962380Y-139910095D02*
X143962380Y-140481523D01*
X143962380Y-140195809D02*
X142962380Y-140195809D01*
X143105238Y-140291047D01*
X143200476Y-140386285D01*
X143248095Y-140481523D01*
%TO.C,C9*%
X137243142Y-152108666D02*
X137290761Y-152156285D01*
X137338380Y-152299142D01*
X137338380Y-152394380D01*
X137290761Y-152537238D01*
X137195523Y-152632476D01*
X137100285Y-152680095D01*
X136909809Y-152727714D01*
X136766952Y-152727714D01*
X136576476Y-152680095D01*
X136481238Y-152632476D01*
X136386000Y-152537238D01*
X136338380Y-152394380D01*
X136338380Y-152299142D01*
X136386000Y-152156285D01*
X136433619Y-152108666D01*
X137338380Y-151632476D02*
X137338380Y-151442000D01*
X137290761Y-151346761D01*
X137243142Y-151299142D01*
X137100285Y-151203904D01*
X136909809Y-151156285D01*
X136528857Y-151156285D01*
X136433619Y-151203904D01*
X136386000Y-151251523D01*
X136338380Y-151346761D01*
X136338380Y-151537238D01*
X136386000Y-151632476D01*
X136433619Y-151680095D01*
X136528857Y-151727714D01*
X136766952Y-151727714D01*
X136862190Y-151680095D01*
X136909809Y-151632476D01*
X136957428Y-151537238D01*
X136957428Y-151346761D01*
X136909809Y-151251523D01*
X136862190Y-151203904D01*
X136766952Y-151156285D01*
%TO.C,MOD_POT1*%
X131380952Y-120052380D02*
X131380952Y-119052380D01*
X131714285Y-119766666D01*
X132047619Y-119052380D01*
X132047619Y-120052380D01*
X132714285Y-119052380D02*
X132904761Y-119052380D01*
X133000000Y-119100000D01*
X133095238Y-119195238D01*
X133142857Y-119385714D01*
X133142857Y-119719047D01*
X133095238Y-119909523D01*
X133000000Y-120004761D01*
X132904761Y-120052380D01*
X132714285Y-120052380D01*
X132619047Y-120004761D01*
X132523809Y-119909523D01*
X132476190Y-119719047D01*
X132476190Y-119385714D01*
X132523809Y-119195238D01*
X132619047Y-119100000D01*
X132714285Y-119052380D01*
X133571428Y-120052380D02*
X133571428Y-119052380D01*
X133809523Y-119052380D01*
X133952380Y-119100000D01*
X134047619Y-119195238D01*
X134095238Y-119290476D01*
X134142857Y-119480952D01*
X134142857Y-119623809D01*
X134095238Y-119814285D01*
X134047619Y-119909523D01*
X133952380Y-120004761D01*
X133809523Y-120052380D01*
X133571428Y-120052380D01*
X134333333Y-120147619D02*
X135095238Y-120147619D01*
X135333333Y-120052380D02*
X135333333Y-119052380D01*
X135714285Y-119052380D01*
X135809523Y-119100000D01*
X135857142Y-119147619D01*
X135904761Y-119242857D01*
X135904761Y-119385714D01*
X135857142Y-119480952D01*
X135809523Y-119528571D01*
X135714285Y-119576190D01*
X135333333Y-119576190D01*
X136523809Y-119052380D02*
X136714285Y-119052380D01*
X136809523Y-119100000D01*
X136904761Y-119195238D01*
X136952380Y-119385714D01*
X136952380Y-119719047D01*
X136904761Y-119909523D01*
X136809523Y-120004761D01*
X136714285Y-120052380D01*
X136523809Y-120052380D01*
X136428571Y-120004761D01*
X136333333Y-119909523D01*
X136285714Y-119719047D01*
X136285714Y-119385714D01*
X136333333Y-119195238D01*
X136428571Y-119100000D01*
X136523809Y-119052380D01*
X137238095Y-119052380D02*
X137809523Y-119052380D01*
X137523809Y-120052380D02*
X137523809Y-119052380D01*
X138666666Y-120052380D02*
X138095238Y-120052380D01*
X138380952Y-120052380D02*
X138380952Y-119052380D01*
X138285714Y-119195238D01*
X138190476Y-119290476D01*
X138095238Y-119338095D01*
X133519047Y-108228571D02*
X133661904Y-108276190D01*
X133709523Y-108323809D01*
X133757142Y-108419047D01*
X133757142Y-108561904D01*
X133709523Y-108657142D01*
X133661904Y-108704761D01*
X133566666Y-108752380D01*
X133185714Y-108752380D01*
X133185714Y-107752380D01*
X133519047Y-107752380D01*
X133614285Y-107800000D01*
X133661904Y-107847619D01*
X133709523Y-107942857D01*
X133709523Y-108038095D01*
X133661904Y-108133333D01*
X133614285Y-108180952D01*
X133519047Y-108228571D01*
X133185714Y-108228571D01*
X134709523Y-108752380D02*
X134138095Y-108752380D01*
X134423809Y-108752380D02*
X134423809Y-107752380D01*
X134328571Y-107895238D01*
X134233333Y-107990476D01*
X134138095Y-108038095D01*
X135328571Y-107752380D02*
X135423809Y-107752380D01*
X135519047Y-107800000D01*
X135566666Y-107847619D01*
X135614285Y-107942857D01*
X135661904Y-108133333D01*
X135661904Y-108371428D01*
X135614285Y-108561904D01*
X135566666Y-108657142D01*
X135519047Y-108704761D01*
X135423809Y-108752380D01*
X135328571Y-108752380D01*
X135233333Y-108704761D01*
X135185714Y-108657142D01*
X135138095Y-108561904D01*
X135090476Y-108371428D01*
X135090476Y-108133333D01*
X135138095Y-107942857D01*
X135185714Y-107847619D01*
X135233333Y-107800000D01*
X135328571Y-107752380D01*
X136090476Y-108752380D02*
X136090476Y-107752380D01*
X136661904Y-108752380D02*
X136233333Y-108180952D01*
X136661904Y-107752380D02*
X136090476Y-108323809D01*
%TO.C,LEVEL_POT1*%
X131359523Y-84002380D02*
X130883333Y-84002380D01*
X130883333Y-83002380D01*
X131692857Y-83478571D02*
X132026190Y-83478571D01*
X132169047Y-84002380D02*
X131692857Y-84002380D01*
X131692857Y-83002380D01*
X132169047Y-83002380D01*
X132454761Y-83002380D02*
X132788095Y-84002380D01*
X133121428Y-83002380D01*
X133454761Y-83478571D02*
X133788095Y-83478571D01*
X133930952Y-84002380D02*
X133454761Y-84002380D01*
X133454761Y-83002380D01*
X133930952Y-83002380D01*
X134835714Y-84002380D02*
X134359523Y-84002380D01*
X134359523Y-83002380D01*
X134930952Y-84097619D02*
X135692857Y-84097619D01*
X135930952Y-84002380D02*
X135930952Y-83002380D01*
X136311904Y-83002380D01*
X136407142Y-83050000D01*
X136454761Y-83097619D01*
X136502380Y-83192857D01*
X136502380Y-83335714D01*
X136454761Y-83430952D01*
X136407142Y-83478571D01*
X136311904Y-83526190D01*
X135930952Y-83526190D01*
X137121428Y-83002380D02*
X137311904Y-83002380D01*
X137407142Y-83050000D01*
X137502380Y-83145238D01*
X137550000Y-83335714D01*
X137550000Y-83669047D01*
X137502380Y-83859523D01*
X137407142Y-83954761D01*
X137311904Y-84002380D01*
X137121428Y-84002380D01*
X137026190Y-83954761D01*
X136930952Y-83859523D01*
X136883333Y-83669047D01*
X136883333Y-83335714D01*
X136930952Y-83145238D01*
X137026190Y-83050000D01*
X137121428Y-83002380D01*
X137835714Y-83002380D02*
X138407142Y-83002380D01*
X138121428Y-84002380D02*
X138121428Y-83002380D01*
X139264285Y-84002380D02*
X138692857Y-84002380D01*
X138978571Y-84002380D02*
X138978571Y-83002380D01*
X138883333Y-83145238D01*
X138788095Y-83240476D01*
X138692857Y-83288095D01*
X133419047Y-68228571D02*
X133561904Y-68276190D01*
X133609523Y-68323809D01*
X133657142Y-68419047D01*
X133657142Y-68561904D01*
X133609523Y-68657142D01*
X133561904Y-68704761D01*
X133466666Y-68752380D01*
X133085714Y-68752380D01*
X133085714Y-67752380D01*
X133419047Y-67752380D01*
X133514285Y-67800000D01*
X133561904Y-67847619D01*
X133609523Y-67942857D01*
X133609523Y-68038095D01*
X133561904Y-68133333D01*
X133514285Y-68180952D01*
X133419047Y-68228571D01*
X133085714Y-68228571D01*
X134609523Y-68752380D02*
X134038095Y-68752380D01*
X134323809Y-68752380D02*
X134323809Y-67752380D01*
X134228571Y-67895238D01*
X134133333Y-67990476D01*
X134038095Y-68038095D01*
X135228571Y-67752380D02*
X135323809Y-67752380D01*
X135419047Y-67800000D01*
X135466666Y-67847619D01*
X135514285Y-67942857D01*
X135561904Y-68133333D01*
X135561904Y-68371428D01*
X135514285Y-68561904D01*
X135466666Y-68657142D01*
X135419047Y-68704761D01*
X135323809Y-68752380D01*
X135228571Y-68752380D01*
X135133333Y-68704761D01*
X135085714Y-68657142D01*
X135038095Y-68561904D01*
X134990476Y-68371428D01*
X134990476Y-68133333D01*
X135038095Y-67942857D01*
X135085714Y-67847619D01*
X135133333Y-67800000D01*
X135228571Y-67752380D01*
X135990476Y-68752380D02*
X135990476Y-67752380D01*
X136561904Y-68752380D02*
X136133333Y-68180952D01*
X136561904Y-67752380D02*
X135990476Y-68323809D01*
%TO.C,D1*%
X126251904Y-147172380D02*
X126251904Y-146172380D01*
X126490000Y-146172380D01*
X126632857Y-146220000D01*
X126728095Y-146315238D01*
X126775714Y-146410476D01*
X126823333Y-146600952D01*
X126823333Y-146743809D01*
X126775714Y-146934285D01*
X126728095Y-147029523D01*
X126632857Y-147124761D01*
X126490000Y-147172380D01*
X126251904Y-147172380D01*
X127775714Y-147172380D02*
X127204285Y-147172380D01*
X127490000Y-147172380D02*
X127490000Y-146172380D01*
X127394761Y-146315238D01*
X127299523Y-146410476D01*
X127204285Y-146458095D01*
%TO.C,TP7*%
X129013095Y-64029380D02*
X129584523Y-64029380D01*
X129298809Y-65029380D02*
X129298809Y-64029380D01*
X129917857Y-65029380D02*
X129917857Y-64029380D01*
X130298809Y-64029380D01*
X130394047Y-64077000D01*
X130441666Y-64124619D01*
X130489285Y-64219857D01*
X130489285Y-64362714D01*
X130441666Y-64457952D01*
X130394047Y-64505571D01*
X130298809Y-64553190D01*
X129917857Y-64553190D01*
X130822619Y-64029380D02*
X131489285Y-64029380D01*
X131060714Y-65029380D01*
%TO.C,R12*%
X137358380Y-143589357D02*
X136882190Y-143922690D01*
X137358380Y-144160785D02*
X136358380Y-144160785D01*
X136358380Y-143779833D01*
X136406000Y-143684595D01*
X136453619Y-143636976D01*
X136548857Y-143589357D01*
X136691714Y-143589357D01*
X136786952Y-143636976D01*
X136834571Y-143684595D01*
X136882190Y-143779833D01*
X136882190Y-144160785D01*
X137358380Y-142636976D02*
X137358380Y-143208404D01*
X137358380Y-142922690D02*
X136358380Y-142922690D01*
X136501238Y-143017928D01*
X136596476Y-143113166D01*
X136644095Y-143208404D01*
X136453619Y-142256023D02*
X136406000Y-142208404D01*
X136358380Y-142113166D01*
X136358380Y-141875071D01*
X136406000Y-141779833D01*
X136453619Y-141732214D01*
X136548857Y-141684595D01*
X136644095Y-141684595D01*
X136786952Y-141732214D01*
X137358380Y-142303642D01*
X137358380Y-141684595D01*
%TO.C,R16*%
X127706380Y-127069357D02*
X127230190Y-127402690D01*
X127706380Y-127640785D02*
X126706380Y-127640785D01*
X126706380Y-127259833D01*
X126754000Y-127164595D01*
X126801619Y-127116976D01*
X126896857Y-127069357D01*
X127039714Y-127069357D01*
X127134952Y-127116976D01*
X127182571Y-127164595D01*
X127230190Y-127259833D01*
X127230190Y-127640785D01*
X127706380Y-126116976D02*
X127706380Y-126688404D01*
X127706380Y-126402690D02*
X126706380Y-126402690D01*
X126849238Y-126497928D01*
X126944476Y-126593166D01*
X126992095Y-126688404D01*
X126706380Y-125259833D02*
X126706380Y-125450309D01*
X126754000Y-125545547D01*
X126801619Y-125593166D01*
X126944476Y-125688404D01*
X127134952Y-125736023D01*
X127515904Y-125736023D01*
X127611142Y-125688404D01*
X127658761Y-125640785D01*
X127706380Y-125545547D01*
X127706380Y-125355071D01*
X127658761Y-125259833D01*
X127611142Y-125212214D01*
X127515904Y-125164595D01*
X127277809Y-125164595D01*
X127182571Y-125212214D01*
X127134952Y-125259833D01*
X127087333Y-125355071D01*
X127087333Y-125545547D01*
X127134952Y-125640785D01*
X127182571Y-125688404D01*
X127277809Y-125736023D01*
%TO.C,AUDIO_IN1*%
X126357142Y-161308666D02*
X126833333Y-161308666D01*
X126261904Y-161594380D02*
X126595238Y-160594380D01*
X126928571Y-161594380D01*
X127261904Y-160594380D02*
X127261904Y-161403904D01*
X127309523Y-161499142D01*
X127357142Y-161546761D01*
X127452380Y-161594380D01*
X127642857Y-161594380D01*
X127738095Y-161546761D01*
X127785714Y-161499142D01*
X127833333Y-161403904D01*
X127833333Y-160594380D01*
X128309523Y-161594380D02*
X128309523Y-160594380D01*
X128547619Y-160594380D01*
X128690476Y-160642000D01*
X128785714Y-160737238D01*
X128833333Y-160832476D01*
X128880952Y-161022952D01*
X128880952Y-161165809D01*
X128833333Y-161356285D01*
X128785714Y-161451523D01*
X128690476Y-161546761D01*
X128547619Y-161594380D01*
X128309523Y-161594380D01*
X129309523Y-161594380D02*
X129309523Y-160594380D01*
X129976190Y-160594380D02*
X130166666Y-160594380D01*
X130261904Y-160642000D01*
X130357142Y-160737238D01*
X130404761Y-160927714D01*
X130404761Y-161261047D01*
X130357142Y-161451523D01*
X130261904Y-161546761D01*
X130166666Y-161594380D01*
X129976190Y-161594380D01*
X129880952Y-161546761D01*
X129785714Y-161451523D01*
X129738095Y-161261047D01*
X129738095Y-160927714D01*
X129785714Y-160737238D01*
X129880952Y-160642000D01*
X129976190Y-160594380D01*
X130595238Y-161689619D02*
X131357142Y-161689619D01*
X131595238Y-161594380D02*
X131595238Y-160594380D01*
X132071428Y-161594380D02*
X132071428Y-160594380D01*
X132642857Y-161594380D01*
X132642857Y-160594380D01*
X133642857Y-161594380D02*
X133071428Y-161594380D01*
X133357142Y-161594380D02*
X133357142Y-160594380D01*
X133261904Y-160737238D01*
X133166666Y-160832476D01*
X133071428Y-160880095D01*
D11*
%TO.C,C13*%
X134314000Y-126502767D02*
X134314000Y-126210233D01*
X133294000Y-126502767D02*
X133294000Y-126210233D01*
%TO.C,C5*%
X139738748Y-132276000D02*
X140261252Y-132276000D01*
X139738748Y-133746000D02*
X140261252Y-133746000D01*
%TO.C,FEEDBACK_POT1*%
X136660000Y-100665000D02*
X135830000Y-100665000D01*
X131310000Y-100665000D02*
X130130000Y-100665000D01*
X130130000Y-92135000D02*
X130130000Y-89075000D01*
X134210000Y-100665000D02*
X133680000Y-100665000D01*
X130120000Y-100665000D02*
X130120000Y-95945000D01*
X139870000Y-89075000D02*
X130130000Y-89075000D01*
X139870000Y-92135000D02*
X139870000Y-89075000D01*
X139870000Y-100665000D02*
X139870000Y-95945000D01*
X139870000Y-100665000D02*
X138380000Y-100665000D01*
%TO.C,TP5*%
X139525000Y-65275000D02*
X140925000Y-65275000D01*
X140925000Y-65275000D02*
X140925000Y-66675000D01*
X139525000Y-66675000D02*
X139525000Y-65275000D01*
X140925000Y-66675000D02*
X139525000Y-66675000D01*
%TO.C,U2*%
X132532000Y-148084000D02*
X132532000Y-151244000D01*
X135692000Y-148084000D02*
X134762000Y-148084000D01*
X135692000Y-148084000D02*
X135692000Y-149544000D01*
X132532000Y-148084000D02*
X133462000Y-148084000D01*
%TO.C,R17*%
X131498724Y-129824000D02*
X130989276Y-129824000D01*
X131498724Y-130869000D02*
X130989276Y-130869000D01*
%TO.C,C6*%
X139826248Y-147776000D02*
X140348752Y-147776000D01*
X139826248Y-149246000D02*
X140348752Y-149246000D01*
%TO.C,TP3*%
X143300000Y-128600000D02*
G75*
G03*
X143300000Y-128600000I-1500000J0D01*
G01*
%TO.C,R14*%
X128251500Y-129191776D02*
X128251500Y-129701224D01*
X129296500Y-129191776D02*
X129296500Y-129701224D01*
%TO.C,CV1_IN1*%
X128910000Y-132040000D02*
X128910000Y-132840000D01*
X134470000Y-135020000D02*
X130320000Y-135020000D01*
X134470000Y-135020000D02*
X134470000Y-145520000D01*
X129470000Y-145520000D02*
X125470000Y-145520000D01*
X129620000Y-135020000D02*
X125470000Y-135020000D01*
X125470000Y-135020000D02*
X125470000Y-145520000D01*
X128910000Y-132040000D02*
X129770000Y-132040000D01*
X134470000Y-145520000D02*
X130470000Y-145520000D01*
X131770000Y-139520000D02*
G75*
G03*
X131770000Y-139520000I-1800000J0D01*
G01*
%TO.C,U3*%
X132854000Y-125956500D02*
X132854000Y-124156500D01*
X129734000Y-125956500D02*
X129734000Y-125156500D01*
X129734000Y-125956500D02*
X129734000Y-126756500D01*
X132854000Y-125956500D02*
X132854000Y-126756500D01*
%TO.C,C14*%
X131400267Y-129326500D02*
X131107733Y-129326500D01*
X131400267Y-128306500D02*
X131107733Y-128306500D01*
%TO.C,AUDIO_OUT1*%
X138940000Y-152162000D02*
X139800000Y-152162000D01*
X139650000Y-155142000D02*
X135500000Y-155142000D01*
X144500000Y-165642000D02*
X140500000Y-165642000D01*
X144500000Y-155142000D02*
X144500000Y-165642000D01*
X138940000Y-152162000D02*
X138940000Y-152962000D01*
X144500000Y-155142000D02*
X140350000Y-155142000D01*
X139500000Y-165642000D02*
X135500000Y-165642000D01*
X135500000Y-155142000D02*
X135500000Y-165642000D01*
X141800000Y-159642000D02*
G75*
G03*
X141800000Y-159642000I-1800000J0D01*
G01*
%TO.C,R11*%
X142987500Y-144526724D02*
X142987500Y-144017276D01*
X144032500Y-144526724D02*
X144032500Y-144017276D01*
%TO.C,C9*%
X136396000Y-149205733D02*
X136396000Y-149498267D01*
X137416000Y-149205733D02*
X137416000Y-149498267D01*
%TO.C,MOD_POT1*%
X136720000Y-120675000D02*
X135890000Y-120675000D01*
X134270000Y-120675000D02*
X133740000Y-120675000D01*
X131370000Y-120675000D02*
X130190000Y-120675000D01*
X139930000Y-112145000D02*
X139930000Y-109085000D01*
X139930000Y-120675000D02*
X139930000Y-115955000D01*
X130190000Y-112145000D02*
X130190000Y-109085000D01*
X139930000Y-120675000D02*
X138440000Y-120675000D01*
X130180000Y-120675000D02*
X130180000Y-115955000D01*
X139930000Y-109085000D02*
X130190000Y-109085000D01*
%TO.C,LEVEL_POT1*%
X131330000Y-80675000D02*
X130150000Y-80675000D01*
X139890000Y-80675000D02*
X139890000Y-75955000D01*
X136680000Y-80675000D02*
X135850000Y-80675000D01*
X130140000Y-80675000D02*
X130140000Y-75955000D01*
X139890000Y-80675000D02*
X138400000Y-80675000D01*
X130150000Y-72145000D02*
X130150000Y-69085000D01*
X139890000Y-72145000D02*
X139890000Y-69085000D01*
X134230000Y-80675000D02*
X133700000Y-80675000D01*
X139890000Y-69085000D02*
X130150000Y-69085000D01*
%TO.C,D1*%
X127485000Y-147764000D02*
X127485000Y-147920000D01*
X127485000Y-150080000D02*
X127485000Y-150236000D01*
X128004039Y-150080000D02*
G75*
G03*
X130086130Y-150079837I1040961J1080000D01*
G01*
X127485000Y-150235516D02*
G75*
G03*
X130717335Y-150078608I1560000J1235516D01*
G01*
X130717335Y-147921392D02*
G75*
G03*
X127485000Y-147764484I-1672335J-1078608D01*
G01*
X130086130Y-147920163D02*
G75*
G03*
X128004039Y-147920000I-1041130J-1079837D01*
G01*
%TO.C,TP7*%
X129575000Y-66725000D02*
X129575000Y-65325000D01*
X130975000Y-66725000D02*
X129575000Y-66725000D01*
X130975000Y-65325000D02*
X130975000Y-66725000D01*
X129575000Y-65325000D02*
X130975000Y-65325000D01*
%TO.C,R12*%
X136383500Y-145691776D02*
X136383500Y-146201224D01*
X137428500Y-145691776D02*
X137428500Y-146201224D01*
%TO.C,R16*%
X126731500Y-129181776D02*
X126731500Y-129691224D01*
X127776500Y-129181776D02*
X127776500Y-129691224D01*
%TO.C,AUDIO_IN1*%
X128940000Y-152162000D02*
X129800000Y-152162000D01*
X134500000Y-165642000D02*
X130500000Y-165642000D01*
X129650000Y-155142000D02*
X125500000Y-155142000D01*
X134500000Y-155142000D02*
X134500000Y-165642000D01*
X129500000Y-165642000D02*
X125500000Y-165642000D01*
X125500000Y-155142000D02*
X125500000Y-165642000D01*
X128940000Y-152162000D02*
X128940000Y-152962000D01*
X134500000Y-155142000D02*
X130350000Y-155142000D01*
X131800000Y-159642000D02*
G75*
G03*
X131800000Y-159642000I-1800000J0D01*
G01*
%TD*%
M02*
