<?xml version="1.0" standalone="no"?>
 <!DOCTYPE svg PUBLIC "-//W3C//DTD SVG 1.1//EN" 
 "http://www.w3.org/Graphics/SVG/1.1/DTD/svg11.dtd"> 
<svg
  xmlns:svg="http://www.w3.org/2000/svg"
  xmlns="http://www.w3.org/2000/svg"
  xmlns:xlink="http://www.w3.org/1999/xlink"
  version="1.1"
  width="29.700220cm" height="21.000720cm" viewBox="0 0 297002200 210007200">
<title>SVG Picture created as MiniVerb-F_Fab.svg date 2022/12/07 20:25:59 </title>
  <desc>Picture generated by PCBNEW </desc>
<g style="fill:#000000; fill-opacity:1.000000;stroke:#000000; stroke-opacity:1.000000;
stroke-linecap:round; stroke-linejoin:round;"
 transform="translate(0 0) scale(1 1)">
</g>
<g style="fill:#000000; fill-opacity:0.0; 
stroke:#000000; stroke-width:0.000000; stroke-opacity:1; 
stroke-linecap:round; stroke-linejoin:round;">
</g>
<g style="fill:#000000; fill-opacity:0.0; 
stroke:#000000; stroke-width:21200.000000; stroke-opacity:1; 
stroke-linecap:round; stroke-linejoin:round;">
</g>
<g style="fill:#000000; fill-opacity:0.0; 
stroke:#000000; stroke-width:150000.000000; stroke-opacity:1; 
stroke-linecap:round; stroke-linejoin:round;">
<rect x="177002200.000000" y="166007200.000000" width="108000000.000000" height="32000000.000000" rx="0.000000" />
</g>
<g style="fill:#000000; fill-opacity:0.0; 
stroke:#000000; stroke-width:21200.000000; stroke-opacity:1; 
stroke-linecap:round; stroke-linejoin:round;">
</g>
<g style="fill:#000000; fill-opacity:0.0; 
stroke:#000000; stroke-width:150000.000000; stroke-opacity:1; 
stroke-linecap:round; stroke-linejoin:round;">
<rect x="10000000.000000" y="10000000.000000" width="277002200.000000" height="190007200.000000" rx="0.000000" />
</g>
<g style="fill:#000000; fill-opacity:0.0; 
stroke:#000000; stroke-width:21200.000000; stroke-opacity:1; 
stroke-linecap:round; stroke-linejoin:round;">
</g>
<g style="fill:#000000; fill-opacity:0.0; 
stroke:#000000; stroke-width:150000.000000; stroke-opacity:1; 
stroke-linecap:round; stroke-linejoin:round;">
<rect x="12000000.000000" y="12000000.000000" width="273002200.000000" height="186007200.000000" rx="0.000000" />
</g>
<g style="fill:#000000; fill-opacity:0.0; 
stroke:#000000; stroke-width:21200.000000; stroke-opacity:1; 
stroke-linecap:round; stroke-linejoin:round;">
</g>
<g style="fill:#000000; fill-opacity:0.0; 
stroke:#000000; stroke-width:150000.000000; stroke-opacity:1; 
stroke-linecap:round; stroke-linejoin:round;">
<path d="M60000000 12000000
L60000000 10000000
" />
</g>
<g style="fill:#000000; fill-opacity:0.0; 
stroke:#000000; stroke-width:21200.000000; stroke-opacity:1; 
stroke-linecap:round; stroke-linejoin:round;">
</g>
<g style="fill:#000000; fill-opacity:0.0; 
stroke:#000000; stroke-width:150000.000000; stroke-opacity:1; 
stroke-linecap:round; stroke-linejoin:round;">
<path d="M110000000 12000000
L110000000 10000000
" />
</g>
<g style="fill:#000000; fill-opacity:0.0; 
stroke:#000000; stroke-width:21200.000000; stroke-opacity:1; 
stroke-linecap:round; stroke-linejoin:round;">
</g>
<g style="fill:#000000; fill-opacity:0.0; 
stroke:#000000; stroke-width:150000.000000; stroke-opacity:1; 
stroke-linecap:round; stroke-linejoin:round;">
<path d="M160000000 12000000
L160000000 10000000
" />
</g>
<g style="fill:#000000; fill-opacity:0.0; 
stroke:#000000; stroke-width:21200.000000; stroke-opacity:1; 
stroke-linecap:round; stroke-linejoin:round;">
</g>
<g style="fill:#000000; fill-opacity:0.0; 
stroke:#000000; stroke-width:150000.000000; stroke-opacity:1; 
stroke-linecap:round; stroke-linejoin:round;">
<path d="M210000000 12000000
L210000000 10000000
" />
</g>
<g style="fill:#000000; fill-opacity:0.0; 
stroke:#000000; stroke-width:21200.000000; stroke-opacity:1; 
stroke-linecap:round; stroke-linejoin:round;">
</g>
<g style="fill:#000000; fill-opacity:0.0; 
stroke:#000000; stroke-width:150000.000000; stroke-opacity:1; 
stroke-linecap:round; stroke-linejoin:round;">
<path d="M260000000 12000000
L260000000 10000000
" />
</g>
<g style="fill:#000000; fill-opacity:0.0; 
stroke:#000000; stroke-width:21200.000000; stroke-opacity:1; 
stroke-linecap:round; stroke-linejoin:round;">
</g>
<g style="fill:#000000; fill-opacity:0.0; 
stroke:#000000; stroke-width:150000.000000; stroke-opacity:1; 
stroke-linecap:round; stroke-linejoin:round;">
<text x="35000000.000000" y="11650000.000000"
textLength="1238096.000000" font-size="1733333.000000" lengthAdjust="spacingAndGlyphs"
text-anchor="start" opacity="0">1</text>
<g class="stroked-text"><desc>1</desc>
<path d="M36065476 11588095
L35322619 11588095
" />
<path d="M35694047 11588095
L35694047 10288095
L35570238 10473809
L35446428 10597619
L35322619 10659523
" />
</g></g>
<g style="fill:#000000; fill-opacity:0.0; 
stroke:#000000; stroke-width:21200.000000; stroke-opacity:1; 
stroke-linecap:round; stroke-linejoin:round;">
</g>
<g style="fill:#000000; fill-opacity:0.0; 
stroke:#000000; stroke-width:150000.000000; stroke-opacity:1; 
stroke-linecap:round; stroke-linejoin:round;">
<text x="85000000.000000" y="11650000.000000"
textLength="1388095.000000" font-size="1733333.000000" lengthAdjust="spacingAndGlyphs"
text-anchor="start" opacity="0">2</text>
<g class="stroked-text"><desc>2</desc>
<path d="M85322619 10411904
L85384523 10350000
L85508333 10288095
L85817857 10288095
L85941666 10350000
L86003571 10411904
L86065476 10535714
L86065476 10659523
L86003571 10845238
L85260714 11588095
L86065476 11588095
" />
</g></g>
<g style="fill:#000000; fill-opacity:0.0; 
stroke:#000000; stroke-width:21200.000000; stroke-opacity:1; 
stroke-linecap:round; stroke-linejoin:round;">
</g>
<g style="fill:#000000; fill-opacity:0.0; 
stroke:#000000; stroke-width:150000.000000; stroke-opacity:1; 
stroke-linecap:round; stroke-linejoin:round;">
<text x="135000000.000000" y="11650000.000000"
textLength="1388095.000000" font-size="1733333.000000" lengthAdjust="spacingAndGlyphs"
text-anchor="start" opacity="0">3</text>
<g class="stroked-text"><desc>3</desc>
<path d="M135260714 10288095
L136065476 10288095
L135632142 10783333
L135817857 10783333
L135941666 10845238
L136003571 10907142
L136065476 11030952
L136065476 11340476
L136003571 11464285
L135941666 11526190
L135817857 11588095
L135446428 11588095
L135322619 11526190
L135260714 11464285
" />
</g></g>
<g style="fill:#000000; fill-opacity:0.0; 
stroke:#000000; stroke-width:21200.000000; stroke-opacity:1; 
stroke-linecap:round; stroke-linejoin:round;">
</g>
<g style="fill:#000000; fill-opacity:0.0; 
stroke:#000000; stroke-width:150000.000000; stroke-opacity:1; 
stroke-linecap:round; stroke-linejoin:round;">
<text x="185000000.000000" y="11650000.000000"
textLength="1388095.000000" font-size="1733333.000000" lengthAdjust="spacingAndGlyphs"
text-anchor="start" opacity="0">4</text>
<g class="stroked-text"><desc>4</desc>
<path d="M185941666 10721428
L185941666 11588095
" />
<path d="M185632142 10226190
L185322619 11154761
L186127380 11154761
" />
</g></g>
<g style="fill:#000000; fill-opacity:0.0; 
stroke:#000000; stroke-width:21200.000000; stroke-opacity:1; 
stroke-linecap:round; stroke-linejoin:round;">
</g>
<g style="fill:#000000; fill-opacity:0.0; 
stroke:#000000; stroke-width:150000.000000; stroke-opacity:1; 
stroke-linecap:round; stroke-linejoin:round;">
<text x="235000000.000000" y="11650000.000000"
textLength="1388095.000000" font-size="1733333.000000" lengthAdjust="spacingAndGlyphs"
text-anchor="start" opacity="0">5</text>
<g class="stroked-text"><desc>5</desc>
<path d="M236003571 10288095
L235384523 10288095
L235322619 10907142
L235384523 10845238
L235508333 10783333
L235817857 10783333
L235941666 10845238
L236003571 10907142
L236065476 11030952
L236065476 11340476
L236003571 11464285
L235941666 11526190
L235817857 11588095
L235508333 11588095
L235384523 11526190
L235322619 11464285
" />
</g></g>
<g style="fill:#000000; fill-opacity:0.0; 
stroke:#000000; stroke-width:21200.000000; stroke-opacity:1; 
stroke-linecap:round; stroke-linejoin:round;">
</g>
<g style="fill:#000000; fill-opacity:0.0; 
stroke:#000000; stroke-width:150000.000000; stroke-opacity:1; 
stroke-linecap:round; stroke-linejoin:round;">
<text x="285000000.000000" y="11650000.000000"
textLength="1388095.000000" font-size="1733333.000000" lengthAdjust="spacingAndGlyphs"
text-anchor="start" opacity="0">6</text>
<g class="stroked-text"><desc>6</desc>
<path d="M285941666 10288095
L285694047 10288095
L285570238 10350000
L285508333 10411904
L285384523 10597619
L285322619 10845238
L285322619 11340476
L285384523 11464285
L285446428 11526190
L285570238 11588095
L285817857 11588095
L285941666 11526190
L286003571 11464285
L286065476 11340476
L286065476 11030952
L286003571 10907142
L285941666 10845238
L285817857 10783333
L285570238 10783333
L285446428 10845238
L285384523 10907142
L285322619 11030952
" />
</g></g>
<g style="fill:#000000; fill-opacity:0.0; 
stroke:#000000; stroke-width:21200.000000; stroke-opacity:1; 
stroke-linecap:round; stroke-linejoin:round;">
</g>
<g style="fill:#000000; fill-opacity:0.0; 
stroke:#000000; stroke-width:150000.000000; stroke-opacity:1; 
stroke-linecap:round; stroke-linejoin:round;">
<path d="M60000000 198007200
L60000000 200007200
" />
</g>
<g style="fill:#000000; fill-opacity:0.0; 
stroke:#000000; stroke-width:21200.000000; stroke-opacity:1; 
stroke-linecap:round; stroke-linejoin:round;">
</g>
<g style="fill:#000000; fill-opacity:0.0; 
stroke:#000000; stroke-width:150000.000000; stroke-opacity:1; 
stroke-linecap:round; stroke-linejoin:round;">
<path d="M110000000 198007200
L110000000 200007200
" />
</g>
<g style="fill:#000000; fill-opacity:0.0; 
stroke:#000000; stroke-width:21200.000000; stroke-opacity:1; 
stroke-linecap:round; stroke-linejoin:round;">
</g>
<g style="fill:#000000; fill-opacity:0.0; 
stroke:#000000; stroke-width:150000.000000; stroke-opacity:1; 
stroke-linecap:round; stroke-linejoin:round;">
<path d="M160000000 198007200
L160000000 200007200
" />
</g>
<g style="fill:#000000; fill-opacity:0.0; 
stroke:#000000; stroke-width:21200.000000; stroke-opacity:1; 
stroke-linecap:round; stroke-linejoin:round;">
</g>
<g style="fill:#000000; fill-opacity:0.0; 
stroke:#000000; stroke-width:150000.000000; stroke-opacity:1; 
stroke-linecap:round; stroke-linejoin:round;">
<path d="M210000000 198007200
L210000000 200007200
" />
</g>
<g style="fill:#000000; fill-opacity:0.0; 
stroke:#000000; stroke-width:21200.000000; stroke-opacity:1; 
stroke-linecap:round; stroke-linejoin:round;">
</g>
<g style="fill:#000000; fill-opacity:0.0; 
stroke:#000000; stroke-width:150000.000000; stroke-opacity:1; 
stroke-linecap:round; stroke-linejoin:round;">
<path d="M260000000 198007200
L260000000 200007200
" />
</g>
<g style="fill:#000000; fill-opacity:0.0; 
stroke:#000000; stroke-width:21200.000000; stroke-opacity:1; 
stroke-linecap:round; stroke-linejoin:round;">
</g>
<g style="fill:#000000; fill-opacity:0.0; 
stroke:#000000; stroke-width:150000.000000; stroke-opacity:1; 
stroke-linecap:round; stroke-linejoin:round;">
<text x="35000000.000000" y="199657200.000000"
textLength="1388095.000000" font-size="1733333.000000" lengthAdjust="spacingAndGlyphs"
text-anchor="start" opacity="0">1</text>
<g class="stroked-text"><desc>1</desc>
<path d="M36065476 199595295
L35322619 199595295
" />
<path d="M35694047 199595295
L35694047 198295295
L35570238 198481009
L35446428 198604819
L35322619 198666723
" />
</g></g>
<g style="fill:#000000; fill-opacity:0.0; 
stroke:#000000; stroke-width:21200.000000; stroke-opacity:1; 
stroke-linecap:round; stroke-linejoin:round;">
</g>
<g style="fill:#000000; fill-opacity:0.0; 
stroke:#000000; stroke-width:150000.000000; stroke-opacity:1; 
stroke-linecap:round; stroke-linejoin:round;">
<text x="85000000.000000" y="199657200.000000"
textLength="1388095.000000" font-size="1733333.000000" lengthAdjust="spacingAndGlyphs"
text-anchor="start" opacity="0">2</text>
<g class="stroked-text"><desc>2</desc>
<path d="M85322619 198419104
L85384523 198357200
L85508333 198295295
L85817857 198295295
L85941666 198357200
L86003571 198419104
L86065476 198542914
L86065476 198666723
L86003571 198852438
L85260714 199595295
L86065476 199595295
" />
</g></g>
<g style="fill:#000000; fill-opacity:0.0; 
stroke:#000000; stroke-width:21200.000000; stroke-opacity:1; 
stroke-linecap:round; stroke-linejoin:round;">
</g>
<g style="fill:#000000; fill-opacity:0.0; 
stroke:#000000; stroke-width:150000.000000; stroke-opacity:1; 
stroke-linecap:round; stroke-linejoin:round;">
<text x="135000000.000000" y="199657200.000000"
textLength="1388095.000000" font-size="1733333.000000" lengthAdjust="spacingAndGlyphs"
text-anchor="start" opacity="0">3</text>
<g class="stroked-text"><desc>3</desc>
<path d="M135260714 198295295
L136065476 198295295
L135632142 198790533
L135817857 198790533
L135941666 198852438
L136003571 198914342
L136065476 199038152
L136065476 199347676
L136003571 199471485
L135941666 199533390
L135817857 199595295
L135446428 199595295
L135322619 199533390
L135260714 199471485
" />
</g></g>
<g style="fill:#000000; fill-opacity:0.0; 
stroke:#000000; stroke-width:21200.000000; stroke-opacity:1; 
stroke-linecap:round; stroke-linejoin:round;">
</g>
<g style="fill:#000000; fill-opacity:0.0; 
stroke:#000000; stroke-width:150000.000000; stroke-opacity:1; 
stroke-linecap:round; stroke-linejoin:round;">
<text x="185000000.000000" y="199657200.000000"
textLength="1388095.000000" font-size="1733333.000000" lengthAdjust="spacingAndGlyphs"
text-anchor="start" opacity="0">4</text>
<g class="stroked-text"><desc>4</desc>
<path d="M185941666 198728628
L185941666 199595295
" />
<path d="M185632142 198233390
L185322619 199161961
L186127380 199161961
" />
</g></g>
<g style="fill:#000000; fill-opacity:0.0; 
stroke:#000000; stroke-width:21200.000000; stroke-opacity:1; 
stroke-linecap:round; stroke-linejoin:round;">
</g>
<g style="fill:#000000; fill-opacity:0.0; 
stroke:#000000; stroke-width:150000.000000; stroke-opacity:1; 
stroke-linecap:round; stroke-linejoin:round;">
<text x="235000000.000000" y="199657200.000000"
textLength="1388095.000000" font-size="1733333.000000" lengthAdjust="spacingAndGlyphs"
text-anchor="start" opacity="0">5</text>
<g class="stroked-text"><desc>5</desc>
<path d="M236003571 198295295
L235384523 198295295
L235322619 198914342
L235384523 198852438
L235508333 198790533
L235817857 198790533
L235941666 198852438
L236003571 198914342
L236065476 199038152
L236065476 199347676
L236003571 199471485
L235941666 199533390
L235817857 199595295
L235508333 199595295
L235384523 199533390
L235322619 199471485
" />
</g></g>
<g style="fill:#000000; fill-opacity:0.0; 
stroke:#000000; stroke-width:21200.000000; stroke-opacity:1; 
stroke-linecap:round; stroke-linejoin:round;">
</g>
<g style="fill:#000000; fill-opacity:0.0; 
stroke:#000000; stroke-width:150000.000000; stroke-opacity:1; 
stroke-linecap:round; stroke-linejoin:round;">
<text x="285000000.000000" y="199657200.000000"
textLength="1388095.000000" font-size="1733333.000000" lengthAdjust="spacingAndGlyphs"
text-anchor="start" opacity="0">6</text>
<g class="stroked-text"><desc>6</desc>
<path d="M285941666 198295295
L285694047 198295295
L285570238 198357200
L285508333 198419104
L285384523 198604819
L285322619 198852438
L285322619 199347676
L285384523 199471485
L285446428 199533390
L285570238 199595295
L285817857 199595295
L285941666 199533390
L286003571 199471485
L286065476 199347676
L286065476 199038152
L286003571 198914342
L285941666 198852438
L285817857 198790533
L285570238 198790533
L285446428 198852438
L285384523 198914342
L285322619 199038152
" />
</g></g>
<g style="fill:#000000; fill-opacity:0.0; 
stroke:#000000; stroke-width:21200.000000; stroke-opacity:1; 
stroke-linecap:round; stroke-linejoin:round;">
</g>
<g style="fill:#000000; fill-opacity:0.0; 
stroke:#000000; stroke-width:150000.000000; stroke-opacity:1; 
stroke-linecap:round; stroke-linejoin:round;">
<path d="M10000000 60000000
L12000000 60000000
" />
</g>
<g style="fill:#000000; fill-opacity:0.0; 
stroke:#000000; stroke-width:21200.000000; stroke-opacity:1; 
stroke-linecap:round; stroke-linejoin:round;">
</g>
<g style="fill:#000000; fill-opacity:0.0; 
stroke:#000000; stroke-width:150000.000000; stroke-opacity:1; 
stroke-linecap:round; stroke-linejoin:round;">
<path d="M10000000 110000000
L12000000 110000000
" />
</g>
<g style="fill:#000000; fill-opacity:0.0; 
stroke:#000000; stroke-width:21200.000000; stroke-opacity:1; 
stroke-linecap:round; stroke-linejoin:round;">
</g>
<g style="fill:#000000; fill-opacity:0.0; 
stroke:#000000; stroke-width:150000.000000; stroke-opacity:1; 
stroke-linecap:round; stroke-linejoin:round;">
<path d="M10000000 160000000
L12000000 160000000
" />
</g>
<g style="fill:#000000; fill-opacity:0.0; 
stroke:#000000; stroke-width:21200.000000; stroke-opacity:1; 
stroke-linecap:round; stroke-linejoin:round;">
</g>
<g style="fill:#000000; fill-opacity:0.0; 
stroke:#000000; stroke-width:150000.000000; stroke-opacity:1; 
stroke-linecap:round; stroke-linejoin:round;">
<text x="11000000.000000" y="35650000.000000"
textLength="1264286.000000" font-size="1733333.000000" lengthAdjust="spacingAndGlyphs"
text-anchor="middle" opacity="0">A</text>
<g class="stroked-text"><desc>A</desc>
<path d="M10690476 35216666
L11309523 35216666
" />
<path d="M10566666 35588095
L11000000 34288095
L11433333 35588095
" />
</g></g>
<g style="fill:#000000; fill-opacity:0.0; 
stroke:#000000; stroke-width:21200.000000; stroke-opacity:1; 
stroke-linecap:round; stroke-linejoin:round;">
</g>
<g style="fill:#000000; fill-opacity:0.0; 
stroke:#000000; stroke-width:150000.000000; stroke-opacity:1; 
stroke-linecap:round; stroke-linejoin:round;">
<text x="11000000.000000" y="85650000.000000"
textLength="1450000.000000" font-size="1733333.000000" lengthAdjust="spacingAndGlyphs"
text-anchor="middle" opacity="0">B</text>
<g class="stroked-text"><desc>B</desc>
<path d="M11092857 84907142
L11278571 84969047
L11340476 85030952
L11402380 85154761
L11402380 85340476
L11340476 85464285
L11278571 85526190
L11154761 85588095
L10659523 85588095
L10659523 84288095
L11092857 84288095
L11216666 84350000
L11278571 84411904
L11340476 84535714
L11340476 84659523
L11278571 84783333
L11216666 84845238
L11092857 84907142
L10659523 84907142
" />
</g></g>
<g style="fill:#000000; fill-opacity:0.0; 
stroke:#000000; stroke-width:21200.000000; stroke-opacity:1; 
stroke-linecap:round; stroke-linejoin:round;">
</g>
<g style="fill:#000000; fill-opacity:0.0; 
stroke:#000000; stroke-width:150000.000000; stroke-opacity:1; 
stroke-linecap:round; stroke-linejoin:round;">
<text x="11000000.000000" y="135650000.000000"
textLength="1450000.000000" font-size="1733333.000000" lengthAdjust="spacingAndGlyphs"
text-anchor="middle" opacity="0">C</text>
<g class="stroked-text"><desc>C</desc>
<path d="M11402380 135464285
L11340476 135526190
L11154761 135588095
L11030952 135588095
L10845238 135526190
L10721428 135402380
L10659523 135278571
L10597619 135030952
L10597619 134845238
L10659523 134597619
L10721428 134473809
L10845238 134350000
L11030952 134288095
L11154761 134288095
L11340476 134350000
L11402380 134411904
" />
</g></g>
<g style="fill:#000000; fill-opacity:0.0; 
stroke:#000000; stroke-width:21200.000000; stroke-opacity:1; 
stroke-linecap:round; stroke-linejoin:round;">
</g>
<g style="fill:#000000; fill-opacity:0.0; 
stroke:#000000; stroke-width:150000.000000; stroke-opacity:1; 
stroke-linecap:round; stroke-linejoin:round;">
<text x="11000000.000000" y="185650000.000000"
textLength="1450000.000000" font-size="1733333.000000" lengthAdjust="spacingAndGlyphs"
text-anchor="middle" opacity="0">D</text>
<g class="stroked-text"><desc>D</desc>
<path d="M10659523 185588095
L10659523 184288095
L10969047 184288095
L11154761 184350000
L11278571 184473809
L11340476 184597619
L11402380 184845238
L11402380 185030952
L11340476 185278571
L11278571 185402380
L11154761 185526190
L10969047 185588095
L10659523 185588095
" />
</g></g>
<g style="fill:#000000; fill-opacity:0.0; 
stroke:#000000; stroke-width:21200.000000; stroke-opacity:1; 
stroke-linecap:round; stroke-linejoin:round;">
</g>
<g style="fill:#000000; fill-opacity:0.0; 
stroke:#000000; stroke-width:150000.000000; stroke-opacity:1; 
stroke-linecap:round; stroke-linejoin:round;">
<path d="M287002200 60000000
L285002200 60000000
" />
</g>
<g style="fill:#000000; fill-opacity:0.0; 
stroke:#000000; stroke-width:21200.000000; stroke-opacity:1; 
stroke-linecap:round; stroke-linejoin:round;">
</g>
<g style="fill:#000000; fill-opacity:0.0; 
stroke:#000000; stroke-width:150000.000000; stroke-opacity:1; 
stroke-linecap:round; stroke-linejoin:round;">
<path d="M287002200 110000000
L285002200 110000000
" />
</g>
<g style="fill:#000000; fill-opacity:0.0; 
stroke:#000000; stroke-width:21200.000000; stroke-opacity:1; 
stroke-linecap:round; stroke-linejoin:round;">
</g>
<g style="fill:#000000; fill-opacity:0.0; 
stroke:#000000; stroke-width:150000.000000; stroke-opacity:1; 
stroke-linecap:round; stroke-linejoin:round;">
<path d="M287002200 160000000
L285002200 160000000
" />
</g>
<g style="fill:#000000; fill-opacity:0.0; 
stroke:#000000; stroke-width:21200.000000; stroke-opacity:1; 
stroke-linecap:round; stroke-linejoin:round;">
</g>
<g style="fill:#000000; fill-opacity:0.0; 
stroke:#000000; stroke-width:150000.000000; stroke-opacity:1; 
stroke-linecap:round; stroke-linejoin:round;">
<text x="286002200.000000" y="35650000.000000"
textLength="1264286.000000" font-size="1733333.000000" lengthAdjust="spacingAndGlyphs"
text-anchor="middle" opacity="0">A</text>
<g class="stroked-text"><desc>A</desc>
<path d="M285692676 35216666
L286311723 35216666
" />
<path d="M285568866 35588095
L286002200 34288095
L286435533 35588095
" />
</g></g>
<g style="fill:#000000; fill-opacity:0.0; 
stroke:#000000; stroke-width:21200.000000; stroke-opacity:1; 
stroke-linecap:round; stroke-linejoin:round;">
</g>
<g style="fill:#000000; fill-opacity:0.0; 
stroke:#000000; stroke-width:150000.000000; stroke-opacity:1; 
stroke-linecap:round; stroke-linejoin:round;">
<text x="286002200.000000" y="85650000.000000"
textLength="1450000.000000" font-size="1733333.000000" lengthAdjust="spacingAndGlyphs"
text-anchor="middle" opacity="0">B</text>
<g class="stroked-text"><desc>B</desc>
<path d="M286095057 84907142
L286280771 84969047
L286342676 85030952
L286404580 85154761
L286404580 85340476
L286342676 85464285
L286280771 85526190
L286156961 85588095
L285661723 85588095
L285661723 84288095
L286095057 84288095
L286218866 84350000
L286280771 84411904
L286342676 84535714
L286342676 84659523
L286280771 84783333
L286218866 84845238
L286095057 84907142
L285661723 84907142
" />
</g></g>
<g style="fill:#000000; fill-opacity:0.0; 
stroke:#000000; stroke-width:21200.000000; stroke-opacity:1; 
stroke-linecap:round; stroke-linejoin:round;">
</g>
<g style="fill:#000000; fill-opacity:0.0; 
stroke:#000000; stroke-width:150000.000000; stroke-opacity:1; 
stroke-linecap:round; stroke-linejoin:round;">
<text x="286002200.000000" y="135650000.000000"
textLength="1450000.000000" font-size="1733333.000000" lengthAdjust="spacingAndGlyphs"
text-anchor="middle" opacity="0">C</text>
<g class="stroked-text"><desc>C</desc>
<path d="M286404580 135464285
L286342676 135526190
L286156961 135588095
L286033152 135588095
L285847438 135526190
L285723628 135402380
L285661723 135278571
L285599819 135030952
L285599819 134845238
L285661723 134597619
L285723628 134473809
L285847438 134350000
L286033152 134288095
L286156961 134288095
L286342676 134350000
L286404580 134411904
" />
</g></g>
<g style="fill:#000000; fill-opacity:0.0; 
stroke:#000000; stroke-width:21200.000000; stroke-opacity:1; 
stroke-linecap:round; stroke-linejoin:round;">
</g>
<g style="fill:#000000; fill-opacity:0.0; 
stroke:#000000; stroke-width:150000.000000; stroke-opacity:1; 
stroke-linecap:round; stroke-linejoin:round;">
<text x="286002200.000000" y="185650000.000000"
textLength="1450000.000000" font-size="1733333.000000" lengthAdjust="spacingAndGlyphs"
text-anchor="middle" opacity="0">D</text>
<g class="stroked-text"><desc>D</desc>
<path d="M285661723 185588095
L285661723 184288095
L285971247 184288095
L286156961 184350000
L286280771 184473809
L286342676 184597619
L286404580 184845238
L286404580 185030952
L286342676 185278571
L286280771 185402380
L286156961 185526190
L285971247 185588095
L285661723 185588095
" />
</g></g>
<g style="fill:#000000; fill-opacity:0.0; 
stroke:#000000; stroke-width:21200.000000; stroke-opacity:1; 
stroke-linecap:round; stroke-linejoin:round;">
</g>
<g style="fill:#000000; fill-opacity:0.0; 
stroke:#000000; stroke-width:150000.000000; stroke-opacity:1; 
stroke-linecap:round; stroke-linejoin:round;">
<text x="200002200.000000" y="193857200.000000"
textLength="7007143.000000" font-size="2000000.000000" lengthAdjust="spacingAndGlyphs"
text-anchor="start" opacity="0">Date: </text>
<g class="stroked-text"><desc>Date: </desc>
<path d="M200434342 193785771
L200434342 192285771
L200791485 192285771
L201005771 192357200
L201148628 192500057
L201220057 192642914
L201291485 192928628
L201291485 193142914
L201220057 193428628
L201148628 193571485
L201005771 193714342
L200791485 193785771
L200434342 193785771
" />
<path d="M202577200 193785771
L202577200 193000057
L202505771 192857200
L202362914 192785771
L202077200 192785771
L201934342 192857200
" />
<path d="M202577200 193714342
L202434342 193785771
L202077200 193785771
L201934342 193714342
L201862914 193571485
L201862914 193428628
L201934342 193285771
L202077200 193214342
L202434342 193214342
L202577200 193142914
" />
<path d="M203077200 192785771
L203648628 192785771
" />
<path d="M203291485 192285771
L203291485 193571485
L203362914 193714342
L203505771 193785771
L203648628 193785771
" />
<path d="M204720057 193714342
L204577200 193785771
L204291485 193785771
L204148628 193714342
L204077200 193571485
L204077200 193000057
L204148628 192857200
L204291485 192785771
L204577200 192785771
L204720057 192857200
L204791485 193000057
L204791485 193142914
L204077200 193285771
" />
<path d="M205434342 193642914
L205505771 193714342
L205434342 193785771
L205362914 193714342
L205434342 193642914
L205434342 193785771
" />
<path d="M205434342 192857200
L205505771 192928628
L205434342 193000057
L205362914 192928628
L205434342 192857200
L205434342 193000057
" />
</g></g>
<g style="fill:#000000; fill-opacity:0.0; 
stroke:#000000; stroke-width:21200.000000; stroke-opacity:1; 
stroke-linecap:round; stroke-linejoin:round;">
</g>
<g style="fill:#000000; fill-opacity:0.0; 
stroke:#000000; stroke-width:150000.000000; stroke-opacity:1; 
stroke-linecap:round; stroke-linejoin:round;">
<path d="M177002200 194507200
L285002200 194507200
" />
</g>
<g style="fill:#000000; fill-opacity:0.0; 
stroke:#000000; stroke-width:21200.000000; stroke-opacity:1; 
stroke-linecap:round; stroke-linejoin:round;">
</g>
<g style="fill:#000000; fill-opacity:0.0; 
stroke:#000000; stroke-width:150000.000000; stroke-opacity:1; 
stroke-linecap:round; stroke-linejoin:round;">
<text x="178002200.000000" y="196657200.000000"
textLength="50292857.000000" font-size="2000000.000000" lengthAdjust="spacingAndGlyphs"
text-anchor="start" opacity="0">KiCad E.D.A.  kicad 6.0.9+dfsg-1~bpo11+1</text>
<g class="stroked-text"><desc>KiCad E.D.A.  kicad 6.0.9+dfsg-1~bpo11+1</desc>
<path d="M178434342 196585771
L178434342 195085771
" />
<path d="M179291485 196585771
L178648628 195728628
" />
<path d="M179291485 195085771
L178434342 195942914
" />
<path d="M179934342 196585771
L179934342 195585771
" />
<path d="M179934342 195085771
L179862914 195157200
L179934342 195228628
L180005771 195157200
L179934342 195085771
L179934342 195228628
" />
<path d="M181505771 196442914
L181434342 196514342
L181220057 196585771
L181077200 196585771
L180862914 196514342
L180720057 196371485
L180648628 196228628
L180577200 195942914
L180577200 195728628
L180648628 195442914
L180720057 195300057
L180862914 195157200
L181077200 195085771
L181220057 195085771
L181434342 195157200
L181505771 195228628
" />
<path d="M182791485 196585771
L182791485 195800057
L182720057 195657200
L182577200 195585771
L182291485 195585771
L182148628 195657200
" />
<path d="M182791485 196514342
L182648628 196585771
L182291485 196585771
L182148628 196514342
L182077200 196371485
L182077200 196228628
L182148628 196085771
L182291485 196014342
L182648628 196014342
L182791485 195942914
" />
<path d="M184148628 196585771
L184148628 195085771
" />
<path d="M184148628 196514342
L184005771 196585771
L183720057 196585771
L183577200 196514342
L183505771 196442914
L183434342 196300057
L183434342 195871485
L183505771 195728628
L183577200 195657200
L183720057 195585771
L184005771 195585771
L184148628 195657200
" />
<path d="M186005771 195800057
L186505771 195800057
" />
<path d="M186720057 196585771
L186005771 196585771
L186005771 195085771
L186720057 195085771
" />
<path d="M187362914 196442914
L187434342 196514342
L187362914 196585771
L187291485 196514342
L187362914 196442914
L187362914 196585771
" />
<path d="M188077200 196585771
L188077200 195085771
L188434342 195085771
L188648628 195157200
L188791485 195300057
L188862914 195442914
L188934342 195728628
L188934342 195942914
L188862914 196228628
L188791485 196371485
L188648628 196514342
L188434342 196585771
L188077200 196585771
" />
<path d="M189577200 196442914
L189648628 196514342
L189577200 196585771
L189505771 196514342
L189577200 196442914
L189577200 196585771
" />
<path d="M190220057 196157200
L190934342 196157200
" />
<path d="M190077200 196585771
L190577200 195085771
L191077200 196585771
" />
<path d="M191577200 196442914
L191648628 196514342
L191577200 196585771
L191505771 196514342
L191577200 196442914
L191577200 196585771
" />
<path d="M194577200 196585771
L194577200 195085771
" />
<path d="M194720057 196014342
L195148628 196585771
" />
<path d="M195148628 195585771
L194577200 196157200
" />
<path d="M195791485 196585771
L195791485 195585771
" />
<path d="M195791485 195085771
L195720057 195157200
L195791485 195228628
L195862914 195157200
L195791485 195085771
L195791485 195228628
" />
<path d="M197148628 196514342
L197005771 196585771
L196720057 196585771
L196577200 196514342
L196505771 196442914
L196434342 196300057
L196434342 195871485
L196505771 195728628
L196577200 195657200
L196720057 195585771
L197005771 195585771
L197148628 195657200
" />
<path d="M198434342 196585771
L198434342 195800057
L198362914 195657200
L198220057 195585771
L197934342 195585771
L197791485 195657200
" />
<path d="M198434342 196514342
L198291485 196585771
L197934342 196585771
L197791485 196514342
L197720057 196371485
L197720057 196228628
L197791485 196085771
L197934342 196014342
L198291485 196014342
L198434342 195942914
" />
<path d="M199791485 196585771
L199791485 195085771
" />
<path d="M199791485 196514342
L199648628 196585771
L199362914 196585771
L199220057 196514342
L199148628 196442914
L199077200 196300057
L199077200 195871485
L199148628 195728628
L199220057 195657200
L199362914 195585771
L199648628 195585771
L199791485 195657200
" />
<path d="M202291485 195085771
L202005771 195085771
L201862914 195157200
L201791485 195228628
L201648628 195442914
L201577200 195728628
L201577200 196300057
L201648628 196442914
L201720057 196514342
L201862914 196585771
L202148628 196585771
L202291485 196514342
L202362914 196442914
L202434342 196300057
L202434342 195942914
L202362914 195800057
L202291485 195728628
L202148628 195657200
L201862914 195657200
L201720057 195728628
L201648628 195800057
L201577200 195942914
" />
<path d="M203077200 196442914
L203148628 196514342
L203077200 196585771
L203005771 196514342
L203077200 196442914
L203077200 196585771
" />
<path d="M204077200 195085771
L204220057 195085771
L204362914 195157200
L204434342 195228628
L204505771 195371485
L204577200 195657200
L204577200 196014342
L204505771 196300057
L204434342 196442914
L204362914 196514342
L204220057 196585771
L204077200 196585771
L203934342 196514342
L203862914 196442914
L203791485 196300057
L203720057 196014342
L203720057 195657200
L203791485 195371485
L203862914 195228628
L203934342 195157200
L204077200 195085771
" />
<path d="M205220057 196442914
L205291485 196514342
L205220057 196585771
L205148628 196514342
L205220057 196442914
L205220057 196585771
" />
<path d="M206005771 196585771
L206291485 196585771
L206434342 196514342
L206505771 196442914
L206648628 196228628
L206720057 195942914
L206720057 195371485
L206648628 195228628
L206577200 195157200
L206434342 195085771
L206148628 195085771
L206005771 195157200
L205934342 195228628
L205862914 195371485
L205862914 195728628
L205934342 195871485
L206005771 195942914
L206148628 196014342
L206434342 196014342
L206577200 195942914
L206648628 195871485
L206720057 195728628
" />
<path d="M207362914 196014342
L208505771 196014342
" />
<path d="M207934342 196585771
L207934342 195442914
" />
<path d="M209862914 196585771
L209862914 195085771
" />
<path d="M209862914 196514342
L209720057 196585771
L209434342 196585771
L209291485 196514342
L209220057 196442914
L209148628 196300057
L209148628 195871485
L209220057 195728628
L209291485 195657200
L209434342 195585771
L209720057 195585771
L209862914 195657200
" />
<path d="M210362914 195585771
L210934342 195585771
" />
<path d="M210577200 196585771
L210577200 195300057
L210648628 195157200
L210791485 195085771
L210934342 195085771
" />
<path d="M211362914 196514342
L211505771 196585771
L211791485 196585771
L211934342 196514342
L212005771 196371485
L212005771 196300057
L211934342 196157200
L211791485 196085771
L211577200 196085771
L211434342 196014342
L211362914 195871485
L211362914 195800057
L211434342 195657200
L211577200 195585771
L211791485 195585771
L211934342 195657200
" />
<path d="M213291485 195585771
L213291485 196800057
L213220057 196942914
L213148628 197014342
L213005771 197085771
L212791485 197085771
L212648628 197014342
" />
<path d="M213291485 196514342
L213148628 196585771
L212862914 196585771
L212720057 196514342
L212648628 196442914
L212577200 196300057
L212577200 195871485
L212648628 195728628
L212720057 195657200
L212862914 195585771
L213148628 195585771
L213291485 195657200
" />
<path d="M214005771 196014342
L215148628 196014342
" />
<path d="M216648628 196585771
L215791485 196585771
" />
<path d="M216220057 196585771
L216220057 195085771
L216077200 195300057
L215934342 195442914
L215791485 195514342
" />
<path d="M217077200 196014342
L217148628 195942914
L217291485 195871485
L217577200 196014342
L217720057 195942914
L217791485 195871485
" />
<path d="M218362914 196585771
L218362914 195085771
" />
<path d="M218362914 195657200
L218505771 195585771
L218791485 195585771
L218934342 195657200
L219005771 195728628
L219077200 195871485
L219077200 196300057
L219005771 196442914
L218934342 196514342
L218791485 196585771
L218505771 196585771
L218362914 196514342
" />
<path d="M219720057 195585771
L219720057 197085771
" />
<path d="M219720057 195657200
L219862914 195585771
L220148628 195585771
L220291485 195657200
L220362914 195728628
L220434342 195871485
L220434342 196300057
L220362914 196442914
L220291485 196514342
L220148628 196585771
L219862914 196585771
L219720057 196514342
" />
<path d="M221291485 196585771
L221148628 196514342
L221077200 196442914
L221005771 196300057
L221005771 195871485
L221077200 195728628
L221148628 195657200
L221291485 195585771
L221505771 195585771
L221648628 195657200
L221720057 195728628
L221791485 195871485
L221791485 196300057
L221720057 196442914
L221648628 196514342
L221505771 196585771
L221291485 196585771
" />
<path d="M223220057 196585771
L222362914 196585771
" />
<path d="M222791485 196585771
L222791485 195085771
L222648628 195300057
L222505771 195442914
L222362914 195514342
" />
<path d="M224648628 196585771
L223791485 196585771
" />
<path d="M224220057 196585771
L224220057 195085771
L224077200 195300057
L223934342 195442914
L223791485 195514342
" />
<path d="M225291485 196014342
L226434342 196014342
" />
<path d="M225862914 196585771
L225862914 195442914
" />
<path d="M227934342 196585771
L227077200 196585771
" />
<path d="M227505771 196585771
L227505771 195085771
L227362914 195300057
L227220057 195442914
L227077200 195514342
" />
</g></g>
<g style="fill:#000000; fill-opacity:0.0; 
stroke:#000000; stroke-width:21200.000000; stroke-opacity:1; 
stroke-linecap:round; stroke-linejoin:round;">
</g>
<g style="fill:#000000; fill-opacity:0.0; 
stroke:#000000; stroke-width:150000.000000; stroke-opacity:1; 
stroke-linecap:round; stroke-linejoin:round;">
<path d="M177002200 191507200
L285002200 191507200
" />
</g>
<g style="fill:#000000; fill-opacity:0.0; 
stroke:#000000; stroke-width:21200.000000; stroke-opacity:1; 
stroke-linecap:round; stroke-linejoin:round;">
</g>
<g style="fill:#000000; fill-opacity:0.0; 
stroke:#000000; stroke-width:300000.000000; stroke-opacity:1; 
stroke-linecap:round; stroke-linejoin:round;">
<text x="263002200.000000" y="193857200.000000"
textLength="5935714.000000" font-size="2000000.000000" lengthAdjust="spacingAndGlyphs"
text-anchor="start" opacity="0">Rev: </text>
<g class="stroked-text"><desc>Rev: </desc>
<path d="M264411485 193785771
L263911485 193071485
" />
<path d="M263554342 193785771
L263554342 192285771
L264125771 192285771
L264268628 192357200
L264340057 192428628
L264411485 192571485
L264411485 192785771
L264340057 192928628
L264268628 193000057
L264125771 193071485
L263554342 193071485
" />
<path d="M265625771 193714342
L265482914 193785771
L265197200 193785771
L265054342 193714342
L264982914 193571485
L264982914 193000057
L265054342 192857200
L265197200 192785771
L265482914 192785771
L265625771 192857200
L265697200 193000057
L265697200 193142914
L264982914 193285771
" />
<path d="M266197200 192785771
L266554342 193785771
L266911485 192785771
" />
<path d="M267482914 193642914
L267554342 193714342
L267482914 193785771
L267411485 193714342
L267482914 193642914
L267482914 193785771
" />
<path d="M267482914 192857200
L267554342 192928628
L267482914 193000057
L267411485 192928628
L267482914 192857200
L267482914 193000057
" />
</g></g>
<g style="fill:#000000; fill-opacity:0.0; 
stroke:#000000; stroke-width:21200.000000; stroke-opacity:1; 
stroke-linecap:round; stroke-linejoin:round;">
</g>
<g style="fill:#000000; fill-opacity:0.0; 
stroke:#000000; stroke-width:150000.000000; stroke-opacity:1; 
stroke-linecap:round; stroke-linejoin:round;">
<text x="178002200.000000" y="193857200.000000"
textLength="9604286.000000" font-size="2000000.000000" lengthAdjust="spacingAndGlyphs"
text-anchor="start" opacity="0">Size: A4</text>
<g class="stroked-text"><desc>Size: A4</desc>
<path d="M178362914 193714342
L178577200 193785771
L178934342 193785771
L179077200 193714342
L179148628 193642914
L179220057 193500057
L179220057 193357200
L179148628 193214342
L179077200 193142914
L178934342 193071485
L178648628 193000057
L178505771 192928628
L178434342 192857200
L178362914 192714342
L178362914 192571485
L178434342 192428628
L178505771 192357200
L178648628 192285771
L179005771 192285771
L179220057 192357200
" />
<path d="M179862914 193785771
L179862914 192785771
" />
<path d="M179862914 192285771
L179791485 192357200
L179862914 192428628
L179934342 192357200
L179862914 192285771
L179862914 192428628
" />
<path d="M180434342 192785771
L181220057 192785771
L180434342 193785771
L181220057 193785771
" />
<path d="M182362914 193714342
L182220057 193785771
L181934342 193785771
L181791485 193714342
L181720057 193571485
L181720057 193000057
L181791485 192857200
L181934342 192785771
L182220057 192785771
L182362914 192857200
L182434342 193000057
L182434342 193142914
L181720057 193285771
" />
<path d="M183077200 193642914
L183148628 193714342
L183077200 193785771
L183005771 193714342
L183077200 193642914
L183077200 193785771
" />
<path d="M183077200 192857200
L183148628 192928628
L183077200 193000057
L183005771 192928628
L183077200 192857200
L183077200 193000057
" />
<path d="M184862914 193357200
L185577200 193357200
" />
<path d="M184720057 193785771
L185220057 192285771
L185720057 193785771
" />
<path d="M186862914 192785771
L186862914 193785771
" />
<path d="M186505771 192214342
L186148628 193285771
L187077200 193285771
" />
</g></g>
<g style="fill:#000000; fill-opacity:0.0; 
stroke:#000000; stroke-width:21200.000000; stroke-opacity:1; 
stroke-linecap:round; stroke-linejoin:round;">
</g>
<g style="fill:#000000; fill-opacity:0.0; 
stroke:#000000; stroke-width:150000.000000; stroke-opacity:1; 
stroke-linecap:round; stroke-linejoin:round;">
<text x="263002200.000000" y="196657200.000000"
textLength="8507143.000000" font-size="2000000.000000" lengthAdjust="spacingAndGlyphs"
text-anchor="start" opacity="0">Id: 1/1</text>
<g class="stroked-text"><desc>Id: 1/1</desc>
<path d="M263434342 196585771
L263434342 195085771
" />
<path d="M264791485 196585771
L264791485 195085771
" />
<path d="M264791485 196514342
L264648628 196585771
L264362914 196585771
L264220057 196514342
L264148628 196442914
L264077200 196300057
L264077200 195871485
L264148628 195728628
L264220057 195657200
L264362914 195585771
L264648628 195585771
L264791485 195657200
" />
<path d="M265505771 196442914
L265577200 196514342
L265505771 196585771
L265434342 196514342
L265505771 196442914
L265505771 196585771
" />
<path d="M265505771 195657200
L265577200 195728628
L265505771 195800057
L265434342 195728628
L265505771 195657200
L265505771 195800057
" />
<path d="M268148628 196585771
L267291485 196585771
" />
<path d="M267720057 196585771
L267720057 195085771
L267577200 195300057
L267434342 195442914
L267291485 195514342
" />
<path d="M269862914 195014342
L268577200 196942914
" />
<path d="M271148628 196585771
L270291485 196585771
" />
<path d="M270720057 196585771
L270720057 195085771
L270577200 195300057
L270434342 195442914
L270291485 195514342
" />
</g></g>
<g style="fill:#000000; fill-opacity:0.0; 
stroke:#000000; stroke-width:21200.000000; stroke-opacity:1; 
stroke-linecap:round; stroke-linejoin:round;">
</g>
<g style="fill:#000000; fill-opacity:0.0; 
stroke:#000000; stroke-width:150000.000000; stroke-opacity:1; 
stroke-linecap:round; stroke-linejoin:round;">
<path d="M177002200 187507200
L285002200 187507200
" />
</g>
<g style="fill:#000000; fill-opacity:0.0; 
stroke:#000000; stroke-width:21200.000000; stroke-opacity:1; 
stroke-linecap:round; stroke-linejoin:round;">
</g>
<g style="fill:#000000; fill-opacity:0.0; 
stroke:#000000; stroke-width:400000.000000; stroke-opacity:1; 
stroke-linecap:round; stroke-linejoin:round;">
<text x="178002200.000000" y="190307200.000000"
textLength="9409643.000000" font-size="2666666.000000" lengthAdjust="spacingAndGlyphs"
text-anchor="start" opacity="0">Title: </text>
<g class="stroked-text"><desc>Title: </desc>
<path d="M178714580 188211961
L179857438 188211961
" />
<path d="M179036009 190211961
L179286009 188211961
" />
<path d="M180274104 190211961
L180440771 188878628
" />
<path d="M180524104 188211961
L180416961 188307200
L180500295 188402438
L180607438 188307200
L180524104 188211961
L180500295 188402438
" />
<path d="M181107438 188878628
L181869342 188878628
" />
<path d="M181476485 188211961
L181262200 189926247
L181333628 190116723
L181512200 190211961
L181702676 190211961
" />
<path d="M182655057 190211961
L182476485 190116723
L182405057 189926247
L182619342 188211961
" />
<path d="M184190771 190116723
L183988390 190211961
L183607438 190211961
L183428866 190116723
L183357438 189926247
L183452676 189164342
L183571723 188973866
L183774104 188878628
L184155057 188878628
L184333628 188973866
L184405057 189164342
L184381247 189354819
L183405057 189545295
" />
<path d="M185155057 190021485
L185238390 190116723
L185131247 190211961
L185047914 190116723
L185155057 190021485
L185131247 190211961
" />
<path d="M185286009 188973866
L185369342 189069104
L185262200 189164342
L185178866 189069104
L185286009 188973866
L185262200 189164342
" />
</g></g>
<g style="fill:#000000; fill-opacity:0.0; 
stroke:#000000; stroke-width:21200.000000; stroke-opacity:1; 
stroke-linecap:round; stroke-linejoin:round;">
</g>
<g style="fill:#000000; fill-opacity:0.0; 
stroke:#000000; stroke-width:150000.000000; stroke-opacity:1; 
stroke-linecap:round; stroke-linejoin:round;">
<text x="178002200.000000" y="186457200.000000"
textLength="27591429.000000" font-size="2000000.000000" lengthAdjust="spacingAndGlyphs"
text-anchor="start" opacity="0">File: MiniVerb.kicad_pcb</text>
<g class="stroked-text"><desc>File: MiniVerb.kicad_pcb</desc>
<path d="M178934342 185600057
L178434342 185600057
" />
<path d="M178434342 186385771
L178434342 184885771
L179148628 184885771
" />
<path d="M179720057 186385771
L179720057 185385771
" />
<path d="M179720057 184885771
L179648628 184957200
L179720057 185028628
L179791485 184957200
L179720057 184885771
L179720057 185028628
" />
<path d="M180648628 186385771
L180505771 186314342
L180434342 186171485
L180434342 184885771
" />
<path d="M181791485 186314342
L181648628 186385771
L181362914 186385771
L181220057 186314342
L181148628 186171485
L181148628 185600057
L181220057 185457200
L181362914 185385771
L181648628 185385771
L181791485 185457200
L181862914 185600057
L181862914 185742914
L181148628 185885771
" />
<path d="M182505771 186242914
L182577200 186314342
L182505771 186385771
L182434342 186314342
L182505771 186242914
L182505771 186385771
" />
<path d="M182505771 185457200
L182577200 185528628
L182505771 185600057
L182434342 185528628
L182505771 185457200
L182505771 185600057
" />
<path d="M184362914 186385771
L184362914 184885771
L184862914 185957200
L185362914 184885771
L185362914 186385771
" />
<path d="M186077200 186385771
L186077200 185385771
" />
<path d="M186077200 184885771
L186005771 184957200
L186077200 185028628
L186148628 184957200
L186077200 184885771
L186077200 185028628
" />
<path d="M186791485 185385771
L186791485 186385771
" />
<path d="M186791485 185528628
L186862914 185457200
L187005771 185385771
L187220057 185385771
L187362914 185457200
L187434342 185600057
L187434342 186385771
" />
<path d="M188148628 186385771
L188148628 185385771
" />
<path d="M188148628 184885771
L188077200 184957200
L188148628 185028628
L188220057 184957200
L188148628 184885771
L188148628 185028628
" />
<path d="M188648628 184885771
L189148628 186385771
L189648628 184885771
" />
<path d="M190720057 186314342
L190577200 186385771
L190291485 186385771
L190148628 186314342
L190077200 186171485
L190077200 185600057
L190148628 185457200
L190291485 185385771
L190577200 185385771
L190720057 185457200
L190791485 185600057
L190791485 185742914
L190077200 185885771
" />
<path d="M191434342 186385771
L191434342 185385771
" />
<path d="M191434342 185671485
L191505771 185528628
L191577200 185457200
L191720057 185385771
L191862914 185385771
" />
<path d="M192362914 186385771
L192362914 184885771
" />
<path d="M192362914 185457200
L192505771 185385771
L192791485 185385771
L192934342 185457200
L193005771 185528628
L193077200 185671485
L193077200 186100057
L193005771 186242914
L192934342 186314342
L192791485 186385771
L192505771 186385771
L192362914 186314342
" />
<path d="M193720057 186242914
L193791485 186314342
L193720057 186385771
L193648628 186314342
L193720057 186242914
L193720057 186385771
" />
<path d="M194434342 186385771
L194434342 184885771
" />
<path d="M194577200 185814342
L195005771 186385771
" />
<path d="M195005771 185385771
L194434342 185957200
" />
<path d="M195648628 186385771
L195648628 185385771
" />
<path d="M195648628 184885771
L195577200 184957200
L195648628 185028628
L195720057 184957200
L195648628 184885771
L195648628 185028628
" />
<path d="M197005771 186314342
L196862914 186385771
L196577200 186385771
L196434342 186314342
L196362914 186242914
L196291485 186100057
L196291485 185671485
L196362914 185528628
L196434342 185457200
L196577200 185385771
L196862914 185385771
L197005771 185457200
" />
<path d="M198291485 186385771
L198291485 185600057
L198220057 185457200
L198077200 185385771
L197791485 185385771
L197648628 185457200
" />
<path d="M198291485 186314342
L198148628 186385771
L197791485 186385771
L197648628 186314342
L197577200 186171485
L197577200 186028628
L197648628 185885771
L197791485 185814342
L198148628 185814342
L198291485 185742914
" />
<path d="M199648628 186385771
L199648628 184885771
" />
<path d="M199648628 186314342
L199505771 186385771
L199220057 186385771
L199077200 186314342
L199005771 186242914
L198934342 186100057
L198934342 185671485
L199005771 185528628
L199077200 185457200
L199220057 185385771
L199505771 185385771
L199648628 185457200
" />
<path d="M200005771 186528628
L201148628 186528628
" />
<path d="M201505771 185385771
L201505771 186885771
" />
<path d="M201505771 185457200
L201648628 185385771
L201934342 185385771
L202077200 185457200
L202148628 185528628
L202220057 185671485
L202220057 186100057
L202148628 186242914
L202077200 186314342
L201934342 186385771
L201648628 186385771
L201505771 186314342
" />
<path d="M203505771 186314342
L203362914 186385771
L203077200 186385771
L202934342 186314342
L202862914 186242914
L202791485 186100057
L202791485 185671485
L202862914 185528628
L202934342 185457200
L203077200 185385771
L203362914 185385771
L203505771 185457200
" />
<path d="M204148628 186385771
L204148628 184885771
" />
<path d="M204148628 185457200
L204291485 185385771
L204577200 185385771
L204720057 185457200
L204791485 185528628
L204862914 185671485
L204862914 186100057
L204791485 186242914
L204720057 186314342
L204577200 186385771
L204291485 186385771
L204148628 186314342
" />
</g></g>
<g style="fill:#000000; fill-opacity:0.0; 
stroke:#000000; stroke-width:21200.000000; stroke-opacity:1; 
stroke-linecap:round; stroke-linejoin:round;">
</g>
<g style="fill:#000000; fill-opacity:0.0; 
stroke:#000000; stroke-width:150000.000000; stroke-opacity:1; 
stroke-linecap:round; stroke-linejoin:round;">
<path d="M177002200 181507200
L285002200 181507200
" />
</g>
<g style="fill:#000000; fill-opacity:0.0; 
stroke:#000000; stroke-width:21200.000000; stroke-opacity:1; 
stroke-linecap:round; stroke-linejoin:round;">
</g>
<g style="fill:#000000; fill-opacity:0.0; 
stroke:#000000; stroke-width:150000.000000; stroke-opacity:1; 
stroke-linecap:round; stroke-linejoin:round;">
<text x="178002200.000000" y="183757200.000000"
textLength="8221429.000000" font-size="2000000.000000" lengthAdjust="spacingAndGlyphs"
text-anchor="start" opacity="0">Sheet: </text>
<g class="stroked-text"><desc>Sheet: </desc>
<path d="M178362914 183614342
L178577200 183685771
L178934342 183685771
L179077200 183614342
L179148628 183542914
L179220057 183400057
L179220057 183257200
L179148628 183114342
L179077200 183042914
L178934342 182971485
L178648628 182900057
L178505771 182828628
L178434342 182757200
L178362914 182614342
L178362914 182471485
L178434342 182328628
L178505771 182257200
L178648628 182185771
L179005771 182185771
L179220057 182257200
" />
<path d="M179862914 183685771
L179862914 182185771
" />
<path d="M180505771 183685771
L180505771 182900057
L180434342 182757200
L180291485 182685771
L180077200 182685771
L179934342 182757200
L179862914 182828628
" />
<path d="M181791485 183614342
L181648628 183685771
L181362914 183685771
L181220057 183614342
L181148628 183471485
L181148628 182900057
L181220057 182757200
L181362914 182685771
L181648628 182685771
L181791485 182757200
L181862914 182900057
L181862914 183042914
L181148628 183185771
" />
<path d="M183077200 183614342
L182934342 183685771
L182648628 183685771
L182505771 183614342
L182434342 183471485
L182434342 182900057
L182505771 182757200
L182648628 182685771
L182934342 182685771
L183077200 182757200
L183148628 182900057
L183148628 183042914
L182434342 183185771
" />
<path d="M183577200 182685771
L184148628 182685771
" />
<path d="M183791485 182185771
L183791485 183471485
L183862914 183614342
L184005771 183685771
L184148628 183685771
" />
<path d="M184648628 183542914
L184720057 183614342
L184648628 183685771
L184577200 183614342
L184648628 183542914
L184648628 183685771
" />
<path d="M184648628 182757200
L184720057 182828628
L184648628 182900057
L184577200 182828628
L184648628 182757200
L184648628 182900057
" />
</g></g>
<g style="fill:#000000; fill-opacity:0.0; 
stroke:#000000; stroke-width:21200.000000; stroke-opacity:1; 
stroke-linecap:round; stroke-linejoin:round;">
</g>
<g style="fill:#000000; fill-opacity:0.0; 
stroke:#000000; stroke-width:300000.000000; stroke-opacity:1; 
stroke-linecap:round; stroke-linejoin:round;">
<text x="178002200.000000" y="180757200.000000"
textLength="150000.000000" font-size="2000000.000000" lengthAdjust="spacingAndGlyphs"
text-anchor="start" opacity="0"></text>
<g class="stroked-text"><desc></desc>
</g></g>
<g style="fill:#000000; fill-opacity:0.0; 
stroke:#000000; stroke-width:21200.000000; stroke-opacity:1; 
stroke-linecap:round; stroke-linejoin:round;">
</g>
<g style="fill:#000000; fill-opacity:0.0; 
stroke:#000000; stroke-width:150000.000000; stroke-opacity:1; 
stroke-linecap:round; stroke-linejoin:round;">
<text x="178002200.000000" y="177757200.000000"
textLength="300000.000000" font-size="2000000.000000" lengthAdjust="spacingAndGlyphs"
text-anchor="start" opacity="0"></text>
<g class="stroked-text"><desc></desc>
</g></g>
<g style="fill:#000000; fill-opacity:0.0; 
stroke:#000000; stroke-width:21200.000000; stroke-opacity:1; 
stroke-linecap:round; stroke-linejoin:round;">
</g>
<g style="fill:#000000; fill-opacity:0.0; 
stroke:#000000; stroke-width:150000.000000; stroke-opacity:1; 
stroke-linecap:round; stroke-linejoin:round;">
<text x="178002200.000000" y="174757200.000000"
textLength="150000.000000" font-size="2000000.000000" lengthAdjust="spacingAndGlyphs"
text-anchor="start" opacity="0"></text>
<g class="stroked-text"><desc></desc>
</g></g>
<g style="fill:#000000; fill-opacity:0.0; 
stroke:#000000; stroke-width:21200.000000; stroke-opacity:1; 
stroke-linecap:round; stroke-linejoin:round;">
</g>
<g style="fill:#000000; fill-opacity:0.0; 
stroke:#000000; stroke-width:150000.000000; stroke-opacity:1; 
stroke-linecap:round; stroke-linejoin:round;">
<text x="178002200.000000" y="171757200.000000"
textLength="150000.000000" font-size="2000000.000000" lengthAdjust="spacingAndGlyphs"
text-anchor="start" opacity="0"></text>
<g class="stroked-text"><desc></desc>
</g></g>
<g style="fill:#000000; fill-opacity:0.0; 
stroke:#000000; stroke-width:21200.000000; stroke-opacity:1; 
stroke-linecap:round; stroke-linejoin:round;">
</g>
<g style="fill:#000000; fill-opacity:0.0; 
stroke:#000000; stroke-width:150000.000000; stroke-opacity:1; 
stroke-linecap:round; stroke-linejoin:round;">
<text x="178002200.000000" y="168757200.000000"
textLength="150000.000000" font-size="2000000.000000" lengthAdjust="spacingAndGlyphs"
text-anchor="start" opacity="0"></text>
<g class="stroked-text"><desc></desc>
</g></g>
<g style="fill:#000000; fill-opacity:0.0; 
stroke:#000000; stroke-width:21200.000000; stroke-opacity:1; 
stroke-linecap:round; stroke-linejoin:round;">
</g>
<g style="fill:#000000; fill-opacity:0.0; 
stroke:#000000; stroke-width:150000.000000; stroke-opacity:1; 
stroke-linecap:round; stroke-linejoin:round;">
<path d="M197002200 191507200
L197002200 194507200
" />
</g>
<g style="fill:#000000; fill-opacity:0.0; 
stroke:#000000; stroke-width:21200.000000; stroke-opacity:1; 
stroke-linecap:round; stroke-linejoin:round;">
</g>
<g style="fill:#000000; fill-opacity:0.0; 
stroke:#000000; stroke-width:150000.000000; stroke-opacity:1; 
stroke-linecap:round; stroke-linejoin:round;">
<path d="M261002200 191507200
L261002200 198007200
" />
<text x="154923804.000000" y="31501088.000000"
textLength="4435714.000000" font-size="1333333.000000" lengthAdjust="spacingAndGlyphs"
text-anchor="middle" opacity="0">REF**</text>
<g class="stroked-text"><desc>REF**</desc>
<path d="M153590470 31453468
L153257137 30977278
" />
<path d="M153019042 31453468
L153019042 30453468
L153399994 30453468
L153495232 30501088
L153542851 30548707
L153590470 30643945
L153590470 30786802
L153542851 30882040
L153495232 30929659
L153399994 30977278
L153019042 30977278
" />
<path d="M154019042 30929659
L154352375 30929659
" />
<path d="M154495232 31453468
L154019042 31453468
L154019042 30453468
L154495232 30453468
" />
<path d="M155257137 30929659
L154923804 30929659
" />
<path d="M154923804 31453468
L154923804 30453468
L155399994 30453468
" />
<path d="M155923804 30453468
L155923804 30691564
" />
<path d="M155685708 30596326
L155923804 30691564
L156161899 30596326
" />
<path d="M155780946 30882040
L155923804 30691564
L156066661 30882040
" />
<path d="M156685708 30453468
L156685708 30691564
" />
<path d="M156447613 30596326
L156685708 30691564
L156923804 30596326
" />
<path d="M156542851 30882040
L156685708 30691564
L156828565 30882040
" />
</g><text x="123923804.000000" y="31501088.000000"
textLength="8147381.000000" font-size="1333333.000000" lengthAdjust="spacingAndGlyphs"
text-anchor="middle" opacity="0">Panel_8HP</text>
<g class="stroked-text"><desc>Panel_8HP</desc>
<path d="M120185708 31453468
L120185708 30453468
L120566661 30453468
L120661899 30501088
L120709518 30548707
L120757137 30643945
L120757137 30786802
L120709518 30882040
L120661899 30929659
L120566661 30977278
L120185708 30977278
" />
<path d="M121614280 31453468
L121614280 30929659
L121566661 30834421
L121471423 30786802
L121280946 30786802
L121185708 30834421
" />
<path d="M121614280 31405849
L121519042 31453468
L121280946 31453468
L121185708 31405849
L121138089 31310611
L121138089 31215373
L121185708 31120135
L121280946 31072516
L121519042 31072516
L121614280 31024897
" />
<path d="M122090470 30786802
L122090470 31453468
" />
<path d="M122090470 30882040
L122138089 30834421
L122233327 30786802
L122376184 30786802
L122471423 30834421
L122519042 30929659
L122519042 31453468
" />
<path d="M123376184 31405849
L123280946 31453468
L123090470 31453468
L122995232 31405849
L122947613 31310611
L122947613 30929659
L122995232 30834421
L123090470 30786802
L123280946 30786802
L123376184 30834421
L123423804 30929659
L123423804 31024897
L122947613 31120135
" />
<path d="M123995232 31453468
L123899994 31405849
L123852375 31310611
L123852375 30453468
" />
<path d="M124138089 31548707
L124899994 31548707
" />
<path d="M125280946 30882040
L125185708 30834421
L125138089 30786802
L125090470 30691564
L125090470 30643945
L125138089 30548707
L125185708 30501088
L125280946 30453468
L125471423 30453468
L125566661 30501088
L125614280 30548707
L125661899 30643945
L125661899 30691564
L125614280 30786802
L125566661 30834421
L125471423 30882040
L125280946 30882040
L125185708 30929659
L125138089 30977278
L125090470 31072516
L125090470 31262992
L125138089 31358230
L125185708 31405849
L125280946 31453468
L125471423 31453468
L125566661 31405849
L125614280 31358230
L125661899 31262992
L125661899 31072516
L125614280 30977278
L125566661 30929659
L125471423 30882040
" />
<path d="M126090470 31453468
L126090470 30453468
" />
<path d="M126090470 30929659
L126661899 30929659
" />
<path d="M126661899 31453468
L126661899 30453468
" />
<path d="M127138089 31453468
L127138089 30453468
L127519042 30453468
L127614280 30501088
L127661899 30548707
L127709518 30643945
L127709518 30786802
L127661899 30882040
L127614280 30929659
L127519042 30977278
L127138089 30977278
" />
</g><text x="99995000.000000" y="142911088.000000"
textLength="9195000.000000" font-size="1333333.000000" lengthAdjust="spacingAndGlyphs"
text-anchor="middle" opacity="0">AUDIO_OUT1</text>
<g class="stroked-text"><desc>AUDIO_OUT1</desc>
<path d="M95685476 142577754
L96161666 142577754
" />
<path d="M95590238 142863468
L95923571 141863468
L96256904 142863468
" />
<path d="M96590238 141863468
L96590238 142672992
L96637857 142768230
L96685476 142815849
L96780714 142863468
L96971190 142863468
L97066428 142815849
L97114047 142768230
L97161666 142672992
L97161666 141863468
" />
<path d="M97637857 142863468
L97637857 141863468
L97875952 141863468
L98018809 141911088
L98114047 142006326
L98161666 142101564
L98209285 142292040
L98209285 142434897
L98161666 142625373
L98114047 142720611
L98018809 142815849
L97875952 142863468
L97637857 142863468
" />
<path d="M98637857 142863468
L98637857 141863468
" />
<path d="M99304523 141863468
L99495000 141863468
L99590238 141911088
L99685476 142006326
L99733095 142196802
L99733095 142530135
L99685476 142720611
L99590238 142815849
L99495000 142863468
L99304523 142863468
L99209285 142815849
L99114047 142720611
L99066428 142530135
L99066428 142196802
L99114047 142006326
L99209285 141911088
L99304523 141863468
" />
<path d="M99923571 142958707
L100685476 142958707
" />
<path d="M101114047 141863468
L101304523 141863468
L101399761 141911088
L101495000 142006326
L101542619 142196802
L101542619 142530135
L101495000 142720611
L101399761 142815849
L101304523 142863468
L101114047 142863468
L101018809 142815849
L100923571 142720611
L100875952 142530135
L100875952 142196802
L100923571 142006326
L101018809 141911088
L101114047 141863468
" />
<path d="M101971190 141863468
L101971190 142672992
L102018809 142768230
L102066428 142815849
L102161666 142863468
L102352142 142863468
L102447380 142815849
L102495000 142768230
L102542619 142672992
L102542619 141863468
" />
<path d="M102875952 141863468
L103447380 141863468
" />
<path d="M103161666 142863468
L103161666 141863468
" />
<path d="M104304523 142863468
L103733095 142863468
" />
<path d="M104018809 142863468
L104018809 141863468
L103923571 142006326
L103828333 142101564
L103733095 142149183
" />
</g><text x="83725000.000000" y="86770000.000000"
textLength="2147381.000000" font-size="1333333.000000" lengthAdjust="spacingAndGlyphs"
text-anchor="middle" opacity="0">R1</text>
<g class="stroked-text"><desc>R1</desc>
<path d="M83558333 86722380
L83225000 86246190
" />
<path d="M82986904 86722380
L82986904 85722380
L83367857 85722380
L83463095 85770000
L83510714 85817619
L83558333 85912857
L83558333 86055714
L83510714 86150952
L83463095 86198571
L83367857 86246190
L82986904 86246190
" />
<path d="M84510714 86722380
L83939285 86722380
" />
<path d="M84225000 86722380
L84225000 85722380
L84129761 85865238
L84034523 85960476
L83939285 86008095
" />
</g><text x="89971000.000000" y="142911088.000000"
textLength="7861667.000000" font-size="1333333.000000" lengthAdjust="spacingAndGlyphs"
text-anchor="middle" opacity="0">AUDIO_IN2</text>
<g class="stroked-text"><desc>AUDIO_IN2</desc>
<path d="M86328142 142577754
L86804333 142577754
" />
<path d="M86232904 142863468
L86566238 141863468
L86899571 142863468
" />
<path d="M87232904 141863468
L87232904 142672992
L87280523 142768230
L87328142 142815849
L87423380 142863468
L87613857 142863468
L87709095 142815849
L87756714 142768230
L87804333 142672992
L87804333 141863468
" />
<path d="M88280523 142863468
L88280523 141863468
L88518619 141863468
L88661476 141911088
L88756714 142006326
L88804333 142101564
L88851952 142292040
L88851952 142434897
L88804333 142625373
L88756714 142720611
L88661476 142815849
L88518619 142863468
L88280523 142863468
" />
<path d="M89280523 142863468
L89280523 141863468
" />
<path d="M89947190 141863468
L90137666 141863468
L90232904 141911088
L90328142 142006326
L90375761 142196802
L90375761 142530135
L90328142 142720611
L90232904 142815849
L90137666 142863468
L89947190 142863468
L89851952 142815849
L89756714 142720611
L89709095 142530135
L89709095 142196802
L89756714 142006326
L89851952 141911088
L89947190 141863468
" />
<path d="M90566238 142958707
L91328142 142958707
" />
<path d="M91566238 142863468
L91566238 141863468
" />
<path d="M92042428 142863468
L92042428 141863468
L92613857 142863468
L92613857 141863468
" />
<path d="M93042428 141958707
L93090047 141911088
L93185285 141863468
L93423380 141863468
L93518619 141911088
L93566238 141958707
L93613857 142053945
L93613857 142149183
L93566238 142292040
L92994809 142863468
L93613857 142863468
" />
</g><text x="79945000.000000" y="142911088.000000"
textLength="7861667.000000" font-size="1333333.000000" lengthAdjust="spacingAndGlyphs"
text-anchor="middle" opacity="0">AUDIO_IN1</text>
<g class="stroked-text"><desc>AUDIO_IN1</desc>
<path d="M76302142 142577754
L76778333 142577754
" />
<path d="M76206904 142863468
L76540238 141863468
L76873571 142863468
" />
<path d="M77206904 141863468
L77206904 142672992
L77254523 142768230
L77302142 142815849
L77397380 142863468
L77587857 142863468
L77683095 142815849
L77730714 142768230
L77778333 142672992
L77778333 141863468
" />
<path d="M78254523 142863468
L78254523 141863468
L78492619 141863468
L78635476 141911088
L78730714 142006326
L78778333 142101564
L78825952 142292040
L78825952 142434897
L78778333 142625373
L78730714 142720611
L78635476 142815849
L78492619 142863468
L78254523 142863468
" />
<path d="M79254523 142863468
L79254523 141863468
" />
<path d="M79921190 141863468
L80111666 141863468
L80206904 141911088
L80302142 142006326
L80349761 142196802
L80349761 142530135
L80302142 142720611
L80206904 142815849
L80111666 142863468
L79921190 142863468
L79825952 142815849
L79730714 142720611
L79683095 142530135
L79683095 142196802
L79730714 142006326
L79825952 141911088
L79921190 141863468
" />
<path d="M80540238 142958707
L81302142 142958707
" />
<path d="M81540238 142863468
L81540238 141863468
" />
<path d="M82016428 142863468
L82016428 141863468
L82587857 142863468
L82587857 141863468
" />
<path d="M83587857 142863468
L83016428 142863468
" />
<path d="M83302142 142863468
L83302142 141863468
L83206904 142006326
L83111666 142101564
L83016428 142149183
" />
</g><text x="109995000.000000" y="142917088.000000"
textLength="9195000.000000" font-size="1333333.000000" lengthAdjust="spacingAndGlyphs"
text-anchor="middle" opacity="0">AUDIO_OUT2</text>
<g class="stroked-text"><desc>AUDIO_OUT2</desc>
<path d="M105685476 142583754
L106161666 142583754
" />
<path d="M105590238 142869468
L105923571 141869468
L106256904 142869468
" />
<path d="M106590238 141869468
L106590238 142678992
L106637857 142774230
L106685476 142821849
L106780714 142869468
L106971190 142869468
L107066428 142821849
L107114047 142774230
L107161666 142678992
L107161666 141869468
" />
<path d="M107637857 142869468
L107637857 141869468
L107875952 141869468
L108018809 141917088
L108114047 142012326
L108161666 142107564
L108209285 142298040
L108209285 142440897
L108161666 142631373
L108114047 142726611
L108018809 142821849
L107875952 142869468
L107637857 142869468
" />
<path d="M108637857 142869468
L108637857 141869468
" />
<path d="M109304523 141869468
L109495000 141869468
L109590238 141917088
L109685476 142012326
L109733095 142202802
L109733095 142536135
L109685476 142726611
L109590238 142821849
L109495000 142869468
L109304523 142869468
L109209285 142821849
L109114047 142726611
L109066428 142536135
L109066428 142202802
L109114047 142012326
L109209285 141917088
L109304523 141869468
" />
<path d="M109923571 142964707
L110685476 142964707
" />
<path d="M111114047 141869468
L111304523 141869468
L111399761 141917088
L111495000 142012326
L111542619 142202802
L111542619 142536135
L111495000 142726611
L111399761 142821849
L111304523 142869468
L111114047 142869468
L111018809 142821849
L110923571 142726611
L110875952 142536135
L110875952 142202802
L110923571 142012326
L111018809 141917088
L111114047 141869468
" />
<path d="M111971190 141869468
L111971190 142678992
L112018809 142774230
L112066428 142821849
L112161666 142869468
L112352142 142869468
L112447380 142821849
L112495000 142774230
L112542619 142678992
L112542619 141869468
" />
<path d="M112875952 141869468
L113447380 141869468
" />
<path d="M113161666 142869468
L113161666 141869468
" />
<path d="M113733095 141964707
L113780714 141917088
L113875952 141869468
L114114047 141869468
L114209285 141917088
L114256904 141964707
L114304523 142059945
L114304523 142155183
L114256904 142298040
L113685476 142869468
L114304523 142869468
" />
</g><text x="83835000.000000" y="89850000.000000"
textLength="3099762.000000" font-size="1333333.000000" lengthAdjust="spacingAndGlyphs"
text-anchor="middle" opacity="0">R16</text>
<g class="stroked-text"><desc>R16</desc>
<path d="M83192142 89802380
L82858809 89326190
" />
<path d="M82620714 89802380
L82620714 88802380
L83001666 88802380
L83096904 88850000
L83144523 88897619
L83192142 88992857
L83192142 89135714
L83144523 89230952
L83096904 89278571
L83001666 89326190
L82620714 89326190
" />
<path d="M84144523 89802380
L83573095 89802380
" />
<path d="M83858809 89802380
L83858809 88802380
L83763571 88945238
L83668333 89040476
L83573095 89088095
" />
<path d="M85001666 88802380
L84811190 88802380
L84715952 88850000
L84668333 88897619
L84573095 89040476
L84525476 89230952
L84525476 89611904
L84573095 89707142
L84620714 89754761
L84715952 89802380
L84906428 89802380
L85001666 89754761
L85049285 89707142
L85096904 89611904
L85096904 89373809
L85049285 89278571
L85001666 89230952
L84906428 89183333
L84715952 89183333
L84620714 89230952
L84573095 89278571
L84525476 89373809
" />
</g><text x="102430000.000000" y="111365000.000000"
textLength="7290238.000000" font-size="1333333.000000" lengthAdjust="spacingAndGlyphs"
text-anchor="middle" opacity="0">3mm_LED</text>
<g class="stroked-text"><desc>3mm_LED</desc>
<path d="M99025238 110317380
L99644285 110317380
L99310952 110698333
L99453809 110698333
L99549047 110745952
L99596666 110793571
L99644285 110888809
L99644285 111126904
L99596666 111222142
L99549047 111269761
L99453809 111317380
L99168095 111317380
L99072857 111269761
L99025238 111222142
" />
<path d="M100072857 111317380
L100072857 110650714
" />
<path d="M100072857 110745952
L100120476 110698333
L100215714 110650714
L100358571 110650714
L100453809 110698333
L100501428 110793571
L100501428 111317380
" />
<path d="M100501428 110793571
L100549047 110698333
L100644285 110650714
L100787142 110650714
L100882380 110698333
L100930000 110793571
L100930000 111317380
" />
<path d="M101406190 111317380
L101406190 110650714
" />
<path d="M101406190 110745952
L101453809 110698333
L101549047 110650714
L101691904 110650714
L101787142 110698333
L101834761 110793571
L101834761 111317380
" />
<path d="M101834761 110793571
L101882380 110698333
L101977619 110650714
L102120476 110650714
L102215714 110698333
L102263333 110793571
L102263333 111317380
" />
<path d="M102501428 111412619
L103263333 111412619
" />
<path d="M103977619 111317380
L103501428 111317380
L103501428 110317380
" />
<path d="M104310952 110793571
L104644285 110793571
" />
<path d="M104787142 111317380
L104310952 111317380
L104310952 110317380
L104787142 110317380
" />
<path d="M105215714 111317380
L105215714 110317380
L105453809 110317380
L105596666 110365000
L105691904 110460238
L105739523 110555476
L105787142 110745952
L105787142 110888809
L105739523 111079285
L105691904 111174523
L105596666 111269761
L105453809 111317380
L105215714 111317380
" />
</g></g>
<g style="fill:#000000; fill-opacity:0.0; 
stroke:#000000; stroke-width:140000.000000; stroke-opacity:1; 
stroke-linecap:round; stroke-linejoin:round;">
<text x="97165000.000000" y="69220000.000000"
transform="scale(-1 1) translate(-194330000.000000 0)"
textLength="1366905.000000" font-size="1066666.000000" lengthAdjust="spacingAndGlyphs"
text-anchor="middle" opacity="0">C1</text>
<g class="stroked-text"><desc>C1</desc>
<path d="M97298333 69105714
L97336428 69143809
L97450714 69181904
L97526904 69181904
L97641190 69143809
L97717380 69067619
L97755476 68991428
L97793571 68839047
L97793571 68724761
L97755476 68572380
L97717380 68496190
L97641190 68420000
L97526904 68381904
L97450714 68381904
L97336428 68420000
L97298333 68458095
" />
<path d="M96536428 69181904
L96993571 69181904
" />
<path d="M96765000 69181904
L96765000 68381904
L96841190 68496190
L96917380 68572380
L96993571 68610476
" />
</g></g>
<g style="fill:#000000; fill-opacity:0.0; 
stroke:#000000; stroke-width:100000.000000; stroke-opacity:1; 
stroke-linecap:round; stroke-linejoin:round;">
<path d="M99995000 134411088
L99995000 136441088
" />
<path d="M104495000 146891088
L104495000 136491088
" />
<path d="M104495000 146891088
L95495000 146891088
" />
<path d="M104495000 136441088
L95495000 136441088
" />
<path d="M95495000 146891088
L95495000 136491088
" />
<circle cx="99995000.000000" cy="140891088.000000" r="1800000.000000" /> 
<path d="M80375000 82575000
L80375000 71225000
" />
<path d="M89875000 82575000
L89875000 71225000
" />
<path d="M89875000 82575000
L80375000 82575000
" />
<path d="M89875000 71225000
L80375000 71225000
" />
<circle cx="85125000.000000" cy="76075000.000000" r="3500000.000000" /> 
<path d="M80425000 62525000
L80425000 51175000
" />
<path d="M89925000 62525000
L80425000 62525000
" />
<path d="M89925000 51175000
L80425000 51175000
" />
<path d="M89925000 62525000
L89925000 51175000
" />
<circle cx="85175000.000000" cy="56025000.000000" r="3500000.000000" /> 
<path d="M86825000 87500000
L86825000 85000000
" />
<path d="M87485000 86250000
L86825000 86250000
" />
<path d="M80525000 85000000
L80525000 87500000
" />
<path d="M80525000 87500000
L86825000 87500000
" />
<path d="M86825000 85000000
L80525000 85000000
" />
<path d="M79865000 86250000
L80525000 86250000
" />
<path d="M94471000 146891088
L85471000 146891088
" />
<path d="M94471000 146891088
L94471000 136491088
" />
<path d="M85471000 146891088
L85471000 136491088
" />
<path d="M89971000 134411088
L89971000 136441088
" />
<path d="M94471000 136441088
L85471000 136441088
" />
<circle cx="89971000.000000" cy="140891088.000000" r="1800000.000000" /> 
<path d="M75445000 146891088
L75445000 136491088
" />
<path d="M84445000 136441088
L75445000 136441088
" />
<path d="M84445000 146891088
L84445000 136491088
" />
<path d="M79945000 134411088
L79945000 136441088
" />
<path d="M84445000 146891088
L75445000 146891088
" />
<circle cx="79945000.000000" cy="140891088.000000" r="1800000.000000" /> 
<path d="M109625000 51225000
L100125000 51225000
" />
<path d="M100125000 62575000
L100125000 51225000
" />
<path d="M109625000 62575000
L109625000 51225000
" />
<path d="M109625000 62575000
L100125000 62575000
" />
<circle cx="104875000.000000" cy="56075000.000000" r="3500000.000000" /> 
<path d="M89975000 91175000
L80475000 91175000
" />
<path d="M89975000 102525000
L80475000 102525000
" />
<path d="M89975000 102525000
L89975000 91175000
" />
<path d="M80475000 102525000
L80475000 91175000
" />
<circle cx="85225000.000000" cy="96025000.000000" r="3500000.000000" /> 
<path d="M114495000 136447088
L105495000 136447088
" />
<path d="M114495000 146897088
L105495000 146897088
" />
<path d="M105495000 146897088
L105495000 136497088
" />
<path d="M109995000 134417088
L109995000 136447088
" />
<path d="M114495000 146897088
L114495000 136497088
" />
<circle cx="109995000.000000" cy="140897088.000000" r="1800000.000000" /> 
<path d="M109675000 102596088
L100175000 102596088
" />
<path d="M109675000 91246088
L100175000 91246088
" />
<path d="M100175000 102596088
L100175000 91246088
" />
<path d="M109675000 102596088
L109675000 91246088
" />
<circle cx="104925000.000000" cy="96096088.000000" r="3500000.000000" /> 
<path d="M80525000 88100000
L80525000 90600000
" />
<path d="M86825000 88100000
L80525000 88100000
" />
<path d="M86825000 90600000
L86825000 88100000
" />
<path d="M79865000 89350000
L80525000 89350000
" />
<path d="M87485000 89350000
L86825000 89350000
" />
<path d="M80525000 90600000
L86825000 90600000
" />
<path d="M103930000 114991190
L103930000 112658810
" />
<path d="M103930555.080099 112659523.937788 A1900000.000000 1900000.000000 0.0 1 0 103930000.183636 114991190.142769" />
<circle cx="102430000.000000" cy="113825000.000000" r="1500000.000000" /> 
<g >
</g>
<g >
</g>
<g >
</g>
<g >
</g>
<g >
</g>
<g >
</g>
<g >
</g>
<g >
</g>
<g >
</g>
<g >
</g>
<g >
</g>
<g >
</g>
<g >
</g>
<g >
</g>
<g >
</g>
<g >
</g>
<g >
</g>
<g >
</g>
<g >
</g>
<g >
</g>
<g >
</g>
<g >
</g>
<g >
</g>
<g >
</g>
<g >
</g>
<g >
</g>
<g >
</g>
<g >
</g>
<g >
</g>
<g >
</g>
<g >
</g>
<g >
</g>
<g >
</g>
<g >
</g>
<g >
</g>
<g >
</g>
<g >
</g>
<g >
</g>
<g >
</g>
<g >
</g>
<g >
</g>
<g >
</g>
<g >
</g>
<g >
</g>
<g >
</g>
<g >
</g>
<g >
</g>
<g >
</g>
<g >
</g>
<g >
</g>
<g >
</g>
<g >
</g>
<g >
</g>
</g> 
</svg>
