%TF.GenerationSoftware,KiCad,Pcbnew,6.0.9+dfsg-1~bpo11+1*%
%TF.CreationDate,2023-01-13T02:31:36+08:00*%
%TF.ProjectId,MiniVerb - Back,4d696e69-5665-4726-9220-2d204261636b,rev?*%
%TF.SameCoordinates,Original*%
%TF.FileFunction,Drillmap*%
%TF.FilePolarity,Positive*%
%FSLAX45Y45*%
G04 Gerber Fmt 4.5, Leading zero omitted, Abs format (unit mm)*
G04 Created by KiCad (PCBNEW 6.0.9+dfsg-1~bpo11+1) date 2023-01-13 02:31:36*
%MOMM*%
%LPD*%
G01*
G04 APERTURE LIST*
%ADD10C,0.100000*%
%ADD11C,0.200000*%
G04 APERTURE END LIST*
D10*
X7497500Y-14840000D02*
X11497500Y-14840000D01*
X7497500Y-5000000D02*
X7497500Y-14840000D01*
X11497500Y-14840000D02*
X11497500Y-5000000D01*
X11497500Y-5000000D02*
X7497500Y-5000000D01*
D11*
X7750119Y-15155476D02*
X7750119Y-14955476D01*
X7797738Y-14955476D01*
X7826309Y-14965000D01*
X7845357Y-14984048D01*
X7854881Y-15003095D01*
X7864405Y-15041190D01*
X7864405Y-15069762D01*
X7854881Y-15107857D01*
X7845357Y-15126905D01*
X7826309Y-15145952D01*
X7797738Y-15155476D01*
X7750119Y-15155476D01*
X7950119Y-15155476D02*
X7950119Y-15022143D01*
X7950119Y-15060238D02*
X7959643Y-15041190D01*
X7969167Y-15031667D01*
X7988214Y-15022143D01*
X8007262Y-15022143D01*
X8073928Y-15155476D02*
X8073928Y-15022143D01*
X8073928Y-14955476D02*
X8064405Y-14965000D01*
X8073928Y-14974524D01*
X8083452Y-14965000D01*
X8073928Y-14955476D01*
X8073928Y-14974524D01*
X8197738Y-15155476D02*
X8178690Y-15145952D01*
X8169167Y-15126905D01*
X8169167Y-14955476D01*
X8302500Y-15155476D02*
X8283452Y-15145952D01*
X8273928Y-15126905D01*
X8273928Y-14955476D01*
X8531071Y-15155476D02*
X8531071Y-14955476D01*
X8597738Y-15098333D01*
X8664405Y-14955476D01*
X8664405Y-15155476D01*
X8845357Y-15155476D02*
X8845357Y-15050714D01*
X8835833Y-15031667D01*
X8816786Y-15022143D01*
X8778690Y-15022143D01*
X8759643Y-15031667D01*
X8845357Y-15145952D02*
X8826310Y-15155476D01*
X8778690Y-15155476D01*
X8759643Y-15145952D01*
X8750119Y-15126905D01*
X8750119Y-15107857D01*
X8759643Y-15088809D01*
X8778690Y-15079286D01*
X8826310Y-15079286D01*
X8845357Y-15069762D01*
X8940595Y-15022143D02*
X8940595Y-15222143D01*
X8940595Y-15031667D02*
X8959643Y-15022143D01*
X8997738Y-15022143D01*
X9016786Y-15031667D01*
X9026310Y-15041190D01*
X9035833Y-15060238D01*
X9035833Y-15117381D01*
X9026310Y-15136428D01*
X9016786Y-15145952D01*
X8997738Y-15155476D01*
X8959643Y-15155476D01*
X8940595Y-15145952D01*
X9121548Y-15136428D02*
X9131071Y-15145952D01*
X9121548Y-15155476D01*
X9112024Y-15145952D01*
X9121548Y-15136428D01*
X9121548Y-15155476D01*
X9121548Y-15031667D02*
X9131071Y-15041190D01*
X9121548Y-15050714D01*
X9112024Y-15041190D01*
X9121548Y-15031667D01*
X9121548Y-15050714D01*
M02*
