%TF.GenerationSoftware,KiCad,Pcbnew,6.0.9+dfsg-1~bpo11+1*%
%TF.CreationDate,2023-01-13T02:31:21+08:00*%
%TF.ProjectId,MiniVerb - Front,4d696e69-5665-4726-9220-2d2046726f6e,rev?*%
%TF.SameCoordinates,Original*%
%TF.FileFunction,Copper,L1,Top*%
%TF.FilePolarity,Positive*%
%FSLAX46Y46*%
G04 Gerber Fmt 4.6, Leading zero omitted, Abs format (unit mm)*
G04 Created by KiCad (PCBNEW 6.0.9+dfsg-1~bpo11+1) date 2023-01-13 02:31:21*
%MOMM*%
%LPD*%
G01*
G04 APERTURE LIST*
%TA.AperFunction,ComponentPad*%
%ADD10O,7.000000X4.200000*%
%TD*%
%TA.AperFunction,ComponentPad*%
%ADD11C,8.000000*%
%TD*%
%TA.AperFunction,ComponentPad*%
%ADD12C,7.000000*%
%TD*%
%TA.AperFunction,ViaPad*%
%ADD13C,4.000000*%
%TD*%
G04 APERTURE END LIST*
D10*
%TO.P,REF\u002A\u002A,*%
%TO.N,*%
X127500000Y-157501088D03*
X127500000Y-35001088D03*
%TD*%
D11*
%TO.P,REF\u002A\u002A,*%
%TO.N,*%
X149900000Y-96070000D03*
%TD*%
%TO.P,REF\u002A\u002A,*%
%TO.N,*%
X130190000Y-76100000D03*
%TD*%
D12*
%TO.P,REF\u002A\u002A,*%
%TO.N,*%
X124990000Y-142000000D03*
%TD*%
D11*
%TO.P,REF\u002A\u002A,*%
%TO.N,*%
X130180000Y-96050000D03*
%TD*%
%TO.P,REF\u002A\u002A,*%
%TO.N,*%
X149900000Y-56050000D03*
%TD*%
%TO.P,REF\u002A\u002A,*%
%TO.N,*%
X130200000Y-56050000D03*
%TD*%
D12*
%TO.P,REF\u002A\u002A,*%
%TO.N,*%
X145000000Y-142000000D03*
%TD*%
%TO.P,REF\u002A\u002A,*%
%TO.N,*%
X135000000Y-142000000D03*
%TD*%
%TO.P,REF\u002A\u002A,*%
%TO.N,*%
X155010000Y-142000000D03*
%TD*%
D13*
%TO.N,*%
X147500000Y-114000000D03*
%TD*%
%TA.AperFunction,NonConductor*%
G36*
X124796375Y-32528502D02*
G01*
X124842868Y-32582158D01*
X124852972Y-32652432D01*
X124823478Y-32717012D01*
X124794089Y-32741933D01*
X124684224Y-32809259D01*
X124600983Y-32860269D01*
X124597979Y-32862659D01*
X124597974Y-32862662D01*
X124429370Y-32996776D01*
X124351256Y-33058911D01*
X124127599Y-33286506D01*
X124125254Y-33289562D01*
X123988195Y-33468181D01*
X123933346Y-33539661D01*
X123771393Y-33814603D01*
X123644154Y-34107233D01*
X123553526Y-34413188D01*
X123500860Y-34727907D01*
X123486941Y-35046699D01*
X123511977Y-35364811D01*
X123575594Y-35677500D01*
X123676845Y-35980106D01*
X123814219Y-36268117D01*
X123985669Y-36537239D01*
X123988112Y-36540202D01*
X123988113Y-36540204D01*
X124135016Y-36718411D01*
X124188639Y-36783461D01*
X124420102Y-37003112D01*
X124676609Y-37192917D01*
X124679942Y-37194803D01*
X124679947Y-37194806D01*
X124839104Y-37284853D01*
X124954336Y-37350048D01*
X124957879Y-37351515D01*
X124957884Y-37351518D01*
X125135032Y-37424894D01*
X125249142Y-37472160D01*
X125351532Y-37500555D01*
X125552916Y-37556405D01*
X125552924Y-37556407D01*
X125556632Y-37557435D01*
X125872222Y-37604600D01*
X125875520Y-37604744D01*
X125985090Y-37609528D01*
X125985094Y-37609528D01*
X125986466Y-37609588D01*
X128981047Y-37609588D01*
X129218500Y-37595065D01*
X129222283Y-37594364D01*
X129222290Y-37594363D01*
X129375376Y-37565990D01*
X129532252Y-37536914D01*
X129742300Y-37470686D01*
X129832907Y-37442118D01*
X129832910Y-37442117D01*
X129836579Y-37440960D01*
X129840076Y-37439366D01*
X129840082Y-37439364D01*
X130123436Y-37310233D01*
X130123440Y-37310231D01*
X130126944Y-37308634D01*
X130312694Y-37194806D01*
X130395739Y-37143916D01*
X130395742Y-37143914D01*
X130399017Y-37141907D01*
X130402021Y-37139517D01*
X130402026Y-37139514D01*
X130645733Y-36945660D01*
X130648744Y-36943265D01*
X130872401Y-36715670D01*
X131009316Y-36537239D01*
X131064304Y-36465578D01*
X131064306Y-36465574D01*
X131066654Y-36462515D01*
X131228607Y-36187573D01*
X131355846Y-35894943D01*
X131446474Y-35588988D01*
X131499140Y-35274269D01*
X131513059Y-34955477D01*
X131488023Y-34637365D01*
X131424406Y-34324676D01*
X131323155Y-34022070D01*
X131185781Y-33734059D01*
X131014331Y-33464937D01*
X130867244Y-33286506D01*
X130813804Y-33221678D01*
X130813800Y-33221673D01*
X130811361Y-33218715D01*
X130579898Y-32999064D01*
X130323391Y-32809259D01*
X130320052Y-32807370D01*
X130320046Y-32807366D01*
X130208339Y-32744165D01*
X130158899Y-32693212D01*
X130144855Y-32623618D01*
X130170665Y-32557479D01*
X130228136Y-32515794D01*
X130270384Y-32508500D01*
X159365500Y-32508500D01*
X159433621Y-32528502D01*
X159480114Y-32582158D01*
X159491500Y-32634500D01*
X159491500Y-159865500D01*
X159471498Y-159933621D01*
X159417842Y-159980114D01*
X159365500Y-159991500D01*
X130275297Y-159991500D01*
X130207176Y-159971498D01*
X130160683Y-159917842D01*
X130150579Y-159847568D01*
X130180073Y-159782988D01*
X130209462Y-159758067D01*
X130395739Y-159643916D01*
X130395742Y-159643914D01*
X130399017Y-159641907D01*
X130402021Y-159639517D01*
X130402026Y-159639514D01*
X130645733Y-159445660D01*
X130648744Y-159443265D01*
X130872401Y-159215670D01*
X131009316Y-159037239D01*
X131064304Y-158965578D01*
X131064306Y-158965574D01*
X131066654Y-158962515D01*
X131228607Y-158687573D01*
X131355846Y-158394943D01*
X131446474Y-158088988D01*
X131499140Y-157774269D01*
X131513059Y-157455477D01*
X131488023Y-157137365D01*
X131424406Y-156824676D01*
X131323155Y-156522070D01*
X131185781Y-156234059D01*
X131014331Y-155964937D01*
X130867244Y-155786506D01*
X130813804Y-155721678D01*
X130813800Y-155721673D01*
X130811361Y-155718715D01*
X130579898Y-155499064D01*
X130323391Y-155309259D01*
X130320058Y-155307373D01*
X130320053Y-155307370D01*
X130122417Y-155195553D01*
X130045664Y-155152128D01*
X130042121Y-155150661D01*
X130042116Y-155150658D01*
X129823386Y-155060058D01*
X129750858Y-155030016D01*
X129648468Y-155001621D01*
X129447084Y-154945771D01*
X129447076Y-154945769D01*
X129443368Y-154944741D01*
X129127778Y-154897576D01*
X129124480Y-154897432D01*
X129014910Y-154892648D01*
X129014906Y-154892648D01*
X129013534Y-154892588D01*
X126018953Y-154892588D01*
X125781500Y-154907111D01*
X125777717Y-154907812D01*
X125777710Y-154907813D01*
X125624624Y-154936186D01*
X125467748Y-154965262D01*
X125286491Y-155022412D01*
X125167093Y-155060058D01*
X125167090Y-155060059D01*
X125163421Y-155061216D01*
X125159924Y-155062810D01*
X125159918Y-155062812D01*
X124876564Y-155191943D01*
X124876560Y-155191945D01*
X124873056Y-155193542D01*
X124869777Y-155195552D01*
X124869774Y-155195553D01*
X124684224Y-155309259D01*
X124600983Y-155360269D01*
X124597979Y-155362659D01*
X124597974Y-155362662D01*
X124429370Y-155496776D01*
X124351256Y-155558911D01*
X124127599Y-155786506D01*
X124125254Y-155789562D01*
X123988195Y-155968181D01*
X123933346Y-156039661D01*
X123771393Y-156314603D01*
X123644154Y-156607233D01*
X123553526Y-156913188D01*
X123500860Y-157227907D01*
X123486941Y-157546699D01*
X123511977Y-157864811D01*
X123575594Y-158177500D01*
X123676845Y-158480106D01*
X123814219Y-158768117D01*
X123985669Y-159037239D01*
X123988112Y-159040202D01*
X123988113Y-159040204D01*
X124135016Y-159218411D01*
X124188639Y-159283461D01*
X124420102Y-159503112D01*
X124676609Y-159692917D01*
X124679948Y-159694806D01*
X124679954Y-159694810D01*
X124787815Y-159755835D01*
X124837255Y-159806788D01*
X124851299Y-159876382D01*
X124825489Y-159942521D01*
X124768018Y-159984206D01*
X124725770Y-159991500D01*
X120634500Y-159991500D01*
X120566379Y-159971498D01*
X120519886Y-159917842D01*
X120508500Y-159865500D01*
X120508500Y-141943965D01*
X120977057Y-141943965D01*
X120990741Y-142335827D01*
X121042599Y-142724484D01*
X121132136Y-143106225D01*
X121258496Y-143477407D01*
X121420475Y-143834487D01*
X121616525Y-144174056D01*
X121618314Y-144176554D01*
X121618316Y-144176558D01*
X121718047Y-144315860D01*
X121844776Y-144492874D01*
X122103049Y-144787896D01*
X122388878Y-145056308D01*
X122699536Y-145295546D01*
X122702139Y-145297173D01*
X122702144Y-145297176D01*
X122821576Y-145371805D01*
X123032056Y-145503328D01*
X123383266Y-145677670D01*
X123749812Y-145816907D01*
X124128195Y-145919712D01*
X124426419Y-145970153D01*
X124511783Y-145984591D01*
X124511786Y-145984591D01*
X124514805Y-145985102D01*
X124669444Y-145995916D01*
X124902885Y-146012240D01*
X124902893Y-146012240D01*
X124905951Y-146012454D01*
X125158037Y-146005413D01*
X125294825Y-146001592D01*
X125294828Y-146001592D01*
X125297899Y-146001506D01*
X125300952Y-146001120D01*
X125300956Y-146001120D01*
X125442576Y-145983229D01*
X125686908Y-145952362D01*
X125689912Y-145951680D01*
X125689915Y-145951679D01*
X126066269Y-145866174D01*
X126066275Y-145866172D01*
X126069265Y-145865493D01*
X126072184Y-145864522D01*
X126438396Y-145742700D01*
X126438402Y-145742698D01*
X126441320Y-145741727D01*
X126582735Y-145678765D01*
X126796722Y-145583492D01*
X126796728Y-145583489D01*
X126799522Y-145582245D01*
X126802191Y-145580729D01*
X127137784Y-145390086D01*
X127137790Y-145390083D01*
X127140452Y-145388570D01*
X127460855Y-145162550D01*
X127757674Y-144906344D01*
X128028074Y-144622395D01*
X128269475Y-144313415D01*
X128479574Y-143982354D01*
X128656363Y-143632370D01*
X128716469Y-143477407D01*
X128797041Y-143269681D01*
X128797044Y-143269672D01*
X128798156Y-143266805D01*
X128903600Y-142889148D01*
X128971688Y-142503004D01*
X129001769Y-142112059D01*
X129003334Y-142000000D01*
X129000594Y-141943965D01*
X130987057Y-141943965D01*
X131000741Y-142335827D01*
X131052599Y-142724484D01*
X131142136Y-143106225D01*
X131268496Y-143477407D01*
X131430475Y-143834487D01*
X131626525Y-144174056D01*
X131628314Y-144176554D01*
X131628316Y-144176558D01*
X131728047Y-144315860D01*
X131854776Y-144492874D01*
X132113049Y-144787896D01*
X132398878Y-145056308D01*
X132709536Y-145295546D01*
X132712139Y-145297173D01*
X132712144Y-145297176D01*
X132831576Y-145371805D01*
X133042056Y-145503328D01*
X133393266Y-145677670D01*
X133759812Y-145816907D01*
X134138195Y-145919712D01*
X134436419Y-145970153D01*
X134521783Y-145984591D01*
X134521786Y-145984591D01*
X134524805Y-145985102D01*
X134679444Y-145995916D01*
X134912885Y-146012240D01*
X134912893Y-146012240D01*
X134915951Y-146012454D01*
X135168037Y-146005413D01*
X135304825Y-146001592D01*
X135304828Y-146001592D01*
X135307899Y-146001506D01*
X135310952Y-146001120D01*
X135310956Y-146001120D01*
X135452576Y-145983229D01*
X135696908Y-145952362D01*
X135699912Y-145951680D01*
X135699915Y-145951679D01*
X136076269Y-145866174D01*
X136076275Y-145866172D01*
X136079265Y-145865493D01*
X136082184Y-145864522D01*
X136448396Y-145742700D01*
X136448402Y-145742698D01*
X136451320Y-145741727D01*
X136592735Y-145678765D01*
X136806722Y-145583492D01*
X136806728Y-145583489D01*
X136809522Y-145582245D01*
X136812191Y-145580729D01*
X137147784Y-145390086D01*
X137147790Y-145390083D01*
X137150452Y-145388570D01*
X137470855Y-145162550D01*
X137767674Y-144906344D01*
X138038074Y-144622395D01*
X138279475Y-144313415D01*
X138489574Y-143982354D01*
X138666363Y-143632370D01*
X138726469Y-143477407D01*
X138807041Y-143269681D01*
X138807044Y-143269672D01*
X138808156Y-143266805D01*
X138913600Y-142889148D01*
X138981688Y-142503004D01*
X139011769Y-142112059D01*
X139013334Y-142000000D01*
X139010594Y-141943965D01*
X140987057Y-141943965D01*
X141000741Y-142335827D01*
X141052599Y-142724484D01*
X141142136Y-143106225D01*
X141268496Y-143477407D01*
X141430475Y-143834487D01*
X141626525Y-144174056D01*
X141628314Y-144176554D01*
X141628316Y-144176558D01*
X141728047Y-144315860D01*
X141854776Y-144492874D01*
X142113049Y-144787896D01*
X142398878Y-145056308D01*
X142709536Y-145295546D01*
X142712139Y-145297173D01*
X142712144Y-145297176D01*
X142831576Y-145371805D01*
X143042056Y-145503328D01*
X143393266Y-145677670D01*
X143759812Y-145816907D01*
X144138195Y-145919712D01*
X144436419Y-145970153D01*
X144521783Y-145984591D01*
X144521786Y-145984591D01*
X144524805Y-145985102D01*
X144679444Y-145995916D01*
X144912885Y-146012240D01*
X144912893Y-146012240D01*
X144915951Y-146012454D01*
X145168037Y-146005413D01*
X145304825Y-146001592D01*
X145304828Y-146001592D01*
X145307899Y-146001506D01*
X145310952Y-146001120D01*
X145310956Y-146001120D01*
X145452576Y-145983229D01*
X145696908Y-145952362D01*
X145699912Y-145951680D01*
X145699915Y-145951679D01*
X146076269Y-145866174D01*
X146076275Y-145866172D01*
X146079265Y-145865493D01*
X146082184Y-145864522D01*
X146448396Y-145742700D01*
X146448402Y-145742698D01*
X146451320Y-145741727D01*
X146592735Y-145678765D01*
X146806722Y-145583492D01*
X146806728Y-145583489D01*
X146809522Y-145582245D01*
X146812191Y-145580729D01*
X147147784Y-145390086D01*
X147147790Y-145390083D01*
X147150452Y-145388570D01*
X147470855Y-145162550D01*
X147767674Y-144906344D01*
X148038074Y-144622395D01*
X148279475Y-144313415D01*
X148489574Y-143982354D01*
X148666363Y-143632370D01*
X148726469Y-143477407D01*
X148807041Y-143269681D01*
X148807044Y-143269672D01*
X148808156Y-143266805D01*
X148913600Y-142889148D01*
X148981688Y-142503004D01*
X149011769Y-142112059D01*
X149013334Y-142000000D01*
X149010594Y-141943965D01*
X150997057Y-141943965D01*
X151010741Y-142335827D01*
X151062599Y-142724484D01*
X151152136Y-143106225D01*
X151278496Y-143477407D01*
X151440475Y-143834487D01*
X151636525Y-144174056D01*
X151638314Y-144176554D01*
X151638316Y-144176558D01*
X151738047Y-144315860D01*
X151864776Y-144492874D01*
X152123049Y-144787896D01*
X152408878Y-145056308D01*
X152719536Y-145295546D01*
X152722139Y-145297173D01*
X152722144Y-145297176D01*
X152841576Y-145371805D01*
X153052056Y-145503328D01*
X153403266Y-145677670D01*
X153769812Y-145816907D01*
X154148195Y-145919712D01*
X154446419Y-145970153D01*
X154531783Y-145984591D01*
X154531786Y-145984591D01*
X154534805Y-145985102D01*
X154689444Y-145995916D01*
X154922885Y-146012240D01*
X154922893Y-146012240D01*
X154925951Y-146012454D01*
X155178037Y-146005413D01*
X155314825Y-146001592D01*
X155314828Y-146001592D01*
X155317899Y-146001506D01*
X155320952Y-146001120D01*
X155320956Y-146001120D01*
X155462576Y-145983229D01*
X155706908Y-145952362D01*
X155709912Y-145951680D01*
X155709915Y-145951679D01*
X156086269Y-145866174D01*
X156086275Y-145866172D01*
X156089265Y-145865493D01*
X156092184Y-145864522D01*
X156458396Y-145742700D01*
X156458402Y-145742698D01*
X156461320Y-145741727D01*
X156602735Y-145678765D01*
X156816722Y-145583492D01*
X156816728Y-145583489D01*
X156819522Y-145582245D01*
X156822191Y-145580729D01*
X157157784Y-145390086D01*
X157157790Y-145390083D01*
X157160452Y-145388570D01*
X157480855Y-145162550D01*
X157777674Y-144906344D01*
X158048074Y-144622395D01*
X158289475Y-144313415D01*
X158499574Y-143982354D01*
X158676363Y-143632370D01*
X158736469Y-143477407D01*
X158817041Y-143269681D01*
X158817044Y-143269672D01*
X158818156Y-143266805D01*
X158923600Y-142889148D01*
X158991688Y-142503004D01*
X159021769Y-142112059D01*
X159023334Y-142000000D01*
X159020594Y-141943965D01*
X159004330Y-141611440D01*
X159004180Y-141608367D01*
X158946901Y-141220473D01*
X158852043Y-140840019D01*
X158720512Y-140470637D01*
X158553564Y-140115854D01*
X158551997Y-140113225D01*
X158551992Y-140113216D01*
X158354361Y-139781689D01*
X158352791Y-139779055D01*
X158350977Y-139776595D01*
X158350972Y-139776587D01*
X158121933Y-139465926D01*
X158121931Y-139465923D01*
X158120111Y-139463455D01*
X157857744Y-139172068D01*
X157568195Y-138907673D01*
X157254228Y-138672795D01*
X157206015Y-138643596D01*
X156921467Y-138471267D01*
X156921458Y-138471262D01*
X156918839Y-138469676D01*
X156565229Y-138300255D01*
X156562339Y-138299203D01*
X156562334Y-138299201D01*
X156199674Y-138167204D01*
X156199671Y-138167203D01*
X156196775Y-138166149D01*
X155920563Y-138095229D01*
X155819977Y-138069403D01*
X155819974Y-138069402D01*
X155816993Y-138068637D01*
X155429508Y-138008651D01*
X155038018Y-137986764D01*
X155034939Y-137986893D01*
X155034936Y-137986893D01*
X154779188Y-137997612D01*
X154646261Y-138003183D01*
X154643217Y-138003611D01*
X154643215Y-138003611D01*
X154432778Y-138033186D01*
X154257976Y-138057753D01*
X153876869Y-138149953D01*
X153506579Y-138278902D01*
X153150638Y-138443369D01*
X152812446Y-138641785D01*
X152652444Y-138758033D01*
X152497711Y-138870453D01*
X152497705Y-138870458D01*
X152495230Y-138872256D01*
X152492944Y-138874285D01*
X152492941Y-138874288D01*
X152413123Y-138945154D01*
X152202017Y-139132583D01*
X152199938Y-139134828D01*
X152199931Y-139134835D01*
X151937694Y-139418026D01*
X151935608Y-139420279D01*
X151698544Y-139732599D01*
X151493089Y-140066562D01*
X151321203Y-140418980D01*
X151184527Y-140786489D01*
X151084367Y-141165581D01*
X151021677Y-141552638D01*
X151021483Y-141555718D01*
X151021483Y-141555720D01*
X151017978Y-141611440D01*
X150997057Y-141943965D01*
X149010594Y-141943965D01*
X148994330Y-141611440D01*
X148994180Y-141608367D01*
X148936901Y-141220473D01*
X148842043Y-140840019D01*
X148710512Y-140470637D01*
X148543564Y-140115854D01*
X148541997Y-140113225D01*
X148541992Y-140113216D01*
X148344361Y-139781689D01*
X148342791Y-139779055D01*
X148340977Y-139776595D01*
X148340972Y-139776587D01*
X148111933Y-139465926D01*
X148111931Y-139465923D01*
X148110111Y-139463455D01*
X147847744Y-139172068D01*
X147558195Y-138907673D01*
X147244228Y-138672795D01*
X147196015Y-138643596D01*
X146911467Y-138471267D01*
X146911458Y-138471262D01*
X146908839Y-138469676D01*
X146555229Y-138300255D01*
X146552339Y-138299203D01*
X146552334Y-138299201D01*
X146189674Y-138167204D01*
X146189671Y-138167203D01*
X146186775Y-138166149D01*
X145910563Y-138095229D01*
X145809977Y-138069403D01*
X145809974Y-138069402D01*
X145806993Y-138068637D01*
X145419508Y-138008651D01*
X145028018Y-137986764D01*
X145024939Y-137986893D01*
X145024936Y-137986893D01*
X144769188Y-137997612D01*
X144636261Y-138003183D01*
X144633217Y-138003611D01*
X144633215Y-138003611D01*
X144422778Y-138033186D01*
X144247976Y-138057753D01*
X143866869Y-138149953D01*
X143496579Y-138278902D01*
X143140638Y-138443369D01*
X142802446Y-138641785D01*
X142642444Y-138758033D01*
X142487711Y-138870453D01*
X142487705Y-138870458D01*
X142485230Y-138872256D01*
X142482944Y-138874285D01*
X142482941Y-138874288D01*
X142403123Y-138945154D01*
X142192017Y-139132583D01*
X142189938Y-139134828D01*
X142189931Y-139134835D01*
X141927694Y-139418026D01*
X141925608Y-139420279D01*
X141688544Y-139732599D01*
X141483089Y-140066562D01*
X141311203Y-140418980D01*
X141174527Y-140786489D01*
X141074367Y-141165581D01*
X141011677Y-141552638D01*
X141011483Y-141555718D01*
X141011483Y-141555720D01*
X141007978Y-141611440D01*
X140987057Y-141943965D01*
X139010594Y-141943965D01*
X138994330Y-141611440D01*
X138994180Y-141608367D01*
X138936901Y-141220473D01*
X138842043Y-140840019D01*
X138710512Y-140470637D01*
X138543564Y-140115854D01*
X138541997Y-140113225D01*
X138541992Y-140113216D01*
X138344361Y-139781689D01*
X138342791Y-139779055D01*
X138340977Y-139776595D01*
X138340972Y-139776587D01*
X138111933Y-139465926D01*
X138111931Y-139465923D01*
X138110111Y-139463455D01*
X137847744Y-139172068D01*
X137558195Y-138907673D01*
X137244228Y-138672795D01*
X137196015Y-138643596D01*
X136911467Y-138471267D01*
X136911458Y-138471262D01*
X136908839Y-138469676D01*
X136555229Y-138300255D01*
X136552339Y-138299203D01*
X136552334Y-138299201D01*
X136189674Y-138167204D01*
X136189671Y-138167203D01*
X136186775Y-138166149D01*
X135910563Y-138095229D01*
X135809977Y-138069403D01*
X135809974Y-138069402D01*
X135806993Y-138068637D01*
X135419508Y-138008651D01*
X135028018Y-137986764D01*
X135024939Y-137986893D01*
X135024936Y-137986893D01*
X134769188Y-137997612D01*
X134636261Y-138003183D01*
X134633217Y-138003611D01*
X134633215Y-138003611D01*
X134422778Y-138033186D01*
X134247976Y-138057753D01*
X133866869Y-138149953D01*
X133496579Y-138278902D01*
X133140638Y-138443369D01*
X132802446Y-138641785D01*
X132642444Y-138758033D01*
X132487711Y-138870453D01*
X132487705Y-138870458D01*
X132485230Y-138872256D01*
X132482944Y-138874285D01*
X132482941Y-138874288D01*
X132403123Y-138945154D01*
X132192017Y-139132583D01*
X132189938Y-139134828D01*
X132189931Y-139134835D01*
X131927694Y-139418026D01*
X131925608Y-139420279D01*
X131688544Y-139732599D01*
X131483089Y-140066562D01*
X131311203Y-140418980D01*
X131174527Y-140786489D01*
X131074367Y-141165581D01*
X131011677Y-141552638D01*
X131011483Y-141555718D01*
X131011483Y-141555720D01*
X131007978Y-141611440D01*
X130987057Y-141943965D01*
X129000594Y-141943965D01*
X128984330Y-141611440D01*
X128984180Y-141608367D01*
X128926901Y-141220473D01*
X128832043Y-140840019D01*
X128700512Y-140470637D01*
X128533564Y-140115854D01*
X128531997Y-140113225D01*
X128531992Y-140113216D01*
X128334361Y-139781689D01*
X128332791Y-139779055D01*
X128330977Y-139776595D01*
X128330972Y-139776587D01*
X128101933Y-139465926D01*
X128101931Y-139465923D01*
X128100111Y-139463455D01*
X127837744Y-139172068D01*
X127548195Y-138907673D01*
X127234228Y-138672795D01*
X127186015Y-138643596D01*
X126901467Y-138471267D01*
X126901458Y-138471262D01*
X126898839Y-138469676D01*
X126545229Y-138300255D01*
X126542339Y-138299203D01*
X126542334Y-138299201D01*
X126179674Y-138167204D01*
X126179671Y-138167203D01*
X126176775Y-138166149D01*
X125900563Y-138095229D01*
X125799977Y-138069403D01*
X125799974Y-138069402D01*
X125796993Y-138068637D01*
X125409508Y-138008651D01*
X125018018Y-137986764D01*
X125014939Y-137986893D01*
X125014936Y-137986893D01*
X124759188Y-137997612D01*
X124626261Y-138003183D01*
X124623217Y-138003611D01*
X124623215Y-138003611D01*
X124412778Y-138033186D01*
X124237976Y-138057753D01*
X123856869Y-138149953D01*
X123486579Y-138278902D01*
X123130638Y-138443369D01*
X122792446Y-138641785D01*
X122632444Y-138758033D01*
X122477711Y-138870453D01*
X122477705Y-138870458D01*
X122475230Y-138872256D01*
X122472944Y-138874285D01*
X122472941Y-138874288D01*
X122393123Y-138945154D01*
X122182017Y-139132583D01*
X122179938Y-139134828D01*
X122179931Y-139134835D01*
X121917694Y-139418026D01*
X121915608Y-139420279D01*
X121678544Y-139732599D01*
X121473089Y-140066562D01*
X121301203Y-140418980D01*
X121164527Y-140786489D01*
X121064367Y-141165581D01*
X121001677Y-141552638D01*
X121001483Y-141555718D01*
X121001483Y-141555720D01*
X120997978Y-141611440D01*
X120977057Y-141943965D01*
X120508500Y-141943965D01*
X120508500Y-114000000D01*
X144986540Y-114000000D01*
X145006359Y-114315020D01*
X145065505Y-114625072D01*
X145163044Y-114925266D01*
X145164731Y-114928852D01*
X145164733Y-114928856D01*
X145295750Y-115207283D01*
X145295754Y-115207290D01*
X145297438Y-115210869D01*
X145466568Y-115477375D01*
X145667767Y-115720582D01*
X145897860Y-115936654D01*
X146153221Y-116122184D01*
X146429821Y-116274247D01*
X146433490Y-116275700D01*
X146433495Y-116275702D01*
X146719628Y-116388990D01*
X146723298Y-116390443D01*
X147029025Y-116468940D01*
X147342179Y-116508500D01*
X147657821Y-116508500D01*
X147970975Y-116468940D01*
X148276702Y-116390443D01*
X148280372Y-116388990D01*
X148566505Y-116275702D01*
X148566510Y-116275700D01*
X148570179Y-116274247D01*
X148846779Y-116122184D01*
X149102140Y-115936654D01*
X149332233Y-115720582D01*
X149533432Y-115477375D01*
X149702562Y-115210869D01*
X149704246Y-115207290D01*
X149704250Y-115207283D01*
X149835267Y-114928856D01*
X149835269Y-114928852D01*
X149836956Y-114925266D01*
X149934495Y-114625072D01*
X149993641Y-114315020D01*
X150013460Y-114000000D01*
X149993641Y-113684980D01*
X149934495Y-113374928D01*
X149836956Y-113074734D01*
X149835267Y-113071144D01*
X149704250Y-112792717D01*
X149704246Y-112792710D01*
X149702562Y-112789131D01*
X149533432Y-112522625D01*
X149332233Y-112279418D01*
X149102140Y-112063346D01*
X148846779Y-111877816D01*
X148570179Y-111725753D01*
X148566510Y-111724300D01*
X148566505Y-111724298D01*
X148280372Y-111611010D01*
X148280371Y-111611010D01*
X148276702Y-111609557D01*
X147970975Y-111531060D01*
X147657821Y-111491500D01*
X147342179Y-111491500D01*
X147029025Y-111531060D01*
X146723298Y-111609557D01*
X146719629Y-111611010D01*
X146719628Y-111611010D01*
X146433495Y-111724298D01*
X146433490Y-111724300D01*
X146429821Y-111725753D01*
X146153221Y-111877816D01*
X145897860Y-112063346D01*
X145667767Y-112279418D01*
X145466568Y-112522625D01*
X145297438Y-112789131D01*
X145295754Y-112792710D01*
X145295750Y-112792717D01*
X145164733Y-113071144D01*
X145163044Y-113074734D01*
X145065505Y-113374928D01*
X145006359Y-113684980D01*
X144986540Y-114000000D01*
X120508500Y-114000000D01*
X120508500Y-96207512D01*
X125669433Y-96207512D01*
X125669662Y-96210357D01*
X125669662Y-96210360D01*
X125698848Y-96573095D01*
X125702273Y-96615668D01*
X125771969Y-97019168D01*
X125877949Y-97414691D01*
X126019340Y-97798980D01*
X126020565Y-97801560D01*
X126020568Y-97801567D01*
X126179129Y-98135494D01*
X126194979Y-98168874D01*
X126312260Y-98367186D01*
X126385301Y-98490691D01*
X126403418Y-98521326D01*
X126405080Y-98523630D01*
X126405081Y-98523632D01*
X126623130Y-98825963D01*
X126642944Y-98853436D01*
X126911584Y-99162471D01*
X127207126Y-99445886D01*
X127209344Y-99447656D01*
X127209349Y-99447661D01*
X127234403Y-99467661D01*
X127527139Y-99701349D01*
X127529520Y-99702919D01*
X127847369Y-99912501D01*
X127868989Y-99926757D01*
X127871519Y-99928113D01*
X127871518Y-99928113D01*
X128178340Y-100092630D01*
X128229860Y-100120255D01*
X128606784Y-100280250D01*
X128609522Y-100281129D01*
X128993931Y-100404549D01*
X128993935Y-100404550D01*
X128996657Y-100405424D01*
X128999447Y-100406048D01*
X128999452Y-100406049D01*
X129393477Y-100494125D01*
X129393488Y-100494127D01*
X129396271Y-100494749D01*
X129802335Y-100547487D01*
X130211509Y-100563206D01*
X130214371Y-100563056D01*
X130214372Y-100563056D01*
X130617566Y-100541926D01*
X130617573Y-100541925D01*
X130620422Y-100541776D01*
X130623245Y-100541369D01*
X130623247Y-100541369D01*
X131022889Y-100483780D01*
X131022896Y-100483779D01*
X131025711Y-100483373D01*
X131424038Y-100388478D01*
X131426736Y-100387570D01*
X131426743Y-100387568D01*
X131809414Y-100258785D01*
X131809420Y-100258783D01*
X131812126Y-100257872D01*
X132186779Y-100092630D01*
X132544914Y-99894113D01*
X132883583Y-99663954D01*
X132885811Y-99662124D01*
X133197779Y-99405870D01*
X133197783Y-99405867D01*
X133199998Y-99404047D01*
X133202036Y-99402038D01*
X133202043Y-99402031D01*
X133422687Y-99184446D01*
X133491555Y-99116533D01*
X133695163Y-98875596D01*
X133754008Y-98805963D01*
X133754013Y-98805957D01*
X133755854Y-98803778D01*
X133990719Y-98468356D01*
X134194217Y-98113027D01*
X134195401Y-98110441D01*
X134363485Y-97743316D01*
X134363488Y-97743307D01*
X134364674Y-97740718D01*
X134500685Y-97354492D01*
X134501387Y-97351718D01*
X134600430Y-96960307D01*
X134600431Y-96960303D01*
X134601133Y-96957528D01*
X134665189Y-96553095D01*
X134686814Y-96227512D01*
X145389433Y-96227512D01*
X145389662Y-96230357D01*
X145389662Y-96230360D01*
X145420664Y-96615668D01*
X145422273Y-96635668D01*
X145491969Y-97039168D01*
X145597949Y-97434691D01*
X145598934Y-97437368D01*
X145730994Y-97796295D01*
X145739340Y-97818980D01*
X145740565Y-97821560D01*
X145740568Y-97821567D01*
X145887233Y-98130441D01*
X145914979Y-98188874D01*
X146032260Y-98387186D01*
X146112954Y-98523632D01*
X146123418Y-98541326D01*
X146125080Y-98543630D01*
X146125081Y-98543632D01*
X146348520Y-98853436D01*
X146362944Y-98873436D01*
X146631584Y-99182471D01*
X146927126Y-99465886D01*
X146929344Y-99467656D01*
X146929349Y-99467661D01*
X147087132Y-99593617D01*
X147247139Y-99721349D01*
X147249520Y-99722919D01*
X147556260Y-99925176D01*
X147588989Y-99946757D01*
X147591519Y-99948113D01*
X147591518Y-99948113D01*
X147914642Y-100121371D01*
X147949860Y-100140255D01*
X148326784Y-100300250D01*
X148329522Y-100301129D01*
X148713931Y-100424549D01*
X148713935Y-100424550D01*
X148716657Y-100425424D01*
X148719447Y-100426048D01*
X148719452Y-100426049D01*
X149113477Y-100514125D01*
X149113488Y-100514127D01*
X149116271Y-100514749D01*
X149522335Y-100567487D01*
X149931509Y-100583206D01*
X149934371Y-100583056D01*
X149934372Y-100583056D01*
X150337566Y-100561926D01*
X150337573Y-100561925D01*
X150340422Y-100561776D01*
X150343245Y-100561369D01*
X150343247Y-100561369D01*
X150742889Y-100503780D01*
X150742896Y-100503779D01*
X150745711Y-100503373D01*
X151144038Y-100408478D01*
X151146736Y-100407570D01*
X151146743Y-100407568D01*
X151529414Y-100278785D01*
X151529420Y-100278783D01*
X151532126Y-100277872D01*
X151906779Y-100112630D01*
X152264914Y-99914113D01*
X152603583Y-99683954D01*
X152893411Y-99445886D01*
X152917779Y-99425870D01*
X152917783Y-99425867D01*
X152919998Y-99424047D01*
X152922036Y-99422038D01*
X152922043Y-99422031D01*
X153185252Y-99162471D01*
X153211555Y-99136533D01*
X153230305Y-99114345D01*
X153474008Y-98825963D01*
X153474013Y-98825957D01*
X153475854Y-98823778D01*
X153710719Y-98488356D01*
X153914217Y-98133027D01*
X154056815Y-97821567D01*
X154083485Y-97763316D01*
X154083488Y-97763307D01*
X154084674Y-97760718D01*
X154220685Y-97374492D01*
X154309896Y-97021936D01*
X154320430Y-96980307D01*
X154320431Y-96980303D01*
X154321133Y-96977528D01*
X154324749Y-96954701D01*
X154384743Y-96575910D01*
X154385189Y-96573095D01*
X154408332Y-96224656D01*
X154412210Y-96166271D01*
X154412210Y-96166260D01*
X154412326Y-96164520D01*
X154413316Y-96070000D01*
X154394741Y-95660947D01*
X154392002Y-95640947D01*
X154339556Y-95258087D01*
X154339169Y-95255260D01*
X154333912Y-95232487D01*
X154312955Y-95141713D01*
X154247057Y-94856280D01*
X154239589Y-94833567D01*
X154120057Y-94470005D01*
X154120054Y-94469998D01*
X154119164Y-94467290D01*
X153956542Y-94091492D01*
X153833436Y-93865701D01*
X153761899Y-93734492D01*
X153761895Y-93734485D01*
X153760529Y-93731980D01*
X153680190Y-93611971D01*
X153534332Y-93394090D01*
X153534324Y-93394079D01*
X153532740Y-93391713D01*
X153275049Y-93073491D01*
X153257773Y-93055725D01*
X152991567Y-92781980D01*
X152991563Y-92781976D01*
X152989577Y-92779934D01*
X152987419Y-92778084D01*
X152987409Y-92778075D01*
X152680849Y-92515321D01*
X152680844Y-92515317D01*
X152678675Y-92513458D01*
X152676344Y-92511801D01*
X152676337Y-92511796D01*
X152470663Y-92365632D01*
X152344900Y-92276257D01*
X152088829Y-92127220D01*
X151993474Y-92071722D01*
X151993469Y-92071719D01*
X151991001Y-92070283D01*
X151756846Y-91961095D01*
X151622487Y-91898442D01*
X151622477Y-91898438D01*
X151619891Y-91897232D01*
X151561642Y-91876261D01*
X151237314Y-91759495D01*
X151237305Y-91759492D01*
X151234624Y-91758527D01*
X150972247Y-91690183D01*
X150841140Y-91656032D01*
X150841134Y-91656031D01*
X150838371Y-91655311D01*
X150434395Y-91588433D01*
X150431552Y-91588224D01*
X150431550Y-91588224D01*
X150028865Y-91558653D01*
X150026019Y-91558444D01*
X149856043Y-91561411D01*
X149619458Y-91565540D01*
X149619453Y-91565540D01*
X149616607Y-91565590D01*
X149613774Y-91565898D01*
X149613770Y-91565898D01*
X149284896Y-91601625D01*
X149209527Y-91609813D01*
X148808130Y-91690749D01*
X148805402Y-91691562D01*
X148805391Y-91691565D01*
X148492867Y-91784733D01*
X148415721Y-91807731D01*
X148413060Y-91808795D01*
X148413058Y-91808796D01*
X148082287Y-91941095D01*
X148035529Y-91959797D01*
X148032982Y-91961095D01*
X147673227Y-92144399D01*
X147673222Y-92144402D01*
X147670684Y-92145695D01*
X147324189Y-92363894D01*
X146998896Y-92612599D01*
X146697483Y-92889763D01*
X146422430Y-93193104D01*
X146176002Y-93520125D01*
X146058522Y-93709601D01*
X145972628Y-93848135D01*
X145960227Y-93868135D01*
X145958947Y-93870691D01*
X145958942Y-93870700D01*
X145849635Y-94088982D01*
X145776881Y-94234269D01*
X145775840Y-94236925D01*
X145775837Y-94236932D01*
X145685561Y-94467290D01*
X145627473Y-94615513D01*
X145626681Y-94618240D01*
X145626677Y-94618251D01*
X145518228Y-94991535D01*
X145513233Y-95008729D01*
X145435101Y-95410681D01*
X145393721Y-95818060D01*
X145389433Y-96227512D01*
X134686814Y-96227512D01*
X134692210Y-96146271D01*
X134692210Y-96146260D01*
X134692326Y-96144520D01*
X134693316Y-96050000D01*
X134674741Y-95640947D01*
X134619169Y-95235260D01*
X134527057Y-94836280D01*
X134453600Y-94612859D01*
X134400057Y-94450005D01*
X134400054Y-94449998D01*
X134399164Y-94447290D01*
X134236542Y-94071492D01*
X134052803Y-93734492D01*
X134041899Y-93714492D01*
X134041895Y-93714485D01*
X134040529Y-93711980D01*
X133960190Y-93591971D01*
X133814332Y-93374090D01*
X133814324Y-93374079D01*
X133812740Y-93371713D01*
X133555049Y-93053491D01*
X133395831Y-92889763D01*
X133271567Y-92761980D01*
X133271563Y-92761976D01*
X133269577Y-92759934D01*
X133267419Y-92758084D01*
X133267409Y-92758075D01*
X132960849Y-92495321D01*
X132960844Y-92495317D01*
X132958675Y-92493458D01*
X132956344Y-92491801D01*
X132956337Y-92491796D01*
X132750663Y-92345632D01*
X132624900Y-92256257D01*
X132307837Y-92071722D01*
X132273474Y-92051722D01*
X132273469Y-92051719D01*
X132271001Y-92050283D01*
X132036846Y-91941095D01*
X131902487Y-91878442D01*
X131902477Y-91878438D01*
X131899891Y-91877232D01*
X131897194Y-91876261D01*
X131517314Y-91739495D01*
X131517305Y-91739492D01*
X131514624Y-91738527D01*
X131252247Y-91670183D01*
X131121140Y-91636032D01*
X131121134Y-91636031D01*
X131118371Y-91635311D01*
X130714395Y-91568433D01*
X130711552Y-91568224D01*
X130711550Y-91568224D01*
X130308865Y-91538653D01*
X130306019Y-91538444D01*
X130136043Y-91541411D01*
X129899458Y-91545540D01*
X129899453Y-91545540D01*
X129896607Y-91545590D01*
X129893774Y-91545898D01*
X129893770Y-91545898D01*
X129564896Y-91581625D01*
X129489527Y-91589813D01*
X129088130Y-91670749D01*
X129085402Y-91671562D01*
X129085391Y-91671565D01*
X128793684Y-91758527D01*
X128695721Y-91787731D01*
X128693060Y-91788795D01*
X128693058Y-91788796D01*
X128468927Y-91878442D01*
X128315529Y-91939797D01*
X128146469Y-92025937D01*
X127953227Y-92124399D01*
X127953222Y-92124402D01*
X127950684Y-92125695D01*
X127604189Y-92343894D01*
X127278896Y-92592599D01*
X126977483Y-92869763D01*
X126702430Y-93173104D01*
X126456002Y-93500125D01*
X126240227Y-93848135D01*
X126238947Y-93850691D01*
X126238942Y-93850700D01*
X126228927Y-93870700D01*
X126056881Y-94214269D01*
X126055840Y-94216925D01*
X126055837Y-94216932D01*
X125957723Y-94467290D01*
X125907473Y-94595513D01*
X125906681Y-94598240D01*
X125906677Y-94598251D01*
X125794030Y-94985985D01*
X125793233Y-94988729D01*
X125715101Y-95390681D01*
X125673721Y-95798060D01*
X125669433Y-96207512D01*
X120508500Y-96207512D01*
X120508500Y-76257512D01*
X125679433Y-76257512D01*
X125679662Y-76260357D01*
X125679662Y-76260360D01*
X125707465Y-76605910D01*
X125712273Y-76665668D01*
X125781969Y-77069168D01*
X125887949Y-77464691D01*
X126029340Y-77848980D01*
X126204979Y-78218874D01*
X126322260Y-78417186D01*
X126383473Y-78520691D01*
X126413418Y-78571326D01*
X126652944Y-78903436D01*
X126921584Y-79212471D01*
X127217126Y-79495886D01*
X127219344Y-79497656D01*
X127219349Y-79497661D01*
X127377132Y-79623617D01*
X127537139Y-79751349D01*
X127539520Y-79752919D01*
X127829482Y-79944113D01*
X127878989Y-79976757D01*
X127881519Y-79978113D01*
X127881518Y-79978113D01*
X128188340Y-80142630D01*
X128239860Y-80170255D01*
X128616784Y-80330250D01*
X128619522Y-80331129D01*
X129003931Y-80454549D01*
X129003935Y-80454550D01*
X129006657Y-80455424D01*
X129009447Y-80456048D01*
X129009452Y-80456049D01*
X129403477Y-80544125D01*
X129403488Y-80544127D01*
X129406271Y-80544749D01*
X129812335Y-80597487D01*
X130221509Y-80613206D01*
X130224371Y-80613056D01*
X130224372Y-80613056D01*
X130627566Y-80591926D01*
X130627573Y-80591925D01*
X130630422Y-80591776D01*
X130633245Y-80591369D01*
X130633247Y-80591369D01*
X131032889Y-80533780D01*
X131032896Y-80533779D01*
X131035711Y-80533373D01*
X131434038Y-80438478D01*
X131436736Y-80437570D01*
X131436743Y-80437568D01*
X131819414Y-80308785D01*
X131819420Y-80308783D01*
X131822126Y-80307872D01*
X132196779Y-80142630D01*
X132554914Y-79944113D01*
X132893583Y-79713954D01*
X133209998Y-79454047D01*
X133212036Y-79452038D01*
X133212043Y-79452031D01*
X133457161Y-79210311D01*
X133501555Y-79166533D01*
X133507261Y-79159781D01*
X133764008Y-78855963D01*
X133764013Y-78855957D01*
X133765854Y-78853778D01*
X134000719Y-78518356D01*
X134204217Y-78163027D01*
X134346815Y-77851567D01*
X134373485Y-77793316D01*
X134373488Y-77793307D01*
X134374674Y-77790718D01*
X134510685Y-77404492D01*
X134611133Y-77007528D01*
X134675189Y-76603095D01*
X134702326Y-76194520D01*
X134703316Y-76100000D01*
X134684741Y-75690947D01*
X134629169Y-75285260D01*
X134537057Y-74886280D01*
X134531460Y-74869255D01*
X134410057Y-74500005D01*
X134410054Y-74499998D01*
X134409164Y-74497290D01*
X134246542Y-74121492D01*
X134050529Y-73761980D01*
X133970190Y-73641971D01*
X133824332Y-73424090D01*
X133824324Y-73424079D01*
X133822740Y-73421713D01*
X133565049Y-73103491D01*
X133386382Y-72919763D01*
X133281567Y-72811980D01*
X133281563Y-72811976D01*
X133279577Y-72809934D01*
X133277419Y-72808084D01*
X133277409Y-72808075D01*
X132970849Y-72545321D01*
X132970844Y-72545317D01*
X132968675Y-72543458D01*
X132966344Y-72541801D01*
X132966337Y-72541796D01*
X132760663Y-72395632D01*
X132634900Y-72306257D01*
X132408345Y-72174399D01*
X132283474Y-72101722D01*
X132283469Y-72101719D01*
X132281001Y-72100283D01*
X132046846Y-71991095D01*
X131912487Y-71928442D01*
X131912477Y-71928438D01*
X131909891Y-71927232D01*
X131907194Y-71926261D01*
X131527314Y-71789495D01*
X131527305Y-71789492D01*
X131524624Y-71788527D01*
X131262247Y-71720183D01*
X131131140Y-71686032D01*
X131131134Y-71686031D01*
X131128371Y-71685311D01*
X130724395Y-71618433D01*
X130721552Y-71618224D01*
X130721550Y-71618224D01*
X130318865Y-71588653D01*
X130316019Y-71588444D01*
X130146043Y-71591411D01*
X129909458Y-71595540D01*
X129909453Y-71595540D01*
X129906607Y-71595590D01*
X129903774Y-71595898D01*
X129903770Y-71595898D01*
X129574896Y-71631625D01*
X129499527Y-71639813D01*
X129098130Y-71720749D01*
X129095402Y-71721562D01*
X129095391Y-71721565D01*
X128782867Y-71814733D01*
X128705721Y-71837731D01*
X128703060Y-71838795D01*
X128703058Y-71838796D01*
X128478927Y-71928442D01*
X128325529Y-71989797D01*
X128322982Y-71991095D01*
X127963227Y-72174399D01*
X127963222Y-72174402D01*
X127960684Y-72175695D01*
X127614189Y-72393894D01*
X127288896Y-72642599D01*
X126987483Y-72919763D01*
X126712430Y-73223104D01*
X126466002Y-73550125D01*
X126250227Y-73898135D01*
X126248947Y-73900691D01*
X126248942Y-73900700D01*
X126139635Y-74118982D01*
X126066881Y-74264269D01*
X126065840Y-74266925D01*
X126065837Y-74266932D01*
X125975561Y-74497290D01*
X125917473Y-74645513D01*
X125916681Y-74648240D01*
X125916677Y-74648251D01*
X125846715Y-74889063D01*
X125803233Y-75038729D01*
X125725101Y-75440681D01*
X125683721Y-75848060D01*
X125679433Y-76257512D01*
X120508500Y-76257512D01*
X120508500Y-56207512D01*
X125689433Y-56207512D01*
X125689662Y-56210357D01*
X125689662Y-56210360D01*
X125717465Y-56555910D01*
X125722273Y-56615668D01*
X125791969Y-57019168D01*
X125897949Y-57414691D01*
X126039340Y-57798980D01*
X126214979Y-58168874D01*
X126332260Y-58367186D01*
X126393473Y-58470691D01*
X126423418Y-58521326D01*
X126662944Y-58853436D01*
X126931584Y-59162471D01*
X127227126Y-59445886D01*
X127229344Y-59447656D01*
X127229349Y-59447661D01*
X127387133Y-59573618D01*
X127547139Y-59701349D01*
X127549520Y-59702919D01*
X127839482Y-59894113D01*
X127888989Y-59926757D01*
X127891519Y-59928113D01*
X127891518Y-59928113D01*
X128198340Y-60092630D01*
X128249860Y-60120255D01*
X128626784Y-60280250D01*
X128629522Y-60281129D01*
X129013931Y-60404549D01*
X129013935Y-60404550D01*
X129016657Y-60405424D01*
X129019447Y-60406048D01*
X129019452Y-60406049D01*
X129413477Y-60494125D01*
X129413488Y-60494127D01*
X129416271Y-60494749D01*
X129822335Y-60547487D01*
X130231509Y-60563206D01*
X130234371Y-60563056D01*
X130234372Y-60563056D01*
X130637566Y-60541926D01*
X130637573Y-60541925D01*
X130640422Y-60541776D01*
X130643245Y-60541369D01*
X130643247Y-60541369D01*
X131042889Y-60483780D01*
X131042896Y-60483779D01*
X131045711Y-60483373D01*
X131444038Y-60388478D01*
X131446736Y-60387570D01*
X131446743Y-60387568D01*
X131829414Y-60258785D01*
X131829420Y-60258783D01*
X131832126Y-60257872D01*
X132206779Y-60092630D01*
X132564914Y-59894113D01*
X132903583Y-59663954D01*
X133219998Y-59404047D01*
X133222036Y-59402038D01*
X133222043Y-59402031D01*
X133467161Y-59160311D01*
X133511555Y-59116533D01*
X133517261Y-59109781D01*
X133774008Y-58805963D01*
X133774013Y-58805957D01*
X133775854Y-58803778D01*
X134010719Y-58468356D01*
X134214217Y-58113027D01*
X134356815Y-57801567D01*
X134383485Y-57743316D01*
X134383488Y-57743307D01*
X134384674Y-57740718D01*
X134520685Y-57354492D01*
X134621133Y-56957528D01*
X134685189Y-56553095D01*
X134708142Y-56207512D01*
X145389433Y-56207512D01*
X145389662Y-56210357D01*
X145389662Y-56210360D01*
X145417465Y-56555910D01*
X145422273Y-56615668D01*
X145491969Y-57019168D01*
X145597949Y-57414691D01*
X145739340Y-57798980D01*
X145914979Y-58168874D01*
X146032260Y-58367186D01*
X146093473Y-58470691D01*
X146123418Y-58521326D01*
X146362944Y-58853436D01*
X146631584Y-59162471D01*
X146927126Y-59445886D01*
X146929344Y-59447656D01*
X146929349Y-59447661D01*
X147087133Y-59573618D01*
X147247139Y-59701349D01*
X147249520Y-59702919D01*
X147539482Y-59894113D01*
X147588989Y-59926757D01*
X147591519Y-59928113D01*
X147591518Y-59928113D01*
X147898340Y-60092630D01*
X147949860Y-60120255D01*
X148326784Y-60280250D01*
X148329522Y-60281129D01*
X148713931Y-60404549D01*
X148713935Y-60404550D01*
X148716657Y-60405424D01*
X148719447Y-60406048D01*
X148719452Y-60406049D01*
X149113477Y-60494125D01*
X149113488Y-60494127D01*
X149116271Y-60494749D01*
X149522335Y-60547487D01*
X149931509Y-60563206D01*
X149934371Y-60563056D01*
X149934372Y-60563056D01*
X150337566Y-60541926D01*
X150337573Y-60541925D01*
X150340422Y-60541776D01*
X150343245Y-60541369D01*
X150343247Y-60541369D01*
X150742889Y-60483780D01*
X150742896Y-60483779D01*
X150745711Y-60483373D01*
X151144038Y-60388478D01*
X151146736Y-60387570D01*
X151146743Y-60387568D01*
X151529414Y-60258785D01*
X151529420Y-60258783D01*
X151532126Y-60257872D01*
X151906779Y-60092630D01*
X152264914Y-59894113D01*
X152603583Y-59663954D01*
X152919998Y-59404047D01*
X152922036Y-59402038D01*
X152922043Y-59402031D01*
X153167161Y-59160311D01*
X153211555Y-59116533D01*
X153217261Y-59109781D01*
X153474008Y-58805963D01*
X153474013Y-58805957D01*
X153475854Y-58803778D01*
X153710719Y-58468356D01*
X153914217Y-58113027D01*
X154056815Y-57801567D01*
X154083485Y-57743316D01*
X154083488Y-57743307D01*
X154084674Y-57740718D01*
X154220685Y-57354492D01*
X154321133Y-56957528D01*
X154385189Y-56553095D01*
X154412326Y-56144520D01*
X154413316Y-56050000D01*
X154394741Y-55640947D01*
X154339169Y-55235260D01*
X154247057Y-54836280D01*
X154241460Y-54819255D01*
X154120057Y-54450005D01*
X154120054Y-54449998D01*
X154119164Y-54447290D01*
X153956542Y-54071492D01*
X153760529Y-53711980D01*
X153680190Y-53591971D01*
X153534332Y-53374090D01*
X153534324Y-53374079D01*
X153532740Y-53371713D01*
X153275049Y-53053491D01*
X153096382Y-52869763D01*
X152991567Y-52761980D01*
X152991563Y-52761976D01*
X152989577Y-52759934D01*
X152987419Y-52758084D01*
X152987409Y-52758075D01*
X152680849Y-52495321D01*
X152680844Y-52495317D01*
X152678675Y-52493458D01*
X152676344Y-52491801D01*
X152676337Y-52491796D01*
X152470663Y-52345632D01*
X152344900Y-52256257D01*
X152118345Y-52124399D01*
X151993474Y-52051722D01*
X151993469Y-52051719D01*
X151991001Y-52050283D01*
X151756846Y-51941095D01*
X151622487Y-51878442D01*
X151622477Y-51878438D01*
X151619891Y-51877232D01*
X151617194Y-51876261D01*
X151237314Y-51739495D01*
X151237305Y-51739492D01*
X151234624Y-51738527D01*
X150972247Y-51670183D01*
X150841140Y-51636032D01*
X150841134Y-51636031D01*
X150838371Y-51635311D01*
X150434395Y-51568433D01*
X150431552Y-51568224D01*
X150431550Y-51568224D01*
X150028865Y-51538653D01*
X150026019Y-51538444D01*
X149856043Y-51541411D01*
X149619458Y-51545540D01*
X149619453Y-51545540D01*
X149616607Y-51545590D01*
X149613774Y-51545898D01*
X149613770Y-51545898D01*
X149284896Y-51581625D01*
X149209527Y-51589813D01*
X148808130Y-51670749D01*
X148805402Y-51671562D01*
X148805391Y-51671565D01*
X148492867Y-51764733D01*
X148415721Y-51787731D01*
X148413060Y-51788795D01*
X148413058Y-51788796D01*
X148188927Y-51878442D01*
X148035529Y-51939797D01*
X148032982Y-51941095D01*
X147673227Y-52124399D01*
X147673222Y-52124402D01*
X147670684Y-52125695D01*
X147324189Y-52343894D01*
X146998896Y-52592599D01*
X146697483Y-52869763D01*
X146422430Y-53173104D01*
X146176002Y-53500125D01*
X145960227Y-53848135D01*
X145958947Y-53850691D01*
X145958942Y-53850700D01*
X145849635Y-54068982D01*
X145776881Y-54214269D01*
X145775840Y-54216925D01*
X145775837Y-54216932D01*
X145685561Y-54447290D01*
X145627473Y-54595513D01*
X145626681Y-54598240D01*
X145626677Y-54598251D01*
X145556715Y-54839063D01*
X145513233Y-54988729D01*
X145435101Y-55390681D01*
X145393721Y-55798060D01*
X145389433Y-56207512D01*
X134708142Y-56207512D01*
X134712326Y-56144520D01*
X134713316Y-56050000D01*
X134694741Y-55640947D01*
X134639169Y-55235260D01*
X134547057Y-54836280D01*
X134541460Y-54819255D01*
X134420057Y-54450005D01*
X134420054Y-54449998D01*
X134419164Y-54447290D01*
X134256542Y-54071492D01*
X134060529Y-53711980D01*
X133980190Y-53591971D01*
X133834332Y-53374090D01*
X133834324Y-53374079D01*
X133832740Y-53371713D01*
X133575049Y-53053491D01*
X133396382Y-52869763D01*
X133291567Y-52761980D01*
X133291563Y-52761976D01*
X133289577Y-52759934D01*
X133287419Y-52758084D01*
X133287409Y-52758075D01*
X132980849Y-52495321D01*
X132980844Y-52495317D01*
X132978675Y-52493458D01*
X132976344Y-52491801D01*
X132976337Y-52491796D01*
X132770663Y-52345632D01*
X132644900Y-52256257D01*
X132418345Y-52124399D01*
X132293474Y-52051722D01*
X132293469Y-52051719D01*
X132291001Y-52050283D01*
X132056846Y-51941095D01*
X131922487Y-51878442D01*
X131922477Y-51878438D01*
X131919891Y-51877232D01*
X131917194Y-51876261D01*
X131537314Y-51739495D01*
X131537305Y-51739492D01*
X131534624Y-51738527D01*
X131272247Y-51670183D01*
X131141140Y-51636032D01*
X131141134Y-51636031D01*
X131138371Y-51635311D01*
X130734395Y-51568433D01*
X130731552Y-51568224D01*
X130731550Y-51568224D01*
X130328865Y-51538653D01*
X130326019Y-51538444D01*
X130156043Y-51541411D01*
X129919458Y-51545540D01*
X129919453Y-51545540D01*
X129916607Y-51545590D01*
X129913774Y-51545898D01*
X129913770Y-51545898D01*
X129584896Y-51581625D01*
X129509527Y-51589813D01*
X129108130Y-51670749D01*
X129105402Y-51671562D01*
X129105391Y-51671565D01*
X128792867Y-51764733D01*
X128715721Y-51787731D01*
X128713060Y-51788795D01*
X128713058Y-51788796D01*
X128488927Y-51878442D01*
X128335529Y-51939797D01*
X128332982Y-51941095D01*
X127973227Y-52124399D01*
X127973222Y-52124402D01*
X127970684Y-52125695D01*
X127624189Y-52343894D01*
X127298896Y-52592599D01*
X126997483Y-52869763D01*
X126722430Y-53173104D01*
X126476002Y-53500125D01*
X126260227Y-53848135D01*
X126258947Y-53850691D01*
X126258942Y-53850700D01*
X126149635Y-54068982D01*
X126076881Y-54214269D01*
X126075840Y-54216925D01*
X126075837Y-54216932D01*
X125985561Y-54447290D01*
X125927473Y-54595513D01*
X125926681Y-54598240D01*
X125926677Y-54598251D01*
X125856715Y-54839063D01*
X125813233Y-54988729D01*
X125735101Y-55390681D01*
X125693721Y-55798060D01*
X125689433Y-56207512D01*
X120508500Y-56207512D01*
X120508500Y-32634500D01*
X120528502Y-32566379D01*
X120582158Y-32519886D01*
X120634500Y-32508500D01*
X124728254Y-32508500D01*
X124796375Y-32528502D01*
G37*
%TD.AperFunction*%
M02*
