M48
; DRILL file {KiCad 6.0.9+dfsg-1~bpo11+1} date Friday, 13 January, 2023 02:31:35 AM
; FORMAT={-:-/ absolute / inch / decimal}
; #@! TF.CreationDate,2023-01-13T02:31:35+08:00
; #@! TF.GenerationSoftware,Kicad,Pcbnew,6.0.9+dfsg-1~bpo11+1
; #@! TF.FileFunction,Plated,1,2,PTH
FMAT,2
INCH
; #@! TA.AperFunction,Plated,PTH,ViaDrill
T1C0.0157
; #@! TA.AperFunction,Plated,PTH,ComponentDrill
T2C0.0315
; #@! TA.AperFunction,Plated,PTH,ComponentDrill
T3C0.0354
; #@! TA.AperFunction,Plated,PTH,ComponentDrill
T4C0.0394
; #@! TA.AperFunction,Plated,PTH,ComponentDrill
T5C0.0433
; #@! TA.AperFunction,Plated,PTH,ComponentDrill
T6C0.0480
; #@! TA.AperFunction,Plated,PTH,ComponentDrill
T7C0.0559
; #@! TA.AperFunction,Plated,PTH,ComponentDrill
T8C0.0563
%
G90
G05
T1
X3.0276Y-4.6339
X3.0512Y-2.0157
X3.0551Y-2.0551
X3.0591Y-5.3031
X3.063Y-4.6732
X3.0906Y-5.0472
X3.1024Y-2.0236
X3.1063Y-4.7205
X3.1063Y-5.189
X3.1102Y-2.0827
X3.1102Y-5.5709
X3.126Y-3.1417
X3.1299Y-3.9764
X3.1299Y-4.626
X3.1339Y-2.8701
X3.1417Y-3.6142
X3.1496Y-3.2205
X3.1496Y-3.8976
X3.1496Y-4.0551
X3.1535Y-2.0512
X3.1575Y-2.5197
X3.1575Y-2.5827
X3.1614Y-5.1063
X3.1654Y-5.1732
X3.1732Y-2.3858
X3.1732Y-2.6929
X3.1772Y-3.9764
X3.1811Y-4.6614
X3.2047Y-2.7362
X3.2047Y-2.8583
X3.2047Y-4.7323
X3.2126Y-3.9055
X3.2165Y-2.4173
X3.2165Y-2.9016
X3.2165Y-5.0315
X3.2205Y-3.1102
X3.2205Y-3.6772
X3.2244Y-3.185
X3.2323Y-5.6693
X3.2441Y-2.6339
X3.252Y-3.4134
X3.2559Y-3.9646
X3.2559Y-5.7559
X3.2638Y-2.1063
X3.2638Y-3.0433
X3.2638Y-4.6654
X3.2677Y-2.0669
X3.2677Y-2.9409
X3.2717Y-2.5984
X3.2717Y-2.7402
X3.2756Y-2.185
X3.2756Y-5.3031
X3.2795Y-2.3819
X3.2835Y-3.8583
X3.2874Y-3.7441
X3.2874Y-3.9094
X3.2874Y-5.5394
X3.2913Y-3.1299
X3.2913Y-3.185
X3.2953Y-2.8937
X3.2992Y-2.8425
X3.3031Y-2.3465
X3.3071Y-2.9764
X3.3189Y-3.5906
X3.3268Y-3.4961
X3.3307Y-3.4213
X3.3346Y-5.4291
X3.3386Y-2.1181
X3.3425Y-2.6575
X3.3425Y-3.5433
X3.3425Y-5.6535
X3.3465Y-2.0472
X3.3661Y-2.5827
X3.3661Y-3.622
X3.3701Y-4.6496
X3.3858Y-4.7165
X3.4016Y-5.3189
X3.4016Y-5.4173
X3.4055Y-4.4055
X3.4094Y-3.9843
X3.4134Y-3.8661
X3.4134Y-5.7126
X3.4213Y-3.9331
X3.4213Y-5.5039
X3.4252Y-2.9724
X3.4331Y-2.0512
X3.4449Y-2.8701
X3.4449Y-4.3701
X3.4567Y-3.0984
X3.4567Y-3.7205
X3.4646Y-3.9291
X3.4803Y-5.126
X3.4882Y-2.8661
X3.4882Y-4.7283
X3.4961Y-3.9843
X3.5Y-5.1654
X3.5079Y-5.2323
X3.5118Y-3.122
X3.5354Y-2.7638
X3.5512Y-2.8858
X3.5551Y-3.626
X3.5551Y-3.6654
X3.563Y-2.6772
X3.5669Y-4.0787
X3.5748Y-4.7087
X3.5787Y-5.1772
X3.5827Y-3.9961
X3.5984Y-4.7402
X3.6693Y-5.752
X3.685Y-4.7244
X3.7126Y-5.6929
X3.7283Y-4.9488
X3.7402Y-2.311
X3.752Y-3.6024
X3.752Y-5.5551
X3.7598Y-2.3465
X3.7677Y-4.7165
X3.7717Y-5.2835
X3.7795Y-2.4528
X3.7795Y-3.6575
X3.7835Y-4.9213
X3.7835Y-5.4567
X3.7835Y-5.7874
X3.7992Y-3.8307
X3.8071Y-2.2441
X3.815Y-5.0472
X3.8228Y-5.6654
X3.8268Y-5.5118
X3.8307Y-2.3031
X3.8307Y-2.4173
X3.8307Y-3.5433
X3.8346Y-2.5118
X3.8346Y-5.2953
X3.8425Y-3.7244
X3.8465Y-4.8858
X3.8504Y-4.9843
X3.8543Y-3.6378
X3.8622Y-3.3583
X3.8622Y-3.4055
X3.8622Y-4.815
X3.8661Y-3.9173
X3.8898Y-2.5354
X3.8976Y-2.3386
X3.9016Y-4.0197
X3.9252Y-2.437
X3.9252Y-4.2047
X3.9252Y-4.3819
X3.937Y-4.3189
X3.9488Y-2.9882
X3.9528Y-5.5906
X3.9724Y-3.9528
X3.9724Y-4.248
X3.9803Y-3.4173
X3.9803Y-3.4646
X3.9803Y-3.5157
X4.0Y-2.3465
X4.0Y-5.2323
X4.0079Y-3.0236
X4.0079Y-3.0787
X4.0079Y-3.8858
X4.0157Y-2.9724
X4.0551Y-3.7953
X4.0551Y-3.9843
X4.0591Y-3.8386
X4.063Y-5.7283
X4.0669Y-2.3031
X4.0709Y-2.9882
X4.0709Y-3.8937
X4.0787Y-2.2244
X4.0827Y-4.9252
X4.0897Y-3.2806
X4.0984Y-4.8031
X4.1102Y-3.5945
X4.1142Y-4.3661
X4.1142Y-4.8543
X4.1181Y-3.2362
X4.122Y-4.252
X4.1299Y-5.2913
X4.1339Y-5.437
X4.1457Y-5.626
X4.1496Y-5.7756
X4.1811Y-3.685
X4.1969Y-5.7165
X4.2087Y-2.1339
X4.2126Y-2.5906
X4.2165Y-2.3425
X4.2165Y-3.7402
X4.2205Y-2.2283
X4.2205Y-3.5472
X4.2244Y-3.4685
X4.2283Y-2.4055
X4.2323Y-3.6181
X4.2402Y-3.3976
X4.2441Y-3.9016
X4.2441Y-5.5276
X4.2504Y-4.527
X4.252Y-4.4173
X4.2638Y-2.6417
X4.2638Y-4.3543
X4.2677Y-2.9606
X4.2756Y-2.3701
X4.2756Y-3.9646
X4.2795Y-2.4094
X4.2835Y-3.6575
X4.2913Y-3.3504
X4.2913Y-4.4803
X4.2953Y-5.1378
X4.3071Y-3.5079
X4.315Y-2.6339
X4.315Y-3.4055
X4.3189Y-3.937
X4.3189Y-5.563
X4.3268Y-2.9488
X4.3268Y-3.6102
X4.3346Y-2.5669
X4.3346Y-3.4646
X4.3425Y-3.3504
X4.3583Y-5.563
X4.3661Y-2.3465
X4.3858Y-5.1732
X4.3937Y-2.4882
X4.3976Y-2.9646
X4.4055Y-4.4882
X4.4173Y-4.0906
X4.4213Y-4.315
X4.4252Y-2.4961
X4.4291Y-5.0984
X4.4291Y-5.3661
X4.4331Y-2.3425
X4.4331Y-4.4055
X4.437Y-4.1457
X4.437Y-4.2244
X4.4449Y-2.122
X4.4449Y-5.1457
X4.4488Y-5.6772
X4.4685Y-5.3031
X4.4803Y-5.0157
T2
X2.9955Y-4.9321
X2.9967Y-4.3016
X2.9967Y-5.0531
X2.997Y-4.1803
X2.9971Y-5.1732
X3.0077Y-4.422
X3.0142Y-4.5246
X3.0142Y-4.8246
X3.0939Y-4.9321
X3.1382Y-4.527
X3.1382Y-4.827
X3.1443Y-3.3957
X3.1443Y-3.5177
X3.2045Y-4.422
X3.2199Y-4.9341
X3.2382Y-4.527
X3.2382Y-4.827
X3.2967Y-4.3016
X3.2967Y-5.0531
X3.297Y-4.1803
X3.2971Y-5.1732
X3.3132Y-4.4228
X3.3382Y-4.527
X3.3382Y-4.827
X3.3815Y-5.0541
X3.3819Y-5.1732
X3.3825Y-4.1811
X3.3825Y-4.302
X3.4168Y-4.9341
X3.4382Y-4.527
X3.4382Y-4.827
X3.4443Y-3.3957
X3.4443Y-3.5177
X3.51Y-4.4228
X3.5172Y-4.9341
X3.5382Y-4.527
X3.5382Y-4.827
X3.6156Y-4.9341
X3.6191Y-4.4224
X3.6382Y-4.527
X3.6382Y-4.827
X3.6815Y-5.0541
X3.6819Y-5.1732
X3.6825Y-4.1811
X3.6825Y-4.302
X3.7382Y-4.527
X3.7382Y-4.827
X3.753Y-2.6297
X3.7541Y-3.2602
X3.7545Y-3.5059
X3.7549Y-3.3839
X3.7703Y-5.1732
X3.7746Y-2.8543
X3.7746Y-3.1543
X3.7766Y-2.75
X3.7864Y-4.0193
X3.7864Y-4.3193
X3.8159Y-4.4224
X3.8526Y-3.2602
X3.8746Y-2.8543
X3.8746Y-3.1543
X3.875Y-2.75
X3.9715Y-2.748
X3.9746Y-2.8543
X3.9746Y-3.1543
X4.003Y-3.2591
X4.0063Y-4.8661
X4.0063Y-4.9646
X4.0226Y-4.6376
X4.0226Y-4.736
X4.0419Y-4.187
X4.0419Y-4.311
X4.053Y-2.6297
X4.0545Y-3.5059
X4.0549Y-3.3839
X4.0703Y-5.1732
X4.0746Y-2.8543
X4.0746Y-3.1543
X4.1384Y-2.6297
X4.1404Y-3.3839
X4.1404Y-3.5059
X4.1683Y-2.748
X4.1746Y-2.8543
X4.1746Y-3.1543
X4.1998Y-3.2591
X4.2648Y-2.75
X4.2746Y-2.8543
X4.2746Y-3.1543
X4.2963Y-3.2598
X4.3419Y-4.187
X4.3419Y-4.311
X4.3632Y-2.75
X4.3746Y-2.8543
X4.3746Y-3.1543
X4.3947Y-3.2598
X4.4384Y-2.6297
X4.4404Y-3.3839
X4.4404Y-3.5059
T3
X3.9856Y-4.4843
X4.0856Y-4.4843
T4
X3.0497Y-2.1535
X3.0497Y-2.2535
X3.0497Y-2.3535
X3.0497Y-2.4535
X3.0497Y-2.5535
X3.0497Y-2.6535
X3.0497Y-2.7535
X3.0497Y-2.8535
X3.0497Y-2.9535
X3.0497Y-3.0535
X3.0497Y-3.1535
X3.0497Y-3.2535
X3.0497Y-3.3535
X3.0497Y-3.4535
X3.0497Y-3.5535
X3.0497Y-3.6535
X3.0497Y-3.7535
X3.0497Y-3.8535
X3.0497Y-3.9535
X3.0497Y-4.0535
X3.2549Y-2.501
X3.2559Y-3.2904
X3.2559Y-4.0758
X3.3533Y-2.501
X3.3543Y-3.2904
X3.3543Y-4.0758
X3.4518Y-2.501
X3.4528Y-3.2904
X3.4528Y-4.0758
X3.6497Y-2.1535
X3.6497Y-2.2535
X3.6497Y-2.3535
X3.6497Y-2.4535
X3.6497Y-2.5535
X3.6497Y-2.6535
X3.6497Y-2.7535
X3.6497Y-2.8535
X3.6497Y-2.9535
X3.6497Y-3.0535
X3.6497Y-3.1535
X3.6497Y-3.2535
X3.6497Y-3.3535
X3.6497Y-3.4535
X3.6497Y-3.5535
X3.6497Y-3.6535
X3.6497Y-3.7535
X3.6497Y-3.8535
X3.6497Y-3.9535
X3.6497Y-4.0535
X4.0305Y-2.502
X4.0325Y-4.0786
X4.1289Y-2.502
X4.1309Y-4.0786
X4.2274Y-2.502
X4.2293Y-4.0786
X4.2814Y-4.61
X4.2814Y-4.71
X4.2814Y-4.81
X4.2814Y-4.91
X4.2814Y-5.01
X4.3814Y-4.61
X4.3814Y-4.71
X4.3814Y-4.81
X4.3814Y-4.91
X4.3814Y-5.01
T6
X3.1474Y-5.3313
X3.5422Y-5.3313
X3.9368Y-5.3313
X4.3305Y-5.3315
T7
X3.1474Y-5.4533
X3.5422Y-5.4533
X3.9368Y-5.4533
X4.3305Y-5.4535
T8
X3.1474Y-5.7801
X3.5422Y-5.7801
X3.9368Y-5.7801
X4.3305Y-5.7803
T5
G00X3.1644Y-2.2293
M15
G01X3.1644Y-2.1821
M16
G05
G00X3.1654Y-3.0187
M15
G01X3.1654Y-2.9715
M16
G05
G00X3.1654Y-3.8041
M15
G01X3.1654Y-3.7569
M16
G05
G00X3.5423Y-2.2293
M15
G01X3.5423Y-2.1821
M16
G05
G00X3.5433Y-3.0187
M15
G01X3.5433Y-2.9715
M16
G05
G00X3.5433Y-3.8041
M15
G01X3.5433Y-3.7569
M16
G05
G00X3.94Y-2.2303
M15
G01X3.94Y-2.1831
M16
G05
G00X3.9419Y-3.8069
M15
G01X3.9419Y-3.7597
M16
G05
G00X4.3179Y-2.2303
M15
G01X4.3179Y-2.1831
M16
G05
G00X4.3199Y-3.8069
M15
G01X4.3199Y-3.7597
M16
G05
T0
M30
