%TF.GenerationSoftware,KiCad,Pcbnew,6.0.9+dfsg-1~bpo11+1*%
%TF.CreationDate,2023-01-13T02:31:21+08:00*%
%TF.ProjectId,MiniVerb - Front,4d696e69-5665-4726-9220-2d2046726f6e,rev?*%
%TF.SameCoordinates,Original*%
%TF.FileFunction,Legend,Bot*%
%TF.FilePolarity,Positive*%
%FSLAX46Y46*%
G04 Gerber Fmt 4.6, Leading zero omitted, Abs format (unit mm)*
G04 Created by KiCad (PCBNEW 6.0.9+dfsg-1~bpo11+1) date 2023-01-13 02:31:21*
%MOMM*%
%LPD*%
G01*
G04 APERTURE LIST*
%ADD10C,0.150000*%
G04 APERTURE END LIST*
D10*
X121638095Y-132390476D02*
X122438095Y-132390476D01*
X122133333Y-132390476D02*
X122171428Y-132314285D01*
X122171428Y-132161904D01*
X122133333Y-132085714D01*
X122095238Y-132047619D01*
X122019047Y-132009523D01*
X121790476Y-132009523D01*
X121714285Y-132047619D01*
X121676190Y-132085714D01*
X121638095Y-132161904D01*
X121638095Y-132314285D01*
X121676190Y-132390476D01*
X122171428Y-131742857D02*
X121638095Y-131552380D01*
X122171428Y-131361904D02*
X121638095Y-131552380D01*
X121447619Y-131628571D01*
X121409523Y-131666666D01*
X121371428Y-131742857D01*
X121638095Y-130447619D02*
X122438095Y-130447619D01*
X122133333Y-130447619D02*
X122171428Y-130371428D01*
X122171428Y-130219047D01*
X122133333Y-130142857D01*
X122095238Y-130104761D01*
X122019047Y-130066666D01*
X121790476Y-130066666D01*
X121714285Y-130104761D01*
X121676190Y-130142857D01*
X121638095Y-130219047D01*
X121638095Y-130371428D01*
X121676190Y-130447619D01*
X121676190Y-129419047D02*
X121638095Y-129495238D01*
X121638095Y-129647619D01*
X121676190Y-129723809D01*
X121752380Y-129761904D01*
X122057142Y-129761904D01*
X122133333Y-129723809D01*
X122171428Y-129647619D01*
X122171428Y-129495238D01*
X122133333Y-129419047D01*
X122057142Y-129380952D01*
X121980952Y-129380952D01*
X121904761Y-129761904D01*
X122171428Y-129038095D02*
X121638095Y-129038095D01*
X122095238Y-129038095D02*
X122133333Y-129000000D01*
X122171428Y-128923809D01*
X122171428Y-128809523D01*
X122133333Y-128733333D01*
X122057142Y-128695238D01*
X121638095Y-128695238D01*
X122171428Y-128314285D02*
X121485714Y-128314285D01*
X121409523Y-128352380D01*
X121371428Y-128428571D01*
X121371428Y-128466666D01*
X122438095Y-128314285D02*
X122400000Y-128352380D01*
X122361904Y-128314285D01*
X122400000Y-128276190D01*
X122438095Y-128314285D01*
X122361904Y-128314285D01*
X121638095Y-127933333D02*
X122171428Y-127933333D01*
X122438095Y-127933333D02*
X122400000Y-127971428D01*
X122361904Y-127933333D01*
X122400000Y-127895238D01*
X122438095Y-127933333D01*
X122361904Y-127933333D01*
X121638095Y-127209523D02*
X122057142Y-127209523D01*
X122133333Y-127247619D01*
X122171428Y-127323809D01*
X122171428Y-127476190D01*
X122133333Y-127552380D01*
X121676190Y-127209523D02*
X121638095Y-127285714D01*
X121638095Y-127476190D01*
X121676190Y-127552380D01*
X121752380Y-127590476D01*
X121828571Y-127590476D01*
X121904761Y-127552380D01*
X121942857Y-127476190D01*
X121942857Y-127285714D01*
X121980952Y-127209523D01*
X121638095Y-126714285D02*
X121676190Y-126790476D01*
X121714285Y-126828571D01*
X121790476Y-126866666D01*
X122019047Y-126866666D01*
X122095238Y-126828571D01*
X122133333Y-126790476D01*
X122171428Y-126714285D01*
X122171428Y-126600000D01*
X122133333Y-126523809D01*
X122095238Y-126485714D01*
X122019047Y-126447619D01*
X121790476Y-126447619D01*
X121714285Y-126485714D01*
X121676190Y-126523809D01*
X121638095Y-126600000D01*
X121638095Y-126714285D01*
X121638095Y-126104761D02*
X122171428Y-126104761D01*
X122095238Y-126104761D02*
X122133333Y-126066666D01*
X122171428Y-125990476D01*
X122171428Y-125876190D01*
X122133333Y-125800000D01*
X122057142Y-125761904D01*
X121638095Y-125761904D01*
X122057142Y-125761904D02*
X122133333Y-125723809D01*
X122171428Y-125647619D01*
X122171428Y-125533333D01*
X122133333Y-125457142D01*
X122057142Y-125419047D01*
X121638095Y-125419047D01*
X121638095Y-124923809D02*
X121676190Y-125000000D01*
X121714285Y-125038095D01*
X121790476Y-125076190D01*
X122019047Y-125076190D01*
X122095238Y-125038095D01*
X122133333Y-125000000D01*
X122171428Y-124923809D01*
X122171428Y-124809523D01*
X122133333Y-124733333D01*
X122095238Y-124695238D01*
X122019047Y-124657142D01*
X121790476Y-124657142D01*
X121714285Y-124695238D01*
X121676190Y-124733333D01*
X121638095Y-124809523D01*
X121638095Y-124923809D01*
X121638095Y-123971428D02*
X122438095Y-123971428D01*
X121676190Y-123971428D02*
X121638095Y-124047619D01*
X121638095Y-124200000D01*
X121676190Y-124276190D01*
X121714285Y-124314285D01*
X121790476Y-124352380D01*
X122019047Y-124352380D01*
X122095238Y-124314285D01*
X122133333Y-124276190D01*
X122171428Y-124200000D01*
X122171428Y-124047619D01*
X122133333Y-123971428D01*
X122171428Y-123247619D02*
X121638095Y-123247619D01*
X122171428Y-123590476D02*
X121752380Y-123590476D01*
X121676190Y-123552380D01*
X121638095Y-123476190D01*
X121638095Y-123361904D01*
X121676190Y-123285714D01*
X121714285Y-123247619D01*
X121638095Y-122752380D02*
X121676190Y-122828571D01*
X121752380Y-122866666D01*
X122438095Y-122866666D01*
X121638095Y-122104761D02*
X122057142Y-122104761D01*
X122133333Y-122142857D01*
X122171428Y-122219047D01*
X122171428Y-122371428D01*
X122133333Y-122447619D01*
X121676190Y-122104761D02*
X121638095Y-122180952D01*
X121638095Y-122371428D01*
X121676190Y-122447619D01*
X121752380Y-122485714D01*
X121828571Y-122485714D01*
X121904761Y-122447619D01*
X121942857Y-122371428D01*
X121942857Y-122180952D01*
X121980952Y-122104761D01*
X121638095Y-121723809D02*
X122171428Y-121723809D01*
X122019047Y-121723809D02*
X122095238Y-121685714D01*
X122133333Y-121647619D01*
X122171428Y-121571428D01*
X122171428Y-121495238D01*
X123047619Y-131833333D02*
X124047619Y-131833333D01*
X123333333Y-131500000D01*
X124047619Y-131166666D01*
X123047619Y-131166666D01*
X123047619Y-130690476D02*
X123714285Y-130690476D01*
X124047619Y-130690476D02*
X124000000Y-130738095D01*
X123952380Y-130690476D01*
X124000000Y-130642857D01*
X124047619Y-130690476D01*
X123952380Y-130690476D01*
X123714285Y-130214285D02*
X123047619Y-130214285D01*
X123619047Y-130214285D02*
X123666666Y-130166666D01*
X123714285Y-130071428D01*
X123714285Y-129928571D01*
X123666666Y-129833333D01*
X123571428Y-129785714D01*
X123047619Y-129785714D01*
X123047619Y-129309523D02*
X123714285Y-129309523D01*
X124047619Y-129309523D02*
X124000000Y-129357142D01*
X123952380Y-129309523D01*
X124000000Y-129261904D01*
X124047619Y-129309523D01*
X123952380Y-129309523D01*
X124047619Y-128976190D02*
X123047619Y-128642857D01*
X124047619Y-128309523D01*
X123095238Y-127595238D02*
X123047619Y-127690476D01*
X123047619Y-127880952D01*
X123095238Y-127976190D01*
X123190476Y-128023809D01*
X123571428Y-128023809D01*
X123666666Y-127976190D01*
X123714285Y-127880952D01*
X123714285Y-127690476D01*
X123666666Y-127595238D01*
X123571428Y-127547619D01*
X123476190Y-127547619D01*
X123380952Y-128023809D01*
X123047619Y-127119047D02*
X123714285Y-127119047D01*
X123523809Y-127119047D02*
X123619047Y-127071428D01*
X123666666Y-127023809D01*
X123714285Y-126928571D01*
X123714285Y-126833333D01*
X123047619Y-126500000D02*
X124047619Y-126500000D01*
X123666666Y-126500000D02*
X123714285Y-126404761D01*
X123714285Y-126214285D01*
X123666666Y-126119047D01*
X123619047Y-126071428D01*
X123523809Y-126023809D01*
X123238095Y-126023809D01*
X123142857Y-126071428D01*
X123095238Y-126119047D01*
X123047619Y-126214285D01*
X123047619Y-126404761D01*
X123095238Y-126500000D01*
X123714285Y-124928571D02*
X123047619Y-124690476D01*
X123714285Y-124452380D01*
X123047619Y-123547619D02*
X123047619Y-124119047D01*
X123047619Y-123833333D02*
X124047619Y-123833333D01*
X123904761Y-123928571D01*
X123809523Y-124023809D01*
X123761904Y-124119047D01*
X123142857Y-123119047D02*
X123095238Y-123071428D01*
X123047619Y-123119047D01*
X123095238Y-123166666D01*
X123142857Y-123119047D01*
X123047619Y-123119047D01*
X124047619Y-122452380D02*
X124047619Y-122357142D01*
X124000000Y-122261904D01*
X123952380Y-122214285D01*
X123857142Y-122166666D01*
X123666666Y-122119047D01*
X123428571Y-122119047D01*
X123238095Y-122166666D01*
X123142857Y-122214285D01*
X123095238Y-122261904D01*
X123047619Y-122357142D01*
X123047619Y-122452380D01*
X123095238Y-122547619D01*
X123142857Y-122595238D01*
X123238095Y-122642857D01*
X123428571Y-122690476D01*
X123666666Y-122690476D01*
X123857142Y-122642857D01*
X123952380Y-122595238D01*
X124000000Y-122547619D01*
X124047619Y-122452380D01*
M02*
