%TF.GenerationSoftware,KiCad,Pcbnew,6.0.10+dfsg-1~bpo11+1*%
%TF.CreationDate,2023-02-09T22:21:13+08:00*%
%TF.ProjectId,MiniVerb v1.1 - Main,4d696e69-5665-4726-9220-76312e31202d,rev?*%
%TF.SameCoordinates,Original*%
%TF.FileFunction,Soldermask,Top*%
%TF.FilePolarity,Negative*%
%FSLAX46Y46*%
G04 Gerber Fmt 4.6, Leading zero omitted, Abs format (unit mm)*
G04 Created by KiCad (PCBNEW 6.0.10+dfsg-1~bpo11+1) date 2023-02-09 22:21:13*
%MOMM*%
%LPD*%
G01*
G04 APERTURE LIST*
G04 Aperture macros list*
%AMRoundRect*
0 Rectangle with rounded corners*
0 $1 Rounding radius*
0 $2 $3 $4 $5 $6 $7 $8 $9 X,Y pos of 4 corners*
0 Add a 4 corners polygon primitive as box body*
4,1,4,$2,$3,$4,$5,$6,$7,$8,$9,$2,$3,0*
0 Add four circle primitives for the rounded corners*
1,1,$1+$1,$2,$3*
1,1,$1+$1,$4,$5*
1,1,$1+$1,$6,$7*
1,1,$1+$1,$8,$9*
0 Add four rect primitives between the rounded corners*
20,1,$1+$1,$2,$3,$4,$5,0*
20,1,$1+$1,$4,$5,$6,$7,0*
20,1,$1+$1,$6,$7,$8,$9,0*
20,1,$1+$1,$8,$9,$2,$3,0*%
G04 Aperture macros list end*
%ADD10R,1.930000X1.830000*%
%ADD11C,2.130000*%
%ADD12O,2.720000X3.240000*%
%ADD13R,1.800000X1.800000*%
%ADD14C,1.800000*%
%ADD15C,1.600000*%
%ADD16O,1.600000X1.600000*%
%ADD17R,1.600000X1.600000*%
%ADD18RoundRect,0.250000X-0.600000X-0.600000X0.600000X-0.600000X0.600000X0.600000X-0.600000X0.600000X0*%
%ADD19C,1.700000*%
%ADD20R,1.700000X1.700000*%
G04 APERTURE END LIST*
D10*
%TO.C,AUDIO_OUT1*%
X99995000Y-135414000D03*
D11*
X99995000Y-146814000D03*
X99995000Y-138514000D03*
%TD*%
D12*
%TO.C,POT_FBK1*%
X80400000Y-76075000D03*
X90000000Y-76075000D03*
D13*
X82700000Y-83575000D03*
D14*
X85200000Y-83575000D03*
X87700000Y-83575000D03*
%TD*%
D12*
%TO.C,POT_DRY1*%
X89975000Y-56025000D03*
X80375000Y-56025000D03*
D13*
X82675000Y-63525000D03*
D14*
X85175000Y-63525000D03*
X87675000Y-63525000D03*
%TD*%
D15*
%TO.C,R1*%
X87485000Y-86250000D03*
D16*
X79865000Y-86250000D03*
%TD*%
D10*
%TO.C,AUDIO_IN2*%
X89971000Y-135414000D03*
D11*
X89971000Y-146814000D03*
X89971000Y-138514000D03*
%TD*%
D10*
%TO.C,AUDIO_IN1*%
X79945000Y-135414000D03*
D11*
X79945000Y-146814000D03*
X79945000Y-138514000D03*
%TD*%
D12*
%TO.C,POT_WET1*%
X100075000Y-56050000D03*
X109675000Y-56050000D03*
D13*
X102375000Y-63550000D03*
D14*
X104875000Y-63550000D03*
X107375000Y-63550000D03*
%TD*%
D12*
%TO.C,POT_LPF1*%
X90000000Y-96025000D03*
X80400000Y-96025000D03*
D13*
X82700000Y-103525000D03*
D14*
X85200000Y-103525000D03*
X87700000Y-103525000D03*
%TD*%
D10*
%TO.C,AUDIO_OUT2*%
X109995000Y-135420000D03*
D11*
X109995000Y-146820000D03*
X109995000Y-138520000D03*
%TD*%
D12*
%TO.C,POT_MOD1*%
X100125000Y-96096088D03*
X109725000Y-96096088D03*
D13*
X102425000Y-103596088D03*
D14*
X104925000Y-103596088D03*
X107425000Y-103596088D03*
%TD*%
D15*
%TO.C,R16*%
X87485000Y-89350000D03*
D16*
X79865000Y-89350000D03*
%TD*%
D13*
%TO.C,D1*%
X103775000Y-113900000D03*
D14*
X101235000Y-113900000D03*
%TD*%
D15*
%TO.C,R3*%
X95325000Y-66795000D03*
D16*
X102945000Y-66795000D03*
%TD*%
D15*
%TO.C,C3*%
X76395000Y-112320000D03*
X81395000Y-112320000D03*
%TD*%
%TO.C,R14*%
X93535000Y-109270000D03*
D16*
X85915000Y-109270000D03*
%TD*%
D17*
%TO.C,U1*%
X79711088Y-114984903D03*
D16*
X82251088Y-114984903D03*
X84791088Y-114984903D03*
X87331088Y-114984903D03*
X89871088Y-114984903D03*
X92411088Y-114984903D03*
X94951088Y-114984903D03*
X94951088Y-122604903D03*
X92411088Y-122604903D03*
X89871088Y-122604903D03*
X87331088Y-122604903D03*
X84791088Y-122604903D03*
X82251088Y-122604903D03*
X79711088Y-122604903D03*
%TD*%
D15*
%TO.C,C14*%
X106675000Y-82780000D03*
X101675000Y-82780000D03*
%TD*%
%TO.C,R6*%
X102985000Y-89050000D03*
D16*
X95365000Y-89050000D03*
%TD*%
D15*
%TO.C,C5*%
X91836088Y-125324903D03*
X89336088Y-125324903D03*
%TD*%
%TO.C,R5*%
X76561088Y-114924903D03*
D16*
X76561088Y-122544903D03*
%TD*%
D15*
%TO.C,R12*%
X93511088Y-128374903D03*
D16*
X85891088Y-128374903D03*
%TD*%
D15*
%TO.C,R8*%
X95375000Y-85950000D03*
D16*
X102995000Y-85950000D03*
%TD*%
D15*
%TO.C,C8*%
X111625000Y-82800000D03*
X109125000Y-82800000D03*
%TD*%
%TO.C,R10*%
X83745000Y-106180000D03*
D16*
X76125000Y-106180000D03*
%TD*%
D15*
%TO.C,C2*%
X76086088Y-125274903D03*
X78586088Y-125274903D03*
%TD*%
%TO.C,R13*%
X96175000Y-109710000D03*
D16*
X96175000Y-102090000D03*
%TD*%
D15*
%TO.C,R15*%
X85915000Y-106200000D03*
D16*
X93535000Y-106200000D03*
%TD*%
D15*
%TO.C,R4*%
X76116088Y-128349903D03*
D16*
X83736088Y-128349903D03*
%TD*%
D15*
%TO.C,R7*%
X76115000Y-109260000D03*
D16*
X83735000Y-109260000D03*
%TD*%
D15*
%TO.C,R9*%
X103385000Y-131400000D03*
D16*
X95765000Y-131400000D03*
%TD*%
D17*
%TO.C,C9*%
X102175000Y-117794888D03*
D15*
X102175000Y-120294888D03*
%TD*%
%TO.C,R21*%
X102665000Y-109500000D03*
D16*
X110285000Y-109500000D03*
%TD*%
D15*
%TO.C,R19*%
X112785000Y-85950000D03*
D16*
X105165000Y-85950000D03*
%TD*%
D15*
%TO.C,C6*%
X96925000Y-112330000D03*
X91925000Y-112330000D03*
%TD*%
%TO.C,R17*%
X112735000Y-66795000D03*
D16*
X105115000Y-66795000D03*
%TD*%
D15*
%TO.C,R11*%
X85901088Y-131399903D03*
D16*
X93521088Y-131399903D03*
%TD*%
D15*
%TO.C,R20*%
X110285000Y-106350000D03*
D16*
X102665000Y-106350000D03*
%TD*%
D17*
%TO.C,C10*%
X101759000Y-123600000D03*
D15*
X101759000Y-126100000D03*
%TD*%
%TO.C,C13*%
X100875000Y-69800000D03*
X105875000Y-69800000D03*
%TD*%
D17*
%TO.C,U2*%
X95875000Y-72500000D03*
D16*
X98415000Y-72500000D03*
X100955000Y-72500000D03*
X103495000Y-72500000D03*
X106035000Y-72500000D03*
X108575000Y-72500000D03*
X111115000Y-72500000D03*
X111115000Y-80120000D03*
X108575000Y-80120000D03*
X106035000Y-80120000D03*
X103495000Y-80120000D03*
X100955000Y-80120000D03*
X98415000Y-80120000D03*
X95875000Y-80120000D03*
%TD*%
D18*
%TO.C,J1*%
X108747500Y-127255000D03*
D19*
X111287500Y-127255000D03*
X108747500Y-124715000D03*
X111287500Y-124715000D03*
X108747500Y-122175000D03*
X111287500Y-122175000D03*
X108747500Y-119635000D03*
X111287500Y-119635000D03*
X108747500Y-117095000D03*
X111287500Y-117095000D03*
%TD*%
D15*
%TO.C,C11*%
X89155000Y-112340000D03*
X84155000Y-112340000D03*
%TD*%
%TO.C,C4*%
X95355000Y-82810000D03*
X97855000Y-82810000D03*
%TD*%
%TO.C,C12*%
X81786088Y-125324903D03*
X86786088Y-125324903D03*
%TD*%
%TO.C,C7*%
X110825000Y-69850000D03*
X108325000Y-69850000D03*
%TD*%
D20*
%TO.C,A1*%
X92702500Y-54700000D03*
D19*
X92702500Y-57240000D03*
X92702500Y-59780000D03*
X92702500Y-62320000D03*
X92702500Y-64860000D03*
X92702500Y-67400000D03*
X92702500Y-69940000D03*
X92702500Y-72480000D03*
X92702500Y-75020000D03*
X92702500Y-77560000D03*
X92702500Y-80100000D03*
X92702500Y-82640000D03*
X92702500Y-85180000D03*
X92702500Y-87720000D03*
X92702500Y-90260000D03*
X92702500Y-92800000D03*
X92702500Y-95340000D03*
X92702500Y-97880000D03*
X92702500Y-100420000D03*
X92702500Y-102960000D03*
X77462500Y-102960000D03*
X77462500Y-100420000D03*
X77462500Y-97880000D03*
X77462500Y-95340000D03*
X77462500Y-92800000D03*
X77462500Y-90260000D03*
X77462500Y-87720000D03*
X77462500Y-85180000D03*
X77462500Y-82640000D03*
X77462500Y-80100000D03*
X77462500Y-77560000D03*
X77462500Y-75020000D03*
X77462500Y-72480000D03*
X77462500Y-69940000D03*
X77462500Y-67400000D03*
X77462500Y-64860000D03*
X77462500Y-62320000D03*
X77462500Y-59780000D03*
X77462500Y-57240000D03*
X77462500Y-54700000D03*
%TD*%
D15*
%TO.C,R18*%
X105165000Y-89050000D03*
D16*
X112785000Y-89050000D03*
%TD*%
D15*
%TO.C,R2*%
X83746088Y-131399903D03*
D16*
X76126088Y-131399903D03*
%TD*%
D15*
%TO.C,C1*%
X95925000Y-69850000D03*
X98425000Y-69850000D03*
%TD*%
M02*
