%TF.GenerationSoftware,KiCad,Pcbnew,6.0.10+dfsg-1~bpo11+1*%
%TF.CreationDate,2023-02-09T22:21:13+08:00*%
%TF.ProjectId,MiniVerb v1.1 - Main,4d696e69-5665-4726-9220-76312e31202d,rev?*%
%TF.SameCoordinates,Original*%
%TF.FileFunction,Legend,Top*%
%TF.FilePolarity,Positive*%
%FSLAX46Y46*%
G04 Gerber Fmt 4.6, Leading zero omitted, Abs format (unit mm)*
G04 Created by KiCad (PCBNEW 6.0.10+dfsg-1~bpo11+1) date 2023-02-09 22:21:13*
%MOMM*%
%LPD*%
G01*
G04 APERTURE LIST*
%ADD10C,0.150000*%
%ADD11C,0.120000*%
G04 APERTURE END LIST*
D10*
X112742380Y-102803333D02*
X111742380Y-102803333D01*
X112456666Y-102470000D01*
X111742380Y-102136666D01*
X112742380Y-102136666D01*
X112742380Y-101660476D02*
X112075714Y-101660476D01*
X111742380Y-101660476D02*
X111790000Y-101708095D01*
X111837619Y-101660476D01*
X111790000Y-101612857D01*
X111742380Y-101660476D01*
X111837619Y-101660476D01*
X112075714Y-101184285D02*
X112742380Y-101184285D01*
X112170952Y-101184285D02*
X112123333Y-101136666D01*
X112075714Y-101041428D01*
X112075714Y-100898571D01*
X112123333Y-100803333D01*
X112218571Y-100755714D01*
X112742380Y-100755714D01*
X112742380Y-100279523D02*
X112075714Y-100279523D01*
X111742380Y-100279523D02*
X111790000Y-100327142D01*
X111837619Y-100279523D01*
X111790000Y-100231904D01*
X111742380Y-100279523D01*
X111837619Y-100279523D01*
X111742380Y-99946190D02*
X112742380Y-99612857D01*
X111742380Y-99279523D01*
X112694761Y-98565238D02*
X112742380Y-98660476D01*
X112742380Y-98850952D01*
X112694761Y-98946190D01*
X112599523Y-98993809D01*
X112218571Y-98993809D01*
X112123333Y-98946190D01*
X112075714Y-98850952D01*
X112075714Y-98660476D01*
X112123333Y-98565238D01*
X112218571Y-98517619D01*
X112313809Y-98517619D01*
X112409047Y-98993809D01*
X112742380Y-98089047D02*
X112075714Y-98089047D01*
X112266190Y-98089047D02*
X112170952Y-98041428D01*
X112123333Y-97993809D01*
X112075714Y-97898571D01*
X112075714Y-97803333D01*
X112742380Y-97470000D02*
X111742380Y-97470000D01*
X112123333Y-97470000D02*
X112075714Y-97374761D01*
X112075714Y-97184285D01*
X112123333Y-97089047D01*
X112170952Y-97041428D01*
X112266190Y-96993809D01*
X112551904Y-96993809D01*
X112647142Y-97041428D01*
X112694761Y-97089047D01*
X112742380Y-97184285D01*
X112742380Y-97374761D01*
X112694761Y-97470000D01*
X112075714Y-95898571D02*
X112742380Y-95660476D01*
X112075714Y-95422380D01*
X112742380Y-94517619D02*
X112742380Y-95089047D01*
X112742380Y-94803333D02*
X111742380Y-94803333D01*
X111885238Y-94898571D01*
X111980476Y-94993809D01*
X112028095Y-95089047D01*
X112647142Y-94089047D02*
X112694761Y-94041428D01*
X112742380Y-94089047D01*
X112694761Y-94136666D01*
X112647142Y-94089047D01*
X112742380Y-94089047D01*
X112742380Y-93089047D02*
X112742380Y-93660476D01*
X112742380Y-93374761D02*
X111742380Y-93374761D01*
X111885238Y-93470000D01*
X111980476Y-93565238D01*
X112028095Y-93660476D01*
X113851904Y-102800476D02*
X113051904Y-102800476D01*
X113356666Y-102800476D02*
X113318571Y-102724285D01*
X113318571Y-102571904D01*
X113356666Y-102495714D01*
X113394761Y-102457619D01*
X113470952Y-102419523D01*
X113699523Y-102419523D01*
X113775714Y-102457619D01*
X113813809Y-102495714D01*
X113851904Y-102571904D01*
X113851904Y-102724285D01*
X113813809Y-102800476D01*
X113318571Y-102152857D02*
X113851904Y-101962380D01*
X113318571Y-101771904D02*
X113851904Y-101962380D01*
X114042380Y-102038571D01*
X114080476Y-102076666D01*
X114118571Y-102152857D01*
X113851904Y-100857619D02*
X113051904Y-100857619D01*
X113356666Y-100857619D02*
X113318571Y-100781428D01*
X113318571Y-100629047D01*
X113356666Y-100552857D01*
X113394761Y-100514761D01*
X113470952Y-100476666D01*
X113699523Y-100476666D01*
X113775714Y-100514761D01*
X113813809Y-100552857D01*
X113851904Y-100629047D01*
X113851904Y-100781428D01*
X113813809Y-100857619D01*
X113813809Y-99829047D02*
X113851904Y-99905238D01*
X113851904Y-100057619D01*
X113813809Y-100133809D01*
X113737619Y-100171904D01*
X113432857Y-100171904D01*
X113356666Y-100133809D01*
X113318571Y-100057619D01*
X113318571Y-99905238D01*
X113356666Y-99829047D01*
X113432857Y-99790952D01*
X113509047Y-99790952D01*
X113585238Y-100171904D01*
X113318571Y-99448095D02*
X113851904Y-99448095D01*
X113394761Y-99448095D02*
X113356666Y-99410000D01*
X113318571Y-99333809D01*
X113318571Y-99219523D01*
X113356666Y-99143333D01*
X113432857Y-99105238D01*
X113851904Y-99105238D01*
X113318571Y-98724285D02*
X114004285Y-98724285D01*
X114080476Y-98762380D01*
X114118571Y-98838571D01*
X114118571Y-98876666D01*
X113051904Y-98724285D02*
X113090000Y-98762380D01*
X113128095Y-98724285D01*
X113090000Y-98686190D01*
X113051904Y-98724285D01*
X113128095Y-98724285D01*
X113851904Y-98343333D02*
X113318571Y-98343333D01*
X113051904Y-98343333D02*
X113090000Y-98381428D01*
X113128095Y-98343333D01*
X113090000Y-98305238D01*
X113051904Y-98343333D01*
X113128095Y-98343333D01*
X113851904Y-97619523D02*
X113432857Y-97619523D01*
X113356666Y-97657619D01*
X113318571Y-97733809D01*
X113318571Y-97886190D01*
X113356666Y-97962380D01*
X113813809Y-97619523D02*
X113851904Y-97695714D01*
X113851904Y-97886190D01*
X113813809Y-97962380D01*
X113737619Y-98000476D01*
X113661428Y-98000476D01*
X113585238Y-97962380D01*
X113547142Y-97886190D01*
X113547142Y-97695714D01*
X113509047Y-97619523D01*
X113851904Y-97124285D02*
X113813809Y-97200476D01*
X113775714Y-97238571D01*
X113699523Y-97276666D01*
X113470952Y-97276666D01*
X113394761Y-97238571D01*
X113356666Y-97200476D01*
X113318571Y-97124285D01*
X113318571Y-97010000D01*
X113356666Y-96933809D01*
X113394761Y-96895714D01*
X113470952Y-96857619D01*
X113699523Y-96857619D01*
X113775714Y-96895714D01*
X113813809Y-96933809D01*
X113851904Y-97010000D01*
X113851904Y-97124285D01*
X113851904Y-96514761D02*
X113318571Y-96514761D01*
X113394761Y-96514761D02*
X113356666Y-96476666D01*
X113318571Y-96400476D01*
X113318571Y-96286190D01*
X113356666Y-96210000D01*
X113432857Y-96171904D01*
X113851904Y-96171904D01*
X113432857Y-96171904D02*
X113356666Y-96133809D01*
X113318571Y-96057619D01*
X113318571Y-95943333D01*
X113356666Y-95867142D01*
X113432857Y-95829047D01*
X113851904Y-95829047D01*
X113851904Y-95333809D02*
X113813809Y-95410000D01*
X113775714Y-95448095D01*
X113699523Y-95486190D01*
X113470952Y-95486190D01*
X113394761Y-95448095D01*
X113356666Y-95410000D01*
X113318571Y-95333809D01*
X113318571Y-95219523D01*
X113356666Y-95143333D01*
X113394761Y-95105238D01*
X113470952Y-95067142D01*
X113699523Y-95067142D01*
X113775714Y-95105238D01*
X113813809Y-95143333D01*
X113851904Y-95219523D01*
X113851904Y-95333809D01*
X113851904Y-94381428D02*
X113051904Y-94381428D01*
X113813809Y-94381428D02*
X113851904Y-94457619D01*
X113851904Y-94610000D01*
X113813809Y-94686190D01*
X113775714Y-94724285D01*
X113699523Y-94762380D01*
X113470952Y-94762380D01*
X113394761Y-94724285D01*
X113356666Y-94686190D01*
X113318571Y-94610000D01*
X113318571Y-94457619D01*
X113356666Y-94381428D01*
X113318571Y-93657619D02*
X113851904Y-93657619D01*
X113318571Y-94000476D02*
X113737619Y-94000476D01*
X113813809Y-93962380D01*
X113851904Y-93886190D01*
X113851904Y-93771904D01*
X113813809Y-93695714D01*
X113775714Y-93657619D01*
X113851904Y-93162380D02*
X113813809Y-93238571D01*
X113737619Y-93276666D01*
X113051904Y-93276666D01*
X113851904Y-92514761D02*
X113432857Y-92514761D01*
X113356666Y-92552857D01*
X113318571Y-92629047D01*
X113318571Y-92781428D01*
X113356666Y-92857619D01*
X113813809Y-92514761D02*
X113851904Y-92590952D01*
X113851904Y-92781428D01*
X113813809Y-92857619D01*
X113737619Y-92895714D01*
X113661428Y-92895714D01*
X113585238Y-92857619D01*
X113547142Y-92781428D01*
X113547142Y-92590952D01*
X113509047Y-92514761D01*
X113851904Y-92133809D02*
X113318571Y-92133809D01*
X113470952Y-92133809D02*
X113394761Y-92095714D01*
X113356666Y-92057619D01*
X113318571Y-91981428D01*
X113318571Y-91905238D01*
%TO.C,AUDIO_OUT1*%
X95660379Y-143569578D02*
X96136569Y-143569578D01*
X95565141Y-143855292D02*
X95898474Y-142855292D01*
X96231807Y-143855292D01*
X96565141Y-142855292D02*
X96565141Y-143664816D01*
X96612760Y-143760054D01*
X96660379Y-143807673D01*
X96755617Y-143855292D01*
X96946093Y-143855292D01*
X97041331Y-143807673D01*
X97088950Y-143760054D01*
X97136569Y-143664816D01*
X97136569Y-142855292D01*
X97612760Y-143855292D02*
X97612760Y-142855292D01*
X97850855Y-142855292D01*
X97993712Y-142902912D01*
X98088950Y-142998150D01*
X98136569Y-143093388D01*
X98184188Y-143283864D01*
X98184188Y-143426721D01*
X98136569Y-143617197D01*
X98088950Y-143712435D01*
X97993712Y-143807673D01*
X97850855Y-143855292D01*
X97612760Y-143855292D01*
X98612760Y-143855292D02*
X98612760Y-142855292D01*
X99279426Y-142855292D02*
X99469903Y-142855292D01*
X99565141Y-142902912D01*
X99660379Y-142998150D01*
X99707998Y-143188626D01*
X99707998Y-143521959D01*
X99660379Y-143712435D01*
X99565141Y-143807673D01*
X99469903Y-143855292D01*
X99279426Y-143855292D01*
X99184188Y-143807673D01*
X99088950Y-143712435D01*
X99041331Y-143521959D01*
X99041331Y-143188626D01*
X99088950Y-142998150D01*
X99184188Y-142902912D01*
X99279426Y-142855292D01*
X99898474Y-143950531D02*
X100660379Y-143950531D01*
X101088950Y-142855292D02*
X101279426Y-142855292D01*
X101374664Y-142902912D01*
X101469903Y-142998150D01*
X101517522Y-143188626D01*
X101517522Y-143521959D01*
X101469903Y-143712435D01*
X101374664Y-143807673D01*
X101279426Y-143855292D01*
X101088950Y-143855292D01*
X100993712Y-143807673D01*
X100898474Y-143712435D01*
X100850855Y-143521959D01*
X100850855Y-143188626D01*
X100898474Y-142998150D01*
X100993712Y-142902912D01*
X101088950Y-142855292D01*
X101946093Y-142855292D02*
X101946093Y-143664816D01*
X101993712Y-143760054D01*
X102041331Y-143807673D01*
X102136569Y-143855292D01*
X102327045Y-143855292D01*
X102422283Y-143807673D01*
X102469903Y-143760054D01*
X102517522Y-143664816D01*
X102517522Y-142855292D01*
X102850855Y-142855292D02*
X103422283Y-142855292D01*
X103136569Y-143855292D02*
X103136569Y-142855292D01*
X104279426Y-143855292D02*
X103707998Y-143855292D01*
X103993712Y-143855292D02*
X103993712Y-142855292D01*
X103898474Y-142998150D01*
X103803236Y-143093388D01*
X103707998Y-143141007D01*
%TO.C,POT_FBK1*%
X81997619Y-72502380D02*
X81997619Y-71502380D01*
X82378571Y-71502380D01*
X82473809Y-71550000D01*
X82521428Y-71597619D01*
X82569047Y-71692857D01*
X82569047Y-71835714D01*
X82521428Y-71930952D01*
X82473809Y-71978571D01*
X82378571Y-72026190D01*
X81997619Y-72026190D01*
X83188095Y-71502380D02*
X83378571Y-71502380D01*
X83473809Y-71550000D01*
X83569047Y-71645238D01*
X83616666Y-71835714D01*
X83616666Y-72169047D01*
X83569047Y-72359523D01*
X83473809Y-72454761D01*
X83378571Y-72502380D01*
X83188095Y-72502380D01*
X83092857Y-72454761D01*
X82997619Y-72359523D01*
X82950000Y-72169047D01*
X82950000Y-71835714D01*
X82997619Y-71645238D01*
X83092857Y-71550000D01*
X83188095Y-71502380D01*
X83902380Y-71502380D02*
X84473809Y-71502380D01*
X84188095Y-72502380D02*
X84188095Y-71502380D01*
X84569047Y-72597619D02*
X85330952Y-72597619D01*
X85902380Y-71978571D02*
X85569047Y-71978571D01*
X85569047Y-72502380D02*
X85569047Y-71502380D01*
X86045238Y-71502380D01*
X86759523Y-71978571D02*
X86902380Y-72026190D01*
X86950000Y-72073809D01*
X86997619Y-72169047D01*
X86997619Y-72311904D01*
X86950000Y-72407142D01*
X86902380Y-72454761D01*
X86807142Y-72502380D01*
X86426190Y-72502380D01*
X86426190Y-71502380D01*
X86759523Y-71502380D01*
X86854761Y-71550000D01*
X86902380Y-71597619D01*
X86950000Y-71692857D01*
X86950000Y-71788095D01*
X86902380Y-71883333D01*
X86854761Y-71930952D01*
X86759523Y-71978571D01*
X86426190Y-71978571D01*
X87426190Y-72502380D02*
X87426190Y-71502380D01*
X87997619Y-72502380D02*
X87569047Y-71930952D01*
X87997619Y-71502380D02*
X87426190Y-72073809D01*
X88950000Y-72502380D02*
X88378571Y-72502380D01*
X88664285Y-72502380D02*
X88664285Y-71502380D01*
X88569047Y-71645238D01*
X88473809Y-71740476D01*
X88378571Y-71788095D01*
X79528571Y-82255952D02*
X79576190Y-82113095D01*
X79623809Y-82065476D01*
X79719047Y-82017857D01*
X79861904Y-82017857D01*
X79957142Y-82065476D01*
X80004761Y-82113095D01*
X80052380Y-82208333D01*
X80052380Y-82589285D01*
X79052380Y-82589285D01*
X79052380Y-82255952D01*
X79100000Y-82160714D01*
X79147619Y-82113095D01*
X79242857Y-82065476D01*
X79338095Y-82065476D01*
X79433333Y-82113095D01*
X79480952Y-82160714D01*
X79528571Y-82255952D01*
X79528571Y-82589285D01*
X80052380Y-81065476D02*
X80052380Y-81636904D01*
X80052380Y-81351190D02*
X79052380Y-81351190D01*
X79195238Y-81446428D01*
X79290476Y-81541666D01*
X79338095Y-81636904D01*
X79052380Y-80446428D02*
X79052380Y-80351190D01*
X79100000Y-80255952D01*
X79147619Y-80208333D01*
X79242857Y-80160714D01*
X79433333Y-80113095D01*
X79671428Y-80113095D01*
X79861904Y-80160714D01*
X79957142Y-80208333D01*
X80004761Y-80255952D01*
X80052380Y-80351190D01*
X80052380Y-80446428D01*
X80004761Y-80541666D01*
X79957142Y-80589285D01*
X79861904Y-80636904D01*
X79671428Y-80684523D01*
X79433333Y-80684523D01*
X79242857Y-80636904D01*
X79147619Y-80589285D01*
X79100000Y-80541666D01*
X79052380Y-80446428D01*
X80052380Y-79684523D02*
X79052380Y-79684523D01*
X80052380Y-79113095D02*
X79480952Y-79541666D01*
X79052380Y-79113095D02*
X79623809Y-79684523D01*
%TO.C,POT_DRY1*%
X81802619Y-53072380D02*
X81802619Y-52072380D01*
X82183571Y-52072380D01*
X82278809Y-52120000D01*
X82326428Y-52167619D01*
X82374047Y-52262857D01*
X82374047Y-52405714D01*
X82326428Y-52500952D01*
X82278809Y-52548571D01*
X82183571Y-52596190D01*
X81802619Y-52596190D01*
X82993095Y-52072380D02*
X83183571Y-52072380D01*
X83278809Y-52120000D01*
X83374047Y-52215238D01*
X83421666Y-52405714D01*
X83421666Y-52739047D01*
X83374047Y-52929523D01*
X83278809Y-53024761D01*
X83183571Y-53072380D01*
X82993095Y-53072380D01*
X82897857Y-53024761D01*
X82802619Y-52929523D01*
X82755000Y-52739047D01*
X82755000Y-52405714D01*
X82802619Y-52215238D01*
X82897857Y-52120000D01*
X82993095Y-52072380D01*
X83707380Y-52072380D02*
X84278809Y-52072380D01*
X83993095Y-53072380D02*
X83993095Y-52072380D01*
X84374047Y-53167619D02*
X85135952Y-53167619D01*
X85374047Y-53072380D02*
X85374047Y-52072380D01*
X85612142Y-52072380D01*
X85755000Y-52120000D01*
X85850238Y-52215238D01*
X85897857Y-52310476D01*
X85945476Y-52500952D01*
X85945476Y-52643809D01*
X85897857Y-52834285D01*
X85850238Y-52929523D01*
X85755000Y-53024761D01*
X85612142Y-53072380D01*
X85374047Y-53072380D01*
X86945476Y-53072380D02*
X86612142Y-52596190D01*
X86374047Y-53072380D02*
X86374047Y-52072380D01*
X86755000Y-52072380D01*
X86850238Y-52120000D01*
X86897857Y-52167619D01*
X86945476Y-52262857D01*
X86945476Y-52405714D01*
X86897857Y-52500952D01*
X86850238Y-52548571D01*
X86755000Y-52596190D01*
X86374047Y-52596190D01*
X87564523Y-52596190D02*
X87564523Y-53072380D01*
X87231190Y-52072380D02*
X87564523Y-52596190D01*
X87897857Y-52072380D01*
X88755000Y-53072380D02*
X88183571Y-53072380D01*
X88469285Y-53072380D02*
X88469285Y-52072380D01*
X88374047Y-52215238D01*
X88278809Y-52310476D01*
X88183571Y-52358095D01*
X79453571Y-62055952D02*
X79501190Y-61913095D01*
X79548809Y-61865476D01*
X79644047Y-61817857D01*
X79786904Y-61817857D01*
X79882142Y-61865476D01*
X79929761Y-61913095D01*
X79977380Y-62008333D01*
X79977380Y-62389285D01*
X78977380Y-62389285D01*
X78977380Y-62055952D01*
X79025000Y-61960714D01*
X79072619Y-61913095D01*
X79167857Y-61865476D01*
X79263095Y-61865476D01*
X79358333Y-61913095D01*
X79405952Y-61960714D01*
X79453571Y-62055952D01*
X79453571Y-62389285D01*
X79977380Y-60865476D02*
X79977380Y-61436904D01*
X79977380Y-61151190D02*
X78977380Y-61151190D01*
X79120238Y-61246428D01*
X79215476Y-61341666D01*
X79263095Y-61436904D01*
X78977380Y-60246428D02*
X78977380Y-60151190D01*
X79025000Y-60055952D01*
X79072619Y-60008333D01*
X79167857Y-59960714D01*
X79358333Y-59913095D01*
X79596428Y-59913095D01*
X79786904Y-59960714D01*
X79882142Y-60008333D01*
X79929761Y-60055952D01*
X79977380Y-60151190D01*
X79977380Y-60246428D01*
X79929761Y-60341666D01*
X79882142Y-60389285D01*
X79786904Y-60436904D01*
X79596428Y-60484523D01*
X79358333Y-60484523D01*
X79167857Y-60436904D01*
X79072619Y-60389285D01*
X79025000Y-60341666D01*
X78977380Y-60246428D01*
X79977380Y-59484523D02*
X78977380Y-59484523D01*
X79977380Y-58913095D02*
X79405952Y-59341666D01*
X78977380Y-58913095D02*
X79548809Y-59484523D01*
%TO.C,R1*%
X83004761Y-86702380D02*
X82433333Y-86702380D01*
X82719047Y-86702380D02*
X82719047Y-85702380D01*
X82623809Y-85845238D01*
X82528571Y-85940476D01*
X82433333Y-85988095D01*
X83623809Y-85702380D02*
X83719047Y-85702380D01*
X83814285Y-85750000D01*
X83861904Y-85797619D01*
X83909523Y-85892857D01*
X83957142Y-86083333D01*
X83957142Y-86321428D01*
X83909523Y-86511904D01*
X83861904Y-86607142D01*
X83814285Y-86654761D01*
X83719047Y-86702380D01*
X83623809Y-86702380D01*
X83528571Y-86654761D01*
X83480952Y-86607142D01*
X83433333Y-86511904D01*
X83385714Y-86321428D01*
X83385714Y-86083333D01*
X83433333Y-85892857D01*
X83480952Y-85797619D01*
X83528571Y-85750000D01*
X83623809Y-85702380D01*
X84385714Y-86702380D02*
X84385714Y-85702380D01*
X84480952Y-86321428D02*
X84766666Y-86702380D01*
X84766666Y-86035714D02*
X84385714Y-86416666D01*
%TO.C,AUDIO_IN2*%
X86332142Y-143569578D02*
X86808333Y-143569578D01*
X86236904Y-143855292D02*
X86570238Y-142855292D01*
X86903571Y-143855292D01*
X87236904Y-142855292D02*
X87236904Y-143664816D01*
X87284523Y-143760054D01*
X87332142Y-143807673D01*
X87427380Y-143855292D01*
X87617857Y-143855292D01*
X87713095Y-143807673D01*
X87760714Y-143760054D01*
X87808333Y-143664816D01*
X87808333Y-142855292D01*
X88284523Y-143855292D02*
X88284523Y-142855292D01*
X88522619Y-142855292D01*
X88665476Y-142902912D01*
X88760714Y-142998150D01*
X88808333Y-143093388D01*
X88855952Y-143283864D01*
X88855952Y-143426721D01*
X88808333Y-143617197D01*
X88760714Y-143712435D01*
X88665476Y-143807673D01*
X88522619Y-143855292D01*
X88284523Y-143855292D01*
X89284523Y-143855292D02*
X89284523Y-142855292D01*
X89951190Y-142855292D02*
X90141666Y-142855292D01*
X90236904Y-142902912D01*
X90332142Y-142998150D01*
X90379761Y-143188626D01*
X90379761Y-143521959D01*
X90332142Y-143712435D01*
X90236904Y-143807673D01*
X90141666Y-143855292D01*
X89951190Y-143855292D01*
X89855952Y-143807673D01*
X89760714Y-143712435D01*
X89713095Y-143521959D01*
X89713095Y-143188626D01*
X89760714Y-142998150D01*
X89855952Y-142902912D01*
X89951190Y-142855292D01*
X90570238Y-143950531D02*
X91332142Y-143950531D01*
X91570238Y-143855292D02*
X91570238Y-142855292D01*
X92046428Y-143855292D02*
X92046428Y-142855292D01*
X92617857Y-143855292D01*
X92617857Y-142855292D01*
X93046428Y-142950531D02*
X93094047Y-142902912D01*
X93189285Y-142855292D01*
X93427380Y-142855292D01*
X93522619Y-142902912D01*
X93570238Y-142950531D01*
X93617857Y-143045769D01*
X93617857Y-143141007D01*
X93570238Y-143283864D01*
X92998809Y-143855292D01*
X93617857Y-143855292D01*
%TO.C,AUDIO_IN1*%
X76357142Y-143566666D02*
X76833333Y-143566666D01*
X76261904Y-143852380D02*
X76595238Y-142852380D01*
X76928571Y-143852380D01*
X77261904Y-142852380D02*
X77261904Y-143661904D01*
X77309523Y-143757142D01*
X77357142Y-143804761D01*
X77452380Y-143852380D01*
X77642857Y-143852380D01*
X77738095Y-143804761D01*
X77785714Y-143757142D01*
X77833333Y-143661904D01*
X77833333Y-142852380D01*
X78309523Y-143852380D02*
X78309523Y-142852380D01*
X78547619Y-142852380D01*
X78690476Y-142900000D01*
X78785714Y-142995238D01*
X78833333Y-143090476D01*
X78880952Y-143280952D01*
X78880952Y-143423809D01*
X78833333Y-143614285D01*
X78785714Y-143709523D01*
X78690476Y-143804761D01*
X78547619Y-143852380D01*
X78309523Y-143852380D01*
X79309523Y-143852380D02*
X79309523Y-142852380D01*
X79976190Y-142852380D02*
X80166666Y-142852380D01*
X80261904Y-142900000D01*
X80357142Y-142995238D01*
X80404761Y-143185714D01*
X80404761Y-143519047D01*
X80357142Y-143709523D01*
X80261904Y-143804761D01*
X80166666Y-143852380D01*
X79976190Y-143852380D01*
X79880952Y-143804761D01*
X79785714Y-143709523D01*
X79738095Y-143519047D01*
X79738095Y-143185714D01*
X79785714Y-142995238D01*
X79880952Y-142900000D01*
X79976190Y-142852380D01*
X80595238Y-143947619D02*
X81357142Y-143947619D01*
X81595238Y-143852380D02*
X81595238Y-142852380D01*
X82071428Y-143852380D02*
X82071428Y-142852380D01*
X82642857Y-143852380D01*
X82642857Y-142852380D01*
X83642857Y-143852380D02*
X83071428Y-143852380D01*
X83357142Y-143852380D02*
X83357142Y-142852380D01*
X83261904Y-142995238D01*
X83166666Y-143090476D01*
X83071428Y-143138095D01*
%TO.C,POT_WET1*%
X101641428Y-52537380D02*
X101641428Y-51537380D01*
X102022380Y-51537380D01*
X102117619Y-51585000D01*
X102165238Y-51632619D01*
X102212857Y-51727857D01*
X102212857Y-51870714D01*
X102165238Y-51965952D01*
X102117619Y-52013571D01*
X102022380Y-52061190D01*
X101641428Y-52061190D01*
X102831904Y-51537380D02*
X103022380Y-51537380D01*
X103117619Y-51585000D01*
X103212857Y-51680238D01*
X103260476Y-51870714D01*
X103260476Y-52204047D01*
X103212857Y-52394523D01*
X103117619Y-52489761D01*
X103022380Y-52537380D01*
X102831904Y-52537380D01*
X102736666Y-52489761D01*
X102641428Y-52394523D01*
X102593809Y-52204047D01*
X102593809Y-51870714D01*
X102641428Y-51680238D01*
X102736666Y-51585000D01*
X102831904Y-51537380D01*
X103546190Y-51537380D02*
X104117619Y-51537380D01*
X103831904Y-52537380D02*
X103831904Y-51537380D01*
X104212857Y-52632619D02*
X104974761Y-52632619D01*
X105117619Y-51537380D02*
X105355714Y-52537380D01*
X105546190Y-51823095D01*
X105736666Y-52537380D01*
X105974761Y-51537380D01*
X106355714Y-52013571D02*
X106689047Y-52013571D01*
X106831904Y-52537380D02*
X106355714Y-52537380D01*
X106355714Y-51537380D01*
X106831904Y-51537380D01*
X107117619Y-51537380D02*
X107689047Y-51537380D01*
X107403333Y-52537380D02*
X107403333Y-51537380D01*
X108546190Y-52537380D02*
X107974761Y-52537380D01*
X108260476Y-52537380D02*
X108260476Y-51537380D01*
X108165238Y-51680238D01*
X108070000Y-51775476D01*
X107974761Y-51823095D01*
X99138571Y-62185952D02*
X99186190Y-62043095D01*
X99233809Y-61995476D01*
X99329047Y-61947857D01*
X99471904Y-61947857D01*
X99567142Y-61995476D01*
X99614761Y-62043095D01*
X99662380Y-62138333D01*
X99662380Y-62519285D01*
X98662380Y-62519285D01*
X98662380Y-62185952D01*
X98710000Y-62090714D01*
X98757619Y-62043095D01*
X98852857Y-61995476D01*
X98948095Y-61995476D01*
X99043333Y-62043095D01*
X99090952Y-62090714D01*
X99138571Y-62185952D01*
X99138571Y-62519285D01*
X99662380Y-60995476D02*
X99662380Y-61566904D01*
X99662380Y-61281190D02*
X98662380Y-61281190D01*
X98805238Y-61376428D01*
X98900476Y-61471666D01*
X98948095Y-61566904D01*
X98662380Y-60376428D02*
X98662380Y-60281190D01*
X98710000Y-60185952D01*
X98757619Y-60138333D01*
X98852857Y-60090714D01*
X99043333Y-60043095D01*
X99281428Y-60043095D01*
X99471904Y-60090714D01*
X99567142Y-60138333D01*
X99614761Y-60185952D01*
X99662380Y-60281190D01*
X99662380Y-60376428D01*
X99614761Y-60471666D01*
X99567142Y-60519285D01*
X99471904Y-60566904D01*
X99281428Y-60614523D01*
X99043333Y-60614523D01*
X98852857Y-60566904D01*
X98757619Y-60519285D01*
X98710000Y-60471666D01*
X98662380Y-60376428D01*
X99662380Y-59614523D02*
X98662380Y-59614523D01*
X99662380Y-59043095D02*
X99090952Y-59471666D01*
X98662380Y-59043095D02*
X99233809Y-59614523D01*
%TO.C,POT_LPF1*%
X82092857Y-92402380D02*
X82092857Y-91402380D01*
X82473809Y-91402380D01*
X82569047Y-91450000D01*
X82616666Y-91497619D01*
X82664285Y-91592857D01*
X82664285Y-91735714D01*
X82616666Y-91830952D01*
X82569047Y-91878571D01*
X82473809Y-91926190D01*
X82092857Y-91926190D01*
X83283333Y-91402380D02*
X83473809Y-91402380D01*
X83569047Y-91450000D01*
X83664285Y-91545238D01*
X83711904Y-91735714D01*
X83711904Y-92069047D01*
X83664285Y-92259523D01*
X83569047Y-92354761D01*
X83473809Y-92402380D01*
X83283333Y-92402380D01*
X83188095Y-92354761D01*
X83092857Y-92259523D01*
X83045238Y-92069047D01*
X83045238Y-91735714D01*
X83092857Y-91545238D01*
X83188095Y-91450000D01*
X83283333Y-91402380D01*
X83997619Y-91402380D02*
X84569047Y-91402380D01*
X84283333Y-92402380D02*
X84283333Y-91402380D01*
X84664285Y-92497619D02*
X85426190Y-92497619D01*
X86140476Y-92402380D02*
X85664285Y-92402380D01*
X85664285Y-91402380D01*
X86473809Y-92402380D02*
X86473809Y-91402380D01*
X86854761Y-91402380D01*
X86950000Y-91450000D01*
X86997619Y-91497619D01*
X87045238Y-91592857D01*
X87045238Y-91735714D01*
X86997619Y-91830952D01*
X86950000Y-91878571D01*
X86854761Y-91926190D01*
X86473809Y-91926190D01*
X87807142Y-91878571D02*
X87473809Y-91878571D01*
X87473809Y-92402380D02*
X87473809Y-91402380D01*
X87950000Y-91402380D01*
X88854761Y-92402380D02*
X88283333Y-92402380D01*
X88569047Y-92402380D02*
X88569047Y-91402380D01*
X88473809Y-91545238D01*
X88378571Y-91640476D01*
X88283333Y-91688095D01*
X79443571Y-102190952D02*
X79491190Y-102048095D01*
X79538809Y-102000476D01*
X79634047Y-101952857D01*
X79776904Y-101952857D01*
X79872142Y-102000476D01*
X79919761Y-102048095D01*
X79967380Y-102143333D01*
X79967380Y-102524285D01*
X78967380Y-102524285D01*
X78967380Y-102190952D01*
X79015000Y-102095714D01*
X79062619Y-102048095D01*
X79157857Y-102000476D01*
X79253095Y-102000476D01*
X79348333Y-102048095D01*
X79395952Y-102095714D01*
X79443571Y-102190952D01*
X79443571Y-102524285D01*
X79967380Y-101000476D02*
X79967380Y-101571904D01*
X79967380Y-101286190D02*
X78967380Y-101286190D01*
X79110238Y-101381428D01*
X79205476Y-101476666D01*
X79253095Y-101571904D01*
X78967380Y-100381428D02*
X78967380Y-100286190D01*
X79015000Y-100190952D01*
X79062619Y-100143333D01*
X79157857Y-100095714D01*
X79348333Y-100048095D01*
X79586428Y-100048095D01*
X79776904Y-100095714D01*
X79872142Y-100143333D01*
X79919761Y-100190952D01*
X79967380Y-100286190D01*
X79967380Y-100381428D01*
X79919761Y-100476666D01*
X79872142Y-100524285D01*
X79776904Y-100571904D01*
X79586428Y-100619523D01*
X79348333Y-100619523D01*
X79157857Y-100571904D01*
X79062619Y-100524285D01*
X79015000Y-100476666D01*
X78967380Y-100381428D01*
X79967380Y-99619523D02*
X78967380Y-99619523D01*
X79967380Y-99048095D02*
X79395952Y-99476666D01*
X78967380Y-99048095D02*
X79538809Y-99619523D01*
%TO.C,AUDIO_OUT2*%
X105660379Y-143569578D02*
X106136569Y-143569578D01*
X105565141Y-143855292D02*
X105898474Y-142855292D01*
X106231807Y-143855292D01*
X106565141Y-142855292D02*
X106565141Y-143664816D01*
X106612760Y-143760054D01*
X106660379Y-143807673D01*
X106755617Y-143855292D01*
X106946093Y-143855292D01*
X107041331Y-143807673D01*
X107088950Y-143760054D01*
X107136569Y-143664816D01*
X107136569Y-142855292D01*
X107612760Y-143855292D02*
X107612760Y-142855292D01*
X107850855Y-142855292D01*
X107993712Y-142902912D01*
X108088950Y-142998150D01*
X108136569Y-143093388D01*
X108184188Y-143283864D01*
X108184188Y-143426721D01*
X108136569Y-143617197D01*
X108088950Y-143712435D01*
X107993712Y-143807673D01*
X107850855Y-143855292D01*
X107612760Y-143855292D01*
X108612760Y-143855292D02*
X108612760Y-142855292D01*
X109279426Y-142855292D02*
X109469903Y-142855292D01*
X109565141Y-142902912D01*
X109660379Y-142998150D01*
X109707998Y-143188626D01*
X109707998Y-143521959D01*
X109660379Y-143712435D01*
X109565141Y-143807673D01*
X109469903Y-143855292D01*
X109279426Y-143855292D01*
X109184188Y-143807673D01*
X109088950Y-143712435D01*
X109041331Y-143521959D01*
X109041331Y-143188626D01*
X109088950Y-142998150D01*
X109184188Y-142902912D01*
X109279426Y-142855292D01*
X109898474Y-143950531D02*
X110660379Y-143950531D01*
X111088950Y-142855292D02*
X111279426Y-142855292D01*
X111374664Y-142902912D01*
X111469903Y-142998150D01*
X111517522Y-143188626D01*
X111517522Y-143521959D01*
X111469903Y-143712435D01*
X111374664Y-143807673D01*
X111279426Y-143855292D01*
X111088950Y-143855292D01*
X110993712Y-143807673D01*
X110898474Y-143712435D01*
X110850855Y-143521959D01*
X110850855Y-143188626D01*
X110898474Y-142998150D01*
X110993712Y-142902912D01*
X111088950Y-142855292D01*
X111946093Y-142855292D02*
X111946093Y-143664816D01*
X111993712Y-143760054D01*
X112041331Y-143807673D01*
X112136569Y-143855292D01*
X112327045Y-143855292D01*
X112422283Y-143807673D01*
X112469903Y-143760054D01*
X112517522Y-143664816D01*
X112517522Y-142855292D01*
X112850855Y-142855292D02*
X113422283Y-142855292D01*
X113136569Y-143855292D02*
X113136569Y-142855292D01*
X113707998Y-142950531D02*
X113755617Y-142902912D01*
X113850855Y-142855292D01*
X114088950Y-142855292D01*
X114184188Y-142902912D01*
X114231807Y-142950531D01*
X114279426Y-143045769D01*
X114279426Y-143141007D01*
X114231807Y-143283864D01*
X113660379Y-143855292D01*
X114279426Y-143855292D01*
%TO.C,POT_MOD1*%
X101270952Y-92512380D02*
X101270952Y-91512380D01*
X101651904Y-91512380D01*
X101747142Y-91560000D01*
X101794761Y-91607619D01*
X101842380Y-91702857D01*
X101842380Y-91845714D01*
X101794761Y-91940952D01*
X101747142Y-91988571D01*
X101651904Y-92036190D01*
X101270952Y-92036190D01*
X102461428Y-91512380D02*
X102651904Y-91512380D01*
X102747142Y-91560000D01*
X102842380Y-91655238D01*
X102890000Y-91845714D01*
X102890000Y-92179047D01*
X102842380Y-92369523D01*
X102747142Y-92464761D01*
X102651904Y-92512380D01*
X102461428Y-92512380D01*
X102366190Y-92464761D01*
X102270952Y-92369523D01*
X102223333Y-92179047D01*
X102223333Y-91845714D01*
X102270952Y-91655238D01*
X102366190Y-91560000D01*
X102461428Y-91512380D01*
X103175714Y-91512380D02*
X103747142Y-91512380D01*
X103461428Y-92512380D02*
X103461428Y-91512380D01*
X103842380Y-92607619D02*
X104604285Y-92607619D01*
X104842380Y-92512380D02*
X104842380Y-91512380D01*
X105175714Y-92226666D01*
X105509047Y-91512380D01*
X105509047Y-92512380D01*
X106175714Y-91512380D02*
X106366190Y-91512380D01*
X106461428Y-91560000D01*
X106556666Y-91655238D01*
X106604285Y-91845714D01*
X106604285Y-92179047D01*
X106556666Y-92369523D01*
X106461428Y-92464761D01*
X106366190Y-92512380D01*
X106175714Y-92512380D01*
X106080476Y-92464761D01*
X105985238Y-92369523D01*
X105937619Y-92179047D01*
X105937619Y-91845714D01*
X105985238Y-91655238D01*
X106080476Y-91560000D01*
X106175714Y-91512380D01*
X107032857Y-92512380D02*
X107032857Y-91512380D01*
X107270952Y-91512380D01*
X107413809Y-91560000D01*
X107509047Y-91655238D01*
X107556666Y-91750476D01*
X107604285Y-91940952D01*
X107604285Y-92083809D01*
X107556666Y-92274285D01*
X107509047Y-92369523D01*
X107413809Y-92464761D01*
X107270952Y-92512380D01*
X107032857Y-92512380D01*
X108556666Y-92512380D02*
X107985238Y-92512380D01*
X108270952Y-92512380D02*
X108270952Y-91512380D01*
X108175714Y-91655238D01*
X108080476Y-91750476D01*
X107985238Y-91798095D01*
X99198571Y-102130952D02*
X99246190Y-101988095D01*
X99293809Y-101940476D01*
X99389047Y-101892857D01*
X99531904Y-101892857D01*
X99627142Y-101940476D01*
X99674761Y-101988095D01*
X99722380Y-102083333D01*
X99722380Y-102464285D01*
X98722380Y-102464285D01*
X98722380Y-102130952D01*
X98770000Y-102035714D01*
X98817619Y-101988095D01*
X98912857Y-101940476D01*
X99008095Y-101940476D01*
X99103333Y-101988095D01*
X99150952Y-102035714D01*
X99198571Y-102130952D01*
X99198571Y-102464285D01*
X99722380Y-100940476D02*
X99722380Y-101511904D01*
X99722380Y-101226190D02*
X98722380Y-101226190D01*
X98865238Y-101321428D01*
X98960476Y-101416666D01*
X99008095Y-101511904D01*
X98722380Y-100321428D02*
X98722380Y-100226190D01*
X98770000Y-100130952D01*
X98817619Y-100083333D01*
X98912857Y-100035714D01*
X99103333Y-99988095D01*
X99341428Y-99988095D01*
X99531904Y-100035714D01*
X99627142Y-100083333D01*
X99674761Y-100130952D01*
X99722380Y-100226190D01*
X99722380Y-100321428D01*
X99674761Y-100416666D01*
X99627142Y-100464285D01*
X99531904Y-100511904D01*
X99341428Y-100559523D01*
X99103333Y-100559523D01*
X98912857Y-100511904D01*
X98817619Y-100464285D01*
X98770000Y-100416666D01*
X98722380Y-100321428D01*
X99722380Y-99559523D02*
X98722380Y-99559523D01*
X99722380Y-98988095D02*
X99150952Y-99416666D01*
X98722380Y-98988095D02*
X99293809Y-99559523D01*
%TO.C,R16*%
X82934761Y-89752380D02*
X82363333Y-89752380D01*
X82649047Y-89752380D02*
X82649047Y-88752380D01*
X82553809Y-88895238D01*
X82458571Y-88990476D01*
X82363333Y-89038095D01*
X83553809Y-88752380D02*
X83649047Y-88752380D01*
X83744285Y-88800000D01*
X83791904Y-88847619D01*
X83839523Y-88942857D01*
X83887142Y-89133333D01*
X83887142Y-89371428D01*
X83839523Y-89561904D01*
X83791904Y-89657142D01*
X83744285Y-89704761D01*
X83649047Y-89752380D01*
X83553809Y-89752380D01*
X83458571Y-89704761D01*
X83410952Y-89657142D01*
X83363333Y-89561904D01*
X83315714Y-89371428D01*
X83315714Y-89133333D01*
X83363333Y-88942857D01*
X83410952Y-88847619D01*
X83458571Y-88800000D01*
X83553809Y-88752380D01*
X84315714Y-89752380D02*
X84315714Y-88752380D01*
X84410952Y-89371428D02*
X84696666Y-89752380D01*
X84696666Y-89085714D02*
X84315714Y-89466666D01*
%TO.C,D1*%
X99311904Y-115927380D02*
X99311904Y-114927380D01*
X99550000Y-114927380D01*
X99692857Y-114975000D01*
X99788095Y-115070238D01*
X99835714Y-115165476D01*
X99883333Y-115355952D01*
X99883333Y-115498809D01*
X99835714Y-115689285D01*
X99788095Y-115784523D01*
X99692857Y-115879761D01*
X99550000Y-115927380D01*
X99311904Y-115927380D01*
X100835714Y-115927380D02*
X100264285Y-115927380D01*
X100550000Y-115927380D02*
X100550000Y-114927380D01*
X100454761Y-115070238D01*
X100359523Y-115165476D01*
X100264285Y-115213095D01*
D11*
%TO.C,AUDIO_OUT1*%
X98935000Y-134414000D02*
X99795000Y-134414000D01*
X104495000Y-137394000D02*
X100345000Y-137394000D01*
X99495000Y-147894000D02*
X95495000Y-147894000D01*
X95495000Y-137394000D02*
X95495000Y-147894000D01*
X98935000Y-134414000D02*
X98935000Y-135214000D01*
X104495000Y-147894000D02*
X100495000Y-147894000D01*
X104495000Y-137394000D02*
X104495000Y-147894000D01*
X99645000Y-137394000D02*
X95495000Y-137394000D01*
X101795000Y-141894000D02*
G75*
G03*
X101795000Y-141894000I-1800000J0D01*
G01*
%TO.C,POT_FBK1*%
X81510000Y-82695000D02*
X80330000Y-82695000D01*
X90070000Y-74165000D02*
X90070000Y-71105000D01*
X90070000Y-71105000D02*
X80330000Y-71105000D01*
X90070000Y-82695000D02*
X88580000Y-82695000D01*
X90070000Y-82695000D02*
X90070000Y-77975000D01*
X80320000Y-82695000D02*
X80320000Y-77975000D01*
X80330000Y-74165000D02*
X80330000Y-71105000D01*
X84410000Y-82695000D02*
X83880000Y-82695000D01*
X86860000Y-82695000D02*
X86030000Y-82695000D01*
%TO.C,POT_DRY1*%
X90045000Y-62645000D02*
X88555000Y-62645000D01*
X80305000Y-54115000D02*
X80305000Y-51055000D01*
X84385000Y-62645000D02*
X83855000Y-62645000D01*
X80295000Y-62645000D02*
X80295000Y-57925000D01*
X81485000Y-62645000D02*
X80305000Y-62645000D01*
X90045000Y-54115000D02*
X90045000Y-51055000D01*
X86835000Y-62645000D02*
X86005000Y-62645000D01*
X90045000Y-51055000D02*
X80305000Y-51055000D01*
X90045000Y-62645000D02*
X90045000Y-57925000D01*
%TO.C,R1*%
X80405000Y-84880000D02*
X80405000Y-85210000D01*
X86945000Y-85210000D02*
X86945000Y-84880000D01*
X86945000Y-84880000D02*
X80405000Y-84880000D01*
X80405000Y-87620000D02*
X80405000Y-87290000D01*
X86945000Y-87290000D02*
X86945000Y-87620000D01*
X86945000Y-87620000D02*
X80405000Y-87620000D01*
%TO.C,AUDIO_IN2*%
X94471000Y-137394000D02*
X90321000Y-137394000D01*
X89471000Y-147894000D02*
X85471000Y-147894000D01*
X88911000Y-134414000D02*
X88911000Y-135214000D01*
X94471000Y-137394000D02*
X94471000Y-147894000D01*
X85471000Y-137394000D02*
X85471000Y-147894000D01*
X88911000Y-134414000D02*
X89771000Y-134414000D01*
X89621000Y-137394000D02*
X85471000Y-137394000D01*
X94471000Y-147894000D02*
X90471000Y-147894000D01*
X91771000Y-141894000D02*
G75*
G03*
X91771000Y-141894000I-1800000J0D01*
G01*
%TO.C,AUDIO_IN1*%
X79595000Y-137394000D02*
X75445000Y-137394000D01*
X84445000Y-137394000D02*
X80295000Y-137394000D01*
X84445000Y-147894000D02*
X80445000Y-147894000D01*
X84445000Y-137394000D02*
X84445000Y-147894000D01*
X79445000Y-147894000D02*
X75445000Y-147894000D01*
X78885000Y-134414000D02*
X78885000Y-135214000D01*
X75445000Y-137394000D02*
X75445000Y-147894000D01*
X78885000Y-134414000D02*
X79745000Y-134414000D01*
X81745000Y-141894000D02*
G75*
G03*
X81745000Y-141894000I-1800000J0D01*
G01*
%TO.C,POT_WET1*%
X99995000Y-62670000D02*
X99995000Y-57950000D01*
X101185000Y-62670000D02*
X100005000Y-62670000D01*
X109745000Y-62670000D02*
X109745000Y-57950000D01*
X109745000Y-62670000D02*
X108255000Y-62670000D01*
X106535000Y-62670000D02*
X105705000Y-62670000D01*
X104085000Y-62670000D02*
X103555000Y-62670000D01*
X109745000Y-51080000D02*
X100005000Y-51080000D01*
X109745000Y-54140000D02*
X109745000Y-51080000D01*
X100005000Y-54140000D02*
X100005000Y-51080000D01*
%TO.C,POT_LPF1*%
X81510000Y-102645000D02*
X80330000Y-102645000D01*
X86860000Y-102645000D02*
X86030000Y-102645000D01*
X80330000Y-94115000D02*
X80330000Y-91055000D01*
X90070000Y-102645000D02*
X88580000Y-102645000D01*
X90070000Y-102645000D02*
X90070000Y-97925000D01*
X80320000Y-102645000D02*
X80320000Y-97925000D01*
X90070000Y-94115000D02*
X90070000Y-91055000D01*
X84410000Y-102645000D02*
X83880000Y-102645000D01*
X90070000Y-91055000D02*
X80330000Y-91055000D01*
%TO.C,AUDIO_OUT2*%
X109495000Y-147900000D02*
X105495000Y-147900000D01*
X114495000Y-137400000D02*
X110345000Y-137400000D01*
X114495000Y-137400000D02*
X114495000Y-147900000D01*
X109645000Y-137400000D02*
X105495000Y-137400000D01*
X114495000Y-147900000D02*
X110495000Y-147900000D01*
X108935000Y-134420000D02*
X109795000Y-134420000D01*
X105495000Y-137400000D02*
X105495000Y-147900000D01*
X108935000Y-134420000D02*
X108935000Y-135220000D01*
X111795000Y-141900000D02*
G75*
G03*
X111795000Y-141900000I-1800000J0D01*
G01*
%TO.C,POT_MOD1*%
X104135000Y-102716088D02*
X103605000Y-102716088D01*
X109795000Y-102716088D02*
X108305000Y-102716088D01*
X106585000Y-102716088D02*
X105755000Y-102716088D01*
X109795000Y-94186088D02*
X109795000Y-91126088D01*
X101235000Y-102716088D02*
X100055000Y-102716088D01*
X109795000Y-102716088D02*
X109795000Y-97996088D01*
X109795000Y-91126088D02*
X100055000Y-91126088D01*
X100055000Y-94186088D02*
X100055000Y-91126088D01*
X100045000Y-102716088D02*
X100045000Y-97996088D01*
%TO.C,R16*%
X80405000Y-90720000D02*
X80405000Y-90390000D01*
X86945000Y-88310000D02*
X86945000Y-87980000D01*
X80405000Y-87980000D02*
X80405000Y-88310000D01*
X86945000Y-90720000D02*
X80405000Y-90720000D01*
X86945000Y-90390000D02*
X86945000Y-90720000D01*
X86945000Y-87980000D02*
X80405000Y-87980000D01*
%TO.C,D1*%
X104065000Y-115136000D02*
X104065000Y-114980000D01*
X104065000Y-112820000D02*
X104065000Y-112664000D01*
X104065000Y-112664484D02*
G75*
G03*
X100832665Y-112821392I-1560000J-1235516D01*
G01*
X100832665Y-114978608D02*
G75*
G03*
X104065000Y-115135516I1672335J1078608D01*
G01*
X103545961Y-112820000D02*
G75*
G03*
X101463870Y-112820163I-1040961J-1080000D01*
G01*
X101463870Y-114979837D02*
G75*
G03*
X103545961Y-114980000I1041130J1079837D01*
G01*
%TD*%
M02*
