%TF.GenerationSoftware,KiCad,Pcbnew,6.0.11+dfsg-1~bpo11+1*%
%TF.CreationDate,2023-04-14T10:24:11+08:00*%
%TF.ProjectId,MiniVerb - Main,4d696e69-5665-4726-9220-2d204d61696e,rev?*%
%TF.SameCoordinates,Original*%
%TF.FileFunction,Soldermask,Bot*%
%TF.FilePolarity,Negative*%
%FSLAX46Y46*%
G04 Gerber Fmt 4.6, Leading zero omitted, Abs format (unit mm)*
G04 Created by KiCad (PCBNEW 6.0.11+dfsg-1~bpo11+1) date 2023-04-14 10:24:11*
%MOMM*%
%LPD*%
G01*
G04 APERTURE LIST*
G04 Aperture macros list*
%AMRoundRect*
0 Rectangle with rounded corners*
0 $1 Rounding radius*
0 $2 $3 $4 $5 $6 $7 $8 $9 X,Y pos of 4 corners*
0 Add a 4 corners polygon primitive as box body*
4,1,4,$2,$3,$4,$5,$6,$7,$8,$9,$2,$3,0*
0 Add four circle primitives for the rounded corners*
1,1,$1+$1,$2,$3*
1,1,$1+$1,$4,$5*
1,1,$1+$1,$6,$7*
1,1,$1+$1,$8,$9*
0 Add four rect primitives between the rounded corners*
20,1,$1+$1,$2,$3,$4,$5,0*
20,1,$1+$1,$4,$5,$6,$7,0*
20,1,$1+$1,$6,$7,$8,$9,0*
20,1,$1+$1,$8,$9,$2,$3,0*%
G04 Aperture macros list end*
%ADD10R,1.800000X1.800000*%
%ADD11C,1.800000*%
%ADD12R,1.930000X1.830000*%
%ADD13C,2.130000*%
%ADD14RoundRect,0.237500X-0.237500X0.250000X-0.237500X-0.250000X0.237500X-0.250000X0.237500X0.250000X0*%
%ADD15RoundRect,0.237500X-0.250000X-0.237500X0.250000X-0.237500X0.250000X0.237500X-0.250000X0.237500X0*%
%ADD16RoundRect,0.150000X0.512500X0.150000X-0.512500X0.150000X-0.512500X-0.150000X0.512500X-0.150000X0*%
%ADD17RoundRect,0.237500X0.300000X0.237500X-0.300000X0.237500X-0.300000X-0.237500X0.300000X-0.237500X0*%
%ADD18RoundRect,0.237500X-0.300000X-0.237500X0.300000X-0.237500X0.300000X0.237500X-0.300000X0.237500X0*%
%ADD19RoundRect,0.150000X0.587500X0.150000X-0.587500X0.150000X-0.587500X-0.150000X0.587500X-0.150000X0*%
%ADD20RoundRect,0.237500X0.250000X0.237500X-0.250000X0.237500X-0.250000X-0.237500X0.250000X-0.237500X0*%
%ADD21RoundRect,0.250000X-0.475000X0.337500X-0.475000X-0.337500X0.475000X-0.337500X0.475000X0.337500X0*%
%ADD22RoundRect,0.150000X0.825000X0.150000X-0.825000X0.150000X-0.825000X-0.150000X0.825000X-0.150000X0*%
%ADD23RoundRect,0.237500X0.237500X-0.300000X0.237500X0.300000X-0.237500X0.300000X-0.237500X-0.300000X0*%
%ADD24RoundRect,0.237500X0.237500X-0.250000X0.237500X0.250000X-0.237500X0.250000X-0.237500X-0.250000X0*%
%ADD25RoundRect,0.250000X-0.600000X-0.600000X0.600000X-0.600000X0.600000X0.600000X-0.600000X0.600000X0*%
%ADD26C,1.700000*%
%ADD27R,1.700000X1.700000*%
%ADD28RoundRect,0.237500X-0.237500X0.300000X-0.237500X-0.300000X0.237500X-0.300000X0.237500X0.300000X0*%
%ADD29RoundRect,0.250000X0.475000X-0.337500X0.475000X0.337500X-0.475000X0.337500X-0.475000X-0.337500X0*%
G04 APERTURE END LIST*
D10*
%TO.C,FEEDBACK_POT1*%
X167599067Y-88590933D03*
D11*
X170099067Y-88590933D03*
X172599067Y-88590933D03*
%TD*%
D12*
%TO.C,CV1_IN1*%
X165069067Y-120085933D03*
D13*
X165069067Y-131485933D03*
X165069067Y-123185933D03*
%TD*%
D12*
%TO.C,AUDIO_OUT1*%
X175099067Y-140207933D03*
D13*
X175099067Y-151607933D03*
X175099067Y-143307933D03*
%TD*%
D10*
%TO.C,MOD_POT1*%
X167659067Y-108600933D03*
D11*
X170159067Y-108600933D03*
X172659067Y-108600933D03*
%TD*%
D10*
%TO.C,LEVEL_POT1*%
X167619067Y-68600933D03*
D11*
X170119067Y-68600933D03*
X172619067Y-68600933D03*
%TD*%
D10*
%TO.C,D1*%
X163825000Y-135400000D03*
D11*
X166365000Y-135400000D03*
%TD*%
D12*
%TO.C,AUDIO_IN1*%
X165099067Y-140207933D03*
D13*
X165099067Y-151607933D03*
X165099067Y-143307933D03*
%TD*%
D14*
%TO.C,R2*%
X163760000Y-103052500D03*
X163760000Y-104877500D03*
%TD*%
%TO.C,R12*%
X171649067Y-114633433D03*
X171649067Y-116458433D03*
%TD*%
D15*
%TO.C,R9*%
X174572446Y-109524312D03*
X176397446Y-109524312D03*
%TD*%
D16*
%TO.C,U3*%
X163836567Y-111170933D03*
X163836567Y-112120933D03*
X163836567Y-113070933D03*
X161561567Y-113070933D03*
X161561567Y-111170933D03*
%TD*%
D17*
%TO.C,C3*%
X170195000Y-94105000D03*
X168470000Y-94105000D03*
%TD*%
D18*
%TO.C,C1*%
X169237500Y-79530000D03*
X170962500Y-79530000D03*
%TD*%
D15*
%TO.C,R6*%
X172487500Y-95250000D03*
X174312500Y-95250000D03*
%TD*%
D17*
%TO.C,C13*%
X175749067Y-51345933D03*
X174024067Y-51345933D03*
%TD*%
D15*
%TO.C,R13*%
X161399067Y-114620933D03*
X163224067Y-114620933D03*
%TD*%
D19*
%TO.C,U2*%
X169861567Y-114545933D03*
X169861567Y-116445933D03*
X167986567Y-115495933D03*
%TD*%
D20*
%TO.C,R1*%
X171012500Y-78000000D03*
X169187500Y-78000000D03*
%TD*%
%TO.C,R5*%
X170237500Y-106475000D03*
X168412500Y-106475000D03*
%TD*%
D21*
%TO.C,C5*%
X177449067Y-114308433D03*
X177449067Y-116383433D03*
%TD*%
D22*
%TO.C,U1*%
X173844067Y-97235933D03*
X173844067Y-98505933D03*
X173844067Y-99775933D03*
X173844067Y-101045933D03*
X173844067Y-102315933D03*
X173844067Y-103585933D03*
X173844067Y-104855933D03*
X168894067Y-104855933D03*
X168894067Y-103585933D03*
X168894067Y-102315933D03*
X168894067Y-101045933D03*
X168894067Y-99775933D03*
X168894067Y-98505933D03*
X168894067Y-97235933D03*
%TD*%
D23*
%TO.C,C2*%
X165300000Y-104837500D03*
X165300000Y-103112500D03*
%TD*%
D17*
%TO.C,C10*%
X163174067Y-117670933D03*
X161449067Y-117670933D03*
%TD*%
D24*
%TO.C,R4*%
X166860000Y-104887500D03*
X166860000Y-103062500D03*
%TD*%
D17*
%TO.C,C7*%
X178686567Y-104220933D03*
X176961567Y-104220933D03*
%TD*%
D25*
%TO.C,J1*%
X173846567Y-133056933D03*
D26*
X176386567Y-133056933D03*
X173846567Y-130516933D03*
X176386567Y-130516933D03*
X173846567Y-127976933D03*
X176386567Y-127976933D03*
X173846567Y-125436933D03*
X176386567Y-125436933D03*
X173846567Y-122896933D03*
X176386567Y-122896933D03*
%TD*%
D15*
%TO.C,R16*%
X161399067Y-116145933D03*
X163224067Y-116145933D03*
%TD*%
D27*
%TO.C,A1*%
X162660000Y-100095933D03*
D26*
X162660000Y-97555933D03*
X162660000Y-95015933D03*
X162660000Y-92475933D03*
X162660000Y-89935933D03*
X162660000Y-87395933D03*
X162660000Y-84855933D03*
X162660000Y-82315933D03*
X162660000Y-79775933D03*
X162660000Y-77235933D03*
X162660000Y-74695933D03*
X162660000Y-72155933D03*
X162660000Y-69615933D03*
X162660000Y-67075933D03*
X162660000Y-64535933D03*
X162660000Y-61995933D03*
X162660000Y-59455933D03*
X162660000Y-56915933D03*
X162660000Y-54375933D03*
X162660000Y-51835933D03*
X177900000Y-51835933D03*
X177900000Y-54375933D03*
X177900000Y-56915933D03*
X177900000Y-59455933D03*
X177900000Y-61995933D03*
X177900000Y-64535933D03*
X177900000Y-67075933D03*
X177900000Y-69615933D03*
X177900000Y-72155933D03*
X177900000Y-74695933D03*
X177900000Y-77235933D03*
X177900000Y-79775933D03*
X177900000Y-82315933D03*
X177900000Y-84855933D03*
X177900000Y-87395933D03*
X177900000Y-89935933D03*
X177900000Y-92475933D03*
X177900000Y-95015933D03*
X177900000Y-97555933D03*
X177900000Y-100095933D03*
%TD*%
D24*
%TO.C,R11*%
X168350000Y-136231250D03*
X168350000Y-134406250D03*
%TD*%
D15*
%TO.C,R8*%
X174592446Y-106474312D03*
X176417446Y-106474312D03*
%TD*%
D18*
%TO.C,C4*%
X174622446Y-107994312D03*
X176347446Y-107994312D03*
%TD*%
D20*
%TO.C,R7*%
X170245000Y-95635000D03*
X168420000Y-95635000D03*
%TD*%
D14*
%TO.C,R17*%
X167074067Y-111158433D03*
X167074067Y-112983433D03*
%TD*%
D23*
%TO.C,FB1*%
X179224067Y-116428433D03*
X179224067Y-114703433D03*
%TD*%
D28*
%TO.C,C14*%
X165549067Y-111208433D03*
X165549067Y-112933433D03*
%TD*%
D17*
%TO.C,C9*%
X169311567Y-118020933D03*
X167586567Y-118020933D03*
%TD*%
D15*
%TO.C,R10*%
X168400000Y-92585000D03*
X170225000Y-92585000D03*
%TD*%
D28*
%TO.C,C8*%
X166849067Y-99333433D03*
X166849067Y-101058433D03*
%TD*%
D29*
%TO.C,C6*%
X174974067Y-116383433D03*
X174974067Y-114308433D03*
%TD*%
D15*
%TO.C,R3*%
X169197500Y-81060000D03*
X171022500Y-81060000D03*
%TD*%
D23*
%TO.C,FB2*%
X173174067Y-116408433D03*
X173174067Y-114683433D03*
%TD*%
M02*
