%TF.GenerationSoftware,KiCad,Pcbnew,6.0.11+dfsg-1~bpo11+1*%
%TF.CreationDate,2023-04-14T10:24:11+08:00*%
%TF.ProjectId,MiniVerb - Main,4d696e69-5665-4726-9220-2d204d61696e,rev?*%
%TF.SameCoordinates,Original*%
%TF.FileFunction,Legend,Top*%
%TF.FilePolarity,Positive*%
%FSLAX46Y46*%
G04 Gerber Fmt 4.6, Leading zero omitted, Abs format (unit mm)*
G04 Created by KiCad (PCBNEW 6.0.11+dfsg-1~bpo11+1) date 2023-04-14 10:24:11*
%MOMM*%
%LPD*%
G01*
G04 APERTURE LIST*
%ADD10C,0.150000*%
%ADD11C,0.120000*%
G04 APERTURE END LIST*
D10*
%TO.C,FEEDBACK_POT1*%
X164747619Y-75303571D02*
X164414285Y-75303571D01*
X164414285Y-75827380D02*
X164414285Y-74827380D01*
X164890476Y-74827380D01*
X165271428Y-75303571D02*
X165604761Y-75303571D01*
X165747619Y-75827380D02*
X165271428Y-75827380D01*
X165271428Y-74827380D01*
X165747619Y-74827380D01*
X166176190Y-75303571D02*
X166509523Y-75303571D01*
X166652380Y-75827380D02*
X166176190Y-75827380D01*
X166176190Y-74827380D01*
X166652380Y-74827380D01*
X167080952Y-75827380D02*
X167080952Y-74827380D01*
X167319047Y-74827380D01*
X167461904Y-74875000D01*
X167557142Y-74970238D01*
X167604761Y-75065476D01*
X167652380Y-75255952D01*
X167652380Y-75398809D01*
X167604761Y-75589285D01*
X167557142Y-75684523D01*
X167461904Y-75779761D01*
X167319047Y-75827380D01*
X167080952Y-75827380D01*
X168414285Y-75303571D02*
X168557142Y-75351190D01*
X168604761Y-75398809D01*
X168652380Y-75494047D01*
X168652380Y-75636904D01*
X168604761Y-75732142D01*
X168557142Y-75779761D01*
X168461904Y-75827380D01*
X168080952Y-75827380D01*
X168080952Y-74827380D01*
X168414285Y-74827380D01*
X168509523Y-74875000D01*
X168557142Y-74922619D01*
X168604761Y-75017857D01*
X168604761Y-75113095D01*
X168557142Y-75208333D01*
X168509523Y-75255952D01*
X168414285Y-75303571D01*
X168080952Y-75303571D01*
X169033333Y-75541666D02*
X169509523Y-75541666D01*
X168938095Y-75827380D02*
X169271428Y-74827380D01*
X169604761Y-75827380D01*
X170509523Y-75732142D02*
X170461904Y-75779761D01*
X170319047Y-75827380D01*
X170223809Y-75827380D01*
X170080952Y-75779761D01*
X169985714Y-75684523D01*
X169938095Y-75589285D01*
X169890476Y-75398809D01*
X169890476Y-75255952D01*
X169938095Y-75065476D01*
X169985714Y-74970238D01*
X170080952Y-74875000D01*
X170223809Y-74827380D01*
X170319047Y-74827380D01*
X170461904Y-74875000D01*
X170509523Y-74922619D01*
X170938095Y-75827380D02*
X170938095Y-74827380D01*
X171509523Y-75827380D02*
X171080952Y-75255952D01*
X171509523Y-74827380D02*
X170938095Y-75398809D01*
X171700000Y-75922619D02*
X172461904Y-75922619D01*
X172700000Y-75827380D02*
X172700000Y-74827380D01*
X173080952Y-74827380D01*
X173176190Y-74875000D01*
X173223809Y-74922619D01*
X173271428Y-75017857D01*
X173271428Y-75160714D01*
X173223809Y-75255952D01*
X173176190Y-75303571D01*
X173080952Y-75351190D01*
X172700000Y-75351190D01*
X173890476Y-74827380D02*
X174080952Y-74827380D01*
X174176190Y-74875000D01*
X174271428Y-74970238D01*
X174319047Y-75160714D01*
X174319047Y-75494047D01*
X174271428Y-75684523D01*
X174176190Y-75779761D01*
X174080952Y-75827380D01*
X173890476Y-75827380D01*
X173795238Y-75779761D01*
X173700000Y-75684523D01*
X173652380Y-75494047D01*
X173652380Y-75160714D01*
X173700000Y-74970238D01*
X173795238Y-74875000D01*
X173890476Y-74827380D01*
X174604761Y-74827380D02*
X175176190Y-74827380D01*
X174890476Y-75827380D02*
X174890476Y-74827380D01*
X176033333Y-75827380D02*
X175461904Y-75827380D01*
X175747619Y-75827380D02*
X175747619Y-74827380D01*
X175652380Y-74970238D01*
X175557142Y-75065476D01*
X175461904Y-75113095D01*
X168694047Y-90578571D02*
X168836904Y-90626190D01*
X168884523Y-90673809D01*
X168932142Y-90769047D01*
X168932142Y-90911904D01*
X168884523Y-91007142D01*
X168836904Y-91054761D01*
X168741666Y-91102380D01*
X168360714Y-91102380D01*
X168360714Y-90102380D01*
X168694047Y-90102380D01*
X168789285Y-90150000D01*
X168836904Y-90197619D01*
X168884523Y-90292857D01*
X168884523Y-90388095D01*
X168836904Y-90483333D01*
X168789285Y-90530952D01*
X168694047Y-90578571D01*
X168360714Y-90578571D01*
X169884523Y-91102380D02*
X169313095Y-91102380D01*
X169598809Y-91102380D02*
X169598809Y-90102380D01*
X169503571Y-90245238D01*
X169408333Y-90340476D01*
X169313095Y-90388095D01*
X170503571Y-90102380D02*
X170598809Y-90102380D01*
X170694047Y-90150000D01*
X170741666Y-90197619D01*
X170789285Y-90292857D01*
X170836904Y-90483333D01*
X170836904Y-90721428D01*
X170789285Y-90911904D01*
X170741666Y-91007142D01*
X170694047Y-91054761D01*
X170598809Y-91102380D01*
X170503571Y-91102380D01*
X170408333Y-91054761D01*
X170360714Y-91007142D01*
X170313095Y-90911904D01*
X170265476Y-90721428D01*
X170265476Y-90483333D01*
X170313095Y-90292857D01*
X170360714Y-90197619D01*
X170408333Y-90150000D01*
X170503571Y-90102380D01*
X171265476Y-91102380D02*
X171265476Y-90102380D01*
X171836904Y-91102380D02*
X171408333Y-90530952D01*
X171836904Y-90102380D02*
X171265476Y-90673809D01*
%TO.C,CV1_IN1*%
X162814781Y-127063075D02*
X162767162Y-127110694D01*
X162624305Y-127158313D01*
X162529067Y-127158313D01*
X162386209Y-127110694D01*
X162290971Y-127015456D01*
X162243352Y-126920218D01*
X162195733Y-126729742D01*
X162195733Y-126586885D01*
X162243352Y-126396409D01*
X162290971Y-126301171D01*
X162386209Y-126205933D01*
X162529067Y-126158313D01*
X162624305Y-126158313D01*
X162767162Y-126205933D01*
X162814781Y-126253552D01*
X163100495Y-126158313D02*
X163433828Y-127158313D01*
X163767162Y-126158313D01*
X164624305Y-127158313D02*
X164052876Y-127158313D01*
X164338590Y-127158313D02*
X164338590Y-126158313D01*
X164243352Y-126301171D01*
X164148114Y-126396409D01*
X164052876Y-126444028D01*
X164814781Y-127253552D02*
X165576686Y-127253552D01*
X165814781Y-127158313D02*
X165814781Y-126158313D01*
X166290971Y-127158313D02*
X166290971Y-126158313D01*
X166862400Y-127158313D01*
X166862400Y-126158313D01*
X167862400Y-127158313D02*
X167290971Y-127158313D01*
X167576686Y-127158313D02*
X167576686Y-126158313D01*
X167481447Y-126301171D01*
X167386209Y-126396409D01*
X167290971Y-126444028D01*
%TO.C,AUDIO_OUT1*%
X170789543Y-148354599D02*
X171265733Y-148354599D01*
X170694305Y-148640313D02*
X171027638Y-147640313D01*
X171360971Y-148640313D01*
X171694305Y-147640313D02*
X171694305Y-148449837D01*
X171741924Y-148545075D01*
X171789543Y-148592694D01*
X171884781Y-148640313D01*
X172075257Y-148640313D01*
X172170495Y-148592694D01*
X172218114Y-148545075D01*
X172265733Y-148449837D01*
X172265733Y-147640313D01*
X172741924Y-148640313D02*
X172741924Y-147640313D01*
X172980019Y-147640313D01*
X173122876Y-147687933D01*
X173218114Y-147783171D01*
X173265733Y-147878409D01*
X173313352Y-148068885D01*
X173313352Y-148211742D01*
X173265733Y-148402218D01*
X173218114Y-148497456D01*
X173122876Y-148592694D01*
X172980019Y-148640313D01*
X172741924Y-148640313D01*
X173741924Y-148640313D02*
X173741924Y-147640313D01*
X174408590Y-147640313D02*
X174599067Y-147640313D01*
X174694305Y-147687933D01*
X174789543Y-147783171D01*
X174837162Y-147973647D01*
X174837162Y-148306980D01*
X174789543Y-148497456D01*
X174694305Y-148592694D01*
X174599067Y-148640313D01*
X174408590Y-148640313D01*
X174313352Y-148592694D01*
X174218114Y-148497456D01*
X174170495Y-148306980D01*
X174170495Y-147973647D01*
X174218114Y-147783171D01*
X174313352Y-147687933D01*
X174408590Y-147640313D01*
X175027638Y-148735552D02*
X175789543Y-148735552D01*
X176218114Y-147640313D02*
X176408590Y-147640313D01*
X176503828Y-147687933D01*
X176599067Y-147783171D01*
X176646686Y-147973647D01*
X176646686Y-148306980D01*
X176599067Y-148497456D01*
X176503828Y-148592694D01*
X176408590Y-148640313D01*
X176218114Y-148640313D01*
X176122876Y-148592694D01*
X176027638Y-148497456D01*
X175980019Y-148306980D01*
X175980019Y-147973647D01*
X176027638Y-147783171D01*
X176122876Y-147687933D01*
X176218114Y-147640313D01*
X177075257Y-147640313D02*
X177075257Y-148449837D01*
X177122876Y-148545075D01*
X177170495Y-148592694D01*
X177265733Y-148640313D01*
X177456209Y-148640313D01*
X177551447Y-148592694D01*
X177599067Y-148545075D01*
X177646686Y-148449837D01*
X177646686Y-147640313D01*
X177980019Y-147640313D02*
X178551447Y-147640313D01*
X178265733Y-148640313D02*
X178265733Y-147640313D01*
X179408590Y-148640313D02*
X178837162Y-148640313D01*
X179122876Y-148640313D02*
X179122876Y-147640313D01*
X179027638Y-147783171D01*
X178932400Y-147878409D01*
X178837162Y-147926028D01*
%TO.C,MOD_POT1*%
X166530952Y-95677380D02*
X166530952Y-94677380D01*
X166864285Y-95391666D01*
X167197619Y-94677380D01*
X167197619Y-95677380D01*
X167864285Y-94677380D02*
X168054761Y-94677380D01*
X168150000Y-94725000D01*
X168245238Y-94820238D01*
X168292857Y-95010714D01*
X168292857Y-95344047D01*
X168245238Y-95534523D01*
X168150000Y-95629761D01*
X168054761Y-95677380D01*
X167864285Y-95677380D01*
X167769047Y-95629761D01*
X167673809Y-95534523D01*
X167626190Y-95344047D01*
X167626190Y-95010714D01*
X167673809Y-94820238D01*
X167769047Y-94725000D01*
X167864285Y-94677380D01*
X168721428Y-95677380D02*
X168721428Y-94677380D01*
X168959523Y-94677380D01*
X169102380Y-94725000D01*
X169197619Y-94820238D01*
X169245238Y-94915476D01*
X169292857Y-95105952D01*
X169292857Y-95248809D01*
X169245238Y-95439285D01*
X169197619Y-95534523D01*
X169102380Y-95629761D01*
X168959523Y-95677380D01*
X168721428Y-95677380D01*
X169483333Y-95772619D02*
X170245238Y-95772619D01*
X170483333Y-95677380D02*
X170483333Y-94677380D01*
X170864285Y-94677380D01*
X170959523Y-94725000D01*
X171007142Y-94772619D01*
X171054761Y-94867857D01*
X171054761Y-95010714D01*
X171007142Y-95105952D01*
X170959523Y-95153571D01*
X170864285Y-95201190D01*
X170483333Y-95201190D01*
X171673809Y-94677380D02*
X171864285Y-94677380D01*
X171959523Y-94725000D01*
X172054761Y-94820238D01*
X172102380Y-95010714D01*
X172102380Y-95344047D01*
X172054761Y-95534523D01*
X171959523Y-95629761D01*
X171864285Y-95677380D01*
X171673809Y-95677380D01*
X171578571Y-95629761D01*
X171483333Y-95534523D01*
X171435714Y-95344047D01*
X171435714Y-95010714D01*
X171483333Y-94820238D01*
X171578571Y-94725000D01*
X171673809Y-94677380D01*
X172388095Y-94677380D02*
X172959523Y-94677380D01*
X172673809Y-95677380D02*
X172673809Y-94677380D01*
X173816666Y-95677380D02*
X173245238Y-95677380D01*
X173530952Y-95677380D02*
X173530952Y-94677380D01*
X173435714Y-94820238D01*
X173340476Y-94915476D01*
X173245238Y-94963095D01*
X168819047Y-110428571D02*
X168961904Y-110476190D01*
X169009523Y-110523809D01*
X169057142Y-110619047D01*
X169057142Y-110761904D01*
X169009523Y-110857142D01*
X168961904Y-110904761D01*
X168866666Y-110952380D01*
X168485714Y-110952380D01*
X168485714Y-109952380D01*
X168819047Y-109952380D01*
X168914285Y-110000000D01*
X168961904Y-110047619D01*
X169009523Y-110142857D01*
X169009523Y-110238095D01*
X168961904Y-110333333D01*
X168914285Y-110380952D01*
X168819047Y-110428571D01*
X168485714Y-110428571D01*
X170009523Y-110952380D02*
X169438095Y-110952380D01*
X169723809Y-110952380D02*
X169723809Y-109952380D01*
X169628571Y-110095238D01*
X169533333Y-110190476D01*
X169438095Y-110238095D01*
X170628571Y-109952380D02*
X170723809Y-109952380D01*
X170819047Y-110000000D01*
X170866666Y-110047619D01*
X170914285Y-110142857D01*
X170961904Y-110333333D01*
X170961904Y-110571428D01*
X170914285Y-110761904D01*
X170866666Y-110857142D01*
X170819047Y-110904761D01*
X170723809Y-110952380D01*
X170628571Y-110952380D01*
X170533333Y-110904761D01*
X170485714Y-110857142D01*
X170438095Y-110761904D01*
X170390476Y-110571428D01*
X170390476Y-110333333D01*
X170438095Y-110142857D01*
X170485714Y-110047619D01*
X170533333Y-110000000D01*
X170628571Y-109952380D01*
X171390476Y-110952380D02*
X171390476Y-109952380D01*
X171961904Y-110952380D02*
X171533333Y-110380952D01*
X171961904Y-109952380D02*
X171390476Y-110523809D01*
%TO.C,LEVEL_POT1*%
X166459523Y-55627380D02*
X165983333Y-55627380D01*
X165983333Y-54627380D01*
X166792857Y-55103571D02*
X167126190Y-55103571D01*
X167269047Y-55627380D02*
X166792857Y-55627380D01*
X166792857Y-54627380D01*
X167269047Y-54627380D01*
X167554761Y-54627380D02*
X167888095Y-55627380D01*
X168221428Y-54627380D01*
X168554761Y-55103571D02*
X168888095Y-55103571D01*
X169030952Y-55627380D02*
X168554761Y-55627380D01*
X168554761Y-54627380D01*
X169030952Y-54627380D01*
X169935714Y-55627380D02*
X169459523Y-55627380D01*
X169459523Y-54627380D01*
X170030952Y-55722619D02*
X170792857Y-55722619D01*
X171030952Y-55627380D02*
X171030952Y-54627380D01*
X171411904Y-54627380D01*
X171507142Y-54675000D01*
X171554761Y-54722619D01*
X171602380Y-54817857D01*
X171602380Y-54960714D01*
X171554761Y-55055952D01*
X171507142Y-55103571D01*
X171411904Y-55151190D01*
X171030952Y-55151190D01*
X172221428Y-54627380D02*
X172411904Y-54627380D01*
X172507142Y-54675000D01*
X172602380Y-54770238D01*
X172650000Y-54960714D01*
X172650000Y-55294047D01*
X172602380Y-55484523D01*
X172507142Y-55579761D01*
X172411904Y-55627380D01*
X172221428Y-55627380D01*
X172126190Y-55579761D01*
X172030952Y-55484523D01*
X171983333Y-55294047D01*
X171983333Y-54960714D01*
X172030952Y-54770238D01*
X172126190Y-54675000D01*
X172221428Y-54627380D01*
X172935714Y-54627380D02*
X173507142Y-54627380D01*
X173221428Y-55627380D02*
X173221428Y-54627380D01*
X174364285Y-55627380D02*
X173792857Y-55627380D01*
X174078571Y-55627380D02*
X174078571Y-54627380D01*
X173983333Y-54770238D01*
X173888095Y-54865476D01*
X173792857Y-54913095D01*
X168744047Y-70703571D02*
X168886904Y-70751190D01*
X168934523Y-70798809D01*
X168982142Y-70894047D01*
X168982142Y-71036904D01*
X168934523Y-71132142D01*
X168886904Y-71179761D01*
X168791666Y-71227380D01*
X168410714Y-71227380D01*
X168410714Y-70227380D01*
X168744047Y-70227380D01*
X168839285Y-70275000D01*
X168886904Y-70322619D01*
X168934523Y-70417857D01*
X168934523Y-70513095D01*
X168886904Y-70608333D01*
X168839285Y-70655952D01*
X168744047Y-70703571D01*
X168410714Y-70703571D01*
X169934523Y-71227380D02*
X169363095Y-71227380D01*
X169648809Y-71227380D02*
X169648809Y-70227380D01*
X169553571Y-70370238D01*
X169458333Y-70465476D01*
X169363095Y-70513095D01*
X170553571Y-70227380D02*
X170648809Y-70227380D01*
X170744047Y-70275000D01*
X170791666Y-70322619D01*
X170839285Y-70417857D01*
X170886904Y-70608333D01*
X170886904Y-70846428D01*
X170839285Y-71036904D01*
X170791666Y-71132142D01*
X170744047Y-71179761D01*
X170648809Y-71227380D01*
X170553571Y-71227380D01*
X170458333Y-71179761D01*
X170410714Y-71132142D01*
X170363095Y-71036904D01*
X170315476Y-70846428D01*
X170315476Y-70608333D01*
X170363095Y-70417857D01*
X170410714Y-70322619D01*
X170458333Y-70275000D01*
X170553571Y-70227380D01*
X171315476Y-71227380D02*
X171315476Y-70227380D01*
X171886904Y-71227380D02*
X171458333Y-70655952D01*
X171886904Y-70227380D02*
X171315476Y-70798809D01*
%TO.C,D1*%
X162301904Y-133572380D02*
X162301904Y-132572380D01*
X162540000Y-132572380D01*
X162682857Y-132620000D01*
X162778095Y-132715238D01*
X162825714Y-132810476D01*
X162873333Y-133000952D01*
X162873333Y-133143809D01*
X162825714Y-133334285D01*
X162778095Y-133429523D01*
X162682857Y-133524761D01*
X162540000Y-133572380D01*
X162301904Y-133572380D01*
X163825714Y-133572380D02*
X163254285Y-133572380D01*
X163540000Y-133572380D02*
X163540000Y-132572380D01*
X163444761Y-132715238D01*
X163349523Y-132810476D01*
X163254285Y-132858095D01*
%TO.C,AUDIO_IN1*%
X161456209Y-148354599D02*
X161932400Y-148354599D01*
X161360971Y-148640313D02*
X161694305Y-147640313D01*
X162027638Y-148640313D01*
X162360971Y-147640313D02*
X162360971Y-148449837D01*
X162408590Y-148545075D01*
X162456209Y-148592694D01*
X162551447Y-148640313D01*
X162741924Y-148640313D01*
X162837162Y-148592694D01*
X162884781Y-148545075D01*
X162932400Y-148449837D01*
X162932400Y-147640313D01*
X163408590Y-148640313D02*
X163408590Y-147640313D01*
X163646686Y-147640313D01*
X163789543Y-147687933D01*
X163884781Y-147783171D01*
X163932400Y-147878409D01*
X163980019Y-148068885D01*
X163980019Y-148211742D01*
X163932400Y-148402218D01*
X163884781Y-148497456D01*
X163789543Y-148592694D01*
X163646686Y-148640313D01*
X163408590Y-148640313D01*
X164408590Y-148640313D02*
X164408590Y-147640313D01*
X165075257Y-147640313D02*
X165265733Y-147640313D01*
X165360971Y-147687933D01*
X165456209Y-147783171D01*
X165503828Y-147973647D01*
X165503828Y-148306980D01*
X165456209Y-148497456D01*
X165360971Y-148592694D01*
X165265733Y-148640313D01*
X165075257Y-148640313D01*
X164980019Y-148592694D01*
X164884781Y-148497456D01*
X164837162Y-148306980D01*
X164837162Y-147973647D01*
X164884781Y-147783171D01*
X164980019Y-147687933D01*
X165075257Y-147640313D01*
X165694305Y-148735552D02*
X166456209Y-148735552D01*
X166694305Y-148640313D02*
X166694305Y-147640313D01*
X167170495Y-148640313D02*
X167170495Y-147640313D01*
X167741924Y-148640313D01*
X167741924Y-147640313D01*
X168741924Y-148640313D02*
X168170495Y-148640313D01*
X168456209Y-148640313D02*
X168456209Y-147640313D01*
X168360971Y-147783171D01*
X168265733Y-147878409D01*
X168170495Y-147926028D01*
D11*
%TO.C,FEEDBACK_POT1*%
X171759067Y-87710933D02*
X170929067Y-87710933D01*
X169309067Y-87710933D02*
X168779067Y-87710933D01*
X174969067Y-87710933D02*
X173479067Y-87710933D01*
X174969067Y-87710933D02*
X174969067Y-82990933D01*
X166409067Y-87710933D02*
X165229067Y-87710933D01*
X174969067Y-76120933D02*
X165229067Y-76120933D01*
X165229067Y-79180933D02*
X165229067Y-76120933D01*
X165219067Y-87710933D02*
X165219067Y-82990933D01*
X174969067Y-79180933D02*
X174969067Y-76120933D01*
%TO.C,CV1_IN1*%
X164009067Y-119085933D02*
X164009067Y-119885933D01*
X169569067Y-122065933D02*
X165419067Y-122065933D01*
X169569067Y-122065933D02*
X169569067Y-132565933D01*
X164569067Y-132565933D02*
X160569067Y-132565933D01*
X164719067Y-122065933D02*
X160569067Y-122065933D01*
X160569067Y-122065933D02*
X160569067Y-132565933D01*
X164009067Y-119085933D02*
X164869067Y-119085933D01*
X169569067Y-132565933D02*
X165569067Y-132565933D01*
X166869067Y-126565933D02*
G75*
G03*
X166869067Y-126565933I-1800000J0D01*
G01*
%TO.C,AUDIO_OUT1*%
X174039067Y-139207933D02*
X174899067Y-139207933D01*
X174749067Y-142187933D02*
X170599067Y-142187933D01*
X179599067Y-152687933D02*
X175599067Y-152687933D01*
X179599067Y-142187933D02*
X179599067Y-152687933D01*
X174039067Y-139207933D02*
X174039067Y-140007933D01*
X179599067Y-142187933D02*
X175449067Y-142187933D01*
X174599067Y-152687933D02*
X170599067Y-152687933D01*
X170599067Y-142187933D02*
X170599067Y-152687933D01*
X176899067Y-146687933D02*
G75*
G03*
X176899067Y-146687933I-1800000J0D01*
G01*
%TO.C,MOD_POT1*%
X165279067Y-107720933D02*
X165279067Y-103000933D01*
X175029067Y-107720933D02*
X173539067Y-107720933D01*
X175029067Y-107720933D02*
X175029067Y-103000933D01*
X171819067Y-107720933D02*
X170989067Y-107720933D01*
X165289067Y-99190933D02*
X165289067Y-96130933D01*
X166469067Y-107720933D02*
X165289067Y-107720933D01*
X175029067Y-99190933D02*
X175029067Y-96130933D01*
X175029067Y-96130933D02*
X165289067Y-96130933D01*
X169369067Y-107720933D02*
X168839067Y-107720933D01*
%TO.C,LEVEL_POT1*%
X174989067Y-59190933D02*
X174989067Y-56130933D01*
X165239067Y-67720933D02*
X165239067Y-63000933D01*
X166429067Y-67720933D02*
X165249067Y-67720933D01*
X174989067Y-67720933D02*
X173499067Y-67720933D01*
X174989067Y-56130933D02*
X165249067Y-56130933D01*
X171779067Y-67720933D02*
X170949067Y-67720933D01*
X169329067Y-67720933D02*
X168799067Y-67720933D01*
X174989067Y-67720933D02*
X174989067Y-63000933D01*
X165249067Y-59190933D02*
X165249067Y-56130933D01*
%TO.C,D1*%
X163535000Y-134164000D02*
X163535000Y-134320000D01*
X163535000Y-136480000D02*
X163535000Y-136636000D01*
X164054039Y-136480000D02*
G75*
G03*
X166136130Y-136479837I1040961J1080000D01*
G01*
X163535000Y-136635516D02*
G75*
G03*
X166767335Y-136478608I1560000J1235516D01*
G01*
X166767335Y-134321392D02*
G75*
G03*
X163535000Y-134164484I-1672335J-1078608D01*
G01*
X166136130Y-134320163D02*
G75*
G03*
X164054039Y-134320000I-1041130J-1079837D01*
G01*
%TO.C,AUDIO_IN1*%
X164039067Y-139207933D02*
X164899067Y-139207933D01*
X169599067Y-152687933D02*
X165599067Y-152687933D01*
X164749067Y-142187933D02*
X160599067Y-142187933D01*
X169599067Y-142187933D02*
X169599067Y-152687933D01*
X164599067Y-152687933D02*
X160599067Y-152687933D01*
X160599067Y-142187933D02*
X160599067Y-152687933D01*
X164039067Y-139207933D02*
X164039067Y-140007933D01*
X169599067Y-142187933D02*
X165449067Y-142187933D01*
X166899067Y-146687933D02*
G75*
G03*
X166899067Y-146687933I-1800000J0D01*
G01*
%TD*%
M02*
