%TF.GenerationSoftware,KiCad,Pcbnew,6.0.11+dfsg-1~bpo11+1*%
%TF.CreationDate,2023-04-14T10:24:11+08:00*%
%TF.ProjectId,MiniVerb - Main,4d696e69-5665-4726-9220-2d204d61696e,rev?*%
%TF.SameCoordinates,Original*%
%TF.FileFunction,Copper,L2,Bot*%
%TF.FilePolarity,Positive*%
%FSLAX46Y46*%
G04 Gerber Fmt 4.6, Leading zero omitted, Abs format (unit mm)*
G04 Created by KiCad (PCBNEW 6.0.11+dfsg-1~bpo11+1) date 2023-04-14 10:24:11*
%MOMM*%
%LPD*%
G01*
G04 APERTURE LIST*
G04 Aperture macros list*
%AMRoundRect*
0 Rectangle with rounded corners*
0 $1 Rounding radius*
0 $2 $3 $4 $5 $6 $7 $8 $9 X,Y pos of 4 corners*
0 Add a 4 corners polygon primitive as box body*
4,1,4,$2,$3,$4,$5,$6,$7,$8,$9,$2,$3,0*
0 Add four circle primitives for the rounded corners*
1,1,$1+$1,$2,$3*
1,1,$1+$1,$4,$5*
1,1,$1+$1,$6,$7*
1,1,$1+$1,$8,$9*
0 Add four rect primitives between the rounded corners*
20,1,$1+$1,$2,$3,$4,$5,0*
20,1,$1+$1,$4,$5,$6,$7,0*
20,1,$1+$1,$6,$7,$8,$9,0*
20,1,$1+$1,$8,$9,$2,$3,0*%
G04 Aperture macros list end*
%TA.AperFunction,ComponentPad*%
%ADD10R,1.800000X1.800000*%
%TD*%
%TA.AperFunction,ComponentPad*%
%ADD11C,1.800000*%
%TD*%
%TA.AperFunction,ComponentPad*%
%ADD12R,1.930000X1.830000*%
%TD*%
%TA.AperFunction,ComponentPad*%
%ADD13C,2.130000*%
%TD*%
%TA.AperFunction,SMDPad,CuDef*%
%ADD14RoundRect,0.237500X-0.237500X0.250000X-0.237500X-0.250000X0.237500X-0.250000X0.237500X0.250000X0*%
%TD*%
%TA.AperFunction,SMDPad,CuDef*%
%ADD15RoundRect,0.237500X-0.250000X-0.237500X0.250000X-0.237500X0.250000X0.237500X-0.250000X0.237500X0*%
%TD*%
%TA.AperFunction,SMDPad,CuDef*%
%ADD16RoundRect,0.150000X0.512500X0.150000X-0.512500X0.150000X-0.512500X-0.150000X0.512500X-0.150000X0*%
%TD*%
%TA.AperFunction,SMDPad,CuDef*%
%ADD17RoundRect,0.237500X0.300000X0.237500X-0.300000X0.237500X-0.300000X-0.237500X0.300000X-0.237500X0*%
%TD*%
%TA.AperFunction,SMDPad,CuDef*%
%ADD18RoundRect,0.237500X-0.300000X-0.237500X0.300000X-0.237500X0.300000X0.237500X-0.300000X0.237500X0*%
%TD*%
%TA.AperFunction,SMDPad,CuDef*%
%ADD19RoundRect,0.150000X0.587500X0.150000X-0.587500X0.150000X-0.587500X-0.150000X0.587500X-0.150000X0*%
%TD*%
%TA.AperFunction,SMDPad,CuDef*%
%ADD20RoundRect,0.237500X0.250000X0.237500X-0.250000X0.237500X-0.250000X-0.237500X0.250000X-0.237500X0*%
%TD*%
%TA.AperFunction,SMDPad,CuDef*%
%ADD21RoundRect,0.250000X-0.475000X0.337500X-0.475000X-0.337500X0.475000X-0.337500X0.475000X0.337500X0*%
%TD*%
%TA.AperFunction,SMDPad,CuDef*%
%ADD22RoundRect,0.150000X0.825000X0.150000X-0.825000X0.150000X-0.825000X-0.150000X0.825000X-0.150000X0*%
%TD*%
%TA.AperFunction,SMDPad,CuDef*%
%ADD23RoundRect,0.237500X0.237500X-0.300000X0.237500X0.300000X-0.237500X0.300000X-0.237500X-0.300000X0*%
%TD*%
%TA.AperFunction,SMDPad,CuDef*%
%ADD24RoundRect,0.237500X0.237500X-0.250000X0.237500X0.250000X-0.237500X0.250000X-0.237500X-0.250000X0*%
%TD*%
%TA.AperFunction,ComponentPad*%
%ADD25RoundRect,0.250000X-0.600000X-0.600000X0.600000X-0.600000X0.600000X0.600000X-0.600000X0.600000X0*%
%TD*%
%TA.AperFunction,ComponentPad*%
%ADD26C,1.700000*%
%TD*%
%TA.AperFunction,ComponentPad*%
%ADD27R,1.700000X1.700000*%
%TD*%
%TA.AperFunction,SMDPad,CuDef*%
%ADD28RoundRect,0.237500X-0.237500X0.300000X-0.237500X-0.300000X0.237500X-0.300000X0.237500X0.300000X0*%
%TD*%
%TA.AperFunction,SMDPad,CuDef*%
%ADD29RoundRect,0.250000X0.475000X-0.337500X0.475000X0.337500X-0.475000X0.337500X-0.475000X-0.337500X0*%
%TD*%
%TA.AperFunction,ViaPad*%
%ADD30C,0.800000*%
%TD*%
%TA.AperFunction,Conductor*%
%ADD31C,0.500000*%
%TD*%
%TA.AperFunction,Conductor*%
%ADD32C,0.200000*%
%TD*%
%TA.AperFunction,Conductor*%
%ADD33C,0.250000*%
%TD*%
G04 APERTURE END LIST*
D10*
%TO.P,FEEDBACK_POT1,1,1*%
%TO.N,GND*%
X167599067Y-88590933D03*
D11*
%TO.P,FEEDBACK_POT1,2,2*%
%TO.N,FEEDBACK*%
X170099067Y-88590933D03*
%TO.P,FEEDBACK_POT1,3,3*%
%TO.N,3V3_A*%
X172599067Y-88590933D03*
%TD*%
D12*
%TO.P,CV1_IN1,S*%
%TO.N,GND*%
X165069067Y-120085933D03*
D13*
%TO.P,CV1_IN1,T*%
%TO.N,Net-(C10-Pad1)*%
X165069067Y-131485933D03*
%TO.P,CV1_IN1,TN*%
%TO.N,unconnected-(CV1_IN1-PadTN)*%
X165069067Y-123185933D03*
%TD*%
D12*
%TO.P,AUDIO_OUT1,S*%
%TO.N,GND*%
X175099067Y-140207933D03*
D13*
%TO.P,AUDIO_OUT1,T*%
%TO.N,Net-(AUDIO_OUT1-PadT)*%
X175099067Y-151607933D03*
%TO.P,AUDIO_OUT1,TN*%
%TO.N,unconnected-(AUDIO_OUT1-PadTN)*%
X175099067Y-143307933D03*
%TD*%
D10*
%TO.P,MOD_POT1,1,1*%
%TO.N,GND*%
X167659067Y-108600933D03*
D11*
%TO.P,MOD_POT1,2,2*%
%TO.N,MOD*%
X170159067Y-108600933D03*
%TO.P,MOD_POT1,3,3*%
%TO.N,3V3_A*%
X172659067Y-108600933D03*
%TD*%
D10*
%TO.P,LEVEL_POT1,1,1*%
%TO.N,GND*%
X167619067Y-68600933D03*
D11*
%TO.P,LEVEL_POT1,2,2*%
%TO.N,LEVEL*%
X170119067Y-68600933D03*
%TO.P,LEVEL_POT1,3,3*%
%TO.N,3V3_A*%
X172619067Y-68600933D03*
%TD*%
D10*
%TO.P,D1,1,K*%
%TO.N,GND*%
X163825000Y-135400000D03*
D11*
%TO.P,D1,2,A*%
%TO.N,Net-(D1-Pad2)*%
X166365000Y-135400000D03*
%TD*%
D12*
%TO.P,AUDIO_IN1,S*%
%TO.N,GND*%
X165099067Y-140207933D03*
D13*
%TO.P,AUDIO_IN1,T*%
%TO.N,Net-(AUDIO_IN1-PadT)*%
X165099067Y-151607933D03*
%TO.P,AUDIO_IN1,TN*%
%TO.N,unconnected-(AUDIO_IN1-PadTN)*%
X165099067Y-143307933D03*
%TD*%
D14*
%TO.P,R2,1*%
%TO.N,Net-(C2-Pad2)*%
X163760000Y-103052500D03*
%TO.P,R2,2*%
%TO.N,Net-(AUDIO_IN1-PadT)*%
X163760000Y-104877500D03*
%TD*%
%TO.P,R12,1*%
%TO.N,-12V*%
X171649067Y-114633433D03*
%TO.P,R12,2*%
%TO.N,AREF_-10*%
X171649067Y-116458433D03*
%TD*%
D15*
%TO.P,R9,1*%
%TO.N,Net-(AUDIO_OUT1-PadT)*%
X174572446Y-109524312D03*
%TO.P,R9,2*%
%TO.N,Net-(C4-Pad1)*%
X176397446Y-109524312D03*
%TD*%
D16*
%TO.P,U3,1*%
%TO.N,CV1*%
X163836567Y-111170933D03*
%TO.P,U3,2,V-*%
%TO.N,GND*%
X163836567Y-112120933D03*
%TO.P,U3,3,+*%
X163836567Y-113070933D03*
%TO.P,U3,4,-*%
%TO.N,Net-(C14-Pad2)*%
X161561567Y-113070933D03*
%TO.P,U3,5,V+*%
%TO.N,3V3_A*%
X161561567Y-111170933D03*
%TD*%
D17*
%TO.P,C3,1*%
%TO.N,Net-(C3-Pad1)*%
X170195000Y-94105000D03*
%TO.P,C3,2*%
%TO.N,Net-(C3-Pad2)*%
X168470000Y-94105000D03*
%TD*%
D18*
%TO.P,C1,1*%
%TO.N,Net-(C1-Pad1)*%
X169237500Y-79530000D03*
%TO.P,C1,2*%
%TO.N,Net-(C1-Pad2)*%
X170962500Y-79530000D03*
%TD*%
D15*
%TO.P,R6,1*%
%TO.N,Net-(C4-Pad2)*%
X172487500Y-95250000D03*
%TO.P,R6,2*%
%TO.N,Net-(C1-Pad1)*%
X174312500Y-95250000D03*
%TD*%
D17*
%TO.P,C13,1*%
%TO.N,3V3_A*%
X175749067Y-51345933D03*
%TO.P,C13,2*%
%TO.N,GND*%
X174024067Y-51345933D03*
%TD*%
D15*
%TO.P,R13,1*%
%TO.N,Net-(C14-Pad2)*%
X161399067Y-114620933D03*
%TO.P,R13,2*%
%TO.N,AREF_-10*%
X163224067Y-114620933D03*
%TD*%
D19*
%TO.P,U2,1,K*%
%TO.N,GND*%
X169861567Y-114545933D03*
%TO.P,U2,2,A*%
%TO.N,AREF_-10*%
X169861567Y-116445933D03*
%TO.P,U2,3*%
%TO.N,N/C*%
X167986567Y-115495933D03*
%TD*%
D20*
%TO.P,R1,1*%
%TO.N,Net-(C1-Pad2)*%
X171012500Y-78000000D03*
%TO.P,R1,2*%
%TO.N,INT_AUDIO_OUT1*%
X169187500Y-78000000D03*
%TD*%
%TO.P,R5,1*%
%TO.N,Net-(C3-Pad2)*%
X170237500Y-106475000D03*
%TO.P,R5,2*%
%TO.N,Net-(C2-Pad1)*%
X168412500Y-106475000D03*
%TD*%
D21*
%TO.P,C5,1*%
%TO.N,+12V*%
X177449067Y-114308433D03*
%TO.P,C5,2*%
%TO.N,GND*%
X177449067Y-116383433D03*
%TD*%
D22*
%TO.P,U1,1*%
%TO.N,Net-(C1-Pad1)*%
X173844067Y-97235933D03*
%TO.P,U1,2,-*%
%TO.N,Net-(C1-Pad2)*%
X173844067Y-98505933D03*
%TO.P,U1,3,+*%
%TO.N,GND*%
X173844067Y-99775933D03*
%TO.P,U1,4,V+*%
%TO.N,+12V*%
X173844067Y-101045933D03*
%TO.P,U1,5,+*%
%TO.N,GND*%
X173844067Y-102315933D03*
%TO.P,U1,6,-*%
%TO.N,Net-(C4-Pad2)*%
X173844067Y-103585933D03*
%TO.P,U1,7*%
%TO.N,Net-(C4-Pad1)*%
X173844067Y-104855933D03*
%TO.P,U1,8*%
%TO.N,Net-(C2-Pad1)*%
X168894067Y-104855933D03*
%TO.P,U1,9,-*%
%TO.N,Net-(C2-Pad2)*%
X168894067Y-103585933D03*
%TO.P,U1,10,+*%
%TO.N,GND*%
X168894067Y-102315933D03*
%TO.P,U1,11,V-*%
%TO.N,-12V*%
X168894067Y-101045933D03*
%TO.P,U1,12,+*%
%TO.N,GND*%
X168894067Y-99775933D03*
%TO.P,U1,13,-*%
%TO.N,Net-(C3-Pad2)*%
X168894067Y-98505933D03*
%TO.P,U1,14*%
%TO.N,Net-(C3-Pad1)*%
X168894067Y-97235933D03*
%TD*%
D23*
%TO.P,C2,1*%
%TO.N,Net-(C2-Pad1)*%
X165300000Y-104837500D03*
%TO.P,C2,2*%
%TO.N,Net-(C2-Pad2)*%
X165300000Y-103112500D03*
%TD*%
D17*
%TO.P,C10,1*%
%TO.N,Net-(C10-Pad1)*%
X163174067Y-117670933D03*
%TO.P,C10,2*%
%TO.N,GND*%
X161449067Y-117670933D03*
%TD*%
D24*
%TO.P,R4,1*%
%TO.N,Net-(C2-Pad1)*%
X166860000Y-104887500D03*
%TO.P,R4,2*%
%TO.N,Net-(C2-Pad2)*%
X166860000Y-103062500D03*
%TD*%
D17*
%TO.P,C7,1*%
%TO.N,+12V*%
X178686567Y-104220933D03*
%TO.P,C7,2*%
%TO.N,GND*%
X176961567Y-104220933D03*
%TD*%
D25*
%TO.P,J1,1,Pin_1*%
%TO.N,Net-(FB2-Pad1)*%
X173846567Y-133056933D03*
D26*
%TO.P,J1,2,Pin_2*%
X176386567Y-133056933D03*
%TO.P,J1,3,Pin_3*%
%TO.N,GND*%
X173846567Y-130516933D03*
%TO.P,J1,4,Pin_4*%
X176386567Y-130516933D03*
%TO.P,J1,5,Pin_5*%
X173846567Y-127976933D03*
%TO.P,J1,6,Pin_6*%
X176386567Y-127976933D03*
%TO.P,J1,7,Pin_7*%
X173846567Y-125436933D03*
%TO.P,J1,8,Pin_8*%
X176386567Y-125436933D03*
%TO.P,J1,9,Pin_9*%
%TO.N,Net-(FB1-Pad1)*%
X173846567Y-122896933D03*
%TO.P,J1,10,Pin_10*%
X176386567Y-122896933D03*
%TD*%
D15*
%TO.P,R16,1*%
%TO.N,Net-(C14-Pad2)*%
X161399067Y-116145933D03*
%TO.P,R16,2*%
%TO.N,Net-(C10-Pad1)*%
X163224067Y-116145933D03*
%TD*%
D27*
%TO.P,A1,1,USB_HS_ID*%
%TO.N,unconnected-(A1-Pad1)*%
X162660000Y-100095933D03*
D26*
%TO.P,A1,2,SDMMC1_D3*%
%TO.N,unconnected-(A1-Pad2)*%
X162660000Y-97555933D03*
%TO.P,A1,3,SDMMC1_D2*%
%TO.N,unconnected-(A1-Pad3)*%
X162660000Y-95015933D03*
%TO.P,A1,4,SDMMC1_D1*%
%TO.N,unconnected-(A1-Pad4)*%
X162660000Y-92475933D03*
%TO.P,A1,5,SDMMC1_D0*%
%TO.N,unconnected-(A1-Pad5)*%
X162660000Y-89935933D03*
%TO.P,A1,6,SDMMC1_CMD*%
%TO.N,unconnected-(A1-Pad6)*%
X162660000Y-87395933D03*
%TO.P,A1,7,SDMMC1_CK*%
%TO.N,unconnected-(A1-Pad7)*%
X162660000Y-84855933D03*
%TO.P,A1,8,SPI1_NSS*%
%TO.N,unconnected-(A1-Pad8)*%
X162660000Y-82315933D03*
%TO.P,A1,9,SPI1_SCK*%
%TO.N,unconnected-(A1-Pad9)*%
X162660000Y-79775933D03*
%TO.P,A1,10,SPI1_MISO*%
%TO.N,unconnected-(A1-Pad10)*%
X162660000Y-77235933D03*
%TO.P,A1,11,SPI1_MOSI*%
%TO.N,unconnected-(A1-Pad11)*%
X162660000Y-74695933D03*
%TO.P,A1,12,I2C1_SCL*%
%TO.N,unconnected-(A1-Pad12)*%
X162660000Y-72155933D03*
%TO.P,A1,13,I2C1_SDA*%
%TO.N,unconnected-(A1-Pad13)*%
X162660000Y-69615933D03*
%TO.P,A1,14,USART1_TX*%
%TO.N,unconnected-(A1-Pad14)*%
X162660000Y-67075933D03*
%TO.P,A1,15,USART1_RX*%
%TO.N,unconnected-(A1-Pad15)*%
X162660000Y-64535933D03*
%TO.P,A1,16,AUDIO_IN_L*%
%TO.N,INT_AUDIO_IN1*%
X162660000Y-61995933D03*
%TO.P,A1,17,AUDIO_IN_R*%
%TO.N,unconnected-(A1-Pad17)*%
X162660000Y-59455933D03*
%TO.P,A1,18,AUDIO_OUT_L*%
%TO.N,INT_AUDIO_OUT1*%
X162660000Y-56915933D03*
%TO.P,A1,19,AUDIO_OUT_R*%
%TO.N,unconnected-(A1-Pad19)*%
X162660000Y-54375933D03*
%TO.P,A1,20,AGND*%
%TO.N,GND*%
X162660000Y-51835933D03*
%TO.P,A1,21,3V3_A*%
%TO.N,3V3_A*%
X177900000Y-51835933D03*
%TO.P,A1,22,ADC_INP10*%
%TO.N,LEVEL*%
X177900000Y-54375933D03*
%TO.P,A1,23,ADC_INP15*%
%TO.N,FEEDBACK*%
X177900000Y-56915933D03*
%TO.P,A1,24,ADC_INP5*%
%TO.N,MOD*%
X177900000Y-59455933D03*
%TO.P,A1,25,ADC_INP7*%
%TO.N,unconnected-(A1-Pad25)*%
X177900000Y-61995933D03*
%TO.P,A1,26,ADC_INP3*%
%TO.N,CV1*%
X177900000Y-64535933D03*
%TO.P,A1,27,ADC_INP11*%
%TO.N,unconnected-(A1-Pad27)*%
X177900000Y-67075933D03*
%TO.P,A1,28,ADC1_INP4*%
%TO.N,unconnected-(A1-Pad28)*%
X177900000Y-69615933D03*
%TO.P,A1,29,DAC1_OUT2*%
%TO.N,unconnected-(A1-Pad29)*%
X177900000Y-72155933D03*
%TO.P,A1,30,DAC1_OUT1*%
%TO.N,LED*%
X177900000Y-74695933D03*
%TO.P,A1,31,SAI2_MCLK_B*%
%TO.N,unconnected-(A1-Pad31)*%
X177900000Y-77235933D03*
%TO.P,A1,32,SAI2_SD_B*%
%TO.N,unconnected-(A1-Pad32)*%
X177900000Y-79775933D03*
%TO.P,A1,33,SAI2_SD_A*%
%TO.N,unconnected-(A1-Pad33)*%
X177900000Y-82315933D03*
%TO.P,A1,34,SAI2_FS_B*%
%TO.N,unconnected-(A1-Pad34)*%
X177900000Y-84855933D03*
%TO.P,A1,35,SAI2_SCK_B*%
%TO.N,unconnected-(A1-Pad35)*%
X177900000Y-87395933D03*
%TO.P,A1,36,USB_HS_D_-*%
%TO.N,unconnected-(A1-Pad36)*%
X177900000Y-89935933D03*
%TO.P,A1,37,USB_HS_D_+*%
%TO.N,unconnected-(A1-Pad37)*%
X177900000Y-92475933D03*
%TO.P,A1,38,3V3_D*%
%TO.N,unconnected-(A1-Pad38)*%
X177900000Y-95015933D03*
%TO.P,A1,39,VIN*%
%TO.N,+12V*%
X177900000Y-97555933D03*
%TO.P,A1,40,GND*%
%TO.N,GND*%
X177900000Y-100095933D03*
%TD*%
D24*
%TO.P,R11,1*%
%TO.N,Net-(D1-Pad2)*%
X168350000Y-136231250D03*
%TO.P,R11,2*%
%TO.N,LED*%
X168350000Y-134406250D03*
%TD*%
D15*
%TO.P,R8,1*%
%TO.N,Net-(C4-Pad1)*%
X174592446Y-106474312D03*
%TO.P,R8,2*%
%TO.N,Net-(C4-Pad2)*%
X176417446Y-106474312D03*
%TD*%
D18*
%TO.P,C4,1*%
%TO.N,Net-(C4-Pad1)*%
X174622446Y-107994312D03*
%TO.P,C4,2*%
%TO.N,Net-(C4-Pad2)*%
X176347446Y-107994312D03*
%TD*%
D20*
%TO.P,R7,1*%
%TO.N,Net-(C3-Pad1)*%
X170245000Y-95635000D03*
%TO.P,R7,2*%
%TO.N,Net-(C3-Pad2)*%
X168420000Y-95635000D03*
%TD*%
D14*
%TO.P,R17,1*%
%TO.N,CV1*%
X167074067Y-111158433D03*
%TO.P,R17,2*%
%TO.N,Net-(C14-Pad2)*%
X167074067Y-112983433D03*
%TD*%
D23*
%TO.P,FB1,1*%
%TO.N,Net-(FB1-Pad1)*%
X179224067Y-116428433D03*
%TO.P,FB1,2*%
%TO.N,+12V*%
X179224067Y-114703433D03*
%TD*%
D28*
%TO.P,C14,1*%
%TO.N,CV1*%
X165549067Y-111208433D03*
%TO.P,C14,2*%
%TO.N,Net-(C14-Pad2)*%
X165549067Y-112933433D03*
%TD*%
D17*
%TO.P,C9,1*%
%TO.N,AREF_-10*%
X169311567Y-118020933D03*
%TO.P,C9,2*%
%TO.N,GND*%
X167586567Y-118020933D03*
%TD*%
D15*
%TO.P,R10,1*%
%TO.N,INT_AUDIO_IN1*%
X168400000Y-92585000D03*
%TO.P,R10,2*%
%TO.N,Net-(C3-Pad1)*%
X170225000Y-92585000D03*
%TD*%
D28*
%TO.P,C8,1*%
%TO.N,GND*%
X166849067Y-99333433D03*
%TO.P,C8,2*%
%TO.N,-12V*%
X166849067Y-101058433D03*
%TD*%
D29*
%TO.P,C6,1*%
%TO.N,GND*%
X174974067Y-116383433D03*
%TO.P,C6,2*%
%TO.N,-12V*%
X174974067Y-114308433D03*
%TD*%
D15*
%TO.P,R3,1*%
%TO.N,Net-(C1-Pad1)*%
X169197500Y-81060000D03*
%TO.P,R3,2*%
%TO.N,Net-(C1-Pad2)*%
X171022500Y-81060000D03*
%TD*%
D23*
%TO.P,FB2,1*%
%TO.N,Net-(FB2-Pad1)*%
X173174067Y-116408433D03*
%TO.P,FB2,2*%
%TO.N,-12V*%
X173174067Y-114683433D03*
%TD*%
D30*
%TO.N,GND*%
X168074067Y-114120933D03*
X163824067Y-112120933D03*
X164649067Y-128045933D03*
X174899067Y-117895933D03*
X162049067Y-124445933D03*
X177549067Y-118295933D03*
X164099067Y-133795933D03*
X177199067Y-119345933D03*
X162799067Y-131945933D03*
X168549067Y-122095933D03*
X164549067Y-126745933D03*
X162649067Y-112120933D03*
X170749067Y-72995933D03*
X169149067Y-121145933D03*
X167999067Y-102320933D03*
X164974067Y-99670933D03*
X175549067Y-121195933D03*
X161999067Y-125845933D03*
X164899067Y-96945933D03*
X167299067Y-124795933D03*
X171099067Y-74745933D03*
X162049067Y-121545933D03*
X165049067Y-129095933D03*
X176599067Y-120445933D03*
X169799067Y-120295933D03*
X162099067Y-122945933D03*
X168899067Y-102320933D03*
X168874067Y-99745933D03*
X177924067Y-109220933D03*
X166874067Y-99295933D03*
X164499067Y-125495933D03*
X167999067Y-120545933D03*
X168949067Y-113170933D03*
X172799067Y-120495933D03*
X168049067Y-123345933D03*
X165076820Y-101025500D03*
X165074067Y-98395933D03*
X166049067Y-70745933D03*
X162099067Y-120245933D03*
X162049067Y-127345933D03*
X174299067Y-118845933D03*
X177774067Y-105720933D03*
X171149067Y-71745933D03*
X162899067Y-130745933D03*
X167199067Y-122845933D03*
X170999067Y-70695933D03*
X169824067Y-102295933D03*
X170649067Y-119645933D03*
X166299067Y-97370933D03*
X170549067Y-76445933D03*
X167399067Y-121695933D03*
X167974067Y-99720933D03*
X163199067Y-133095933D03*
X169974067Y-112470933D03*
X177899067Y-107495933D03*
X173549067Y-119745933D03*
X169749067Y-99745933D03*
%TO.N,LED*%
X168350002Y-133093750D03*
%TO.N,3V3_A*%
X162349067Y-110195933D03*
X171724068Y-105220934D03*
%TO.N,FEEDBACK*%
X173470000Y-85220000D03*
%TO.N,Net-(AUDIO_IN1-PadT)*%
X162825000Y-106225000D03*
%TO.N,Net-(AUDIO_OUT1-PadT)*%
X175649067Y-118945933D03*
%TO.N,CV1*%
X168574067Y-111145933D03*
%TD*%
D31*
%TO.N,+12V*%
X178686567Y-104220933D02*
X176690668Y-102225034D01*
X179224067Y-114703433D02*
X178402681Y-114703433D01*
X179449067Y-99105000D02*
X179449067Y-102380096D01*
X179224067Y-105518572D02*
X179224067Y-114703433D01*
X178686575Y-104220941D02*
G75*
G03*
X179449067Y-102380096I-1840875J1840841D01*
G01*
X173844067Y-101045947D02*
G75*
G02*
X176690668Y-102225034I33J-4025653D01*
G01*
X177449072Y-114308428D02*
G75*
G03*
X178402681Y-114703433I953628J953628D01*
G01*
X179449067Y-99105000D02*
G75*
G03*
X177900000Y-97555933I-1549067J0D01*
G01*
X179224078Y-105518572D02*
G75*
G03*
X178686567Y-104220933I-1835178J-28D01*
G01*
D32*
%TO.N,LED*%
X168350000Y-133093750D02*
X168350000Y-134406250D01*
D31*
%TO.N,3V3_A*%
X161561567Y-111170933D02*
X162216484Y-110516015D01*
X177900000Y-51835933D02*
X176932031Y-51835933D01*
X171849102Y-105349247D02*
X171724068Y-105224213D01*
X172659067Y-108600933D02*
X172659067Y-107478222D01*
X171724068Y-105224213D02*
X171724068Y-105220934D01*
X162349089Y-110195933D02*
G75*
G02*
X162216484Y-110516015I-452689J33D01*
G01*
X171849085Y-105349262D02*
G75*
G02*
X172659067Y-107478222I-2403085J-2132838D01*
G01*
X175749058Y-51345942D02*
G75*
G03*
X176932031Y-51835933I1182942J1182942D01*
G01*
D32*
%TO.N,INT_AUDIO_OUT1*%
X164879067Y-59135000D02*
X164879067Y-73691567D01*
X162660000Y-56915933D02*
G75*
G02*
X164879067Y-59135000I0J-2219067D01*
G01*
X169187500Y-78000033D02*
G75*
G02*
X164879067Y-73691567I0J4308433D01*
G01*
%TO.N,INT_AUDIO_IN1*%
X168380806Y-92604194D02*
X165459184Y-92604194D01*
X164469067Y-91521053D02*
X164469067Y-63805000D01*
X168400000Y-92585000D02*
X168380806Y-92604194D01*
X162660000Y-61995933D02*
G75*
G02*
X164469067Y-63805000I0J-1809067D01*
G01*
X164469071Y-91521053D02*
G75*
G03*
X165459184Y-92604194I1089429J1753D01*
G01*
%TO.N,FEEDBACK*%
X170099067Y-88590933D02*
X173470000Y-85220000D01*
%TO.N,Net-(AUDIO_IN1-PadT)*%
X162825000Y-106225000D02*
X163468318Y-105581682D01*
X163759989Y-104877500D02*
G75*
G02*
X163468318Y-105581682I-995889J0D01*
G01*
D33*
%TO.N,Net-(AUDIO_OUT1-PadT)*%
X175523505Y-111820370D02*
X175574067Y-111870933D01*
X176199067Y-113379816D02*
X176199067Y-117618116D01*
X175649049Y-118945915D02*
G75*
G03*
X176199067Y-117618116I-1327749J1327815D01*
G01*
X176199060Y-113379816D02*
G75*
G03*
X175574067Y-111870933I-2133860J16D01*
G01*
X175523503Y-111820372D02*
G75*
G02*
X174572446Y-109524312I2296097J2296072D01*
G01*
D32*
%TO.N,Net-(C1-Pad1)*%
X175050000Y-94400000D02*
X175050000Y-96030000D01*
X175050000Y-94512500D02*
X175050000Y-94400000D01*
X169197500Y-81060000D02*
X170868001Y-82730501D01*
X169237500Y-79530000D02*
X169237500Y-81020000D01*
X175050000Y-85400000D02*
X175050000Y-94400000D01*
X173450000Y-83799999D02*
G75*
G02*
X170868001Y-82730501I0J3651499D01*
G01*
X175050000Y-85400000D02*
G75*
G03*
X173450000Y-83800000I-1600000J0D01*
G01*
X173844067Y-97235900D02*
G75*
G03*
X175050000Y-96030000I33J1205900D01*
G01*
X175050000Y-94512500D02*
G75*
G02*
X174312500Y-95250000I-737500J0D01*
G01*
X169197500Y-81060000D02*
G75*
G03*
X169237500Y-81020000I0J40000D01*
G01*
%TO.N,Net-(C1-Pad2)*%
X171012500Y-78000000D02*
X171012500Y-81050000D01*
X174279067Y-98505933D02*
X173844067Y-98505933D01*
X175479067Y-85429067D02*
X175479067Y-97305933D01*
X173162500Y-83200000D02*
X173250000Y-83200000D01*
X171022500Y-81060000D02*
G75*
G02*
X171012500Y-81050000I0J10000D01*
G01*
X174279067Y-98505867D02*
G75*
G03*
X175479067Y-97305933I33J1199967D01*
G01*
X175479100Y-85429067D02*
G75*
G03*
X173250000Y-83200000I-2229100J-33D01*
G01*
X173162500Y-83200000D02*
G75*
G02*
X171022500Y-81060000I0J2140000D01*
G01*
%TO.N,Net-(C2-Pad1)*%
X168894067Y-104855933D02*
X165344501Y-104855933D01*
X168894067Y-104855933D02*
X168894067Y-105312395D01*
X165300000Y-104837500D02*
G75*
G03*
X165344501Y-104855933I44500J44500D01*
G01*
X168412502Y-106475002D02*
G75*
G03*
X168894067Y-105312395I-1162602J1162602D01*
G01*
%TO.N,Net-(C2-Pad2)*%
X163760000Y-103052500D02*
X167606246Y-103052500D01*
X168894054Y-103585946D02*
G75*
G03*
X167606246Y-103052500I-1287854J-1287854D01*
G01*
%TO.N,Net-(C4-Pad1)*%
X174592446Y-106474312D02*
X174592446Y-107921886D01*
X175040687Y-108167553D02*
X176397446Y-109524312D01*
X173844067Y-104855933D02*
X173977263Y-104989129D01*
X174592443Y-106474312D02*
G75*
G03*
X173977263Y-104989129I-2100343J12D01*
G01*
%TO.N,Net-(C4-Pad2)*%
X171850000Y-96789061D02*
X171850000Y-101933262D01*
X173844067Y-103585933D02*
X174185463Y-103585933D01*
X176417446Y-106474312D02*
X176417446Y-107825318D01*
X174185463Y-103585933D02*
X175953303Y-105353773D01*
X173502671Y-103585933D02*
X173844067Y-103585933D01*
X173502671Y-103586000D02*
G75*
G02*
X171850000Y-101933262I29J1652700D01*
G01*
X171849984Y-96789061D02*
G75*
G02*
X172487500Y-95250000I2176616J-39D01*
G01*
X176417447Y-106474312D02*
G75*
G03*
X175953303Y-105353773I-1584647J12D01*
G01*
D31*
%TO.N,-12V*%
X166032500Y-101875000D02*
X162775000Y-101875000D01*
X166849067Y-101058433D02*
X168881567Y-101058433D01*
X170995097Y-111495994D02*
X172460972Y-112961869D01*
X162041942Y-107341941D02*
X163910865Y-109210865D01*
X161598194Y-103051806D02*
X161598194Y-106273194D01*
X173174067Y-114683433D02*
X171769777Y-114683433D01*
X161598194Y-106273194D02*
X161600000Y-106275000D01*
X174068737Y-114683433D02*
X173174067Y-114683433D01*
X166849067Y-101058433D02*
X166032500Y-101875000D01*
X165804688Y-109995312D02*
X167360664Y-109995312D01*
X168894133Y-101045933D02*
G75*
G02*
X168881567Y-101058433I-12533J33D01*
G01*
X165804688Y-109995308D02*
G75*
G02*
X163910865Y-109210865I12J2678308D01*
G01*
X173174041Y-114683433D02*
G75*
G03*
X172460972Y-112961869I-2434641J33D01*
G01*
X174068737Y-114683458D02*
G75*
G03*
X174974067Y-114308433I-37J1280358D01*
G01*
X170995089Y-111496002D02*
G75*
G03*
X167360664Y-109995312I-3872489J-4227198D01*
G01*
X162041938Y-107341945D02*
G75*
G02*
X161600000Y-106275000I1066962J1066945D01*
G01*
X161598200Y-103051806D02*
G75*
G02*
X162775000Y-101875000I1176800J6D01*
G01*
X171649074Y-114633426D02*
G75*
G03*
X171769777Y-114683433I120726J120726D01*
G01*
D32*
%TO.N,Net-(D1-Pad2)*%
X166380425Y-135415426D02*
X166365000Y-135400000D01*
X166380415Y-135415436D02*
G75*
G03*
X168350000Y-136231250I1969585J1969636D01*
G01*
%TO.N,Net-(C3-Pad1)*%
X170225000Y-92585000D02*
X170225000Y-94075000D01*
X170195000Y-94105000D02*
X170195000Y-95585000D01*
X170245000Y-95635000D02*
X170245000Y-95885000D01*
X168894067Y-97235900D02*
G75*
G03*
X170245000Y-95885000I33J1350900D01*
G01*
%TO.N,Net-(C3-Pad2)*%
X168470000Y-94105000D02*
X168470000Y-95585000D01*
X168420000Y-95635000D02*
X168415000Y-95635000D01*
X170549067Y-100160933D02*
X170549067Y-105722811D01*
X167550000Y-96500000D02*
X167550000Y-97161866D01*
X170237497Y-106474997D02*
G75*
G03*
X170549067Y-105722811I-752197J752197D01*
G01*
X168894067Y-98506000D02*
G75*
G02*
X167550000Y-97161866I33J1344100D01*
G01*
X167550000Y-96500000D02*
G75*
G02*
X168415000Y-95635000I865000J0D01*
G01*
X170549067Y-100160933D02*
G75*
G03*
X168894067Y-98505933I-1654967J33D01*
G01*
%TO.N,CV1*%
X168574067Y-111145933D02*
X163861567Y-111145933D01*
X163836633Y-111170933D02*
G75*
G02*
X163861567Y-111145933I24967J33D01*
G01*
%TO.N,LEVEL*%
X170119067Y-60975933D02*
X170119067Y-68600933D01*
X177900000Y-54375933D02*
X176719067Y-54375933D01*
X170119133Y-60975933D02*
G75*
G02*
X176719067Y-54375933I6599967J33D01*
G01*
D31*
%TO.N,AREF_-10*%
X171649067Y-116458433D02*
X169874067Y-116458433D01*
X166149067Y-115895083D02*
X166149067Y-115245933D01*
X169311567Y-116995933D02*
X169311567Y-118020933D01*
X163256327Y-114653193D02*
X163224067Y-114620933D01*
X169861567Y-116445933D02*
X166699917Y-116445933D01*
X165731470Y-114653193D02*
X163301949Y-114653193D01*
X169311633Y-116995933D02*
G75*
G02*
X169861567Y-116445933I549967J33D01*
G01*
X169861567Y-116445933D02*
G75*
G03*
X169874067Y-116458433I12533J33D01*
G01*
X163224052Y-114620948D02*
G75*
G03*
X163301949Y-114653193I77848J77848D01*
G01*
X165731482Y-114653159D02*
G75*
G02*
X166149067Y-115245933I-215582J-595341D01*
G01*
X166149067Y-115895083D02*
G75*
G03*
X166699917Y-116445933I550833J-17D01*
G01*
D33*
%TO.N,Net-(C14-Pad2)*%
X161767221Y-114252780D02*
X161399067Y-114620933D01*
X167074067Y-112983433D02*
X165599067Y-112983433D01*
X164786567Y-113695933D02*
X163111567Y-113695933D01*
X161399067Y-114620933D02*
X161399067Y-116145933D01*
X161561567Y-113070933D02*
X161561567Y-114228624D01*
X165549067Y-112933433D02*
G75*
G03*
X165599067Y-112983433I50033J33D01*
G01*
X161399047Y-114620913D02*
G75*
G03*
X161561567Y-114228624I-392247J392313D01*
G01*
X164786567Y-113695867D02*
G75*
G03*
X165549067Y-112933433I33J762467D01*
G01*
X161767242Y-114252801D02*
G75*
G02*
X163111567Y-113695933I1344358J-1344299D01*
G01*
%TO.N,Net-(C10-Pad1)*%
X163224067Y-116145933D02*
X163224067Y-117550223D01*
X163249067Y-127092065D02*
X163249067Y-117851999D01*
X163249082Y-127092065D02*
G75*
G03*
X165069067Y-131485933I6213818J-35D01*
G01*
X163174067Y-117670933D02*
G75*
G02*
X163249067Y-117851999I-181067J-181067D01*
G01*
X163174047Y-117670913D02*
G75*
G03*
X163224067Y-117550223I-120647J120713D01*
G01*
D31*
%TO.N,Net-(FB1-Pad1)*%
X173846567Y-122896933D02*
X176386567Y-122896933D01*
X176386567Y-122896933D02*
X176656562Y-122626938D01*
X179224102Y-116428433D02*
G75*
G02*
X176656561Y-122626937I-8766002J33D01*
G01*
%TO.N,Net-(FB2-Pad1)*%
X173846567Y-133056933D02*
X176386567Y-133056933D01*
X171949067Y-131159433D02*
X171949067Y-119365844D01*
X173174040Y-116408406D02*
G75*
G03*
X171949067Y-119365844I2957460J-2957394D01*
G01*
X171949067Y-131159433D02*
G75*
G03*
X173846567Y-133056933I1897533J33D01*
G01*
%TD*%
%TA.AperFunction,Conductor*%
%TO.N,GND*%
G36*
X165332688Y-115431695D02*
G01*
X165379181Y-115485351D01*
X165390567Y-115537693D01*
X165390567Y-115832923D01*
X165389340Y-115850462D01*
X165386067Y-115873746D01*
X165385768Y-115895059D01*
X165386209Y-115898990D01*
X165388049Y-115915408D01*
X165388445Y-115919562D01*
X165399405Y-116058861D01*
X165402683Y-116100526D01*
X165403840Y-116105345D01*
X165403840Y-116105346D01*
X165412356Y-116140819D01*
X165450792Y-116300934D01*
X165529661Y-116491349D01*
X165637347Y-116667080D01*
X165771199Y-116823801D01*
X165927920Y-116957653D01*
X166103651Y-117065339D01*
X166108220Y-117067231D01*
X166108221Y-117067232D01*
X166289495Y-117142315D01*
X166289498Y-117142316D01*
X166294066Y-117144208D01*
X166298879Y-117145363D01*
X166298881Y-117145364D01*
X166381923Y-117165299D01*
X166494474Y-117192317D01*
X166546123Y-117196380D01*
X166556582Y-117197203D01*
X166622924Y-117222486D01*
X166665066Y-117279623D01*
X166669627Y-117350473D01*
X166653960Y-117388931D01*
X166610155Y-117459996D01*
X166604011Y-117473174D01*
X166553752Y-117624699D01*
X166550886Y-117638065D01*
X166541395Y-117730703D01*
X166541067Y-117737118D01*
X166541067Y-117748818D01*
X166545542Y-117764057D01*
X166546932Y-117765262D01*
X166554615Y-117766933D01*
X167714567Y-117766933D01*
X167782688Y-117786935D01*
X167829181Y-117840591D01*
X167840567Y-117892933D01*
X167840567Y-118985818D01*
X167845042Y-119001057D01*
X167846432Y-119002262D01*
X167854115Y-119003933D01*
X167932833Y-119003933D01*
X167939349Y-119003596D01*
X168033199Y-118993858D01*
X168046595Y-118990965D01*
X168198020Y-118940445D01*
X168211182Y-118934280D01*
X168346559Y-118850507D01*
X168357961Y-118841469D01*
X168359634Y-118839794D01*
X168361060Y-118839014D01*
X168363694Y-118836926D01*
X168364051Y-118837377D01*
X168421916Y-118805714D01*
X168492736Y-118810717D01*
X168537821Y-118839634D01*
X168540488Y-118842296D01*
X168546064Y-118847862D01*
X168552294Y-118851702D01*
X168552295Y-118851703D01*
X168683987Y-118932879D01*
X168694147Y-118939142D01*
X168859258Y-118993907D01*
X168866094Y-118994607D01*
X168866097Y-118994608D01*
X168913437Y-118999458D01*
X168961995Y-119004433D01*
X169661139Y-119004433D01*
X169664385Y-119004096D01*
X169664389Y-119004096D01*
X169758302Y-118994352D01*
X169758306Y-118994351D01*
X169765160Y-118993640D01*
X169771696Y-118991459D01*
X169771698Y-118991459D01*
X169908155Y-118945933D01*
X169930174Y-118938587D01*
X170078098Y-118847049D01*
X170100671Y-118824437D01*
X170195825Y-118729117D01*
X170195829Y-118729112D01*
X170200996Y-118723936D01*
X170217070Y-118697860D01*
X170288436Y-118582083D01*
X170288437Y-118582081D01*
X170292276Y-118575853D01*
X170347041Y-118410742D01*
X170357567Y-118308005D01*
X170357567Y-117733861D01*
X170357230Y-117730611D01*
X170347486Y-117636698D01*
X170347485Y-117636694D01*
X170346774Y-117629840D01*
X170343152Y-117618982D01*
X170294039Y-117471774D01*
X170291721Y-117464826D01*
X170280525Y-117446733D01*
X170261689Y-117378282D01*
X170282852Y-117310512D01*
X170337293Y-117264942D01*
X170387671Y-117254433D01*
X170515569Y-117254433D01*
X170518017Y-117254240D01*
X170518025Y-117254240D01*
X170546488Y-117252000D01*
X170546493Y-117251999D01*
X170552898Y-117251495D01*
X170654642Y-117221936D01*
X170689794Y-117216933D01*
X170812867Y-117216933D01*
X170880988Y-117236935D01*
X170901883Y-117253758D01*
X170946064Y-117297862D01*
X170952294Y-117301702D01*
X170952295Y-117301703D01*
X171085580Y-117383861D01*
X171094147Y-117389142D01*
X171259258Y-117443907D01*
X171266094Y-117444607D01*
X171266097Y-117444608D01*
X171317593Y-117449884D01*
X171361995Y-117454433D01*
X171389410Y-117454433D01*
X171457531Y-117474435D01*
X171504024Y-117528091D01*
X171514128Y-117598365D01*
X171507623Y-117624042D01*
X171434447Y-117822402D01*
X171428752Y-117837840D01*
X171323366Y-118211524D01*
X171322886Y-118213940D01*
X171322884Y-118213946D01*
X171248258Y-118589142D01*
X171247625Y-118592323D01*
X171247335Y-118594772D01*
X171247335Y-118594773D01*
X171218338Y-118839794D01*
X171201994Y-118977892D01*
X171200179Y-119024108D01*
X171188432Y-119323148D01*
X171187305Y-119335723D01*
X171186066Y-119344539D01*
X171185768Y-119365852D01*
X171186210Y-119369788D01*
X171189782Y-119401635D01*
X171190567Y-119415681D01*
X171190567Y-131097294D01*
X171189341Y-131114826D01*
X171186066Y-131138133D01*
X171185768Y-131159446D01*
X171186608Y-131166933D01*
X171187193Y-131173886D01*
X171203113Y-131457289D01*
X171203705Y-131460773D01*
X171203706Y-131460782D01*
X171207980Y-131485933D01*
X171253087Y-131751386D01*
X171254068Y-131754793D01*
X171254069Y-131754795D01*
X171258063Y-131768658D01*
X171335673Y-132038039D01*
X171344763Y-132059984D01*
X171446882Y-132306513D01*
X171449835Y-132313643D01*
X171594136Y-132574732D01*
X171766762Y-132818024D01*
X171769113Y-132820655D01*
X171769118Y-132820661D01*
X171843436Y-132903822D01*
X171965542Y-133040458D01*
X171968166Y-133042803D01*
X172185339Y-133236882D01*
X172185345Y-133236887D01*
X172187976Y-133239238D01*
X172431268Y-133411864D01*
X172430934Y-133412334D01*
X172476147Y-133463462D01*
X172488067Y-133516957D01*
X172488067Y-133707333D01*
X172488404Y-133710579D01*
X172488404Y-133710583D01*
X172493865Y-133763210D01*
X172499041Y-133813099D01*
X172501222Y-133819635D01*
X172501222Y-133819637D01*
X172545295Y-133951739D01*
X172555017Y-133980879D01*
X172648089Y-134131281D01*
X172773264Y-134256238D01*
X172779494Y-134260078D01*
X172779495Y-134260079D01*
X172916657Y-134344627D01*
X172923829Y-134349048D01*
X172977938Y-134366995D01*
X173085178Y-134402565D01*
X173085180Y-134402565D01*
X173091706Y-134404730D01*
X173098542Y-134405430D01*
X173098545Y-134405431D01*
X173137939Y-134409467D01*
X173196167Y-134415433D01*
X174496967Y-134415433D01*
X174500213Y-134415096D01*
X174500217Y-134415096D01*
X174595875Y-134405171D01*
X174595879Y-134405170D01*
X174602733Y-134404459D01*
X174609269Y-134402278D01*
X174609271Y-134402278D01*
X174758344Y-134352543D01*
X174770513Y-134348483D01*
X174920915Y-134255411D01*
X175045872Y-134130236D01*
X175060394Y-134106678D01*
X175134843Y-133985899D01*
X175138682Y-133979671D01*
X175140985Y-133972728D01*
X175143330Y-133967699D01*
X175190247Y-133914414D01*
X175258525Y-133894954D01*
X175326485Y-133915497D01*
X175352761Y-133938453D01*
X175427861Y-134025150D01*
X175432817Y-134030871D01*
X175604693Y-134173565D01*
X175797567Y-134286271D01*
X176006259Y-134365963D01*
X176011327Y-134366994D01*
X176011330Y-134366995D01*
X176087019Y-134382394D01*
X176225164Y-134410500D01*
X176230339Y-134410690D01*
X176230341Y-134410690D01*
X176443240Y-134418497D01*
X176443244Y-134418497D01*
X176448404Y-134418686D01*
X176453524Y-134418030D01*
X176453526Y-134418030D01*
X176664855Y-134390958D01*
X176664856Y-134390958D01*
X176669983Y-134390301D01*
X176674933Y-134388816D01*
X176878996Y-134327594D01*
X176879001Y-134327592D01*
X176883951Y-134326107D01*
X177084561Y-134227829D01*
X177266427Y-134098106D01*
X177424663Y-133940422D01*
X177555020Y-133759010D01*
X177582175Y-133704067D01*
X177651703Y-133563386D01*
X177651704Y-133563384D01*
X177653997Y-133558744D01*
X177718937Y-133345002D01*
X177748096Y-133123523D01*
X177748663Y-133100315D01*
X177749641Y-133060298D01*
X177749641Y-133060294D01*
X177749723Y-133056933D01*
X177731419Y-132834294D01*
X177676998Y-132617635D01*
X177587921Y-132412773D01*
X177466581Y-132225210D01*
X177316237Y-132059984D01*
X177312186Y-132056785D01*
X177312182Y-132056781D01*
X177144981Y-131924733D01*
X177144977Y-131924731D01*
X177140926Y-131921531D01*
X177099136Y-131898462D01*
X177049165Y-131848030D01*
X177034393Y-131778587D01*
X177059509Y-131712181D01*
X177086860Y-131685575D01*
X177135814Y-131650656D01*
X177144215Y-131639956D01*
X177137227Y-131626803D01*
X176399379Y-130888955D01*
X176385435Y-130881341D01*
X176383602Y-130881472D01*
X176376987Y-130885723D01*
X175633304Y-131629406D01*
X175626544Y-131641786D01*
X175631825Y-131648840D01*
X175678536Y-131676136D01*
X175727260Y-131727774D01*
X175740331Y-131797557D01*
X175713600Y-131863329D01*
X175673151Y-131896685D01*
X175660174Y-131903440D01*
X175656041Y-131906543D01*
X175656038Y-131906545D01*
X175485667Y-132034463D01*
X175481532Y-132037568D01*
X175390348Y-132132987D01*
X175347594Y-132177726D01*
X175286070Y-132213156D01*
X175215157Y-132209699D01*
X175157371Y-132168453D01*
X175142400Y-132144127D01*
X175140432Y-132139926D01*
X175138117Y-132132987D01*
X175045045Y-131982585D01*
X174919870Y-131857628D01*
X174826851Y-131800290D01*
X174775535Y-131768658D01*
X174775533Y-131768657D01*
X174769305Y-131764818D01*
X174715541Y-131746985D01*
X174694207Y-131739909D01*
X174635847Y-131699478D01*
X174625296Y-131674079D01*
X174622991Y-131675303D01*
X174597227Y-131626803D01*
X173488489Y-130518065D01*
X174210975Y-130518065D01*
X174211106Y-130519898D01*
X174215357Y-130526513D01*
X174957041Y-131268197D01*
X174969051Y-131274756D01*
X174980790Y-131265788D01*
X175014589Y-131218752D01*
X175015716Y-131219562D01*
X175063226Y-131175814D01*
X175133163Y-131163594D01*
X175198605Y-131191124D01*
X175226437Y-131222962D01*
X175253026Y-131266352D01*
X175263483Y-131275813D01*
X175272261Y-131272029D01*
X176014545Y-130529745D01*
X176020923Y-130518065D01*
X176750975Y-130518065D01*
X176751106Y-130519898D01*
X176755357Y-130526513D01*
X177497041Y-131268197D01*
X177509051Y-131274756D01*
X177520790Y-131265788D01*
X177551571Y-131222952D01*
X177556882Y-131214113D01*
X177651237Y-131023200D01*
X177655036Y-131013605D01*
X177716943Y-130809848D01*
X177719122Y-130799767D01*
X177747157Y-130586820D01*
X177747676Y-130580145D01*
X177749139Y-130520297D01*
X177748945Y-130513579D01*
X177731348Y-130299537D01*
X177729663Y-130289357D01*
X177677781Y-130082808D01*
X177674461Y-130073057D01*
X177589539Y-129877747D01*
X177584672Y-129868672D01*
X177519630Y-129768130D01*
X177508944Y-129758928D01*
X177499379Y-129763331D01*
X176758589Y-130504121D01*
X176750975Y-130518065D01*
X176020923Y-130518065D01*
X176022159Y-130515801D01*
X176022028Y-130513968D01*
X176017777Y-130507353D01*
X175276416Y-129765992D01*
X175264880Y-129759692D01*
X175252595Y-129769317D01*
X175219759Y-129817453D01*
X175164848Y-129862456D01*
X175094323Y-129870627D01*
X175030576Y-129839373D01*
X175009878Y-129814888D01*
X174979629Y-129768130D01*
X174968944Y-129758928D01*
X174959379Y-129763331D01*
X174218589Y-130504121D01*
X174210975Y-130518065D01*
X173488489Y-130518065D01*
X172744472Y-129774048D01*
X172710446Y-129711736D01*
X172707567Y-129684953D01*
X172707567Y-129101786D01*
X173086544Y-129101786D01*
X173091825Y-129108840D01*
X173139046Y-129136434D01*
X173187770Y-129188072D01*
X173200841Y-129257855D01*
X173174110Y-129323627D01*
X173133654Y-129356986D01*
X173125033Y-129361474D01*
X173116301Y-129366972D01*
X173096244Y-129382032D01*
X173087790Y-129393360D01*
X173094535Y-129405691D01*
X173833755Y-130144911D01*
X173847699Y-130152525D01*
X173849532Y-130152394D01*
X173856147Y-130148143D01*
X174599956Y-129404334D01*
X174606977Y-129391477D01*
X174600178Y-129382146D01*
X174596126Y-129379454D01*
X174558683Y-129358785D01*
X174508712Y-129308353D01*
X174493940Y-129238910D01*
X174519056Y-129172505D01*
X174546407Y-129145898D01*
X174595814Y-129110656D01*
X174602778Y-129101786D01*
X175626544Y-129101786D01*
X175631825Y-129108840D01*
X175679046Y-129136434D01*
X175727770Y-129188072D01*
X175740841Y-129257855D01*
X175714110Y-129323627D01*
X175673654Y-129356986D01*
X175665033Y-129361474D01*
X175656301Y-129366972D01*
X175636244Y-129382032D01*
X175627790Y-129393360D01*
X175634535Y-129405691D01*
X176373755Y-130144911D01*
X176387699Y-130152525D01*
X176389532Y-130152394D01*
X176396147Y-130148143D01*
X177139956Y-129404334D01*
X177146977Y-129391477D01*
X177140178Y-129382146D01*
X177136126Y-129379454D01*
X177098683Y-129358785D01*
X177048712Y-129308353D01*
X177033940Y-129238910D01*
X177059056Y-129172505D01*
X177086407Y-129145898D01*
X177135814Y-129110656D01*
X177144215Y-129099956D01*
X177137227Y-129086803D01*
X176399379Y-128348955D01*
X176385435Y-128341341D01*
X176383602Y-128341472D01*
X176376987Y-128345723D01*
X175633304Y-129089406D01*
X175626544Y-129101786D01*
X174602778Y-129101786D01*
X174604215Y-129099956D01*
X174597227Y-129086803D01*
X173859379Y-128348955D01*
X173845435Y-128341341D01*
X173843602Y-128341472D01*
X173836987Y-128345723D01*
X173093304Y-129089406D01*
X173086544Y-129101786D01*
X172707567Y-129101786D01*
X172707567Y-128808913D01*
X172727569Y-128740792D01*
X172744472Y-128719818D01*
X173474545Y-127989745D01*
X173480923Y-127978065D01*
X174210975Y-127978065D01*
X174211106Y-127979898D01*
X174215357Y-127986513D01*
X174957041Y-128728197D01*
X174969051Y-128734756D01*
X174980790Y-128725788D01*
X175014589Y-128678752D01*
X175015716Y-128679562D01*
X175063226Y-128635814D01*
X175133163Y-128623594D01*
X175198605Y-128651124D01*
X175226437Y-128682962D01*
X175253026Y-128726352D01*
X175263483Y-128735813D01*
X175272261Y-128732029D01*
X176014545Y-127989745D01*
X176020923Y-127978065D01*
X176750975Y-127978065D01*
X176751106Y-127979898D01*
X176755357Y-127986513D01*
X177497041Y-128728197D01*
X177509051Y-128734756D01*
X177520790Y-128725788D01*
X177551571Y-128682952D01*
X177556882Y-128674113D01*
X177651237Y-128483200D01*
X177655036Y-128473605D01*
X177716943Y-128269848D01*
X177719122Y-128259767D01*
X177747157Y-128046820D01*
X177747676Y-128040145D01*
X177749139Y-127980297D01*
X177748945Y-127973579D01*
X177731348Y-127759537D01*
X177729663Y-127749357D01*
X177677781Y-127542808D01*
X177674461Y-127533057D01*
X177589539Y-127337747D01*
X177584672Y-127328672D01*
X177519630Y-127228130D01*
X177508944Y-127218928D01*
X177499379Y-127223331D01*
X176758589Y-127964121D01*
X176750975Y-127978065D01*
X176020923Y-127978065D01*
X176022159Y-127975801D01*
X176022028Y-127973968D01*
X176017777Y-127967353D01*
X175276416Y-127225992D01*
X175264880Y-127219692D01*
X175252595Y-127229317D01*
X175219759Y-127277453D01*
X175164848Y-127322456D01*
X175094323Y-127330627D01*
X175030576Y-127299373D01*
X175009878Y-127274888D01*
X174979629Y-127228130D01*
X174968944Y-127218928D01*
X174959379Y-127223331D01*
X174218589Y-127964121D01*
X174210975Y-127978065D01*
X173480923Y-127978065D01*
X173482159Y-127975801D01*
X173482028Y-127973968D01*
X173477777Y-127967353D01*
X172744472Y-127234048D01*
X172710446Y-127171736D01*
X172707567Y-127144953D01*
X172707567Y-126561786D01*
X173086544Y-126561786D01*
X173091825Y-126568840D01*
X173139046Y-126596434D01*
X173187770Y-126648072D01*
X173200841Y-126717855D01*
X173174110Y-126783627D01*
X173133654Y-126816986D01*
X173125033Y-126821474D01*
X173116301Y-126826972D01*
X173096244Y-126842032D01*
X173087790Y-126853360D01*
X173094535Y-126865691D01*
X173833755Y-127604911D01*
X173847699Y-127612525D01*
X173849532Y-127612394D01*
X173856147Y-127608143D01*
X174599956Y-126864334D01*
X174606977Y-126851477D01*
X174600178Y-126842146D01*
X174596126Y-126839454D01*
X174558683Y-126818785D01*
X174508712Y-126768353D01*
X174493940Y-126698910D01*
X174519056Y-126632505D01*
X174546407Y-126605898D01*
X174595814Y-126570656D01*
X174602778Y-126561786D01*
X175626544Y-126561786D01*
X175631825Y-126568840D01*
X175679046Y-126596434D01*
X175727770Y-126648072D01*
X175740841Y-126717855D01*
X175714110Y-126783627D01*
X175673654Y-126816986D01*
X175665033Y-126821474D01*
X175656301Y-126826972D01*
X175636244Y-126842032D01*
X175627790Y-126853360D01*
X175634535Y-126865691D01*
X176373755Y-127604911D01*
X176387699Y-127612525D01*
X176389532Y-127612394D01*
X176396147Y-127608143D01*
X177139956Y-126864334D01*
X177146977Y-126851477D01*
X177140178Y-126842146D01*
X177136126Y-126839454D01*
X177098683Y-126818785D01*
X177048712Y-126768353D01*
X177033940Y-126698910D01*
X177059056Y-126632505D01*
X177086407Y-126605898D01*
X177135814Y-126570656D01*
X177144215Y-126559956D01*
X177137227Y-126546803D01*
X176399379Y-125808955D01*
X176385435Y-125801341D01*
X176383602Y-125801472D01*
X176376987Y-125805723D01*
X175633304Y-126549406D01*
X175626544Y-126561786D01*
X174602778Y-126561786D01*
X174604215Y-126559956D01*
X174597227Y-126546803D01*
X173859379Y-125808955D01*
X173845435Y-125801341D01*
X173843602Y-125801472D01*
X173836987Y-125805723D01*
X173093304Y-126549406D01*
X173086544Y-126561786D01*
X172707567Y-126561786D01*
X172707567Y-126268913D01*
X172727569Y-126200792D01*
X172744472Y-126179818D01*
X173474545Y-125449745D01*
X173480923Y-125438065D01*
X174210975Y-125438065D01*
X174211106Y-125439898D01*
X174215357Y-125446513D01*
X174957041Y-126188197D01*
X174969051Y-126194756D01*
X174980790Y-126185788D01*
X175014589Y-126138752D01*
X175015716Y-126139562D01*
X175063226Y-126095814D01*
X175133163Y-126083594D01*
X175198605Y-126111124D01*
X175226437Y-126142962D01*
X175253026Y-126186352D01*
X175263483Y-126195813D01*
X175272261Y-126192029D01*
X176014545Y-125449745D01*
X176020923Y-125438065D01*
X176750975Y-125438065D01*
X176751106Y-125439898D01*
X176755357Y-125446513D01*
X177497041Y-126188197D01*
X177509051Y-126194756D01*
X177520790Y-126185788D01*
X177551571Y-126142952D01*
X177556882Y-126134113D01*
X177651237Y-125943200D01*
X177655036Y-125933605D01*
X177716943Y-125729848D01*
X177719122Y-125719767D01*
X177747157Y-125506820D01*
X177747676Y-125500145D01*
X177749139Y-125440297D01*
X177748945Y-125433579D01*
X177731348Y-125219537D01*
X177729663Y-125209357D01*
X177677781Y-125002808D01*
X177674461Y-124993057D01*
X177589539Y-124797747D01*
X177584672Y-124788672D01*
X177519630Y-124688130D01*
X177508944Y-124678928D01*
X177499379Y-124683331D01*
X176758589Y-125424121D01*
X176750975Y-125438065D01*
X176020923Y-125438065D01*
X176022159Y-125435801D01*
X176022028Y-125433968D01*
X176017777Y-125427353D01*
X175276416Y-124685992D01*
X175264880Y-124679692D01*
X175252595Y-124689317D01*
X175219759Y-124737453D01*
X175164848Y-124782456D01*
X175094323Y-124790627D01*
X175030576Y-124759373D01*
X175009878Y-124734888D01*
X174979629Y-124688130D01*
X174968944Y-124678928D01*
X174959379Y-124683331D01*
X174218589Y-125424121D01*
X174210975Y-125438065D01*
X173480923Y-125438065D01*
X173482159Y-125435801D01*
X173482028Y-125433968D01*
X173477777Y-125427353D01*
X172744472Y-124694048D01*
X172710446Y-124631736D01*
X172707567Y-124604953D01*
X172707567Y-123985445D01*
X172727569Y-123917324D01*
X172781225Y-123870831D01*
X172851499Y-123860727D01*
X172914050Y-123888499D01*
X173064693Y-124013565D01*
X173138522Y-124056707D01*
X173187246Y-124108345D01*
X173200317Y-124178128D01*
X173173586Y-124243900D01*
X173133129Y-124277260D01*
X173125027Y-124281477D01*
X173116301Y-124286972D01*
X173096244Y-124302032D01*
X173087790Y-124313360D01*
X173094535Y-124325691D01*
X173833755Y-125064911D01*
X173847699Y-125072525D01*
X173849532Y-125072394D01*
X173856147Y-125068143D01*
X174599956Y-124324334D01*
X174606977Y-124311477D01*
X174600178Y-124302146D01*
X174596126Y-124299454D01*
X174559169Y-124279053D01*
X174509198Y-124228620D01*
X174494426Y-124159178D01*
X174519542Y-124092772D01*
X174546894Y-124066165D01*
X174570364Y-124049424D01*
X174726427Y-123938106D01*
X174884663Y-123780422D01*
X174936770Y-123707907D01*
X174992765Y-123664259D01*
X175039093Y-123655433D01*
X175189058Y-123655433D01*
X175257179Y-123675435D01*
X175285969Y-123702528D01*
X175286554Y-123702021D01*
X175432817Y-123870871D01*
X175604693Y-124013565D01*
X175678522Y-124056707D01*
X175727246Y-124108345D01*
X175740317Y-124178128D01*
X175713586Y-124243900D01*
X175673129Y-124277260D01*
X175665027Y-124281477D01*
X175656301Y-124286972D01*
X175636244Y-124302032D01*
X175627790Y-124313360D01*
X175634535Y-124325691D01*
X176373755Y-125064911D01*
X176387699Y-125072525D01*
X176389532Y-125072394D01*
X176396147Y-125068143D01*
X177139956Y-124324334D01*
X177146977Y-124311477D01*
X177140178Y-124302146D01*
X177136126Y-124299454D01*
X177099169Y-124279053D01*
X177049198Y-124228620D01*
X177034426Y-124159178D01*
X177059542Y-124092772D01*
X177086894Y-124066165D01*
X177110364Y-124049424D01*
X177266427Y-123938106D01*
X177424663Y-123780422D01*
X177555020Y-123599010D01*
X177639583Y-123427910D01*
X177651703Y-123403386D01*
X177651704Y-123403384D01*
X177653997Y-123398744D01*
X177718937Y-123185002D01*
X177748096Y-122963523D01*
X177749723Y-122896933D01*
X177731419Y-122674294D01*
X177728473Y-122662566D01*
X177731277Y-122591626D01*
X177753885Y-122551203D01*
X177957797Y-122306530D01*
X177959019Y-122305064D01*
X178132088Y-122069860D01*
X178299025Y-121842988D01*
X178300159Y-121841447D01*
X178612684Y-121358078D01*
X178895454Y-120856721D01*
X179147436Y-120339205D01*
X179298834Y-119973705D01*
X179348158Y-119854627D01*
X179392707Y-119799347D01*
X179460070Y-119776926D01*
X179528862Y-119794485D01*
X179577240Y-119846447D01*
X179590567Y-119902846D01*
X179590567Y-151919933D01*
X179570565Y-151988054D01*
X179516909Y-152034547D01*
X179464567Y-152045933D01*
X176771955Y-152045933D01*
X176703834Y-152025931D01*
X176657341Y-151972275D01*
X176647237Y-151902001D01*
X176649437Y-151890518D01*
X176656844Y-151859666D01*
X176656845Y-151859658D01*
X176658001Y-151854844D01*
X176677433Y-151607933D01*
X176658001Y-151361022D01*
X176656847Y-151356215D01*
X176656846Y-151356209D01*
X176601337Y-151125003D01*
X176600182Y-151120191D01*
X176505401Y-150891370D01*
X176375992Y-150680193D01*
X176215140Y-150491860D01*
X176026807Y-150331008D01*
X175815630Y-150201599D01*
X175811060Y-150199706D01*
X175811056Y-150199704D01*
X175591382Y-150108712D01*
X175591380Y-150108711D01*
X175586809Y-150106818D01*
X175501897Y-150086432D01*
X175350791Y-150050154D01*
X175350785Y-150050153D01*
X175345978Y-150048999D01*
X175099067Y-150029567D01*
X174852156Y-150048999D01*
X174847349Y-150050153D01*
X174847343Y-150050154D01*
X174696237Y-150086432D01*
X174611325Y-150106818D01*
X174606754Y-150108711D01*
X174606752Y-150108712D01*
X174387078Y-150199704D01*
X174387074Y-150199706D01*
X174382504Y-150201599D01*
X174171327Y-150331008D01*
X173982994Y-150491860D01*
X173822142Y-150680193D01*
X173692733Y-150891370D01*
X173597952Y-151120191D01*
X173596797Y-151125003D01*
X173541288Y-151356209D01*
X173541287Y-151356215D01*
X173540133Y-151361022D01*
X173520701Y-151607933D01*
X173540133Y-151854844D01*
X173541289Y-151859658D01*
X173541290Y-151859666D01*
X173548697Y-151890518D01*
X173545151Y-151961426D01*
X173503832Y-152019160D01*
X173437858Y-152045391D01*
X173426179Y-152045933D01*
X166771955Y-152045933D01*
X166703834Y-152025931D01*
X166657341Y-151972275D01*
X166647237Y-151902001D01*
X166649437Y-151890518D01*
X166656844Y-151859666D01*
X166656845Y-151859658D01*
X166658001Y-151854844D01*
X166677433Y-151607933D01*
X166658001Y-151361022D01*
X166656847Y-151356215D01*
X166656846Y-151356209D01*
X166601337Y-151125003D01*
X166600182Y-151120191D01*
X166505401Y-150891370D01*
X166375992Y-150680193D01*
X166215140Y-150491860D01*
X166026807Y-150331008D01*
X165815630Y-150201599D01*
X165811060Y-150199706D01*
X165811056Y-150199704D01*
X165591382Y-150108712D01*
X165591380Y-150108711D01*
X165586809Y-150106818D01*
X165501897Y-150086432D01*
X165350791Y-150050154D01*
X165350785Y-150050153D01*
X165345978Y-150048999D01*
X165099067Y-150029567D01*
X164852156Y-150048999D01*
X164847349Y-150050153D01*
X164847343Y-150050154D01*
X164696237Y-150086432D01*
X164611325Y-150106818D01*
X164606754Y-150108711D01*
X164606752Y-150108712D01*
X164387078Y-150199704D01*
X164387074Y-150199706D01*
X164382504Y-150201599D01*
X164171327Y-150331008D01*
X163982994Y-150491860D01*
X163822142Y-150680193D01*
X163692733Y-150891370D01*
X163597952Y-151120191D01*
X163596797Y-151125003D01*
X163541288Y-151356209D01*
X163541287Y-151356215D01*
X163540133Y-151361022D01*
X163520701Y-151607933D01*
X163540133Y-151854844D01*
X163541289Y-151859658D01*
X163541290Y-151859666D01*
X163548697Y-151890518D01*
X163545151Y-151961426D01*
X163503832Y-152019160D01*
X163437858Y-152045391D01*
X163426179Y-152045933D01*
X160733567Y-152045933D01*
X160665446Y-152025931D01*
X160618953Y-151972275D01*
X160607567Y-151919933D01*
X160607567Y-143307933D01*
X163520701Y-143307933D01*
X163540133Y-143554844D01*
X163541287Y-143559651D01*
X163541288Y-143559657D01*
X163577566Y-143710763D01*
X163597952Y-143795675D01*
X163692733Y-144024496D01*
X163822142Y-144235673D01*
X163982994Y-144424006D01*
X164171327Y-144584858D01*
X164382504Y-144714267D01*
X164387074Y-144716160D01*
X164387078Y-144716162D01*
X164606752Y-144807154D01*
X164611325Y-144809048D01*
X164696237Y-144829434D01*
X164847343Y-144865712D01*
X164847349Y-144865713D01*
X164852156Y-144866867D01*
X165099067Y-144886299D01*
X165345978Y-144866867D01*
X165350785Y-144865713D01*
X165350791Y-144865712D01*
X165501897Y-144829434D01*
X165586809Y-144809048D01*
X165591382Y-144807154D01*
X165811056Y-144716162D01*
X165811060Y-144716160D01*
X165815630Y-144714267D01*
X166026807Y-144584858D01*
X166215140Y-144424006D01*
X166375992Y-144235673D01*
X166505401Y-144024496D01*
X166600182Y-143795675D01*
X166620568Y-143710763D01*
X166656846Y-143559657D01*
X166656847Y-143559651D01*
X166658001Y-143554844D01*
X166677433Y-143307933D01*
X173520701Y-143307933D01*
X173540133Y-143554844D01*
X173541287Y-143559651D01*
X173541288Y-143559657D01*
X173577566Y-143710763D01*
X173597952Y-143795675D01*
X173692733Y-144024496D01*
X173822142Y-144235673D01*
X173982994Y-144424006D01*
X174171327Y-144584858D01*
X174382504Y-144714267D01*
X174387074Y-144716160D01*
X174387078Y-144716162D01*
X174606752Y-144807154D01*
X174611325Y-144809048D01*
X174696237Y-144829434D01*
X174847343Y-144865712D01*
X174847349Y-144865713D01*
X174852156Y-144866867D01*
X175099067Y-144886299D01*
X175345978Y-144866867D01*
X175350785Y-144865713D01*
X175350791Y-144865712D01*
X175501897Y-144829434D01*
X175586809Y-144809048D01*
X175591382Y-144807154D01*
X175811056Y-144716162D01*
X175811060Y-144716160D01*
X175815630Y-144714267D01*
X176026807Y-144584858D01*
X176215140Y-144424006D01*
X176375992Y-144235673D01*
X176505401Y-144024496D01*
X176600182Y-143795675D01*
X176620568Y-143710763D01*
X176656846Y-143559657D01*
X176656847Y-143559651D01*
X176658001Y-143554844D01*
X176677433Y-143307933D01*
X176658001Y-143061022D01*
X176656847Y-143056215D01*
X176656846Y-143056209D01*
X176601337Y-142825003D01*
X176600182Y-142820191D01*
X176505401Y-142591370D01*
X176375992Y-142380193D01*
X176215140Y-142191860D01*
X176026807Y-142031008D01*
X175815630Y-141901599D01*
X175747409Y-141873341D01*
X175692129Y-141828792D01*
X175669708Y-141761429D01*
X175687266Y-141692638D01*
X175739229Y-141644259D01*
X175795628Y-141630932D01*
X176108736Y-141630932D01*
X176115557Y-141630562D01*
X176166419Y-141625038D01*
X176181671Y-141621412D01*
X176302121Y-141576257D01*
X176317716Y-141567719D01*
X176419791Y-141491218D01*
X176432352Y-141478657D01*
X176508853Y-141376582D01*
X176517391Y-141360987D01*
X176562545Y-141240539D01*
X176566172Y-141225284D01*
X176571698Y-141174419D01*
X176572067Y-141167605D01*
X176572067Y-140480048D01*
X176567592Y-140464809D01*
X176566202Y-140463604D01*
X176558519Y-140461933D01*
X173644183Y-140461933D01*
X173628944Y-140466408D01*
X173627739Y-140467798D01*
X173626068Y-140475481D01*
X173626068Y-141167602D01*
X173626438Y-141174423D01*
X173631962Y-141225285D01*
X173635588Y-141240537D01*
X173680743Y-141360987D01*
X173689281Y-141376582D01*
X173765782Y-141478657D01*
X173778343Y-141491218D01*
X173880418Y-141567719D01*
X173896013Y-141576257D01*
X174016461Y-141621411D01*
X174031716Y-141625038D01*
X174082581Y-141630564D01*
X174089395Y-141630933D01*
X174402505Y-141630933D01*
X174470626Y-141650935D01*
X174517119Y-141704591D01*
X174527223Y-141774865D01*
X174497729Y-141839445D01*
X174450724Y-141873341D01*
X174422427Y-141885062D01*
X174387078Y-141899704D01*
X174387074Y-141899706D01*
X174382504Y-141901599D01*
X174171327Y-142031008D01*
X173982994Y-142191860D01*
X173822142Y-142380193D01*
X173692733Y-142591370D01*
X173597952Y-142820191D01*
X173596797Y-142825003D01*
X173541288Y-143056209D01*
X173541287Y-143056215D01*
X173540133Y-143061022D01*
X173520701Y-143307933D01*
X166677433Y-143307933D01*
X166658001Y-143061022D01*
X166656847Y-143056215D01*
X166656846Y-143056209D01*
X166601337Y-142825003D01*
X166600182Y-142820191D01*
X166505401Y-142591370D01*
X166375992Y-142380193D01*
X166215140Y-142191860D01*
X166026807Y-142031008D01*
X165815630Y-141901599D01*
X165747409Y-141873341D01*
X165692129Y-141828792D01*
X165669708Y-141761429D01*
X165687266Y-141692638D01*
X165739229Y-141644259D01*
X165795628Y-141630932D01*
X166108736Y-141630932D01*
X166115557Y-141630562D01*
X166166419Y-141625038D01*
X166181671Y-141621412D01*
X166302121Y-141576257D01*
X166317716Y-141567719D01*
X166419791Y-141491218D01*
X166432352Y-141478657D01*
X166508853Y-141376582D01*
X166517391Y-141360987D01*
X166562545Y-141240539D01*
X166566172Y-141225284D01*
X166571698Y-141174419D01*
X166572067Y-141167605D01*
X166572067Y-140480048D01*
X166567592Y-140464809D01*
X166566202Y-140463604D01*
X166558519Y-140461933D01*
X163644183Y-140461933D01*
X163628944Y-140466408D01*
X163627739Y-140467798D01*
X163626068Y-140475481D01*
X163626068Y-141167602D01*
X163626438Y-141174423D01*
X163631962Y-141225285D01*
X163635588Y-141240537D01*
X163680743Y-141360987D01*
X163689281Y-141376582D01*
X163765782Y-141478657D01*
X163778343Y-141491218D01*
X163880418Y-141567719D01*
X163896013Y-141576257D01*
X164016461Y-141621411D01*
X164031716Y-141625038D01*
X164082581Y-141630564D01*
X164089395Y-141630933D01*
X164402505Y-141630933D01*
X164470626Y-141650935D01*
X164517119Y-141704591D01*
X164527223Y-141774865D01*
X164497729Y-141839445D01*
X164450724Y-141873341D01*
X164422427Y-141885062D01*
X164387078Y-141899704D01*
X164387074Y-141899706D01*
X164382504Y-141901599D01*
X164171327Y-142031008D01*
X163982994Y-142191860D01*
X163822142Y-142380193D01*
X163692733Y-142591370D01*
X163597952Y-142820191D01*
X163596797Y-142825003D01*
X163541288Y-143056209D01*
X163541287Y-143056215D01*
X163540133Y-143061022D01*
X163520701Y-143307933D01*
X160607567Y-143307933D01*
X160607567Y-139935818D01*
X163626067Y-139935818D01*
X163630542Y-139951057D01*
X163631932Y-139952262D01*
X163639615Y-139953933D01*
X164826952Y-139953933D01*
X164842191Y-139949458D01*
X164843396Y-139948068D01*
X164845067Y-139940385D01*
X164845067Y-139935818D01*
X165353067Y-139935818D01*
X165357542Y-139951057D01*
X165358932Y-139952262D01*
X165366615Y-139953933D01*
X166553951Y-139953933D01*
X166569190Y-139949458D01*
X166570395Y-139948068D01*
X166572066Y-139940385D01*
X166572066Y-139935818D01*
X173626067Y-139935818D01*
X173630542Y-139951057D01*
X173631932Y-139952262D01*
X173639615Y-139953933D01*
X174826952Y-139953933D01*
X174842191Y-139949458D01*
X174843396Y-139948068D01*
X174845067Y-139940385D01*
X174845067Y-139935818D01*
X175353067Y-139935818D01*
X175357542Y-139951057D01*
X175358932Y-139952262D01*
X175366615Y-139953933D01*
X176553951Y-139953933D01*
X176569190Y-139949458D01*
X176570395Y-139948068D01*
X176572066Y-139940385D01*
X176572066Y-139248264D01*
X176571696Y-139241443D01*
X176566172Y-139190581D01*
X176562546Y-139175329D01*
X176517391Y-139054879D01*
X176508853Y-139039284D01*
X176432352Y-138937209D01*
X176419791Y-138924648D01*
X176317716Y-138848147D01*
X176302121Y-138839609D01*
X176181673Y-138794455D01*
X176166418Y-138790828D01*
X176115553Y-138785302D01*
X176108739Y-138784933D01*
X175371182Y-138784933D01*
X175355943Y-138789408D01*
X175354738Y-138790798D01*
X175353067Y-138798481D01*
X175353067Y-139935818D01*
X174845067Y-139935818D01*
X174845067Y-138803049D01*
X174840592Y-138787810D01*
X174839202Y-138786605D01*
X174831519Y-138784934D01*
X174089398Y-138784934D01*
X174082577Y-138785304D01*
X174031715Y-138790828D01*
X174016463Y-138794454D01*
X173896013Y-138839609D01*
X173880418Y-138848147D01*
X173778343Y-138924648D01*
X173765782Y-138937209D01*
X173689281Y-139039284D01*
X173680743Y-139054879D01*
X173635589Y-139175327D01*
X173631962Y-139190582D01*
X173626436Y-139241447D01*
X173626067Y-139248261D01*
X173626067Y-139935818D01*
X166572066Y-139935818D01*
X166572066Y-139248264D01*
X166571696Y-139241443D01*
X166566172Y-139190581D01*
X166562546Y-139175329D01*
X166517391Y-139054879D01*
X166508853Y-139039284D01*
X166432352Y-138937209D01*
X166419791Y-138924648D01*
X166317716Y-138848147D01*
X166302121Y-138839609D01*
X166181673Y-138794455D01*
X166166418Y-138790828D01*
X166115553Y-138785302D01*
X166108739Y-138784933D01*
X165371182Y-138784933D01*
X165355943Y-138789408D01*
X165354738Y-138790798D01*
X165353067Y-138798481D01*
X165353067Y-139935818D01*
X164845067Y-139935818D01*
X164845067Y-138803049D01*
X164840592Y-138787810D01*
X164839202Y-138786605D01*
X164831519Y-138784934D01*
X164089398Y-138784934D01*
X164082577Y-138785304D01*
X164031715Y-138790828D01*
X164016463Y-138794454D01*
X163896013Y-138839609D01*
X163880418Y-138848147D01*
X163778343Y-138924648D01*
X163765782Y-138937209D01*
X163689281Y-139039284D01*
X163680743Y-139054879D01*
X163635589Y-139175327D01*
X163631962Y-139190582D01*
X163626436Y-139241447D01*
X163626067Y-139248261D01*
X163626067Y-139935818D01*
X160607567Y-139935818D01*
X160607567Y-136344669D01*
X162417001Y-136344669D01*
X162417371Y-136351490D01*
X162422895Y-136402352D01*
X162426521Y-136417604D01*
X162471676Y-136538054D01*
X162480214Y-136553649D01*
X162556715Y-136655724D01*
X162569276Y-136668285D01*
X162671351Y-136744786D01*
X162686946Y-136753324D01*
X162807394Y-136798478D01*
X162822649Y-136802105D01*
X162873514Y-136807631D01*
X162880328Y-136808000D01*
X163552885Y-136808000D01*
X163568124Y-136803525D01*
X163569329Y-136802135D01*
X163571000Y-136794452D01*
X163571000Y-136789884D01*
X164079000Y-136789884D01*
X164083475Y-136805123D01*
X164084865Y-136806328D01*
X164092548Y-136807999D01*
X164769669Y-136807999D01*
X164776490Y-136807629D01*
X164827352Y-136802105D01*
X164842604Y-136798479D01*
X164963054Y-136753324D01*
X164978649Y-136744786D01*
X165080724Y-136668285D01*
X165093285Y-136655724D01*
X165169786Y-136553649D01*
X165178324Y-136538054D01*
X165199773Y-136480840D01*
X165242415Y-136424075D01*
X165308977Y-136399376D01*
X165378325Y-136414584D01*
X165398240Y-136428126D01*
X165554349Y-136557730D01*
X165754322Y-136674584D01*
X165970694Y-136757209D01*
X165975760Y-136758240D01*
X165975761Y-136758240D01*
X166028846Y-136769040D01*
X166197656Y-136803385D01*
X166328324Y-136808176D01*
X166423949Y-136811683D01*
X166423953Y-136811683D01*
X166429113Y-136811872D01*
X166434233Y-136811216D01*
X166434235Y-136811216D01*
X166533668Y-136798478D01*
X166658847Y-136782442D01*
X166663795Y-136780957D01*
X166663802Y-136780956D01*
X166875747Y-136717369D01*
X166880690Y-136715886D01*
X166898862Y-136706984D01*
X167058400Y-136628827D01*
X167128374Y-136616821D01*
X167156279Y-136623344D01*
X167345209Y-136690943D01*
X167402610Y-136732725D01*
X167422286Y-136769704D01*
X167430026Y-136792905D01*
X167430028Y-136792910D01*
X167432346Y-136799857D01*
X167523884Y-136947781D01*
X167529066Y-136952954D01*
X167641816Y-137065508D01*
X167641821Y-137065512D01*
X167646997Y-137070679D01*
X167795080Y-137161959D01*
X167960191Y-137216724D01*
X167967027Y-137217424D01*
X167967030Y-137217425D01*
X168018526Y-137222701D01*
X168062928Y-137227250D01*
X168637072Y-137227250D01*
X168640318Y-137226913D01*
X168640322Y-137226913D01*
X168734235Y-137217169D01*
X168734239Y-137217168D01*
X168741093Y-137216457D01*
X168747629Y-137214276D01*
X168747631Y-137214276D01*
X168880395Y-137169982D01*
X168906107Y-137161404D01*
X169054031Y-137069866D01*
X169059204Y-137064684D01*
X169171758Y-136951934D01*
X169171762Y-136951929D01*
X169176929Y-136946753D01*
X169262459Y-136807999D01*
X169264369Y-136804900D01*
X169264370Y-136804898D01*
X169268209Y-136798670D01*
X169322974Y-136633559D01*
X169333500Y-136530822D01*
X169333500Y-135931678D01*
X169322707Y-135827657D01*
X169267654Y-135662643D01*
X169176116Y-135514719D01*
X169170934Y-135509546D01*
X169069214Y-135408003D01*
X169035135Y-135345720D01*
X169040138Y-135274900D01*
X169069059Y-135229813D01*
X169171754Y-135126938D01*
X169171758Y-135126933D01*
X169176929Y-135121753D01*
X169268209Y-134973670D01*
X169322974Y-134808559D01*
X169333500Y-134705822D01*
X169333500Y-134106678D01*
X169332340Y-134095499D01*
X169323419Y-134009515D01*
X169323418Y-134009511D01*
X169322707Y-134002657D01*
X169320112Y-133994877D01*
X169269972Y-133844591D01*
X169267654Y-133837643D01*
X169176116Y-133689719D01*
X169167748Y-133681365D01*
X169133668Y-133619085D01*
X169138669Y-133548264D01*
X169147645Y-133529191D01*
X169181225Y-133471029D01*
X169181226Y-133471028D01*
X169184529Y-133465306D01*
X169243544Y-133283678D01*
X169248000Y-133241287D01*
X169262816Y-133100315D01*
X169263506Y-133093750D01*
X169243544Y-132903822D01*
X169184529Y-132722194D01*
X169089042Y-132556806D01*
X168961255Y-132414884D01*
X168826175Y-132316742D01*
X168812096Y-132306513D01*
X168812095Y-132306512D01*
X168806754Y-132302632D01*
X168800726Y-132299948D01*
X168800724Y-132299947D01*
X168638321Y-132227641D01*
X168638320Y-132227641D01*
X168632290Y-132224956D01*
X168526625Y-132202496D01*
X168451946Y-132186622D01*
X168451941Y-132186622D01*
X168445489Y-132185250D01*
X168254515Y-132185250D01*
X168248063Y-132186622D01*
X168248058Y-132186622D01*
X168173379Y-132202496D01*
X168067714Y-132224956D01*
X168061684Y-132227641D01*
X168061683Y-132227641D01*
X167899280Y-132299947D01*
X167899278Y-132299948D01*
X167893250Y-132302632D01*
X167887909Y-132306512D01*
X167887908Y-132306513D01*
X167873829Y-132316742D01*
X167738749Y-132414884D01*
X167610962Y-132556806D01*
X167515475Y-132722194D01*
X167456460Y-132903822D01*
X167436498Y-133093750D01*
X167437188Y-133100315D01*
X167452005Y-133241287D01*
X167456460Y-133283678D01*
X167515475Y-133465306D01*
X167518778Y-133471028D01*
X167518779Y-133471029D01*
X167552425Y-133529305D01*
X167569163Y-133598300D01*
X167545943Y-133665392D01*
X167532485Y-133681317D01*
X167523071Y-133690747D01*
X167512847Y-133707333D01*
X167436364Y-133831412D01*
X167431791Y-133838830D01*
X167377026Y-134003941D01*
X167376326Y-134010777D01*
X167376325Y-134010780D01*
X167371773Y-134055214D01*
X167366500Y-134106678D01*
X167366500Y-134135999D01*
X167346498Y-134204120D01*
X167292842Y-134250613D01*
X167222568Y-134260717D01*
X167162409Y-134234882D01*
X167151176Y-134226011D01*
X167147123Y-134222810D01*
X167142607Y-134220317D01*
X167142604Y-134220315D01*
X166948879Y-134113373D01*
X166948875Y-134113371D01*
X166944355Y-134110876D01*
X166939486Y-134109152D01*
X166939482Y-134109150D01*
X166730903Y-134035288D01*
X166730899Y-134035287D01*
X166726028Y-134033562D01*
X166720935Y-134032655D01*
X166720932Y-134032654D01*
X166503095Y-133993851D01*
X166503089Y-133993850D01*
X166498006Y-133992945D01*
X166420644Y-133992000D01*
X166271581Y-133990179D01*
X166271579Y-133990179D01*
X166266411Y-133990116D01*
X166037464Y-134025150D01*
X165817314Y-134097106D01*
X165812726Y-134099494D01*
X165812722Y-134099496D01*
X165676786Y-134170260D01*
X165611872Y-134204052D01*
X165607739Y-134207155D01*
X165607736Y-134207157D01*
X165430790Y-134340012D01*
X165426655Y-134343117D01*
X165418786Y-134351352D01*
X165408787Y-134361815D01*
X165347263Y-134397245D01*
X165276351Y-134393788D01*
X165218564Y-134352543D01*
X165199711Y-134318994D01*
X165178324Y-134261946D01*
X165169786Y-134246351D01*
X165093285Y-134144276D01*
X165080724Y-134131715D01*
X164978649Y-134055214D01*
X164963054Y-134046676D01*
X164842606Y-134001522D01*
X164827351Y-133997895D01*
X164776486Y-133992369D01*
X164769672Y-133992000D01*
X164097115Y-133992000D01*
X164081876Y-133996475D01*
X164080671Y-133997865D01*
X164079000Y-134005548D01*
X164079000Y-136789884D01*
X163571000Y-136789884D01*
X163571000Y-135672115D01*
X163566525Y-135656876D01*
X163565135Y-135655671D01*
X163557452Y-135654000D01*
X162435116Y-135654000D01*
X162419877Y-135658475D01*
X162418672Y-135659865D01*
X162417001Y-135667548D01*
X162417001Y-136344669D01*
X160607567Y-136344669D01*
X160607567Y-135127885D01*
X162417000Y-135127885D01*
X162421475Y-135143124D01*
X162422865Y-135144329D01*
X162430548Y-135146000D01*
X163552885Y-135146000D01*
X163568124Y-135141525D01*
X163569329Y-135140135D01*
X163571000Y-135132452D01*
X163571000Y-134010116D01*
X163566525Y-133994877D01*
X163565135Y-133993672D01*
X163557452Y-133992001D01*
X162880331Y-133992001D01*
X162873510Y-133992371D01*
X162822648Y-133997895D01*
X162807396Y-134001521D01*
X162686946Y-134046676D01*
X162671351Y-134055214D01*
X162569276Y-134131715D01*
X162556715Y-134144276D01*
X162480214Y-134246351D01*
X162471676Y-134261946D01*
X162426522Y-134382394D01*
X162422895Y-134397649D01*
X162417369Y-134448514D01*
X162417000Y-134455328D01*
X162417000Y-135127885D01*
X160607567Y-135127885D01*
X160607567Y-118676111D01*
X160627569Y-118607990D01*
X160681225Y-118561497D01*
X160751499Y-118551393D01*
X160799682Y-118568851D01*
X160825626Y-118584843D01*
X160838808Y-118590989D01*
X160990333Y-118641248D01*
X161003699Y-118644114D01*
X161096337Y-118653605D01*
X161102752Y-118653933D01*
X161176952Y-118653933D01*
X161192191Y-118649458D01*
X161193396Y-118648068D01*
X161195067Y-118640385D01*
X161195067Y-117542933D01*
X161215069Y-117474812D01*
X161268725Y-117428319D01*
X161321067Y-117416933D01*
X161577067Y-117416933D01*
X161645188Y-117436935D01*
X161691681Y-117490591D01*
X161703067Y-117542933D01*
X161703067Y-118635818D01*
X161707542Y-118651057D01*
X161708932Y-118652262D01*
X161716615Y-118653933D01*
X161795333Y-118653933D01*
X161801849Y-118653596D01*
X161895699Y-118643858D01*
X161909095Y-118640965D01*
X162060520Y-118590445D01*
X162073682Y-118584280D01*
X162209059Y-118500507D01*
X162220461Y-118491469D01*
X162222134Y-118489794D01*
X162223560Y-118489014D01*
X162226194Y-118486926D01*
X162226551Y-118487377D01*
X162284416Y-118455714D01*
X162355236Y-118460717D01*
X162400321Y-118489634D01*
X162402160Y-118491469D01*
X162408564Y-118497862D01*
X162414794Y-118501702D01*
X162414795Y-118501703D01*
X162555683Y-118588548D01*
X162603176Y-118641321D01*
X162615567Y-118695808D01*
X162615567Y-127038066D01*
X162614310Y-127055820D01*
X162611054Y-127078697D01*
X162610914Y-127092061D01*
X162611117Y-127093736D01*
X162610673Y-127095626D01*
X162611342Y-127095602D01*
X162628590Y-127578605D01*
X162628591Y-127578619D01*
X162628671Y-127580859D01*
X162680952Y-128067165D01*
X162681354Y-128069393D01*
X162731208Y-128345723D01*
X162767792Y-128548503D01*
X162888750Y-129022419D01*
X162889461Y-129024555D01*
X163008478Y-129382146D01*
X163043209Y-129486498D01*
X163230382Y-129938376D01*
X163449314Y-130375750D01*
X163450454Y-130377672D01*
X163450462Y-130377686D01*
X163533753Y-130518065D01*
X163638824Y-130695155D01*
X163656382Y-130763944D01*
X163646871Y-130807663D01*
X163567952Y-130998191D01*
X163561948Y-131023200D01*
X163511288Y-131234209D01*
X163511287Y-131234215D01*
X163510133Y-131239022D01*
X163490701Y-131485933D01*
X163510133Y-131732844D01*
X163511287Y-131737651D01*
X163511288Y-131737657D01*
X163529514Y-131813571D01*
X163567952Y-131973675D01*
X163569845Y-131978246D01*
X163569846Y-131978248D01*
X163656158Y-132186622D01*
X163662733Y-132202496D01*
X163792142Y-132413673D01*
X163952994Y-132602006D01*
X164141327Y-132762858D01*
X164352504Y-132892267D01*
X164357074Y-132894160D01*
X164357078Y-132894162D01*
X164576752Y-132985154D01*
X164581325Y-132987048D01*
X164666237Y-133007434D01*
X164817343Y-133043712D01*
X164817349Y-133043713D01*
X164822156Y-133044867D01*
X165069067Y-133064299D01*
X165315978Y-133044867D01*
X165320785Y-133043713D01*
X165320791Y-133043712D01*
X165471897Y-133007434D01*
X165556809Y-132987048D01*
X165561382Y-132985154D01*
X165781056Y-132894162D01*
X165781060Y-132894160D01*
X165785630Y-132892267D01*
X165996807Y-132762858D01*
X166185140Y-132602006D01*
X166345992Y-132413673D01*
X166475401Y-132202496D01*
X166481977Y-132186622D01*
X166568288Y-131978248D01*
X166568289Y-131978246D01*
X166570182Y-131973675D01*
X166608620Y-131813571D01*
X166626846Y-131737657D01*
X166626847Y-131737651D01*
X166628001Y-131732844D01*
X166647433Y-131485933D01*
X166628001Y-131239022D01*
X166626847Y-131234215D01*
X166626846Y-131234209D01*
X166576186Y-131023200D01*
X166570182Y-130998191D01*
X166523596Y-130885723D01*
X166477296Y-130773944D01*
X166477294Y-130773940D01*
X166475401Y-130769370D01*
X166345992Y-130558193D01*
X166185140Y-130369860D01*
X165996807Y-130209008D01*
X165785630Y-130079599D01*
X165781060Y-130077706D01*
X165781056Y-130077704D01*
X165561382Y-129986712D01*
X165561380Y-129986711D01*
X165556809Y-129984818D01*
X165459234Y-129961392D01*
X165320791Y-129928154D01*
X165320785Y-129928153D01*
X165315978Y-129926999D01*
X165069067Y-129907567D01*
X164822156Y-129926999D01*
X164771645Y-129939126D01*
X164700739Y-129935579D01*
X164643005Y-129894259D01*
X164632298Y-129878173D01*
X164493211Y-129629815D01*
X164488720Y-129621000D01*
X164389462Y-129405691D01*
X164309420Y-129232068D01*
X164305637Y-129222933D01*
X164292777Y-129188072D01*
X164157409Y-128821138D01*
X164154352Y-128811729D01*
X164038106Y-128399548D01*
X164035796Y-128389928D01*
X164027004Y-128345723D01*
X163956197Y-127989745D01*
X163952248Y-127969889D01*
X163950700Y-127960117D01*
X163900364Y-127534813D01*
X163899588Y-127524950D01*
X163884264Y-127134881D01*
X163885245Y-127113489D01*
X163886194Y-127106284D01*
X163886194Y-127106278D01*
X163887185Y-127098752D01*
X163883328Y-127063812D01*
X163882567Y-127049987D01*
X163882567Y-124515171D01*
X163902569Y-124447050D01*
X163956225Y-124400557D01*
X164026499Y-124390453D01*
X164090398Y-124419360D01*
X164137568Y-124459648D01*
X164137572Y-124459651D01*
X164141327Y-124462858D01*
X164352504Y-124592267D01*
X164357074Y-124594160D01*
X164357078Y-124594162D01*
X164563566Y-124679692D01*
X164581325Y-124687048D01*
X164666237Y-124707434D01*
X164817343Y-124743712D01*
X164817349Y-124743713D01*
X164822156Y-124744867D01*
X165069067Y-124764299D01*
X165315978Y-124744867D01*
X165320785Y-124743713D01*
X165320791Y-124743712D01*
X165471897Y-124707434D01*
X165556809Y-124687048D01*
X165574568Y-124679692D01*
X165781056Y-124594162D01*
X165781060Y-124594160D01*
X165785630Y-124592267D01*
X165996807Y-124462858D01*
X166185140Y-124302006D01*
X166345992Y-124113673D01*
X166475401Y-123902496D01*
X166481199Y-123888500D01*
X166568288Y-123678248D01*
X166568289Y-123678246D01*
X166570182Y-123673675D01*
X166590568Y-123588763D01*
X166626846Y-123437657D01*
X166626847Y-123437651D01*
X166628001Y-123432844D01*
X166647433Y-123185933D01*
X166628001Y-122939022D01*
X166626847Y-122934215D01*
X166626846Y-122934209D01*
X166571337Y-122703003D01*
X166570182Y-122698191D01*
X166555426Y-122662567D01*
X166477296Y-122473944D01*
X166477294Y-122473940D01*
X166475401Y-122469370D01*
X166345992Y-122258193D01*
X166185140Y-122069860D01*
X165996807Y-121909008D01*
X165785630Y-121779599D01*
X165717409Y-121751341D01*
X165662129Y-121706792D01*
X165639708Y-121639429D01*
X165657266Y-121570638D01*
X165709229Y-121522259D01*
X165765628Y-121508932D01*
X166078736Y-121508932D01*
X166085557Y-121508562D01*
X166136419Y-121503038D01*
X166151671Y-121499412D01*
X166272121Y-121454257D01*
X166287716Y-121445719D01*
X166389791Y-121369218D01*
X166402352Y-121356657D01*
X166478853Y-121254582D01*
X166487391Y-121238987D01*
X166532545Y-121118539D01*
X166536172Y-121103284D01*
X166541698Y-121052419D01*
X166542067Y-121045605D01*
X166542067Y-120358048D01*
X166537592Y-120342809D01*
X166536202Y-120341604D01*
X166528519Y-120339933D01*
X164941067Y-120339933D01*
X164872946Y-120319931D01*
X164826453Y-120266275D01*
X164815067Y-120213933D01*
X164815067Y-119813818D01*
X165323067Y-119813818D01*
X165327542Y-119829057D01*
X165328932Y-119830262D01*
X165336615Y-119831933D01*
X166523951Y-119831933D01*
X166539190Y-119827458D01*
X166540395Y-119826068D01*
X166542066Y-119818385D01*
X166542066Y-119126264D01*
X166541696Y-119119443D01*
X166536172Y-119068581D01*
X166532546Y-119053329D01*
X166487391Y-118932879D01*
X166478853Y-118917284D01*
X166402352Y-118815209D01*
X166389791Y-118802648D01*
X166287716Y-118726147D01*
X166272121Y-118717609D01*
X166151673Y-118672455D01*
X166136418Y-118668828D01*
X166085553Y-118663302D01*
X166078739Y-118662933D01*
X165341182Y-118662933D01*
X165325943Y-118667408D01*
X165324738Y-118668798D01*
X165323067Y-118676481D01*
X165323067Y-119813818D01*
X164815067Y-119813818D01*
X164815067Y-118681049D01*
X164810592Y-118665810D01*
X164809202Y-118664605D01*
X164801519Y-118662934D01*
X164078818Y-118662934D01*
X164010697Y-118642932D01*
X163964204Y-118589276D01*
X163954100Y-118519002D01*
X163983594Y-118454422D01*
X163989645Y-118447916D01*
X164025473Y-118412026D01*
X164063496Y-118373936D01*
X164106120Y-118304788D01*
X164106175Y-118304699D01*
X166541067Y-118304699D01*
X166541404Y-118311215D01*
X166551142Y-118405065D01*
X166554035Y-118418461D01*
X166604555Y-118569886D01*
X166610720Y-118583048D01*
X166694493Y-118718425D01*
X166703527Y-118729823D01*
X166816196Y-118842296D01*
X166827607Y-118851308D01*
X166963130Y-118934845D01*
X166976308Y-118940989D01*
X167127833Y-118991248D01*
X167141199Y-118994114D01*
X167233837Y-119003605D01*
X167240252Y-119003933D01*
X167314452Y-119003933D01*
X167329691Y-118999458D01*
X167330896Y-118998068D01*
X167332567Y-118990385D01*
X167332567Y-118293048D01*
X167328092Y-118277809D01*
X167326702Y-118276604D01*
X167319019Y-118274933D01*
X166559182Y-118274933D01*
X166543943Y-118279408D01*
X166542738Y-118280798D01*
X166541067Y-118288481D01*
X166541067Y-118304699D01*
X164106175Y-118304699D01*
X164150936Y-118232083D01*
X164150937Y-118232081D01*
X164154776Y-118225853D01*
X164209541Y-118060742D01*
X164220067Y-117958005D01*
X164220067Y-117383861D01*
X164216603Y-117350473D01*
X164209986Y-117286698D01*
X164209985Y-117286694D01*
X164209274Y-117279840D01*
X164199818Y-117251495D01*
X164156539Y-117121774D01*
X164154221Y-117114826D01*
X164067612Y-116974867D01*
X164048774Y-116906415D01*
X164067496Y-116842448D01*
X164150936Y-116707083D01*
X164150937Y-116707081D01*
X164154776Y-116700853D01*
X164209541Y-116535742D01*
X164220067Y-116433005D01*
X164220067Y-115858861D01*
X164217376Y-115832923D01*
X164209986Y-115761698D01*
X164209985Y-115761694D01*
X164209274Y-115754840D01*
X164185832Y-115684576D01*
X164156537Y-115596767D01*
X164156536Y-115596765D01*
X164154221Y-115589826D01*
X164153528Y-115588706D01*
X164143117Y-115520973D01*
X164171982Y-115456109D01*
X164231333Y-115417147D01*
X164268003Y-115411693D01*
X165264567Y-115411693D01*
X165332688Y-115431695D01*
G37*
%TD.AperFunction*%
%TA.AperFunction,Conductor*%
G36*
X175507688Y-116149435D02*
G01*
X175554181Y-116203091D01*
X175565567Y-116255433D01*
X175565567Y-116511433D01*
X175545565Y-116579554D01*
X175491909Y-116626047D01*
X175439567Y-116637433D01*
X175246182Y-116637433D01*
X175230943Y-116641908D01*
X175229738Y-116643298D01*
X175228067Y-116650981D01*
X175228067Y-117460817D01*
X175232542Y-117476056D01*
X175233932Y-117477261D01*
X175241615Y-117478932D01*
X175435923Y-117478932D01*
X175504044Y-117498934D01*
X175550537Y-117552590D01*
X175561740Y-117605422D01*
X175560949Y-117611428D01*
X175561783Y-117618982D01*
X175562645Y-117626795D01*
X175563017Y-117650506D01*
X175551024Y-117802873D01*
X175547931Y-117822402D01*
X175543655Y-117840212D01*
X175514606Y-117961204D01*
X175511783Y-117972960D01*
X175476430Y-118034529D01*
X175415462Y-118066791D01*
X175366779Y-118077139D01*
X175360749Y-118079824D01*
X175360748Y-118079824D01*
X175198345Y-118152130D01*
X175198343Y-118152131D01*
X175192315Y-118154815D01*
X175037814Y-118267067D01*
X175033393Y-118271977D01*
X175033392Y-118271978D01*
X175014421Y-118293048D01*
X174910027Y-118408989D01*
X174814540Y-118574377D01*
X174755525Y-118756005D01*
X174754835Y-118762566D01*
X174754835Y-118762568D01*
X174745551Y-118850903D01*
X174735563Y-118945933D01*
X174736253Y-118952498D01*
X174741712Y-119004433D01*
X174755525Y-119135861D01*
X174814540Y-119317489D01*
X174817843Y-119323211D01*
X174817844Y-119323212D01*
X174842462Y-119365852D01*
X174910027Y-119482877D01*
X174914445Y-119487784D01*
X174914446Y-119487785D01*
X175033392Y-119619888D01*
X175037814Y-119624799D01*
X175192315Y-119737051D01*
X175198343Y-119739735D01*
X175198345Y-119739736D01*
X175350367Y-119807420D01*
X175366779Y-119814727D01*
X175460180Y-119834580D01*
X175547123Y-119853061D01*
X175547128Y-119853061D01*
X175553580Y-119854433D01*
X175744554Y-119854433D01*
X175751006Y-119853061D01*
X175751011Y-119853061D01*
X175837954Y-119834580D01*
X175931355Y-119814727D01*
X175947767Y-119807420D01*
X176099789Y-119739736D01*
X176099791Y-119739735D01*
X176105819Y-119737051D01*
X176260320Y-119624799D01*
X176264742Y-119619888D01*
X176383688Y-119487785D01*
X176383689Y-119487784D01*
X176388107Y-119482877D01*
X176455672Y-119365852D01*
X176480290Y-119323212D01*
X176480291Y-119323211D01*
X176483594Y-119317489D01*
X176542609Y-119135861D01*
X176556423Y-119004433D01*
X176561881Y-118952498D01*
X176562571Y-118945933D01*
X176559560Y-118917284D01*
X176549802Y-118824437D01*
X176564834Y-118750318D01*
X176567044Y-118746319D01*
X176587419Y-118709455D01*
X176601078Y-118676481D01*
X176694010Y-118452135D01*
X176694012Y-118452129D01*
X176695365Y-118448863D01*
X176708267Y-118404081D01*
X176772478Y-118181214D01*
X176772479Y-118181209D01*
X176773455Y-118177822D01*
X176820706Y-117899743D01*
X176831879Y-117700826D01*
X176833427Y-117700913D01*
X176833084Y-117698146D01*
X176832567Y-117698146D01*
X176832567Y-117690220D01*
X176832635Y-117689681D01*
X176832765Y-117685052D01*
X176834621Y-117652008D01*
X176835680Y-117641322D01*
X176836063Y-117638630D01*
X176837080Y-117631485D01*
X176837220Y-117618121D01*
X176836725Y-117614028D01*
X176836605Y-117611853D01*
X176852836Y-117542737D01*
X176903857Y-117493367D01*
X176962415Y-117478933D01*
X177176952Y-117478933D01*
X177192191Y-117474458D01*
X177193396Y-117473068D01*
X177195067Y-117465385D01*
X177195067Y-116655548D01*
X177190592Y-116640309D01*
X177189202Y-116639104D01*
X177181519Y-116637433D01*
X176958567Y-116637433D01*
X176890446Y-116617431D01*
X176843953Y-116563775D01*
X176832567Y-116511433D01*
X176832567Y-116255433D01*
X176852569Y-116187312D01*
X176906225Y-116140819D01*
X176958567Y-116129433D01*
X177577067Y-116129433D01*
X177645188Y-116149435D01*
X177691681Y-116203091D01*
X177703067Y-116255433D01*
X177703067Y-117460817D01*
X177707542Y-117476056D01*
X177708932Y-117477261D01*
X177716615Y-117478932D01*
X177971162Y-117478932D01*
X177977681Y-117478595D01*
X178073273Y-117468676D01*
X178086667Y-117465784D01*
X178218322Y-117421861D01*
X178289272Y-117419277D01*
X178350356Y-117455461D01*
X178382180Y-117518925D01*
X178382515Y-117561910D01*
X178312404Y-117986556D01*
X178310795Y-117994642D01*
X178194666Y-118492689D01*
X178193681Y-118496912D01*
X178191550Y-118504867D01*
X178041828Y-118998424D01*
X178039188Y-119006202D01*
X177857502Y-119488922D01*
X177854359Y-119496511D01*
X177641486Y-119966325D01*
X177637855Y-119973689D01*
X177471874Y-120284213D01*
X177394719Y-120428558D01*
X177390596Y-120435698D01*
X177118249Y-120873663D01*
X177113669Y-120880518D01*
X176813246Y-121299751D01*
X176808243Y-121306272D01*
X176765726Y-121358078D01*
X176650421Y-121498576D01*
X176591743Y-121538545D01*
X176530930Y-121542690D01*
X176519946Y-121540734D01*
X176519940Y-121540733D01*
X176514851Y-121539827D01*
X176416650Y-121538627D01*
X176296648Y-121537161D01*
X176296646Y-121537161D01*
X176291478Y-121537098D01*
X176070658Y-121570888D01*
X175858323Y-121640290D01*
X175660174Y-121743440D01*
X175656041Y-121746543D01*
X175656038Y-121746545D01*
X175527588Y-121842988D01*
X175481532Y-121877568D01*
X175327196Y-122039071D01*
X175296930Y-122083440D01*
X175242022Y-122128440D01*
X175192844Y-122138433D01*
X175042506Y-122138433D01*
X174974385Y-122118431D01*
X174936714Y-122080874D01*
X174929385Y-122069545D01*
X174926581Y-122065210D01*
X174776237Y-121899984D01*
X174772186Y-121896785D01*
X174772182Y-121896781D01*
X174604981Y-121764733D01*
X174604977Y-121764731D01*
X174600926Y-121761531D01*
X174405356Y-121653571D01*
X174400487Y-121651847D01*
X174400483Y-121651845D01*
X174199654Y-121580728D01*
X174199650Y-121580727D01*
X174194779Y-121579002D01*
X174189686Y-121578095D01*
X174189683Y-121578094D01*
X173979940Y-121540733D01*
X173979934Y-121540732D01*
X173974851Y-121539827D01*
X173901019Y-121538925D01*
X173756648Y-121537161D01*
X173756646Y-121537161D01*
X173751478Y-121537098D01*
X173530658Y-121570888D01*
X173318323Y-121640290D01*
X173120174Y-121743440D01*
X173116041Y-121746543D01*
X173116038Y-121746545D01*
X172987588Y-121842988D01*
X172941532Y-121877568D01*
X172937960Y-121881306D01*
X172937959Y-121881307D01*
X172924660Y-121895223D01*
X172863135Y-121930653D01*
X172792223Y-121927195D01*
X172734437Y-121885948D01*
X172708124Y-121820007D01*
X172707567Y-121808171D01*
X172707567Y-119421828D01*
X172708560Y-119406037D01*
X172711409Y-119383482D01*
X172712292Y-119376493D01*
X172709699Y-119350051D01*
X172709250Y-119331579D01*
X172722167Y-119068581D01*
X172723748Y-119036407D01*
X172724959Y-119024108D01*
X172727878Y-119004433D01*
X172770300Y-118718425D01*
X172772442Y-118703983D01*
X172774854Y-118691856D01*
X172825465Y-118489794D01*
X172853486Y-118377925D01*
X172857074Y-118366095D01*
X172890748Y-118271978D01*
X172966100Y-118061376D01*
X172970831Y-118049955D01*
X173109198Y-117757395D01*
X173115027Y-117746490D01*
X173253380Y-117515657D01*
X173305557Y-117467511D01*
X173361454Y-117454433D01*
X173461139Y-117454433D01*
X173464385Y-117454096D01*
X173464389Y-117454096D01*
X173558302Y-117444352D01*
X173558306Y-117444351D01*
X173565160Y-117443640D01*
X173571696Y-117441459D01*
X173571698Y-117441459D01*
X173704462Y-117397165D01*
X173730174Y-117388587D01*
X173870582Y-117301700D01*
X173939034Y-117282862D01*
X174006804Y-117304023D01*
X174014808Y-117310567D01*
X174015150Y-117310134D01*
X174032307Y-117323684D01*
X174170310Y-117408749D01*
X174183491Y-117414896D01*
X174337777Y-117466071D01*
X174351153Y-117468938D01*
X174445505Y-117478605D01*
X174451921Y-117478933D01*
X174701952Y-117478933D01*
X174717191Y-117474458D01*
X174718396Y-117473068D01*
X174720067Y-117465385D01*
X174720067Y-116255433D01*
X174740069Y-116187312D01*
X174793725Y-116140819D01*
X174846067Y-116129433D01*
X175439567Y-116129433D01*
X175507688Y-116149435D01*
G37*
%TD.AperFunction*%
%TA.AperFunction,Conductor*%
G36*
X169594966Y-111409672D02*
G01*
X169604916Y-111415134D01*
X169869628Y-111576399D01*
X169877774Y-111581807D01*
X170017875Y-111682877D01*
X170183560Y-111802404D01*
X170191277Y-111808441D01*
X170229113Y-111840488D01*
X170446791Y-112024857D01*
X170461441Y-112039495D01*
X170471686Y-112051572D01*
X170477316Y-112055798D01*
X170489843Y-112065201D01*
X170503298Y-112076876D01*
X171848760Y-113422338D01*
X171882786Y-113484650D01*
X171877721Y-113555465D01*
X171835174Y-113612301D01*
X171768654Y-113637112D01*
X171759665Y-113637433D01*
X171361995Y-113637433D01*
X171358749Y-113637770D01*
X171358745Y-113637770D01*
X171264832Y-113647514D01*
X171264828Y-113647515D01*
X171257974Y-113648226D01*
X171251438Y-113650407D01*
X171251436Y-113650407D01*
X171234831Y-113655947D01*
X171092960Y-113703279D01*
X170945036Y-113794817D01*
X170939864Y-113799998D01*
X170932565Y-113807310D01*
X170870283Y-113841390D01*
X170799463Y-113836387D01*
X170779252Y-113826747D01*
X170719288Y-113791285D01*
X170704857Y-113785040D01*
X170559002Y-113742664D01*
X170546400Y-113740363D01*
X170517983Y-113738126D01*
X170513053Y-113737933D01*
X170133682Y-113737933D01*
X170118443Y-113742408D01*
X170117238Y-113743798D01*
X170115567Y-113751481D01*
X170115567Y-115335817D01*
X170120042Y-115351056D01*
X170121432Y-115352261D01*
X170129115Y-115353932D01*
X170513051Y-115353932D01*
X170517987Y-115353738D01*
X170546403Y-115351503D01*
X170559001Y-115349202D01*
X170692629Y-115310379D01*
X170763625Y-115310582D01*
X170822515Y-115350400D01*
X170822951Y-115349964D01*
X170828130Y-115355134D01*
X170929853Y-115456680D01*
X170963932Y-115518963D01*
X170958929Y-115589783D01*
X170930008Y-115634871D01*
X170901977Y-115662951D01*
X170839695Y-115697030D01*
X170812804Y-115699933D01*
X170766637Y-115699933D01*
X170717792Y-115689818D01*
X170712668Y-115686788D01*
X170705060Y-115684578D01*
X170705056Y-115684576D01*
X170624645Y-115661215D01*
X170552898Y-115640371D01*
X170546493Y-115639867D01*
X170546488Y-115639866D01*
X170518025Y-115637626D01*
X170518017Y-115637626D01*
X170515569Y-115637433D01*
X169358567Y-115637433D01*
X169290446Y-115617431D01*
X169243953Y-115563775D01*
X169232567Y-115511433D01*
X169232567Y-115479933D01*
X169252569Y-115411812D01*
X169306225Y-115365319D01*
X169358567Y-115353933D01*
X169589452Y-115353933D01*
X169604691Y-115349458D01*
X169605896Y-115348068D01*
X169607567Y-115340385D01*
X169607567Y-114818048D01*
X169603092Y-114802809D01*
X169601702Y-114801604D01*
X169594019Y-114799933D01*
X168978909Y-114799933D01*
X168914770Y-114782386D01*
X168844494Y-114740825D01*
X168844495Y-114740825D01*
X168837668Y-114736788D01*
X168830057Y-114734577D01*
X168830055Y-114734576D01*
X168777836Y-114719405D01*
X168677898Y-114690371D01*
X168671493Y-114689867D01*
X168671488Y-114689866D01*
X168643025Y-114687626D01*
X168643017Y-114687626D01*
X168640569Y-114687433D01*
X167332565Y-114687433D01*
X167330117Y-114687626D01*
X167330109Y-114687626D01*
X167301646Y-114689866D01*
X167301641Y-114689867D01*
X167295236Y-114690371D01*
X167195298Y-114719405D01*
X167143079Y-114734576D01*
X167143077Y-114734577D01*
X167135466Y-114736788D01*
X166999024Y-114817480D01*
X166930210Y-114834939D01*
X166862879Y-114812423D01*
X166818115Y-114756357D01*
X166767583Y-114631687D01*
X166767581Y-114631682D01*
X166765776Y-114627230D01*
X166656962Y-114444670D01*
X166528206Y-114288639D01*
X166524748Y-114284449D01*
X166524747Y-114284448D01*
X166521693Y-114280747D01*
X166518113Y-114277553D01*
X166518109Y-114277549D01*
X166514734Y-114274538D01*
X168624128Y-114274538D01*
X168624168Y-114288639D01*
X168631437Y-114291933D01*
X169589452Y-114291933D01*
X169604691Y-114287458D01*
X169605896Y-114286068D01*
X169607567Y-114278385D01*
X169607567Y-113756049D01*
X169603092Y-113740810D01*
X169601702Y-113739605D01*
X169594019Y-113737934D01*
X169210084Y-113737934D01*
X169205147Y-113738128D01*
X169176731Y-113740363D01*
X169164136Y-113742663D01*
X169018277Y-113785040D01*
X169003846Y-113791285D01*
X168874389Y-113867844D01*
X168861963Y-113877484D01*
X168755618Y-113983829D01*
X168745978Y-113996255D01*
X168669419Y-114125712D01*
X168663174Y-114140143D01*
X168624128Y-114274538D01*
X166514734Y-114274538D01*
X166366692Y-114142462D01*
X166363104Y-114139261D01*
X166359075Y-114136644D01*
X166359071Y-114136641D01*
X166225983Y-114050196D01*
X166179751Y-113996316D01*
X166169988Y-113925994D01*
X166199794Y-113861557D01*
X166228314Y-113837386D01*
X166245133Y-113826978D01*
X166313585Y-113808140D01*
X166377552Y-113826862D01*
X166511991Y-113909731D01*
X166519147Y-113914142D01*
X166684258Y-113968907D01*
X166691094Y-113969607D01*
X166691097Y-113969608D01*
X166742593Y-113974884D01*
X166786995Y-113979433D01*
X167361139Y-113979433D01*
X167364385Y-113979096D01*
X167364389Y-113979096D01*
X167458302Y-113969352D01*
X167458306Y-113969351D01*
X167465160Y-113968640D01*
X167471696Y-113966459D01*
X167471698Y-113966459D01*
X167617156Y-113917930D01*
X167630174Y-113913587D01*
X167778098Y-113822049D01*
X167792811Y-113807310D01*
X167895825Y-113704117D01*
X167895829Y-113704112D01*
X167900996Y-113698936D01*
X167932693Y-113647514D01*
X167988436Y-113557083D01*
X167988437Y-113557081D01*
X167992276Y-113550853D01*
X168047041Y-113385742D01*
X168047872Y-113377637D01*
X168057239Y-113286204D01*
X168057567Y-113283005D01*
X168057567Y-112683861D01*
X168054860Y-112657767D01*
X168047486Y-112586698D01*
X168047485Y-112586694D01*
X168046774Y-112579840D01*
X167991721Y-112414826D01*
X167900183Y-112266902D01*
X167879332Y-112246087D01*
X167793281Y-112160186D01*
X167759202Y-112097903D01*
X167764205Y-112027083D01*
X167793126Y-111981996D01*
X167879319Y-111895652D01*
X167941601Y-111861572D01*
X168012421Y-111866575D01*
X168042553Y-111882733D01*
X168107718Y-111930078D01*
X168117315Y-111937051D01*
X168123343Y-111939735D01*
X168123345Y-111939736D01*
X168252073Y-111997049D01*
X168291779Y-112014727D01*
X168385179Y-112034580D01*
X168472123Y-112053061D01*
X168472128Y-112053061D01*
X168478580Y-112054433D01*
X168669554Y-112054433D01*
X168676006Y-112053061D01*
X168676011Y-112053061D01*
X168762954Y-112034580D01*
X168856355Y-112014727D01*
X168896061Y-111997049D01*
X169024789Y-111939736D01*
X169024791Y-111939735D01*
X169030819Y-111937051D01*
X169040417Y-111930078D01*
X169127328Y-111866933D01*
X169185320Y-111824799D01*
X169248675Y-111754436D01*
X169308688Y-111687785D01*
X169308689Y-111687784D01*
X169313107Y-111682877D01*
X169408594Y-111517489D01*
X169419538Y-111483807D01*
X169459612Y-111425201D01*
X169525009Y-111397565D01*
X169594966Y-111409672D01*
G37*
%TD.AperFunction*%
%TA.AperFunction,Conductor*%
G36*
X175138542Y-102074030D02*
G01*
X175378622Y-102187578D01*
X175389524Y-102193405D01*
X175520952Y-102272179D01*
X175653922Y-102351878D01*
X175664203Y-102358748D01*
X175911786Y-102542368D01*
X175921344Y-102550212D01*
X176120482Y-102730699D01*
X176135427Y-102746835D01*
X176143451Y-102757180D01*
X176176115Y-102784010D01*
X176185225Y-102792272D01*
X176464135Y-103071182D01*
X176498161Y-103133494D01*
X176493096Y-103204309D01*
X176450549Y-103261145D01*
X176414916Y-103279801D01*
X176350114Y-103301421D01*
X176336952Y-103307586D01*
X176201575Y-103391359D01*
X176190177Y-103400393D01*
X176077704Y-103513062D01*
X176068692Y-103524473D01*
X175985155Y-103659996D01*
X175979011Y-103673174D01*
X175928752Y-103824699D01*
X175925886Y-103838065D01*
X175916395Y-103930703D01*
X175916067Y-103937118D01*
X175916067Y-103948818D01*
X175920542Y-103964057D01*
X175921932Y-103965262D01*
X175929615Y-103966933D01*
X177089567Y-103966933D01*
X177157688Y-103986935D01*
X177204181Y-104040591D01*
X177215567Y-104092933D01*
X177215567Y-105185818D01*
X177220042Y-105201057D01*
X177221432Y-105202262D01*
X177229115Y-105203933D01*
X177307833Y-105203933D01*
X177314349Y-105203596D01*
X177408199Y-105193858D01*
X177421595Y-105190965D01*
X177573020Y-105140445D01*
X177586182Y-105134280D01*
X177721559Y-105050507D01*
X177732961Y-105041469D01*
X177734634Y-105039794D01*
X177736060Y-105039014D01*
X177738694Y-105036926D01*
X177739051Y-105037377D01*
X177796916Y-105005714D01*
X177867736Y-105010717D01*
X177912821Y-105039634D01*
X177914660Y-105041469D01*
X177921064Y-105047862D01*
X177927294Y-105051702D01*
X177927295Y-105051703D01*
X178013316Y-105104727D01*
X178069147Y-105139142D01*
X178234258Y-105193907D01*
X178241092Y-105194607D01*
X178241096Y-105194608D01*
X178330531Y-105203771D01*
X178396258Y-105230612D01*
X178437040Y-105288727D01*
X178440206Y-105299700D01*
X178450005Y-105340515D01*
X178453098Y-105360042D01*
X178453122Y-105360342D01*
X178459572Y-105442277D01*
X178462230Y-105476045D01*
X178461810Y-105493891D01*
X178461823Y-105493891D01*
X178461725Y-105500937D01*
X178460842Y-105507927D01*
X178461530Y-105514942D01*
X178464965Y-105549970D01*
X178465567Y-105562267D01*
X178465567Y-113187983D01*
X178445565Y-113256104D01*
X178391909Y-113302597D01*
X178321635Y-113312701D01*
X178273451Y-113295243D01*
X178253035Y-113282658D01*
X178253033Y-113282657D01*
X178246805Y-113278818D01*
X178086321Y-113225588D01*
X178085456Y-113225301D01*
X178085454Y-113225301D01*
X178078928Y-113223136D01*
X178072092Y-113222436D01*
X178072089Y-113222435D01*
X178029036Y-113218024D01*
X177974467Y-113212433D01*
X176946700Y-113212433D01*
X176878579Y-113192431D01*
X176832086Y-113138775D01*
X176822064Y-113104920D01*
X176807177Y-113004554D01*
X176782662Y-112839279D01*
X176774237Y-112805642D01*
X176735998Y-112652984D01*
X176716595Y-112575522D01*
X176715557Y-112572621D01*
X176715554Y-112572611D01*
X176626037Y-112322425D01*
X176624994Y-112319510D01*
X176508740Y-112073709D01*
X176478426Y-112023133D01*
X176370542Y-111843138D01*
X176370536Y-111843129D01*
X176368953Y-111840488D01*
X176285334Y-111727740D01*
X176208823Y-111624576D01*
X176208820Y-111624573D01*
X176206979Y-111622090D01*
X176080118Y-111482121D01*
X176081481Y-111480886D01*
X176079123Y-111479065D01*
X176078613Y-111479575D01*
X176072245Y-111473207D01*
X176067980Y-111468728D01*
X176050495Y-111449436D01*
X176043094Y-111440472D01*
X176037138Y-111432539D01*
X176037135Y-111432535D01*
X176034660Y-111429239D01*
X176025309Y-111419691D01*
X176022065Y-111417147D01*
X176022059Y-111417142D01*
X176010957Y-111408437D01*
X175988739Y-111385986D01*
X175979451Y-111373881D01*
X175973526Y-111369134D01*
X175973523Y-111369131D01*
X175964078Y-111361564D01*
X175948910Y-111347191D01*
X175780873Y-111159156D01*
X175772063Y-111148109D01*
X175610645Y-110920609D01*
X175603128Y-110908646D01*
X175572277Y-110852825D01*
X175468199Y-110664509D01*
X175462071Y-110651785D01*
X175402435Y-110507812D01*
X175355321Y-110394067D01*
X175350618Y-110380604D01*
X175350585Y-110380489D01*
X175351022Y-110309494D01*
X175382524Y-110256717D01*
X175390362Y-110248866D01*
X175395694Y-110243525D01*
X175457975Y-110209446D01*
X175528795Y-110214449D01*
X175573882Y-110243369D01*
X175681943Y-110351241D01*
X175688173Y-110355081D01*
X175688174Y-110355082D01*
X175783228Y-110413674D01*
X175830026Y-110442521D01*
X175995137Y-110497286D01*
X176001973Y-110497986D01*
X176001976Y-110497987D01*
X176053472Y-110503263D01*
X176097874Y-110507812D01*
X176697018Y-110507812D01*
X176700264Y-110507475D01*
X176700268Y-110507475D01*
X176794181Y-110497731D01*
X176794185Y-110497730D01*
X176801039Y-110497019D01*
X176807575Y-110494838D01*
X176807577Y-110494838D01*
X176940341Y-110450544D01*
X176966053Y-110441966D01*
X177113977Y-110350428D01*
X177166276Y-110298038D01*
X177231704Y-110232496D01*
X177231708Y-110232491D01*
X177236875Y-110227315D01*
X177267238Y-110178057D01*
X177324315Y-110085462D01*
X177324316Y-110085460D01*
X177328155Y-110079232D01*
X177382920Y-109914121D01*
X177386687Y-109877360D01*
X177392701Y-109818654D01*
X177393446Y-109811384D01*
X177393446Y-109237240D01*
X177392972Y-109232671D01*
X177383365Y-109140077D01*
X177383364Y-109140073D01*
X177382653Y-109133219D01*
X177375178Y-109110812D01*
X177329918Y-108975153D01*
X177327600Y-108968205D01*
X177239446Y-108825749D01*
X177220609Y-108757297D01*
X177239331Y-108693331D01*
X177324315Y-108555462D01*
X177324316Y-108555460D01*
X177328155Y-108549232D01*
X177382920Y-108384121D01*
X177393446Y-108281384D01*
X177393446Y-107707240D01*
X177382653Y-107603219D01*
X177370667Y-107567291D01*
X177329918Y-107445153D01*
X177327600Y-107438205D01*
X177285191Y-107369673D01*
X177252006Y-107316046D01*
X177233168Y-107247594D01*
X177254310Y-107179884D01*
X177256875Y-107177315D01*
X177329892Y-107058860D01*
X177344315Y-107035462D01*
X177344316Y-107035460D01*
X177348155Y-107029232D01*
X177402920Y-106864121D01*
X177413446Y-106761384D01*
X177413446Y-106187240D01*
X177410288Y-106156804D01*
X177403365Y-106090077D01*
X177403364Y-106090073D01*
X177402653Y-106083219D01*
X177397701Y-106068374D01*
X177349918Y-105925153D01*
X177347600Y-105918205D01*
X177256062Y-105770281D01*
X177216483Y-105730771D01*
X177138130Y-105652554D01*
X177138125Y-105652550D01*
X177132949Y-105647383D01*
X176984866Y-105556103D01*
X176843413Y-105509185D01*
X176785054Y-105468754D01*
X176772803Y-105450541D01*
X176723277Y-105360932D01*
X176704098Y-105326230D01*
X176688653Y-105256935D01*
X176699541Y-105227280D01*
X176707567Y-105190385D01*
X176707567Y-104493048D01*
X176703092Y-104477809D01*
X176701702Y-104476604D01*
X176694019Y-104474933D01*
X175987202Y-104474933D01*
X175919081Y-104454931D01*
X175898107Y-104438028D01*
X175363895Y-103903816D01*
X175329869Y-103841504D01*
X175327553Y-103807391D01*
X175327276Y-103807380D01*
X175327374Y-103804891D01*
X175327567Y-103802435D01*
X175327567Y-103369431D01*
X175324629Y-103332102D01*
X175278212Y-103172332D01*
X175193520Y-103029126D01*
X175190580Y-103026186D01*
X175165247Y-102961667D01*
X175179146Y-102892044D01*
X175191193Y-102873297D01*
X175197157Y-102865609D01*
X175273715Y-102736154D01*
X175279960Y-102721723D01*
X175319006Y-102587328D01*
X175318966Y-102573227D01*
X175311697Y-102569933D01*
X173716067Y-102569933D01*
X173647946Y-102549931D01*
X173601453Y-102496275D01*
X173590067Y-102443933D01*
X173590067Y-102187933D01*
X173610069Y-102119812D01*
X173663725Y-102073319D01*
X173716067Y-102061933D01*
X175084671Y-102061933D01*
X175138542Y-102074030D01*
G37*
%TD.AperFunction*%
%TA.AperFunction,Conductor*%
G36*
X162627661Y-111823488D02*
G01*
X162669183Y-111861379D01*
X162681437Y-111866933D01*
X162919225Y-111866933D01*
X162983364Y-111884480D01*
X163002255Y-111895652D01*
X163060466Y-111930078D01*
X163068077Y-111932289D01*
X163068079Y-111932290D01*
X163084467Y-111937051D01*
X163220236Y-111976495D01*
X163226641Y-111976999D01*
X163226646Y-111977000D01*
X163255109Y-111979240D01*
X163255117Y-111979240D01*
X163257565Y-111979433D01*
X163964567Y-111979433D01*
X164032688Y-111999435D01*
X164079181Y-112053091D01*
X164090567Y-112105433D01*
X164090567Y-112936433D01*
X164070565Y-113004554D01*
X164016909Y-113051047D01*
X163964567Y-113062433D01*
X163708567Y-113062433D01*
X163640446Y-113042431D01*
X163593953Y-112988775D01*
X163582567Y-112936433D01*
X163582567Y-112393048D01*
X163578092Y-112377809D01*
X163576702Y-112376604D01*
X163569019Y-112374933D01*
X162687189Y-112374933D01*
X162671951Y-112379407D01*
X162663799Y-112388815D01*
X162604073Y-112427199D01*
X162533077Y-112427199D01*
X162491347Y-112405862D01*
X162486482Y-112402088D01*
X162480874Y-112396480D01*
X162474050Y-112392444D01*
X162474047Y-112392442D01*
X162355654Y-112322425D01*
X162337668Y-112311788D01*
X162330057Y-112309577D01*
X162330055Y-112309576D01*
X162277836Y-112294405D01*
X162177898Y-112265371D01*
X162171493Y-112264867D01*
X162171488Y-112264866D01*
X162143025Y-112262626D01*
X162143017Y-112262626D01*
X162140569Y-112262433D01*
X160982565Y-112262433D01*
X160980117Y-112262626D01*
X160980109Y-112262626D01*
X160951646Y-112264866D01*
X160951641Y-112264867D01*
X160945236Y-112265371D01*
X160845298Y-112294405D01*
X160793079Y-112309576D01*
X160793077Y-112309577D01*
X160785466Y-112311788D01*
X160781925Y-112313882D01*
X160713148Y-112322372D01*
X160649169Y-112291595D01*
X160611986Y-112231115D01*
X160607567Y-112198038D01*
X160607567Y-112043828D01*
X160627569Y-111975707D01*
X160681225Y-111929214D01*
X160751499Y-111919110D01*
X160781055Y-111927469D01*
X160785466Y-111930078D01*
X160793077Y-111932289D01*
X160793079Y-111932290D01*
X160809467Y-111937051D01*
X160945236Y-111976495D01*
X160951641Y-111976999D01*
X160951646Y-111977000D01*
X160980109Y-111979240D01*
X160980117Y-111979240D01*
X160982565Y-111979433D01*
X162140569Y-111979433D01*
X162143017Y-111979240D01*
X162143025Y-111979240D01*
X162171488Y-111977000D01*
X162171493Y-111976999D01*
X162177898Y-111976495D01*
X162313667Y-111937051D01*
X162330055Y-111932290D01*
X162330057Y-111932289D01*
X162337668Y-111930078D01*
X162480874Y-111845386D01*
X162486483Y-111839777D01*
X162491953Y-111835534D01*
X162558038Y-111809587D01*
X162627661Y-111823488D01*
G37*
%TD.AperFunction*%
%TA.AperFunction,Conductor*%
G36*
X166137310Y-105713384D02*
G01*
X166154425Y-105724361D01*
X166156997Y-105726929D01*
X166218935Y-105765108D01*
X166287957Y-105807654D01*
X166305080Y-105818209D01*
X166470191Y-105872974D01*
X166477027Y-105873674D01*
X166477030Y-105873675D01*
X166528526Y-105878951D01*
X166572928Y-105883500D01*
X167147072Y-105883500D01*
X167150318Y-105883163D01*
X167150322Y-105883163D01*
X167244235Y-105873419D01*
X167244239Y-105873418D01*
X167251093Y-105872707D01*
X167257630Y-105870526D01*
X167257635Y-105870525D01*
X167289483Y-105859900D01*
X167360433Y-105857316D01*
X167421516Y-105893501D01*
X167453340Y-105956965D01*
X167448951Y-106019089D01*
X167427026Y-106085191D01*
X167426326Y-106092027D01*
X167426325Y-106092030D01*
X167423163Y-106122898D01*
X167416500Y-106187928D01*
X167416500Y-106762072D01*
X167416837Y-106765318D01*
X167416837Y-106765322D01*
X167426379Y-106857282D01*
X167427293Y-106866093D01*
X167429474Y-106872629D01*
X167429474Y-106872631D01*
X167480995Y-107027058D01*
X167483579Y-107098007D01*
X167447395Y-107159091D01*
X167383931Y-107190916D01*
X167361471Y-107192934D01*
X166714398Y-107192934D01*
X166707577Y-107193304D01*
X166656715Y-107198828D01*
X166641463Y-107202454D01*
X166521013Y-107247609D01*
X166505418Y-107256147D01*
X166403343Y-107332648D01*
X166390782Y-107345209D01*
X166314281Y-107447284D01*
X166305743Y-107462879D01*
X166260589Y-107583327D01*
X166256962Y-107598582D01*
X166251436Y-107649447D01*
X166251067Y-107656261D01*
X166251067Y-108328818D01*
X166255542Y-108344057D01*
X166256932Y-108345262D01*
X166264615Y-108346933D01*
X167787067Y-108346933D01*
X167855188Y-108366935D01*
X167901681Y-108420591D01*
X167913067Y-108472933D01*
X167913067Y-108728933D01*
X167893065Y-108797054D01*
X167839409Y-108843547D01*
X167787067Y-108854933D01*
X166269183Y-108854933D01*
X166253944Y-108859408D01*
X166252739Y-108860798D01*
X166251068Y-108868481D01*
X166251068Y-109110812D01*
X166231066Y-109178933D01*
X166177410Y-109225426D01*
X166125068Y-109236812D01*
X165860673Y-109236812D01*
X165844880Y-109235818D01*
X165815348Y-109232087D01*
X165792470Y-109234330D01*
X165771937Y-109234661D01*
X165715569Y-109230966D01*
X165562352Y-109220923D01*
X165546012Y-109218772D01*
X165430963Y-109195887D01*
X165315911Y-109173002D01*
X165299997Y-109168738D01*
X165129352Y-109110812D01*
X165077846Y-109093328D01*
X165062619Y-109087021D01*
X164852206Y-108983257D01*
X164837940Y-108975021D01*
X164642860Y-108844674D01*
X164629797Y-108834650D01*
X164619649Y-108825750D01*
X164480120Y-108703388D01*
X164463644Y-108685891D01*
X164458078Y-108678715D01*
X164425425Y-108651894D01*
X164416305Y-108643624D01*
X163070297Y-107297615D01*
X163036271Y-107235303D01*
X163041336Y-107164487D01*
X163083883Y-107107652D01*
X163108144Y-107093413D01*
X163275719Y-107018805D01*
X163275726Y-107018801D01*
X163281752Y-107016118D01*
X163436253Y-106903866D01*
X163460446Y-106876997D01*
X163559621Y-106766852D01*
X163559622Y-106766851D01*
X163564040Y-106761944D01*
X163659527Y-106596556D01*
X163718542Y-106414928D01*
X163727708Y-106327724D01*
X163737814Y-106231565D01*
X163738504Y-106225000D01*
X163738316Y-106223214D01*
X163757816Y-106156804D01*
X163774719Y-106135830D01*
X163864554Y-106045995D01*
X163876942Y-106035130D01*
X163895765Y-106020686D01*
X163895766Y-106020685D01*
X163902317Y-106015658D01*
X163916614Y-105997025D01*
X163921843Y-105990654D01*
X163989747Y-105913220D01*
X164049699Y-105875191D01*
X164071477Y-105870968D01*
X164144235Y-105863419D01*
X164144239Y-105863418D01*
X164151093Y-105862707D01*
X164157629Y-105860526D01*
X164157631Y-105860526D01*
X164309159Y-105809972D01*
X164316107Y-105807654D01*
X164456580Y-105720727D01*
X164525031Y-105701889D01*
X164592801Y-105723050D01*
X164593941Y-105723879D01*
X164596997Y-105726929D01*
X164612183Y-105736290D01*
X164727957Y-105807654D01*
X164745080Y-105818209D01*
X164910191Y-105872974D01*
X164917027Y-105873674D01*
X164917030Y-105873675D01*
X164968526Y-105878951D01*
X165012928Y-105883500D01*
X165587072Y-105883500D01*
X165590318Y-105883163D01*
X165590322Y-105883163D01*
X165684235Y-105873419D01*
X165684239Y-105873418D01*
X165691093Y-105872707D01*
X165697629Y-105870526D01*
X165697631Y-105870526D01*
X165830395Y-105826232D01*
X165856107Y-105817654D01*
X165932661Y-105770281D01*
X165997805Y-105729969D01*
X165997806Y-105729968D01*
X166004031Y-105726116D01*
X166004353Y-105725794D01*
X166067545Y-105700214D01*
X166137310Y-105713384D01*
G37*
%TD.AperFunction*%
%TA.AperFunction,Conductor*%
G36*
X161844322Y-50574435D02*
G01*
X161890815Y-50628091D01*
X161901893Y-50689241D01*
X161900381Y-50710820D01*
X161907968Y-50724691D01*
X162647188Y-51463911D01*
X162661132Y-51471525D01*
X162662965Y-51471394D01*
X162669580Y-51467143D01*
X163413389Y-50723334D01*
X163421003Y-50709390D01*
X163419575Y-50689423D01*
X163434666Y-50620048D01*
X163484868Y-50569846D01*
X163545254Y-50554433D01*
X172964094Y-50554433D01*
X173032215Y-50574435D01*
X173078708Y-50628091D01*
X173088812Y-50698365D01*
X173071354Y-50746548D01*
X173047657Y-50784992D01*
X173041511Y-50798174D01*
X172991252Y-50949699D01*
X172988386Y-50963065D01*
X172978895Y-51055703D01*
X172978567Y-51062118D01*
X172978567Y-51073818D01*
X172983042Y-51089057D01*
X172984432Y-51090262D01*
X172992115Y-51091933D01*
X174152067Y-51091933D01*
X174220188Y-51111935D01*
X174266681Y-51165591D01*
X174278067Y-51217933D01*
X174278067Y-52310818D01*
X174282542Y-52326057D01*
X174283932Y-52327262D01*
X174291615Y-52328933D01*
X174370333Y-52328933D01*
X174376849Y-52328596D01*
X174470699Y-52318858D01*
X174484095Y-52315965D01*
X174635520Y-52265445D01*
X174648682Y-52259280D01*
X174784059Y-52175507D01*
X174795461Y-52166469D01*
X174797134Y-52164794D01*
X174798560Y-52164014D01*
X174801194Y-52161926D01*
X174801551Y-52162377D01*
X174859416Y-52130714D01*
X174930236Y-52135717D01*
X174975321Y-52164634D01*
X174977160Y-52166469D01*
X174983564Y-52172862D01*
X174989794Y-52176702D01*
X174989795Y-52176703D01*
X175089852Y-52238379D01*
X175131647Y-52264142D01*
X175296758Y-52318907D01*
X175303594Y-52319607D01*
X175303597Y-52319608D01*
X175350937Y-52324458D01*
X175399495Y-52329433D01*
X175792825Y-52329433D01*
X175853771Y-52345153D01*
X175875396Y-52357105D01*
X175878670Y-52358461D01*
X176088892Y-52445536D01*
X176127708Y-52461614D01*
X176390134Y-52537214D01*
X176393606Y-52537804D01*
X176393611Y-52537805D01*
X176500153Y-52555905D01*
X176659375Y-52582956D01*
X176702793Y-52585393D01*
X176769685Y-52609181D01*
X176797357Y-52636729D01*
X176799987Y-52641021D01*
X176946250Y-52809871D01*
X177118126Y-52952565D01*
X177129063Y-52958956D01*
X177191445Y-52995409D01*
X177240169Y-53047047D01*
X177253240Y-53116830D01*
X177226509Y-53182602D01*
X177186055Y-53215960D01*
X177173607Y-53222440D01*
X177169474Y-53225543D01*
X177169471Y-53225545D01*
X177145247Y-53243733D01*
X176994965Y-53356568D01*
X176840629Y-53518071D01*
X176837715Y-53522343D01*
X176837714Y-53522344D01*
X176819838Y-53548550D01*
X176714743Y-53702613D01*
X176714179Y-53703829D01*
X176663940Y-53752404D01*
X176609923Y-53766735D01*
X176453567Y-53772321D01*
X176204490Y-53781218D01*
X176202257Y-53781458D01*
X176202244Y-53781459D01*
X175694786Y-53836019D01*
X175694778Y-53836020D01*
X175692538Y-53836261D01*
X175690321Y-53836661D01*
X175690314Y-53836662D01*
X175188022Y-53927288D01*
X175188013Y-53927290D01*
X175185818Y-53927686D01*
X174686911Y-54055027D01*
X174684797Y-54055730D01*
X174684782Y-54055735D01*
X174200497Y-54216923D01*
X174200487Y-54216927D01*
X174198359Y-54217635D01*
X173722653Y-54414682D01*
X173262215Y-54645163D01*
X173260271Y-54646317D01*
X173260270Y-54646317D01*
X172821322Y-54906760D01*
X172821313Y-54906766D01*
X172819393Y-54907905D01*
X172817558Y-54909179D01*
X172817555Y-54909181D01*
X172398304Y-55200275D01*
X172398294Y-55200283D01*
X172396444Y-55201567D01*
X171995521Y-55524654D01*
X171618669Y-55875520D01*
X171617144Y-55877158D01*
X171276897Y-56242613D01*
X171267807Y-56252376D01*
X171266402Y-56254120D01*
X171266399Y-56254123D01*
X170974580Y-56616252D01*
X170944724Y-56653301D01*
X170943437Y-56655155D01*
X170943436Y-56655156D01*
X170762378Y-56915933D01*
X170651066Y-57076254D01*
X170388329Y-57519079D01*
X170387333Y-57521070D01*
X170387328Y-57521078D01*
X170167570Y-57960104D01*
X170157852Y-57979518D01*
X170156991Y-57981596D01*
X170156989Y-57981601D01*
X170026046Y-58297730D01*
X169960810Y-58455227D01*
X169960100Y-58457361D01*
X169960099Y-58457363D01*
X169851848Y-58782613D01*
X169798207Y-58943780D01*
X169797653Y-58945952D01*
X169797650Y-58945961D01*
X169780824Y-59011887D01*
X169670870Y-59442688D01*
X169670474Y-59444885D01*
X169670471Y-59444897D01*
X169615615Y-59748956D01*
X169579450Y-59949410D01*
X169524412Y-60461362D01*
X169517624Y-60651449D01*
X169506519Y-60962427D01*
X169506393Y-60963937D01*
X169506393Y-60965954D01*
X169506305Y-60968421D01*
X169505316Y-60975936D01*
X169506394Y-60984121D01*
X169509489Y-61007631D01*
X169510567Y-61024078D01*
X169510567Y-67253238D01*
X169490565Y-67321359D01*
X169442748Y-67365001D01*
X169435151Y-67368956D01*
X169370525Y-67402597D01*
X169370519Y-67402601D01*
X169365939Y-67404985D01*
X169361804Y-67408090D01*
X169361801Y-67408092D01*
X169217650Y-67516324D01*
X169180722Y-67544050D01*
X169180133Y-67543266D01*
X169120413Y-67571417D01*
X169050022Y-67562164D01*
X168995808Y-67516324D01*
X168982992Y-67491157D01*
X168972390Y-67462877D01*
X168963853Y-67447284D01*
X168887352Y-67345209D01*
X168874791Y-67332648D01*
X168772716Y-67256147D01*
X168757121Y-67247609D01*
X168636673Y-67202455D01*
X168621418Y-67198828D01*
X168570553Y-67193302D01*
X168563739Y-67192933D01*
X167891182Y-67192933D01*
X167875943Y-67197408D01*
X167874738Y-67198798D01*
X167873067Y-67206481D01*
X167873067Y-69990817D01*
X167877542Y-70006056D01*
X167878932Y-70007261D01*
X167886615Y-70008932D01*
X168563736Y-70008932D01*
X168570557Y-70008562D01*
X168621419Y-70003038D01*
X168636671Y-69999412D01*
X168757121Y-69954257D01*
X168772716Y-69945719D01*
X168874791Y-69869218D01*
X168887352Y-69856657D01*
X168963853Y-69754582D01*
X168972392Y-69738985D01*
X168984345Y-69707100D01*
X169026986Y-69650335D01*
X169093547Y-69625635D01*
X169162896Y-69640842D01*
X169182808Y-69654381D01*
X169308416Y-69758663D01*
X169508389Y-69875517D01*
X169724761Y-69958142D01*
X169729827Y-69959173D01*
X169729828Y-69959173D01*
X169782913Y-69969973D01*
X169951723Y-70004318D01*
X170082391Y-70009109D01*
X170178016Y-70012616D01*
X170178020Y-70012616D01*
X170183180Y-70012805D01*
X170188300Y-70012149D01*
X170188302Y-70012149D01*
X170287735Y-69999411D01*
X170412914Y-69983375D01*
X170417862Y-69981890D01*
X170417869Y-69981889D01*
X170629814Y-69918302D01*
X170634757Y-69916819D01*
X170639391Y-69914549D01*
X170838116Y-69817195D01*
X170838119Y-69817193D01*
X170842751Y-69814924D01*
X171031310Y-69680427D01*
X171195370Y-69516938D01*
X171264437Y-69420821D01*
X171320432Y-69377173D01*
X171391135Y-69370727D01*
X171454100Y-69403530D01*
X171474195Y-69428517D01*
X171475866Y-69431244D01*
X171475871Y-69431250D01*
X171478568Y-69435652D01*
X171630214Y-69610717D01*
X171808416Y-69758663D01*
X172008389Y-69875517D01*
X172224761Y-69958142D01*
X172229827Y-69959173D01*
X172229828Y-69959173D01*
X172282913Y-69969973D01*
X172451723Y-70004318D01*
X172582391Y-70009109D01*
X172678016Y-70012616D01*
X172678020Y-70012616D01*
X172683180Y-70012805D01*
X172688300Y-70012149D01*
X172688302Y-70012149D01*
X172787735Y-69999411D01*
X172912914Y-69983375D01*
X172917862Y-69981890D01*
X172917869Y-69981889D01*
X173129814Y-69918302D01*
X173134757Y-69916819D01*
X173139391Y-69914549D01*
X173338116Y-69817195D01*
X173338119Y-69817193D01*
X173342751Y-69814924D01*
X173531310Y-69680427D01*
X173695370Y-69516938D01*
X173830525Y-69328850D01*
X173908101Y-69171887D01*
X173930851Y-69125855D01*
X173930852Y-69125853D01*
X173933145Y-69121213D01*
X174000475Y-68899604D01*
X174030707Y-68669974D01*
X174030972Y-68659126D01*
X174032312Y-68604298D01*
X174032312Y-68604294D01*
X174032394Y-68600933D01*
X174026099Y-68524367D01*
X174013840Y-68375251D01*
X174013839Y-68375245D01*
X174013416Y-68370100D01*
X173969478Y-68195175D01*
X173958251Y-68150477D01*
X173958250Y-68150473D01*
X173956992Y-68145466D01*
X173954933Y-68140730D01*
X173866697Y-67937801D01*
X173866695Y-67937798D01*
X173864637Y-67933064D01*
X173738831Y-67738598D01*
X173582954Y-67567291D01*
X173578903Y-67564092D01*
X173578899Y-67564088D01*
X173405244Y-67426944D01*
X173405239Y-67426941D01*
X173401190Y-67423743D01*
X173396674Y-67421250D01*
X173396671Y-67421248D01*
X173202946Y-67314306D01*
X173202942Y-67314304D01*
X173198422Y-67311809D01*
X173193553Y-67310085D01*
X173193549Y-67310083D01*
X172984970Y-67236221D01*
X172984966Y-67236220D01*
X172980095Y-67234495D01*
X172975002Y-67233588D01*
X172974999Y-67233587D01*
X172757162Y-67194784D01*
X172757156Y-67194783D01*
X172752073Y-67193878D01*
X172674711Y-67192933D01*
X172525648Y-67191112D01*
X172525646Y-67191112D01*
X172520478Y-67191049D01*
X172291531Y-67226083D01*
X172071381Y-67298039D01*
X172066793Y-67300427D01*
X172066789Y-67300429D01*
X171935150Y-67368956D01*
X171865939Y-67404985D01*
X171861806Y-67408088D01*
X171861803Y-67408090D01*
X171684857Y-67540945D01*
X171680722Y-67544050D01*
X171520706Y-67711497D01*
X171473903Y-67780107D01*
X171418994Y-67825108D01*
X171348469Y-67833279D01*
X171284722Y-67802025D01*
X171264026Y-67777542D01*
X171241644Y-67742946D01*
X171241641Y-67742942D01*
X171238831Y-67738598D01*
X171082954Y-67567291D01*
X171078903Y-67564092D01*
X171078899Y-67564088D01*
X170905244Y-67426944D01*
X170905239Y-67426941D01*
X170901190Y-67423743D01*
X170896675Y-67421250D01*
X170896662Y-67421242D01*
X170792673Y-67363837D01*
X170742703Y-67313405D01*
X170727567Y-67253529D01*
X170727567Y-61024074D01*
X170728645Y-61007628D01*
X170731740Y-60984118D01*
X170732818Y-60975930D01*
X170731239Y-60963937D01*
X170730228Y-60956253D01*
X170729247Y-60934863D01*
X170745906Y-60510794D01*
X170746682Y-60500931D01*
X170800812Y-60043571D01*
X170802360Y-60033799D01*
X170892204Y-59582110D01*
X170894513Y-59572490D01*
X170922880Y-59471906D01*
X171019528Y-59129211D01*
X171022584Y-59119808D01*
X171070388Y-58990230D01*
X171181983Y-58687733D01*
X171185763Y-58678607D01*
X171378575Y-58260359D01*
X171383064Y-58251548D01*
X171608101Y-57849711D01*
X171613270Y-57841276D01*
X171670808Y-57755163D01*
X171869144Y-57458329D01*
X171874948Y-57450342D01*
X172160070Y-57088662D01*
X172166478Y-57081157D01*
X172479122Y-56742938D01*
X172486108Y-56735953D01*
X172824291Y-56423337D01*
X172831814Y-56416911D01*
X173193495Y-56131782D01*
X173201499Y-56125967D01*
X173394666Y-55996895D01*
X173584431Y-55870097D01*
X173592861Y-55864931D01*
X173994680Y-55639899D01*
X174003495Y-55635407D01*
X174421745Y-55442589D01*
X174430886Y-55438803D01*
X174862964Y-55279399D01*
X174872373Y-55276342D01*
X175315622Y-55151330D01*
X175325242Y-55149020D01*
X175776948Y-55059168D01*
X175786703Y-55057622D01*
X176244085Y-55003485D01*
X176253923Y-55002711D01*
X176606657Y-54988850D01*
X176675508Y-55006162D01*
X176719035Y-55048919D01*
X176797287Y-55176617D01*
X176797291Y-55176622D01*
X176799987Y-55181021D01*
X176946250Y-55349871D01*
X177118126Y-55492565D01*
X177170627Y-55523244D01*
X177191445Y-55535409D01*
X177240169Y-55587047D01*
X177253240Y-55656830D01*
X177226509Y-55722602D01*
X177186055Y-55755960D01*
X177173607Y-55762440D01*
X177169474Y-55765543D01*
X177169471Y-55765545D01*
X176999100Y-55893463D01*
X176994965Y-55896568D01*
X176840629Y-56058071D01*
X176714743Y-56242613D01*
X176620688Y-56445238D01*
X176560989Y-56660503D01*
X176537251Y-56882628D01*
X176537548Y-56887781D01*
X176537548Y-56887784D01*
X176548697Y-57081141D01*
X176550110Y-57105648D01*
X176551247Y-57110694D01*
X176551248Y-57110700D01*
X176556152Y-57132458D01*
X176599222Y-57323572D01*
X176653944Y-57458337D01*
X176678609Y-57519079D01*
X176683266Y-57530549D01*
X176799987Y-57721021D01*
X176946250Y-57889871D01*
X177118126Y-58032565D01*
X177188595Y-58073744D01*
X177191445Y-58075409D01*
X177240169Y-58127047D01*
X177253240Y-58196830D01*
X177226509Y-58262602D01*
X177186055Y-58295960D01*
X177173607Y-58302440D01*
X177169474Y-58305543D01*
X177169471Y-58305545D01*
X177145247Y-58323733D01*
X176994965Y-58436568D01*
X176840629Y-58598071D01*
X176714743Y-58782613D01*
X176699974Y-58814430D01*
X176638920Y-58945961D01*
X176620688Y-58985238D01*
X176560989Y-59200503D01*
X176537251Y-59422628D01*
X176537548Y-59427781D01*
X176537548Y-59427784D01*
X176543011Y-59522523D01*
X176550110Y-59645648D01*
X176551247Y-59650694D01*
X176551248Y-59650700D01*
X176571119Y-59738872D01*
X176599222Y-59863572D01*
X176637461Y-59957744D01*
X176670317Y-60038658D01*
X176683266Y-60070549D01*
X176799987Y-60261021D01*
X176946250Y-60429871D01*
X177118126Y-60572565D01*
X177188595Y-60613744D01*
X177191445Y-60615409D01*
X177240169Y-60667047D01*
X177253240Y-60736830D01*
X177226509Y-60802602D01*
X177186055Y-60835960D01*
X177173607Y-60842440D01*
X177169474Y-60845543D01*
X177169471Y-60845545D01*
X176999100Y-60973463D01*
X176994965Y-60976568D01*
X176840629Y-61138071D01*
X176714743Y-61322613D01*
X176620688Y-61525238D01*
X176560989Y-61740503D01*
X176537251Y-61962628D01*
X176537548Y-61967781D01*
X176537548Y-61967784D01*
X176543011Y-62062523D01*
X176550110Y-62185648D01*
X176551247Y-62190694D01*
X176551248Y-62190700D01*
X176571119Y-62278872D01*
X176599222Y-62403572D01*
X176683266Y-62610549D01*
X176799987Y-62801021D01*
X176946250Y-62969871D01*
X177118126Y-63112565D01*
X177188595Y-63153744D01*
X177191445Y-63155409D01*
X177240169Y-63207047D01*
X177253240Y-63276830D01*
X177226509Y-63342602D01*
X177186055Y-63375960D01*
X177173607Y-63382440D01*
X177169474Y-63385543D01*
X177169471Y-63385545D01*
X176999100Y-63513463D01*
X176994965Y-63516568D01*
X176840629Y-63678071D01*
X176837715Y-63682343D01*
X176837714Y-63682344D01*
X176754044Y-63805000D01*
X176714743Y-63862613D01*
X176620688Y-64065238D01*
X176560989Y-64280503D01*
X176537251Y-64502628D01*
X176537548Y-64507781D01*
X176537548Y-64507784D01*
X176543011Y-64602523D01*
X176550110Y-64725648D01*
X176551247Y-64730694D01*
X176551248Y-64730700D01*
X176571119Y-64818872D01*
X176599222Y-64943572D01*
X176683266Y-65150549D01*
X176799987Y-65341021D01*
X176946250Y-65509871D01*
X177118126Y-65652565D01*
X177188595Y-65693744D01*
X177191445Y-65695409D01*
X177240169Y-65747047D01*
X177253240Y-65816830D01*
X177226509Y-65882602D01*
X177186055Y-65915960D01*
X177173607Y-65922440D01*
X177169474Y-65925543D01*
X177169471Y-65925545D01*
X177145247Y-65943733D01*
X176994965Y-66056568D01*
X176840629Y-66218071D01*
X176714743Y-66402613D01*
X176620688Y-66605238D01*
X176560989Y-66820503D01*
X176537251Y-67042628D01*
X176537548Y-67047781D01*
X176537548Y-67047784D01*
X176546962Y-67211049D01*
X176550110Y-67265648D01*
X176551247Y-67270694D01*
X176551248Y-67270700D01*
X176562665Y-67321359D01*
X176599222Y-67483572D01*
X176683266Y-67690549D01*
X176710365Y-67734771D01*
X176765724Y-67825108D01*
X176799987Y-67881021D01*
X176946250Y-68049871D01*
X177118126Y-68192565D01*
X177188595Y-68233744D01*
X177191445Y-68235409D01*
X177240169Y-68287047D01*
X177253240Y-68356830D01*
X177226509Y-68422602D01*
X177186055Y-68455960D01*
X177173607Y-68462440D01*
X177169474Y-68465543D01*
X177169471Y-68465545D01*
X177145247Y-68483733D01*
X176994965Y-68596568D01*
X176840629Y-68758071D01*
X176714743Y-68942613D01*
X176620688Y-69145238D01*
X176560989Y-69360503D01*
X176537251Y-69582628D01*
X176537548Y-69587781D01*
X176537548Y-69587784D01*
X176542890Y-69680427D01*
X176550110Y-69805648D01*
X176551247Y-69810694D01*
X176551248Y-69810700D01*
X176564436Y-69869218D01*
X176599222Y-70023572D01*
X176683266Y-70230549D01*
X176799987Y-70421021D01*
X176946250Y-70589871D01*
X177118126Y-70732565D01*
X177188595Y-70773744D01*
X177191445Y-70775409D01*
X177240169Y-70827047D01*
X177253240Y-70896830D01*
X177226509Y-70962602D01*
X177186055Y-70995960D01*
X177173607Y-71002440D01*
X177169474Y-71005543D01*
X177169471Y-71005545D01*
X177145247Y-71023733D01*
X176994965Y-71136568D01*
X176840629Y-71298071D01*
X176714743Y-71482613D01*
X176620688Y-71685238D01*
X176560989Y-71900503D01*
X176537251Y-72122628D01*
X176537548Y-72127781D01*
X176537548Y-72127784D01*
X176543011Y-72222523D01*
X176550110Y-72345648D01*
X176551247Y-72350694D01*
X176551248Y-72350700D01*
X176571119Y-72438872D01*
X176599222Y-72563572D01*
X176683266Y-72770549D01*
X176799987Y-72961021D01*
X176946250Y-73129871D01*
X177118126Y-73272565D01*
X177188595Y-73313744D01*
X177191445Y-73315409D01*
X177240169Y-73367047D01*
X177253240Y-73436830D01*
X177226509Y-73502602D01*
X177186055Y-73535960D01*
X177173607Y-73542440D01*
X177169474Y-73545543D01*
X177169471Y-73545545D01*
X177145247Y-73563733D01*
X176994965Y-73676568D01*
X176840629Y-73838071D01*
X176714743Y-74022613D01*
X176620688Y-74225238D01*
X176560989Y-74440503D01*
X176537251Y-74662628D01*
X176537548Y-74667781D01*
X176537548Y-74667784D01*
X176543011Y-74762523D01*
X176550110Y-74885648D01*
X176551247Y-74890694D01*
X176551248Y-74890700D01*
X176571119Y-74978872D01*
X176599222Y-75103572D01*
X176683266Y-75310549D01*
X176685965Y-75314953D01*
X176763225Y-75441030D01*
X176799987Y-75501021D01*
X176946250Y-75669871D01*
X177118126Y-75812565D01*
X177188595Y-75853744D01*
X177191445Y-75855409D01*
X177240169Y-75907047D01*
X177253240Y-75976830D01*
X177226509Y-76042602D01*
X177186055Y-76075960D01*
X177173607Y-76082440D01*
X177169474Y-76085543D01*
X177169471Y-76085545D01*
X177145247Y-76103733D01*
X176994965Y-76216568D01*
X176935183Y-76279126D01*
X176903778Y-76311990D01*
X176840629Y-76378071D01*
X176714743Y-76562613D01*
X176620688Y-76765238D01*
X176560989Y-76980503D01*
X176537251Y-77202628D01*
X176537548Y-77207781D01*
X176537548Y-77207784D01*
X176542992Y-77302197D01*
X176550110Y-77425648D01*
X176551247Y-77430694D01*
X176551248Y-77430700D01*
X176557831Y-77459910D01*
X176599222Y-77643572D01*
X176683266Y-77850549D01*
X176799987Y-78041021D01*
X176946250Y-78209871D01*
X177118126Y-78352565D01*
X177170158Y-78382970D01*
X177191445Y-78395409D01*
X177240169Y-78447047D01*
X177253240Y-78516830D01*
X177226509Y-78582602D01*
X177186055Y-78615960D01*
X177173607Y-78622440D01*
X177169474Y-78625543D01*
X177169471Y-78625545D01*
X177050328Y-78715000D01*
X176994965Y-78756568D01*
X176840629Y-78918071D01*
X176837715Y-78922343D01*
X176837714Y-78922344D01*
X176805990Y-78968850D01*
X176714743Y-79102613D01*
X176620688Y-79305238D01*
X176560989Y-79520503D01*
X176537251Y-79742628D01*
X176537548Y-79747781D01*
X176537548Y-79747784D01*
X176543011Y-79842523D01*
X176550110Y-79965648D01*
X176551247Y-79970694D01*
X176551248Y-79970700D01*
X176571119Y-80058872D01*
X176599222Y-80183572D01*
X176683266Y-80390549D01*
X176799987Y-80581021D01*
X176946250Y-80749871D01*
X177118126Y-80892565D01*
X177188595Y-80933744D01*
X177191445Y-80935409D01*
X177240169Y-80987047D01*
X177253240Y-81056830D01*
X177226509Y-81122602D01*
X177186055Y-81155960D01*
X177173607Y-81162440D01*
X177169474Y-81165543D01*
X177169471Y-81165545D01*
X177145247Y-81183733D01*
X176994965Y-81296568D01*
X176840629Y-81458071D01*
X176714743Y-81642613D01*
X176620688Y-81845238D01*
X176560989Y-82060503D01*
X176537251Y-82282628D01*
X176537548Y-82287781D01*
X176537548Y-82287784D01*
X176543011Y-82382523D01*
X176550110Y-82505648D01*
X176551247Y-82510694D01*
X176551248Y-82510700D01*
X176572611Y-82605492D01*
X176599222Y-82723572D01*
X176683266Y-82930549D01*
X176799987Y-83121021D01*
X176946250Y-83289871D01*
X177118126Y-83432565D01*
X177188595Y-83473744D01*
X177191445Y-83475409D01*
X177240169Y-83527047D01*
X177253240Y-83596830D01*
X177226509Y-83662602D01*
X177186055Y-83695960D01*
X177173607Y-83702440D01*
X177169474Y-83705543D01*
X177169471Y-83705545D01*
X177145247Y-83723733D01*
X176994965Y-83836568D01*
X176840629Y-83998071D01*
X176714743Y-84182613D01*
X176699003Y-84216523D01*
X176637911Y-84348135D01*
X176620688Y-84385238D01*
X176560989Y-84600503D01*
X176537251Y-84822628D01*
X176537548Y-84827781D01*
X176537548Y-84827784D01*
X176543011Y-84922523D01*
X176550110Y-85045648D01*
X176551247Y-85050694D01*
X176551248Y-85050700D01*
X176553544Y-85060887D01*
X176599222Y-85263572D01*
X176654619Y-85400000D01*
X176669744Y-85437247D01*
X176683266Y-85470549D01*
X176799987Y-85661021D01*
X176946250Y-85829871D01*
X177118126Y-85972565D01*
X177177460Y-86007237D01*
X177191445Y-86015409D01*
X177240169Y-86067047D01*
X177253240Y-86136830D01*
X177226509Y-86202602D01*
X177186055Y-86235960D01*
X177173607Y-86242440D01*
X177169474Y-86245543D01*
X177169471Y-86245545D01*
X177145247Y-86263733D01*
X176994965Y-86376568D01*
X176840629Y-86538071D01*
X176714743Y-86722613D01*
X176620688Y-86925238D01*
X176560989Y-87140503D01*
X176537251Y-87362628D01*
X176537548Y-87367781D01*
X176537548Y-87367784D01*
X176543011Y-87462523D01*
X176550110Y-87585648D01*
X176551247Y-87590694D01*
X176551248Y-87590700D01*
X176562234Y-87639447D01*
X176599222Y-87803572D01*
X176683266Y-88010549D01*
X176799987Y-88201021D01*
X176946250Y-88369871D01*
X177118126Y-88512565D01*
X177188595Y-88553744D01*
X177191445Y-88555409D01*
X177240169Y-88607047D01*
X177253240Y-88676830D01*
X177226509Y-88742602D01*
X177186055Y-88775960D01*
X177173607Y-88782440D01*
X177169474Y-88785543D01*
X177169471Y-88785545D01*
X177024290Y-88894550D01*
X176994965Y-88916568D01*
X176840629Y-89078071D01*
X176837715Y-89082343D01*
X176837714Y-89082344D01*
X176752556Y-89207182D01*
X176714743Y-89262613D01*
X176620688Y-89465238D01*
X176560989Y-89680503D01*
X176537251Y-89902628D01*
X176537548Y-89907781D01*
X176537548Y-89907784D01*
X176542989Y-90002149D01*
X176550110Y-90125648D01*
X176551247Y-90130694D01*
X176551248Y-90130700D01*
X176571119Y-90218872D01*
X176599222Y-90343572D01*
X176683266Y-90550549D01*
X176799987Y-90741021D01*
X176946250Y-90909871D01*
X177118126Y-91052565D01*
X177188595Y-91093744D01*
X177191445Y-91095409D01*
X177240169Y-91147047D01*
X177253240Y-91216830D01*
X177226509Y-91282602D01*
X177186055Y-91315960D01*
X177173607Y-91322440D01*
X177169474Y-91325543D01*
X177169471Y-91325545D01*
X177145247Y-91343733D01*
X176994965Y-91456568D01*
X176964005Y-91488966D01*
X176846151Y-91612293D01*
X176840629Y-91618071D01*
X176714743Y-91802613D01*
X176699003Y-91836523D01*
X176622910Y-92000452D01*
X176620688Y-92005238D01*
X176560989Y-92220503D01*
X176537251Y-92442628D01*
X176537548Y-92447781D01*
X176537548Y-92447784D01*
X176545239Y-92581168D01*
X176550110Y-92665648D01*
X176551247Y-92670694D01*
X176551248Y-92670700D01*
X176568230Y-92746053D01*
X176599222Y-92883572D01*
X176683266Y-93090549D01*
X176734019Y-93173371D01*
X176770374Y-93232696D01*
X176799987Y-93281021D01*
X176803367Y-93284923D01*
X176806926Y-93289032D01*
X176946250Y-93449871D01*
X177118126Y-93592565D01*
X177188595Y-93633744D01*
X177191445Y-93635409D01*
X177240169Y-93687047D01*
X177253240Y-93756830D01*
X177226509Y-93822602D01*
X177186055Y-93855960D01*
X177173607Y-93862440D01*
X177169474Y-93865543D01*
X177169471Y-93865545D01*
X177145247Y-93883733D01*
X176994965Y-93996568D01*
X176840629Y-94158071D01*
X176714743Y-94342613D01*
X176679179Y-94419230D01*
X176646684Y-94489235D01*
X176620688Y-94545238D01*
X176560989Y-94760503D01*
X176537251Y-94982628D01*
X176537548Y-94987781D01*
X176537548Y-94987784D01*
X176549812Y-95200480D01*
X176550110Y-95205648D01*
X176551247Y-95210694D01*
X176551248Y-95210700D01*
X176571119Y-95298872D01*
X176599222Y-95423572D01*
X176683266Y-95630549D01*
X176799987Y-95821021D01*
X176946250Y-95989871D01*
X177118126Y-96132565D01*
X177188595Y-96173744D01*
X177191445Y-96175409D01*
X177240169Y-96227047D01*
X177253240Y-96296830D01*
X177226509Y-96362602D01*
X177186055Y-96395960D01*
X177173607Y-96402440D01*
X177169474Y-96405543D01*
X177169471Y-96405545D01*
X176999100Y-96533463D01*
X176994965Y-96536568D01*
X176840629Y-96698071D01*
X176714743Y-96882613D01*
X176699003Y-96916523D01*
X176624533Y-97076955D01*
X176620688Y-97085238D01*
X176560989Y-97300503D01*
X176537251Y-97522628D01*
X176537548Y-97527781D01*
X176537548Y-97527784D01*
X176543011Y-97622523D01*
X176550110Y-97745648D01*
X176551247Y-97750694D01*
X176551248Y-97750700D01*
X176560941Y-97793708D01*
X176599222Y-97963572D01*
X176683266Y-98170549D01*
X176685965Y-98174953D01*
X176766300Y-98306048D01*
X176799987Y-98361021D01*
X176946250Y-98529871D01*
X177118126Y-98672565D01*
X177179196Y-98708251D01*
X177191955Y-98715707D01*
X177240679Y-98767345D01*
X177253750Y-98837128D01*
X177227019Y-98902900D01*
X177186562Y-98936260D01*
X177178460Y-98940477D01*
X177169734Y-98945972D01*
X177149677Y-98961032D01*
X177141223Y-98972360D01*
X177147968Y-98984691D01*
X178170115Y-100006838D01*
X178204141Y-100069150D01*
X178199076Y-100139965D01*
X178170115Y-100185028D01*
X177146737Y-101208406D01*
X177139977Y-101220786D01*
X177145258Y-101227840D01*
X177306756Y-101322212D01*
X177316042Y-101326662D01*
X177515001Y-101402636D01*
X177524899Y-101405512D01*
X177733595Y-101447971D01*
X177743823Y-101449190D01*
X177956650Y-101456995D01*
X177966936Y-101456528D01*
X178178185Y-101429467D01*
X178188262Y-101427325D01*
X178392255Y-101366124D01*
X178401842Y-101362366D01*
X178509134Y-101309804D01*
X178579108Y-101297797D01*
X178644465Y-101325527D01*
X178684455Y-101384190D01*
X178690567Y-101422955D01*
X178690567Y-102324114D01*
X178689573Y-102339906D01*
X178685842Y-102369440D01*
X178688088Y-102392345D01*
X178688419Y-102412872D01*
X178675325Y-102612655D01*
X178673174Y-102628996D01*
X178635235Y-102819732D01*
X178602328Y-102882642D01*
X178540633Y-102917774D01*
X178469738Y-102913974D01*
X178422561Y-102884246D01*
X177270959Y-101732644D01*
X177259426Y-101719378D01*
X177258701Y-101718416D01*
X177245262Y-101700582D01*
X177239966Y-101695135D01*
X177233171Y-101688147D01*
X177233166Y-101688142D01*
X177230402Y-101685300D01*
X177222005Y-101678597D01*
X177215086Y-101672651D01*
X176955374Y-101432575D01*
X176955368Y-101432570D01*
X176953554Y-101430893D01*
X176948010Y-101426522D01*
X176671330Y-101208406D01*
X176658319Y-101198149D01*
X176650072Y-101192638D01*
X176347788Y-100990659D01*
X176347786Y-100990658D01*
X176345733Y-100989286D01*
X176216767Y-100917062D01*
X176019872Y-100806796D01*
X176019862Y-100806791D01*
X176017723Y-100805593D01*
X175676311Y-100648202D01*
X175544562Y-100599598D01*
X175325938Y-100518944D01*
X175325929Y-100518941D01*
X175323603Y-100518083D01*
X175275288Y-100504457D01*
X175215155Y-100466715D01*
X175184972Y-100402454D01*
X175194322Y-100332076D01*
X175201036Y-100319049D01*
X175273715Y-100196154D01*
X175279960Y-100181723D01*
X175313059Y-100067796D01*
X176538050Y-100067796D01*
X176550309Y-100280410D01*
X176551745Y-100290630D01*
X176598565Y-100498379D01*
X176601645Y-100508208D01*
X176681770Y-100705536D01*
X176686413Y-100714727D01*
X176766460Y-100845353D01*
X176776916Y-100854813D01*
X176785694Y-100851029D01*
X177527978Y-100108745D01*
X177535592Y-100094801D01*
X177535461Y-100092968D01*
X177531210Y-100086353D01*
X176789849Y-99344992D01*
X176778313Y-99338692D01*
X176766031Y-99348315D01*
X176718089Y-99418595D01*
X176713004Y-99427546D01*
X176623338Y-99620716D01*
X176619775Y-99630403D01*
X176562864Y-99835614D01*
X176560933Y-99845733D01*
X176538302Y-100057507D01*
X176538050Y-100067796D01*
X175313059Y-100067796D01*
X175319006Y-100047328D01*
X175318966Y-100033227D01*
X175311697Y-100029933D01*
X173716067Y-100029933D01*
X173647946Y-100009931D01*
X173601453Y-99956275D01*
X173590067Y-99903933D01*
X173590067Y-99647933D01*
X173610069Y-99579812D01*
X173663725Y-99533319D01*
X173716067Y-99521933D01*
X175305945Y-99521933D01*
X175319476Y-99517960D01*
X175320611Y-99510062D01*
X175279960Y-99370143D01*
X175273715Y-99355712D01*
X175197156Y-99226256D01*
X175191196Y-99218573D01*
X175165247Y-99152489D01*
X175179145Y-99082866D01*
X175189488Y-99066772D01*
X175193520Y-99062740D01*
X175278212Y-98919534D01*
X175303684Y-98831860D01*
X175341898Y-98772025D01*
X175354680Y-98762249D01*
X175378906Y-98746062D01*
X175378915Y-98746055D01*
X175382347Y-98743762D01*
X175560588Y-98587458D01*
X175599000Y-98543660D01*
X175714181Y-98412328D01*
X175714185Y-98412323D01*
X175716901Y-98409226D01*
X175821895Y-98252102D01*
X175846325Y-98215543D01*
X175846327Y-98215539D01*
X175848614Y-98212117D01*
X175953471Y-97999501D01*
X176006261Y-97844002D01*
X176028355Y-97778922D01*
X176028356Y-97778917D01*
X176029680Y-97775018D01*
X176050910Y-97668307D01*
X176075132Y-97546550D01*
X176075132Y-97546548D01*
X176075936Y-97542508D01*
X176076205Y-97538406D01*
X176076206Y-97538398D01*
X176087641Y-97363991D01*
X176089819Y-97330782D01*
X176090623Y-97322619D01*
X176092818Y-97305950D01*
X176091446Y-97295521D01*
X176088645Y-97274247D01*
X176087567Y-97257804D01*
X176087567Y-85477203D01*
X176088645Y-85460758D01*
X176091740Y-85437247D01*
X176092818Y-85429058D01*
X176091740Y-85420872D01*
X176091740Y-85419673D01*
X176091250Y-85414454D01*
X176090439Y-85400000D01*
X176074196Y-85110850D01*
X176060470Y-85030072D01*
X176021400Y-84800138D01*
X176021398Y-84800130D01*
X176020806Y-84796645D01*
X175989728Y-84688774D01*
X175933555Y-84493799D01*
X175933553Y-84493792D01*
X175932573Y-84490392D01*
X175810604Y-84195945D01*
X175808893Y-84192849D01*
X175658144Y-83920094D01*
X175658142Y-83920092D01*
X175656436Y-83917004D01*
X175472006Y-83657079D01*
X175420362Y-83599290D01*
X175261993Y-83422077D01*
X175261986Y-83422070D01*
X175259633Y-83419437D01*
X175189884Y-83357106D01*
X175110274Y-83285964D01*
X175021988Y-83207068D01*
X174978958Y-83176537D01*
X174764944Y-83024688D01*
X174764941Y-83024686D01*
X174762060Y-83022642D01*
X174758968Y-83020933D01*
X174758963Y-83020930D01*
X174486221Y-82870192D01*
X174486222Y-82870192D01*
X174483118Y-82868477D01*
X174188668Y-82746514D01*
X173882414Y-82658284D01*
X173568208Y-82604899D01*
X173265026Y-82587873D01*
X173259209Y-82587327D01*
X173258190Y-82587327D01*
X173250000Y-82586249D01*
X173222693Y-82589844D01*
X173189807Y-82589844D01*
X173162500Y-82586249D01*
X173154313Y-82587327D01*
X173154311Y-82587327D01*
X173149338Y-82587982D01*
X173123902Y-82588740D01*
X172953527Y-82576554D01*
X172935740Y-82573997D01*
X172739836Y-82531379D01*
X172722587Y-82526315D01*
X172653320Y-82500480D01*
X172534729Y-82456248D01*
X172518382Y-82448782D01*
X172342416Y-82352697D01*
X172327293Y-82342978D01*
X172166792Y-82222828D01*
X172153206Y-82211055D01*
X172011445Y-82069294D01*
X171999672Y-82055708D01*
X171879522Y-81895207D01*
X171869806Y-81880090D01*
X171867272Y-81875450D01*
X171852176Y-81806077D01*
X171870596Y-81748942D01*
X171949369Y-81621150D01*
X171949370Y-81621148D01*
X171953209Y-81614920D01*
X172007974Y-81449809D01*
X172018500Y-81347072D01*
X172018500Y-80772928D01*
X172018163Y-80769678D01*
X172008419Y-80675765D01*
X172008418Y-80675761D01*
X172007707Y-80668907D01*
X172003143Y-80655225D01*
X171954972Y-80510841D01*
X171952654Y-80503893D01*
X171861116Y-80355969D01*
X171863249Y-80354649D01*
X171841054Y-80299834D01*
X171854216Y-80230068D01*
X171859175Y-80221248D01*
X171939369Y-80091150D01*
X171939370Y-80091148D01*
X171943209Y-80084920D01*
X171997974Y-79919809D01*
X172008500Y-79817072D01*
X172008500Y-79242928D01*
X171997707Y-79138907D01*
X171993877Y-79127425D01*
X171944972Y-78980841D01*
X171942654Y-78973893D01*
X171854500Y-78831437D01*
X171835663Y-78762985D01*
X171854385Y-78699019D01*
X171939369Y-78561150D01*
X171939370Y-78561148D01*
X171943209Y-78554920D01*
X171997974Y-78389809D01*
X172001523Y-78355175D01*
X172008172Y-78290271D01*
X172008500Y-78287072D01*
X172008500Y-77712928D01*
X172008163Y-77709678D01*
X171998419Y-77615765D01*
X171998418Y-77615761D01*
X171997707Y-77608907D01*
X171969381Y-77524002D01*
X171944972Y-77450841D01*
X171942654Y-77443893D01*
X171851116Y-77295969D01*
X171836062Y-77280941D01*
X171733184Y-77178242D01*
X171733179Y-77178238D01*
X171728003Y-77173071D01*
X171721772Y-77169230D01*
X171586150Y-77085631D01*
X171586148Y-77085630D01*
X171579920Y-77081791D01*
X171414809Y-77027026D01*
X171407973Y-77026326D01*
X171407970Y-77026325D01*
X171356474Y-77021049D01*
X171312072Y-77016500D01*
X170712928Y-77016500D01*
X170709682Y-77016837D01*
X170709678Y-77016837D01*
X170615765Y-77026581D01*
X170615761Y-77026582D01*
X170608907Y-77027293D01*
X170602371Y-77029474D01*
X170602369Y-77029474D01*
X170469605Y-77073768D01*
X170443893Y-77082346D01*
X170295969Y-77173884D01*
X170290796Y-77179066D01*
X170189253Y-77280786D01*
X170126970Y-77314865D01*
X170056150Y-77309862D01*
X170011063Y-77280941D01*
X169908188Y-77178246D01*
X169908183Y-77178242D01*
X169903003Y-77173071D01*
X169896772Y-77169230D01*
X169761150Y-77085631D01*
X169761148Y-77085630D01*
X169754920Y-77081791D01*
X169589809Y-77027026D01*
X169582973Y-77026326D01*
X169582970Y-77026325D01*
X169531474Y-77021049D01*
X169487072Y-77016500D01*
X168887928Y-77016500D01*
X168884682Y-77016837D01*
X168884678Y-77016837D01*
X168790765Y-77026581D01*
X168790761Y-77026582D01*
X168783907Y-77027293D01*
X168777371Y-77029474D01*
X168777369Y-77029474D01*
X168644605Y-77073768D01*
X168618893Y-77082346D01*
X168470969Y-77173884D01*
X168465796Y-77179066D01*
X168403354Y-77241617D01*
X168341072Y-77275696D01*
X168283566Y-77274823D01*
X168119461Y-77233717D01*
X168107628Y-77230127D01*
X167777418Y-77111975D01*
X167765994Y-77107243D01*
X167448959Y-76957295D01*
X167438054Y-76951467D01*
X167137225Y-76771156D01*
X167126944Y-76764286D01*
X166845256Y-76555371D01*
X166835697Y-76547527D01*
X166575824Y-76311990D01*
X166567081Y-76303246D01*
X166331560Y-76043386D01*
X166323716Y-76033828D01*
X166114795Y-75752129D01*
X166107925Y-75741847D01*
X165927624Y-75441030D01*
X165921795Y-75430125D01*
X165908593Y-75402210D01*
X165771845Y-75113077D01*
X165767114Y-75101656D01*
X165648963Y-74771439D01*
X165645374Y-74759607D01*
X165619797Y-74657495D01*
X165560157Y-74419392D01*
X165557746Y-74407271D01*
X165535403Y-74256635D01*
X165506288Y-74060347D01*
X165505077Y-74048048D01*
X165505047Y-74047425D01*
X165492187Y-73785619D01*
X165489552Y-73731974D01*
X165490478Y-73709348D01*
X165491740Y-73699762D01*
X165491740Y-73699760D01*
X165492818Y-73691572D01*
X165488645Y-73659873D01*
X165487567Y-73643428D01*
X165487567Y-69545602D01*
X166211068Y-69545602D01*
X166211438Y-69552423D01*
X166216962Y-69603285D01*
X166220588Y-69618537D01*
X166265743Y-69738987D01*
X166274281Y-69754582D01*
X166350782Y-69856657D01*
X166363343Y-69869218D01*
X166465418Y-69945719D01*
X166481013Y-69954257D01*
X166601461Y-69999411D01*
X166616716Y-70003038D01*
X166667581Y-70008564D01*
X166674395Y-70008933D01*
X167346952Y-70008933D01*
X167362191Y-70004458D01*
X167363396Y-70003068D01*
X167365067Y-69995385D01*
X167365067Y-68873048D01*
X167360592Y-68857809D01*
X167359202Y-68856604D01*
X167351519Y-68854933D01*
X166229183Y-68854933D01*
X166213944Y-68859408D01*
X166212739Y-68860798D01*
X166211068Y-68868481D01*
X166211068Y-69545602D01*
X165487567Y-69545602D01*
X165487567Y-68328818D01*
X166211067Y-68328818D01*
X166215542Y-68344057D01*
X166216932Y-68345262D01*
X166224615Y-68346933D01*
X167346952Y-68346933D01*
X167362191Y-68342458D01*
X167363396Y-68341068D01*
X167365067Y-68333385D01*
X167365067Y-67211049D01*
X167360592Y-67195810D01*
X167359202Y-67194605D01*
X167351519Y-67192934D01*
X166674398Y-67192934D01*
X166667577Y-67193304D01*
X166616715Y-67198828D01*
X166601463Y-67202454D01*
X166481013Y-67247609D01*
X166465418Y-67256147D01*
X166363343Y-67332648D01*
X166350782Y-67345209D01*
X166274281Y-67447284D01*
X166265743Y-67462879D01*
X166220589Y-67583327D01*
X166216962Y-67598582D01*
X166211436Y-67649447D01*
X166211067Y-67656261D01*
X166211067Y-68328818D01*
X165487567Y-68328818D01*
X165487567Y-59183143D01*
X165488645Y-59166697D01*
X165491740Y-59143188D01*
X165492818Y-59135000D01*
X165491740Y-59126811D01*
X165491740Y-59125875D01*
X165491166Y-59119756D01*
X165474413Y-58821443D01*
X165474215Y-58817914D01*
X165421017Y-58504816D01*
X165333098Y-58199642D01*
X165211564Y-57906232D01*
X165057942Y-57628273D01*
X164874164Y-57369263D01*
X164662542Y-57132458D01*
X164425737Y-56920836D01*
X164166727Y-56737058D01*
X164039438Y-56666708D01*
X163989494Y-56616252D01*
X163978184Y-56587126D01*
X163951690Y-56481648D01*
X163950431Y-56476635D01*
X163861354Y-56271773D01*
X163740014Y-56084210D01*
X163589670Y-55918984D01*
X163585619Y-55915785D01*
X163585615Y-55915781D01*
X163418414Y-55783733D01*
X163418410Y-55783731D01*
X163414359Y-55780531D01*
X163373053Y-55757729D01*
X163323084Y-55707297D01*
X163308312Y-55637854D01*
X163333428Y-55571449D01*
X163360780Y-55544842D01*
X163404603Y-55513583D01*
X163539860Y-55417106D01*
X163698096Y-55259422D01*
X163757594Y-55176622D01*
X163825435Y-55082210D01*
X163828453Y-55078010D01*
X163863963Y-55006162D01*
X163925136Y-54882386D01*
X163925137Y-54882384D01*
X163927430Y-54877744D01*
X163992370Y-54664002D01*
X164021529Y-54442523D01*
X164023156Y-54375933D01*
X164004852Y-54153294D01*
X163950431Y-53936635D01*
X163861354Y-53731773D01*
X163740014Y-53544210D01*
X163589670Y-53378984D01*
X163585619Y-53375785D01*
X163585615Y-53375781D01*
X163418414Y-53243733D01*
X163418410Y-53243731D01*
X163414359Y-53240531D01*
X163372569Y-53217462D01*
X163322598Y-53167030D01*
X163307826Y-53097587D01*
X163332942Y-53031181D01*
X163360293Y-53004575D01*
X163409247Y-52969656D01*
X163417648Y-52958956D01*
X163410660Y-52945803D01*
X162672812Y-52207955D01*
X162658868Y-52200341D01*
X162657035Y-52200472D01*
X162650420Y-52204723D01*
X161906737Y-52948406D01*
X161899977Y-52960786D01*
X161905258Y-52967840D01*
X161951969Y-52995136D01*
X162000693Y-53046774D01*
X162013764Y-53116557D01*
X161987033Y-53182329D01*
X161946584Y-53215685D01*
X161933607Y-53222440D01*
X161929474Y-53225543D01*
X161929471Y-53225545D01*
X161905247Y-53243733D01*
X161754965Y-53356568D01*
X161600629Y-53518071D01*
X161474743Y-53702613D01*
X161380688Y-53905238D01*
X161320989Y-54120503D01*
X161297251Y-54342628D01*
X161297548Y-54347781D01*
X161297548Y-54347784D01*
X161303011Y-54442523D01*
X161310110Y-54565648D01*
X161311247Y-54570694D01*
X161311248Y-54570700D01*
X161327802Y-54644151D01*
X161359222Y-54783572D01*
X161443266Y-54990549D01*
X161559987Y-55181021D01*
X161706250Y-55349871D01*
X161878126Y-55492565D01*
X161930627Y-55523244D01*
X161951445Y-55535409D01*
X162000169Y-55587047D01*
X162013240Y-55656830D01*
X161986509Y-55722602D01*
X161946055Y-55755960D01*
X161933607Y-55762440D01*
X161929474Y-55765543D01*
X161929471Y-55765545D01*
X161759100Y-55893463D01*
X161754965Y-55896568D01*
X161600629Y-56058071D01*
X161474743Y-56242613D01*
X161380688Y-56445238D01*
X161320989Y-56660503D01*
X161297251Y-56882628D01*
X161297548Y-56887781D01*
X161297548Y-56887784D01*
X161308697Y-57081141D01*
X161310110Y-57105648D01*
X161311247Y-57110694D01*
X161311248Y-57110700D01*
X161316152Y-57132458D01*
X161359222Y-57323572D01*
X161413944Y-57458337D01*
X161438609Y-57519079D01*
X161443266Y-57530549D01*
X161559987Y-57721021D01*
X161706250Y-57889871D01*
X161878126Y-58032565D01*
X161948595Y-58073744D01*
X161951445Y-58075409D01*
X162000169Y-58127047D01*
X162013240Y-58196830D01*
X161986509Y-58262602D01*
X161946055Y-58295960D01*
X161933607Y-58302440D01*
X161929474Y-58305543D01*
X161929471Y-58305545D01*
X161905247Y-58323733D01*
X161754965Y-58436568D01*
X161600629Y-58598071D01*
X161474743Y-58782613D01*
X161459974Y-58814430D01*
X161398920Y-58945961D01*
X161380688Y-58985238D01*
X161320989Y-59200503D01*
X161297251Y-59422628D01*
X161297548Y-59427781D01*
X161297548Y-59427784D01*
X161303011Y-59522523D01*
X161310110Y-59645648D01*
X161311247Y-59650694D01*
X161311248Y-59650700D01*
X161331119Y-59738872D01*
X161359222Y-59863572D01*
X161397461Y-59957744D01*
X161430317Y-60038658D01*
X161443266Y-60070549D01*
X161559987Y-60261021D01*
X161706250Y-60429871D01*
X161878126Y-60572565D01*
X161948595Y-60613744D01*
X161951445Y-60615409D01*
X162000169Y-60667047D01*
X162013240Y-60736830D01*
X161986509Y-60802602D01*
X161946055Y-60835960D01*
X161933607Y-60842440D01*
X161929474Y-60845543D01*
X161929471Y-60845545D01*
X161759100Y-60973463D01*
X161754965Y-60976568D01*
X161600629Y-61138071D01*
X161474743Y-61322613D01*
X161380688Y-61525238D01*
X161320989Y-61740503D01*
X161297251Y-61962628D01*
X161297548Y-61967781D01*
X161297548Y-61967784D01*
X161303011Y-62062523D01*
X161310110Y-62185648D01*
X161311247Y-62190694D01*
X161311248Y-62190700D01*
X161331119Y-62278872D01*
X161359222Y-62403572D01*
X161443266Y-62610549D01*
X161559987Y-62801021D01*
X161706250Y-62969871D01*
X161878126Y-63112565D01*
X161948595Y-63153744D01*
X161951445Y-63155409D01*
X162000169Y-63207047D01*
X162013240Y-63276830D01*
X161986509Y-63342602D01*
X161946055Y-63375960D01*
X161933607Y-63382440D01*
X161929474Y-63385543D01*
X161929471Y-63385545D01*
X161759100Y-63513463D01*
X161754965Y-63516568D01*
X161600629Y-63678071D01*
X161597715Y-63682343D01*
X161597714Y-63682344D01*
X161514044Y-63805000D01*
X161474743Y-63862613D01*
X161380688Y-64065238D01*
X161320989Y-64280503D01*
X161297251Y-64502628D01*
X161297548Y-64507781D01*
X161297548Y-64507784D01*
X161303011Y-64602523D01*
X161310110Y-64725648D01*
X161311247Y-64730694D01*
X161311248Y-64730700D01*
X161331119Y-64818872D01*
X161359222Y-64943572D01*
X161443266Y-65150549D01*
X161559987Y-65341021D01*
X161706250Y-65509871D01*
X161878126Y-65652565D01*
X161948595Y-65693744D01*
X161951445Y-65695409D01*
X162000169Y-65747047D01*
X162013240Y-65816830D01*
X161986509Y-65882602D01*
X161946055Y-65915960D01*
X161933607Y-65922440D01*
X161929474Y-65925543D01*
X161929471Y-65925545D01*
X161905247Y-65943733D01*
X161754965Y-66056568D01*
X161600629Y-66218071D01*
X161474743Y-66402613D01*
X161380688Y-66605238D01*
X161320989Y-66820503D01*
X161297251Y-67042628D01*
X161297548Y-67047781D01*
X161297548Y-67047784D01*
X161306962Y-67211049D01*
X161310110Y-67265648D01*
X161311247Y-67270694D01*
X161311248Y-67270700D01*
X161322665Y-67321359D01*
X161359222Y-67483572D01*
X161443266Y-67690549D01*
X161470365Y-67734771D01*
X161525724Y-67825108D01*
X161559987Y-67881021D01*
X161706250Y-68049871D01*
X161878126Y-68192565D01*
X161948595Y-68233744D01*
X161951445Y-68235409D01*
X162000169Y-68287047D01*
X162013240Y-68356830D01*
X161986509Y-68422602D01*
X161946055Y-68455960D01*
X161933607Y-68462440D01*
X161929474Y-68465543D01*
X161929471Y-68465545D01*
X161905247Y-68483733D01*
X161754965Y-68596568D01*
X161600629Y-68758071D01*
X161474743Y-68942613D01*
X161380688Y-69145238D01*
X161320989Y-69360503D01*
X161297251Y-69582628D01*
X161297548Y-69587781D01*
X161297548Y-69587784D01*
X161302890Y-69680427D01*
X161310110Y-69805648D01*
X161311247Y-69810694D01*
X161311248Y-69810700D01*
X161324436Y-69869218D01*
X161359222Y-70023572D01*
X161443266Y-70230549D01*
X161559987Y-70421021D01*
X161706250Y-70589871D01*
X161878126Y-70732565D01*
X161948595Y-70773744D01*
X161951445Y-70775409D01*
X162000169Y-70827047D01*
X162013240Y-70896830D01*
X161986509Y-70962602D01*
X161946055Y-70995960D01*
X161933607Y-71002440D01*
X161929474Y-71005543D01*
X161929471Y-71005545D01*
X161905247Y-71023733D01*
X161754965Y-71136568D01*
X161600629Y-71298071D01*
X161474743Y-71482613D01*
X161380688Y-71685238D01*
X161320989Y-71900503D01*
X161297251Y-72122628D01*
X161297548Y-72127781D01*
X161297548Y-72127784D01*
X161303011Y-72222523D01*
X161310110Y-72345648D01*
X161311247Y-72350694D01*
X161311248Y-72350700D01*
X161331119Y-72438872D01*
X161359222Y-72563572D01*
X161443266Y-72770549D01*
X161559987Y-72961021D01*
X161706250Y-73129871D01*
X161878126Y-73272565D01*
X161948595Y-73313744D01*
X161951445Y-73315409D01*
X162000169Y-73367047D01*
X162013240Y-73436830D01*
X161986509Y-73502602D01*
X161946055Y-73535960D01*
X161933607Y-73542440D01*
X161929474Y-73545543D01*
X161929471Y-73545545D01*
X161905247Y-73563733D01*
X161754965Y-73676568D01*
X161600629Y-73838071D01*
X161474743Y-74022613D01*
X161380688Y-74225238D01*
X161320989Y-74440503D01*
X161297251Y-74662628D01*
X161297548Y-74667781D01*
X161297548Y-74667784D01*
X161303011Y-74762523D01*
X161310110Y-74885648D01*
X161311247Y-74890694D01*
X161311248Y-74890700D01*
X161331119Y-74978872D01*
X161359222Y-75103572D01*
X161443266Y-75310549D01*
X161445965Y-75314953D01*
X161523225Y-75441030D01*
X161559987Y-75501021D01*
X161706250Y-75669871D01*
X161878126Y-75812565D01*
X161948595Y-75853744D01*
X161951445Y-75855409D01*
X162000169Y-75907047D01*
X162013240Y-75976830D01*
X161986509Y-76042602D01*
X161946055Y-76075960D01*
X161933607Y-76082440D01*
X161929474Y-76085543D01*
X161929471Y-76085545D01*
X161905247Y-76103733D01*
X161754965Y-76216568D01*
X161695183Y-76279126D01*
X161663778Y-76311990D01*
X161600629Y-76378071D01*
X161474743Y-76562613D01*
X161380688Y-76765238D01*
X161320989Y-76980503D01*
X161297251Y-77202628D01*
X161297548Y-77207781D01*
X161297548Y-77207784D01*
X161302992Y-77302197D01*
X161310110Y-77425648D01*
X161311247Y-77430694D01*
X161311248Y-77430700D01*
X161317831Y-77459910D01*
X161359222Y-77643572D01*
X161443266Y-77850549D01*
X161559987Y-78041021D01*
X161706250Y-78209871D01*
X161878126Y-78352565D01*
X161930158Y-78382970D01*
X161951445Y-78395409D01*
X162000169Y-78447047D01*
X162013240Y-78516830D01*
X161986509Y-78582602D01*
X161946055Y-78615960D01*
X161933607Y-78622440D01*
X161929474Y-78625543D01*
X161929471Y-78625545D01*
X161810328Y-78715000D01*
X161754965Y-78756568D01*
X161600629Y-78918071D01*
X161597715Y-78922343D01*
X161597714Y-78922344D01*
X161565990Y-78968850D01*
X161474743Y-79102613D01*
X161380688Y-79305238D01*
X161320989Y-79520503D01*
X161297251Y-79742628D01*
X161297548Y-79747781D01*
X161297548Y-79747784D01*
X161303011Y-79842523D01*
X161310110Y-79965648D01*
X161311247Y-79970694D01*
X161311248Y-79970700D01*
X161331119Y-80058872D01*
X161359222Y-80183572D01*
X161443266Y-80390549D01*
X161559987Y-80581021D01*
X161706250Y-80749871D01*
X161878126Y-80892565D01*
X161948595Y-80933744D01*
X161951445Y-80935409D01*
X162000169Y-80987047D01*
X162013240Y-81056830D01*
X161986509Y-81122602D01*
X161946055Y-81155960D01*
X161933607Y-81162440D01*
X161929474Y-81165543D01*
X161929471Y-81165545D01*
X161905247Y-81183733D01*
X161754965Y-81296568D01*
X161600629Y-81458071D01*
X161474743Y-81642613D01*
X161380688Y-81845238D01*
X161320989Y-82060503D01*
X161297251Y-82282628D01*
X161297548Y-82287781D01*
X161297548Y-82287784D01*
X161303011Y-82382523D01*
X161310110Y-82505648D01*
X161311247Y-82510694D01*
X161311248Y-82510700D01*
X161332611Y-82605492D01*
X161359222Y-82723572D01*
X161443266Y-82930549D01*
X161559987Y-83121021D01*
X161706250Y-83289871D01*
X161878126Y-83432565D01*
X161948595Y-83473744D01*
X161951445Y-83475409D01*
X162000169Y-83527047D01*
X162013240Y-83596830D01*
X161986509Y-83662602D01*
X161946055Y-83695960D01*
X161933607Y-83702440D01*
X161929474Y-83705543D01*
X161929471Y-83705545D01*
X161905247Y-83723733D01*
X161754965Y-83836568D01*
X161600629Y-83998071D01*
X161474743Y-84182613D01*
X161459003Y-84216523D01*
X161397911Y-84348135D01*
X161380688Y-84385238D01*
X161320989Y-84600503D01*
X161297251Y-84822628D01*
X161297548Y-84827781D01*
X161297548Y-84827784D01*
X161303011Y-84922523D01*
X161310110Y-85045648D01*
X161311247Y-85050694D01*
X161311248Y-85050700D01*
X161313544Y-85060887D01*
X161359222Y-85263572D01*
X161414619Y-85400000D01*
X161429744Y-85437247D01*
X161443266Y-85470549D01*
X161559987Y-85661021D01*
X161706250Y-85829871D01*
X161878126Y-85972565D01*
X161937460Y-86007237D01*
X161951445Y-86015409D01*
X162000169Y-86067047D01*
X162013240Y-86136830D01*
X161986509Y-86202602D01*
X161946055Y-86235960D01*
X161933607Y-86242440D01*
X161929474Y-86245543D01*
X161929471Y-86245545D01*
X161905247Y-86263733D01*
X161754965Y-86376568D01*
X161600629Y-86538071D01*
X161474743Y-86722613D01*
X161380688Y-86925238D01*
X161320989Y-87140503D01*
X161297251Y-87362628D01*
X161297548Y-87367781D01*
X161297548Y-87367784D01*
X161303011Y-87462523D01*
X161310110Y-87585648D01*
X161311247Y-87590694D01*
X161311248Y-87590700D01*
X161322234Y-87639447D01*
X161359222Y-87803572D01*
X161443266Y-88010549D01*
X161559987Y-88201021D01*
X161706250Y-88369871D01*
X161878126Y-88512565D01*
X161948595Y-88553744D01*
X161951445Y-88555409D01*
X162000169Y-88607047D01*
X162013240Y-88676830D01*
X161986509Y-88742602D01*
X161946055Y-88775960D01*
X161933607Y-88782440D01*
X161929474Y-88785543D01*
X161929471Y-88785545D01*
X161784290Y-88894550D01*
X161754965Y-88916568D01*
X161600629Y-89078071D01*
X161597715Y-89082343D01*
X161597714Y-89082344D01*
X161512556Y-89207182D01*
X161474743Y-89262613D01*
X161380688Y-89465238D01*
X161320989Y-89680503D01*
X161297251Y-89902628D01*
X161297548Y-89907781D01*
X161297548Y-89907784D01*
X161302989Y-90002149D01*
X161310110Y-90125648D01*
X161311247Y-90130694D01*
X161311248Y-90130700D01*
X161331119Y-90218872D01*
X161359222Y-90343572D01*
X161443266Y-90550549D01*
X161559987Y-90741021D01*
X161706250Y-90909871D01*
X161878126Y-91052565D01*
X161948595Y-91093744D01*
X161951445Y-91095409D01*
X162000169Y-91147047D01*
X162013240Y-91216830D01*
X161986509Y-91282602D01*
X161946055Y-91315960D01*
X161933607Y-91322440D01*
X161929474Y-91325543D01*
X161929471Y-91325545D01*
X161905247Y-91343733D01*
X161754965Y-91456568D01*
X161724005Y-91488966D01*
X161606151Y-91612293D01*
X161600629Y-91618071D01*
X161474743Y-91802613D01*
X161459003Y-91836523D01*
X161382910Y-92000452D01*
X161380688Y-92005238D01*
X161320989Y-92220503D01*
X161297251Y-92442628D01*
X161297548Y-92447781D01*
X161297548Y-92447784D01*
X161305239Y-92581168D01*
X161310110Y-92665648D01*
X161311247Y-92670694D01*
X161311248Y-92670700D01*
X161328230Y-92746053D01*
X161359222Y-92883572D01*
X161443266Y-93090549D01*
X161494019Y-93173371D01*
X161530374Y-93232696D01*
X161559987Y-93281021D01*
X161563367Y-93284923D01*
X161566926Y-93289032D01*
X161706250Y-93449871D01*
X161878126Y-93592565D01*
X161948595Y-93633744D01*
X161951445Y-93635409D01*
X162000169Y-93687047D01*
X162013240Y-93756830D01*
X161986509Y-93822602D01*
X161946055Y-93855960D01*
X161933607Y-93862440D01*
X161929474Y-93865543D01*
X161929471Y-93865545D01*
X161905247Y-93883733D01*
X161754965Y-93996568D01*
X161600629Y-94158071D01*
X161474743Y-94342613D01*
X161439179Y-94419230D01*
X161406684Y-94489235D01*
X161380688Y-94545238D01*
X161320989Y-94760503D01*
X161297251Y-94982628D01*
X161297548Y-94987781D01*
X161297548Y-94987784D01*
X161309812Y-95200480D01*
X161310110Y-95205648D01*
X161311247Y-95210694D01*
X161311248Y-95210700D01*
X161331119Y-95298872D01*
X161359222Y-95423572D01*
X161443266Y-95630549D01*
X161559987Y-95821021D01*
X161706250Y-95989871D01*
X161878126Y-96132565D01*
X161948595Y-96173744D01*
X161951445Y-96175409D01*
X162000169Y-96227047D01*
X162013240Y-96296830D01*
X161986509Y-96362602D01*
X161946055Y-96395960D01*
X161933607Y-96402440D01*
X161929474Y-96405543D01*
X161929471Y-96405545D01*
X161759100Y-96533463D01*
X161754965Y-96536568D01*
X161600629Y-96698071D01*
X161474743Y-96882613D01*
X161459003Y-96916523D01*
X161384533Y-97076955D01*
X161380688Y-97085238D01*
X161320989Y-97300503D01*
X161297251Y-97522628D01*
X161297548Y-97527781D01*
X161297548Y-97527784D01*
X161303011Y-97622523D01*
X161310110Y-97745648D01*
X161311247Y-97750694D01*
X161311248Y-97750700D01*
X161320941Y-97793708D01*
X161359222Y-97963572D01*
X161443266Y-98170549D01*
X161445965Y-98174953D01*
X161526300Y-98306048D01*
X161559987Y-98361021D01*
X161706250Y-98529871D01*
X161710230Y-98533175D01*
X161714981Y-98537120D01*
X161754616Y-98596023D01*
X161756113Y-98667004D01*
X161718997Y-98727526D01*
X161678724Y-98752045D01*
X161563295Y-98795318D01*
X161446739Y-98882672D01*
X161359385Y-98999228D01*
X161308255Y-99135617D01*
X161301500Y-99197799D01*
X161301500Y-100994067D01*
X161308255Y-101056249D01*
X161359385Y-101192638D01*
X161446739Y-101309194D01*
X161527424Y-101369664D01*
X161569938Y-101426522D01*
X161574964Y-101497340D01*
X161540904Y-101559634D01*
X161534939Y-101565218D01*
X161403596Y-101680403D01*
X161236325Y-101871140D01*
X161095381Y-102082079D01*
X160983176Y-102309610D01*
X160981851Y-102313514D01*
X160981850Y-102313516D01*
X160904167Y-102542368D01*
X160901630Y-102549841D01*
X160884050Y-102638225D01*
X160857146Y-102773482D01*
X160824239Y-102836392D01*
X160762544Y-102871524D01*
X160691649Y-102867724D01*
X160634063Y-102826199D01*
X160608069Y-102760132D01*
X160607567Y-102748901D01*
X160607567Y-51807796D01*
X161298050Y-51807796D01*
X161310309Y-52020410D01*
X161311745Y-52030630D01*
X161358565Y-52238379D01*
X161361645Y-52248208D01*
X161441770Y-52445536D01*
X161446413Y-52454727D01*
X161526460Y-52585353D01*
X161536916Y-52594813D01*
X161545694Y-52591029D01*
X162287978Y-51848745D01*
X162294356Y-51837065D01*
X163024408Y-51837065D01*
X163024539Y-51838898D01*
X163028790Y-51845513D01*
X163770474Y-52587197D01*
X163782484Y-52593756D01*
X163794223Y-52584788D01*
X163825004Y-52541952D01*
X163830315Y-52533113D01*
X163924670Y-52342200D01*
X163928469Y-52332605D01*
X163990376Y-52128848D01*
X163992555Y-52118767D01*
X164020590Y-51905820D01*
X164021109Y-51899145D01*
X164022572Y-51839297D01*
X164022378Y-51832579D01*
X164005699Y-51629699D01*
X172978567Y-51629699D01*
X172978904Y-51636215D01*
X172988642Y-51730065D01*
X172991535Y-51743461D01*
X173042055Y-51894886D01*
X173048220Y-51908048D01*
X173131993Y-52043425D01*
X173141027Y-52054823D01*
X173253696Y-52167296D01*
X173265107Y-52176308D01*
X173400630Y-52259845D01*
X173413808Y-52265989D01*
X173565333Y-52316248D01*
X173578699Y-52319114D01*
X173671337Y-52328605D01*
X173677752Y-52328933D01*
X173751952Y-52328933D01*
X173767191Y-52324458D01*
X173768396Y-52323068D01*
X173770067Y-52315385D01*
X173770067Y-51618048D01*
X173765592Y-51602809D01*
X173764202Y-51601604D01*
X173756519Y-51599933D01*
X172996682Y-51599933D01*
X172981443Y-51604408D01*
X172980238Y-51605798D01*
X172978567Y-51613481D01*
X172978567Y-51629699D01*
X164005699Y-51629699D01*
X164004781Y-51618537D01*
X164003096Y-51608357D01*
X163951214Y-51401808D01*
X163947894Y-51392057D01*
X163862972Y-51196747D01*
X163858105Y-51187672D01*
X163793063Y-51087130D01*
X163782377Y-51077928D01*
X163772812Y-51082331D01*
X163032022Y-51823121D01*
X163024408Y-51837065D01*
X162294356Y-51837065D01*
X162295592Y-51834801D01*
X162295461Y-51832968D01*
X162291210Y-51826353D01*
X161549849Y-51084992D01*
X161538313Y-51078692D01*
X161526031Y-51088315D01*
X161478089Y-51158595D01*
X161473004Y-51167546D01*
X161383338Y-51360716D01*
X161379775Y-51370403D01*
X161322864Y-51575614D01*
X161320933Y-51585733D01*
X161298302Y-51797507D01*
X161298050Y-51807796D01*
X160607567Y-51807796D01*
X160607567Y-50680433D01*
X160627569Y-50612312D01*
X160681225Y-50565819D01*
X160733567Y-50554433D01*
X161776201Y-50554433D01*
X161844322Y-50574435D01*
G37*
%TD.AperFunction*%
%TA.AperFunction,Conductor*%
G36*
X164227364Y-92581342D02*
G01*
X164228227Y-92580554D01*
X164382371Y-92749180D01*
X164557713Y-92895640D01*
X164561296Y-92897894D01*
X164688228Y-92977744D01*
X164751094Y-93017292D01*
X164959027Y-93111945D01*
X165177765Y-93177891D01*
X165285940Y-93195178D01*
X165377084Y-93209744D01*
X165384965Y-93211262D01*
X165391048Y-93212636D01*
X165403232Y-93215389D01*
X165411484Y-93215062D01*
X165468745Y-93212793D01*
X165473734Y-93212694D01*
X167443943Y-93212694D01*
X167512064Y-93232696D01*
X167551086Y-93272390D01*
X167558445Y-93284281D01*
X167561385Y-93289032D01*
X167560098Y-93289829D01*
X167583606Y-93347901D01*
X167570437Y-93417665D01*
X167565488Y-93426466D01*
X167551061Y-93449871D01*
X167493864Y-93542662D01*
X167489291Y-93550080D01*
X167434526Y-93715191D01*
X167424000Y-93817928D01*
X167424000Y-94392072D01*
X167424337Y-94395318D01*
X167424337Y-94395322D01*
X167427301Y-94423884D01*
X167434793Y-94496093D01*
X167436974Y-94502629D01*
X167436974Y-94502631D01*
X167453855Y-94553228D01*
X167489846Y-94661107D01*
X167578000Y-94803562D01*
X167596837Y-94872015D01*
X167578115Y-94935981D01*
X167526758Y-95019298D01*
X167489291Y-95080080D01*
X167434526Y-95245191D01*
X167424000Y-95347928D01*
X167424000Y-95354966D01*
X167403998Y-95423087D01*
X167387095Y-95444061D01*
X167298558Y-95532598D01*
X167295866Y-95536194D01*
X167295860Y-95536201D01*
X167221936Y-95634953D01*
X167172246Y-95701331D01*
X167170085Y-95705288D01*
X167170084Y-95705290D01*
X167160974Y-95721974D01*
X167071233Y-95886322D01*
X167069662Y-95890534D01*
X167000445Y-96076116D01*
X166997576Y-96083807D01*
X166952772Y-96289763D01*
X166952451Y-96294251D01*
X166939773Y-96471525D01*
X166939016Y-96478985D01*
X166936249Y-96500000D01*
X166937327Y-96508188D01*
X166940422Y-96531697D01*
X166941500Y-96548143D01*
X166941500Y-97113710D01*
X166940422Y-97130159D01*
X166936249Y-97161850D01*
X166937326Y-97170034D01*
X166937326Y-97170036D01*
X166937824Y-97173818D01*
X166938631Y-97182020D01*
X166950554Y-97363991D01*
X166954044Y-97417263D01*
X166954847Y-97421300D01*
X166954847Y-97421301D01*
X167003169Y-97664267D01*
X167003171Y-97664274D01*
X167003973Y-97668307D01*
X167086243Y-97910686D01*
X167179570Y-98099945D01*
X167186884Y-98114778D01*
X167199072Y-98184721D01*
X167171512Y-98250150D01*
X167109375Y-98291400D01*
X167105943Y-98292408D01*
X167104738Y-98293798D01*
X167103067Y-98301481D01*
X167103067Y-99461433D01*
X167083065Y-99529554D01*
X167029409Y-99576047D01*
X166977067Y-99587433D01*
X165884182Y-99587433D01*
X165868943Y-99591908D01*
X165867738Y-99593298D01*
X165866067Y-99600981D01*
X165866067Y-99679699D01*
X165866404Y-99686215D01*
X165876142Y-99780065D01*
X165879035Y-99793461D01*
X165929555Y-99944886D01*
X165935720Y-99958048D01*
X166019493Y-100093425D01*
X166028531Y-100104827D01*
X166030206Y-100106500D01*
X166030986Y-100107926D01*
X166033074Y-100110560D01*
X166032623Y-100110917D01*
X166064286Y-100168782D01*
X166059283Y-100239602D01*
X166030366Y-100284687D01*
X166028269Y-100286788D01*
X166022138Y-100292930D01*
X165930858Y-100441013D01*
X165876093Y-100606124D01*
X165865567Y-100708861D01*
X165865567Y-100917062D01*
X165845565Y-100985183D01*
X165828662Y-101006157D01*
X165755224Y-101079595D01*
X165692912Y-101113621D01*
X165666129Y-101116500D01*
X164144500Y-101116500D01*
X164076379Y-101096498D01*
X164029886Y-101042842D01*
X164018500Y-100990500D01*
X164018500Y-99197799D01*
X164011745Y-99135617D01*
X163983892Y-99061318D01*
X165866067Y-99061318D01*
X165870542Y-99076557D01*
X165871932Y-99077762D01*
X165879615Y-99079433D01*
X166576952Y-99079433D01*
X166592191Y-99074958D01*
X166593396Y-99073568D01*
X166595067Y-99065885D01*
X166595067Y-98306048D01*
X166590592Y-98290809D01*
X166589202Y-98289604D01*
X166581519Y-98287933D01*
X166565301Y-98287933D01*
X166558785Y-98288270D01*
X166464935Y-98298008D01*
X166451539Y-98300901D01*
X166300114Y-98351421D01*
X166286952Y-98357586D01*
X166151575Y-98441359D01*
X166140177Y-98450393D01*
X166027704Y-98563062D01*
X166018692Y-98574473D01*
X165935155Y-98709996D01*
X165929011Y-98723174D01*
X165878752Y-98874699D01*
X165875886Y-98888065D01*
X165866395Y-98980703D01*
X165866067Y-98987118D01*
X165866067Y-99061318D01*
X163983892Y-99061318D01*
X163960615Y-98999228D01*
X163873261Y-98882672D01*
X163756705Y-98795318D01*
X163729905Y-98785271D01*
X163638203Y-98750893D01*
X163581439Y-98708251D01*
X163556739Y-98641689D01*
X163571947Y-98572341D01*
X163593493Y-98543660D01*
X163673861Y-98463572D01*
X163698096Y-98439422D01*
X163757594Y-98356622D01*
X163825435Y-98262210D01*
X163828453Y-98258010D01*
X163849442Y-98215543D01*
X163925136Y-98062386D01*
X163925137Y-98062384D01*
X163927430Y-98057744D01*
X163973300Y-97906769D01*
X163990865Y-97848956D01*
X163990865Y-97848954D01*
X163992370Y-97844002D01*
X164021529Y-97622523D01*
X164023156Y-97555933D01*
X164004852Y-97333294D01*
X163950431Y-97116635D01*
X163861354Y-96911773D01*
X163740014Y-96724210D01*
X163589670Y-96558984D01*
X163585619Y-96555785D01*
X163585615Y-96555781D01*
X163418414Y-96423733D01*
X163418410Y-96423731D01*
X163414359Y-96420531D01*
X163373053Y-96397729D01*
X163323084Y-96347297D01*
X163308312Y-96277854D01*
X163333428Y-96211449D01*
X163360780Y-96184842D01*
X163404603Y-96153583D01*
X163539860Y-96057106D01*
X163698096Y-95899422D01*
X163744713Y-95834548D01*
X163825435Y-95722210D01*
X163828453Y-95718010D01*
X163838480Y-95697723D01*
X163925136Y-95522386D01*
X163925137Y-95522384D01*
X163927430Y-95517744D01*
X163964700Y-95395075D01*
X163990865Y-95308956D01*
X163990865Y-95308954D01*
X163992370Y-95304002D01*
X164021529Y-95082523D01*
X164023156Y-95015933D01*
X164004852Y-94793294D01*
X163950431Y-94576635D01*
X163861354Y-94371773D01*
X163740014Y-94184210D01*
X163589670Y-94018984D01*
X163585619Y-94015785D01*
X163585615Y-94015781D01*
X163418414Y-93883733D01*
X163418410Y-93883731D01*
X163414359Y-93880531D01*
X163373053Y-93857729D01*
X163323084Y-93807297D01*
X163308312Y-93737854D01*
X163333428Y-93671449D01*
X163360780Y-93644842D01*
X163404603Y-93613583D01*
X163539860Y-93517106D01*
X163698096Y-93359422D01*
X163737196Y-93305009D01*
X163825435Y-93182210D01*
X163828453Y-93178010D01*
X163907885Y-93017292D01*
X163925136Y-92982386D01*
X163925137Y-92982384D01*
X163927430Y-92977744D01*
X163992370Y-92764002D01*
X164007893Y-92646095D01*
X164036616Y-92581168D01*
X164095881Y-92542077D01*
X164166872Y-92541232D01*
X164227364Y-92581342D01*
G37*
%TD.AperFunction*%
%TA.AperFunction,Conductor*%
G36*
X165286079Y-76688337D02*
G01*
X165303529Y-76706856D01*
X165417309Y-76855138D01*
X165707378Y-77171695D01*
X165709398Y-77173546D01*
X165709401Y-77173549D01*
X165990030Y-77430700D01*
X166023933Y-77461767D01*
X166026118Y-77463443D01*
X166026122Y-77463447D01*
X166362384Y-77721472D01*
X166362396Y-77721480D01*
X166364564Y-77723144D01*
X166366876Y-77724617D01*
X166366879Y-77724619D01*
X166557035Y-77845762D01*
X166726681Y-77953839D01*
X166729119Y-77955108D01*
X167051769Y-78123070D01*
X167107525Y-78152095D01*
X167504200Y-78316404D01*
X167506820Y-78317230D01*
X167506828Y-78317233D01*
X167911062Y-78444688D01*
X167911069Y-78444690D01*
X167913686Y-78445515D01*
X168002798Y-78465271D01*
X168180773Y-78504728D01*
X168242950Y-78539000D01*
X168260644Y-78561436D01*
X168308046Y-78638037D01*
X168345500Y-78698563D01*
X168364337Y-78767015D01*
X168345615Y-78830981D01*
X168275820Y-78944210D01*
X168256791Y-78975080D01*
X168202026Y-79140191D01*
X168191500Y-79242928D01*
X168191500Y-79817072D01*
X168191837Y-79820318D01*
X168191837Y-79820322D01*
X168194141Y-79842523D01*
X168202293Y-79921093D01*
X168204474Y-79927629D01*
X168204474Y-79927631D01*
X168217158Y-79965648D01*
X168257346Y-80086107D01*
X168261202Y-80092338D01*
X168348884Y-80234031D01*
X168346751Y-80235351D01*
X168368946Y-80290166D01*
X168355784Y-80359932D01*
X168350825Y-80368752D01*
X168271364Y-80497662D01*
X168266791Y-80505080D01*
X168212026Y-80670191D01*
X168211326Y-80677027D01*
X168211325Y-80677030D01*
X168207772Y-80711708D01*
X168201500Y-80772928D01*
X168201500Y-81347072D01*
X168201837Y-81350318D01*
X168201837Y-81350322D01*
X168207575Y-81405619D01*
X168212293Y-81451093D01*
X168214474Y-81457629D01*
X168214474Y-81457631D01*
X168258768Y-81590395D01*
X168267346Y-81616107D01*
X168358884Y-81764031D01*
X168364066Y-81769204D01*
X168476816Y-81881758D01*
X168476821Y-81881762D01*
X168481997Y-81886929D01*
X168630080Y-81978209D01*
X168795191Y-82032974D01*
X168802027Y-82033674D01*
X168802030Y-82033675D01*
X168853526Y-82038951D01*
X168897928Y-82043500D01*
X169268261Y-82043500D01*
X169336382Y-82063502D01*
X169357356Y-82080405D01*
X170403682Y-83126731D01*
X170414549Y-83139122D01*
X170434014Y-83164489D01*
X170440563Y-83169514D01*
X170440591Y-83169542D01*
X170448927Y-83176537D01*
X170707082Y-83413093D01*
X170707090Y-83413100D01*
X170709118Y-83414958D01*
X170711310Y-83416640D01*
X171002058Y-83639740D01*
X171002070Y-83639748D01*
X171004238Y-83641412D01*
X171157772Y-83739224D01*
X171305699Y-83833463D01*
X171317972Y-83841282D01*
X171647932Y-84013048D01*
X171991607Y-84155403D01*
X171994227Y-84156229D01*
X171994235Y-84156232D01*
X172343751Y-84266434D01*
X172343756Y-84266435D01*
X172346381Y-84267263D01*
X172709555Y-84347776D01*
X172761148Y-84354568D01*
X172826075Y-84383290D01*
X172865167Y-84442555D01*
X172866012Y-84513546D01*
X172838338Y-84563800D01*
X172780285Y-84628275D01*
X172730960Y-84683056D01*
X172727659Y-84688774D01*
X172663363Y-84800138D01*
X172635473Y-84848444D01*
X172576458Y-85030072D01*
X172556496Y-85220000D01*
X172556684Y-85221786D01*
X172537184Y-85288196D01*
X172520281Y-85309170D01*
X170623289Y-87206162D01*
X170560977Y-87240188D01*
X170492136Y-87235841D01*
X170479144Y-87231241D01*
X170460095Y-87224495D01*
X170455002Y-87223588D01*
X170454999Y-87223587D01*
X170237162Y-87184784D01*
X170237156Y-87184783D01*
X170232073Y-87183878D01*
X170154711Y-87182933D01*
X170005648Y-87181112D01*
X170005646Y-87181112D01*
X170000478Y-87181049D01*
X169771531Y-87216083D01*
X169551381Y-87288039D01*
X169546793Y-87290427D01*
X169546789Y-87290429D01*
X169350561Y-87392579D01*
X169345939Y-87394985D01*
X169341806Y-87398088D01*
X169341803Y-87398090D01*
X169164856Y-87530946D01*
X169160722Y-87534050D01*
X169160133Y-87533266D01*
X169100413Y-87561417D01*
X169030022Y-87552164D01*
X168975808Y-87506324D01*
X168962992Y-87481157D01*
X168952390Y-87452877D01*
X168943853Y-87437284D01*
X168867352Y-87335209D01*
X168854791Y-87322648D01*
X168752716Y-87246147D01*
X168737121Y-87237609D01*
X168616673Y-87192455D01*
X168601418Y-87188828D01*
X168550553Y-87183302D01*
X168543739Y-87182933D01*
X167871182Y-87182933D01*
X167855943Y-87187408D01*
X167854738Y-87188798D01*
X167853067Y-87196481D01*
X167853067Y-89980817D01*
X167857542Y-89996056D01*
X167858932Y-89997261D01*
X167866615Y-89998932D01*
X168543736Y-89998932D01*
X168550557Y-89998562D01*
X168601419Y-89993038D01*
X168616671Y-89989412D01*
X168737121Y-89944257D01*
X168752716Y-89935719D01*
X168854791Y-89859218D01*
X168867352Y-89846657D01*
X168943853Y-89744582D01*
X168952392Y-89728985D01*
X168964345Y-89697100D01*
X169006986Y-89640335D01*
X169073547Y-89615635D01*
X169142896Y-89630842D01*
X169162808Y-89644381D01*
X169288416Y-89748663D01*
X169488389Y-89865517D01*
X169704761Y-89948142D01*
X169709827Y-89949173D01*
X169709828Y-89949173D01*
X169762913Y-89959973D01*
X169931723Y-89994318D01*
X170062391Y-89999109D01*
X170158016Y-90002616D01*
X170158020Y-90002616D01*
X170163180Y-90002805D01*
X170168300Y-90002149D01*
X170168302Y-90002149D01*
X170267735Y-89989411D01*
X170392914Y-89973375D01*
X170397862Y-89971890D01*
X170397869Y-89971889D01*
X170609814Y-89908302D01*
X170614757Y-89906819D01*
X170695303Y-89867360D01*
X170818116Y-89807195D01*
X170818119Y-89807193D01*
X170822751Y-89804924D01*
X171011310Y-89670427D01*
X171175370Y-89506938D01*
X171182774Y-89496635D01*
X171244437Y-89410821D01*
X171300432Y-89367173D01*
X171371135Y-89360727D01*
X171434100Y-89393530D01*
X171454195Y-89418517D01*
X171455866Y-89421244D01*
X171455871Y-89421250D01*
X171458568Y-89425652D01*
X171610214Y-89600717D01*
X171788416Y-89748663D01*
X171988389Y-89865517D01*
X172204761Y-89948142D01*
X172209827Y-89949173D01*
X172209828Y-89949173D01*
X172262913Y-89959973D01*
X172431723Y-89994318D01*
X172562391Y-89999109D01*
X172658016Y-90002616D01*
X172658020Y-90002616D01*
X172663180Y-90002805D01*
X172668300Y-90002149D01*
X172668302Y-90002149D01*
X172767735Y-89989411D01*
X172892914Y-89973375D01*
X172897862Y-89971890D01*
X172897869Y-89971889D01*
X173109814Y-89908302D01*
X173114757Y-89906819D01*
X173195303Y-89867360D01*
X173318116Y-89807195D01*
X173318119Y-89807193D01*
X173322751Y-89804924D01*
X173511310Y-89670427D01*
X173675370Y-89506938D01*
X173682774Y-89496635D01*
X173701747Y-89470230D01*
X173810525Y-89318850D01*
X173835999Y-89267308D01*
X173910851Y-89115855D01*
X173910852Y-89115853D01*
X173913145Y-89111213D01*
X173980475Y-88889604D01*
X174010707Y-88659974D01*
X174012394Y-88590933D01*
X173999747Y-88437106D01*
X173993840Y-88365251D01*
X173993839Y-88365245D01*
X173993416Y-88360100D01*
X173936992Y-88135466D01*
X173918689Y-88093371D01*
X173846697Y-87927801D01*
X173846695Y-87927798D01*
X173844637Y-87923064D01*
X173718831Y-87728598D01*
X173562954Y-87557291D01*
X173558903Y-87554092D01*
X173558899Y-87554088D01*
X173385244Y-87416944D01*
X173385239Y-87416941D01*
X173381190Y-87413743D01*
X173376674Y-87411250D01*
X173376671Y-87411248D01*
X173182946Y-87304306D01*
X173182942Y-87304304D01*
X173178422Y-87301809D01*
X173173553Y-87300085D01*
X173173549Y-87300083D01*
X172964970Y-87226221D01*
X172964966Y-87226220D01*
X172960095Y-87224495D01*
X172955002Y-87223588D01*
X172954999Y-87223587D01*
X172737162Y-87184784D01*
X172737156Y-87184783D01*
X172732073Y-87183878D01*
X172670070Y-87183121D01*
X172602199Y-87162288D01*
X172556365Y-87108069D01*
X172547120Y-87037677D01*
X172577399Y-86973461D01*
X172582514Y-86968035D01*
X173385144Y-86165405D01*
X173447456Y-86131379D01*
X173474239Y-86128500D01*
X173565487Y-86128500D01*
X173571939Y-86127128D01*
X173571944Y-86127128D01*
X173658887Y-86108647D01*
X173752288Y-86088794D01*
X173836167Y-86051449D01*
X173920722Y-86013803D01*
X173920724Y-86013802D01*
X173926752Y-86011118D01*
X174081253Y-85898866D01*
X174209040Y-85756944D01*
X174212344Y-85751222D01*
X174213565Y-85749541D01*
X174269789Y-85706188D01*
X174340525Y-85700114D01*
X174403316Y-85733247D01*
X174438226Y-85795068D01*
X174441500Y-85823604D01*
X174441500Y-94140500D01*
X174421498Y-94208621D01*
X174367842Y-94255114D01*
X174315500Y-94266500D01*
X174012928Y-94266500D01*
X174009682Y-94266837D01*
X174009678Y-94266837D01*
X173915765Y-94276581D01*
X173915761Y-94276582D01*
X173908907Y-94277293D01*
X173902371Y-94279474D01*
X173902369Y-94279474D01*
X173769605Y-94323768D01*
X173743893Y-94332346D01*
X173595969Y-94423884D01*
X173590796Y-94429066D01*
X173489253Y-94530786D01*
X173426970Y-94564865D01*
X173356150Y-94559862D01*
X173311063Y-94530941D01*
X173208188Y-94428246D01*
X173208183Y-94428242D01*
X173203003Y-94423071D01*
X173157986Y-94395322D01*
X173061150Y-94335631D01*
X173061148Y-94335630D01*
X173054920Y-94331791D01*
X172889809Y-94277026D01*
X172882973Y-94276326D01*
X172882970Y-94276325D01*
X172831474Y-94271049D01*
X172787072Y-94266500D01*
X172187928Y-94266500D01*
X172184682Y-94266837D01*
X172184678Y-94266837D01*
X172090765Y-94276581D01*
X172090761Y-94276582D01*
X172083907Y-94277293D01*
X172077371Y-94279474D01*
X172077369Y-94279474D01*
X171944605Y-94323768D01*
X171918893Y-94332346D01*
X171770969Y-94423884D01*
X171765796Y-94429066D01*
X171653242Y-94541816D01*
X171653238Y-94541821D01*
X171648071Y-94546997D01*
X171644231Y-94553227D01*
X171644230Y-94553228D01*
X171626709Y-94581653D01*
X171556791Y-94695080D01*
X171502026Y-94860191D01*
X171501326Y-94867027D01*
X171501325Y-94867030D01*
X171496049Y-94918526D01*
X171491500Y-94962928D01*
X171491500Y-95326954D01*
X171471498Y-95395075D01*
X171417842Y-95441568D01*
X171347568Y-95451672D01*
X171282988Y-95422178D01*
X171244604Y-95362452D01*
X171240173Y-95339958D01*
X171230919Y-95250765D01*
X171230918Y-95250761D01*
X171230207Y-95243907D01*
X171175154Y-95078893D01*
X171087000Y-94936437D01*
X171068163Y-94867985D01*
X171086885Y-94804019D01*
X171171869Y-94666150D01*
X171171870Y-94666148D01*
X171175709Y-94659920D01*
X171230474Y-94494809D01*
X171241000Y-94392072D01*
X171241000Y-93817928D01*
X171234661Y-93756830D01*
X171230919Y-93720765D01*
X171230918Y-93720761D01*
X171230207Y-93713907D01*
X171188622Y-93589260D01*
X171177472Y-93555841D01*
X171175154Y-93548893D01*
X171083616Y-93400969D01*
X171084903Y-93400173D01*
X171061394Y-93342099D01*
X171074563Y-93272335D01*
X171079512Y-93263534D01*
X171129641Y-93182210D01*
X171151869Y-93146150D01*
X171151870Y-93146148D01*
X171155709Y-93139920D01*
X171210474Y-92974809D01*
X171221000Y-92872072D01*
X171221000Y-92297928D01*
X171220663Y-92294678D01*
X171210919Y-92200765D01*
X171210918Y-92200761D01*
X171210207Y-92193907D01*
X171155154Y-92028893D01*
X171063616Y-91880969D01*
X171048562Y-91865941D01*
X170945684Y-91763242D01*
X170945679Y-91763238D01*
X170940503Y-91758071D01*
X170923250Y-91747436D01*
X170798650Y-91670631D01*
X170798648Y-91670630D01*
X170792420Y-91666791D01*
X170627309Y-91612026D01*
X170620473Y-91611326D01*
X170620470Y-91611325D01*
X170568974Y-91606049D01*
X170524572Y-91601500D01*
X169925428Y-91601500D01*
X169922182Y-91601837D01*
X169922178Y-91601837D01*
X169828265Y-91611581D01*
X169828261Y-91611582D01*
X169821407Y-91612293D01*
X169814871Y-91614474D01*
X169814869Y-91614474D01*
X169804088Y-91618071D01*
X169656393Y-91667346D01*
X169508469Y-91758884D01*
X169503296Y-91764066D01*
X169401753Y-91865786D01*
X169339470Y-91899865D01*
X169268650Y-91894862D01*
X169223563Y-91865941D01*
X169120688Y-91763246D01*
X169120683Y-91763242D01*
X169115503Y-91758071D01*
X169098250Y-91747436D01*
X168973650Y-91670631D01*
X168973648Y-91670630D01*
X168967420Y-91666791D01*
X168802309Y-91612026D01*
X168795473Y-91611326D01*
X168795470Y-91611325D01*
X168743974Y-91606049D01*
X168699572Y-91601500D01*
X168100428Y-91601500D01*
X168097182Y-91601837D01*
X168097178Y-91601837D01*
X168003265Y-91611581D01*
X168003261Y-91611582D01*
X167996407Y-91612293D01*
X167989871Y-91614474D01*
X167989869Y-91614474D01*
X167979088Y-91618071D01*
X167831393Y-91667346D01*
X167683469Y-91758884D01*
X167678296Y-91764066D01*
X167565742Y-91876816D01*
X167565738Y-91876821D01*
X167560571Y-91881997D01*
X167556731Y-91888227D01*
X167556730Y-91888228D01*
X167527400Y-91935810D01*
X167474627Y-91983303D01*
X167420140Y-91995694D01*
X165538510Y-91995694D01*
X165527026Y-91995170D01*
X165523193Y-91994819D01*
X165515136Y-91992999D01*
X165506880Y-91993326D01*
X165498662Y-91992574D01*
X165498701Y-91992149D01*
X165478702Y-91990397D01*
X165425281Y-91978762D01*
X165414442Y-91976401D01*
X165385234Y-91966147D01*
X165307334Y-91927478D01*
X165281505Y-91910410D01*
X165215385Y-91853912D01*
X165194499Y-91831065D01*
X165191915Y-91827425D01*
X165144149Y-91760149D01*
X165129470Y-91732907D01*
X165097929Y-91651849D01*
X165090334Y-91621844D01*
X165089393Y-91614334D01*
X165082148Y-91556571D01*
X165082194Y-91536513D01*
X165081765Y-91536514D01*
X165081752Y-91528259D01*
X165082817Y-91520065D01*
X165078670Y-91488952D01*
X165077567Y-91472319D01*
X165077567Y-89535602D01*
X166191068Y-89535602D01*
X166191438Y-89542423D01*
X166196962Y-89593285D01*
X166200588Y-89608537D01*
X166245743Y-89728987D01*
X166254281Y-89744582D01*
X166330782Y-89846657D01*
X166343343Y-89859218D01*
X166445418Y-89935719D01*
X166461013Y-89944257D01*
X166581461Y-89989411D01*
X166596716Y-89993038D01*
X166647581Y-89998564D01*
X166654395Y-89998933D01*
X167326952Y-89998933D01*
X167342191Y-89994458D01*
X167343396Y-89993068D01*
X167345067Y-89985385D01*
X167345067Y-88863048D01*
X167340592Y-88847809D01*
X167339202Y-88846604D01*
X167331519Y-88844933D01*
X166209183Y-88844933D01*
X166193944Y-88849408D01*
X166192739Y-88850798D01*
X166191068Y-88858481D01*
X166191068Y-89535602D01*
X165077567Y-89535602D01*
X165077567Y-88318818D01*
X166191067Y-88318818D01*
X166195542Y-88334057D01*
X166196932Y-88335262D01*
X166204615Y-88336933D01*
X167326952Y-88336933D01*
X167342191Y-88332458D01*
X167343396Y-88331068D01*
X167345067Y-88323385D01*
X167345067Y-87201049D01*
X167340592Y-87185810D01*
X167339202Y-87184605D01*
X167331519Y-87182934D01*
X166654398Y-87182934D01*
X166647577Y-87183304D01*
X166596715Y-87188828D01*
X166581463Y-87192454D01*
X166461013Y-87237609D01*
X166445418Y-87246147D01*
X166343343Y-87322648D01*
X166330782Y-87335209D01*
X166254281Y-87437284D01*
X166245743Y-87452879D01*
X166200589Y-87573327D01*
X166196962Y-87588582D01*
X166191436Y-87639447D01*
X166191067Y-87646261D01*
X166191067Y-88318818D01*
X165077567Y-88318818D01*
X165077567Y-76783561D01*
X165097569Y-76715440D01*
X165151225Y-76668947D01*
X165221499Y-76658843D01*
X165286079Y-76688337D01*
G37*
%TD.AperFunction*%
%TD*%
M02*
