M48
; DRILL file {KiCad 6.0.11+dfsg-1~bpo11+1} date Friday, 14 April, 2023 10:24:12 AM
; FORMAT={-:-/ absolute / inch / decimal}
; #@! TF.CreationDate,2023-04-14T10:24:12+08:00
; #@! TF.GenerationSoftware,Kicad,Pcbnew,6.0.11+dfsg-1~bpo11+1
; #@! TF.FileFunction,Plated,1,2,PTH
FMAT,2
INCH
; #@! TA.AperFunction,Plated,PTH,ViaDrill
T1C0.0157
; #@! TA.AperFunction,Plated,PTH,ComponentDrill
T2C0.0354
; #@! TA.AperFunction,Plated,PTH,ComponentDrill
T3C0.0394
; #@! TA.AperFunction,Plated,PTH,ComponentDrill
T4C0.0480
; #@! TA.AperFunction,Plated,PTH,ComponentDrill
T5C0.0559
; #@! TA.AperFunction,Plated,PTH,ComponentDrill
T6C0.0563
%
G90
G05
T1
X6.3779Y-4.9546
X6.3799Y-4.7853
X6.3799Y-4.8994
X6.3799Y-5.0136
X6.3819Y-4.7341
X6.3819Y-4.8404
X6.3917Y-4.3384
X6.4035Y-4.4142
X6.4094Y-5.1947
X6.4104Y-4.1821
X6.4133Y-5.1475
X6.4252Y-5.24
X6.4498Y-4.4142
X6.4606Y-5.2676
X6.4763Y-4.9408
X6.4783Y-4.99
X6.4822Y-5.0412
X6.4921Y-3.8168
X6.495Y-3.9241
X6.498Y-5.0825
X6.499Y-3.8739
X6.4991Y-3.9774
X6.5374Y-2.7853
X6.5472Y-3.8335
X6.5698Y-3.9093
X6.5826Y-4.8365
X6.5866Y-4.9132
X6.5905Y-4.7912
X6.6132Y-3.926
X6.6141Y-4.0284
X6.6141Y-4.7459
X6.6161Y-4.8561
X6.6171Y-4.493
X6.628Y-5.2399
X6.6358Y-4.8069
X6.6368Y-4.3758
X6.6486Y-3.927
X6.6496Y-4.0284
X6.6515Y-4.4555
X6.6594Y-4.7695
X6.683Y-3.927
X6.685Y-4.7361
X6.686Y-4.0274
X6.6919Y-4.428
X6.7145Y-3.0097
X6.7185Y-4.7105
X6.7224Y-2.8739
X6.7322Y-2.7833
X6.7362Y-2.9428
X6.7382Y-2.8246
X6.7608Y-4.1426
X6.8031Y-4.7439
X6.8295Y-3.3551
X6.8326Y-4.7144
X6.8622Y-4.679
X6.8858Y-4.6416
X6.9114Y-4.7715
X6.9153Y-4.6829
X6.9527Y-4.742
X6.9763Y-4.6987
X6.9901Y-4.6573
X6.999Y-4.1622
X7.0039Y-4.2321
X7.0049Y-4.3
T2
X6.4498Y-5.3307
X6.5498Y-5.3307
T3
X6.4039Y-2.0408
X6.4039Y-2.1408
X6.4039Y-2.2408
X6.4039Y-2.3408
X6.4039Y-2.4408
X6.4039Y-2.5408
X6.4039Y-2.6408
X6.4039Y-2.7408
X6.4039Y-2.8408
X6.4039Y-2.9408
X6.4039Y-3.0408
X6.4039Y-3.1408
X6.4039Y-3.2408
X6.4039Y-3.3408
X6.4039Y-3.4408
X6.4039Y-3.5408
X6.4039Y-3.6408
X6.4039Y-3.7408
X6.4039Y-3.8408
X6.4039Y-3.9408
X6.5984Y-3.4878
X6.5992Y-2.7008
X6.6008Y-4.2756
X6.6968Y-3.4878
X6.6976Y-2.7008
X6.6992Y-4.2756
X6.7952Y-3.4878
X6.796Y-2.7008
X6.7976Y-4.2756
X6.8444Y-4.8385
X6.8444Y-4.9385
X6.8444Y-5.0385
X6.8444Y-5.1385
X6.8444Y-5.2385
X6.9444Y-4.8385
X6.9444Y-4.9385
X6.9444Y-5.0385
X6.9444Y-5.1385
X6.9444Y-5.2385
X7.0039Y-2.0408
X7.0039Y-2.1408
X7.0039Y-2.2408
X7.0039Y-2.3408
X7.0039Y-2.4408
X7.0039Y-2.5408
X7.0039Y-2.6408
X7.0039Y-2.7408
X7.0039Y-2.8408
X7.0039Y-2.9408
X7.0039Y-3.0408
X7.0039Y-3.1408
X7.0039Y-3.2408
X7.0039Y-3.3408
X7.0039Y-3.4408
X7.0039Y-3.5408
X7.0039Y-3.6408
X7.0039Y-3.7408
X7.0039Y-3.8408
X7.0039Y-3.9408
T4
X6.4988Y-4.7278
X6.5Y-5.52
X6.8937Y-5.52
T5
X6.4988Y-4.8498
X6.5Y-5.642
X6.8937Y-5.642
T6
X6.4988Y-5.1766
X6.5Y-5.9688
X6.8937Y-5.9688
T0
M30
