%TF.GenerationSoftware,KiCad,Pcbnew,6.0.11+dfsg-1~bpo11+1*%
%TF.CreationDate,2023-04-14T10:24:12+08:00*%
%TF.ProjectId,MiniVerb - Main,4d696e69-5665-4726-9220-2d204d61696e,rev?*%
%TF.SameCoordinates,Original*%
%TF.FileFunction,Drillmap*%
%TF.FilePolarity,Positive*%
%FSLAX45Y45*%
G04 Gerber Fmt 4.5, Leading zero omitted, Abs format (unit mm)*
G04 Created by KiCad (PCBNEW 6.0.11+dfsg-1~bpo11+1) date 2023-04-14 10:24:12*
%MOMM*%
%LPD*%
G01*
G04 APERTURE LIST*
%ADD10C,0.100000*%
%ADD11C,0.200000*%
%ADD12C,0.040000*%
%ADD13C,0.090000*%
%ADD14C,0.122000*%
%ADD15C,0.142000*%
%ADD16C,0.143000*%
G04 APERTURE END LIST*
D10*
X18009907Y-15354593D02*
X16009907Y-15354593D01*
X16009907Y-15354593D02*
X16009907Y-5004593D01*
X16009907Y-5004593D02*
X18009907Y-5004593D01*
X18009907Y-5004593D02*
X18009907Y-15354593D01*
D11*
D12*
X16179907Y-12564593D02*
X16219907Y-12604593D01*
X16219907Y-12564593D02*
X16179907Y-12604593D01*
X16184907Y-12134593D02*
X16224907Y-12174593D01*
X16224907Y-12134593D02*
X16184907Y-12174593D01*
X16184907Y-12424593D02*
X16224907Y-12464593D01*
X16224907Y-12424593D02*
X16184907Y-12464593D01*
X16184907Y-12714593D02*
X16224907Y-12754593D01*
X16224907Y-12714593D02*
X16184907Y-12754593D01*
X16189907Y-12004593D02*
X16229907Y-12044593D01*
X16229907Y-12004593D02*
X16189907Y-12044593D01*
X16189907Y-12274593D02*
X16229907Y-12314593D01*
X16229907Y-12274593D02*
X16189907Y-12314593D01*
X16214907Y-10999593D02*
X16254907Y-11039593D01*
X16254907Y-10999593D02*
X16214907Y-11039593D01*
X16244907Y-11192093D02*
X16284907Y-11232093D01*
X16284907Y-11192093D02*
X16244907Y-11232093D01*
X16259907Y-13174593D02*
X16299907Y-13214593D01*
X16299907Y-13174593D02*
X16259907Y-13214593D01*
X16262500Y-10602500D02*
X16302500Y-10642500D01*
X16302500Y-10602500D02*
X16262500Y-10642500D01*
X16269907Y-13054593D02*
X16309907Y-13094593D01*
X16309907Y-13054593D02*
X16269907Y-13094593D01*
X16299907Y-13289593D02*
X16339907Y-13329593D01*
X16339907Y-13289593D02*
X16299907Y-13329593D01*
X16362407Y-11192093D02*
X16402407Y-11232093D01*
X16402407Y-11192093D02*
X16362407Y-11232093D01*
X16389907Y-13359593D02*
X16429907Y-13399593D01*
X16429907Y-13359593D02*
X16389907Y-13399593D01*
X16429907Y-12529593D02*
X16469907Y-12569593D01*
X16469907Y-12529593D02*
X16429907Y-12569593D01*
X16434907Y-12654593D02*
X16474907Y-12694593D01*
X16474907Y-12654593D02*
X16434907Y-12694593D01*
X16444907Y-12784593D02*
X16484907Y-12824593D01*
X16484907Y-12784593D02*
X16444907Y-12824593D01*
X16469907Y-9674593D02*
X16509907Y-9714593D01*
X16509907Y-9674593D02*
X16469907Y-9714593D01*
X16477407Y-9947093D02*
X16517407Y-9987093D01*
X16517407Y-9947093D02*
X16477407Y-9987093D01*
X16484907Y-12889593D02*
X16524907Y-12929593D01*
X16524907Y-12889593D02*
X16484907Y-12929593D01*
X16487407Y-9819593D02*
X16527407Y-9859593D01*
X16527407Y-9819593D02*
X16487407Y-9859593D01*
X16487682Y-10082550D02*
X16527682Y-10122550D01*
X16527682Y-10082550D02*
X16487682Y-10122550D01*
X16584907Y-7054593D02*
X16624907Y-7094593D01*
X16624907Y-7054593D02*
X16584907Y-7094593D01*
X16609907Y-9717093D02*
X16649907Y-9757093D01*
X16649907Y-9717093D02*
X16609907Y-9757093D01*
X16667407Y-9909593D02*
X16707407Y-9949593D01*
X16707407Y-9909593D02*
X16667407Y-9949593D01*
X16699907Y-12264593D02*
X16739907Y-12304593D01*
X16739907Y-12264593D02*
X16699907Y-12304593D01*
X16709907Y-12459593D02*
X16749907Y-12499593D01*
X16749907Y-12459593D02*
X16709907Y-12499593D01*
X16719907Y-12149593D02*
X16759907Y-12189593D01*
X16759907Y-12149593D02*
X16719907Y-12189593D01*
X16777407Y-9952093D02*
X16817407Y-9992093D01*
X16817407Y-9952093D02*
X16777407Y-9992093D01*
X16779907Y-10212093D02*
X16819907Y-10252093D01*
X16819907Y-10212093D02*
X16779907Y-10252093D01*
X16779907Y-12034593D02*
X16819907Y-12074593D01*
X16819907Y-12034593D02*
X16779907Y-12074593D01*
X16784907Y-12314593D02*
X16824907Y-12354593D01*
X16824907Y-12314593D02*
X16784907Y-12354593D01*
X16787407Y-11392093D02*
X16827407Y-11432093D01*
X16827407Y-11392093D02*
X16787407Y-11432093D01*
X16815000Y-13289375D02*
X16855000Y-13329375D01*
X16855000Y-13289375D02*
X16815000Y-13329375D01*
X16834907Y-12189593D02*
X16874907Y-12229593D01*
X16874907Y-12189593D02*
X16834907Y-12229593D01*
X16837407Y-11094593D02*
X16877407Y-11134593D01*
X16877407Y-11094593D02*
X16837407Y-11134593D01*
X16867407Y-9954593D02*
X16907407Y-9994593D01*
X16907407Y-9954593D02*
X16867407Y-9994593D01*
X16869907Y-10212093D02*
X16909907Y-10252093D01*
X16909907Y-10212093D02*
X16869907Y-10252093D01*
X16874907Y-11297093D02*
X16914907Y-11337093D01*
X16914907Y-11297093D02*
X16874907Y-11337093D01*
X16894907Y-12094593D02*
X16934907Y-12134593D01*
X16934907Y-12094593D02*
X16894907Y-12134593D01*
X16954907Y-9954593D02*
X16994907Y-9994593D01*
X16994907Y-9954593D02*
X16954907Y-9994593D01*
X16959907Y-12009593D02*
X16999907Y-12049593D01*
X16999907Y-12009593D02*
X16959907Y-12049593D01*
X16962407Y-10209593D02*
X17002407Y-10249593D01*
X17002407Y-10209593D02*
X16962407Y-10249593D01*
X16977407Y-11227093D02*
X17017407Y-11267093D01*
X17017407Y-11227093D02*
X16977407Y-11267093D01*
X17034907Y-7624593D02*
X17074907Y-7664593D01*
X17074907Y-7624593D02*
X17034907Y-7664593D01*
X17044907Y-11944593D02*
X17084907Y-11984593D01*
X17084907Y-11944593D02*
X17044907Y-11984593D01*
X17054907Y-7279593D02*
X17094907Y-7319593D01*
X17094907Y-7279593D02*
X17054907Y-7319593D01*
X17079907Y-7049593D02*
X17119907Y-7089593D01*
X17119907Y-7049593D02*
X17079907Y-7089593D01*
X17089907Y-7454593D02*
X17129907Y-7494593D01*
X17129907Y-7454593D02*
X17089907Y-7494593D01*
X17094907Y-7154593D02*
X17134907Y-7194593D01*
X17134907Y-7154593D02*
X17094907Y-7194593D01*
X17152407Y-10502093D02*
X17192407Y-10542093D01*
X17192407Y-10502093D02*
X17152407Y-10542093D01*
X17259907Y-12029593D02*
X17299907Y-12069593D01*
X17299907Y-12029593D02*
X17259907Y-12069593D01*
X17327000Y-8502000D02*
X17367000Y-8542000D01*
X17367000Y-8502000D02*
X17327000Y-8542000D01*
X17334907Y-11954593D02*
X17374907Y-11994593D01*
X17374907Y-11954593D02*
X17334907Y-11994593D01*
X17409907Y-11864593D02*
X17449907Y-11904593D01*
X17449907Y-11864593D02*
X17409907Y-11904593D01*
X17469907Y-11769593D02*
X17509907Y-11809593D01*
X17509907Y-11769593D02*
X17469907Y-11809593D01*
X17534907Y-12099593D02*
X17574907Y-12139593D01*
X17574907Y-12099593D02*
X17534907Y-12139593D01*
X17544907Y-11874593D02*
X17584907Y-11914593D01*
X17584907Y-11874593D02*
X17544907Y-11914593D01*
X17639907Y-12024593D02*
X17679907Y-12064593D01*
X17679907Y-12024593D02*
X17639907Y-12064593D01*
X17699907Y-11914593D02*
X17739907Y-11954593D01*
X17739907Y-11914593D02*
X17699907Y-11954593D01*
X17734907Y-11809593D02*
X17774907Y-11849593D01*
X17774907Y-11809593D02*
X17734907Y-11849593D01*
X17757407Y-10552093D02*
X17797407Y-10592093D01*
X17797407Y-10552093D02*
X17757407Y-10592093D01*
X17769907Y-10729593D02*
X17809907Y-10769593D01*
X17809907Y-10729593D02*
X17769907Y-10769593D01*
X17772407Y-10902093D02*
X17812407Y-10942093D01*
X17812407Y-10902093D02*
X17772407Y-10942093D01*
D13*
X16427500Y-13540000D02*
G75*
G03*
X16427500Y-13540000I-45000J0D01*
G01*
X16681500Y-13540000D02*
G75*
G03*
X16681500Y-13540000I-45000J0D01*
G01*
D10*
X16266000Y-5133593D02*
X16266000Y-5233593D01*
X16216000Y-5183593D02*
X16316000Y-5183593D01*
X16266000Y-5387593D02*
X16266000Y-5487593D01*
X16216000Y-5437593D02*
X16316000Y-5437593D01*
X16266000Y-5641593D02*
X16266000Y-5741593D01*
X16216000Y-5691593D02*
X16316000Y-5691593D01*
X16266000Y-5895593D02*
X16266000Y-5995593D01*
X16216000Y-5945593D02*
X16316000Y-5945593D01*
X16266000Y-6149593D02*
X16266000Y-6249593D01*
X16216000Y-6199593D02*
X16316000Y-6199593D01*
X16266000Y-6403593D02*
X16266000Y-6503593D01*
X16216000Y-6453593D02*
X16316000Y-6453593D01*
X16266000Y-6657593D02*
X16266000Y-6757593D01*
X16216000Y-6707593D02*
X16316000Y-6707593D01*
X16266000Y-6911593D02*
X16266000Y-7011593D01*
X16216000Y-6961593D02*
X16316000Y-6961593D01*
X16266000Y-7165593D02*
X16266000Y-7265593D01*
X16216000Y-7215593D02*
X16316000Y-7215593D01*
X16266000Y-7419593D02*
X16266000Y-7519593D01*
X16216000Y-7469593D02*
X16316000Y-7469593D01*
X16266000Y-7673593D02*
X16266000Y-7773593D01*
X16216000Y-7723593D02*
X16316000Y-7723593D01*
X16266000Y-7927593D02*
X16266000Y-8027593D01*
X16216000Y-7977593D02*
X16316000Y-7977593D01*
X16266000Y-8181593D02*
X16266000Y-8281593D01*
X16216000Y-8231593D02*
X16316000Y-8231593D01*
X16266000Y-8435593D02*
X16266000Y-8535593D01*
X16216000Y-8485593D02*
X16316000Y-8485593D01*
X16266000Y-8689593D02*
X16266000Y-8789593D01*
X16216000Y-8739593D02*
X16316000Y-8739593D01*
X16266000Y-8943593D02*
X16266000Y-9043593D01*
X16216000Y-8993593D02*
X16316000Y-8993593D01*
X16266000Y-9197593D02*
X16266000Y-9297593D01*
X16216000Y-9247593D02*
X16316000Y-9247593D01*
X16266000Y-9451593D02*
X16266000Y-9551593D01*
X16216000Y-9501593D02*
X16316000Y-9501593D01*
X16266000Y-9705593D02*
X16266000Y-9805593D01*
X16216000Y-9755593D02*
X16316000Y-9755593D01*
X16266000Y-9959593D02*
X16266000Y-10059593D01*
X16216000Y-10009593D02*
X16316000Y-10009593D01*
X16759907Y-8809093D02*
X16759907Y-8909093D01*
X16709907Y-8859093D02*
X16809907Y-8859093D01*
X16761907Y-6810093D02*
X16761907Y-6910093D01*
X16711907Y-6860093D02*
X16811907Y-6860093D01*
X16765907Y-10810093D02*
X16765907Y-10910093D01*
X16715907Y-10860093D02*
X16815907Y-10860093D01*
X17009907Y-8809093D02*
X17009907Y-8909093D01*
X16959907Y-8859093D02*
X17059907Y-8859093D01*
X17011907Y-6810093D02*
X17011907Y-6910093D01*
X16961907Y-6860093D02*
X17061907Y-6860093D01*
X17015907Y-10810093D02*
X17015907Y-10910093D01*
X16965907Y-10860093D02*
X17065907Y-10860093D01*
X17259907Y-8809093D02*
X17259907Y-8909093D01*
X17209907Y-8859093D02*
X17309907Y-8859093D01*
X17261907Y-6810093D02*
X17261907Y-6910093D01*
X17211907Y-6860093D02*
X17311907Y-6860093D01*
X17265907Y-10810093D02*
X17265907Y-10910093D01*
X17215907Y-10860093D02*
X17315907Y-10860093D01*
X17384657Y-12239693D02*
X17384657Y-12339693D01*
X17334657Y-12289693D02*
X17434657Y-12289693D01*
X17384657Y-12493693D02*
X17384657Y-12593693D01*
X17334657Y-12543693D02*
X17434657Y-12543693D01*
X17384657Y-12747693D02*
X17384657Y-12847693D01*
X17334657Y-12797693D02*
X17434657Y-12797693D01*
X17384657Y-13001693D02*
X17384657Y-13101693D01*
X17334657Y-13051693D02*
X17434657Y-13051693D01*
X17384657Y-13255693D02*
X17384657Y-13355693D01*
X17334657Y-13305693D02*
X17434657Y-13305693D01*
X17638657Y-12239693D02*
X17638657Y-12339693D01*
X17588657Y-12289693D02*
X17688657Y-12289693D01*
X17638657Y-12493693D02*
X17638657Y-12593693D01*
X17588657Y-12543693D02*
X17688657Y-12543693D01*
X17638657Y-12747693D02*
X17638657Y-12847693D01*
X17588657Y-12797693D02*
X17688657Y-12797693D01*
X17638657Y-13001693D02*
X17638657Y-13101693D01*
X17588657Y-13051693D02*
X17688657Y-13051693D01*
X17638657Y-13255693D02*
X17638657Y-13355693D01*
X17588657Y-13305693D02*
X17688657Y-13305693D01*
X17790000Y-5133593D02*
X17790000Y-5233593D01*
X17740000Y-5183593D02*
X17840000Y-5183593D01*
X17790000Y-5387593D02*
X17790000Y-5487593D01*
X17740000Y-5437593D02*
X17840000Y-5437593D01*
X17790000Y-5641593D02*
X17790000Y-5741593D01*
X17740000Y-5691593D02*
X17840000Y-5691593D01*
X17790000Y-5895593D02*
X17790000Y-5995593D01*
X17740000Y-5945593D02*
X17840000Y-5945593D01*
X17790000Y-6149593D02*
X17790000Y-6249593D01*
X17740000Y-6199593D02*
X17840000Y-6199593D01*
X17790000Y-6403593D02*
X17790000Y-6503593D01*
X17740000Y-6453593D02*
X17840000Y-6453593D01*
X17790000Y-6657593D02*
X17790000Y-6757593D01*
X17740000Y-6707593D02*
X17840000Y-6707593D01*
X17790000Y-6911593D02*
X17790000Y-7011593D01*
X17740000Y-6961593D02*
X17840000Y-6961593D01*
X17790000Y-7165593D02*
X17790000Y-7265593D01*
X17740000Y-7215593D02*
X17840000Y-7215593D01*
X17790000Y-7419593D02*
X17790000Y-7519593D01*
X17740000Y-7469593D02*
X17840000Y-7469593D01*
X17790000Y-7673593D02*
X17790000Y-7773593D01*
X17740000Y-7723593D02*
X17840000Y-7723593D01*
X17790000Y-7927593D02*
X17790000Y-8027593D01*
X17740000Y-7977593D02*
X17840000Y-7977593D01*
X17790000Y-8181593D02*
X17790000Y-8281593D01*
X17740000Y-8231593D02*
X17840000Y-8231593D01*
X17790000Y-8435593D02*
X17790000Y-8535593D01*
X17740000Y-8485593D02*
X17840000Y-8485593D01*
X17790000Y-8689593D02*
X17790000Y-8789593D01*
X17740000Y-8739593D02*
X17840000Y-8739593D01*
X17790000Y-8943593D02*
X17790000Y-9043593D01*
X17740000Y-8993593D02*
X17840000Y-8993593D01*
X17790000Y-9197593D02*
X17790000Y-9297593D01*
X17740000Y-9247593D02*
X17840000Y-9247593D01*
X17790000Y-9451593D02*
X17790000Y-9551593D01*
X17740000Y-9501593D02*
X17840000Y-9501593D01*
X17790000Y-9705593D02*
X17790000Y-9805593D01*
X17740000Y-9755593D02*
X17840000Y-9755593D01*
X17790000Y-9959593D02*
X17790000Y-10059593D01*
X17740000Y-10009593D02*
X17840000Y-10009593D01*
D14*
X16550041Y-12051727D02*
X16550041Y-11965459D01*
X16463773Y-11965459D01*
X16463773Y-12051727D01*
X16550041Y-12051727D01*
X16553041Y-14063927D02*
X16553041Y-13977659D01*
X16466773Y-13977659D01*
X16466773Y-14063927D01*
X16553041Y-14063927D01*
X17553041Y-14063927D02*
X17553041Y-13977659D01*
X17466773Y-13977659D01*
X17466773Y-14063927D01*
X17553041Y-14063927D01*
D15*
X16506907Y-12389593D02*
X16577907Y-12318593D01*
X16506907Y-12247593D01*
X16435907Y-12318593D01*
X16506907Y-12389593D01*
X16509907Y-14401793D02*
X16580907Y-14330793D01*
X16509907Y-14259793D01*
X16438907Y-14330793D01*
X16509907Y-14401793D01*
X17509907Y-14401793D02*
X17580907Y-14330793D01*
X17509907Y-14259793D01*
X17438907Y-14330793D01*
X17509907Y-14401793D01*
D16*
X16435407Y-13077093D02*
X16578407Y-13220093D01*
X16578407Y-13077093D02*
X16435407Y-13220093D01*
X16578407Y-13148593D02*
G75*
G03*
X16578407Y-13148593I-71500J0D01*
G01*
X16438407Y-15089293D02*
X16581407Y-15232293D01*
X16581407Y-15089293D02*
X16438407Y-15232293D01*
X16581407Y-15160793D02*
G75*
G03*
X16581407Y-15160793I-71500J0D01*
G01*
X17438407Y-15089293D02*
X17581407Y-15232293D01*
X17581407Y-15089293D02*
X17438407Y-15232293D01*
X17581407Y-15160793D02*
G75*
G03*
X17581407Y-15160793I-71500J0D01*
G01*
D11*
X16262526Y-15670069D02*
X16262526Y-15470069D01*
X16310145Y-15470069D01*
X16338716Y-15479593D01*
X16357764Y-15498641D01*
X16367288Y-15517688D01*
X16376811Y-15555784D01*
X16376811Y-15584355D01*
X16367288Y-15622450D01*
X16357764Y-15641498D01*
X16338716Y-15660546D01*
X16310145Y-15670069D01*
X16262526Y-15670069D01*
X16462526Y-15670069D02*
X16462526Y-15536736D01*
X16462526Y-15574831D02*
X16472049Y-15555784D01*
X16481573Y-15546260D01*
X16500621Y-15536736D01*
X16519669Y-15536736D01*
X16586335Y-15670069D02*
X16586335Y-15536736D01*
X16586335Y-15470069D02*
X16576811Y-15479593D01*
X16586335Y-15489117D01*
X16595859Y-15479593D01*
X16586335Y-15470069D01*
X16586335Y-15489117D01*
X16710145Y-15670069D02*
X16691097Y-15660546D01*
X16681573Y-15641498D01*
X16681573Y-15470069D01*
X16814907Y-15670069D02*
X16795859Y-15660546D01*
X16786335Y-15641498D01*
X16786335Y-15470069D01*
X17043478Y-15670069D02*
X17043478Y-15470069D01*
X17110145Y-15612927D01*
X17176811Y-15470069D01*
X17176811Y-15670069D01*
X17357764Y-15670069D02*
X17357764Y-15565307D01*
X17348240Y-15546260D01*
X17329192Y-15536736D01*
X17291097Y-15536736D01*
X17272050Y-15546260D01*
X17357764Y-15660546D02*
X17338716Y-15670069D01*
X17291097Y-15670069D01*
X17272050Y-15660546D01*
X17262526Y-15641498D01*
X17262526Y-15622450D01*
X17272050Y-15603403D01*
X17291097Y-15593879D01*
X17338716Y-15593879D01*
X17357764Y-15584355D01*
X17453002Y-15536736D02*
X17453002Y-15736736D01*
X17453002Y-15546260D02*
X17472050Y-15536736D01*
X17510145Y-15536736D01*
X17529192Y-15546260D01*
X17538716Y-15555784D01*
X17548240Y-15574831D01*
X17548240Y-15631974D01*
X17538716Y-15651022D01*
X17529192Y-15660546D01*
X17510145Y-15670069D01*
X17472050Y-15670069D01*
X17453002Y-15660546D01*
X17633954Y-15651022D02*
X17643478Y-15660546D01*
X17633954Y-15670069D01*
X17624431Y-15660546D01*
X17633954Y-15651022D01*
X17633954Y-15670069D01*
X17633954Y-15546260D02*
X17643478Y-15555784D01*
X17633954Y-15565307D01*
X17624431Y-15555784D01*
X17633954Y-15546260D01*
X17633954Y-15565307D01*
D12*
X15964907Y-15979593D02*
X16004907Y-16019593D01*
X16004907Y-15979593D02*
X15964907Y-16019593D01*
D11*
X16300621Y-15890069D02*
X16319669Y-15890069D01*
X16338716Y-15899593D01*
X16348240Y-15909117D01*
X16357764Y-15928165D01*
X16367288Y-15966260D01*
X16367288Y-16013879D01*
X16357764Y-16051974D01*
X16348240Y-16071022D01*
X16338716Y-16080546D01*
X16319669Y-16090069D01*
X16300621Y-16090069D01*
X16281573Y-16080546D01*
X16272049Y-16071022D01*
X16262526Y-16051974D01*
X16253002Y-16013879D01*
X16253002Y-15966260D01*
X16262526Y-15928165D01*
X16272049Y-15909117D01*
X16281573Y-15899593D01*
X16300621Y-15890069D01*
X16453002Y-16071022D02*
X16462526Y-16080546D01*
X16453002Y-16090069D01*
X16443478Y-16080546D01*
X16453002Y-16071022D01*
X16453002Y-16090069D01*
X16633954Y-15956736D02*
X16633954Y-16090069D01*
X16586335Y-15880546D02*
X16538716Y-16023403D01*
X16662526Y-16023403D01*
X16776811Y-15890069D02*
X16795859Y-15890069D01*
X16814907Y-15899593D01*
X16824431Y-15909117D01*
X16833954Y-15928165D01*
X16843478Y-15966260D01*
X16843478Y-16013879D01*
X16833954Y-16051974D01*
X16824431Y-16071022D01*
X16814907Y-16080546D01*
X16795859Y-16090069D01*
X16776811Y-16090069D01*
X16757764Y-16080546D01*
X16748240Y-16071022D01*
X16738716Y-16051974D01*
X16729192Y-16013879D01*
X16729192Y-15966260D01*
X16738716Y-15928165D01*
X16748240Y-15909117D01*
X16757764Y-15899593D01*
X16776811Y-15890069D01*
X16967288Y-15890069D02*
X16986335Y-15890069D01*
X17005383Y-15899593D01*
X17014907Y-15909117D01*
X17024431Y-15928165D01*
X17033954Y-15966260D01*
X17033954Y-16013879D01*
X17024431Y-16051974D01*
X17014907Y-16071022D01*
X17005383Y-16080546D01*
X16986335Y-16090069D01*
X16967288Y-16090069D01*
X16948240Y-16080546D01*
X16938716Y-16071022D01*
X16929192Y-16051974D01*
X16919669Y-16013879D01*
X16919669Y-15966260D01*
X16929192Y-15928165D01*
X16938716Y-15909117D01*
X16948240Y-15899593D01*
X16967288Y-15890069D01*
X17119669Y-16090069D02*
X17119669Y-15956736D01*
X17119669Y-15975784D02*
X17129192Y-15966260D01*
X17148240Y-15956736D01*
X17176811Y-15956736D01*
X17195859Y-15966260D01*
X17205383Y-15985307D01*
X17205383Y-16090069D01*
X17205383Y-15985307D02*
X17214907Y-15966260D01*
X17233954Y-15956736D01*
X17262526Y-15956736D01*
X17281573Y-15966260D01*
X17291097Y-15985307D01*
X17291097Y-16090069D01*
X17386335Y-16090069D02*
X17386335Y-15956736D01*
X17386335Y-15975784D02*
X17395859Y-15966260D01*
X17414907Y-15956736D01*
X17443478Y-15956736D01*
X17462526Y-15966260D01*
X17472050Y-15985307D01*
X17472050Y-16090069D01*
X17472050Y-15985307D02*
X17481573Y-15966260D01*
X17500621Y-15956736D01*
X17529192Y-15956736D01*
X17548240Y-15966260D01*
X17557764Y-15985307D01*
X17557764Y-16090069D01*
X17948240Y-15880546D02*
X17776811Y-16137688D01*
X18205383Y-15890069D02*
X18224431Y-15890069D01*
X18243478Y-15899593D01*
X18253002Y-15909117D01*
X18262526Y-15928165D01*
X18272050Y-15966260D01*
X18272050Y-16013879D01*
X18262526Y-16051974D01*
X18253002Y-16071022D01*
X18243478Y-16080546D01*
X18224431Y-16090069D01*
X18205383Y-16090069D01*
X18186335Y-16080546D01*
X18176811Y-16071022D01*
X18167288Y-16051974D01*
X18157764Y-16013879D01*
X18157764Y-15966260D01*
X18167288Y-15928165D01*
X18176811Y-15909117D01*
X18186335Y-15899593D01*
X18205383Y-15890069D01*
X18357764Y-16071022D02*
X18367288Y-16080546D01*
X18357764Y-16090069D01*
X18348240Y-16080546D01*
X18357764Y-16071022D01*
X18357764Y-16090069D01*
X18491097Y-15890069D02*
X18510145Y-15890069D01*
X18529192Y-15899593D01*
X18538716Y-15909117D01*
X18548240Y-15928165D01*
X18557764Y-15966260D01*
X18557764Y-16013879D01*
X18548240Y-16051974D01*
X18538716Y-16071022D01*
X18529192Y-16080546D01*
X18510145Y-16090069D01*
X18491097Y-16090069D01*
X18472050Y-16080546D01*
X18462526Y-16071022D01*
X18453002Y-16051974D01*
X18443478Y-16013879D01*
X18443478Y-15966260D01*
X18453002Y-15928165D01*
X18462526Y-15909117D01*
X18472050Y-15899593D01*
X18491097Y-15890069D01*
X18748240Y-16090069D02*
X18633954Y-16090069D01*
X18691097Y-16090069D02*
X18691097Y-15890069D01*
X18672050Y-15918641D01*
X18653002Y-15937688D01*
X18633954Y-15947212D01*
X18929192Y-15890069D02*
X18833954Y-15890069D01*
X18824431Y-15985307D01*
X18833954Y-15975784D01*
X18853002Y-15966260D01*
X18900621Y-15966260D01*
X18919669Y-15975784D01*
X18929192Y-15985307D01*
X18938716Y-16004355D01*
X18938716Y-16051974D01*
X18929192Y-16071022D01*
X18919669Y-16080546D01*
X18900621Y-16090069D01*
X18853002Y-16090069D01*
X18833954Y-16080546D01*
X18824431Y-16071022D01*
X19005383Y-15890069D02*
X19138716Y-15890069D01*
X19053002Y-16090069D01*
X19205383Y-15890069D02*
X19205383Y-15928165D01*
X19281573Y-15890069D02*
X19281573Y-15928165D01*
X19576811Y-16166260D02*
X19567288Y-16156736D01*
X19548240Y-16128165D01*
X19538716Y-16109117D01*
X19529192Y-16080546D01*
X19519669Y-16032927D01*
X19519669Y-15994831D01*
X19529192Y-15947212D01*
X19538716Y-15918641D01*
X19548240Y-15899593D01*
X19567288Y-15871022D01*
X19576811Y-15861498D01*
X19738716Y-15890069D02*
X19700621Y-15890069D01*
X19681573Y-15899593D01*
X19672050Y-15909117D01*
X19653002Y-15937688D01*
X19643478Y-15975784D01*
X19643478Y-16051974D01*
X19653002Y-16071022D01*
X19662526Y-16080546D01*
X19681573Y-16090069D01*
X19719669Y-16090069D01*
X19738716Y-16080546D01*
X19748240Y-16071022D01*
X19757764Y-16051974D01*
X19757764Y-16004355D01*
X19748240Y-15985307D01*
X19738716Y-15975784D01*
X19719669Y-15966260D01*
X19681573Y-15966260D01*
X19662526Y-15975784D01*
X19653002Y-15985307D01*
X19643478Y-16004355D01*
X19929192Y-15956736D02*
X19929192Y-16090069D01*
X19881573Y-15880546D02*
X19833954Y-16023403D01*
X19957764Y-16023403D01*
X20186335Y-16090069D02*
X20186335Y-15890069D01*
X20272050Y-16090069D02*
X20272050Y-15985307D01*
X20262526Y-15966260D01*
X20243478Y-15956736D01*
X20214907Y-15956736D01*
X20195859Y-15966260D01*
X20186335Y-15975784D01*
X20395859Y-16090069D02*
X20376811Y-16080546D01*
X20367288Y-16071022D01*
X20357764Y-16051974D01*
X20357764Y-15994831D01*
X20367288Y-15975784D01*
X20376811Y-15966260D01*
X20395859Y-15956736D01*
X20424431Y-15956736D01*
X20443478Y-15966260D01*
X20453002Y-15975784D01*
X20462526Y-15994831D01*
X20462526Y-16051974D01*
X20453002Y-16071022D01*
X20443478Y-16080546D01*
X20424431Y-16090069D01*
X20395859Y-16090069D01*
X20576811Y-16090069D02*
X20557764Y-16080546D01*
X20548240Y-16061498D01*
X20548240Y-15890069D01*
X20729192Y-16080546D02*
X20710145Y-16090069D01*
X20672050Y-16090069D01*
X20653002Y-16080546D01*
X20643478Y-16061498D01*
X20643478Y-15985307D01*
X20653002Y-15966260D01*
X20672050Y-15956736D01*
X20710145Y-15956736D01*
X20729192Y-15966260D01*
X20738716Y-15985307D01*
X20738716Y-16004355D01*
X20643478Y-16023403D01*
X20814907Y-16080546D02*
X20833954Y-16090069D01*
X20872050Y-16090069D01*
X20891097Y-16080546D01*
X20900621Y-16061498D01*
X20900621Y-16051974D01*
X20891097Y-16032927D01*
X20872050Y-16023403D01*
X20843478Y-16023403D01*
X20824431Y-16013879D01*
X20814907Y-15994831D01*
X20814907Y-15985307D01*
X20824431Y-15966260D01*
X20843478Y-15956736D01*
X20872050Y-15956736D01*
X20891097Y-15966260D01*
X20967288Y-16166260D02*
X20976811Y-16156736D01*
X20995859Y-16128165D01*
X21005383Y-16109117D01*
X21014907Y-16080546D01*
X21024431Y-16032927D01*
X21024431Y-15994831D01*
X21014907Y-15947212D01*
X21005383Y-15918641D01*
X20995859Y-15899593D01*
X20976811Y-15871022D01*
X20967288Y-15861498D01*
D13*
X16004907Y-16263593D02*
G75*
G03*
X16004907Y-16263593I-45000J0D01*
G01*
D11*
X16300621Y-16154069D02*
X16319669Y-16154069D01*
X16338716Y-16163593D01*
X16348240Y-16173117D01*
X16357764Y-16192165D01*
X16367288Y-16230260D01*
X16367288Y-16277879D01*
X16357764Y-16315974D01*
X16348240Y-16335022D01*
X16338716Y-16344546D01*
X16319669Y-16354069D01*
X16300621Y-16354069D01*
X16281573Y-16344546D01*
X16272049Y-16335022D01*
X16262526Y-16315974D01*
X16253002Y-16277879D01*
X16253002Y-16230260D01*
X16262526Y-16192165D01*
X16272049Y-16173117D01*
X16281573Y-16163593D01*
X16300621Y-16154069D01*
X16453002Y-16335022D02*
X16462526Y-16344546D01*
X16453002Y-16354069D01*
X16443478Y-16344546D01*
X16453002Y-16335022D01*
X16453002Y-16354069D01*
X16557764Y-16354069D02*
X16595859Y-16354069D01*
X16614907Y-16344546D01*
X16624430Y-16335022D01*
X16643478Y-16306450D01*
X16653002Y-16268355D01*
X16653002Y-16192165D01*
X16643478Y-16173117D01*
X16633954Y-16163593D01*
X16614907Y-16154069D01*
X16576811Y-16154069D01*
X16557764Y-16163593D01*
X16548240Y-16173117D01*
X16538716Y-16192165D01*
X16538716Y-16239784D01*
X16548240Y-16258831D01*
X16557764Y-16268355D01*
X16576811Y-16277879D01*
X16614907Y-16277879D01*
X16633954Y-16268355D01*
X16643478Y-16258831D01*
X16653002Y-16239784D01*
X16776811Y-16154069D02*
X16795859Y-16154069D01*
X16814907Y-16163593D01*
X16824431Y-16173117D01*
X16833954Y-16192165D01*
X16843478Y-16230260D01*
X16843478Y-16277879D01*
X16833954Y-16315974D01*
X16824431Y-16335022D01*
X16814907Y-16344546D01*
X16795859Y-16354069D01*
X16776811Y-16354069D01*
X16757764Y-16344546D01*
X16748240Y-16335022D01*
X16738716Y-16315974D01*
X16729192Y-16277879D01*
X16729192Y-16230260D01*
X16738716Y-16192165D01*
X16748240Y-16173117D01*
X16757764Y-16163593D01*
X16776811Y-16154069D01*
X16967288Y-16154069D02*
X16986335Y-16154069D01*
X17005383Y-16163593D01*
X17014907Y-16173117D01*
X17024431Y-16192165D01*
X17033954Y-16230260D01*
X17033954Y-16277879D01*
X17024431Y-16315974D01*
X17014907Y-16335022D01*
X17005383Y-16344546D01*
X16986335Y-16354069D01*
X16967288Y-16354069D01*
X16948240Y-16344546D01*
X16938716Y-16335022D01*
X16929192Y-16315974D01*
X16919669Y-16277879D01*
X16919669Y-16230260D01*
X16929192Y-16192165D01*
X16938716Y-16173117D01*
X16948240Y-16163593D01*
X16967288Y-16154069D01*
X17119669Y-16354069D02*
X17119669Y-16220736D01*
X17119669Y-16239784D02*
X17129192Y-16230260D01*
X17148240Y-16220736D01*
X17176811Y-16220736D01*
X17195859Y-16230260D01*
X17205383Y-16249307D01*
X17205383Y-16354069D01*
X17205383Y-16249307D02*
X17214907Y-16230260D01*
X17233954Y-16220736D01*
X17262526Y-16220736D01*
X17281573Y-16230260D01*
X17291097Y-16249307D01*
X17291097Y-16354069D01*
X17386335Y-16354069D02*
X17386335Y-16220736D01*
X17386335Y-16239784D02*
X17395859Y-16230260D01*
X17414907Y-16220736D01*
X17443478Y-16220736D01*
X17462526Y-16230260D01*
X17472050Y-16249307D01*
X17472050Y-16354069D01*
X17472050Y-16249307D02*
X17481573Y-16230260D01*
X17500621Y-16220736D01*
X17529192Y-16220736D01*
X17548240Y-16230260D01*
X17557764Y-16249307D01*
X17557764Y-16354069D01*
X17948240Y-16144546D02*
X17776811Y-16401688D01*
X18205383Y-16154069D02*
X18224431Y-16154069D01*
X18243478Y-16163593D01*
X18253002Y-16173117D01*
X18262526Y-16192165D01*
X18272050Y-16230260D01*
X18272050Y-16277879D01*
X18262526Y-16315974D01*
X18253002Y-16335022D01*
X18243478Y-16344546D01*
X18224431Y-16354069D01*
X18205383Y-16354069D01*
X18186335Y-16344546D01*
X18176811Y-16335022D01*
X18167288Y-16315974D01*
X18157764Y-16277879D01*
X18157764Y-16230260D01*
X18167288Y-16192165D01*
X18176811Y-16173117D01*
X18186335Y-16163593D01*
X18205383Y-16154069D01*
X18357764Y-16335022D02*
X18367288Y-16344546D01*
X18357764Y-16354069D01*
X18348240Y-16344546D01*
X18357764Y-16335022D01*
X18357764Y-16354069D01*
X18491097Y-16154069D02*
X18510145Y-16154069D01*
X18529192Y-16163593D01*
X18538716Y-16173117D01*
X18548240Y-16192165D01*
X18557764Y-16230260D01*
X18557764Y-16277879D01*
X18548240Y-16315974D01*
X18538716Y-16335022D01*
X18529192Y-16344546D01*
X18510145Y-16354069D01*
X18491097Y-16354069D01*
X18472050Y-16344546D01*
X18462526Y-16335022D01*
X18453002Y-16315974D01*
X18443478Y-16277879D01*
X18443478Y-16230260D01*
X18453002Y-16192165D01*
X18462526Y-16173117D01*
X18472050Y-16163593D01*
X18491097Y-16154069D01*
X18624431Y-16154069D02*
X18748240Y-16154069D01*
X18681573Y-16230260D01*
X18710145Y-16230260D01*
X18729192Y-16239784D01*
X18738716Y-16249307D01*
X18748240Y-16268355D01*
X18748240Y-16315974D01*
X18738716Y-16335022D01*
X18729192Y-16344546D01*
X18710145Y-16354069D01*
X18653002Y-16354069D01*
X18633954Y-16344546D01*
X18624431Y-16335022D01*
X18929192Y-16154069D02*
X18833954Y-16154069D01*
X18824431Y-16249307D01*
X18833954Y-16239784D01*
X18853002Y-16230260D01*
X18900621Y-16230260D01*
X18919669Y-16239784D01*
X18929192Y-16249307D01*
X18938716Y-16268355D01*
X18938716Y-16315974D01*
X18929192Y-16335022D01*
X18919669Y-16344546D01*
X18900621Y-16354069D01*
X18853002Y-16354069D01*
X18833954Y-16344546D01*
X18824431Y-16335022D01*
X19110145Y-16220736D02*
X19110145Y-16354069D01*
X19062526Y-16144546D02*
X19014907Y-16287403D01*
X19138716Y-16287403D01*
X19205383Y-16154069D02*
X19205383Y-16192165D01*
X19281573Y-16154069D02*
X19281573Y-16192165D01*
X19576811Y-16430260D02*
X19567288Y-16420736D01*
X19548240Y-16392165D01*
X19538716Y-16373117D01*
X19529192Y-16344546D01*
X19519669Y-16296927D01*
X19519669Y-16258831D01*
X19529192Y-16211212D01*
X19538716Y-16182641D01*
X19548240Y-16163593D01*
X19567288Y-16135022D01*
X19576811Y-16125498D01*
X19643478Y-16173117D02*
X19653002Y-16163593D01*
X19672050Y-16154069D01*
X19719669Y-16154069D01*
X19738716Y-16163593D01*
X19748240Y-16173117D01*
X19757764Y-16192165D01*
X19757764Y-16211212D01*
X19748240Y-16239784D01*
X19633954Y-16354069D01*
X19757764Y-16354069D01*
X19995859Y-16354069D02*
X19995859Y-16154069D01*
X20081573Y-16354069D02*
X20081573Y-16249307D01*
X20072050Y-16230260D01*
X20053002Y-16220736D01*
X20024431Y-16220736D01*
X20005383Y-16230260D01*
X19995859Y-16239784D01*
X20205383Y-16354069D02*
X20186335Y-16344546D01*
X20176811Y-16335022D01*
X20167288Y-16315974D01*
X20167288Y-16258831D01*
X20176811Y-16239784D01*
X20186335Y-16230260D01*
X20205383Y-16220736D01*
X20233954Y-16220736D01*
X20253002Y-16230260D01*
X20262526Y-16239784D01*
X20272050Y-16258831D01*
X20272050Y-16315974D01*
X20262526Y-16335022D01*
X20253002Y-16344546D01*
X20233954Y-16354069D01*
X20205383Y-16354069D01*
X20386335Y-16354069D02*
X20367288Y-16344546D01*
X20357764Y-16325498D01*
X20357764Y-16154069D01*
X20538716Y-16344546D02*
X20519669Y-16354069D01*
X20481573Y-16354069D01*
X20462526Y-16344546D01*
X20453002Y-16325498D01*
X20453002Y-16249307D01*
X20462526Y-16230260D01*
X20481573Y-16220736D01*
X20519669Y-16220736D01*
X20538716Y-16230260D01*
X20548240Y-16249307D01*
X20548240Y-16268355D01*
X20453002Y-16287403D01*
X20624431Y-16344546D02*
X20643478Y-16354069D01*
X20681573Y-16354069D01*
X20700621Y-16344546D01*
X20710145Y-16325498D01*
X20710145Y-16315974D01*
X20700621Y-16296927D01*
X20681573Y-16287403D01*
X20653002Y-16287403D01*
X20633954Y-16277879D01*
X20624431Y-16258831D01*
X20624431Y-16249307D01*
X20633954Y-16230260D01*
X20653002Y-16220736D01*
X20681573Y-16220736D01*
X20700621Y-16230260D01*
X20776811Y-16430260D02*
X20786335Y-16420736D01*
X20805383Y-16392165D01*
X20814907Y-16373117D01*
X20824431Y-16344546D01*
X20833954Y-16296927D01*
X20833954Y-16258831D01*
X20824431Y-16211212D01*
X20814907Y-16182641D01*
X20805383Y-16163593D01*
X20786335Y-16135022D01*
X20776811Y-16125498D01*
D10*
X15954907Y-16477593D02*
X15954907Y-16577593D01*
X15904907Y-16527593D02*
X16004907Y-16527593D01*
D11*
X16367288Y-16618069D02*
X16253002Y-16618069D01*
X16310145Y-16618069D02*
X16310145Y-16418069D01*
X16291097Y-16446641D01*
X16272049Y-16465688D01*
X16253002Y-16475212D01*
X16453002Y-16599022D02*
X16462526Y-16608546D01*
X16453002Y-16618069D01*
X16443478Y-16608546D01*
X16453002Y-16599022D01*
X16453002Y-16618069D01*
X16586335Y-16418069D02*
X16605383Y-16418069D01*
X16624430Y-16427593D01*
X16633954Y-16437117D01*
X16643478Y-16456165D01*
X16653002Y-16494260D01*
X16653002Y-16541879D01*
X16643478Y-16579974D01*
X16633954Y-16599022D01*
X16624430Y-16608546D01*
X16605383Y-16618069D01*
X16586335Y-16618069D01*
X16567288Y-16608546D01*
X16557764Y-16599022D01*
X16548240Y-16579974D01*
X16538716Y-16541879D01*
X16538716Y-16494260D01*
X16548240Y-16456165D01*
X16557764Y-16437117D01*
X16567288Y-16427593D01*
X16586335Y-16418069D01*
X16776811Y-16418069D02*
X16795859Y-16418069D01*
X16814907Y-16427593D01*
X16824431Y-16437117D01*
X16833954Y-16456165D01*
X16843478Y-16494260D01*
X16843478Y-16541879D01*
X16833954Y-16579974D01*
X16824431Y-16599022D01*
X16814907Y-16608546D01*
X16795859Y-16618069D01*
X16776811Y-16618069D01*
X16757764Y-16608546D01*
X16748240Y-16599022D01*
X16738716Y-16579974D01*
X16729192Y-16541879D01*
X16729192Y-16494260D01*
X16738716Y-16456165D01*
X16748240Y-16437117D01*
X16757764Y-16427593D01*
X16776811Y-16418069D01*
X16967288Y-16418069D02*
X16986335Y-16418069D01*
X17005383Y-16427593D01*
X17014907Y-16437117D01*
X17024431Y-16456165D01*
X17033954Y-16494260D01*
X17033954Y-16541879D01*
X17024431Y-16579974D01*
X17014907Y-16599022D01*
X17005383Y-16608546D01*
X16986335Y-16618069D01*
X16967288Y-16618069D01*
X16948240Y-16608546D01*
X16938716Y-16599022D01*
X16929192Y-16579974D01*
X16919669Y-16541879D01*
X16919669Y-16494260D01*
X16929192Y-16456165D01*
X16938716Y-16437117D01*
X16948240Y-16427593D01*
X16967288Y-16418069D01*
X17119669Y-16618069D02*
X17119669Y-16484736D01*
X17119669Y-16503784D02*
X17129192Y-16494260D01*
X17148240Y-16484736D01*
X17176811Y-16484736D01*
X17195859Y-16494260D01*
X17205383Y-16513307D01*
X17205383Y-16618069D01*
X17205383Y-16513307D02*
X17214907Y-16494260D01*
X17233954Y-16484736D01*
X17262526Y-16484736D01*
X17281573Y-16494260D01*
X17291097Y-16513307D01*
X17291097Y-16618069D01*
X17386335Y-16618069D02*
X17386335Y-16484736D01*
X17386335Y-16503784D02*
X17395859Y-16494260D01*
X17414907Y-16484736D01*
X17443478Y-16484736D01*
X17462526Y-16494260D01*
X17472050Y-16513307D01*
X17472050Y-16618069D01*
X17472050Y-16513307D02*
X17481573Y-16494260D01*
X17500621Y-16484736D01*
X17529192Y-16484736D01*
X17548240Y-16494260D01*
X17557764Y-16513307D01*
X17557764Y-16618069D01*
X17948240Y-16408546D02*
X17776811Y-16665688D01*
X18205383Y-16418069D02*
X18224431Y-16418069D01*
X18243478Y-16427593D01*
X18253002Y-16437117D01*
X18262526Y-16456165D01*
X18272050Y-16494260D01*
X18272050Y-16541879D01*
X18262526Y-16579974D01*
X18253002Y-16599022D01*
X18243478Y-16608546D01*
X18224431Y-16618069D01*
X18205383Y-16618069D01*
X18186335Y-16608546D01*
X18176811Y-16599022D01*
X18167288Y-16579974D01*
X18157764Y-16541879D01*
X18157764Y-16494260D01*
X18167288Y-16456165D01*
X18176811Y-16437117D01*
X18186335Y-16427593D01*
X18205383Y-16418069D01*
X18357764Y-16599022D02*
X18367288Y-16608546D01*
X18357764Y-16618069D01*
X18348240Y-16608546D01*
X18357764Y-16599022D01*
X18357764Y-16618069D01*
X18491097Y-16418069D02*
X18510145Y-16418069D01*
X18529192Y-16427593D01*
X18538716Y-16437117D01*
X18548240Y-16456165D01*
X18557764Y-16494260D01*
X18557764Y-16541879D01*
X18548240Y-16579974D01*
X18538716Y-16599022D01*
X18529192Y-16608546D01*
X18510145Y-16618069D01*
X18491097Y-16618069D01*
X18472050Y-16608546D01*
X18462526Y-16599022D01*
X18453002Y-16579974D01*
X18443478Y-16541879D01*
X18443478Y-16494260D01*
X18453002Y-16456165D01*
X18462526Y-16437117D01*
X18472050Y-16427593D01*
X18491097Y-16418069D01*
X18624431Y-16418069D02*
X18748240Y-16418069D01*
X18681573Y-16494260D01*
X18710145Y-16494260D01*
X18729192Y-16503784D01*
X18738716Y-16513307D01*
X18748240Y-16532355D01*
X18748240Y-16579974D01*
X18738716Y-16599022D01*
X18729192Y-16608546D01*
X18710145Y-16618069D01*
X18653002Y-16618069D01*
X18633954Y-16608546D01*
X18624431Y-16599022D01*
X18843478Y-16618069D02*
X18881573Y-16618069D01*
X18900621Y-16608546D01*
X18910145Y-16599022D01*
X18929192Y-16570450D01*
X18938716Y-16532355D01*
X18938716Y-16456165D01*
X18929192Y-16437117D01*
X18919669Y-16427593D01*
X18900621Y-16418069D01*
X18862526Y-16418069D01*
X18843478Y-16427593D01*
X18833954Y-16437117D01*
X18824431Y-16456165D01*
X18824431Y-16503784D01*
X18833954Y-16522831D01*
X18843478Y-16532355D01*
X18862526Y-16541879D01*
X18900621Y-16541879D01*
X18919669Y-16532355D01*
X18929192Y-16522831D01*
X18938716Y-16503784D01*
X19110145Y-16484736D02*
X19110145Y-16618069D01*
X19062526Y-16408546D02*
X19014907Y-16551403D01*
X19138716Y-16551403D01*
X19205383Y-16418069D02*
X19205383Y-16456165D01*
X19281573Y-16418069D02*
X19281573Y-16456165D01*
X19576811Y-16694260D02*
X19567288Y-16684736D01*
X19548240Y-16656165D01*
X19538716Y-16637117D01*
X19529192Y-16608546D01*
X19519669Y-16560927D01*
X19519669Y-16522831D01*
X19529192Y-16475212D01*
X19538716Y-16446641D01*
X19548240Y-16427593D01*
X19567288Y-16399022D01*
X19576811Y-16389498D01*
X19748240Y-16418069D02*
X19653002Y-16418069D01*
X19643478Y-16513307D01*
X19653002Y-16503784D01*
X19672050Y-16494260D01*
X19719669Y-16494260D01*
X19738716Y-16503784D01*
X19748240Y-16513307D01*
X19757764Y-16532355D01*
X19757764Y-16579974D01*
X19748240Y-16599022D01*
X19738716Y-16608546D01*
X19719669Y-16618069D01*
X19672050Y-16618069D01*
X19653002Y-16608546D01*
X19643478Y-16599022D01*
X19853002Y-16618069D02*
X19891097Y-16618069D01*
X19910145Y-16608546D01*
X19919669Y-16599022D01*
X19938716Y-16570450D01*
X19948240Y-16532355D01*
X19948240Y-16456165D01*
X19938716Y-16437117D01*
X19929192Y-16427593D01*
X19910145Y-16418069D01*
X19872050Y-16418069D01*
X19853002Y-16427593D01*
X19843478Y-16437117D01*
X19833954Y-16456165D01*
X19833954Y-16503784D01*
X19843478Y-16522831D01*
X19853002Y-16532355D01*
X19872050Y-16541879D01*
X19910145Y-16541879D01*
X19929192Y-16532355D01*
X19938716Y-16522831D01*
X19948240Y-16503784D01*
X20186335Y-16618069D02*
X20186335Y-16418069D01*
X20272050Y-16618069D02*
X20272050Y-16513307D01*
X20262526Y-16494260D01*
X20243478Y-16484736D01*
X20214907Y-16484736D01*
X20195859Y-16494260D01*
X20186335Y-16503784D01*
X20395859Y-16618069D02*
X20376811Y-16608546D01*
X20367288Y-16599022D01*
X20357764Y-16579974D01*
X20357764Y-16522831D01*
X20367288Y-16503784D01*
X20376811Y-16494260D01*
X20395859Y-16484736D01*
X20424431Y-16484736D01*
X20443478Y-16494260D01*
X20453002Y-16503784D01*
X20462526Y-16522831D01*
X20462526Y-16579974D01*
X20453002Y-16599022D01*
X20443478Y-16608546D01*
X20424431Y-16618069D01*
X20395859Y-16618069D01*
X20576811Y-16618069D02*
X20557764Y-16608546D01*
X20548240Y-16589498D01*
X20548240Y-16418069D01*
X20729192Y-16608546D02*
X20710145Y-16618069D01*
X20672050Y-16618069D01*
X20653002Y-16608546D01*
X20643478Y-16589498D01*
X20643478Y-16513307D01*
X20653002Y-16494260D01*
X20672050Y-16484736D01*
X20710145Y-16484736D01*
X20729192Y-16494260D01*
X20738716Y-16513307D01*
X20738716Y-16532355D01*
X20643478Y-16551403D01*
X20814907Y-16608546D02*
X20833954Y-16618069D01*
X20872050Y-16618069D01*
X20891097Y-16608546D01*
X20900621Y-16589498D01*
X20900621Y-16579974D01*
X20891097Y-16560927D01*
X20872050Y-16551403D01*
X20843478Y-16551403D01*
X20824431Y-16541879D01*
X20814907Y-16522831D01*
X20814907Y-16513307D01*
X20824431Y-16494260D01*
X20843478Y-16484736D01*
X20872050Y-16484736D01*
X20891097Y-16494260D01*
X20967288Y-16694260D02*
X20976811Y-16684736D01*
X20995859Y-16656165D01*
X21005383Y-16637117D01*
X21014907Y-16608546D01*
X21024431Y-16560927D01*
X21024431Y-16522831D01*
X21014907Y-16475212D01*
X21005383Y-16446641D01*
X20995859Y-16427593D01*
X20976811Y-16399022D01*
X20967288Y-16389498D01*
D14*
X15987041Y-16834727D02*
X15987041Y-16748459D01*
X15900773Y-16748459D01*
X15900773Y-16834727D01*
X15987041Y-16834727D01*
D11*
X16367288Y-16882069D02*
X16253002Y-16882069D01*
X16310145Y-16882069D02*
X16310145Y-16682069D01*
X16291097Y-16710641D01*
X16272049Y-16729688D01*
X16253002Y-16739212D01*
X16453002Y-16863022D02*
X16462526Y-16872546D01*
X16453002Y-16882069D01*
X16443478Y-16872546D01*
X16453002Y-16863022D01*
X16453002Y-16882069D01*
X16538716Y-16701117D02*
X16548240Y-16691593D01*
X16567288Y-16682069D01*
X16614907Y-16682069D01*
X16633954Y-16691593D01*
X16643478Y-16701117D01*
X16653002Y-16720165D01*
X16653002Y-16739212D01*
X16643478Y-16767784D01*
X16529192Y-16882069D01*
X16653002Y-16882069D01*
X16729192Y-16701117D02*
X16738716Y-16691593D01*
X16757764Y-16682069D01*
X16805383Y-16682069D01*
X16824431Y-16691593D01*
X16833954Y-16701117D01*
X16843478Y-16720165D01*
X16843478Y-16739212D01*
X16833954Y-16767784D01*
X16719669Y-16882069D01*
X16843478Y-16882069D01*
X16967288Y-16682069D02*
X16986335Y-16682069D01*
X17005383Y-16691593D01*
X17014907Y-16701117D01*
X17024431Y-16720165D01*
X17033954Y-16758260D01*
X17033954Y-16805879D01*
X17024431Y-16843974D01*
X17014907Y-16863022D01*
X17005383Y-16872546D01*
X16986335Y-16882069D01*
X16967288Y-16882069D01*
X16948240Y-16872546D01*
X16938716Y-16863022D01*
X16929192Y-16843974D01*
X16919669Y-16805879D01*
X16919669Y-16758260D01*
X16929192Y-16720165D01*
X16938716Y-16701117D01*
X16948240Y-16691593D01*
X16967288Y-16682069D01*
X17119669Y-16882069D02*
X17119669Y-16748736D01*
X17119669Y-16767784D02*
X17129192Y-16758260D01*
X17148240Y-16748736D01*
X17176811Y-16748736D01*
X17195859Y-16758260D01*
X17205383Y-16777308D01*
X17205383Y-16882069D01*
X17205383Y-16777308D02*
X17214907Y-16758260D01*
X17233954Y-16748736D01*
X17262526Y-16748736D01*
X17281573Y-16758260D01*
X17291097Y-16777308D01*
X17291097Y-16882069D01*
X17386335Y-16882069D02*
X17386335Y-16748736D01*
X17386335Y-16767784D02*
X17395859Y-16758260D01*
X17414907Y-16748736D01*
X17443478Y-16748736D01*
X17462526Y-16758260D01*
X17472050Y-16777308D01*
X17472050Y-16882069D01*
X17472050Y-16777308D02*
X17481573Y-16758260D01*
X17500621Y-16748736D01*
X17529192Y-16748736D01*
X17548240Y-16758260D01*
X17557764Y-16777308D01*
X17557764Y-16882069D01*
X17948240Y-16672546D02*
X17776811Y-16929689D01*
X18205383Y-16682069D02*
X18224431Y-16682069D01*
X18243478Y-16691593D01*
X18253002Y-16701117D01*
X18262526Y-16720165D01*
X18272050Y-16758260D01*
X18272050Y-16805879D01*
X18262526Y-16843974D01*
X18253002Y-16863022D01*
X18243478Y-16872546D01*
X18224431Y-16882069D01*
X18205383Y-16882069D01*
X18186335Y-16872546D01*
X18176811Y-16863022D01*
X18167288Y-16843974D01*
X18157764Y-16805879D01*
X18157764Y-16758260D01*
X18167288Y-16720165D01*
X18176811Y-16701117D01*
X18186335Y-16691593D01*
X18205383Y-16682069D01*
X18357764Y-16863022D02*
X18367288Y-16872546D01*
X18357764Y-16882069D01*
X18348240Y-16872546D01*
X18357764Y-16863022D01*
X18357764Y-16882069D01*
X18491097Y-16682069D02*
X18510145Y-16682069D01*
X18529192Y-16691593D01*
X18538716Y-16701117D01*
X18548240Y-16720165D01*
X18557764Y-16758260D01*
X18557764Y-16805879D01*
X18548240Y-16843974D01*
X18538716Y-16863022D01*
X18529192Y-16872546D01*
X18510145Y-16882069D01*
X18491097Y-16882069D01*
X18472050Y-16872546D01*
X18462526Y-16863022D01*
X18453002Y-16843974D01*
X18443478Y-16805879D01*
X18443478Y-16758260D01*
X18453002Y-16720165D01*
X18462526Y-16701117D01*
X18472050Y-16691593D01*
X18491097Y-16682069D01*
X18729192Y-16748736D02*
X18729192Y-16882069D01*
X18681573Y-16672546D02*
X18633954Y-16815403D01*
X18757764Y-16815403D01*
X18862526Y-16767784D02*
X18843478Y-16758260D01*
X18833954Y-16748736D01*
X18824431Y-16729688D01*
X18824431Y-16720165D01*
X18833954Y-16701117D01*
X18843478Y-16691593D01*
X18862526Y-16682069D01*
X18900621Y-16682069D01*
X18919669Y-16691593D01*
X18929192Y-16701117D01*
X18938716Y-16720165D01*
X18938716Y-16729688D01*
X18929192Y-16748736D01*
X18919669Y-16758260D01*
X18900621Y-16767784D01*
X18862526Y-16767784D01*
X18843478Y-16777308D01*
X18833954Y-16786831D01*
X18824431Y-16805879D01*
X18824431Y-16843974D01*
X18833954Y-16863022D01*
X18843478Y-16872546D01*
X18862526Y-16882069D01*
X18900621Y-16882069D01*
X18919669Y-16872546D01*
X18929192Y-16863022D01*
X18938716Y-16843974D01*
X18938716Y-16805879D01*
X18929192Y-16786831D01*
X18919669Y-16777308D01*
X18900621Y-16767784D01*
X19062526Y-16682069D02*
X19081573Y-16682069D01*
X19100621Y-16691593D01*
X19110145Y-16701117D01*
X19119669Y-16720165D01*
X19129192Y-16758260D01*
X19129192Y-16805879D01*
X19119669Y-16843974D01*
X19110145Y-16863022D01*
X19100621Y-16872546D01*
X19081573Y-16882069D01*
X19062526Y-16882069D01*
X19043478Y-16872546D01*
X19033954Y-16863022D01*
X19024431Y-16843974D01*
X19014907Y-16805879D01*
X19014907Y-16758260D01*
X19024431Y-16720165D01*
X19033954Y-16701117D01*
X19043478Y-16691593D01*
X19062526Y-16682069D01*
X19205383Y-16682069D02*
X19205383Y-16720165D01*
X19281573Y-16682069D02*
X19281573Y-16720165D01*
X19576811Y-16958260D02*
X19567288Y-16948736D01*
X19548240Y-16920165D01*
X19538716Y-16901117D01*
X19529192Y-16872546D01*
X19519669Y-16824927D01*
X19519669Y-16786831D01*
X19529192Y-16739212D01*
X19538716Y-16710641D01*
X19548240Y-16691593D01*
X19567288Y-16663022D01*
X19576811Y-16653498D01*
X19633954Y-16682069D02*
X19757764Y-16682069D01*
X19691097Y-16758260D01*
X19719669Y-16758260D01*
X19738716Y-16767784D01*
X19748240Y-16777308D01*
X19757764Y-16796355D01*
X19757764Y-16843974D01*
X19748240Y-16863022D01*
X19738716Y-16872546D01*
X19719669Y-16882069D01*
X19662526Y-16882069D01*
X19643478Y-16872546D01*
X19633954Y-16863022D01*
X19995859Y-16882069D02*
X19995859Y-16682069D01*
X20081573Y-16882069D02*
X20081573Y-16777308D01*
X20072050Y-16758260D01*
X20053002Y-16748736D01*
X20024431Y-16748736D01*
X20005383Y-16758260D01*
X19995859Y-16767784D01*
X20205383Y-16882069D02*
X20186335Y-16872546D01*
X20176811Y-16863022D01*
X20167288Y-16843974D01*
X20167288Y-16786831D01*
X20176811Y-16767784D01*
X20186335Y-16758260D01*
X20205383Y-16748736D01*
X20233954Y-16748736D01*
X20253002Y-16758260D01*
X20262526Y-16767784D01*
X20272050Y-16786831D01*
X20272050Y-16843974D01*
X20262526Y-16863022D01*
X20253002Y-16872546D01*
X20233954Y-16882069D01*
X20205383Y-16882069D01*
X20386335Y-16882069D02*
X20367288Y-16872546D01*
X20357764Y-16853498D01*
X20357764Y-16682069D01*
X20538716Y-16872546D02*
X20519669Y-16882069D01*
X20481573Y-16882069D01*
X20462526Y-16872546D01*
X20453002Y-16853498D01*
X20453002Y-16777308D01*
X20462526Y-16758260D01*
X20481573Y-16748736D01*
X20519669Y-16748736D01*
X20538716Y-16758260D01*
X20548240Y-16777308D01*
X20548240Y-16796355D01*
X20453002Y-16815403D01*
X20624431Y-16872546D02*
X20643478Y-16882069D01*
X20681573Y-16882069D01*
X20700621Y-16872546D01*
X20710145Y-16853498D01*
X20710145Y-16843974D01*
X20700621Y-16824927D01*
X20681573Y-16815403D01*
X20653002Y-16815403D01*
X20633954Y-16805879D01*
X20624431Y-16786831D01*
X20624431Y-16777308D01*
X20633954Y-16758260D01*
X20653002Y-16748736D01*
X20681573Y-16748736D01*
X20700621Y-16758260D01*
X20776811Y-16958260D02*
X20786335Y-16948736D01*
X20805383Y-16920165D01*
X20814907Y-16901117D01*
X20824431Y-16872546D01*
X20833954Y-16824927D01*
X20833954Y-16786831D01*
X20824431Y-16739212D01*
X20814907Y-16710641D01*
X20805383Y-16691593D01*
X20786335Y-16663022D01*
X20776811Y-16653498D01*
D15*
X15933907Y-17126593D02*
X16004907Y-17055593D01*
X15933907Y-16984593D01*
X15862907Y-17055593D01*
X15933907Y-17126593D01*
D11*
X16367288Y-17146069D02*
X16253002Y-17146069D01*
X16310145Y-17146069D02*
X16310145Y-16946069D01*
X16291097Y-16974641D01*
X16272049Y-16993689D01*
X16253002Y-17003212D01*
X16453002Y-17127022D02*
X16462526Y-17136546D01*
X16453002Y-17146069D01*
X16443478Y-17136546D01*
X16453002Y-17127022D01*
X16453002Y-17146069D01*
X16633954Y-17012736D02*
X16633954Y-17146069D01*
X16586335Y-16936546D02*
X16538716Y-17079403D01*
X16662526Y-17079403D01*
X16729192Y-16965117D02*
X16738716Y-16955593D01*
X16757764Y-16946069D01*
X16805383Y-16946069D01*
X16824431Y-16955593D01*
X16833954Y-16965117D01*
X16843478Y-16984165D01*
X16843478Y-17003212D01*
X16833954Y-17031784D01*
X16719669Y-17146069D01*
X16843478Y-17146069D01*
X16967288Y-16946069D02*
X16986335Y-16946069D01*
X17005383Y-16955593D01*
X17014907Y-16965117D01*
X17024431Y-16984165D01*
X17033954Y-17022260D01*
X17033954Y-17069879D01*
X17024431Y-17107974D01*
X17014907Y-17127022D01*
X17005383Y-17136546D01*
X16986335Y-17146069D01*
X16967288Y-17146069D01*
X16948240Y-17136546D01*
X16938716Y-17127022D01*
X16929192Y-17107974D01*
X16919669Y-17069879D01*
X16919669Y-17022260D01*
X16929192Y-16984165D01*
X16938716Y-16965117D01*
X16948240Y-16955593D01*
X16967288Y-16946069D01*
X17119669Y-17146069D02*
X17119669Y-17012736D01*
X17119669Y-17031784D02*
X17129192Y-17022260D01*
X17148240Y-17012736D01*
X17176811Y-17012736D01*
X17195859Y-17022260D01*
X17205383Y-17041308D01*
X17205383Y-17146069D01*
X17205383Y-17041308D02*
X17214907Y-17022260D01*
X17233954Y-17012736D01*
X17262526Y-17012736D01*
X17281573Y-17022260D01*
X17291097Y-17041308D01*
X17291097Y-17146069D01*
X17386335Y-17146069D02*
X17386335Y-17012736D01*
X17386335Y-17031784D02*
X17395859Y-17022260D01*
X17414907Y-17012736D01*
X17443478Y-17012736D01*
X17462526Y-17022260D01*
X17472050Y-17041308D01*
X17472050Y-17146069D01*
X17472050Y-17041308D02*
X17481573Y-17022260D01*
X17500621Y-17012736D01*
X17529192Y-17012736D01*
X17548240Y-17022260D01*
X17557764Y-17041308D01*
X17557764Y-17146069D01*
X17948240Y-16936546D02*
X17776811Y-17193689D01*
X18205383Y-16946069D02*
X18224431Y-16946069D01*
X18243478Y-16955593D01*
X18253002Y-16965117D01*
X18262526Y-16984165D01*
X18272050Y-17022260D01*
X18272050Y-17069879D01*
X18262526Y-17107974D01*
X18253002Y-17127022D01*
X18243478Y-17136546D01*
X18224431Y-17146069D01*
X18205383Y-17146069D01*
X18186335Y-17136546D01*
X18176811Y-17127022D01*
X18167288Y-17107974D01*
X18157764Y-17069879D01*
X18157764Y-17022260D01*
X18167288Y-16984165D01*
X18176811Y-16965117D01*
X18186335Y-16955593D01*
X18205383Y-16946069D01*
X18357764Y-17127022D02*
X18367288Y-17136546D01*
X18357764Y-17146069D01*
X18348240Y-17136546D01*
X18357764Y-17127022D01*
X18357764Y-17146069D01*
X18491097Y-16946069D02*
X18510145Y-16946069D01*
X18529192Y-16955593D01*
X18538716Y-16965117D01*
X18548240Y-16984165D01*
X18557764Y-17022260D01*
X18557764Y-17069879D01*
X18548240Y-17107974D01*
X18538716Y-17127022D01*
X18529192Y-17136546D01*
X18510145Y-17146069D01*
X18491097Y-17146069D01*
X18472050Y-17136546D01*
X18462526Y-17127022D01*
X18453002Y-17107974D01*
X18443478Y-17069879D01*
X18443478Y-17022260D01*
X18453002Y-16984165D01*
X18462526Y-16965117D01*
X18472050Y-16955593D01*
X18491097Y-16946069D01*
X18738716Y-16946069D02*
X18643478Y-16946069D01*
X18633954Y-17041308D01*
X18643478Y-17031784D01*
X18662526Y-17022260D01*
X18710145Y-17022260D01*
X18729192Y-17031784D01*
X18738716Y-17041308D01*
X18748240Y-17060355D01*
X18748240Y-17107974D01*
X18738716Y-17127022D01*
X18729192Y-17136546D01*
X18710145Y-17146069D01*
X18662526Y-17146069D01*
X18643478Y-17136546D01*
X18633954Y-17127022D01*
X18929192Y-16946069D02*
X18833954Y-16946069D01*
X18824431Y-17041308D01*
X18833954Y-17031784D01*
X18853002Y-17022260D01*
X18900621Y-17022260D01*
X18919669Y-17031784D01*
X18929192Y-17041308D01*
X18938716Y-17060355D01*
X18938716Y-17107974D01*
X18929192Y-17127022D01*
X18919669Y-17136546D01*
X18900621Y-17146069D01*
X18853002Y-17146069D01*
X18833954Y-17136546D01*
X18824431Y-17127022D01*
X19033954Y-17146069D02*
X19072050Y-17146069D01*
X19091097Y-17136546D01*
X19100621Y-17127022D01*
X19119669Y-17098450D01*
X19129192Y-17060355D01*
X19129192Y-16984165D01*
X19119669Y-16965117D01*
X19110145Y-16955593D01*
X19091097Y-16946069D01*
X19053002Y-16946069D01*
X19033954Y-16955593D01*
X19024431Y-16965117D01*
X19014907Y-16984165D01*
X19014907Y-17031784D01*
X19024431Y-17050831D01*
X19033954Y-17060355D01*
X19053002Y-17069879D01*
X19091097Y-17069879D01*
X19110145Y-17060355D01*
X19119669Y-17050831D01*
X19129192Y-17031784D01*
X19205383Y-16946069D02*
X19205383Y-16984165D01*
X19281573Y-16946069D02*
X19281573Y-16984165D01*
X19576811Y-17222260D02*
X19567288Y-17212736D01*
X19548240Y-17184165D01*
X19538716Y-17165117D01*
X19529192Y-17136546D01*
X19519669Y-17088927D01*
X19519669Y-17050831D01*
X19529192Y-17003212D01*
X19538716Y-16974641D01*
X19548240Y-16955593D01*
X19567288Y-16927022D01*
X19576811Y-16917498D01*
X19633954Y-16946069D02*
X19757764Y-16946069D01*
X19691097Y-17022260D01*
X19719669Y-17022260D01*
X19738716Y-17031784D01*
X19748240Y-17041308D01*
X19757764Y-17060355D01*
X19757764Y-17107974D01*
X19748240Y-17127022D01*
X19738716Y-17136546D01*
X19719669Y-17146069D01*
X19662526Y-17146069D01*
X19643478Y-17136546D01*
X19633954Y-17127022D01*
X19995859Y-17146069D02*
X19995859Y-16946069D01*
X20081573Y-17146069D02*
X20081573Y-17041308D01*
X20072050Y-17022260D01*
X20053002Y-17012736D01*
X20024431Y-17012736D01*
X20005383Y-17022260D01*
X19995859Y-17031784D01*
X20205383Y-17146069D02*
X20186335Y-17136546D01*
X20176811Y-17127022D01*
X20167288Y-17107974D01*
X20167288Y-17050831D01*
X20176811Y-17031784D01*
X20186335Y-17022260D01*
X20205383Y-17012736D01*
X20233954Y-17012736D01*
X20253002Y-17022260D01*
X20262526Y-17031784D01*
X20272050Y-17050831D01*
X20272050Y-17107974D01*
X20262526Y-17127022D01*
X20253002Y-17136546D01*
X20233954Y-17146069D01*
X20205383Y-17146069D01*
X20386335Y-17146069D02*
X20367288Y-17136546D01*
X20357764Y-17117498D01*
X20357764Y-16946069D01*
X20538716Y-17136546D02*
X20519669Y-17146069D01*
X20481573Y-17146069D01*
X20462526Y-17136546D01*
X20453002Y-17117498D01*
X20453002Y-17041308D01*
X20462526Y-17022260D01*
X20481573Y-17012736D01*
X20519669Y-17012736D01*
X20538716Y-17022260D01*
X20548240Y-17041308D01*
X20548240Y-17060355D01*
X20453002Y-17079403D01*
X20624431Y-17136546D02*
X20643478Y-17146069D01*
X20681573Y-17146069D01*
X20700621Y-17136546D01*
X20710145Y-17117498D01*
X20710145Y-17107974D01*
X20700621Y-17088927D01*
X20681573Y-17079403D01*
X20653002Y-17079403D01*
X20633954Y-17069879D01*
X20624431Y-17050831D01*
X20624431Y-17041308D01*
X20633954Y-17022260D01*
X20653002Y-17012736D01*
X20681573Y-17012736D01*
X20700621Y-17022260D01*
X20776811Y-17222260D02*
X20786335Y-17212736D01*
X20805383Y-17184165D01*
X20814907Y-17165117D01*
X20824431Y-17136546D01*
X20833954Y-17088927D01*
X20833954Y-17050831D01*
X20824431Y-17003212D01*
X20814907Y-16974641D01*
X20805383Y-16955593D01*
X20786335Y-16927022D01*
X20776811Y-16917498D01*
D16*
X15861907Y-17248093D02*
X16004907Y-17391093D01*
X16004907Y-17248093D02*
X15861907Y-17391093D01*
X16004907Y-17319593D02*
G75*
G03*
X16004907Y-17319593I-71500J0D01*
G01*
D11*
X16367288Y-17410069D02*
X16253002Y-17410069D01*
X16310145Y-17410069D02*
X16310145Y-17210069D01*
X16291097Y-17238641D01*
X16272049Y-17257689D01*
X16253002Y-17267212D01*
X16453002Y-17391022D02*
X16462526Y-17400546D01*
X16453002Y-17410069D01*
X16443478Y-17400546D01*
X16453002Y-17391022D01*
X16453002Y-17410069D01*
X16633954Y-17276736D02*
X16633954Y-17410069D01*
X16586335Y-17200546D02*
X16538716Y-17343403D01*
X16662526Y-17343403D01*
X16719669Y-17210069D02*
X16843478Y-17210069D01*
X16776811Y-17286260D01*
X16805383Y-17286260D01*
X16824431Y-17295784D01*
X16833954Y-17305308D01*
X16843478Y-17324355D01*
X16843478Y-17371974D01*
X16833954Y-17391022D01*
X16824431Y-17400546D01*
X16805383Y-17410069D01*
X16748240Y-17410069D01*
X16729192Y-17400546D01*
X16719669Y-17391022D01*
X16967288Y-17210069D02*
X16986335Y-17210069D01*
X17005383Y-17219593D01*
X17014907Y-17229117D01*
X17024431Y-17248165D01*
X17033954Y-17286260D01*
X17033954Y-17333879D01*
X17024431Y-17371974D01*
X17014907Y-17391022D01*
X17005383Y-17400546D01*
X16986335Y-17410069D01*
X16967288Y-17410069D01*
X16948240Y-17400546D01*
X16938716Y-17391022D01*
X16929192Y-17371974D01*
X16919669Y-17333879D01*
X16919669Y-17286260D01*
X16929192Y-17248165D01*
X16938716Y-17229117D01*
X16948240Y-17219593D01*
X16967288Y-17210069D01*
X17119669Y-17410069D02*
X17119669Y-17276736D01*
X17119669Y-17295784D02*
X17129192Y-17286260D01*
X17148240Y-17276736D01*
X17176811Y-17276736D01*
X17195859Y-17286260D01*
X17205383Y-17305308D01*
X17205383Y-17410069D01*
X17205383Y-17305308D02*
X17214907Y-17286260D01*
X17233954Y-17276736D01*
X17262526Y-17276736D01*
X17281573Y-17286260D01*
X17291097Y-17305308D01*
X17291097Y-17410069D01*
X17386335Y-17410069D02*
X17386335Y-17276736D01*
X17386335Y-17295784D02*
X17395859Y-17286260D01*
X17414907Y-17276736D01*
X17443478Y-17276736D01*
X17462526Y-17286260D01*
X17472050Y-17305308D01*
X17472050Y-17410069D01*
X17472050Y-17305308D02*
X17481573Y-17286260D01*
X17500621Y-17276736D01*
X17529192Y-17276736D01*
X17548240Y-17286260D01*
X17557764Y-17305308D01*
X17557764Y-17410069D01*
X17948240Y-17200546D02*
X17776811Y-17457689D01*
X18205383Y-17210069D02*
X18224431Y-17210069D01*
X18243478Y-17219593D01*
X18253002Y-17229117D01*
X18262526Y-17248165D01*
X18272050Y-17286260D01*
X18272050Y-17333879D01*
X18262526Y-17371974D01*
X18253002Y-17391022D01*
X18243478Y-17400546D01*
X18224431Y-17410069D01*
X18205383Y-17410069D01*
X18186335Y-17400546D01*
X18176811Y-17391022D01*
X18167288Y-17371974D01*
X18157764Y-17333879D01*
X18157764Y-17286260D01*
X18167288Y-17248165D01*
X18176811Y-17229117D01*
X18186335Y-17219593D01*
X18205383Y-17210069D01*
X18357764Y-17391022D02*
X18367288Y-17400546D01*
X18357764Y-17410069D01*
X18348240Y-17400546D01*
X18357764Y-17391022D01*
X18357764Y-17410069D01*
X18491097Y-17210069D02*
X18510145Y-17210069D01*
X18529192Y-17219593D01*
X18538716Y-17229117D01*
X18548240Y-17248165D01*
X18557764Y-17286260D01*
X18557764Y-17333879D01*
X18548240Y-17371974D01*
X18538716Y-17391022D01*
X18529192Y-17400546D01*
X18510145Y-17410069D01*
X18491097Y-17410069D01*
X18472050Y-17400546D01*
X18462526Y-17391022D01*
X18453002Y-17371974D01*
X18443478Y-17333879D01*
X18443478Y-17286260D01*
X18453002Y-17248165D01*
X18462526Y-17229117D01*
X18472050Y-17219593D01*
X18491097Y-17210069D01*
X18738716Y-17210069D02*
X18643478Y-17210069D01*
X18633954Y-17305308D01*
X18643478Y-17295784D01*
X18662526Y-17286260D01*
X18710145Y-17286260D01*
X18729192Y-17295784D01*
X18738716Y-17305308D01*
X18748240Y-17324355D01*
X18748240Y-17371974D01*
X18738716Y-17391022D01*
X18729192Y-17400546D01*
X18710145Y-17410069D01*
X18662526Y-17410069D01*
X18643478Y-17400546D01*
X18633954Y-17391022D01*
X18919669Y-17210069D02*
X18881573Y-17210069D01*
X18862526Y-17219593D01*
X18853002Y-17229117D01*
X18833954Y-17257689D01*
X18824431Y-17295784D01*
X18824431Y-17371974D01*
X18833954Y-17391022D01*
X18843478Y-17400546D01*
X18862526Y-17410069D01*
X18900621Y-17410069D01*
X18919669Y-17400546D01*
X18929192Y-17391022D01*
X18938716Y-17371974D01*
X18938716Y-17324355D01*
X18929192Y-17305308D01*
X18919669Y-17295784D01*
X18900621Y-17286260D01*
X18862526Y-17286260D01*
X18843478Y-17295784D01*
X18833954Y-17305308D01*
X18824431Y-17324355D01*
X19005383Y-17210069D02*
X19129192Y-17210069D01*
X19062526Y-17286260D01*
X19091097Y-17286260D01*
X19110145Y-17295784D01*
X19119669Y-17305308D01*
X19129192Y-17324355D01*
X19129192Y-17371974D01*
X19119669Y-17391022D01*
X19110145Y-17400546D01*
X19091097Y-17410069D01*
X19033954Y-17410069D01*
X19014907Y-17400546D01*
X19005383Y-17391022D01*
X19205383Y-17210069D02*
X19205383Y-17248165D01*
X19281573Y-17210069D02*
X19281573Y-17248165D01*
X19576811Y-17486260D02*
X19567288Y-17476736D01*
X19548240Y-17448165D01*
X19538716Y-17429117D01*
X19529192Y-17400546D01*
X19519669Y-17352927D01*
X19519669Y-17314831D01*
X19529192Y-17267212D01*
X19538716Y-17238641D01*
X19548240Y-17219593D01*
X19567288Y-17191022D01*
X19576811Y-17181498D01*
X19633954Y-17210069D02*
X19757764Y-17210069D01*
X19691097Y-17286260D01*
X19719669Y-17286260D01*
X19738716Y-17295784D01*
X19748240Y-17305308D01*
X19757764Y-17324355D01*
X19757764Y-17371974D01*
X19748240Y-17391022D01*
X19738716Y-17400546D01*
X19719669Y-17410069D01*
X19662526Y-17410069D01*
X19643478Y-17400546D01*
X19633954Y-17391022D01*
X19995859Y-17410069D02*
X19995859Y-17210069D01*
X20081573Y-17410069D02*
X20081573Y-17305308D01*
X20072050Y-17286260D01*
X20053002Y-17276736D01*
X20024431Y-17276736D01*
X20005383Y-17286260D01*
X19995859Y-17295784D01*
X20205383Y-17410069D02*
X20186335Y-17400546D01*
X20176811Y-17391022D01*
X20167288Y-17371974D01*
X20167288Y-17314831D01*
X20176811Y-17295784D01*
X20186335Y-17286260D01*
X20205383Y-17276736D01*
X20233954Y-17276736D01*
X20253002Y-17286260D01*
X20262526Y-17295784D01*
X20272050Y-17314831D01*
X20272050Y-17371974D01*
X20262526Y-17391022D01*
X20253002Y-17400546D01*
X20233954Y-17410069D01*
X20205383Y-17410069D01*
X20386335Y-17410069D02*
X20367288Y-17400546D01*
X20357764Y-17381498D01*
X20357764Y-17210069D01*
X20538716Y-17400546D02*
X20519669Y-17410069D01*
X20481573Y-17410069D01*
X20462526Y-17400546D01*
X20453002Y-17381498D01*
X20453002Y-17305308D01*
X20462526Y-17286260D01*
X20481573Y-17276736D01*
X20519669Y-17276736D01*
X20538716Y-17286260D01*
X20548240Y-17305308D01*
X20548240Y-17324355D01*
X20453002Y-17343403D01*
X20624431Y-17400546D02*
X20643478Y-17410069D01*
X20681573Y-17410069D01*
X20700621Y-17400546D01*
X20710145Y-17381498D01*
X20710145Y-17371974D01*
X20700621Y-17352927D01*
X20681573Y-17343403D01*
X20653002Y-17343403D01*
X20633954Y-17333879D01*
X20624431Y-17314831D01*
X20624431Y-17305308D01*
X20633954Y-17286260D01*
X20653002Y-17276736D01*
X20681573Y-17276736D01*
X20700621Y-17286260D01*
X20776811Y-17486260D02*
X20786335Y-17476736D01*
X20805383Y-17448165D01*
X20814907Y-17429117D01*
X20824431Y-17400546D01*
X20833954Y-17352927D01*
X20833954Y-17314831D01*
X20824431Y-17267212D01*
X20814907Y-17238641D01*
X20805383Y-17219593D01*
X20786335Y-17191022D01*
X20776811Y-17181498D01*
M02*
