%TF.GenerationSoftware,KiCad,Pcbnew,6.0.11+dfsg-1~bpo11+1*%
%TF.CreationDate,2023-04-14T10:24:11+08:00*%
%TF.ProjectId,MiniVerb - Main,4d696e69-5665-4726-9220-2d204d61696e,rev?*%
%TF.SameCoordinates,Original*%
%TF.FileFunction,AssemblyDrawing,Top*%
%FSLAX46Y46*%
G04 Gerber Fmt 4.6, Leading zero omitted, Abs format (unit mm)*
G04 Created by KiCad (PCBNEW 6.0.11+dfsg-1~bpo11+1) date 2023-04-14 10:24:11*
%MOMM*%
%LPD*%
G01*
G04 APERTURE LIST*
%ADD10C,0.150000*%
%ADD11C,0.100000*%
G04 APERTURE END LIST*
D10*
%TO.C,CV1_IN1*%
X162824781Y-126893075D02*
X162777162Y-126940694D01*
X162634305Y-126988313D01*
X162539067Y-126988313D01*
X162396209Y-126940694D01*
X162300971Y-126845456D01*
X162253352Y-126750218D01*
X162205733Y-126559742D01*
X162205733Y-126416885D01*
X162253352Y-126226409D01*
X162300971Y-126131171D01*
X162396209Y-126035933D01*
X162539067Y-125988313D01*
X162634305Y-125988313D01*
X162777162Y-126035933D01*
X162824781Y-126083552D01*
X163110495Y-125988313D02*
X163443828Y-126988313D01*
X163777162Y-125988313D01*
X164634305Y-126988313D02*
X164062876Y-126988313D01*
X164348590Y-126988313D02*
X164348590Y-125988313D01*
X164253352Y-126131171D01*
X164158114Y-126226409D01*
X164062876Y-126274028D01*
X164824781Y-127083552D02*
X165586686Y-127083552D01*
X165824781Y-126988313D02*
X165824781Y-125988313D01*
X166300971Y-126988313D02*
X166300971Y-125988313D01*
X166872400Y-126988313D01*
X166872400Y-125988313D01*
X167872400Y-126988313D02*
X167300971Y-126988313D01*
X167586686Y-126988313D02*
X167586686Y-125988313D01*
X167491447Y-126131171D01*
X167396209Y-126226409D01*
X167300971Y-126274028D01*
%TO.C,AUDIO_OUT1*%
X170789543Y-148374599D02*
X171265733Y-148374599D01*
X170694305Y-148660313D02*
X171027638Y-147660313D01*
X171360971Y-148660313D01*
X171694305Y-147660313D02*
X171694305Y-148469837D01*
X171741924Y-148565075D01*
X171789543Y-148612694D01*
X171884781Y-148660313D01*
X172075257Y-148660313D01*
X172170495Y-148612694D01*
X172218114Y-148565075D01*
X172265733Y-148469837D01*
X172265733Y-147660313D01*
X172741924Y-148660313D02*
X172741924Y-147660313D01*
X172980019Y-147660313D01*
X173122876Y-147707933D01*
X173218114Y-147803171D01*
X173265733Y-147898409D01*
X173313352Y-148088885D01*
X173313352Y-148231742D01*
X173265733Y-148422218D01*
X173218114Y-148517456D01*
X173122876Y-148612694D01*
X172980019Y-148660313D01*
X172741924Y-148660313D01*
X173741924Y-148660313D02*
X173741924Y-147660313D01*
X174408590Y-147660313D02*
X174599067Y-147660313D01*
X174694305Y-147707933D01*
X174789543Y-147803171D01*
X174837162Y-147993647D01*
X174837162Y-148326980D01*
X174789543Y-148517456D01*
X174694305Y-148612694D01*
X174599067Y-148660313D01*
X174408590Y-148660313D01*
X174313352Y-148612694D01*
X174218114Y-148517456D01*
X174170495Y-148326980D01*
X174170495Y-147993647D01*
X174218114Y-147803171D01*
X174313352Y-147707933D01*
X174408590Y-147660313D01*
X175027638Y-148755552D02*
X175789543Y-148755552D01*
X176218114Y-147660313D02*
X176408590Y-147660313D01*
X176503828Y-147707933D01*
X176599067Y-147803171D01*
X176646686Y-147993647D01*
X176646686Y-148326980D01*
X176599067Y-148517456D01*
X176503828Y-148612694D01*
X176408590Y-148660313D01*
X176218114Y-148660313D01*
X176122876Y-148612694D01*
X176027638Y-148517456D01*
X175980019Y-148326980D01*
X175980019Y-147993647D01*
X176027638Y-147803171D01*
X176122876Y-147707933D01*
X176218114Y-147660313D01*
X177075257Y-147660313D02*
X177075257Y-148469837D01*
X177122876Y-148565075D01*
X177170495Y-148612694D01*
X177265733Y-148660313D01*
X177456209Y-148660313D01*
X177551447Y-148612694D01*
X177599067Y-148565075D01*
X177646686Y-148469837D01*
X177646686Y-147660313D01*
X177980019Y-147660313D02*
X178551447Y-147660313D01*
X178265733Y-148660313D02*
X178265733Y-147660313D01*
X179408590Y-148660313D02*
X178837162Y-148660313D01*
X179122876Y-148660313D02*
X179122876Y-147660313D01*
X179027638Y-147803171D01*
X178932400Y-147898409D01*
X178837162Y-147946028D01*
%TO.C,D1*%
X161690238Y-137812380D02*
X162309285Y-137812380D01*
X161975952Y-138193333D01*
X162118809Y-138193333D01*
X162214047Y-138240952D01*
X162261666Y-138288571D01*
X162309285Y-138383809D01*
X162309285Y-138621904D01*
X162261666Y-138717142D01*
X162214047Y-138764761D01*
X162118809Y-138812380D01*
X161833095Y-138812380D01*
X161737857Y-138764761D01*
X161690238Y-138717142D01*
X162737857Y-138812380D02*
X162737857Y-138145714D01*
X162737857Y-138240952D02*
X162785476Y-138193333D01*
X162880714Y-138145714D01*
X163023571Y-138145714D01*
X163118809Y-138193333D01*
X163166428Y-138288571D01*
X163166428Y-138812380D01*
X163166428Y-138288571D02*
X163214047Y-138193333D01*
X163309285Y-138145714D01*
X163452142Y-138145714D01*
X163547380Y-138193333D01*
X163595000Y-138288571D01*
X163595000Y-138812380D01*
X164071190Y-138812380D02*
X164071190Y-138145714D01*
X164071190Y-138240952D02*
X164118809Y-138193333D01*
X164214047Y-138145714D01*
X164356904Y-138145714D01*
X164452142Y-138193333D01*
X164499761Y-138288571D01*
X164499761Y-138812380D01*
X164499761Y-138288571D02*
X164547380Y-138193333D01*
X164642619Y-138145714D01*
X164785476Y-138145714D01*
X164880714Y-138193333D01*
X164928333Y-138288571D01*
X164928333Y-138812380D01*
X165166428Y-138907619D02*
X165928333Y-138907619D01*
X166642619Y-138812380D02*
X166166428Y-138812380D01*
X166166428Y-137812380D01*
X166975952Y-138288571D02*
X167309285Y-138288571D01*
X167452142Y-138812380D02*
X166975952Y-138812380D01*
X166975952Y-137812380D01*
X167452142Y-137812380D01*
X167880714Y-138812380D02*
X167880714Y-137812380D01*
X168118809Y-137812380D01*
X168261666Y-137860000D01*
X168356904Y-137955238D01*
X168404523Y-138050476D01*
X168452142Y-138240952D01*
X168452142Y-138383809D01*
X168404523Y-138574285D01*
X168356904Y-138669523D01*
X168261666Y-138764761D01*
X168118809Y-138812380D01*
X167880714Y-138812380D01*
%TO.C,AUDIO_IN1*%
X161456209Y-148374599D02*
X161932400Y-148374599D01*
X161360971Y-148660313D02*
X161694305Y-147660313D01*
X162027638Y-148660313D01*
X162360971Y-147660313D02*
X162360971Y-148469837D01*
X162408590Y-148565075D01*
X162456209Y-148612694D01*
X162551447Y-148660313D01*
X162741924Y-148660313D01*
X162837162Y-148612694D01*
X162884781Y-148565075D01*
X162932400Y-148469837D01*
X162932400Y-147660313D01*
X163408590Y-148660313D02*
X163408590Y-147660313D01*
X163646686Y-147660313D01*
X163789543Y-147707933D01*
X163884781Y-147803171D01*
X163932400Y-147898409D01*
X163980019Y-148088885D01*
X163980019Y-148231742D01*
X163932400Y-148422218D01*
X163884781Y-148517456D01*
X163789543Y-148612694D01*
X163646686Y-148660313D01*
X163408590Y-148660313D01*
X164408590Y-148660313D02*
X164408590Y-147660313D01*
X165075257Y-147660313D02*
X165265733Y-147660313D01*
X165360971Y-147707933D01*
X165456209Y-147803171D01*
X165503828Y-147993647D01*
X165503828Y-148326980D01*
X165456209Y-148517456D01*
X165360971Y-148612694D01*
X165265733Y-148660313D01*
X165075257Y-148660313D01*
X164980019Y-148612694D01*
X164884781Y-148517456D01*
X164837162Y-148326980D01*
X164837162Y-147993647D01*
X164884781Y-147803171D01*
X164980019Y-147707933D01*
X165075257Y-147660313D01*
X165694305Y-148755552D02*
X166456209Y-148755552D01*
X166694305Y-148660313D02*
X166694305Y-147660313D01*
X167170495Y-148660313D02*
X167170495Y-147660313D01*
X167741924Y-148660313D01*
X167741924Y-147660313D01*
X168741924Y-148660313D02*
X168170495Y-148660313D01*
X168456209Y-148660313D02*
X168456209Y-147660313D01*
X168360971Y-147803171D01*
X168265733Y-147898409D01*
X168170495Y-147946028D01*
D11*
%TO.C,FEEDBACK_POT1*%
X174849067Y-76240933D02*
X165349067Y-76240933D01*
X165349067Y-87590933D02*
X165349067Y-76240933D01*
X174849067Y-87590933D02*
X174849067Y-76240933D01*
X174849067Y-87590933D02*
X165349067Y-87590933D01*
X173599067Y-81090933D02*
G75*
G03*
X173599067Y-81090933I-3500000J0D01*
G01*
%TO.C,CV1_IN1*%
X169569067Y-132565933D02*
X169569067Y-122165933D01*
X165069067Y-120085933D02*
X165069067Y-122115933D01*
X169569067Y-132565933D02*
X160569067Y-132565933D01*
X169569067Y-122115933D02*
X160569067Y-122115933D01*
X160569067Y-132565933D02*
X160569067Y-122165933D01*
X166869067Y-126565933D02*
G75*
G03*
X166869067Y-126565933I-1800000J0D01*
G01*
%TO.C,AUDIO_OUT1*%
X170599067Y-152687933D02*
X170599067Y-142287933D01*
X179599067Y-142237933D02*
X170599067Y-142237933D01*
X179599067Y-152687933D02*
X179599067Y-142287933D01*
X175099067Y-140207933D02*
X175099067Y-142237933D01*
X179599067Y-152687933D02*
X170599067Y-152687933D01*
X176899067Y-146687933D02*
G75*
G03*
X176899067Y-146687933I-1800000J0D01*
G01*
%TO.C,MOD_POT1*%
X174909067Y-107600933D02*
X174909067Y-96250933D01*
X174909067Y-96250933D02*
X165409067Y-96250933D01*
X165409067Y-107600933D02*
X165409067Y-96250933D01*
X174909067Y-107600933D02*
X165409067Y-107600933D01*
X173659067Y-101100933D02*
G75*
G03*
X173659067Y-101100933I-3500000J0D01*
G01*
%TO.C,LEVEL_POT1*%
X174869067Y-67600933D02*
X165369067Y-67600933D01*
X174869067Y-56250933D02*
X165369067Y-56250933D01*
X174869067Y-67600933D02*
X174869067Y-56250933D01*
X165369067Y-67600933D02*
X165369067Y-56250933D01*
X173619067Y-61100933D02*
G75*
G03*
X173619067Y-61100933I-3500000J0D01*
G01*
%TO.C,D1*%
X163595000Y-134233810D02*
X163595000Y-136566190D01*
X163594445Y-136565476D02*
G75*
G03*
X163595000Y-134233810I1500555J1165476D01*
G01*
X166595000Y-135400000D02*
G75*
G03*
X166595000Y-135400000I-1500000J0D01*
G01*
%TO.C,AUDIO_IN1*%
X169599067Y-152687933D02*
X169599067Y-142287933D01*
X160599067Y-152687933D02*
X160599067Y-142287933D01*
X169599067Y-152687933D02*
X160599067Y-152687933D01*
X165099067Y-140207933D02*
X165099067Y-142237933D01*
X169599067Y-142237933D02*
X160599067Y-142237933D01*
X166899067Y-146687933D02*
G75*
G03*
X166899067Y-146687933I-1800000J0D01*
G01*
%TD*%
M02*
