%TF.GenerationSoftware,KiCad,Pcbnew,6.0.11+dfsg-1~bpo11+1*%
%TF.CreationDate,2023-04-14T10:24:11+08:00*%
%TF.ProjectId,MiniVerb - Main,4d696e69-5665-4726-9220-2d204d61696e,rev?*%
%TF.SameCoordinates,Original*%
%TF.FileFunction,Soldermask,Top*%
%TF.FilePolarity,Negative*%
%FSLAX46Y46*%
G04 Gerber Fmt 4.6, Leading zero omitted, Abs format (unit mm)*
G04 Created by KiCad (PCBNEW 6.0.11+dfsg-1~bpo11+1) date 2023-04-14 10:24:11*
%MOMM*%
%LPD*%
G01*
G04 APERTURE LIST*
G04 Aperture macros list*
%AMRoundRect*
0 Rectangle with rounded corners*
0 $1 Rounding radius*
0 $2 $3 $4 $5 $6 $7 $8 $9 X,Y pos of 4 corners*
0 Add a 4 corners polygon primitive as box body*
4,1,4,$2,$3,$4,$5,$6,$7,$8,$9,$2,$3,0*
0 Add four circle primitives for the rounded corners*
1,1,$1+$1,$2,$3*
1,1,$1+$1,$4,$5*
1,1,$1+$1,$6,$7*
1,1,$1+$1,$8,$9*
0 Add four rect primitives between the rounded corners*
20,1,$1+$1,$2,$3,$4,$5,0*
20,1,$1+$1,$4,$5,$6,$7,0*
20,1,$1+$1,$6,$7,$8,$9,0*
20,1,$1+$1,$8,$9,$2,$3,0*%
G04 Aperture macros list end*
%ADD10R,1.800000X1.800000*%
%ADD11C,1.800000*%
%ADD12R,1.930000X1.830000*%
%ADD13C,2.130000*%
%ADD14RoundRect,0.250000X-0.600000X-0.600000X0.600000X-0.600000X0.600000X0.600000X-0.600000X0.600000X0*%
%ADD15C,1.700000*%
%ADD16R,1.700000X1.700000*%
G04 APERTURE END LIST*
D10*
%TO.C,FEEDBACK_POT1*%
X167599067Y-88590933D03*
D11*
X170099067Y-88590933D03*
X172599067Y-88590933D03*
%TD*%
D12*
%TO.C,CV1_IN1*%
X165069067Y-120085933D03*
D13*
X165069067Y-131485933D03*
X165069067Y-123185933D03*
%TD*%
D12*
%TO.C,AUDIO_OUT1*%
X175099067Y-140207933D03*
D13*
X175099067Y-151607933D03*
X175099067Y-143307933D03*
%TD*%
D10*
%TO.C,MOD_POT1*%
X167659067Y-108600933D03*
D11*
X170159067Y-108600933D03*
X172659067Y-108600933D03*
%TD*%
D10*
%TO.C,LEVEL_POT1*%
X167619067Y-68600933D03*
D11*
X170119067Y-68600933D03*
X172619067Y-68600933D03*
%TD*%
D10*
%TO.C,D1*%
X163825000Y-135400000D03*
D11*
X166365000Y-135400000D03*
%TD*%
D12*
%TO.C,AUDIO_IN1*%
X165099067Y-140207933D03*
D13*
X165099067Y-151607933D03*
X165099067Y-143307933D03*
%TD*%
D14*
%TO.C,J1*%
X173846567Y-133056933D03*
D15*
X176386567Y-133056933D03*
X173846567Y-130516933D03*
X176386567Y-130516933D03*
X173846567Y-127976933D03*
X176386567Y-127976933D03*
X173846567Y-125436933D03*
X176386567Y-125436933D03*
X173846567Y-122896933D03*
X176386567Y-122896933D03*
%TD*%
D16*
%TO.C,A1*%
X162660000Y-100095933D03*
D15*
X162660000Y-97555933D03*
X162660000Y-95015933D03*
X162660000Y-92475933D03*
X162660000Y-89935933D03*
X162660000Y-87395933D03*
X162660000Y-84855933D03*
X162660000Y-82315933D03*
X162660000Y-79775933D03*
X162660000Y-77235933D03*
X162660000Y-74695933D03*
X162660000Y-72155933D03*
X162660000Y-69615933D03*
X162660000Y-67075933D03*
X162660000Y-64535933D03*
X162660000Y-61995933D03*
X162660000Y-59455933D03*
X162660000Y-56915933D03*
X162660000Y-54375933D03*
X162660000Y-51835933D03*
X177900000Y-51835933D03*
X177900000Y-54375933D03*
X177900000Y-56915933D03*
X177900000Y-59455933D03*
X177900000Y-61995933D03*
X177900000Y-64535933D03*
X177900000Y-67075933D03*
X177900000Y-69615933D03*
X177900000Y-72155933D03*
X177900000Y-74695933D03*
X177900000Y-77235933D03*
X177900000Y-79775933D03*
X177900000Y-82315933D03*
X177900000Y-84855933D03*
X177900000Y-87395933D03*
X177900000Y-89935933D03*
X177900000Y-92475933D03*
X177900000Y-95015933D03*
X177900000Y-97555933D03*
X177900000Y-100095933D03*
%TD*%
M02*
