%TF.GenerationSoftware,KiCad,Pcbnew,6.0.11+dfsg-1~bpo11+1*%
%TF.CreationDate,2023-04-14T10:24:11+08:00*%
%TF.ProjectId,MiniVerb - Main,4d696e69-5665-4726-9220-2d204d61696e,rev?*%
%TF.SameCoordinates,Original*%
%TF.FileFunction,Copper,L1,Top*%
%TF.FilePolarity,Positive*%
%FSLAX46Y46*%
G04 Gerber Fmt 4.6, Leading zero omitted, Abs format (unit mm)*
G04 Created by KiCad (PCBNEW 6.0.11+dfsg-1~bpo11+1) date 2023-04-14 10:24:11*
%MOMM*%
%LPD*%
G01*
G04 APERTURE LIST*
G04 Aperture macros list*
%AMRoundRect*
0 Rectangle with rounded corners*
0 $1 Rounding radius*
0 $2 $3 $4 $5 $6 $7 $8 $9 X,Y pos of 4 corners*
0 Add a 4 corners polygon primitive as box body*
4,1,4,$2,$3,$4,$5,$6,$7,$8,$9,$2,$3,0*
0 Add four circle primitives for the rounded corners*
1,1,$1+$1,$2,$3*
1,1,$1+$1,$4,$5*
1,1,$1+$1,$6,$7*
1,1,$1+$1,$8,$9*
0 Add four rect primitives between the rounded corners*
20,1,$1+$1,$2,$3,$4,$5,0*
20,1,$1+$1,$4,$5,$6,$7,0*
20,1,$1+$1,$6,$7,$8,$9,0*
20,1,$1+$1,$8,$9,$2,$3,0*%
G04 Aperture macros list end*
%TA.AperFunction,ComponentPad*%
%ADD10R,1.800000X1.800000*%
%TD*%
%TA.AperFunction,ComponentPad*%
%ADD11C,1.800000*%
%TD*%
%TA.AperFunction,ComponentPad*%
%ADD12R,1.930000X1.830000*%
%TD*%
%TA.AperFunction,ComponentPad*%
%ADD13C,2.130000*%
%TD*%
%TA.AperFunction,ComponentPad*%
%ADD14RoundRect,0.250000X-0.600000X-0.600000X0.600000X-0.600000X0.600000X0.600000X-0.600000X0.600000X0*%
%TD*%
%TA.AperFunction,ComponentPad*%
%ADD15C,1.700000*%
%TD*%
%TA.AperFunction,ComponentPad*%
%ADD16R,1.700000X1.700000*%
%TD*%
%TA.AperFunction,ViaPad*%
%ADD17C,0.800000*%
%TD*%
%TA.AperFunction,Conductor*%
%ADD18C,0.200000*%
%TD*%
%TA.AperFunction,Conductor*%
%ADD19C,0.500000*%
%TD*%
%TA.AperFunction,Conductor*%
%ADD20C,0.250000*%
%TD*%
G04 APERTURE END LIST*
D10*
%TO.P,FEEDBACK_POT1,1,1*%
%TO.N,GND*%
X167599067Y-88590933D03*
D11*
%TO.P,FEEDBACK_POT1,2,2*%
%TO.N,FEEDBACK*%
X170099067Y-88590933D03*
%TO.P,FEEDBACK_POT1,3,3*%
%TO.N,3V3_A*%
X172599067Y-88590933D03*
%TD*%
D12*
%TO.P,CV1_IN1,S*%
%TO.N,GND*%
X165069067Y-120085933D03*
D13*
%TO.P,CV1_IN1,T*%
%TO.N,Net-(C10-Pad1)*%
X165069067Y-131485933D03*
%TO.P,CV1_IN1,TN*%
%TO.N,unconnected-(CV1_IN1-PadTN)*%
X165069067Y-123185933D03*
%TD*%
D12*
%TO.P,AUDIO_OUT1,S*%
%TO.N,GND*%
X175099067Y-140207933D03*
D13*
%TO.P,AUDIO_OUT1,T*%
%TO.N,Net-(AUDIO_OUT1-PadT)*%
X175099067Y-151607933D03*
%TO.P,AUDIO_OUT1,TN*%
%TO.N,unconnected-(AUDIO_OUT1-PadTN)*%
X175099067Y-143307933D03*
%TD*%
D10*
%TO.P,MOD_POT1,1,1*%
%TO.N,GND*%
X167659067Y-108600933D03*
D11*
%TO.P,MOD_POT1,2,2*%
%TO.N,MOD*%
X170159067Y-108600933D03*
%TO.P,MOD_POT1,3,3*%
%TO.N,3V3_A*%
X172659067Y-108600933D03*
%TD*%
D10*
%TO.P,LEVEL_POT1,1,1*%
%TO.N,GND*%
X167619067Y-68600933D03*
D11*
%TO.P,LEVEL_POT1,2,2*%
%TO.N,LEVEL*%
X170119067Y-68600933D03*
%TO.P,LEVEL_POT1,3,3*%
%TO.N,3V3_A*%
X172619067Y-68600933D03*
%TD*%
D10*
%TO.P,D1,1,K*%
%TO.N,GND*%
X163825000Y-135400000D03*
D11*
%TO.P,D1,2,A*%
%TO.N,Net-(D1-Pad2)*%
X166365000Y-135400000D03*
%TD*%
D12*
%TO.P,AUDIO_IN1,S*%
%TO.N,GND*%
X165099067Y-140207933D03*
D13*
%TO.P,AUDIO_IN1,T*%
%TO.N,Net-(AUDIO_IN1-PadT)*%
X165099067Y-151607933D03*
%TO.P,AUDIO_IN1,TN*%
%TO.N,unconnected-(AUDIO_IN1-PadTN)*%
X165099067Y-143307933D03*
%TD*%
D14*
%TO.P,J1,1,Pin_1*%
%TO.N,Net-(FB2-Pad1)*%
X173846567Y-133056933D03*
D15*
%TO.P,J1,2,Pin_2*%
X176386567Y-133056933D03*
%TO.P,J1,3,Pin_3*%
%TO.N,GND*%
X173846567Y-130516933D03*
%TO.P,J1,4,Pin_4*%
X176386567Y-130516933D03*
%TO.P,J1,5,Pin_5*%
X173846567Y-127976933D03*
%TO.P,J1,6,Pin_6*%
X176386567Y-127976933D03*
%TO.P,J1,7,Pin_7*%
X173846567Y-125436933D03*
%TO.P,J1,8,Pin_8*%
X176386567Y-125436933D03*
%TO.P,J1,9,Pin_9*%
%TO.N,Net-(FB1-Pad1)*%
X173846567Y-122896933D03*
%TO.P,J1,10,Pin_10*%
X176386567Y-122896933D03*
%TD*%
D16*
%TO.P,A1,1,USB_HS_ID*%
%TO.N,unconnected-(A1-Pad1)*%
X162660000Y-100095933D03*
D15*
%TO.P,A1,2,SDMMC1_D3*%
%TO.N,unconnected-(A1-Pad2)*%
X162660000Y-97555933D03*
%TO.P,A1,3,SDMMC1_D2*%
%TO.N,unconnected-(A1-Pad3)*%
X162660000Y-95015933D03*
%TO.P,A1,4,SDMMC1_D1*%
%TO.N,unconnected-(A1-Pad4)*%
X162660000Y-92475933D03*
%TO.P,A1,5,SDMMC1_D0*%
%TO.N,unconnected-(A1-Pad5)*%
X162660000Y-89935933D03*
%TO.P,A1,6,SDMMC1_CMD*%
%TO.N,unconnected-(A1-Pad6)*%
X162660000Y-87395933D03*
%TO.P,A1,7,SDMMC1_CK*%
%TO.N,unconnected-(A1-Pad7)*%
X162660000Y-84855933D03*
%TO.P,A1,8,SPI1_NSS*%
%TO.N,unconnected-(A1-Pad8)*%
X162660000Y-82315933D03*
%TO.P,A1,9,SPI1_SCK*%
%TO.N,unconnected-(A1-Pad9)*%
X162660000Y-79775933D03*
%TO.P,A1,10,SPI1_MISO*%
%TO.N,unconnected-(A1-Pad10)*%
X162660000Y-77235933D03*
%TO.P,A1,11,SPI1_MOSI*%
%TO.N,unconnected-(A1-Pad11)*%
X162660000Y-74695933D03*
%TO.P,A1,12,I2C1_SCL*%
%TO.N,unconnected-(A1-Pad12)*%
X162660000Y-72155933D03*
%TO.P,A1,13,I2C1_SDA*%
%TO.N,unconnected-(A1-Pad13)*%
X162660000Y-69615933D03*
%TO.P,A1,14,USART1_TX*%
%TO.N,unconnected-(A1-Pad14)*%
X162660000Y-67075933D03*
%TO.P,A1,15,USART1_RX*%
%TO.N,unconnected-(A1-Pad15)*%
X162660000Y-64535933D03*
%TO.P,A1,16,AUDIO_IN_L*%
%TO.N,INT_AUDIO_IN1*%
X162660000Y-61995933D03*
%TO.P,A1,17,AUDIO_IN_R*%
%TO.N,unconnected-(A1-Pad17)*%
X162660000Y-59455933D03*
%TO.P,A1,18,AUDIO_OUT_L*%
%TO.N,INT_AUDIO_OUT1*%
X162660000Y-56915933D03*
%TO.P,A1,19,AUDIO_OUT_R*%
%TO.N,unconnected-(A1-Pad19)*%
X162660000Y-54375933D03*
%TO.P,A1,20,AGND*%
%TO.N,GND*%
X162660000Y-51835933D03*
%TO.P,A1,21,3V3_A*%
%TO.N,3V3_A*%
X177900000Y-51835933D03*
%TO.P,A1,22,ADC_INP10*%
%TO.N,LEVEL*%
X177900000Y-54375933D03*
%TO.P,A1,23,ADC_INP15*%
%TO.N,FEEDBACK*%
X177900000Y-56915933D03*
%TO.P,A1,24,ADC_INP5*%
%TO.N,MOD*%
X177900000Y-59455933D03*
%TO.P,A1,25,ADC_INP7*%
%TO.N,unconnected-(A1-Pad25)*%
X177900000Y-61995933D03*
%TO.P,A1,26,ADC_INP3*%
%TO.N,CV1*%
X177900000Y-64535933D03*
%TO.P,A1,27,ADC_INP11*%
%TO.N,unconnected-(A1-Pad27)*%
X177900000Y-67075933D03*
%TO.P,A1,28,ADC1_INP4*%
%TO.N,unconnected-(A1-Pad28)*%
X177900000Y-69615933D03*
%TO.P,A1,29,DAC1_OUT2*%
%TO.N,unconnected-(A1-Pad29)*%
X177900000Y-72155933D03*
%TO.P,A1,30,DAC1_OUT1*%
%TO.N,LED*%
X177900000Y-74695933D03*
%TO.P,A1,31,SAI2_MCLK_B*%
%TO.N,unconnected-(A1-Pad31)*%
X177900000Y-77235933D03*
%TO.P,A1,32,SAI2_SD_B*%
%TO.N,unconnected-(A1-Pad32)*%
X177900000Y-79775933D03*
%TO.P,A1,33,SAI2_SD_A*%
%TO.N,unconnected-(A1-Pad33)*%
X177900000Y-82315933D03*
%TO.P,A1,34,SAI2_FS_B*%
%TO.N,unconnected-(A1-Pad34)*%
X177900000Y-84855933D03*
%TO.P,A1,35,SAI2_SCK_B*%
%TO.N,unconnected-(A1-Pad35)*%
X177900000Y-87395933D03*
%TO.P,A1,36,USB_HS_D_-*%
%TO.N,unconnected-(A1-Pad36)*%
X177900000Y-89935933D03*
%TO.P,A1,37,USB_HS_D_+*%
%TO.N,unconnected-(A1-Pad37)*%
X177900000Y-92475933D03*
%TO.P,A1,38,3V3_D*%
%TO.N,unconnected-(A1-Pad38)*%
X177900000Y-95015933D03*
%TO.P,A1,39,VIN*%
%TO.N,+12V*%
X177900000Y-97555933D03*
%TO.P,A1,40,GND*%
%TO.N,GND*%
X177900000Y-100095933D03*
%TD*%
D17*
%TO.N,GND*%
X168074067Y-114120933D03*
X163824067Y-112120933D03*
X164649067Y-128045933D03*
X174899067Y-117895933D03*
X162049067Y-124445933D03*
X177549067Y-118295933D03*
X164099067Y-133795933D03*
X177199067Y-119345933D03*
X162799067Y-131945933D03*
X168549067Y-122095933D03*
X164549067Y-126745933D03*
X162649067Y-112120933D03*
X170749067Y-72995933D03*
X169149067Y-121145933D03*
X167999067Y-102320933D03*
X164974067Y-99670933D03*
X175549067Y-121195933D03*
X161999067Y-125845933D03*
X164899067Y-96945933D03*
X167299067Y-124795933D03*
X171099067Y-74745933D03*
X162049067Y-121545933D03*
X165049067Y-129095933D03*
X176599067Y-120445933D03*
X169799067Y-120295933D03*
X162099067Y-122945933D03*
X168899067Y-102320933D03*
X168874067Y-99745933D03*
X177924067Y-109220933D03*
X166874067Y-99295933D03*
X164499067Y-125495933D03*
X167999067Y-120545933D03*
X168949067Y-113170933D03*
X172799067Y-120495933D03*
X168049067Y-123345933D03*
X165076820Y-101025500D03*
X165074067Y-98395933D03*
X166049067Y-70745933D03*
X162099067Y-120245933D03*
X162049067Y-127345933D03*
X174299067Y-118845933D03*
X177774067Y-105720933D03*
X171149067Y-71745933D03*
X162899067Y-130745933D03*
X167199067Y-122845933D03*
X170999067Y-70695933D03*
X169824067Y-102295933D03*
X170649067Y-119645933D03*
X166299067Y-97370933D03*
X170549067Y-76445933D03*
X167399067Y-121695933D03*
X167974067Y-99720933D03*
X163199067Y-133095933D03*
X169974067Y-112470933D03*
X177899067Y-107495933D03*
X173549067Y-119745933D03*
X169749067Y-99745933D03*
%TO.N,LED*%
X168350002Y-133093750D03*
%TO.N,3V3_A*%
X162349067Y-110195933D03*
X171724068Y-105220934D03*
%TO.N,FEEDBACK*%
X173470000Y-85220000D03*
%TO.N,Net-(AUDIO_IN1-PadT)*%
X162825000Y-106225000D03*
%TO.N,Net-(AUDIO_OUT1-PadT)*%
X175649067Y-118945933D03*
%TO.N,CV1*%
X168574067Y-111145933D03*
%TD*%
D18*
%TO.N,LED*%
X176639067Y-108565429D02*
X176639067Y-75956866D01*
X168350000Y-133093748D02*
X168350000Y-128577006D01*
X168350002Y-133093750D02*
X168350000Y-133093748D01*
X177900000Y-74695967D02*
G75*
G03*
X176639067Y-75956866I0J-1260933D01*
G01*
X176639098Y-108565429D02*
G75*
G02*
X171749067Y-120370933I-16695498J29D01*
G01*
X171749072Y-120370938D02*
G75*
G03*
X168350000Y-128577006I8206028J-8206062D01*
G01*
D19*
%TO.N,3V3_A*%
X162349067Y-110195933D02*
X165039663Y-107505337D01*
X167899067Y-106320933D02*
X169068436Y-106320933D01*
X171374067Y-104375957D02*
X171374067Y-91548344D01*
X172619067Y-68600933D02*
X172619067Y-88542649D01*
X172619067Y-57116866D02*
X172619067Y-68600933D01*
X177900000Y-51835967D02*
G75*
G03*
X172619067Y-57116866I0J-5280933D01*
G01*
X171374085Y-104375957D02*
G75*
G03*
X171724069Y-105220933I1194915J-43D01*
G01*
X167899067Y-106320898D02*
G75*
G03*
X165039663Y-107505337I33J-4043802D01*
G01*
X172599039Y-88590905D02*
G75*
G03*
X172619067Y-88542649I-48239J48305D01*
G01*
X171724051Y-105220917D02*
G75*
G02*
X169068436Y-106320933I-2655651J2655617D01*
G01*
X172599040Y-88590906D02*
G75*
G03*
X171374067Y-91548344I2957460J-2957394D01*
G01*
D18*
%TO.N,FEEDBACK*%
X175399067Y-82945933D02*
X175409067Y-82955933D01*
X177900000Y-56915933D02*
X177189067Y-56915933D01*
X175399067Y-58705933D02*
X175399067Y-82945933D01*
X175409067Y-82955933D02*
X175409067Y-83280933D01*
X175409067Y-83280933D02*
X173470000Y-85220000D01*
X175399133Y-58705933D02*
G75*
G02*
X177189067Y-56915933I1789967J33D01*
G01*
%TO.N,Net-(AUDIO_IN1-PadT)*%
X160989067Y-147497933D02*
X160989067Y-108525933D01*
X161317872Y-107732129D02*
X162825000Y-106225000D01*
X161317850Y-107732107D02*
G75*
G03*
X160989067Y-108525933I793850J-793793D01*
G01*
X160989067Y-147497933D02*
G75*
G03*
X165099067Y-151607933I4110033J33D01*
G01*
D20*
%TO.N,Net-(AUDIO_OUT1-PadT)*%
X173301149Y-121315940D02*
X173017234Y-121599855D01*
X175649067Y-118945933D02*
X173301149Y-121293851D01*
X172099067Y-124195933D02*
X172099067Y-144365293D01*
X172099043Y-124195933D02*
G75*
G02*
X173017234Y-121599855I4112657J5833D01*
G01*
X175099065Y-151607935D02*
G75*
G02*
X172099067Y-144365293I7242635J7242635D01*
G01*
D18*
%TO.N,CV1*%
X174498502Y-111143700D02*
X174126300Y-111143700D01*
X174126300Y-111143700D02*
X174124067Y-111145933D01*
X176218568Y-66217365D02*
X176218568Y-109293541D01*
X168574067Y-111145933D02*
X174124067Y-111145933D01*
X174498503Y-111143708D02*
G75*
G03*
X176218567Y-109293541I-137003J1852008D01*
G01*
X176218533Y-66217365D02*
G75*
G02*
X177900000Y-64535933I1681467J-35D01*
G01*
%TO.N,MOD*%
X174548400Y-104421600D02*
X174424067Y-104545933D01*
X174424067Y-104545933D02*
X170517560Y-108452440D01*
X175819067Y-61536866D02*
X175819067Y-101353941D01*
X175819033Y-61536866D02*
G75*
G02*
X177900000Y-59455933I2080967J-34D01*
G01*
X174548389Y-104421589D02*
G75*
G03*
X175819067Y-101353941I-3067689J3067689D01*
G01*
X170159067Y-108600895D02*
G75*
G03*
X170517560Y-108452440I33J506995D01*
G01*
%TD*%
%TA.AperFunction,Conductor*%
%TO.N,GND*%
G36*
X179532688Y-50574435D02*
G01*
X179579181Y-50628091D01*
X179590567Y-50680433D01*
X179590567Y-151919933D01*
X179570565Y-151988054D01*
X179516909Y-152034547D01*
X179464567Y-152045933D01*
X176771955Y-152045933D01*
X176703834Y-152025931D01*
X176657341Y-151972275D01*
X176647237Y-151902001D01*
X176649437Y-151890518D01*
X176656844Y-151859666D01*
X176656845Y-151859658D01*
X176658001Y-151854844D01*
X176677433Y-151607933D01*
X176658001Y-151361022D01*
X176656847Y-151356215D01*
X176656846Y-151356209D01*
X176601337Y-151125003D01*
X176600182Y-151120191D01*
X176598288Y-151115618D01*
X176507296Y-150895944D01*
X176507294Y-150895940D01*
X176505401Y-150891370D01*
X176375992Y-150680193D01*
X176215140Y-150491860D01*
X176026807Y-150331008D01*
X175815630Y-150201599D01*
X175811060Y-150199706D01*
X175811056Y-150199704D01*
X175591382Y-150108712D01*
X175591380Y-150108711D01*
X175586809Y-150106818D01*
X175464884Y-150077546D01*
X175350791Y-150050154D01*
X175350785Y-150050153D01*
X175345978Y-150048999D01*
X175099067Y-150029567D01*
X174852156Y-150048999D01*
X174847349Y-150050153D01*
X174847343Y-150050154D01*
X174718475Y-150081093D01*
X174647567Y-150077546D01*
X174587574Y-150033249D01*
X174435794Y-149826974D01*
X174431471Y-149820711D01*
X174253417Y-149545320D01*
X174120447Y-149339658D01*
X174116513Y-149333151D01*
X174012382Y-149148521D01*
X173835105Y-148834202D01*
X173831568Y-148827463D01*
X173580800Y-148312433D01*
X173577676Y-148305492D01*
X173358459Y-147776258D01*
X173355760Y-147769141D01*
X173168900Y-147227639D01*
X173166636Y-147220373D01*
X173012815Y-146668588D01*
X173010993Y-146661198D01*
X172890764Y-146101112D01*
X172889392Y-146093625D01*
X172803200Y-145527305D01*
X172802283Y-145519750D01*
X172752974Y-144977130D01*
X172750443Y-144949271D01*
X172749983Y-144941681D01*
X172747723Y-144866867D01*
X172733900Y-144409421D01*
X172734921Y-144389173D01*
X172737185Y-144371976D01*
X172733328Y-144337040D01*
X172732567Y-144323213D01*
X172732567Y-143307933D01*
X173520701Y-143307933D01*
X173540133Y-143554844D01*
X173541287Y-143559651D01*
X173541288Y-143559657D01*
X173577566Y-143710763D01*
X173597952Y-143795675D01*
X173692733Y-144024496D01*
X173822142Y-144235673D01*
X173982994Y-144424006D01*
X174171327Y-144584858D01*
X174382504Y-144714267D01*
X174387074Y-144716160D01*
X174387078Y-144716162D01*
X174606752Y-144807154D01*
X174611325Y-144809048D01*
X174696237Y-144829434D01*
X174847343Y-144865712D01*
X174847349Y-144865713D01*
X174852156Y-144866867D01*
X175099067Y-144886299D01*
X175345978Y-144866867D01*
X175350785Y-144865713D01*
X175350791Y-144865712D01*
X175501897Y-144829434D01*
X175586809Y-144809048D01*
X175591382Y-144807154D01*
X175811056Y-144716162D01*
X175811060Y-144716160D01*
X175815630Y-144714267D01*
X176026807Y-144584858D01*
X176215140Y-144424006D01*
X176375992Y-144235673D01*
X176505401Y-144024496D01*
X176600182Y-143795675D01*
X176620568Y-143710763D01*
X176656846Y-143559657D01*
X176656847Y-143559651D01*
X176658001Y-143554844D01*
X176677433Y-143307933D01*
X176658001Y-143061022D01*
X176656847Y-143056215D01*
X176656846Y-143056209D01*
X176601337Y-142825003D01*
X176600182Y-142820191D01*
X176505401Y-142591370D01*
X176375992Y-142380193D01*
X176215140Y-142191860D01*
X176026807Y-142031008D01*
X175815630Y-141901599D01*
X175747409Y-141873341D01*
X175692129Y-141828792D01*
X175669708Y-141761429D01*
X175687266Y-141692638D01*
X175739229Y-141644259D01*
X175795628Y-141630932D01*
X176108736Y-141630932D01*
X176115557Y-141630562D01*
X176166419Y-141625038D01*
X176181671Y-141621412D01*
X176302121Y-141576257D01*
X176317716Y-141567719D01*
X176419791Y-141491218D01*
X176432352Y-141478657D01*
X176508853Y-141376582D01*
X176517391Y-141360987D01*
X176562545Y-141240539D01*
X176566172Y-141225284D01*
X176571698Y-141174419D01*
X176572067Y-141167605D01*
X176572067Y-140480048D01*
X176567592Y-140464809D01*
X176566202Y-140463604D01*
X176558519Y-140461933D01*
X173644183Y-140461933D01*
X173628944Y-140466408D01*
X173627739Y-140467798D01*
X173626068Y-140475481D01*
X173626068Y-141167602D01*
X173626438Y-141174423D01*
X173631962Y-141225285D01*
X173635588Y-141240537D01*
X173680743Y-141360987D01*
X173689281Y-141376582D01*
X173765782Y-141478657D01*
X173778343Y-141491218D01*
X173880418Y-141567719D01*
X173896013Y-141576257D01*
X174016461Y-141621411D01*
X174031716Y-141625038D01*
X174082581Y-141630564D01*
X174089395Y-141630933D01*
X174402505Y-141630933D01*
X174470626Y-141650935D01*
X174517119Y-141704591D01*
X174527223Y-141774865D01*
X174497729Y-141839445D01*
X174450724Y-141873341D01*
X174422427Y-141885062D01*
X174387078Y-141899704D01*
X174387074Y-141899706D01*
X174382504Y-141901599D01*
X174171327Y-142031008D01*
X173982994Y-142191860D01*
X173822142Y-142380193D01*
X173692733Y-142591370D01*
X173597952Y-142820191D01*
X173596797Y-142825003D01*
X173541288Y-143056209D01*
X173541287Y-143056215D01*
X173540133Y-143061022D01*
X173520701Y-143307933D01*
X172732567Y-143307933D01*
X172732567Y-139935818D01*
X173626067Y-139935818D01*
X173630542Y-139951057D01*
X173631932Y-139952262D01*
X173639615Y-139953933D01*
X174826952Y-139953933D01*
X174842191Y-139949458D01*
X174843396Y-139948068D01*
X174845067Y-139940385D01*
X174845067Y-139935818D01*
X175353067Y-139935818D01*
X175357542Y-139951057D01*
X175358932Y-139952262D01*
X175366615Y-139953933D01*
X176553951Y-139953933D01*
X176569190Y-139949458D01*
X176570395Y-139948068D01*
X176572066Y-139940385D01*
X176572066Y-139248264D01*
X176571696Y-139241443D01*
X176566172Y-139190581D01*
X176562546Y-139175329D01*
X176517391Y-139054879D01*
X176508853Y-139039284D01*
X176432352Y-138937209D01*
X176419791Y-138924648D01*
X176317716Y-138848147D01*
X176302121Y-138839609D01*
X176181673Y-138794455D01*
X176166418Y-138790828D01*
X176115553Y-138785302D01*
X176108739Y-138784933D01*
X175371182Y-138784933D01*
X175355943Y-138789408D01*
X175354738Y-138790798D01*
X175353067Y-138798481D01*
X175353067Y-139935818D01*
X174845067Y-139935818D01*
X174845067Y-138803049D01*
X174840592Y-138787810D01*
X174839202Y-138786605D01*
X174831519Y-138784934D01*
X174089398Y-138784934D01*
X174082577Y-138785304D01*
X174031715Y-138790828D01*
X174016463Y-138794454D01*
X173896013Y-138839609D01*
X173880418Y-138848147D01*
X173778343Y-138924648D01*
X173765782Y-138937209D01*
X173689281Y-139039284D01*
X173680743Y-139054879D01*
X173635589Y-139175327D01*
X173631962Y-139190582D01*
X173626436Y-139241447D01*
X173626067Y-139248261D01*
X173626067Y-139935818D01*
X172732567Y-139935818D01*
X172732567Y-134456706D01*
X172752569Y-134388585D01*
X172806225Y-134342092D01*
X172876499Y-134331988D01*
X172911816Y-134342511D01*
X172917597Y-134345207D01*
X172923829Y-134349048D01*
X173024365Y-134382394D01*
X173085178Y-134402565D01*
X173085180Y-134402565D01*
X173091706Y-134404730D01*
X173098542Y-134405430D01*
X173098545Y-134405431D01*
X173137939Y-134409467D01*
X173196167Y-134415433D01*
X174496967Y-134415433D01*
X174500213Y-134415096D01*
X174500217Y-134415096D01*
X174595875Y-134405171D01*
X174595879Y-134405170D01*
X174602733Y-134404459D01*
X174609269Y-134402278D01*
X174609271Y-134402278D01*
X174758344Y-134352543D01*
X174770513Y-134348483D01*
X174920915Y-134255411D01*
X175045872Y-134130236D01*
X175064821Y-134099496D01*
X175134843Y-133985899D01*
X175138682Y-133979671D01*
X175140985Y-133972728D01*
X175143330Y-133967699D01*
X175190247Y-133914414D01*
X175258525Y-133894954D01*
X175326485Y-133915497D01*
X175352761Y-133938453D01*
X175427861Y-134025150D01*
X175432817Y-134030871D01*
X175604693Y-134173565D01*
X175797567Y-134286271D01*
X176006259Y-134365963D01*
X176011327Y-134366994D01*
X176011330Y-134366995D01*
X176087019Y-134382394D01*
X176225164Y-134410500D01*
X176230339Y-134410690D01*
X176230341Y-134410690D01*
X176443240Y-134418497D01*
X176443244Y-134418497D01*
X176448404Y-134418686D01*
X176453524Y-134418030D01*
X176453526Y-134418030D01*
X176664855Y-134390958D01*
X176664856Y-134390958D01*
X176669983Y-134390301D01*
X176675703Y-134388585D01*
X176878996Y-134327594D01*
X176879001Y-134327592D01*
X176883951Y-134326107D01*
X177084561Y-134227829D01*
X177266427Y-134098106D01*
X177424663Y-133940422D01*
X177555020Y-133759010D01*
X177618438Y-133630694D01*
X177651703Y-133563386D01*
X177651704Y-133563384D01*
X177653997Y-133558744D01*
X177718937Y-133345002D01*
X177748096Y-133123523D01*
X177748663Y-133100315D01*
X177749641Y-133060298D01*
X177749641Y-133060294D01*
X177749723Y-133056933D01*
X177731419Y-132834294D01*
X177676998Y-132617635D01*
X177587921Y-132412773D01*
X177466581Y-132225210D01*
X177316237Y-132059984D01*
X177312186Y-132056785D01*
X177312182Y-132056781D01*
X177144981Y-131924733D01*
X177144977Y-131924731D01*
X177140926Y-131921531D01*
X177099136Y-131898462D01*
X177049165Y-131848030D01*
X177034393Y-131778587D01*
X177059509Y-131712181D01*
X177086860Y-131685575D01*
X177135814Y-131650656D01*
X177144215Y-131639956D01*
X177137227Y-131626803D01*
X176399379Y-130888955D01*
X176385435Y-130881341D01*
X176383602Y-130881472D01*
X176376987Y-130885723D01*
X175633304Y-131629406D01*
X175626544Y-131641786D01*
X175631825Y-131648840D01*
X175678536Y-131676136D01*
X175727260Y-131727774D01*
X175740331Y-131797557D01*
X175713600Y-131863329D01*
X175673151Y-131896685D01*
X175660174Y-131903440D01*
X175656041Y-131906543D01*
X175656038Y-131906545D01*
X175485667Y-132034463D01*
X175481532Y-132037568D01*
X175390348Y-132132987D01*
X175347594Y-132177726D01*
X175286070Y-132213156D01*
X175215157Y-132209699D01*
X175157371Y-132168453D01*
X175142400Y-132144127D01*
X175140432Y-132139927D01*
X175138117Y-132132987D01*
X175045045Y-131982585D01*
X174919870Y-131857628D01*
X174826851Y-131800290D01*
X174775535Y-131768658D01*
X174775533Y-131768657D01*
X174769305Y-131764818D01*
X174715541Y-131746985D01*
X174694207Y-131739909D01*
X174635847Y-131699478D01*
X174625296Y-131674079D01*
X174622991Y-131675303D01*
X174597227Y-131626803D01*
X173859379Y-130888955D01*
X173845435Y-130881341D01*
X173843602Y-130881472D01*
X173836987Y-130885723D01*
X173093304Y-131629406D01*
X173070552Y-131671072D01*
X173068344Y-131681220D01*
X173018141Y-131731421D01*
X172997634Y-131740357D01*
X172922621Y-131765383D01*
X172916399Y-131769234D01*
X172912017Y-131771286D01*
X172841844Y-131782070D01*
X172776981Y-131753204D01*
X172738020Y-131693853D01*
X172732567Y-131657185D01*
X172732567Y-131323913D01*
X172752569Y-131255792D01*
X172769472Y-131234818D01*
X173474545Y-130529745D01*
X173480923Y-130518065D01*
X174210975Y-130518065D01*
X174211106Y-130519898D01*
X174215357Y-130526513D01*
X174957041Y-131268197D01*
X174969051Y-131274756D01*
X174980790Y-131265788D01*
X175014589Y-131218752D01*
X175015716Y-131219562D01*
X175063226Y-131175814D01*
X175133163Y-131163594D01*
X175198605Y-131191124D01*
X175226437Y-131222962D01*
X175253026Y-131266352D01*
X175263483Y-131275813D01*
X175272261Y-131272029D01*
X176014545Y-130529745D01*
X176020923Y-130518065D01*
X176750975Y-130518065D01*
X176751106Y-130519898D01*
X176755357Y-130526513D01*
X177497041Y-131268197D01*
X177509051Y-131274756D01*
X177520790Y-131265788D01*
X177551571Y-131222952D01*
X177556882Y-131214113D01*
X177651237Y-131023200D01*
X177655036Y-131013605D01*
X177716943Y-130809848D01*
X177719122Y-130799767D01*
X177747157Y-130586820D01*
X177747676Y-130580145D01*
X177749139Y-130520297D01*
X177748945Y-130513579D01*
X177731348Y-130299537D01*
X177729663Y-130289357D01*
X177677781Y-130082808D01*
X177674461Y-130073057D01*
X177589539Y-129877747D01*
X177584672Y-129868672D01*
X177519630Y-129768130D01*
X177508944Y-129758928D01*
X177499379Y-129763331D01*
X176758589Y-130504121D01*
X176750975Y-130518065D01*
X176020923Y-130518065D01*
X176022159Y-130515801D01*
X176022028Y-130513968D01*
X176017777Y-130507353D01*
X175276416Y-129765992D01*
X175264880Y-129759692D01*
X175252595Y-129769317D01*
X175219759Y-129817453D01*
X175164848Y-129862456D01*
X175094323Y-129870627D01*
X175030576Y-129839373D01*
X175009878Y-129814888D01*
X174979629Y-129768130D01*
X174968944Y-129758928D01*
X174959379Y-129763331D01*
X174218589Y-130504121D01*
X174210975Y-130518065D01*
X173480923Y-130518065D01*
X173482159Y-130515801D01*
X173482028Y-130513968D01*
X173477777Y-130507353D01*
X172769472Y-129799048D01*
X172735446Y-129736736D01*
X172732567Y-129709953D01*
X172732567Y-129101786D01*
X173086544Y-129101786D01*
X173091825Y-129108840D01*
X173139046Y-129136434D01*
X173187770Y-129188072D01*
X173200841Y-129257855D01*
X173174110Y-129323627D01*
X173133654Y-129356986D01*
X173125033Y-129361474D01*
X173116301Y-129366972D01*
X173096244Y-129382032D01*
X173087790Y-129393360D01*
X173094535Y-129405691D01*
X173833755Y-130144911D01*
X173847699Y-130152525D01*
X173849532Y-130152394D01*
X173856147Y-130148143D01*
X174599956Y-129404334D01*
X174606977Y-129391477D01*
X174600178Y-129382146D01*
X174596126Y-129379454D01*
X174558683Y-129358785D01*
X174508712Y-129308353D01*
X174493940Y-129238910D01*
X174519056Y-129172505D01*
X174546407Y-129145898D01*
X174595814Y-129110656D01*
X174602778Y-129101786D01*
X175626544Y-129101786D01*
X175631825Y-129108840D01*
X175679046Y-129136434D01*
X175727770Y-129188072D01*
X175740841Y-129257855D01*
X175714110Y-129323627D01*
X175673654Y-129356986D01*
X175665033Y-129361474D01*
X175656301Y-129366972D01*
X175636244Y-129382032D01*
X175627790Y-129393360D01*
X175634535Y-129405691D01*
X176373755Y-130144911D01*
X176387699Y-130152525D01*
X176389532Y-130152394D01*
X176396147Y-130148143D01*
X177139956Y-129404334D01*
X177146977Y-129391477D01*
X177140178Y-129382146D01*
X177136126Y-129379454D01*
X177098683Y-129358785D01*
X177048712Y-129308353D01*
X177033940Y-129238910D01*
X177059056Y-129172505D01*
X177086407Y-129145898D01*
X177135814Y-129110656D01*
X177144215Y-129099956D01*
X177137227Y-129086803D01*
X176399379Y-128348955D01*
X176385435Y-128341341D01*
X176383602Y-128341472D01*
X176376987Y-128345723D01*
X175633304Y-129089406D01*
X175626544Y-129101786D01*
X174602778Y-129101786D01*
X174604215Y-129099956D01*
X174597227Y-129086803D01*
X173859379Y-128348955D01*
X173845435Y-128341341D01*
X173843602Y-128341472D01*
X173836987Y-128345723D01*
X173093304Y-129089406D01*
X173086544Y-129101786D01*
X172732567Y-129101786D01*
X172732567Y-128783913D01*
X172752569Y-128715792D01*
X172769472Y-128694818D01*
X173474545Y-127989745D01*
X173480923Y-127978065D01*
X174210975Y-127978065D01*
X174211106Y-127979898D01*
X174215357Y-127986513D01*
X174957041Y-128728197D01*
X174969051Y-128734756D01*
X174980790Y-128725788D01*
X175014589Y-128678752D01*
X175015716Y-128679562D01*
X175063226Y-128635814D01*
X175133163Y-128623594D01*
X175198605Y-128651124D01*
X175226437Y-128682962D01*
X175253026Y-128726352D01*
X175263483Y-128735813D01*
X175272261Y-128732029D01*
X176014545Y-127989745D01*
X176020923Y-127978065D01*
X176750975Y-127978065D01*
X176751106Y-127979898D01*
X176755357Y-127986513D01*
X177497041Y-128728197D01*
X177509051Y-128734756D01*
X177520790Y-128725788D01*
X177551571Y-128682952D01*
X177556882Y-128674113D01*
X177651237Y-128483200D01*
X177655036Y-128473605D01*
X177716943Y-128269848D01*
X177719122Y-128259767D01*
X177747157Y-128046820D01*
X177747676Y-128040145D01*
X177749139Y-127980297D01*
X177748945Y-127973579D01*
X177731348Y-127759537D01*
X177729663Y-127749357D01*
X177677781Y-127542808D01*
X177674461Y-127533057D01*
X177589539Y-127337747D01*
X177584672Y-127328672D01*
X177519630Y-127228130D01*
X177508944Y-127218928D01*
X177499379Y-127223331D01*
X176758589Y-127964121D01*
X176750975Y-127978065D01*
X176020923Y-127978065D01*
X176022159Y-127975801D01*
X176022028Y-127973968D01*
X176017777Y-127967353D01*
X175276416Y-127225992D01*
X175264880Y-127219692D01*
X175252595Y-127229317D01*
X175219759Y-127277453D01*
X175164848Y-127322456D01*
X175094323Y-127330627D01*
X175030576Y-127299373D01*
X175009878Y-127274888D01*
X174979629Y-127228130D01*
X174968944Y-127218928D01*
X174959379Y-127223331D01*
X174218589Y-127964121D01*
X174210975Y-127978065D01*
X173480923Y-127978065D01*
X173482159Y-127975801D01*
X173482028Y-127973968D01*
X173477777Y-127967353D01*
X172769472Y-127259048D01*
X172735446Y-127196736D01*
X172732567Y-127169953D01*
X172732567Y-126561786D01*
X173086544Y-126561786D01*
X173091825Y-126568840D01*
X173139046Y-126596434D01*
X173187770Y-126648072D01*
X173200841Y-126717855D01*
X173174110Y-126783627D01*
X173133654Y-126816986D01*
X173125033Y-126821474D01*
X173116301Y-126826972D01*
X173096244Y-126842032D01*
X173087790Y-126853360D01*
X173094535Y-126865691D01*
X173833755Y-127604911D01*
X173847699Y-127612525D01*
X173849532Y-127612394D01*
X173856147Y-127608143D01*
X174599956Y-126864334D01*
X174606977Y-126851477D01*
X174600178Y-126842146D01*
X174596126Y-126839454D01*
X174558683Y-126818785D01*
X174508712Y-126768353D01*
X174493940Y-126698910D01*
X174519056Y-126632505D01*
X174546407Y-126605898D01*
X174595814Y-126570656D01*
X174602778Y-126561786D01*
X175626544Y-126561786D01*
X175631825Y-126568840D01*
X175679046Y-126596434D01*
X175727770Y-126648072D01*
X175740841Y-126717855D01*
X175714110Y-126783627D01*
X175673654Y-126816986D01*
X175665033Y-126821474D01*
X175656301Y-126826972D01*
X175636244Y-126842032D01*
X175627790Y-126853360D01*
X175634535Y-126865691D01*
X176373755Y-127604911D01*
X176387699Y-127612525D01*
X176389532Y-127612394D01*
X176396147Y-127608143D01*
X177139956Y-126864334D01*
X177146977Y-126851477D01*
X177140178Y-126842146D01*
X177136126Y-126839454D01*
X177098683Y-126818785D01*
X177048712Y-126768353D01*
X177033940Y-126698910D01*
X177059056Y-126632505D01*
X177086407Y-126605898D01*
X177135814Y-126570656D01*
X177144215Y-126559956D01*
X177137227Y-126546803D01*
X176399379Y-125808955D01*
X176385435Y-125801341D01*
X176383602Y-125801472D01*
X176376987Y-125805723D01*
X175633304Y-126549406D01*
X175626544Y-126561786D01*
X174602778Y-126561786D01*
X174604215Y-126559956D01*
X174597227Y-126546803D01*
X173859379Y-125808955D01*
X173845435Y-125801341D01*
X173843602Y-125801472D01*
X173836987Y-125805723D01*
X173093304Y-126549406D01*
X173086544Y-126561786D01*
X172732567Y-126561786D01*
X172732567Y-126243913D01*
X172752569Y-126175792D01*
X172769472Y-126154818D01*
X173474545Y-125449745D01*
X173480923Y-125438065D01*
X174210975Y-125438065D01*
X174211106Y-125439898D01*
X174215357Y-125446513D01*
X174957041Y-126188197D01*
X174969051Y-126194756D01*
X174980790Y-126185788D01*
X175014589Y-126138752D01*
X175015716Y-126139562D01*
X175063226Y-126095814D01*
X175133163Y-126083594D01*
X175198605Y-126111124D01*
X175226437Y-126142962D01*
X175253026Y-126186352D01*
X175263483Y-126195813D01*
X175272261Y-126192029D01*
X176014545Y-125449745D01*
X176020923Y-125438065D01*
X176750975Y-125438065D01*
X176751106Y-125439898D01*
X176755357Y-125446513D01*
X177497041Y-126188197D01*
X177509051Y-126194756D01*
X177520790Y-126185788D01*
X177551571Y-126142952D01*
X177556882Y-126134113D01*
X177651237Y-125943200D01*
X177655036Y-125933605D01*
X177716943Y-125729848D01*
X177719122Y-125719767D01*
X177747157Y-125506820D01*
X177747676Y-125500145D01*
X177749139Y-125440297D01*
X177748945Y-125433579D01*
X177731348Y-125219537D01*
X177729663Y-125209357D01*
X177677781Y-125002808D01*
X177674461Y-124993057D01*
X177589539Y-124797747D01*
X177584672Y-124788672D01*
X177519630Y-124688130D01*
X177508944Y-124678928D01*
X177499379Y-124683331D01*
X176758589Y-125424121D01*
X176750975Y-125438065D01*
X176020923Y-125438065D01*
X176022159Y-125435801D01*
X176022028Y-125433968D01*
X176017777Y-125427353D01*
X175276416Y-124685992D01*
X175264880Y-124679692D01*
X175252595Y-124689317D01*
X175219759Y-124737453D01*
X175164848Y-124782456D01*
X175094323Y-124790627D01*
X175030576Y-124759373D01*
X175009878Y-124734888D01*
X174979629Y-124688130D01*
X174968944Y-124678928D01*
X174959379Y-124683331D01*
X174218589Y-125424121D01*
X174210975Y-125438065D01*
X173480923Y-125438065D01*
X173482159Y-125435801D01*
X173482028Y-125433968D01*
X173477777Y-125427353D01*
X172769472Y-124719048D01*
X172735446Y-124656736D01*
X172732567Y-124629953D01*
X172732567Y-124245412D01*
X172733622Y-124229142D01*
X172736213Y-124209247D01*
X172736213Y-124209244D01*
X172737194Y-124201711D01*
X172734818Y-124180466D01*
X172734178Y-124160500D01*
X172736597Y-124109459D01*
X172741429Y-124007475D01*
X172764633Y-123940379D01*
X172820429Y-123896477D01*
X172891103Y-123889711D01*
X172947772Y-123916496D01*
X173064693Y-124013565D01*
X173138522Y-124056707D01*
X173187246Y-124108345D01*
X173200317Y-124178128D01*
X173173586Y-124243900D01*
X173133129Y-124277260D01*
X173125027Y-124281477D01*
X173116301Y-124286972D01*
X173096244Y-124302032D01*
X173087790Y-124313360D01*
X173094535Y-124325691D01*
X173833755Y-125064911D01*
X173847699Y-125072525D01*
X173849532Y-125072394D01*
X173856147Y-125068143D01*
X174599956Y-124324334D01*
X174606977Y-124311477D01*
X174600178Y-124302146D01*
X174596126Y-124299454D01*
X174559169Y-124279053D01*
X174509198Y-124228620D01*
X174494426Y-124159178D01*
X174519542Y-124092772D01*
X174546894Y-124066165D01*
X174570364Y-124049424D01*
X174726427Y-123938106D01*
X174774992Y-123889711D01*
X174881002Y-123784070D01*
X174884663Y-123780422D01*
X175015020Y-123599010D01*
X175016343Y-123599961D01*
X175063212Y-123556790D01*
X175133147Y-123544558D01*
X175198593Y-123572077D01*
X175226442Y-123603927D01*
X175228674Y-123607569D01*
X175286554Y-123702021D01*
X175432817Y-123870871D01*
X175604693Y-124013565D01*
X175678522Y-124056707D01*
X175727246Y-124108345D01*
X175740317Y-124178128D01*
X175713586Y-124243900D01*
X175673129Y-124277260D01*
X175665027Y-124281477D01*
X175656301Y-124286972D01*
X175636244Y-124302032D01*
X175627790Y-124313360D01*
X175634535Y-124325691D01*
X176373755Y-125064911D01*
X176387699Y-125072525D01*
X176389532Y-125072394D01*
X176396147Y-125068143D01*
X177139956Y-124324334D01*
X177146977Y-124311477D01*
X177140178Y-124302146D01*
X177136126Y-124299454D01*
X177099169Y-124279053D01*
X177049198Y-124228620D01*
X177034426Y-124159178D01*
X177059542Y-124092772D01*
X177086894Y-124066165D01*
X177110364Y-124049424D01*
X177266427Y-123938106D01*
X177314992Y-123889711D01*
X177421002Y-123784070D01*
X177424663Y-123780422D01*
X177555020Y-123599010D01*
X177575887Y-123556790D01*
X177651703Y-123403386D01*
X177651704Y-123403384D01*
X177653997Y-123398744D01*
X177718937Y-123185002D01*
X177748096Y-122963523D01*
X177749723Y-122896933D01*
X177731419Y-122674294D01*
X177676998Y-122457635D01*
X177587921Y-122252773D01*
X177472019Y-122073616D01*
X177469389Y-122069550D01*
X177469387Y-122069547D01*
X177466581Y-122065210D01*
X177316237Y-121899984D01*
X177312186Y-121896785D01*
X177312182Y-121896781D01*
X177144981Y-121764733D01*
X177144977Y-121764731D01*
X177140926Y-121761531D01*
X176945356Y-121653571D01*
X176940487Y-121651847D01*
X176940483Y-121651845D01*
X176739654Y-121580728D01*
X176739650Y-121580727D01*
X176734779Y-121579002D01*
X176729686Y-121578095D01*
X176729683Y-121578094D01*
X176519940Y-121540733D01*
X176519934Y-121540732D01*
X176514851Y-121539827D01*
X176441019Y-121538925D01*
X176296648Y-121537161D01*
X176296646Y-121537161D01*
X176291478Y-121537098D01*
X176070658Y-121570888D01*
X175858323Y-121640290D01*
X175660174Y-121743440D01*
X175656041Y-121746543D01*
X175656038Y-121746545D01*
X175485667Y-121874463D01*
X175481532Y-121877568D01*
X175327196Y-122039071D01*
X175219768Y-122196554D01*
X175164860Y-122241554D01*
X175094335Y-122249725D01*
X175030588Y-122218471D01*
X175009891Y-122193987D01*
X174929389Y-122069550D01*
X174929387Y-122069547D01*
X174926581Y-122065210D01*
X174776237Y-121899984D01*
X174772186Y-121896785D01*
X174772182Y-121896781D01*
X174604981Y-121764733D01*
X174604977Y-121764731D01*
X174600926Y-121761531D01*
X174405356Y-121653571D01*
X174400487Y-121651847D01*
X174400483Y-121651845D01*
X174199654Y-121580728D01*
X174199650Y-121580727D01*
X174194779Y-121579002D01*
X174189685Y-121578095D01*
X174184693Y-121576776D01*
X174185171Y-121574967D01*
X174128884Y-121546936D01*
X174092531Y-121485953D01*
X174094919Y-121414996D01*
X174125458Y-121365446D01*
X175599566Y-119891338D01*
X175661878Y-119857312D01*
X175688661Y-119854433D01*
X175744554Y-119854433D01*
X175751006Y-119853061D01*
X175751011Y-119853061D01*
X175837954Y-119834580D01*
X175931355Y-119814727D01*
X175937386Y-119812042D01*
X176099789Y-119739736D01*
X176099791Y-119739735D01*
X176105819Y-119737051D01*
X176260320Y-119624799D01*
X176388107Y-119482877D01*
X176483594Y-119317489D01*
X176542609Y-119135861D01*
X176562571Y-118945933D01*
X176542609Y-118756005D01*
X176483594Y-118574377D01*
X176388107Y-118408989D01*
X176332442Y-118347166D01*
X176264742Y-118271978D01*
X176264741Y-118271977D01*
X176260320Y-118267067D01*
X176105819Y-118154815D01*
X176099791Y-118152131D01*
X176099789Y-118152130D01*
X175937386Y-118079824D01*
X175937385Y-118079824D01*
X175931355Y-118077139D01*
X175837955Y-118057286D01*
X175751011Y-118038805D01*
X175751006Y-118038805D01*
X175744554Y-118037433D01*
X175553580Y-118037433D01*
X175547128Y-118038805D01*
X175547123Y-118038805D01*
X175460179Y-118057286D01*
X175366779Y-118077139D01*
X175360749Y-118079824D01*
X175360748Y-118079824D01*
X175198345Y-118152130D01*
X175198343Y-118152131D01*
X175192315Y-118154815D01*
X175037814Y-118267067D01*
X175033393Y-118271977D01*
X175033392Y-118271978D01*
X174965693Y-118347166D01*
X174910027Y-118408989D01*
X174814540Y-118574377D01*
X174755525Y-118756005D01*
X174754835Y-118762566D01*
X174754835Y-118762568D01*
X174738160Y-118921225D01*
X174711147Y-118986882D01*
X174701945Y-118997150D01*
X172825014Y-120874081D01*
X172753489Y-120966291D01*
X172743024Y-120978160D01*
X172579883Y-121141301D01*
X172576499Y-121144562D01*
X172530081Y-121187640D01*
X172521555Y-121197932D01*
X172519364Y-121201420D01*
X172517264Y-121204321D01*
X172516383Y-121205524D01*
X172280244Y-121523577D01*
X172250029Y-121572495D01*
X172123278Y-121777704D01*
X172067260Y-121868396D01*
X172066046Y-121870799D01*
X172066041Y-121870807D01*
X171965595Y-122069550D01*
X171884444Y-122230115D01*
X171883442Y-122232605D01*
X171786313Y-122473944D01*
X171733125Y-122606100D01*
X171614406Y-122993615D01*
X171529150Y-123389840D01*
X171477979Y-123791889D01*
X171468966Y-124010260D01*
X171462396Y-124169423D01*
X171461864Y-124175268D01*
X171461918Y-124175272D01*
X171461610Y-124179401D01*
X171461036Y-124183474D01*
X171460915Y-124196838D01*
X171462435Y-124209247D01*
X171464633Y-124227201D01*
X171465567Y-124242516D01*
X171465567Y-144311298D01*
X171464310Y-144329052D01*
X171461054Y-144351929D01*
X171460914Y-144365293D01*
X171461369Y-144369048D01*
X171461442Y-144370811D01*
X171477672Y-144949278D01*
X171478404Y-144975363D01*
X171529700Y-145583513D01*
X171615015Y-146187831D01*
X171734080Y-146786414D01*
X171886521Y-147377380D01*
X172071858Y-147958869D01*
X172072490Y-147960524D01*
X172283900Y-148514358D01*
X172289508Y-148529050D01*
X172538785Y-149086131D01*
X172818906Y-149628359D01*
X172819798Y-149629871D01*
X172819799Y-149629873D01*
X173066807Y-150048611D01*
X173128990Y-150154027D01*
X173129965Y-150155486D01*
X173129968Y-150155491D01*
X173467075Y-150660008D01*
X173467088Y-150660027D01*
X173468060Y-150661481D01*
X173631119Y-150878149D01*
X173656100Y-150944606D01*
X173646853Y-151002133D01*
X173599846Y-151115618D01*
X173597952Y-151120191D01*
X173596797Y-151125003D01*
X173541288Y-151356209D01*
X173541287Y-151356215D01*
X173540133Y-151361022D01*
X173520701Y-151607933D01*
X173540133Y-151854844D01*
X173541289Y-151859658D01*
X173541290Y-151859666D01*
X173548697Y-151890518D01*
X173545151Y-151961426D01*
X173503832Y-152019160D01*
X173437858Y-152045391D01*
X173426179Y-152045933D01*
X166771955Y-152045933D01*
X166703834Y-152025931D01*
X166657341Y-151972275D01*
X166647237Y-151902001D01*
X166649437Y-151890518D01*
X166656844Y-151859666D01*
X166656845Y-151859658D01*
X166658001Y-151854844D01*
X166677433Y-151607933D01*
X166658001Y-151361022D01*
X166656847Y-151356215D01*
X166656846Y-151356209D01*
X166601337Y-151125003D01*
X166600182Y-151120191D01*
X166598288Y-151115618D01*
X166507296Y-150895944D01*
X166507294Y-150895940D01*
X166505401Y-150891370D01*
X166375992Y-150680193D01*
X166215140Y-150491860D01*
X166026807Y-150331008D01*
X165815630Y-150201599D01*
X165811060Y-150199706D01*
X165811056Y-150199704D01*
X165591382Y-150108712D01*
X165591380Y-150108711D01*
X165586809Y-150106818D01*
X165464884Y-150077546D01*
X165350791Y-150050154D01*
X165350785Y-150050153D01*
X165345978Y-150048999D01*
X165099067Y-150029567D01*
X164852156Y-150048999D01*
X164847349Y-150050153D01*
X164847343Y-150050154D01*
X164733250Y-150077546D01*
X164611325Y-150106818D01*
X164606754Y-150108711D01*
X164606752Y-150108712D01*
X164387078Y-150199704D01*
X164387074Y-150199706D01*
X164382504Y-150201599D01*
X164171327Y-150331008D01*
X163982994Y-150491860D01*
X163979786Y-150495616D01*
X163834526Y-150665693D01*
X163775075Y-150704502D01*
X163704081Y-150705008D01*
X163684843Y-150697764D01*
X163454082Y-150588621D01*
X163443177Y-150582793D01*
X163159053Y-150412494D01*
X163148772Y-150405624D01*
X162882720Y-150208306D01*
X162873162Y-150200462D01*
X162627729Y-149978015D01*
X162618985Y-149969271D01*
X162396538Y-149723838D01*
X162388694Y-149714280D01*
X162191376Y-149448228D01*
X162184506Y-149437947D01*
X162014207Y-149153823D01*
X162008379Y-149142918D01*
X161866759Y-148843491D01*
X161862027Y-148832068D01*
X161750434Y-148520190D01*
X161746844Y-148508357D01*
X161666355Y-148187037D01*
X161663943Y-148174910D01*
X161632141Y-147960524D01*
X161615338Y-147847254D01*
X161614126Y-147834951D01*
X161611070Y-147772742D01*
X161599552Y-147538331D01*
X161600478Y-147515702D01*
X161601740Y-147506116D01*
X161602818Y-147497928D01*
X161598645Y-147466233D01*
X161597567Y-147449786D01*
X161597567Y-143307933D01*
X163520701Y-143307933D01*
X163540133Y-143554844D01*
X163541287Y-143559651D01*
X163541288Y-143559657D01*
X163577566Y-143710763D01*
X163597952Y-143795675D01*
X163692733Y-144024496D01*
X163822142Y-144235673D01*
X163982994Y-144424006D01*
X164171327Y-144584858D01*
X164382504Y-144714267D01*
X164387074Y-144716160D01*
X164387078Y-144716162D01*
X164606752Y-144807154D01*
X164611325Y-144809048D01*
X164696237Y-144829434D01*
X164847343Y-144865712D01*
X164847349Y-144865713D01*
X164852156Y-144866867D01*
X165099067Y-144886299D01*
X165345978Y-144866867D01*
X165350785Y-144865713D01*
X165350791Y-144865712D01*
X165501897Y-144829434D01*
X165586809Y-144809048D01*
X165591382Y-144807154D01*
X165811056Y-144716162D01*
X165811060Y-144716160D01*
X165815630Y-144714267D01*
X166026807Y-144584858D01*
X166215140Y-144424006D01*
X166375992Y-144235673D01*
X166505401Y-144024496D01*
X166600182Y-143795675D01*
X166620568Y-143710763D01*
X166656846Y-143559657D01*
X166656847Y-143559651D01*
X166658001Y-143554844D01*
X166677433Y-143307933D01*
X166658001Y-143061022D01*
X166656847Y-143056215D01*
X166656846Y-143056209D01*
X166601337Y-142825003D01*
X166600182Y-142820191D01*
X166505401Y-142591370D01*
X166375992Y-142380193D01*
X166215140Y-142191860D01*
X166026807Y-142031008D01*
X165815630Y-141901599D01*
X165747409Y-141873341D01*
X165692129Y-141828792D01*
X165669708Y-141761429D01*
X165687266Y-141692638D01*
X165739229Y-141644259D01*
X165795628Y-141630932D01*
X166108736Y-141630932D01*
X166115557Y-141630562D01*
X166166419Y-141625038D01*
X166181671Y-141621412D01*
X166302121Y-141576257D01*
X166317716Y-141567719D01*
X166419791Y-141491218D01*
X166432352Y-141478657D01*
X166508853Y-141376582D01*
X166517391Y-141360987D01*
X166562545Y-141240539D01*
X166566172Y-141225284D01*
X166571698Y-141174419D01*
X166572067Y-141167605D01*
X166572067Y-140480048D01*
X166567592Y-140464809D01*
X166566202Y-140463604D01*
X166558519Y-140461933D01*
X163644183Y-140461933D01*
X163628944Y-140466408D01*
X163627739Y-140467798D01*
X163626068Y-140475481D01*
X163626068Y-141167602D01*
X163626438Y-141174423D01*
X163631962Y-141225285D01*
X163635588Y-141240537D01*
X163680743Y-141360987D01*
X163689281Y-141376582D01*
X163765782Y-141478657D01*
X163778343Y-141491218D01*
X163880418Y-141567719D01*
X163896013Y-141576257D01*
X164016461Y-141621411D01*
X164031716Y-141625038D01*
X164082581Y-141630564D01*
X164089395Y-141630933D01*
X164402505Y-141630933D01*
X164470626Y-141650935D01*
X164517119Y-141704591D01*
X164527223Y-141774865D01*
X164497729Y-141839445D01*
X164450724Y-141873341D01*
X164422427Y-141885062D01*
X164387078Y-141899704D01*
X164387074Y-141899706D01*
X164382504Y-141901599D01*
X164171327Y-142031008D01*
X163982994Y-142191860D01*
X163822142Y-142380193D01*
X163692733Y-142591370D01*
X163597952Y-142820191D01*
X163596797Y-142825003D01*
X163541288Y-143056209D01*
X163541287Y-143056215D01*
X163540133Y-143061022D01*
X163520701Y-143307933D01*
X161597567Y-143307933D01*
X161597567Y-139935818D01*
X163626067Y-139935818D01*
X163630542Y-139951057D01*
X163631932Y-139952262D01*
X163639615Y-139953933D01*
X164826952Y-139953933D01*
X164842191Y-139949458D01*
X164843396Y-139948068D01*
X164845067Y-139940385D01*
X164845067Y-139935818D01*
X165353067Y-139935818D01*
X165357542Y-139951057D01*
X165358932Y-139952262D01*
X165366615Y-139953933D01*
X166553951Y-139953933D01*
X166569190Y-139949458D01*
X166570395Y-139948068D01*
X166572066Y-139940385D01*
X166572066Y-139248264D01*
X166571696Y-139241443D01*
X166566172Y-139190581D01*
X166562546Y-139175329D01*
X166517391Y-139054879D01*
X166508853Y-139039284D01*
X166432352Y-138937209D01*
X166419791Y-138924648D01*
X166317716Y-138848147D01*
X166302121Y-138839609D01*
X166181673Y-138794455D01*
X166166418Y-138790828D01*
X166115553Y-138785302D01*
X166108739Y-138784933D01*
X165371182Y-138784933D01*
X165355943Y-138789408D01*
X165354738Y-138790798D01*
X165353067Y-138798481D01*
X165353067Y-139935818D01*
X164845067Y-139935818D01*
X164845067Y-138803049D01*
X164840592Y-138787810D01*
X164839202Y-138786605D01*
X164831519Y-138784934D01*
X164089398Y-138784934D01*
X164082577Y-138785304D01*
X164031715Y-138790828D01*
X164016463Y-138794454D01*
X163896013Y-138839609D01*
X163880418Y-138848147D01*
X163778343Y-138924648D01*
X163765782Y-138937209D01*
X163689281Y-139039284D01*
X163680743Y-139054879D01*
X163635589Y-139175327D01*
X163631962Y-139190582D01*
X163626436Y-139241447D01*
X163626067Y-139248261D01*
X163626067Y-139935818D01*
X161597567Y-139935818D01*
X161597567Y-136344669D01*
X162417001Y-136344669D01*
X162417371Y-136351490D01*
X162422895Y-136402352D01*
X162426521Y-136417604D01*
X162471676Y-136538054D01*
X162480214Y-136553649D01*
X162556715Y-136655724D01*
X162569276Y-136668285D01*
X162671351Y-136744786D01*
X162686946Y-136753324D01*
X162807394Y-136798478D01*
X162822649Y-136802105D01*
X162873514Y-136807631D01*
X162880328Y-136808000D01*
X163552885Y-136808000D01*
X163568124Y-136803525D01*
X163569329Y-136802135D01*
X163571000Y-136794452D01*
X163571000Y-136789884D01*
X164079000Y-136789884D01*
X164083475Y-136805123D01*
X164084865Y-136806328D01*
X164092548Y-136807999D01*
X164769669Y-136807999D01*
X164776490Y-136807629D01*
X164827352Y-136802105D01*
X164842604Y-136798479D01*
X164963054Y-136753324D01*
X164978649Y-136744786D01*
X165080724Y-136668285D01*
X165093285Y-136655724D01*
X165169786Y-136553649D01*
X165178324Y-136538054D01*
X165199773Y-136480840D01*
X165242415Y-136424075D01*
X165308977Y-136399376D01*
X165378325Y-136414584D01*
X165398240Y-136428126D01*
X165554349Y-136557730D01*
X165754322Y-136674584D01*
X165970694Y-136757209D01*
X165975760Y-136758240D01*
X165975761Y-136758240D01*
X166028846Y-136769040D01*
X166197656Y-136803385D01*
X166328324Y-136808176D01*
X166423949Y-136811683D01*
X166423953Y-136811683D01*
X166429113Y-136811872D01*
X166434233Y-136811216D01*
X166434235Y-136811216D01*
X166533668Y-136798478D01*
X166658847Y-136782442D01*
X166663795Y-136780957D01*
X166663802Y-136780956D01*
X166875747Y-136717369D01*
X166880690Y-136715886D01*
X166961236Y-136676427D01*
X167084049Y-136616262D01*
X167084052Y-136616260D01*
X167088684Y-136613991D01*
X167277243Y-136479494D01*
X167441303Y-136316005D01*
X167576458Y-136127917D01*
X167679078Y-135920280D01*
X167746408Y-135698671D01*
X167776640Y-135469041D01*
X167778327Y-135400000D01*
X167772032Y-135323434D01*
X167759773Y-135174318D01*
X167759772Y-135174312D01*
X167759349Y-135169167D01*
X167702925Y-134944533D01*
X167610570Y-134732131D01*
X167484764Y-134537665D01*
X167328887Y-134366358D01*
X167324836Y-134363159D01*
X167324832Y-134363155D01*
X167151177Y-134226011D01*
X167151172Y-134226008D01*
X167147123Y-134222810D01*
X167142607Y-134220317D01*
X167142604Y-134220315D01*
X166948879Y-134113373D01*
X166948875Y-134113371D01*
X166944355Y-134110876D01*
X166939486Y-134109152D01*
X166939482Y-134109150D01*
X166730903Y-134035288D01*
X166730899Y-134035287D01*
X166726028Y-134033562D01*
X166720935Y-134032655D01*
X166720932Y-134032654D01*
X166503095Y-133993851D01*
X166503089Y-133993850D01*
X166498006Y-133992945D01*
X166420644Y-133992000D01*
X166271581Y-133990179D01*
X166271579Y-133990179D01*
X166266411Y-133990116D01*
X166037464Y-134025150D01*
X165817314Y-134097106D01*
X165812726Y-134099494D01*
X165812722Y-134099496D01*
X165676786Y-134170260D01*
X165611872Y-134204052D01*
X165607739Y-134207155D01*
X165607736Y-134207157D01*
X165441477Y-134331988D01*
X165426655Y-134343117D01*
X165418786Y-134351352D01*
X165408787Y-134361815D01*
X165347263Y-134397245D01*
X165276351Y-134393788D01*
X165218564Y-134352543D01*
X165199711Y-134318994D01*
X165178324Y-134261946D01*
X165169786Y-134246351D01*
X165093285Y-134144276D01*
X165080724Y-134131715D01*
X164978649Y-134055214D01*
X164963054Y-134046676D01*
X164842606Y-134001522D01*
X164827351Y-133997895D01*
X164776486Y-133992369D01*
X164769672Y-133992000D01*
X164097115Y-133992000D01*
X164081876Y-133996475D01*
X164080671Y-133997865D01*
X164079000Y-134005548D01*
X164079000Y-136789884D01*
X163571000Y-136789884D01*
X163571000Y-135672115D01*
X163566525Y-135656876D01*
X163565135Y-135655671D01*
X163557452Y-135654000D01*
X162435116Y-135654000D01*
X162419877Y-135658475D01*
X162418672Y-135659865D01*
X162417001Y-135667548D01*
X162417001Y-136344669D01*
X161597567Y-136344669D01*
X161597567Y-135127885D01*
X162417000Y-135127885D01*
X162421475Y-135143124D01*
X162422865Y-135144329D01*
X162430548Y-135146000D01*
X163552885Y-135146000D01*
X163568124Y-135141525D01*
X163569329Y-135140135D01*
X163571000Y-135132452D01*
X163571000Y-134010116D01*
X163566525Y-133994877D01*
X163565135Y-133993672D01*
X163557452Y-133992001D01*
X162880331Y-133992001D01*
X162873510Y-133992371D01*
X162822648Y-133997895D01*
X162807396Y-134001521D01*
X162686946Y-134046676D01*
X162671351Y-134055214D01*
X162569276Y-134131715D01*
X162556715Y-134144276D01*
X162480214Y-134246351D01*
X162471676Y-134261946D01*
X162426522Y-134382394D01*
X162422895Y-134397649D01*
X162417369Y-134448514D01*
X162417000Y-134455328D01*
X162417000Y-135127885D01*
X161597567Y-135127885D01*
X161597567Y-131485933D01*
X163490701Y-131485933D01*
X163510133Y-131732844D01*
X163511287Y-131737651D01*
X163511288Y-131737657D01*
X163529514Y-131813571D01*
X163567952Y-131973675D01*
X163569845Y-131978246D01*
X163569846Y-131978248D01*
X163638556Y-132144127D01*
X163662733Y-132202496D01*
X163792142Y-132413673D01*
X163952994Y-132602006D01*
X164141327Y-132762858D01*
X164352504Y-132892267D01*
X164357074Y-132894160D01*
X164357078Y-132894162D01*
X164576752Y-132985154D01*
X164581325Y-132987048D01*
X164666237Y-133007434D01*
X164817343Y-133043712D01*
X164817349Y-133043713D01*
X164822156Y-133044867D01*
X165069067Y-133064299D01*
X165315978Y-133044867D01*
X165320785Y-133043713D01*
X165320791Y-133043712D01*
X165471897Y-133007434D01*
X165556809Y-132987048D01*
X165561382Y-132985154D01*
X165781056Y-132894162D01*
X165781060Y-132894160D01*
X165785630Y-132892267D01*
X165996807Y-132762858D01*
X166185140Y-132602006D01*
X166345992Y-132413673D01*
X166475401Y-132202496D01*
X166499579Y-132144127D01*
X166568288Y-131978248D01*
X166568289Y-131978246D01*
X166570182Y-131973675D01*
X166608620Y-131813571D01*
X166626846Y-131737657D01*
X166626847Y-131737651D01*
X166628001Y-131732844D01*
X166647433Y-131485933D01*
X166628001Y-131239022D01*
X166626847Y-131234215D01*
X166626846Y-131234209D01*
X166576186Y-131023200D01*
X166570182Y-130998191D01*
X166523596Y-130885723D01*
X166477296Y-130773944D01*
X166477294Y-130773940D01*
X166475401Y-130769370D01*
X166345992Y-130558193D01*
X166185140Y-130369860D01*
X165996807Y-130209008D01*
X165785630Y-130079599D01*
X165781060Y-130077706D01*
X165781056Y-130077704D01*
X165561382Y-129986712D01*
X165561380Y-129986711D01*
X165556809Y-129984818D01*
X165471897Y-129964432D01*
X165320791Y-129928154D01*
X165320785Y-129928153D01*
X165315978Y-129926999D01*
X165069067Y-129907567D01*
X164822156Y-129926999D01*
X164817349Y-129928153D01*
X164817343Y-129928154D01*
X164666237Y-129964432D01*
X164581325Y-129984818D01*
X164576754Y-129986711D01*
X164576752Y-129986712D01*
X164357078Y-130077704D01*
X164357074Y-130077706D01*
X164352504Y-130079599D01*
X164141327Y-130209008D01*
X163952994Y-130369860D01*
X163792142Y-130558193D01*
X163662733Y-130769370D01*
X163660840Y-130773940D01*
X163660838Y-130773944D01*
X163614538Y-130885723D01*
X163567952Y-130998191D01*
X163561948Y-131023200D01*
X163511288Y-131234209D01*
X163511287Y-131234215D01*
X163510133Y-131239022D01*
X163490701Y-131485933D01*
X161597567Y-131485933D01*
X161597567Y-123185933D01*
X163490701Y-123185933D01*
X163510133Y-123432844D01*
X163511287Y-123437651D01*
X163511288Y-123437657D01*
X163536953Y-123544558D01*
X163567952Y-123673675D01*
X163569845Y-123678246D01*
X163569846Y-123678248D01*
X163660240Y-123896477D01*
X163662733Y-123902496D01*
X163792142Y-124113673D01*
X163952994Y-124302006D01*
X164141327Y-124462858D01*
X164352504Y-124592267D01*
X164357074Y-124594160D01*
X164357078Y-124594162D01*
X164563566Y-124679692D01*
X164581325Y-124687048D01*
X164666237Y-124707434D01*
X164817343Y-124743712D01*
X164817349Y-124743713D01*
X164822156Y-124744867D01*
X165069067Y-124764299D01*
X165315978Y-124744867D01*
X165320785Y-124743713D01*
X165320791Y-124743712D01*
X165471897Y-124707434D01*
X165556809Y-124687048D01*
X165574568Y-124679692D01*
X165781056Y-124594162D01*
X165781060Y-124594160D01*
X165785630Y-124592267D01*
X165996807Y-124462858D01*
X166185140Y-124302006D01*
X166345992Y-124113673D01*
X166475401Y-123902496D01*
X166477895Y-123896477D01*
X166568288Y-123678248D01*
X166568289Y-123678246D01*
X166570182Y-123673675D01*
X166601181Y-123544558D01*
X166626846Y-123437657D01*
X166626847Y-123437651D01*
X166628001Y-123432844D01*
X166647433Y-123185933D01*
X166628001Y-122939022D01*
X166626847Y-122934215D01*
X166626846Y-122934209D01*
X166571337Y-122703003D01*
X166570182Y-122698191D01*
X166475401Y-122469370D01*
X166345992Y-122258193D01*
X166185140Y-122069860D01*
X165996807Y-121909008D01*
X165785630Y-121779599D01*
X165717409Y-121751341D01*
X165662129Y-121706792D01*
X165639708Y-121639429D01*
X165657266Y-121570638D01*
X165709229Y-121522259D01*
X165765628Y-121508932D01*
X166078736Y-121508932D01*
X166085557Y-121508562D01*
X166136419Y-121503038D01*
X166151671Y-121499412D01*
X166272121Y-121454257D01*
X166287716Y-121445719D01*
X166389791Y-121369218D01*
X166402352Y-121356657D01*
X166478853Y-121254582D01*
X166487391Y-121238987D01*
X166532545Y-121118539D01*
X166536172Y-121103284D01*
X166541698Y-121052419D01*
X166542067Y-121045605D01*
X166542067Y-120358048D01*
X166537592Y-120342809D01*
X166536202Y-120341604D01*
X166528519Y-120339933D01*
X163614183Y-120339933D01*
X163598944Y-120344408D01*
X163597739Y-120345798D01*
X163596068Y-120353481D01*
X163596068Y-121045602D01*
X163596438Y-121052423D01*
X163601962Y-121103285D01*
X163605588Y-121118537D01*
X163650743Y-121238987D01*
X163659281Y-121254582D01*
X163735782Y-121356657D01*
X163748343Y-121369218D01*
X163850418Y-121445719D01*
X163866013Y-121454257D01*
X163986461Y-121499411D01*
X164001716Y-121503038D01*
X164052581Y-121508564D01*
X164059395Y-121508933D01*
X164372505Y-121508933D01*
X164440626Y-121528935D01*
X164487119Y-121582591D01*
X164497223Y-121652865D01*
X164467729Y-121717445D01*
X164420724Y-121751341D01*
X164402152Y-121759034D01*
X164357078Y-121777704D01*
X164357074Y-121777706D01*
X164352504Y-121779599D01*
X164141327Y-121909008D01*
X163952994Y-122069860D01*
X163792142Y-122258193D01*
X163662733Y-122469370D01*
X163567952Y-122698191D01*
X163566797Y-122703003D01*
X163511288Y-122934209D01*
X163511287Y-122934215D01*
X163510133Y-122939022D01*
X163490701Y-123185933D01*
X161597567Y-123185933D01*
X161597567Y-119813818D01*
X163596067Y-119813818D01*
X163600542Y-119829057D01*
X163601932Y-119830262D01*
X163609615Y-119831933D01*
X164796952Y-119831933D01*
X164812191Y-119827458D01*
X164813396Y-119826068D01*
X164815067Y-119818385D01*
X164815067Y-119813818D01*
X165323067Y-119813818D01*
X165327542Y-119829057D01*
X165328932Y-119830262D01*
X165336615Y-119831933D01*
X166523951Y-119831933D01*
X166539190Y-119827458D01*
X166540395Y-119826068D01*
X166542066Y-119818385D01*
X166542066Y-119126264D01*
X166541696Y-119119443D01*
X166536172Y-119068581D01*
X166532546Y-119053329D01*
X166487391Y-118932879D01*
X166478853Y-118917284D01*
X166402352Y-118815209D01*
X166389791Y-118802648D01*
X166287716Y-118726147D01*
X166272121Y-118717609D01*
X166151673Y-118672455D01*
X166136418Y-118668828D01*
X166085553Y-118663302D01*
X166078739Y-118662933D01*
X165341182Y-118662933D01*
X165325943Y-118667408D01*
X165324738Y-118668798D01*
X165323067Y-118676481D01*
X165323067Y-119813818D01*
X164815067Y-119813818D01*
X164815067Y-118681049D01*
X164810592Y-118665810D01*
X164809202Y-118664605D01*
X164801519Y-118662934D01*
X164059398Y-118662934D01*
X164052577Y-118663304D01*
X164001715Y-118668828D01*
X163986463Y-118672454D01*
X163866013Y-118717609D01*
X163850418Y-118726147D01*
X163748343Y-118802648D01*
X163735782Y-118815209D01*
X163659281Y-118917284D01*
X163650743Y-118932879D01*
X163605589Y-119053327D01*
X163601962Y-119068582D01*
X163596436Y-119119447D01*
X163596067Y-119126261D01*
X163596067Y-119813818D01*
X161597567Y-119813818D01*
X161597567Y-111020193D01*
X161617569Y-110952072D01*
X161671225Y-110905579D01*
X161741499Y-110895475D01*
X161797628Y-110918257D01*
X161848579Y-110955275D01*
X161892315Y-110987051D01*
X161898343Y-110989735D01*
X161898345Y-110989736D01*
X162060748Y-111062042D01*
X162066779Y-111064727D01*
X162160180Y-111084580D01*
X162247123Y-111103061D01*
X162247128Y-111103061D01*
X162253580Y-111104433D01*
X162444554Y-111104433D01*
X162451006Y-111103061D01*
X162451011Y-111103061D01*
X162537954Y-111084580D01*
X162631355Y-111064727D01*
X162637386Y-111062042D01*
X162799789Y-110989736D01*
X162799791Y-110989735D01*
X162805819Y-110987051D01*
X162960320Y-110874799D01*
X163088107Y-110732877D01*
X163183594Y-110567489D01*
X163238454Y-110398647D01*
X163269192Y-110348489D01*
X164072079Y-109545602D01*
X166251068Y-109545602D01*
X166251438Y-109552423D01*
X166256962Y-109603285D01*
X166260588Y-109618537D01*
X166305743Y-109738987D01*
X166314281Y-109754582D01*
X166390782Y-109856657D01*
X166403343Y-109869218D01*
X166505418Y-109945719D01*
X166521013Y-109954257D01*
X166641461Y-109999411D01*
X166656716Y-110003038D01*
X166707581Y-110008564D01*
X166714395Y-110008933D01*
X167386952Y-110008933D01*
X167402191Y-110004458D01*
X167403396Y-110003068D01*
X167405067Y-109995385D01*
X167405067Y-108873048D01*
X167400592Y-108857809D01*
X167399202Y-108856604D01*
X167391519Y-108854933D01*
X166269183Y-108854933D01*
X166253944Y-108859408D01*
X166252739Y-108860798D01*
X166251068Y-108868481D01*
X166251068Y-109545602D01*
X164072079Y-109545602D01*
X165536418Y-108081263D01*
X165548275Y-108070808D01*
X165571816Y-108052547D01*
X165576287Y-108047104D01*
X165588672Y-108032026D01*
X165601419Y-108018642D01*
X165810315Y-107829304D01*
X165819874Y-107821460D01*
X165936758Y-107734771D01*
X166050009Y-107650777D01*
X166116638Y-107626262D01*
X166185944Y-107641662D01*
X166235922Y-107692087D01*
X166251067Y-107751980D01*
X166251067Y-108328818D01*
X166255542Y-108344057D01*
X166256932Y-108345262D01*
X166264615Y-108346933D01*
X167787067Y-108346933D01*
X167855188Y-108366935D01*
X167901681Y-108420591D01*
X167913067Y-108472933D01*
X167913067Y-109990817D01*
X167917542Y-110006056D01*
X167918932Y-110007261D01*
X167926615Y-110008932D01*
X168354781Y-110008932D01*
X168422902Y-110028934D01*
X168469395Y-110082590D01*
X168479499Y-110152864D01*
X168450005Y-110217444D01*
X168390279Y-110255828D01*
X168380976Y-110258179D01*
X168291779Y-110277139D01*
X168285749Y-110279824D01*
X168285748Y-110279824D01*
X168123345Y-110352130D01*
X168123343Y-110352131D01*
X168117315Y-110354815D01*
X168111974Y-110358695D01*
X168111973Y-110358696D01*
X168074584Y-110385861D01*
X167962814Y-110467067D01*
X167958393Y-110471977D01*
X167958392Y-110471978D01*
X167903423Y-110533028D01*
X167835027Y-110608989D01*
X167739540Y-110774377D01*
X167680525Y-110956005D01*
X167660563Y-111145933D01*
X167680525Y-111335861D01*
X167739540Y-111517489D01*
X167835027Y-111682877D01*
X167839445Y-111687784D01*
X167839446Y-111687785D01*
X167898416Y-111753278D01*
X167962814Y-111824799D01*
X168117315Y-111937051D01*
X168123343Y-111939735D01*
X168123345Y-111939736D01*
X168285748Y-112012042D01*
X168291779Y-112014727D01*
X168385179Y-112034580D01*
X168472123Y-112053061D01*
X168472128Y-112053061D01*
X168478580Y-112054433D01*
X168669554Y-112054433D01*
X168676006Y-112053061D01*
X168676011Y-112053061D01*
X168762954Y-112034580D01*
X168856355Y-112014727D01*
X168862386Y-112012042D01*
X169024789Y-111939736D01*
X169024791Y-111939735D01*
X169030819Y-111937051D01*
X169185320Y-111824799D01*
X169211141Y-111796122D01*
X169271587Y-111758883D01*
X169304777Y-111754433D01*
X174075931Y-111754433D01*
X174092374Y-111755511D01*
X174124067Y-111759683D01*
X174132256Y-111758605D01*
X174163940Y-111754434D01*
X174163964Y-111754432D01*
X174172726Y-111753278D01*
X174189172Y-111752200D01*
X174477534Y-111752200D01*
X174484719Y-111752405D01*
X174543781Y-111755779D01*
X174551864Y-111754101D01*
X174551873Y-111754100D01*
X174555484Y-111753350D01*
X174564590Y-111751805D01*
X174821671Y-111717834D01*
X174821672Y-111717834D01*
X174825273Y-111717358D01*
X175100721Y-111648065D01*
X175366391Y-111547603D01*
X175562297Y-111446457D01*
X175632002Y-111432978D01*
X175697929Y-111459325D01*
X175739146Y-111517133D01*
X175743388Y-111584421D01*
X175692680Y-111824799D01*
X175603887Y-112245718D01*
X175602554Y-112251384D01*
X175417210Y-112965030D01*
X175415617Y-112970629D01*
X175197507Y-113674966D01*
X175195658Y-113680483D01*
X174945251Y-114374000D01*
X174943163Y-114379389D01*
X174660988Y-115060616D01*
X174658637Y-115065941D01*
X174345304Y-115733403D01*
X174342709Y-115738613D01*
X173998909Y-116390848D01*
X173996077Y-116395934D01*
X173622492Y-117031642D01*
X173619428Y-117036590D01*
X173216901Y-117654340D01*
X173213611Y-117659142D01*
X172782966Y-118257666D01*
X172779471Y-118262295D01*
X172458584Y-118667408D01*
X172321668Y-118840261D01*
X172317950Y-118844739D01*
X171833904Y-119400990D01*
X171829982Y-119405291D01*
X171348947Y-119909077D01*
X171334524Y-119922024D01*
X171318355Y-119934431D01*
X171318348Y-119934437D01*
X171315081Y-119936944D01*
X171315080Y-119936945D01*
X171312569Y-119940218D01*
X171311286Y-119941680D01*
X171304297Y-119949863D01*
X170932548Y-120341604D01*
X170875530Y-120401688D01*
X170874468Y-120402932D01*
X170874463Y-120402937D01*
X170461194Y-120886810D01*
X170461184Y-120886822D01*
X170460109Y-120888081D01*
X170070714Y-121395550D01*
X170069794Y-121396889D01*
X170069785Y-121396901D01*
X169741565Y-121874463D01*
X169708411Y-121922702D01*
X169707563Y-121924086D01*
X169707559Y-121924092D01*
X169621082Y-122065210D01*
X169374193Y-122468094D01*
X169068978Y-123030229D01*
X168793600Y-123607569D01*
X168655445Y-123941104D01*
X168582408Y-124117432D01*
X168548816Y-124198529D01*
X168335296Y-124801490D01*
X168334828Y-124803070D01*
X168334827Y-124803073D01*
X168211465Y-125219537D01*
X168153625Y-125414800D01*
X168131533Y-125506820D01*
X168004681Y-126035192D01*
X168004677Y-126035211D01*
X168004301Y-126036777D01*
X167887734Y-126665717D01*
X167804243Y-127299896D01*
X167754057Y-127937575D01*
X167737750Y-128560321D01*
X167737327Y-128565693D01*
X167737327Y-128568814D01*
X167736249Y-128577006D01*
X167737327Y-128585194D01*
X167740422Y-128608703D01*
X167741500Y-128625149D01*
X167741500Y-132363463D01*
X167721498Y-132431584D01*
X167709143Y-132447765D01*
X167610962Y-132556806D01*
X167515475Y-132722194D01*
X167456460Y-132903822D01*
X167436498Y-133093750D01*
X167456460Y-133283678D01*
X167515475Y-133465306D01*
X167610962Y-133630694D01*
X167738749Y-133772616D01*
X167893250Y-133884868D01*
X167899278Y-133887552D01*
X167899280Y-133887553D01*
X168061683Y-133959859D01*
X168067714Y-133962544D01*
X168148290Y-133979671D01*
X168248058Y-134000878D01*
X168248063Y-134000878D01*
X168254515Y-134002250D01*
X168445489Y-134002250D01*
X168451941Y-134000878D01*
X168451946Y-134000878D01*
X168551714Y-133979671D01*
X168632290Y-133962544D01*
X168638321Y-133959859D01*
X168800724Y-133887553D01*
X168800726Y-133887552D01*
X168806754Y-133884868D01*
X168961255Y-133772616D01*
X169089042Y-133630694D01*
X169184529Y-133465306D01*
X169243544Y-133283678D01*
X169263506Y-133093750D01*
X169243544Y-132903822D01*
X169184529Y-132722194D01*
X169089042Y-132556806D01*
X168990864Y-132447768D01*
X168960146Y-132383761D01*
X168958500Y-132363458D01*
X168958500Y-128625149D01*
X168959578Y-128608703D01*
X168962673Y-128585194D01*
X168963751Y-128577006D01*
X168962673Y-128568819D01*
X168962673Y-128568814D01*
X168960732Y-128554070D01*
X168959704Y-128534091D01*
X168975700Y-127963957D01*
X168976096Y-127956901D01*
X169027346Y-127349303D01*
X169028137Y-127342279D01*
X169033889Y-127301538D01*
X169113380Y-126738482D01*
X169114561Y-126731530D01*
X169117282Y-126717855D01*
X169221332Y-126194756D01*
X169233519Y-126133489D01*
X169235092Y-126126598D01*
X169387393Y-125536177D01*
X169389349Y-125529386D01*
X169574525Y-124948404D01*
X169576860Y-124941733D01*
X169634540Y-124790627D01*
X169794312Y-124372072D01*
X169797000Y-124365579D01*
X170046071Y-123808960D01*
X170049135Y-123802599D01*
X170054668Y-123791889D01*
X170329007Y-123260855D01*
X170332421Y-123254679D01*
X170370066Y-123190863D01*
X170642224Y-122729489D01*
X170645984Y-122723505D01*
X170984751Y-122216507D01*
X170988841Y-122210743D01*
X171355491Y-121723551D01*
X171359897Y-121718025D01*
X171369383Y-121706792D01*
X171486170Y-121568488D01*
X171753308Y-121252135D01*
X171758018Y-121246865D01*
X172149884Y-120832375D01*
X172164734Y-120818978D01*
X172183053Y-120804922D01*
X172183056Y-120804919D01*
X172185573Y-120801639D01*
X172186739Y-120800309D01*
X172190341Y-120796374D01*
X172733782Y-120227230D01*
X172733789Y-120227223D01*
X172734790Y-120226174D01*
X172975234Y-119949863D01*
X173258728Y-119624081D01*
X173258736Y-119624071D01*
X173259677Y-119622990D01*
X173497130Y-119323212D01*
X173755234Y-118997361D01*
X173755240Y-118997353D01*
X173756147Y-118996208D01*
X174223140Y-118347166D01*
X174350226Y-118152130D01*
X174658869Y-117678462D01*
X174658876Y-117678450D01*
X174659659Y-117677249D01*
X175064774Y-116987887D01*
X175437619Y-116280551D01*
X175777400Y-115556750D01*
X176083390Y-114818029D01*
X176354937Y-114065965D01*
X176355372Y-114064561D01*
X176591035Y-113303540D01*
X176591040Y-113303524D01*
X176591461Y-113302163D01*
X176591824Y-113300766D01*
X176792096Y-112529644D01*
X176792101Y-112529623D01*
X176792457Y-112528252D01*
X176868693Y-112166859D01*
X176957202Y-111747289D01*
X176957205Y-111747273D01*
X176957498Y-111745884D01*
X176962152Y-111717358D01*
X177075876Y-111020193D01*
X177086229Y-110956728D01*
X177086770Y-110952072D01*
X177157071Y-110346120D01*
X177178378Y-110162470D01*
X177233746Y-109364803D01*
X177244613Y-108894477D01*
X177251993Y-108575107D01*
X177251993Y-108575105D01*
X177252088Y-108570976D01*
X177252818Y-108565430D01*
X177248645Y-108533733D01*
X177247567Y-108517287D01*
X177247567Y-101483502D01*
X177267569Y-101415381D01*
X177321225Y-101368888D01*
X177391499Y-101358784D01*
X177418516Y-101365792D01*
X177515001Y-101402636D01*
X177524899Y-101405512D01*
X177733595Y-101447971D01*
X177743823Y-101449190D01*
X177956650Y-101456995D01*
X177966936Y-101456528D01*
X178178185Y-101429467D01*
X178188262Y-101427325D01*
X178392255Y-101366124D01*
X178401842Y-101362366D01*
X178593098Y-101268671D01*
X178601944Y-101263398D01*
X178649247Y-101229656D01*
X178657648Y-101218956D01*
X178650660Y-101205803D01*
X177629885Y-100185028D01*
X177595859Y-100122716D01*
X177597694Y-100097065D01*
X178264408Y-100097065D01*
X178264539Y-100098898D01*
X178268790Y-100105513D01*
X179010474Y-100847197D01*
X179022484Y-100853756D01*
X179034223Y-100844788D01*
X179065004Y-100801952D01*
X179070315Y-100793113D01*
X179164670Y-100602200D01*
X179168469Y-100592605D01*
X179230376Y-100388848D01*
X179232555Y-100378767D01*
X179260590Y-100165820D01*
X179261109Y-100159145D01*
X179262572Y-100099297D01*
X179262378Y-100092579D01*
X179244781Y-99878537D01*
X179243096Y-99868357D01*
X179191214Y-99661808D01*
X179187894Y-99652057D01*
X179102972Y-99456747D01*
X179098105Y-99447672D01*
X179033063Y-99347130D01*
X179022377Y-99337928D01*
X179012812Y-99342331D01*
X178272022Y-100083121D01*
X178264408Y-100097065D01*
X177597694Y-100097065D01*
X177600924Y-100051901D01*
X177629885Y-100006838D01*
X178653389Y-98983334D01*
X178660410Y-98970477D01*
X178653611Y-98961146D01*
X178649559Y-98958454D01*
X178612602Y-98938053D01*
X178562631Y-98887620D01*
X178547859Y-98818178D01*
X178572975Y-98751772D01*
X178600327Y-98725165D01*
X178624040Y-98708251D01*
X178779860Y-98597106D01*
X178938096Y-98439422D01*
X178997594Y-98356622D01*
X179065435Y-98262210D01*
X179068453Y-98258010D01*
X179167430Y-98057744D01*
X179232370Y-97844002D01*
X179261529Y-97622523D01*
X179263156Y-97555933D01*
X179244852Y-97333294D01*
X179190431Y-97116635D01*
X179101354Y-96911773D01*
X178980014Y-96724210D01*
X178829670Y-96558984D01*
X178825619Y-96555785D01*
X178825615Y-96555781D01*
X178658414Y-96423733D01*
X178658410Y-96423731D01*
X178654359Y-96420531D01*
X178613053Y-96397729D01*
X178563084Y-96347297D01*
X178548312Y-96277854D01*
X178573428Y-96211449D01*
X178600780Y-96184842D01*
X178644603Y-96153583D01*
X178779860Y-96057106D01*
X178938096Y-95899422D01*
X178997594Y-95816622D01*
X179065435Y-95722210D01*
X179068453Y-95718010D01*
X179167430Y-95517744D01*
X179232370Y-95304002D01*
X179261529Y-95082523D01*
X179263156Y-95015933D01*
X179244852Y-94793294D01*
X179190431Y-94576635D01*
X179101354Y-94371773D01*
X178980014Y-94184210D01*
X178829670Y-94018984D01*
X178825619Y-94015785D01*
X178825615Y-94015781D01*
X178658414Y-93883733D01*
X178658410Y-93883731D01*
X178654359Y-93880531D01*
X178613053Y-93857729D01*
X178563084Y-93807297D01*
X178548312Y-93737854D01*
X178573428Y-93671449D01*
X178600780Y-93644842D01*
X178644603Y-93613583D01*
X178779860Y-93517106D01*
X178938096Y-93359422D01*
X178997594Y-93276622D01*
X179065435Y-93182210D01*
X179068453Y-93178010D01*
X179167430Y-92977744D01*
X179232370Y-92764002D01*
X179261529Y-92542523D01*
X179263156Y-92475933D01*
X179244852Y-92253294D01*
X179190431Y-92036635D01*
X179101354Y-91831773D01*
X178980014Y-91644210D01*
X178829670Y-91478984D01*
X178825619Y-91475785D01*
X178825615Y-91475781D01*
X178658414Y-91343733D01*
X178658410Y-91343731D01*
X178654359Y-91340531D01*
X178613053Y-91317729D01*
X178563084Y-91267297D01*
X178548312Y-91197854D01*
X178573428Y-91131449D01*
X178600780Y-91104842D01*
X178644603Y-91073583D01*
X178779860Y-90977106D01*
X178938096Y-90819422D01*
X178970144Y-90774823D01*
X179065435Y-90642210D01*
X179068453Y-90638010D01*
X179109766Y-90554420D01*
X179165136Y-90442386D01*
X179165137Y-90442384D01*
X179167430Y-90437744D01*
X179232370Y-90224002D01*
X179261529Y-90002523D01*
X179261726Y-89994458D01*
X179263074Y-89939298D01*
X179263074Y-89939294D01*
X179263156Y-89935933D01*
X179244852Y-89713294D01*
X179190431Y-89496635D01*
X179101354Y-89291773D01*
X179060207Y-89228170D01*
X178982822Y-89108550D01*
X178982820Y-89108547D01*
X178980014Y-89104210D01*
X178829670Y-88938984D01*
X178825619Y-88935785D01*
X178825615Y-88935781D01*
X178658414Y-88803733D01*
X178658410Y-88803731D01*
X178654359Y-88800531D01*
X178613053Y-88777729D01*
X178563084Y-88727297D01*
X178548312Y-88657854D01*
X178573428Y-88591449D01*
X178600780Y-88564842D01*
X178644603Y-88533583D01*
X178779860Y-88437106D01*
X178938096Y-88279422D01*
X178997594Y-88196622D01*
X179065435Y-88102210D01*
X179068453Y-88098010D01*
X179167430Y-87897744D01*
X179232370Y-87684002D01*
X179261529Y-87462523D01*
X179263156Y-87395933D01*
X179244852Y-87173294D01*
X179190431Y-86956635D01*
X179101354Y-86751773D01*
X178980014Y-86564210D01*
X178829670Y-86398984D01*
X178825619Y-86395785D01*
X178825615Y-86395781D01*
X178658414Y-86263733D01*
X178658410Y-86263731D01*
X178654359Y-86260531D01*
X178613053Y-86237729D01*
X178563084Y-86187297D01*
X178548312Y-86117854D01*
X178573428Y-86051449D01*
X178600780Y-86024842D01*
X178644603Y-85993583D01*
X178779860Y-85897106D01*
X178938096Y-85739422D01*
X178997594Y-85656622D01*
X179065435Y-85562210D01*
X179068453Y-85558010D01*
X179138537Y-85416206D01*
X179165136Y-85362386D01*
X179165137Y-85362384D01*
X179167430Y-85357744D01*
X179232370Y-85144002D01*
X179261529Y-84922523D01*
X179263156Y-84855933D01*
X179244852Y-84633294D01*
X179190431Y-84416635D01*
X179101354Y-84211773D01*
X178980014Y-84024210D01*
X178829670Y-83858984D01*
X178825619Y-83855785D01*
X178825615Y-83855781D01*
X178658414Y-83723733D01*
X178658410Y-83723731D01*
X178654359Y-83720531D01*
X178613053Y-83697729D01*
X178563084Y-83647297D01*
X178548312Y-83577854D01*
X178573428Y-83511449D01*
X178600780Y-83484842D01*
X178644603Y-83453583D01*
X178779860Y-83357106D01*
X178938096Y-83199422D01*
X178997594Y-83116622D01*
X179065435Y-83022210D01*
X179068453Y-83018010D01*
X179104076Y-82945933D01*
X179165136Y-82822386D01*
X179165137Y-82822384D01*
X179167430Y-82817744D01*
X179232370Y-82604002D01*
X179261529Y-82382523D01*
X179263156Y-82315933D01*
X179244852Y-82093294D01*
X179190431Y-81876635D01*
X179101354Y-81671773D01*
X178980014Y-81484210D01*
X178829670Y-81318984D01*
X178825619Y-81315785D01*
X178825615Y-81315781D01*
X178658414Y-81183733D01*
X178658410Y-81183731D01*
X178654359Y-81180531D01*
X178613053Y-81157729D01*
X178563084Y-81107297D01*
X178548312Y-81037854D01*
X178573428Y-80971449D01*
X178600780Y-80944842D01*
X178644603Y-80913583D01*
X178779860Y-80817106D01*
X178938096Y-80659422D01*
X178997594Y-80576622D01*
X179065435Y-80482210D01*
X179068453Y-80478010D01*
X179167430Y-80277744D01*
X179232370Y-80064002D01*
X179261529Y-79842523D01*
X179263156Y-79775933D01*
X179244852Y-79553294D01*
X179190431Y-79336635D01*
X179101354Y-79131773D01*
X178980014Y-78944210D01*
X178829670Y-78778984D01*
X178825619Y-78775785D01*
X178825615Y-78775781D01*
X178658414Y-78643733D01*
X178658410Y-78643731D01*
X178654359Y-78640531D01*
X178613053Y-78617729D01*
X178563084Y-78567297D01*
X178548312Y-78497854D01*
X178573428Y-78431449D01*
X178600780Y-78404842D01*
X178644603Y-78373583D01*
X178779860Y-78277106D01*
X178938096Y-78119422D01*
X178997594Y-78036622D01*
X179065435Y-77942210D01*
X179068453Y-77938010D01*
X179167430Y-77737744D01*
X179232370Y-77524002D01*
X179261529Y-77302523D01*
X179263156Y-77235933D01*
X179244852Y-77013294D01*
X179190431Y-76796635D01*
X179101354Y-76591773D01*
X178980014Y-76404210D01*
X178829670Y-76238984D01*
X178825619Y-76235785D01*
X178825615Y-76235781D01*
X178658414Y-76103733D01*
X178658410Y-76103731D01*
X178654359Y-76100531D01*
X178613053Y-76077729D01*
X178563084Y-76027297D01*
X178548312Y-75957854D01*
X178573428Y-75891449D01*
X178600780Y-75864842D01*
X178644603Y-75833583D01*
X178779860Y-75737106D01*
X178938096Y-75579422D01*
X178997594Y-75496622D01*
X179065435Y-75402210D01*
X179068453Y-75398010D01*
X179167430Y-75197744D01*
X179232370Y-74984002D01*
X179261529Y-74762523D01*
X179263156Y-74695933D01*
X179244852Y-74473294D01*
X179190431Y-74256635D01*
X179101354Y-74051773D01*
X178980014Y-73864210D01*
X178829670Y-73698984D01*
X178825619Y-73695785D01*
X178825615Y-73695781D01*
X178658414Y-73563733D01*
X178658410Y-73563731D01*
X178654359Y-73560531D01*
X178613053Y-73537729D01*
X178563084Y-73487297D01*
X178548312Y-73417854D01*
X178573428Y-73351449D01*
X178600780Y-73324842D01*
X178644603Y-73293583D01*
X178779860Y-73197106D01*
X178792329Y-73184681D01*
X178934435Y-73043070D01*
X178938096Y-73039422D01*
X178997594Y-72956622D01*
X179065435Y-72862210D01*
X179068453Y-72858010D01*
X179167430Y-72657744D01*
X179232370Y-72444002D01*
X179261529Y-72222523D01*
X179263156Y-72155933D01*
X179244852Y-71933294D01*
X179190431Y-71716635D01*
X179101354Y-71511773D01*
X178980014Y-71324210D01*
X178829670Y-71158984D01*
X178825619Y-71155785D01*
X178825615Y-71155781D01*
X178658414Y-71023733D01*
X178658410Y-71023731D01*
X178654359Y-71020531D01*
X178613053Y-70997729D01*
X178563084Y-70947297D01*
X178548312Y-70877854D01*
X178573428Y-70811449D01*
X178600780Y-70784842D01*
X178644603Y-70753583D01*
X178779860Y-70657106D01*
X178792329Y-70644681D01*
X178934435Y-70503070D01*
X178938096Y-70499422D01*
X178997594Y-70416622D01*
X179065435Y-70322210D01*
X179068453Y-70318010D01*
X179167430Y-70117744D01*
X179204606Y-69995385D01*
X179230865Y-69908956D01*
X179230865Y-69908954D01*
X179232370Y-69904002D01*
X179261529Y-69682523D01*
X179262217Y-69654384D01*
X179263074Y-69619298D01*
X179263074Y-69619294D01*
X179263156Y-69615933D01*
X179244852Y-69393294D01*
X179190431Y-69176635D01*
X179101354Y-68971773D01*
X178980014Y-68784210D01*
X178829670Y-68618984D01*
X178825619Y-68615785D01*
X178825615Y-68615781D01*
X178658414Y-68483733D01*
X178658410Y-68483731D01*
X178654359Y-68480531D01*
X178613053Y-68457729D01*
X178563084Y-68407297D01*
X178548312Y-68337854D01*
X178573428Y-68271449D01*
X178600780Y-68244842D01*
X178644603Y-68213583D01*
X178779860Y-68117106D01*
X178792329Y-68104681D01*
X178934435Y-67963070D01*
X178938096Y-67959422D01*
X178997594Y-67876622D01*
X179065435Y-67782210D01*
X179068453Y-67778010D01*
X179103173Y-67707760D01*
X179165136Y-67582386D01*
X179165137Y-67582384D01*
X179167430Y-67577744D01*
X179232370Y-67364002D01*
X179261529Y-67142523D01*
X179263156Y-67075933D01*
X179244852Y-66853294D01*
X179190431Y-66636635D01*
X179101354Y-66431773D01*
X178980014Y-66244210D01*
X178829670Y-66078984D01*
X178825619Y-66075785D01*
X178825615Y-66075781D01*
X178658414Y-65943733D01*
X178658410Y-65943731D01*
X178654359Y-65940531D01*
X178613053Y-65917729D01*
X178563084Y-65867297D01*
X178548312Y-65797854D01*
X178573428Y-65731449D01*
X178600780Y-65704842D01*
X178644603Y-65673583D01*
X178779860Y-65577106D01*
X178938096Y-65419422D01*
X178997594Y-65336622D01*
X179065435Y-65242210D01*
X179068453Y-65238010D01*
X179167430Y-65037744D01*
X179232370Y-64824002D01*
X179261529Y-64602523D01*
X179263156Y-64535933D01*
X179244852Y-64313294D01*
X179190431Y-64096635D01*
X179101354Y-63891773D01*
X178980014Y-63704210D01*
X178829670Y-63538984D01*
X178825619Y-63535785D01*
X178825615Y-63535781D01*
X178658414Y-63403733D01*
X178658410Y-63403731D01*
X178654359Y-63400531D01*
X178613053Y-63377729D01*
X178563084Y-63327297D01*
X178548312Y-63257854D01*
X178573428Y-63191449D01*
X178600780Y-63164842D01*
X178644603Y-63133583D01*
X178779860Y-63037106D01*
X178938096Y-62879422D01*
X178997594Y-62796622D01*
X179065435Y-62702210D01*
X179068453Y-62698010D01*
X179167430Y-62497744D01*
X179232370Y-62284002D01*
X179261529Y-62062523D01*
X179263156Y-61995933D01*
X179244852Y-61773294D01*
X179190431Y-61556635D01*
X179101354Y-61351773D01*
X178980014Y-61164210D01*
X178829670Y-60998984D01*
X178825619Y-60995785D01*
X178825615Y-60995781D01*
X178658414Y-60863733D01*
X178658410Y-60863731D01*
X178654359Y-60860531D01*
X178613053Y-60837729D01*
X178563084Y-60787297D01*
X178548312Y-60717854D01*
X178573428Y-60651449D01*
X178600780Y-60624842D01*
X178644603Y-60593583D01*
X178779860Y-60497106D01*
X178802314Y-60474731D01*
X178934435Y-60343070D01*
X178938096Y-60339422D01*
X178997594Y-60256622D01*
X179065435Y-60162210D01*
X179068453Y-60158010D01*
X179167430Y-59957744D01*
X179232370Y-59744002D01*
X179261529Y-59522523D01*
X179263156Y-59455933D01*
X179244852Y-59233294D01*
X179190431Y-59016635D01*
X179101354Y-58811773D01*
X179027578Y-58697732D01*
X178982822Y-58628550D01*
X178982820Y-58628547D01*
X178980014Y-58624210D01*
X178829670Y-58458984D01*
X178825619Y-58455785D01*
X178825615Y-58455781D01*
X178658414Y-58323733D01*
X178658410Y-58323731D01*
X178654359Y-58320531D01*
X178613053Y-58297729D01*
X178563084Y-58247297D01*
X178548312Y-58177854D01*
X178573428Y-58111449D01*
X178600780Y-58084842D01*
X178644603Y-58053583D01*
X178779860Y-57957106D01*
X178938096Y-57799422D01*
X178997594Y-57716622D01*
X179065435Y-57622210D01*
X179068453Y-57618010D01*
X179084266Y-57586016D01*
X179165136Y-57422386D01*
X179165137Y-57422384D01*
X179167430Y-57417744D01*
X179232370Y-57204002D01*
X179261529Y-56982523D01*
X179263156Y-56915933D01*
X179244852Y-56693294D01*
X179190431Y-56476635D01*
X179101354Y-56271773D01*
X178980014Y-56084210D01*
X178829670Y-55918984D01*
X178825619Y-55915785D01*
X178825615Y-55915781D01*
X178658414Y-55783733D01*
X178658410Y-55783731D01*
X178654359Y-55780531D01*
X178613053Y-55757729D01*
X178563084Y-55707297D01*
X178548312Y-55637854D01*
X178573428Y-55571449D01*
X178600780Y-55544842D01*
X178644603Y-55513583D01*
X178779860Y-55417106D01*
X178938096Y-55259422D01*
X178997594Y-55176622D01*
X179065435Y-55082210D01*
X179068453Y-55078010D01*
X179167430Y-54877744D01*
X179232370Y-54664002D01*
X179261529Y-54442523D01*
X179263156Y-54375933D01*
X179244852Y-54153294D01*
X179190431Y-53936635D01*
X179101354Y-53731773D01*
X178980014Y-53544210D01*
X178829670Y-53378984D01*
X178825619Y-53375785D01*
X178825615Y-53375781D01*
X178658414Y-53243733D01*
X178658410Y-53243731D01*
X178654359Y-53240531D01*
X178613053Y-53217729D01*
X178563084Y-53167297D01*
X178548312Y-53097854D01*
X178573428Y-53031449D01*
X178600780Y-53004842D01*
X178665110Y-52958956D01*
X178779860Y-52877106D01*
X178787690Y-52869304D01*
X178918276Y-52739173D01*
X178938096Y-52719422D01*
X179068453Y-52538010D01*
X179070874Y-52533113D01*
X179165136Y-52342386D01*
X179165137Y-52342384D01*
X179167430Y-52337744D01*
X179232370Y-52124002D01*
X179261529Y-51902523D01*
X179263156Y-51835933D01*
X179244852Y-51613294D01*
X179190431Y-51396635D01*
X179101354Y-51191773D01*
X178980014Y-51004210D01*
X178829670Y-50838984D01*
X178825619Y-50835785D01*
X178825615Y-50835781D01*
X178754116Y-50779315D01*
X178713053Y-50721398D01*
X178709821Y-50650475D01*
X178745446Y-50589063D01*
X178808618Y-50556661D01*
X178832208Y-50554433D01*
X179464567Y-50554433D01*
X179532688Y-50574435D01*
G37*
%TD.AperFunction*%
%TA.AperFunction,Conductor*%
G36*
X161844322Y-50574435D02*
G01*
X161890815Y-50628091D01*
X161901893Y-50689241D01*
X161900381Y-50710820D01*
X161907968Y-50724691D01*
X162647188Y-51463911D01*
X162661132Y-51471525D01*
X162662965Y-51471394D01*
X162669580Y-51467143D01*
X163413389Y-50723334D01*
X163421003Y-50709390D01*
X163419575Y-50689423D01*
X163434666Y-50620048D01*
X163484868Y-50569846D01*
X163545254Y-50554433D01*
X176966427Y-50554433D01*
X177034548Y-50574435D01*
X177081041Y-50628091D01*
X177091145Y-50698365D01*
X177061651Y-50762945D01*
X177042080Y-50781193D01*
X176994965Y-50816568D01*
X176840629Y-50978071D01*
X176837715Y-50982343D01*
X176837714Y-50982344D01*
X176718266Y-51157448D01*
X176663355Y-51202451D01*
X176638759Y-51210023D01*
X176491471Y-51239320D01*
X176491460Y-51239323D01*
X176489040Y-51239804D01*
X176486664Y-51240474D01*
X176486652Y-51240477D01*
X176209605Y-51318613D01*
X176032280Y-51368624D01*
X176029946Y-51369485D01*
X176029940Y-51369487D01*
X175773991Y-51463911D01*
X175587035Y-51532882D01*
X175156050Y-51731568D01*
X175153911Y-51732766D01*
X175153901Y-51732771D01*
X174964397Y-51838898D01*
X174741982Y-51963456D01*
X174739929Y-51964828D01*
X174739927Y-51964829D01*
X174509385Y-52118872D01*
X174347384Y-52227117D01*
X174345442Y-52228648D01*
X174345435Y-52228653D01*
X174058660Y-52454727D01*
X173974689Y-52520924D01*
X173972874Y-52522601D01*
X173972869Y-52522606D01*
X173666332Y-52805965D01*
X173626195Y-52843067D01*
X173304050Y-53191559D01*
X173010240Y-53564252D01*
X173008863Y-53566314D01*
X173008860Y-53566317D01*
X172761420Y-53936635D01*
X172746577Y-53958849D01*
X172514686Y-54372915D01*
X172513657Y-54375148D01*
X172513654Y-54375153D01*
X172317029Y-54801660D01*
X172315997Y-54803899D01*
X172315144Y-54806211D01*
X172315142Y-54806216D01*
X172169596Y-55200733D01*
X172151736Y-55249143D01*
X172151062Y-55251533D01*
X172023582Y-55703528D01*
X172023579Y-55703541D01*
X172022913Y-55705902D01*
X171930325Y-56171361D01*
X171874542Y-56642649D01*
X171857278Y-57081988D01*
X171857257Y-57082519D01*
X171856793Y-57087667D01*
X171856921Y-57087677D01*
X171856617Y-57091626D01*
X171856066Y-57095548D01*
X171855768Y-57116861D01*
X171857749Y-57134522D01*
X171859782Y-57152649D01*
X171860567Y-57166693D01*
X171860567Y-67346060D01*
X171840565Y-67414181D01*
X171810221Y-67446819D01*
X171680722Y-67544050D01*
X171520706Y-67711497D01*
X171473903Y-67780107D01*
X171418994Y-67825108D01*
X171348469Y-67833279D01*
X171284722Y-67802025D01*
X171264026Y-67777542D01*
X171241644Y-67742946D01*
X171241641Y-67742942D01*
X171238831Y-67738598D01*
X171082954Y-67567291D01*
X171078903Y-67564092D01*
X171078899Y-67564088D01*
X170905244Y-67426944D01*
X170905239Y-67426941D01*
X170901190Y-67423743D01*
X170896674Y-67421250D01*
X170896671Y-67421248D01*
X170702946Y-67314306D01*
X170702942Y-67314304D01*
X170698422Y-67311809D01*
X170693553Y-67310085D01*
X170693549Y-67310083D01*
X170484970Y-67236221D01*
X170484966Y-67236220D01*
X170480095Y-67234495D01*
X170475002Y-67233588D01*
X170474999Y-67233587D01*
X170257162Y-67194784D01*
X170257156Y-67194783D01*
X170252073Y-67193878D01*
X170174711Y-67192933D01*
X170025648Y-67191112D01*
X170025646Y-67191112D01*
X170020478Y-67191049D01*
X169791531Y-67226083D01*
X169571381Y-67298039D01*
X169566793Y-67300427D01*
X169566789Y-67300429D01*
X169435150Y-67368956D01*
X169365939Y-67404985D01*
X169361806Y-67408088D01*
X169361803Y-67408090D01*
X169184857Y-67540945D01*
X169180722Y-67544050D01*
X169180133Y-67543266D01*
X169120413Y-67571417D01*
X169050022Y-67562164D01*
X168995808Y-67516324D01*
X168982992Y-67491157D01*
X168972390Y-67462877D01*
X168963853Y-67447284D01*
X168887352Y-67345209D01*
X168874791Y-67332648D01*
X168772716Y-67256147D01*
X168757121Y-67247609D01*
X168636673Y-67202455D01*
X168621418Y-67198828D01*
X168570553Y-67193302D01*
X168563739Y-67192933D01*
X167891182Y-67192933D01*
X167875943Y-67197408D01*
X167874738Y-67198798D01*
X167873067Y-67206481D01*
X167873067Y-69990817D01*
X167877542Y-70006056D01*
X167878932Y-70007261D01*
X167886615Y-70008932D01*
X168563736Y-70008932D01*
X168570557Y-70008562D01*
X168621419Y-70003038D01*
X168636671Y-69999412D01*
X168757121Y-69954257D01*
X168772716Y-69945719D01*
X168874791Y-69869218D01*
X168887352Y-69856657D01*
X168963853Y-69754582D01*
X168972392Y-69738985D01*
X168984345Y-69707100D01*
X169026986Y-69650335D01*
X169093547Y-69625635D01*
X169162896Y-69640842D01*
X169182808Y-69654381D01*
X169308416Y-69758663D01*
X169508389Y-69875517D01*
X169724761Y-69958142D01*
X169729827Y-69959173D01*
X169729828Y-69959173D01*
X169782913Y-69969973D01*
X169951723Y-70004318D01*
X170082391Y-70009109D01*
X170178016Y-70012616D01*
X170178020Y-70012616D01*
X170183180Y-70012805D01*
X170188300Y-70012149D01*
X170188302Y-70012149D01*
X170287735Y-69999411D01*
X170412914Y-69983375D01*
X170417862Y-69981890D01*
X170417869Y-69981889D01*
X170629814Y-69918302D01*
X170634757Y-69916819D01*
X170639391Y-69914549D01*
X170838116Y-69817195D01*
X170838119Y-69817193D01*
X170842751Y-69814924D01*
X171031310Y-69680427D01*
X171195370Y-69516938D01*
X171264437Y-69420821D01*
X171320432Y-69377173D01*
X171391135Y-69370727D01*
X171454100Y-69403530D01*
X171474195Y-69428517D01*
X171475866Y-69431244D01*
X171475871Y-69431250D01*
X171478568Y-69435652D01*
X171630214Y-69610717D01*
X171807584Y-69757972D01*
X171808416Y-69758663D01*
X171808273Y-69758835D01*
X171851168Y-69812503D01*
X171860567Y-69860254D01*
X171860567Y-87321044D01*
X171840565Y-87389165D01*
X171810221Y-87421803D01*
X171789602Y-87437284D01*
X171697650Y-87506324D01*
X171660722Y-87534050D01*
X171611414Y-87585648D01*
X171517425Y-87684002D01*
X171500706Y-87701497D01*
X171453903Y-87770107D01*
X171398994Y-87815108D01*
X171328469Y-87823279D01*
X171264722Y-87792025D01*
X171244026Y-87767542D01*
X171221644Y-87732946D01*
X171221641Y-87732942D01*
X171218831Y-87728598D01*
X171062954Y-87557291D01*
X171058903Y-87554092D01*
X171058899Y-87554088D01*
X170885244Y-87416944D01*
X170885239Y-87416941D01*
X170881190Y-87413743D01*
X170876674Y-87411250D01*
X170876671Y-87411248D01*
X170682946Y-87304306D01*
X170682942Y-87304304D01*
X170678422Y-87301809D01*
X170673553Y-87300085D01*
X170673549Y-87300083D01*
X170464970Y-87226221D01*
X170464966Y-87226220D01*
X170460095Y-87224495D01*
X170455002Y-87223588D01*
X170454999Y-87223587D01*
X170237162Y-87184784D01*
X170237156Y-87184783D01*
X170232073Y-87183878D01*
X170154711Y-87182933D01*
X170005648Y-87181112D01*
X170005646Y-87181112D01*
X170000478Y-87181049D01*
X169771531Y-87216083D01*
X169551381Y-87288039D01*
X169546793Y-87290427D01*
X169546789Y-87290429D01*
X169360567Y-87387370D01*
X169345939Y-87394985D01*
X169341806Y-87398088D01*
X169341803Y-87398090D01*
X169164857Y-87530945D01*
X169160722Y-87534050D01*
X169160133Y-87533266D01*
X169100413Y-87561417D01*
X169030022Y-87552164D01*
X168975808Y-87506324D01*
X168962992Y-87481157D01*
X168952390Y-87452877D01*
X168943853Y-87437284D01*
X168867352Y-87335209D01*
X168854791Y-87322648D01*
X168752716Y-87246147D01*
X168737121Y-87237609D01*
X168616673Y-87192455D01*
X168601418Y-87188828D01*
X168550553Y-87183302D01*
X168543739Y-87182933D01*
X167871182Y-87182933D01*
X167855943Y-87187408D01*
X167854738Y-87188798D01*
X167853067Y-87196481D01*
X167853067Y-89980817D01*
X167857542Y-89996056D01*
X167858932Y-89997261D01*
X167866615Y-89998932D01*
X168543736Y-89998932D01*
X168550557Y-89998562D01*
X168601419Y-89993038D01*
X168616671Y-89989412D01*
X168737121Y-89944257D01*
X168752716Y-89935719D01*
X168854791Y-89859218D01*
X168867352Y-89846657D01*
X168943853Y-89744582D01*
X168952392Y-89728985D01*
X168964345Y-89697100D01*
X169006986Y-89640335D01*
X169073547Y-89615635D01*
X169142896Y-89630842D01*
X169162808Y-89644381D01*
X169288416Y-89748663D01*
X169488389Y-89865517D01*
X169704761Y-89948142D01*
X169709827Y-89949173D01*
X169709828Y-89949173D01*
X169762913Y-89959973D01*
X169931723Y-89994318D01*
X170062391Y-89999109D01*
X170158016Y-90002616D01*
X170158020Y-90002616D01*
X170163180Y-90002805D01*
X170168300Y-90002149D01*
X170168302Y-90002149D01*
X170267735Y-89989411D01*
X170392914Y-89973375D01*
X170397862Y-89971890D01*
X170397869Y-89971889D01*
X170609814Y-89908302D01*
X170614757Y-89906819D01*
X170619390Y-89904549D01*
X170619401Y-89904545D01*
X170675966Y-89876834D01*
X170745940Y-89864827D01*
X170811297Y-89892557D01*
X170851287Y-89951220D01*
X170852668Y-90024184D01*
X170748366Y-90394024D01*
X170747886Y-90396440D01*
X170747884Y-90396446D01*
X170699002Y-90642210D01*
X170672625Y-90774823D01*
X170672335Y-90777272D01*
X170672335Y-90777273D01*
X170634685Y-91095409D01*
X170626994Y-91160392D01*
X170620629Y-91322440D01*
X170613432Y-91505648D01*
X170612305Y-91518223D01*
X170611066Y-91527039D01*
X170610768Y-91548352D01*
X170611210Y-91552288D01*
X170614782Y-91584135D01*
X170615567Y-91598181D01*
X170615567Y-104313794D01*
X170614340Y-104331333D01*
X170611067Y-104354617D01*
X170610768Y-104375930D01*
X170611542Y-104382830D01*
X170611948Y-104386448D01*
X170612464Y-104392257D01*
X170622024Y-104538185D01*
X170628134Y-104631461D01*
X170628935Y-104635490D01*
X170628936Y-104635495D01*
X170676581Y-104875052D01*
X170678086Y-104882621D01*
X170679413Y-104886530D01*
X170704047Y-104959105D01*
X170707002Y-105030040D01*
X170671137Y-105091312D01*
X170649513Y-105107675D01*
X170552784Y-105165654D01*
X170486569Y-105205342D01*
X170475664Y-105211171D01*
X170398571Y-105247634D01*
X170220965Y-105331637D01*
X170209551Y-105336365D01*
X170111097Y-105371593D01*
X169944280Y-105431282D01*
X169932448Y-105434872D01*
X169659137Y-105503336D01*
X169647008Y-105505748D01*
X169368317Y-105547090D01*
X169356019Y-105548302D01*
X169274232Y-105552321D01*
X169114054Y-105560191D01*
X169092085Y-105559350D01*
X169079086Y-105557708D01*
X169072070Y-105558396D01*
X169072068Y-105558396D01*
X169037043Y-105561831D01*
X169024746Y-105562433D01*
X167961214Y-105562433D01*
X167943681Y-105561207D01*
X167924290Y-105558482D01*
X167924285Y-105558482D01*
X167920374Y-105557932D01*
X167911809Y-105557812D01*
X167903022Y-105557689D01*
X167903016Y-105557689D01*
X167899061Y-105557634D01*
X167895123Y-105558076D01*
X167895117Y-105558076D01*
X167889062Y-105558755D01*
X167879968Y-105559443D01*
X167603703Y-105570300D01*
X167521984Y-105573512D01*
X167519536Y-105573802D01*
X167519533Y-105573802D01*
X167149680Y-105617580D01*
X167149674Y-105617581D01*
X167147232Y-105617870D01*
X166777115Y-105691494D01*
X166516393Y-105765028D01*
X166416298Y-105793259D01*
X166416294Y-105793260D01*
X166413916Y-105793931D01*
X166252604Y-105853444D01*
X166062177Y-105923698D01*
X166062169Y-105923701D01*
X166059874Y-105924548D01*
X165717171Y-106082540D01*
X165715024Y-106083742D01*
X165715015Y-106083747D01*
X165451075Y-106231565D01*
X165387921Y-106266934D01*
X165385870Y-106268305D01*
X165385861Y-106268310D01*
X165166439Y-106414928D01*
X165074153Y-106476593D01*
X164777803Y-106710223D01*
X164667648Y-106812052D01*
X164532862Y-106936650D01*
X164523162Y-106944752D01*
X164515203Y-106950750D01*
X164512362Y-106953513D01*
X164512357Y-106953517D01*
X164502757Y-106962853D01*
X164499922Y-106965610D01*
X164497461Y-106968693D01*
X164497451Y-106968704D01*
X164477452Y-106993757D01*
X164468075Y-107004244D01*
X162192736Y-109279583D01*
X162129839Y-109313734D01*
X162073243Y-109325764D01*
X162073234Y-109325767D01*
X162066779Y-109327139D01*
X162060749Y-109329824D01*
X162060748Y-109329824D01*
X161898345Y-109402130D01*
X161898343Y-109402131D01*
X161892315Y-109404815D01*
X161886974Y-109408695D01*
X161886973Y-109408696D01*
X161797628Y-109473609D01*
X161730760Y-109497468D01*
X161661609Y-109481387D01*
X161612128Y-109430473D01*
X161597567Y-109371673D01*
X161597567Y-108574069D01*
X161598644Y-108557626D01*
X161601741Y-108534098D01*
X161602818Y-108525915D01*
X161601706Y-108517469D01*
X161601234Y-108488676D01*
X161606227Y-108437963D01*
X161611046Y-108413736D01*
X161633097Y-108341037D01*
X161642547Y-108318219D01*
X161678357Y-108251218D01*
X161692076Y-108230685D01*
X161724313Y-108191401D01*
X161745011Y-108171368D01*
X161745327Y-108171126D01*
X161745328Y-108171125D01*
X161751875Y-108166101D01*
X161771342Y-108140730D01*
X161782196Y-108128354D01*
X162740144Y-107170405D01*
X162802456Y-107136379D01*
X162829239Y-107133500D01*
X162920487Y-107133500D01*
X162926939Y-107132128D01*
X162926944Y-107132128D01*
X163018418Y-107112684D01*
X163107288Y-107093794D01*
X163128765Y-107084232D01*
X163275722Y-107018803D01*
X163275724Y-107018802D01*
X163281752Y-107016118D01*
X163304493Y-106999596D01*
X163337157Y-106975864D01*
X163436253Y-106903866D01*
X163564040Y-106761944D01*
X163659527Y-106596556D01*
X163718542Y-106414928D01*
X163738504Y-106225000D01*
X163718542Y-106035072D01*
X163659527Y-105853444D01*
X163564040Y-105688056D01*
X163448237Y-105559443D01*
X163440675Y-105551045D01*
X163440674Y-105551044D01*
X163436253Y-105546134D01*
X163281752Y-105433882D01*
X163275724Y-105431198D01*
X163275722Y-105431197D01*
X163113319Y-105358891D01*
X163113318Y-105358891D01*
X163107288Y-105356206D01*
X163004140Y-105334281D01*
X162926944Y-105317872D01*
X162926939Y-105317872D01*
X162920487Y-105316500D01*
X162729513Y-105316500D01*
X162723061Y-105317872D01*
X162723056Y-105317872D01*
X162645860Y-105334281D01*
X162542712Y-105356206D01*
X162536682Y-105358891D01*
X162536681Y-105358891D01*
X162374278Y-105431197D01*
X162374276Y-105431198D01*
X162368248Y-105433882D01*
X162213747Y-105546134D01*
X162209326Y-105551044D01*
X162209325Y-105551045D01*
X162201764Y-105559443D01*
X162085960Y-105688056D01*
X161990473Y-105853444D01*
X161931458Y-106035072D01*
X161911496Y-106225000D01*
X161911684Y-106226786D01*
X161892184Y-106293196D01*
X161875286Y-106314165D01*
X160921630Y-107267822D01*
X160909250Y-107278680D01*
X160890418Y-107293131D01*
X160890416Y-107293133D01*
X160883869Y-107298157D01*
X160873394Y-107311809D01*
X160872389Y-107313119D01*
X160867159Y-107319492D01*
X160828302Y-107363803D01*
X160768350Y-107401833D01*
X160697354Y-107401413D01*
X160637856Y-107362677D01*
X160608746Y-107297923D01*
X160607567Y-107280729D01*
X160607567Y-97522628D01*
X161297251Y-97522628D01*
X161297548Y-97527781D01*
X161297548Y-97527784D01*
X161303011Y-97622523D01*
X161310110Y-97745648D01*
X161311247Y-97750694D01*
X161311248Y-97750700D01*
X161331119Y-97838872D01*
X161359222Y-97963572D01*
X161443266Y-98170549D01*
X161559987Y-98361021D01*
X161706250Y-98529871D01*
X161710230Y-98533175D01*
X161714981Y-98537120D01*
X161754616Y-98596023D01*
X161756113Y-98667004D01*
X161718997Y-98727526D01*
X161678724Y-98752045D01*
X161563295Y-98795318D01*
X161446739Y-98882672D01*
X161359385Y-98999228D01*
X161308255Y-99135617D01*
X161301500Y-99197799D01*
X161301500Y-100994067D01*
X161308255Y-101056249D01*
X161359385Y-101192638D01*
X161446739Y-101309194D01*
X161563295Y-101396548D01*
X161699684Y-101447678D01*
X161761866Y-101454433D01*
X163558134Y-101454433D01*
X163620316Y-101447678D01*
X163756705Y-101396548D01*
X163873261Y-101309194D01*
X163960615Y-101192638D01*
X164011745Y-101056249D01*
X164018500Y-100994067D01*
X164018500Y-99197799D01*
X164011745Y-99135617D01*
X163960615Y-98999228D01*
X163873261Y-98882672D01*
X163756705Y-98795318D01*
X163729905Y-98785271D01*
X163638203Y-98750893D01*
X163581439Y-98708251D01*
X163556739Y-98641689D01*
X163571947Y-98572341D01*
X163593493Y-98543660D01*
X163694435Y-98443070D01*
X163698096Y-98439422D01*
X163757594Y-98356622D01*
X163825435Y-98262210D01*
X163828453Y-98258010D01*
X163927430Y-98057744D01*
X163992370Y-97844002D01*
X164021529Y-97622523D01*
X164023156Y-97555933D01*
X164004852Y-97333294D01*
X163950431Y-97116635D01*
X163861354Y-96911773D01*
X163740014Y-96724210D01*
X163589670Y-96558984D01*
X163585619Y-96555785D01*
X163585615Y-96555781D01*
X163418414Y-96423733D01*
X163418410Y-96423731D01*
X163414359Y-96420531D01*
X163373053Y-96397729D01*
X163323084Y-96347297D01*
X163308312Y-96277854D01*
X163333428Y-96211449D01*
X163360780Y-96184842D01*
X163404603Y-96153583D01*
X163539860Y-96057106D01*
X163698096Y-95899422D01*
X163757594Y-95816622D01*
X163825435Y-95722210D01*
X163828453Y-95718010D01*
X163927430Y-95517744D01*
X163992370Y-95304002D01*
X164021529Y-95082523D01*
X164023156Y-95015933D01*
X164004852Y-94793294D01*
X163950431Y-94576635D01*
X163861354Y-94371773D01*
X163740014Y-94184210D01*
X163589670Y-94018984D01*
X163585619Y-94015785D01*
X163585615Y-94015781D01*
X163418414Y-93883733D01*
X163418410Y-93883731D01*
X163414359Y-93880531D01*
X163373053Y-93857729D01*
X163323084Y-93807297D01*
X163308312Y-93737854D01*
X163333428Y-93671449D01*
X163360780Y-93644842D01*
X163404603Y-93613583D01*
X163539860Y-93517106D01*
X163698096Y-93359422D01*
X163757594Y-93276622D01*
X163825435Y-93182210D01*
X163828453Y-93178010D01*
X163927430Y-92977744D01*
X163992370Y-92764002D01*
X164021529Y-92542523D01*
X164023156Y-92475933D01*
X164004852Y-92253294D01*
X163950431Y-92036635D01*
X163861354Y-91831773D01*
X163740014Y-91644210D01*
X163589670Y-91478984D01*
X163585619Y-91475785D01*
X163585615Y-91475781D01*
X163418414Y-91343733D01*
X163418410Y-91343731D01*
X163414359Y-91340531D01*
X163373053Y-91317729D01*
X163323084Y-91267297D01*
X163308312Y-91197854D01*
X163333428Y-91131449D01*
X163360780Y-91104842D01*
X163404603Y-91073583D01*
X163539860Y-90977106D01*
X163698096Y-90819422D01*
X163730144Y-90774823D01*
X163825435Y-90642210D01*
X163828453Y-90638010D01*
X163869766Y-90554420D01*
X163925136Y-90442386D01*
X163925137Y-90442384D01*
X163927430Y-90437744D01*
X163992370Y-90224002D01*
X164021529Y-90002523D01*
X164021726Y-89994458D01*
X164023074Y-89939298D01*
X164023074Y-89939294D01*
X164023156Y-89935933D01*
X164004852Y-89713294D01*
X163960219Y-89535602D01*
X166191068Y-89535602D01*
X166191438Y-89542423D01*
X166196962Y-89593285D01*
X166200588Y-89608537D01*
X166245743Y-89728987D01*
X166254281Y-89744582D01*
X166330782Y-89846657D01*
X166343343Y-89859218D01*
X166445418Y-89935719D01*
X166461013Y-89944257D01*
X166581461Y-89989411D01*
X166596716Y-89993038D01*
X166647581Y-89998564D01*
X166654395Y-89998933D01*
X167326952Y-89998933D01*
X167342191Y-89994458D01*
X167343396Y-89993068D01*
X167345067Y-89985385D01*
X167345067Y-88863048D01*
X167340592Y-88847809D01*
X167339202Y-88846604D01*
X167331519Y-88844933D01*
X166209183Y-88844933D01*
X166193944Y-88849408D01*
X166192739Y-88850798D01*
X166191068Y-88858481D01*
X166191068Y-89535602D01*
X163960219Y-89535602D01*
X163950431Y-89496635D01*
X163861354Y-89291773D01*
X163820207Y-89228170D01*
X163742822Y-89108550D01*
X163742820Y-89108547D01*
X163740014Y-89104210D01*
X163589670Y-88938984D01*
X163585619Y-88935785D01*
X163585615Y-88935781D01*
X163418414Y-88803733D01*
X163418410Y-88803731D01*
X163414359Y-88800531D01*
X163373053Y-88777729D01*
X163323084Y-88727297D01*
X163308312Y-88657854D01*
X163333428Y-88591449D01*
X163360780Y-88564842D01*
X163404603Y-88533583D01*
X163539860Y-88437106D01*
X163658562Y-88318818D01*
X166191067Y-88318818D01*
X166195542Y-88334057D01*
X166196932Y-88335262D01*
X166204615Y-88336933D01*
X167326952Y-88336933D01*
X167342191Y-88332458D01*
X167343396Y-88331068D01*
X167345067Y-88323385D01*
X167345067Y-87201049D01*
X167340592Y-87185810D01*
X167339202Y-87184605D01*
X167331519Y-87182934D01*
X166654398Y-87182934D01*
X166647577Y-87183304D01*
X166596715Y-87188828D01*
X166581463Y-87192454D01*
X166461013Y-87237609D01*
X166445418Y-87246147D01*
X166343343Y-87322648D01*
X166330782Y-87335209D01*
X166254281Y-87437284D01*
X166245743Y-87452879D01*
X166200589Y-87573327D01*
X166196962Y-87588582D01*
X166191436Y-87639447D01*
X166191067Y-87646261D01*
X166191067Y-88318818D01*
X163658562Y-88318818D01*
X163698096Y-88279422D01*
X163757594Y-88196622D01*
X163825435Y-88102210D01*
X163828453Y-88098010D01*
X163927430Y-87897744D01*
X163992370Y-87684002D01*
X164021529Y-87462523D01*
X164023156Y-87395933D01*
X164004852Y-87173294D01*
X163950431Y-86956635D01*
X163861354Y-86751773D01*
X163740014Y-86564210D01*
X163589670Y-86398984D01*
X163585619Y-86395785D01*
X163585615Y-86395781D01*
X163418414Y-86263733D01*
X163418410Y-86263731D01*
X163414359Y-86260531D01*
X163373053Y-86237729D01*
X163323084Y-86187297D01*
X163308312Y-86117854D01*
X163333428Y-86051449D01*
X163360780Y-86024842D01*
X163404603Y-85993583D01*
X163539860Y-85897106D01*
X163698096Y-85739422D01*
X163757594Y-85656622D01*
X163825435Y-85562210D01*
X163828453Y-85558010D01*
X163898537Y-85416206D01*
X163925136Y-85362386D01*
X163925137Y-85362384D01*
X163927430Y-85357744D01*
X163992370Y-85144002D01*
X164021529Y-84922523D01*
X164023156Y-84855933D01*
X164004852Y-84633294D01*
X163950431Y-84416635D01*
X163861354Y-84211773D01*
X163740014Y-84024210D01*
X163589670Y-83858984D01*
X163585619Y-83855785D01*
X163585615Y-83855781D01*
X163418414Y-83723733D01*
X163418410Y-83723731D01*
X163414359Y-83720531D01*
X163373053Y-83697729D01*
X163323084Y-83647297D01*
X163308312Y-83577854D01*
X163333428Y-83511449D01*
X163360780Y-83484842D01*
X163404603Y-83453583D01*
X163539860Y-83357106D01*
X163698096Y-83199422D01*
X163757594Y-83116622D01*
X163825435Y-83022210D01*
X163828453Y-83018010D01*
X163864076Y-82945933D01*
X163925136Y-82822386D01*
X163925137Y-82822384D01*
X163927430Y-82817744D01*
X163992370Y-82604002D01*
X164021529Y-82382523D01*
X164023156Y-82315933D01*
X164004852Y-82093294D01*
X163950431Y-81876635D01*
X163861354Y-81671773D01*
X163740014Y-81484210D01*
X163589670Y-81318984D01*
X163585619Y-81315785D01*
X163585615Y-81315781D01*
X163418414Y-81183733D01*
X163418410Y-81183731D01*
X163414359Y-81180531D01*
X163373053Y-81157729D01*
X163323084Y-81107297D01*
X163308312Y-81037854D01*
X163333428Y-80971449D01*
X163360780Y-80944842D01*
X163404603Y-80913583D01*
X163539860Y-80817106D01*
X163698096Y-80659422D01*
X163757594Y-80576622D01*
X163825435Y-80482210D01*
X163828453Y-80478010D01*
X163927430Y-80277744D01*
X163992370Y-80064002D01*
X164021529Y-79842523D01*
X164023156Y-79775933D01*
X164004852Y-79553294D01*
X163950431Y-79336635D01*
X163861354Y-79131773D01*
X163740014Y-78944210D01*
X163589670Y-78778984D01*
X163585619Y-78775785D01*
X163585615Y-78775781D01*
X163418414Y-78643733D01*
X163418410Y-78643731D01*
X163414359Y-78640531D01*
X163373053Y-78617729D01*
X163323084Y-78567297D01*
X163308312Y-78497854D01*
X163333428Y-78431449D01*
X163360780Y-78404842D01*
X163404603Y-78373583D01*
X163539860Y-78277106D01*
X163698096Y-78119422D01*
X163757594Y-78036622D01*
X163825435Y-77942210D01*
X163828453Y-77938010D01*
X163927430Y-77737744D01*
X163992370Y-77524002D01*
X164021529Y-77302523D01*
X164023156Y-77235933D01*
X164004852Y-77013294D01*
X163950431Y-76796635D01*
X163861354Y-76591773D01*
X163740014Y-76404210D01*
X163589670Y-76238984D01*
X163585619Y-76235785D01*
X163585615Y-76235781D01*
X163418414Y-76103733D01*
X163418410Y-76103731D01*
X163414359Y-76100531D01*
X163373053Y-76077729D01*
X163323084Y-76027297D01*
X163308312Y-75957854D01*
X163333428Y-75891449D01*
X163360780Y-75864842D01*
X163404603Y-75833583D01*
X163539860Y-75737106D01*
X163698096Y-75579422D01*
X163757594Y-75496622D01*
X163825435Y-75402210D01*
X163828453Y-75398010D01*
X163927430Y-75197744D01*
X163992370Y-74984002D01*
X164021529Y-74762523D01*
X164023156Y-74695933D01*
X164004852Y-74473294D01*
X163950431Y-74256635D01*
X163861354Y-74051773D01*
X163740014Y-73864210D01*
X163589670Y-73698984D01*
X163585619Y-73695785D01*
X163585615Y-73695781D01*
X163418414Y-73563733D01*
X163418410Y-73563731D01*
X163414359Y-73560531D01*
X163373053Y-73537729D01*
X163323084Y-73487297D01*
X163308312Y-73417854D01*
X163333428Y-73351449D01*
X163360780Y-73324842D01*
X163404603Y-73293583D01*
X163539860Y-73197106D01*
X163552329Y-73184681D01*
X163694435Y-73043070D01*
X163698096Y-73039422D01*
X163757594Y-72956622D01*
X163825435Y-72862210D01*
X163828453Y-72858010D01*
X163927430Y-72657744D01*
X163992370Y-72444002D01*
X164021529Y-72222523D01*
X164023156Y-72155933D01*
X164004852Y-71933294D01*
X163950431Y-71716635D01*
X163861354Y-71511773D01*
X163740014Y-71324210D01*
X163589670Y-71158984D01*
X163585619Y-71155785D01*
X163585615Y-71155781D01*
X163418414Y-71023733D01*
X163418410Y-71023731D01*
X163414359Y-71020531D01*
X163373053Y-70997729D01*
X163323084Y-70947297D01*
X163308312Y-70877854D01*
X163333428Y-70811449D01*
X163360780Y-70784842D01*
X163404603Y-70753583D01*
X163539860Y-70657106D01*
X163552329Y-70644681D01*
X163694435Y-70503070D01*
X163698096Y-70499422D01*
X163757594Y-70416622D01*
X163825435Y-70322210D01*
X163828453Y-70318010D01*
X163927430Y-70117744D01*
X163964606Y-69995385D01*
X163990865Y-69908956D01*
X163990865Y-69908954D01*
X163992370Y-69904002D01*
X164021529Y-69682523D01*
X164022217Y-69654384D01*
X164023074Y-69619298D01*
X164023074Y-69619294D01*
X164023156Y-69615933D01*
X164017374Y-69545602D01*
X166211068Y-69545602D01*
X166211438Y-69552423D01*
X166216962Y-69603285D01*
X166220588Y-69618537D01*
X166265743Y-69738987D01*
X166274281Y-69754582D01*
X166350782Y-69856657D01*
X166363343Y-69869218D01*
X166465418Y-69945719D01*
X166481013Y-69954257D01*
X166601461Y-69999411D01*
X166616716Y-70003038D01*
X166667581Y-70008564D01*
X166674395Y-70008933D01*
X167346952Y-70008933D01*
X167362191Y-70004458D01*
X167363396Y-70003068D01*
X167365067Y-69995385D01*
X167365067Y-68873048D01*
X167360592Y-68857809D01*
X167359202Y-68856604D01*
X167351519Y-68854933D01*
X166229183Y-68854933D01*
X166213944Y-68859408D01*
X166212739Y-68860798D01*
X166211068Y-68868481D01*
X166211068Y-69545602D01*
X164017374Y-69545602D01*
X164004852Y-69393294D01*
X163950431Y-69176635D01*
X163861354Y-68971773D01*
X163740014Y-68784210D01*
X163589670Y-68618984D01*
X163585619Y-68615785D01*
X163585615Y-68615781D01*
X163418414Y-68483733D01*
X163418410Y-68483731D01*
X163414359Y-68480531D01*
X163373053Y-68457729D01*
X163323084Y-68407297D01*
X163308312Y-68337854D01*
X163311730Y-68328818D01*
X166211067Y-68328818D01*
X166215542Y-68344057D01*
X166216932Y-68345262D01*
X166224615Y-68346933D01*
X167346952Y-68346933D01*
X167362191Y-68342458D01*
X167363396Y-68341068D01*
X167365067Y-68333385D01*
X167365067Y-67211049D01*
X167360592Y-67195810D01*
X167359202Y-67194605D01*
X167351519Y-67192934D01*
X166674398Y-67192934D01*
X166667577Y-67193304D01*
X166616715Y-67198828D01*
X166601463Y-67202454D01*
X166481013Y-67247609D01*
X166465418Y-67256147D01*
X166363343Y-67332648D01*
X166350782Y-67345209D01*
X166274281Y-67447284D01*
X166265743Y-67462879D01*
X166220589Y-67583327D01*
X166216962Y-67598582D01*
X166211436Y-67649447D01*
X166211067Y-67656261D01*
X166211067Y-68328818D01*
X163311730Y-68328818D01*
X163333428Y-68271449D01*
X163360780Y-68244842D01*
X163404603Y-68213583D01*
X163539860Y-68117106D01*
X163552329Y-68104681D01*
X163694435Y-67963070D01*
X163698096Y-67959422D01*
X163757594Y-67876622D01*
X163825435Y-67782210D01*
X163828453Y-67778010D01*
X163863173Y-67707760D01*
X163925136Y-67582386D01*
X163925137Y-67582384D01*
X163927430Y-67577744D01*
X163992370Y-67364002D01*
X164021529Y-67142523D01*
X164023156Y-67075933D01*
X164004852Y-66853294D01*
X163950431Y-66636635D01*
X163861354Y-66431773D01*
X163740014Y-66244210D01*
X163589670Y-66078984D01*
X163585619Y-66075785D01*
X163585615Y-66075781D01*
X163418414Y-65943733D01*
X163418410Y-65943731D01*
X163414359Y-65940531D01*
X163373053Y-65917729D01*
X163323084Y-65867297D01*
X163308312Y-65797854D01*
X163333428Y-65731449D01*
X163360780Y-65704842D01*
X163404603Y-65673583D01*
X163539860Y-65577106D01*
X163698096Y-65419422D01*
X163757594Y-65336622D01*
X163825435Y-65242210D01*
X163828453Y-65238010D01*
X163927430Y-65037744D01*
X163992370Y-64824002D01*
X164021529Y-64602523D01*
X164023156Y-64535933D01*
X164004852Y-64313294D01*
X163950431Y-64096635D01*
X163861354Y-63891773D01*
X163740014Y-63704210D01*
X163589670Y-63538984D01*
X163585619Y-63535785D01*
X163585615Y-63535781D01*
X163418414Y-63403733D01*
X163418410Y-63403731D01*
X163414359Y-63400531D01*
X163373053Y-63377729D01*
X163323084Y-63327297D01*
X163308312Y-63257854D01*
X163333428Y-63191449D01*
X163360780Y-63164842D01*
X163404603Y-63133583D01*
X163539860Y-63037106D01*
X163698096Y-62879422D01*
X163757594Y-62796622D01*
X163825435Y-62702210D01*
X163828453Y-62698010D01*
X163927430Y-62497744D01*
X163992370Y-62284002D01*
X164021529Y-62062523D01*
X164023156Y-61995933D01*
X164004852Y-61773294D01*
X163950431Y-61556635D01*
X163861354Y-61351773D01*
X163740014Y-61164210D01*
X163589670Y-60998984D01*
X163585619Y-60995785D01*
X163585615Y-60995781D01*
X163418414Y-60863733D01*
X163418410Y-60863731D01*
X163414359Y-60860531D01*
X163373053Y-60837729D01*
X163323084Y-60787297D01*
X163308312Y-60717854D01*
X163333428Y-60651449D01*
X163360780Y-60624842D01*
X163404603Y-60593583D01*
X163539860Y-60497106D01*
X163562314Y-60474731D01*
X163694435Y-60343070D01*
X163698096Y-60339422D01*
X163757594Y-60256622D01*
X163825435Y-60162210D01*
X163828453Y-60158010D01*
X163927430Y-59957744D01*
X163992370Y-59744002D01*
X164021529Y-59522523D01*
X164023156Y-59455933D01*
X164004852Y-59233294D01*
X163950431Y-59016635D01*
X163861354Y-58811773D01*
X163787578Y-58697732D01*
X163742822Y-58628550D01*
X163742820Y-58628547D01*
X163740014Y-58624210D01*
X163589670Y-58458984D01*
X163585619Y-58455785D01*
X163585615Y-58455781D01*
X163418414Y-58323733D01*
X163418410Y-58323731D01*
X163414359Y-58320531D01*
X163373053Y-58297729D01*
X163323084Y-58247297D01*
X163308312Y-58177854D01*
X163333428Y-58111449D01*
X163360780Y-58084842D01*
X163404603Y-58053583D01*
X163539860Y-57957106D01*
X163698096Y-57799422D01*
X163757594Y-57716622D01*
X163825435Y-57622210D01*
X163828453Y-57618010D01*
X163844266Y-57586016D01*
X163925136Y-57422386D01*
X163925137Y-57422384D01*
X163927430Y-57417744D01*
X163992370Y-57204002D01*
X164021529Y-56982523D01*
X164023156Y-56915933D01*
X164004852Y-56693294D01*
X163950431Y-56476635D01*
X163861354Y-56271773D01*
X163740014Y-56084210D01*
X163589670Y-55918984D01*
X163585619Y-55915785D01*
X163585615Y-55915781D01*
X163418414Y-55783733D01*
X163418410Y-55783731D01*
X163414359Y-55780531D01*
X163373053Y-55757729D01*
X163323084Y-55707297D01*
X163308312Y-55637854D01*
X163333428Y-55571449D01*
X163360780Y-55544842D01*
X163404603Y-55513583D01*
X163539860Y-55417106D01*
X163698096Y-55259422D01*
X163757594Y-55176622D01*
X163825435Y-55082210D01*
X163828453Y-55078010D01*
X163927430Y-54877744D01*
X163992370Y-54664002D01*
X164021529Y-54442523D01*
X164023156Y-54375933D01*
X164004852Y-54153294D01*
X163950431Y-53936635D01*
X163861354Y-53731773D01*
X163740014Y-53544210D01*
X163589670Y-53378984D01*
X163585619Y-53375785D01*
X163585615Y-53375781D01*
X163418414Y-53243733D01*
X163418410Y-53243731D01*
X163414359Y-53240531D01*
X163372569Y-53217462D01*
X163322598Y-53167030D01*
X163307826Y-53097587D01*
X163332942Y-53031181D01*
X163360293Y-53004575D01*
X163409247Y-52969656D01*
X163417648Y-52958956D01*
X163410660Y-52945803D01*
X162672812Y-52207955D01*
X162658868Y-52200341D01*
X162657035Y-52200472D01*
X162650420Y-52204723D01*
X161906737Y-52948406D01*
X161899977Y-52960786D01*
X161905258Y-52967840D01*
X161951969Y-52995136D01*
X162000693Y-53046774D01*
X162013764Y-53116557D01*
X161987033Y-53182329D01*
X161946584Y-53215685D01*
X161933607Y-53222440D01*
X161929474Y-53225543D01*
X161929471Y-53225545D01*
X161905247Y-53243733D01*
X161754965Y-53356568D01*
X161600629Y-53518071D01*
X161474743Y-53702613D01*
X161380688Y-53905238D01*
X161320989Y-54120503D01*
X161297251Y-54342628D01*
X161297548Y-54347781D01*
X161297548Y-54347784D01*
X161303011Y-54442523D01*
X161310110Y-54565648D01*
X161311247Y-54570694D01*
X161311248Y-54570700D01*
X161331119Y-54658872D01*
X161359222Y-54783572D01*
X161443266Y-54990549D01*
X161559987Y-55181021D01*
X161706250Y-55349871D01*
X161878126Y-55492565D01*
X161948595Y-55533744D01*
X161951445Y-55535409D01*
X162000169Y-55587047D01*
X162013240Y-55656830D01*
X161986509Y-55722602D01*
X161946055Y-55755960D01*
X161933607Y-55762440D01*
X161929474Y-55765543D01*
X161929471Y-55765545D01*
X161905247Y-55783733D01*
X161754965Y-55896568D01*
X161600629Y-56058071D01*
X161474743Y-56242613D01*
X161433454Y-56331562D01*
X161418018Y-56364818D01*
X161380688Y-56445238D01*
X161320989Y-56660503D01*
X161297251Y-56882628D01*
X161297548Y-56887781D01*
X161297548Y-56887784D01*
X161303011Y-56982523D01*
X161310110Y-57105648D01*
X161311247Y-57110694D01*
X161311248Y-57110700D01*
X161331119Y-57198872D01*
X161359222Y-57323572D01*
X161443266Y-57530549D01*
X161445965Y-57534953D01*
X161531703Y-57674865D01*
X161559987Y-57721021D01*
X161706250Y-57889871D01*
X161878126Y-58032565D01*
X161948595Y-58073744D01*
X161951445Y-58075409D01*
X162000169Y-58127047D01*
X162013240Y-58196830D01*
X161986509Y-58262602D01*
X161946055Y-58295960D01*
X161933607Y-58302440D01*
X161929474Y-58305543D01*
X161929471Y-58305545D01*
X161759100Y-58433463D01*
X161754965Y-58436568D01*
X161600629Y-58598071D01*
X161474743Y-58782613D01*
X161380688Y-58985238D01*
X161320989Y-59200503D01*
X161297251Y-59422628D01*
X161297548Y-59427781D01*
X161297548Y-59427784D01*
X161303011Y-59522523D01*
X161310110Y-59645648D01*
X161311247Y-59650694D01*
X161311248Y-59650700D01*
X161331119Y-59738872D01*
X161359222Y-59863572D01*
X161443266Y-60070549D01*
X161559987Y-60261021D01*
X161706250Y-60429871D01*
X161878126Y-60572565D01*
X161948595Y-60613744D01*
X161951445Y-60615409D01*
X162000169Y-60667047D01*
X162013240Y-60736830D01*
X161986509Y-60802602D01*
X161946055Y-60835960D01*
X161933607Y-60842440D01*
X161929474Y-60845543D01*
X161929471Y-60845545D01*
X161905247Y-60863733D01*
X161754965Y-60976568D01*
X161751393Y-60980306D01*
X161615950Y-61122039D01*
X161600629Y-61138071D01*
X161474743Y-61322613D01*
X161380688Y-61525238D01*
X161320989Y-61740503D01*
X161297251Y-61962628D01*
X161297548Y-61967781D01*
X161297548Y-61967784D01*
X161303011Y-62062523D01*
X161310110Y-62185648D01*
X161311247Y-62190694D01*
X161311248Y-62190700D01*
X161331119Y-62278872D01*
X161359222Y-62403572D01*
X161443266Y-62610549D01*
X161559987Y-62801021D01*
X161706250Y-62969871D01*
X161878126Y-63112565D01*
X161948595Y-63153744D01*
X161951445Y-63155409D01*
X162000169Y-63207047D01*
X162013240Y-63276830D01*
X161986509Y-63342602D01*
X161946055Y-63375960D01*
X161933607Y-63382440D01*
X161929474Y-63385543D01*
X161929471Y-63385545D01*
X161905247Y-63403733D01*
X161754965Y-63516568D01*
X161600629Y-63678071D01*
X161474743Y-63862613D01*
X161380688Y-64065238D01*
X161320989Y-64280503D01*
X161297251Y-64502628D01*
X161297548Y-64507781D01*
X161297548Y-64507784D01*
X161303011Y-64602523D01*
X161310110Y-64725648D01*
X161311247Y-64730694D01*
X161311248Y-64730700D01*
X161331119Y-64818872D01*
X161359222Y-64943572D01*
X161443266Y-65150549D01*
X161559987Y-65341021D01*
X161706250Y-65509871D01*
X161878126Y-65652565D01*
X161926623Y-65680904D01*
X161951445Y-65695409D01*
X162000169Y-65747047D01*
X162013240Y-65816830D01*
X161986509Y-65882602D01*
X161946055Y-65915960D01*
X161933607Y-65922440D01*
X161929474Y-65925543D01*
X161929471Y-65925545D01*
X161759100Y-66053463D01*
X161754965Y-66056568D01*
X161600629Y-66218071D01*
X161474743Y-66402613D01*
X161380688Y-66605238D01*
X161320989Y-66820503D01*
X161297251Y-67042628D01*
X161297548Y-67047781D01*
X161297548Y-67047784D01*
X161306962Y-67211049D01*
X161310110Y-67265648D01*
X161311247Y-67270694D01*
X161311248Y-67270700D01*
X161328040Y-67345209D01*
X161359222Y-67483572D01*
X161443266Y-67690549D01*
X161470365Y-67734771D01*
X161525724Y-67825108D01*
X161559987Y-67881021D01*
X161706250Y-68049871D01*
X161878126Y-68192565D01*
X161923869Y-68219295D01*
X161951445Y-68235409D01*
X162000169Y-68287047D01*
X162013240Y-68356830D01*
X161986509Y-68422602D01*
X161946055Y-68455960D01*
X161933607Y-68462440D01*
X161929474Y-68465543D01*
X161929471Y-68465545D01*
X161795142Y-68566402D01*
X161754965Y-68596568D01*
X161600629Y-68758071D01*
X161474743Y-68942613D01*
X161380688Y-69145238D01*
X161320989Y-69360503D01*
X161297251Y-69582628D01*
X161297548Y-69587781D01*
X161297548Y-69587784D01*
X161307361Y-69757972D01*
X161310110Y-69805648D01*
X161311247Y-69810694D01*
X161311248Y-69810700D01*
X161322416Y-69860254D01*
X161359222Y-70023572D01*
X161443266Y-70230549D01*
X161559987Y-70421021D01*
X161706250Y-70589871D01*
X161878126Y-70732565D01*
X161923869Y-70759295D01*
X161951445Y-70775409D01*
X162000169Y-70827047D01*
X162013240Y-70896830D01*
X161986509Y-70962602D01*
X161946055Y-70995960D01*
X161933607Y-71002440D01*
X161929474Y-71005543D01*
X161929471Y-71005545D01*
X161788721Y-71111223D01*
X161754965Y-71136568D01*
X161600629Y-71298071D01*
X161474743Y-71482613D01*
X161380688Y-71685238D01*
X161320989Y-71900503D01*
X161297251Y-72122628D01*
X161297548Y-72127781D01*
X161297548Y-72127784D01*
X161303011Y-72222523D01*
X161310110Y-72345648D01*
X161311247Y-72350694D01*
X161311248Y-72350700D01*
X161331119Y-72438872D01*
X161359222Y-72563572D01*
X161443266Y-72770549D01*
X161559987Y-72961021D01*
X161706250Y-73129871D01*
X161878126Y-73272565D01*
X161923869Y-73299295D01*
X161951445Y-73315409D01*
X162000169Y-73367047D01*
X162013240Y-73436830D01*
X161986509Y-73502602D01*
X161946055Y-73535960D01*
X161933607Y-73542440D01*
X161929474Y-73545543D01*
X161929471Y-73545545D01*
X161788721Y-73651223D01*
X161754965Y-73676568D01*
X161600629Y-73838071D01*
X161474743Y-74022613D01*
X161380688Y-74225238D01*
X161320989Y-74440503D01*
X161297251Y-74662628D01*
X161297548Y-74667781D01*
X161297548Y-74667784D01*
X161303011Y-74762523D01*
X161310110Y-74885648D01*
X161311247Y-74890694D01*
X161311248Y-74890700D01*
X161331119Y-74978872D01*
X161359222Y-75103572D01*
X161443266Y-75310549D01*
X161559987Y-75501021D01*
X161706250Y-75669871D01*
X161878126Y-75812565D01*
X161948595Y-75853744D01*
X161951445Y-75855409D01*
X162000169Y-75907047D01*
X162013240Y-75976830D01*
X161986509Y-76042602D01*
X161946055Y-76075960D01*
X161933607Y-76082440D01*
X161929474Y-76085543D01*
X161929471Y-76085545D01*
X161905247Y-76103733D01*
X161754965Y-76216568D01*
X161600629Y-76378071D01*
X161474743Y-76562613D01*
X161380688Y-76765238D01*
X161320989Y-76980503D01*
X161297251Y-77202628D01*
X161297548Y-77207781D01*
X161297548Y-77207784D01*
X161303011Y-77302523D01*
X161310110Y-77425648D01*
X161311247Y-77430694D01*
X161311248Y-77430700D01*
X161331119Y-77518872D01*
X161359222Y-77643572D01*
X161443266Y-77850549D01*
X161559987Y-78041021D01*
X161706250Y-78209871D01*
X161878126Y-78352565D01*
X161948595Y-78393744D01*
X161951445Y-78395409D01*
X162000169Y-78447047D01*
X162013240Y-78516830D01*
X161986509Y-78582602D01*
X161946055Y-78615960D01*
X161933607Y-78622440D01*
X161929474Y-78625543D01*
X161929471Y-78625545D01*
X161905247Y-78643733D01*
X161754965Y-78756568D01*
X161600629Y-78918071D01*
X161474743Y-79102613D01*
X161380688Y-79305238D01*
X161320989Y-79520503D01*
X161297251Y-79742628D01*
X161297548Y-79747781D01*
X161297548Y-79747784D01*
X161303011Y-79842523D01*
X161310110Y-79965648D01*
X161311247Y-79970694D01*
X161311248Y-79970700D01*
X161331119Y-80058872D01*
X161359222Y-80183572D01*
X161443266Y-80390549D01*
X161559987Y-80581021D01*
X161706250Y-80749871D01*
X161878126Y-80892565D01*
X161948595Y-80933744D01*
X161951445Y-80935409D01*
X162000169Y-80987047D01*
X162013240Y-81056830D01*
X161986509Y-81122602D01*
X161946055Y-81155960D01*
X161933607Y-81162440D01*
X161929474Y-81165543D01*
X161929471Y-81165545D01*
X161905247Y-81183733D01*
X161754965Y-81296568D01*
X161600629Y-81458071D01*
X161474743Y-81642613D01*
X161380688Y-81845238D01*
X161320989Y-82060503D01*
X161297251Y-82282628D01*
X161297548Y-82287781D01*
X161297548Y-82287784D01*
X161303011Y-82382523D01*
X161310110Y-82505648D01*
X161311247Y-82510694D01*
X161311248Y-82510700D01*
X161331119Y-82598872D01*
X161359222Y-82723572D01*
X161443266Y-82930549D01*
X161445965Y-82934953D01*
X161532795Y-83076647D01*
X161559987Y-83121021D01*
X161706250Y-83289871D01*
X161878126Y-83432565D01*
X161948595Y-83473744D01*
X161951445Y-83475409D01*
X162000169Y-83527047D01*
X162013240Y-83596830D01*
X161986509Y-83662602D01*
X161946055Y-83695960D01*
X161933607Y-83702440D01*
X161929474Y-83705543D01*
X161929471Y-83705545D01*
X161905247Y-83723733D01*
X161754965Y-83836568D01*
X161600629Y-83998071D01*
X161474743Y-84182613D01*
X161380688Y-84385238D01*
X161320989Y-84600503D01*
X161297251Y-84822628D01*
X161297548Y-84827781D01*
X161297548Y-84827784D01*
X161303011Y-84922523D01*
X161310110Y-85045648D01*
X161311247Y-85050694D01*
X161311248Y-85050700D01*
X161329307Y-85130830D01*
X161359222Y-85263572D01*
X161443266Y-85470549D01*
X161559987Y-85661021D01*
X161706250Y-85829871D01*
X161878126Y-85972565D01*
X161937460Y-86007237D01*
X161951445Y-86015409D01*
X162000169Y-86067047D01*
X162013240Y-86136830D01*
X161986509Y-86202602D01*
X161946055Y-86235960D01*
X161933607Y-86242440D01*
X161929474Y-86245543D01*
X161929471Y-86245545D01*
X161905247Y-86263733D01*
X161754965Y-86376568D01*
X161600629Y-86538071D01*
X161474743Y-86722613D01*
X161380688Y-86925238D01*
X161320989Y-87140503D01*
X161297251Y-87362628D01*
X161297548Y-87367781D01*
X161297548Y-87367784D01*
X161303011Y-87462523D01*
X161310110Y-87585648D01*
X161311247Y-87590694D01*
X161311248Y-87590700D01*
X161322234Y-87639447D01*
X161359222Y-87803572D01*
X161443266Y-88010549D01*
X161559987Y-88201021D01*
X161706250Y-88369871D01*
X161878126Y-88512565D01*
X161948595Y-88553744D01*
X161951445Y-88555409D01*
X162000169Y-88607047D01*
X162013240Y-88676830D01*
X161986509Y-88742602D01*
X161946055Y-88775960D01*
X161933607Y-88782440D01*
X161929474Y-88785543D01*
X161929471Y-88785545D01*
X161784290Y-88894550D01*
X161754965Y-88916568D01*
X161600629Y-89078071D01*
X161597715Y-89082343D01*
X161597714Y-89082344D01*
X161512556Y-89207182D01*
X161474743Y-89262613D01*
X161380688Y-89465238D01*
X161320989Y-89680503D01*
X161297251Y-89902628D01*
X161297548Y-89907781D01*
X161297548Y-89907784D01*
X161302873Y-90000128D01*
X161310110Y-90125648D01*
X161311247Y-90130694D01*
X161311248Y-90130700D01*
X161331119Y-90218872D01*
X161359222Y-90343572D01*
X161443266Y-90550549D01*
X161559987Y-90741021D01*
X161706250Y-90909871D01*
X161878126Y-91052565D01*
X161948595Y-91093744D01*
X161951445Y-91095409D01*
X162000169Y-91147047D01*
X162013240Y-91216830D01*
X161986509Y-91282602D01*
X161946055Y-91315960D01*
X161933607Y-91322440D01*
X161929474Y-91325543D01*
X161929471Y-91325545D01*
X161905247Y-91343733D01*
X161754965Y-91456568D01*
X161751393Y-91460306D01*
X161626372Y-91591133D01*
X161600629Y-91618071D01*
X161474743Y-91802613D01*
X161380688Y-92005238D01*
X161320989Y-92220503D01*
X161297251Y-92442628D01*
X161297548Y-92447781D01*
X161297548Y-92447784D01*
X161303011Y-92542523D01*
X161310110Y-92665648D01*
X161311247Y-92670694D01*
X161311248Y-92670700D01*
X161331119Y-92758872D01*
X161359222Y-92883572D01*
X161443266Y-93090549D01*
X161559987Y-93281021D01*
X161706250Y-93449871D01*
X161878126Y-93592565D01*
X161948595Y-93633744D01*
X161951445Y-93635409D01*
X162000169Y-93687047D01*
X162013240Y-93756830D01*
X161986509Y-93822602D01*
X161946055Y-93855960D01*
X161933607Y-93862440D01*
X161929474Y-93865543D01*
X161929471Y-93865545D01*
X161905247Y-93883733D01*
X161754965Y-93996568D01*
X161600629Y-94158071D01*
X161474743Y-94342613D01*
X161380688Y-94545238D01*
X161320989Y-94760503D01*
X161297251Y-94982628D01*
X161297548Y-94987781D01*
X161297548Y-94987784D01*
X161303011Y-95082523D01*
X161310110Y-95205648D01*
X161311247Y-95210694D01*
X161311248Y-95210700D01*
X161331119Y-95298872D01*
X161359222Y-95423572D01*
X161443266Y-95630549D01*
X161559987Y-95821021D01*
X161706250Y-95989871D01*
X161878126Y-96132565D01*
X161948595Y-96173744D01*
X161951445Y-96175409D01*
X162000169Y-96227047D01*
X162013240Y-96296830D01*
X161986509Y-96362602D01*
X161946055Y-96395960D01*
X161933607Y-96402440D01*
X161929474Y-96405543D01*
X161929471Y-96405545D01*
X161905247Y-96423733D01*
X161754965Y-96536568D01*
X161600629Y-96698071D01*
X161474743Y-96882613D01*
X161380688Y-97085238D01*
X161320989Y-97300503D01*
X161297251Y-97522628D01*
X160607567Y-97522628D01*
X160607567Y-51807796D01*
X161298050Y-51807796D01*
X161310309Y-52020410D01*
X161311745Y-52030630D01*
X161358565Y-52238379D01*
X161361645Y-52248208D01*
X161441770Y-52445536D01*
X161446413Y-52454727D01*
X161526460Y-52585353D01*
X161536916Y-52594813D01*
X161545694Y-52591029D01*
X162287978Y-51848745D01*
X162294356Y-51837065D01*
X163024408Y-51837065D01*
X163024539Y-51838898D01*
X163028790Y-51845513D01*
X163770474Y-52587197D01*
X163782484Y-52593756D01*
X163794223Y-52584788D01*
X163825004Y-52541952D01*
X163830315Y-52533113D01*
X163924670Y-52342200D01*
X163928469Y-52332605D01*
X163990376Y-52128848D01*
X163992555Y-52118767D01*
X164020590Y-51905820D01*
X164021109Y-51899145D01*
X164022572Y-51839297D01*
X164022378Y-51832579D01*
X164004781Y-51618537D01*
X164003096Y-51608357D01*
X163951214Y-51401808D01*
X163947894Y-51392057D01*
X163862972Y-51196747D01*
X163858105Y-51187672D01*
X163793063Y-51087130D01*
X163782377Y-51077928D01*
X163772812Y-51082331D01*
X163032022Y-51823121D01*
X163024408Y-51837065D01*
X162294356Y-51837065D01*
X162295592Y-51834801D01*
X162295461Y-51832968D01*
X162291210Y-51826353D01*
X161549849Y-51084992D01*
X161538313Y-51078692D01*
X161526031Y-51088315D01*
X161478089Y-51158595D01*
X161473004Y-51167546D01*
X161383338Y-51360716D01*
X161379775Y-51370403D01*
X161322864Y-51575614D01*
X161320933Y-51585733D01*
X161298302Y-51797507D01*
X161298050Y-51807796D01*
X160607567Y-51807796D01*
X160607567Y-50680433D01*
X160627569Y-50612312D01*
X160681225Y-50565819D01*
X160733567Y-50554433D01*
X161776201Y-50554433D01*
X161844322Y-50574435D01*
G37*
%TD.AperFunction*%
%TD*%
M02*
