%TF.GenerationSoftware,KiCad,Pcbnew,6.0.11+dfsg-1~bpo11+1*%
%TF.CreationDate,2023-04-14T10:24:12+08:00*%
%TF.ProjectId,MiniVerb - Main,4d696e69-5665-4726-9220-2d204d61696e,rev?*%
%TF.SameCoordinates,Original*%
%TF.FileFunction,Drillmap*%
%TF.FilePolarity,Positive*%
%FSLAX45Y45*%
G04 Gerber Fmt 4.5, Leading zero omitted, Abs format (unit mm)*
G04 Created by KiCad (PCBNEW 6.0.11+dfsg-1~bpo11+1) date 2023-04-14 10:24:12*
%MOMM*%
%LPD*%
G01*
G04 APERTURE LIST*
%ADD10C,0.100000*%
%ADD11C,0.200000*%
G04 APERTURE END LIST*
D10*
X18009907Y-15354593D02*
X16009907Y-15354593D01*
X16009907Y-15354593D02*
X16009907Y-5004593D01*
X16009907Y-5004593D02*
X18009907Y-5004593D01*
X18009907Y-5004593D02*
X18009907Y-15354593D01*
D11*
X16262526Y-15670069D02*
X16262526Y-15470069D01*
X16310145Y-15470069D01*
X16338716Y-15479593D01*
X16357764Y-15498641D01*
X16367288Y-15517688D01*
X16376811Y-15555784D01*
X16376811Y-15584355D01*
X16367288Y-15622450D01*
X16357764Y-15641498D01*
X16338716Y-15660546D01*
X16310145Y-15670069D01*
X16262526Y-15670069D01*
X16462526Y-15670069D02*
X16462526Y-15536736D01*
X16462526Y-15574831D02*
X16472049Y-15555784D01*
X16481573Y-15546260D01*
X16500621Y-15536736D01*
X16519669Y-15536736D01*
X16586335Y-15670069D02*
X16586335Y-15536736D01*
X16586335Y-15470069D02*
X16576811Y-15479593D01*
X16586335Y-15489117D01*
X16595859Y-15479593D01*
X16586335Y-15470069D01*
X16586335Y-15489117D01*
X16710145Y-15670069D02*
X16691097Y-15660546D01*
X16681573Y-15641498D01*
X16681573Y-15470069D01*
X16814907Y-15670069D02*
X16795859Y-15660546D01*
X16786335Y-15641498D01*
X16786335Y-15470069D01*
X17043478Y-15670069D02*
X17043478Y-15470069D01*
X17110145Y-15612927D01*
X17176811Y-15470069D01*
X17176811Y-15670069D01*
X17357764Y-15670069D02*
X17357764Y-15565307D01*
X17348240Y-15546260D01*
X17329192Y-15536736D01*
X17291097Y-15536736D01*
X17272050Y-15546260D01*
X17357764Y-15660546D02*
X17338716Y-15670069D01*
X17291097Y-15670069D01*
X17272050Y-15660546D01*
X17262526Y-15641498D01*
X17262526Y-15622450D01*
X17272050Y-15603403D01*
X17291097Y-15593879D01*
X17338716Y-15593879D01*
X17357764Y-15584355D01*
X17453002Y-15536736D02*
X17453002Y-15736736D01*
X17453002Y-15546260D02*
X17472050Y-15536736D01*
X17510145Y-15536736D01*
X17529192Y-15546260D01*
X17538716Y-15555784D01*
X17548240Y-15574831D01*
X17548240Y-15631974D01*
X17538716Y-15651022D01*
X17529192Y-15660546D01*
X17510145Y-15670069D01*
X17472050Y-15670069D01*
X17453002Y-15660546D01*
X17633954Y-15651022D02*
X17643478Y-15660546D01*
X17633954Y-15670069D01*
X17624431Y-15660546D01*
X17633954Y-15651022D01*
X17633954Y-15670069D01*
X17633954Y-15546260D02*
X17643478Y-15555784D01*
X17633954Y-15565307D01*
X17624431Y-15555784D01*
X17633954Y-15546260D01*
X17633954Y-15565307D01*
M02*
