%TF.GenerationSoftware,KiCad,Pcbnew,6.0.9+dfsg-1~bpo11+1*%
%TF.CreationDate,2023-01-13T02:31:23+08:00*%
%TF.ProjectId,MiniVerb - Front,4d696e69-5665-4726-9220-2d2046726f6e,rev?*%
%TF.SameCoordinates,Original*%
%TF.FileFunction,Drillmap*%
%TF.FilePolarity,Positive*%
%FSLAX45Y45*%
G04 Gerber Fmt 4.5, Leading zero omitted, Abs format (unit mm)*
G04 Created by KiCad (PCBNEW 6.0.9+dfsg-1~bpo11+1) date 2023-01-13 02:31:23*
%MOMM*%
%LPD*%
G01*
G04 APERTURE LIST*
%ADD10C,0.100000*%
%ADD11C,0.200000*%
G04 APERTURE END LIST*
D10*
X12000000Y-16050000D02*
X12000000Y-3200000D01*
X12000000Y-3200000D02*
X16000000Y-3200000D01*
X16000000Y-16050000D02*
X12000000Y-16050000D01*
X16000000Y-3200000D02*
X16000000Y-16050000D01*
D11*
X12252619Y-16365476D02*
X12252619Y-16165476D01*
X12300238Y-16165476D01*
X12328809Y-16175000D01*
X12347857Y-16194048D01*
X12357381Y-16213095D01*
X12366905Y-16251190D01*
X12366905Y-16279762D01*
X12357381Y-16317857D01*
X12347857Y-16336905D01*
X12328809Y-16355952D01*
X12300238Y-16365476D01*
X12252619Y-16365476D01*
X12452619Y-16365476D02*
X12452619Y-16232143D01*
X12452619Y-16270238D02*
X12462143Y-16251190D01*
X12471667Y-16241667D01*
X12490714Y-16232143D01*
X12509762Y-16232143D01*
X12576428Y-16365476D02*
X12576428Y-16232143D01*
X12576428Y-16165476D02*
X12566905Y-16175000D01*
X12576428Y-16184524D01*
X12585952Y-16175000D01*
X12576428Y-16165476D01*
X12576428Y-16184524D01*
X12700238Y-16365476D02*
X12681190Y-16355952D01*
X12671667Y-16336905D01*
X12671667Y-16165476D01*
X12805000Y-16365476D02*
X12785952Y-16355952D01*
X12776428Y-16336905D01*
X12776428Y-16165476D01*
X13033571Y-16365476D02*
X13033571Y-16165476D01*
X13100238Y-16308333D01*
X13166905Y-16165476D01*
X13166905Y-16365476D01*
X13347857Y-16365476D02*
X13347857Y-16260714D01*
X13338333Y-16241667D01*
X13319286Y-16232143D01*
X13281190Y-16232143D01*
X13262143Y-16241667D01*
X13347857Y-16355952D02*
X13328809Y-16365476D01*
X13281190Y-16365476D01*
X13262143Y-16355952D01*
X13252619Y-16336905D01*
X13252619Y-16317857D01*
X13262143Y-16298809D01*
X13281190Y-16289286D01*
X13328809Y-16289286D01*
X13347857Y-16279762D01*
X13443095Y-16232143D02*
X13443095Y-16432143D01*
X13443095Y-16241667D02*
X13462143Y-16232143D01*
X13500238Y-16232143D01*
X13519286Y-16241667D01*
X13528809Y-16251190D01*
X13538333Y-16270238D01*
X13538333Y-16327381D01*
X13528809Y-16346428D01*
X13519286Y-16355952D01*
X13500238Y-16365476D01*
X13462143Y-16365476D01*
X13443095Y-16355952D01*
X13624048Y-16346428D02*
X13633571Y-16355952D01*
X13624048Y-16365476D01*
X13614524Y-16355952D01*
X13624048Y-16346428D01*
X13624048Y-16365476D01*
X13624048Y-16241667D02*
X13633571Y-16251190D01*
X13624048Y-16260714D01*
X13614524Y-16251190D01*
X13624048Y-16241667D01*
X13624048Y-16260714D01*
M02*
