%TF.GenerationSoftware,KiCad,Pcbnew,6.0.10+dfsg-1~bpo11+1*%
%TF.CreationDate,2023-02-01T15:05:14+08:00*%
%TF.ProjectId,MiniVerb - Front,4d696e69-5665-4726-9220-2d2046726f6e,rev?*%
%TF.SameCoordinates,Original*%
%TF.FileFunction,Drillmap*%
%TF.FilePolarity,Positive*%
%FSLAX45Y45*%
G04 Gerber Fmt 4.5, Leading zero omitted, Abs format (unit mm)*
G04 Created by KiCad (PCBNEW 6.0.10+dfsg-1~bpo11+1) date 2023-02-01 15:05:14*
%MOMM*%
%LPD*%
G01*
G04 APERTURE LIST*
%ADD10C,0.100000*%
%ADD11C,0.200000*%
G04 APERTURE END LIST*
D10*
X11706000Y-5001000D02*
X9706000Y-5001000D01*
X11711000Y-17851000D02*
X11706000Y-5001000D01*
X9706000Y-5001000D02*
X9716000Y-17851000D01*
X9716000Y-17851000D02*
X11711000Y-17851000D01*
D11*
X9958619Y-18166476D02*
X9958619Y-17966476D01*
X10006238Y-17966476D01*
X10034810Y-17976000D01*
X10053857Y-17995048D01*
X10063381Y-18014095D01*
X10072905Y-18052190D01*
X10072905Y-18080762D01*
X10063381Y-18118857D01*
X10053857Y-18137905D01*
X10034810Y-18156952D01*
X10006238Y-18166476D01*
X9958619Y-18166476D01*
X10158619Y-18166476D02*
X10158619Y-18033143D01*
X10158619Y-18071238D02*
X10168143Y-18052190D01*
X10177667Y-18042667D01*
X10196714Y-18033143D01*
X10215762Y-18033143D01*
X10282429Y-18166476D02*
X10282429Y-18033143D01*
X10282429Y-17966476D02*
X10272905Y-17976000D01*
X10282429Y-17985524D01*
X10291952Y-17976000D01*
X10282429Y-17966476D01*
X10282429Y-17985524D01*
X10406238Y-18166476D02*
X10387190Y-18156952D01*
X10377667Y-18137905D01*
X10377667Y-17966476D01*
X10511000Y-18166476D02*
X10491952Y-18156952D01*
X10482429Y-18137905D01*
X10482429Y-17966476D01*
X10739571Y-18166476D02*
X10739571Y-17966476D01*
X10806238Y-18109333D01*
X10872905Y-17966476D01*
X10872905Y-18166476D01*
X11053857Y-18166476D02*
X11053857Y-18061714D01*
X11044333Y-18042667D01*
X11025286Y-18033143D01*
X10987190Y-18033143D01*
X10968143Y-18042667D01*
X11053857Y-18156952D02*
X11034810Y-18166476D01*
X10987190Y-18166476D01*
X10968143Y-18156952D01*
X10958619Y-18137905D01*
X10958619Y-18118857D01*
X10968143Y-18099810D01*
X10987190Y-18090286D01*
X11034810Y-18090286D01*
X11053857Y-18080762D01*
X11149095Y-18033143D02*
X11149095Y-18233143D01*
X11149095Y-18042667D02*
X11168143Y-18033143D01*
X11206238Y-18033143D01*
X11225286Y-18042667D01*
X11234809Y-18052190D01*
X11244333Y-18071238D01*
X11244333Y-18128381D01*
X11234809Y-18147429D01*
X11225286Y-18156952D01*
X11206238Y-18166476D01*
X11168143Y-18166476D01*
X11149095Y-18156952D01*
X11330048Y-18147429D02*
X11339571Y-18156952D01*
X11330048Y-18166476D01*
X11320524Y-18156952D01*
X11330048Y-18147429D01*
X11330048Y-18166476D01*
X11330048Y-18042667D02*
X11339571Y-18052190D01*
X11330048Y-18061714D01*
X11320524Y-18052190D01*
X11330048Y-18042667D01*
X11330048Y-18061714D01*
M02*
