%TF.GenerationSoftware,KiCad,Pcbnew,6.0.10+dfsg-1~bpo11+1*%
%TF.CreationDate,2023-02-01T15:05:14+08:00*%
%TF.ProjectId,MiniVerb - Front,4d696e69-5665-4726-9220-2d2046726f6e,rev?*%
%TF.SameCoordinates,Original*%
%TF.FileFunction,Drillmap*%
%TF.FilePolarity,Positive*%
%FSLAX45Y45*%
G04 Gerber Fmt 4.5, Leading zero omitted, Abs format (unit mm)*
G04 Created by KiCad (PCBNEW 6.0.10+dfsg-1~bpo11+1) date 2023-02-01 15:05:14*
%MOMM*%
%LPD*%
G01*
G04 APERTURE LIST*
%ADD10C,0.100000*%
%ADD11C,0.200000*%
%ADD12C,0.300000*%
%ADD13C,0.320000*%
%ADD14C,0.600000*%
%ADD15C,0.700000*%
G04 APERTURE END LIST*
D10*
X11706000Y-5001000D02*
X9706000Y-5001000D01*
X11711000Y-17851000D02*
X11706000Y-5001000D01*
X9706000Y-5001000D02*
X9716000Y-17851000D01*
X9716000Y-17851000D02*
X11711000Y-17851000D01*
D11*
D12*
X9960000Y-14750000D02*
X10260000Y-15050000D01*
X10260000Y-14750000D02*
X9960000Y-15050000D01*
D13*
X10615000Y-5300000D02*
G75*
G03*
X10615000Y-5300000I-160000J0D01*
G01*
D11*
X10315000Y-5460000D02*
X10595000Y-5460000D01*
X10315000Y-5140000D02*
X10595000Y-5140000D01*
X10595000Y-5460000D02*
G75*
G03*
X10595000Y-5140000I0J160000D01*
G01*
X10315000Y-5140000D02*
G75*
G03*
X10315000Y-5460000I0J-160000D01*
G01*
D13*
X10615000Y-17550000D02*
G75*
G03*
X10615000Y-17550000I-160000J0D01*
G01*
D11*
X10315000Y-17710000D02*
X10595000Y-17710000D01*
X10315000Y-17390000D02*
X10595000Y-17390000D01*
X10595000Y-17710000D02*
G75*
G03*
X10595000Y-17390000I0J160000D01*
G01*
X10315000Y-17390000D02*
G75*
G03*
X10315000Y-17710000I0J-160000D01*
G01*
D14*
X10205000Y-13655000D02*
X10205000Y-14255000D01*
X9905000Y-13955000D02*
X10505000Y-13955000D01*
X10205000Y-15665000D02*
X10205000Y-16265000D01*
X9905000Y-15965000D02*
X10505000Y-15965000D01*
X11205000Y-15665000D02*
X11205000Y-16265000D01*
X10905000Y-15965000D02*
X11505000Y-15965000D01*
D15*
X10947490Y-9652490D02*
X10947490Y-9157510D01*
X10452510Y-9157510D01*
X10452510Y-9652490D01*
X10947490Y-9652490D01*
X10952490Y-7652490D02*
X10952490Y-7157510D01*
X10457510Y-7157510D01*
X10457510Y-7652490D01*
X10952490Y-7652490D01*
X10952490Y-11652490D02*
X10952490Y-11157510D01*
X10457510Y-11157510D01*
X10457510Y-11652490D01*
X10952490Y-11652490D01*
D11*
X9958619Y-18166476D02*
X9958619Y-17966476D01*
X10006238Y-17966476D01*
X10034810Y-17976000D01*
X10053857Y-17995048D01*
X10063381Y-18014095D01*
X10072905Y-18052190D01*
X10072905Y-18080762D01*
X10063381Y-18118857D01*
X10053857Y-18137905D01*
X10034810Y-18156952D01*
X10006238Y-18166476D01*
X9958619Y-18166476D01*
X10158619Y-18166476D02*
X10158619Y-18033143D01*
X10158619Y-18071238D02*
X10168143Y-18052190D01*
X10177667Y-18042667D01*
X10196714Y-18033143D01*
X10215762Y-18033143D01*
X10282429Y-18166476D02*
X10282429Y-18033143D01*
X10282429Y-17966476D02*
X10272905Y-17976000D01*
X10282429Y-17985524D01*
X10291952Y-17976000D01*
X10282429Y-17966476D01*
X10282429Y-17985524D01*
X10406238Y-18166476D02*
X10387190Y-18156952D01*
X10377667Y-18137905D01*
X10377667Y-17966476D01*
X10511000Y-18166476D02*
X10491952Y-18156952D01*
X10482429Y-18137905D01*
X10482429Y-17966476D01*
X10739571Y-18166476D02*
X10739571Y-17966476D01*
X10806238Y-18109333D01*
X10872905Y-17966476D01*
X10872905Y-18166476D01*
X11053857Y-18166476D02*
X11053857Y-18061714D01*
X11044333Y-18042667D01*
X11025286Y-18033143D01*
X10987190Y-18033143D01*
X10968143Y-18042667D01*
X11053857Y-18156952D02*
X11034810Y-18166476D01*
X10987190Y-18166476D01*
X10968143Y-18156952D01*
X10958619Y-18137905D01*
X10958619Y-18118857D01*
X10968143Y-18099810D01*
X10987190Y-18090286D01*
X11034810Y-18090286D01*
X11053857Y-18080762D01*
X11149095Y-18033143D02*
X11149095Y-18233143D01*
X11149095Y-18042667D02*
X11168143Y-18033143D01*
X11206238Y-18033143D01*
X11225286Y-18042667D01*
X11234809Y-18052190D01*
X11244333Y-18071238D01*
X11244333Y-18128381D01*
X11234809Y-18147429D01*
X11225286Y-18156952D01*
X11206238Y-18166476D01*
X11168143Y-18166476D01*
X11149095Y-18156952D01*
X11330048Y-18147429D02*
X11339571Y-18156952D01*
X11330048Y-18166476D01*
X11320524Y-18156952D01*
X11330048Y-18147429D01*
X11330048Y-18166476D01*
X11330048Y-18042667D02*
X11339571Y-18052190D01*
X11330048Y-18061714D01*
X11320524Y-18052190D01*
X11330048Y-18042667D01*
X11330048Y-18061714D01*
X9501000Y-18396000D02*
X9701000Y-18596000D01*
X9701000Y-18396000D02*
X9501000Y-18596000D01*
X9939571Y-18386476D02*
X10063381Y-18386476D01*
X9996714Y-18462667D01*
X10025286Y-18462667D01*
X10044333Y-18472190D01*
X10053857Y-18481714D01*
X10063381Y-18500762D01*
X10063381Y-18548381D01*
X10053857Y-18567429D01*
X10044333Y-18576952D01*
X10025286Y-18586476D01*
X9968143Y-18586476D01*
X9949095Y-18576952D01*
X9939571Y-18567429D01*
X10149095Y-18567429D02*
X10158619Y-18576952D01*
X10149095Y-18586476D01*
X10139571Y-18576952D01*
X10149095Y-18567429D01*
X10149095Y-18586476D01*
X10282429Y-18386476D02*
X10301476Y-18386476D01*
X10320524Y-18396000D01*
X10330048Y-18405524D01*
X10339571Y-18424571D01*
X10349095Y-18462667D01*
X10349095Y-18510286D01*
X10339571Y-18548381D01*
X10330048Y-18567429D01*
X10320524Y-18576952D01*
X10301476Y-18586476D01*
X10282429Y-18586476D01*
X10263381Y-18576952D01*
X10253857Y-18567429D01*
X10244333Y-18548381D01*
X10234810Y-18510286D01*
X10234810Y-18462667D01*
X10244333Y-18424571D01*
X10253857Y-18405524D01*
X10263381Y-18396000D01*
X10282429Y-18386476D01*
X10472905Y-18386476D02*
X10491952Y-18386476D01*
X10511000Y-18396000D01*
X10520524Y-18405524D01*
X10530048Y-18424571D01*
X10539571Y-18462667D01*
X10539571Y-18510286D01*
X10530048Y-18548381D01*
X10520524Y-18567429D01*
X10511000Y-18576952D01*
X10491952Y-18586476D01*
X10472905Y-18586476D01*
X10453857Y-18576952D01*
X10444333Y-18567429D01*
X10434810Y-18548381D01*
X10425286Y-18510286D01*
X10425286Y-18462667D01*
X10434810Y-18424571D01*
X10444333Y-18405524D01*
X10453857Y-18396000D01*
X10472905Y-18386476D01*
X10663381Y-18386476D02*
X10682429Y-18386476D01*
X10701476Y-18396000D01*
X10711000Y-18405524D01*
X10720524Y-18424571D01*
X10730048Y-18462667D01*
X10730048Y-18510286D01*
X10720524Y-18548381D01*
X10711000Y-18567429D01*
X10701476Y-18576952D01*
X10682429Y-18586476D01*
X10663381Y-18586476D01*
X10644333Y-18576952D01*
X10634810Y-18567429D01*
X10625286Y-18548381D01*
X10615762Y-18510286D01*
X10615762Y-18462667D01*
X10625286Y-18424571D01*
X10634810Y-18405524D01*
X10644333Y-18396000D01*
X10663381Y-18386476D01*
X10815762Y-18586476D02*
X10815762Y-18453143D01*
X10815762Y-18472190D02*
X10825286Y-18462667D01*
X10844333Y-18453143D01*
X10872905Y-18453143D01*
X10891952Y-18462667D01*
X10901476Y-18481714D01*
X10901476Y-18586476D01*
X10901476Y-18481714D02*
X10911000Y-18462667D01*
X10930048Y-18453143D01*
X10958619Y-18453143D01*
X10977667Y-18462667D01*
X10987190Y-18481714D01*
X10987190Y-18586476D01*
X11082429Y-18586476D02*
X11082429Y-18453143D01*
X11082429Y-18472190D02*
X11091952Y-18462667D01*
X11111000Y-18453143D01*
X11139571Y-18453143D01*
X11158619Y-18462667D01*
X11168143Y-18481714D01*
X11168143Y-18586476D01*
X11168143Y-18481714D02*
X11177667Y-18462667D01*
X11196714Y-18453143D01*
X11225286Y-18453143D01*
X11244333Y-18462667D01*
X11253857Y-18481714D01*
X11253857Y-18586476D01*
X11644333Y-18376952D02*
X11472905Y-18634095D01*
X11901476Y-18386476D02*
X11920524Y-18386476D01*
X11939571Y-18396000D01*
X11949095Y-18405524D01*
X11958619Y-18424571D01*
X11968143Y-18462667D01*
X11968143Y-18510286D01*
X11958619Y-18548381D01*
X11949095Y-18567429D01*
X11939571Y-18576952D01*
X11920524Y-18586476D01*
X11901476Y-18586476D01*
X11882428Y-18576952D01*
X11872905Y-18567429D01*
X11863381Y-18548381D01*
X11853857Y-18510286D01*
X11853857Y-18462667D01*
X11863381Y-18424571D01*
X11872905Y-18405524D01*
X11882428Y-18396000D01*
X11901476Y-18386476D01*
X12053857Y-18567429D02*
X12063381Y-18576952D01*
X12053857Y-18586476D01*
X12044333Y-18576952D01*
X12053857Y-18567429D01*
X12053857Y-18586476D01*
X12253857Y-18586476D02*
X12139571Y-18586476D01*
X12196714Y-18586476D02*
X12196714Y-18386476D01*
X12177667Y-18415048D01*
X12158619Y-18434095D01*
X12139571Y-18443619D01*
X12444333Y-18586476D02*
X12330048Y-18586476D01*
X12387190Y-18586476D02*
X12387190Y-18386476D01*
X12368143Y-18415048D01*
X12349095Y-18434095D01*
X12330048Y-18443619D01*
X12558619Y-18472190D02*
X12539571Y-18462667D01*
X12530048Y-18453143D01*
X12520524Y-18434095D01*
X12520524Y-18424571D01*
X12530048Y-18405524D01*
X12539571Y-18396000D01*
X12558619Y-18386476D01*
X12596714Y-18386476D01*
X12615762Y-18396000D01*
X12625286Y-18405524D01*
X12634809Y-18424571D01*
X12634809Y-18434095D01*
X12625286Y-18453143D01*
X12615762Y-18462667D01*
X12596714Y-18472190D01*
X12558619Y-18472190D01*
X12539571Y-18481714D01*
X12530048Y-18491238D01*
X12520524Y-18510286D01*
X12520524Y-18548381D01*
X12530048Y-18567429D01*
X12539571Y-18576952D01*
X12558619Y-18586476D01*
X12596714Y-18586476D01*
X12615762Y-18576952D01*
X12625286Y-18567429D01*
X12634809Y-18548381D01*
X12634809Y-18510286D01*
X12625286Y-18491238D01*
X12615762Y-18481714D01*
X12596714Y-18472190D01*
X12825286Y-18586476D02*
X12711000Y-18586476D01*
X12768143Y-18586476D02*
X12768143Y-18386476D01*
X12749095Y-18415048D01*
X12730048Y-18434095D01*
X12711000Y-18443619D01*
X12901476Y-18386476D02*
X12901476Y-18424571D01*
X12977667Y-18386476D02*
X12977667Y-18424571D01*
X13272905Y-18662667D02*
X13263381Y-18653143D01*
X13244333Y-18624571D01*
X13234809Y-18605524D01*
X13225286Y-18576952D01*
X13215762Y-18529333D01*
X13215762Y-18491238D01*
X13225286Y-18443619D01*
X13234809Y-18415048D01*
X13244333Y-18396000D01*
X13263381Y-18367429D01*
X13272905Y-18357905D01*
X13453857Y-18586476D02*
X13339571Y-18586476D01*
X13396714Y-18586476D02*
X13396714Y-18386476D01*
X13377667Y-18415048D01*
X13358619Y-18434095D01*
X13339571Y-18443619D01*
X13691952Y-18586476D02*
X13691952Y-18386476D01*
X13777667Y-18586476D02*
X13777667Y-18481714D01*
X13768143Y-18462667D01*
X13749095Y-18453143D01*
X13720524Y-18453143D01*
X13701476Y-18462667D01*
X13691952Y-18472190D01*
X13901476Y-18586476D02*
X13882428Y-18576952D01*
X13872905Y-18567429D01*
X13863381Y-18548381D01*
X13863381Y-18491238D01*
X13872905Y-18472190D01*
X13882428Y-18462667D01*
X13901476Y-18453143D01*
X13930048Y-18453143D01*
X13949095Y-18462667D01*
X13958619Y-18472190D01*
X13968143Y-18491238D01*
X13968143Y-18548381D01*
X13958619Y-18567429D01*
X13949095Y-18576952D01*
X13930048Y-18586476D01*
X13901476Y-18586476D01*
X14082428Y-18586476D02*
X14063381Y-18576952D01*
X14053857Y-18557905D01*
X14053857Y-18386476D01*
X14234809Y-18576952D02*
X14215762Y-18586476D01*
X14177667Y-18586476D01*
X14158619Y-18576952D01*
X14149095Y-18557905D01*
X14149095Y-18481714D01*
X14158619Y-18462667D01*
X14177667Y-18453143D01*
X14215762Y-18453143D01*
X14234809Y-18462667D01*
X14244333Y-18481714D01*
X14244333Y-18500762D01*
X14149095Y-18519810D01*
X14311000Y-18662667D02*
X14320524Y-18653143D01*
X14339571Y-18624571D01*
X14349095Y-18605524D01*
X14358619Y-18576952D01*
X14368143Y-18529333D01*
X14368143Y-18491238D01*
X14358619Y-18443619D01*
X14349095Y-18415048D01*
X14339571Y-18396000D01*
X14320524Y-18367429D01*
X14311000Y-18357905D01*
X9701000Y-18816000D02*
G75*
G03*
X9701000Y-18816000I-100000J0D01*
G01*
X9939571Y-18706476D02*
X10063381Y-18706476D01*
X9996714Y-18782667D01*
X10025286Y-18782667D01*
X10044333Y-18792190D01*
X10053857Y-18801714D01*
X10063381Y-18820762D01*
X10063381Y-18868381D01*
X10053857Y-18887429D01*
X10044333Y-18896952D01*
X10025286Y-18906476D01*
X9968143Y-18906476D01*
X9949095Y-18896952D01*
X9939571Y-18887429D01*
X10149095Y-18887429D02*
X10158619Y-18896952D01*
X10149095Y-18906476D01*
X10139571Y-18896952D01*
X10149095Y-18887429D01*
X10149095Y-18906476D01*
X10234810Y-18725524D02*
X10244333Y-18716000D01*
X10263381Y-18706476D01*
X10311000Y-18706476D01*
X10330048Y-18716000D01*
X10339571Y-18725524D01*
X10349095Y-18744571D01*
X10349095Y-18763619D01*
X10339571Y-18792190D01*
X10225286Y-18906476D01*
X10349095Y-18906476D01*
X10472905Y-18706476D02*
X10491952Y-18706476D01*
X10511000Y-18716000D01*
X10520524Y-18725524D01*
X10530048Y-18744571D01*
X10539571Y-18782667D01*
X10539571Y-18830286D01*
X10530048Y-18868381D01*
X10520524Y-18887429D01*
X10511000Y-18896952D01*
X10491952Y-18906476D01*
X10472905Y-18906476D01*
X10453857Y-18896952D01*
X10444333Y-18887429D01*
X10434810Y-18868381D01*
X10425286Y-18830286D01*
X10425286Y-18782667D01*
X10434810Y-18744571D01*
X10444333Y-18725524D01*
X10453857Y-18716000D01*
X10472905Y-18706476D01*
X10663381Y-18706476D02*
X10682429Y-18706476D01*
X10701476Y-18716000D01*
X10711000Y-18725524D01*
X10720524Y-18744571D01*
X10730048Y-18782667D01*
X10730048Y-18830286D01*
X10720524Y-18868381D01*
X10711000Y-18887429D01*
X10701476Y-18896952D01*
X10682429Y-18906476D01*
X10663381Y-18906476D01*
X10644333Y-18896952D01*
X10634810Y-18887429D01*
X10625286Y-18868381D01*
X10615762Y-18830286D01*
X10615762Y-18782667D01*
X10625286Y-18744571D01*
X10634810Y-18725524D01*
X10644333Y-18716000D01*
X10663381Y-18706476D01*
X10815762Y-18906476D02*
X10815762Y-18773143D01*
X10815762Y-18792190D02*
X10825286Y-18782667D01*
X10844333Y-18773143D01*
X10872905Y-18773143D01*
X10891952Y-18782667D01*
X10901476Y-18801714D01*
X10901476Y-18906476D01*
X10901476Y-18801714D02*
X10911000Y-18782667D01*
X10930048Y-18773143D01*
X10958619Y-18773143D01*
X10977667Y-18782667D01*
X10987190Y-18801714D01*
X10987190Y-18906476D01*
X11082429Y-18906476D02*
X11082429Y-18773143D01*
X11082429Y-18792190D02*
X11091952Y-18782667D01*
X11111000Y-18773143D01*
X11139571Y-18773143D01*
X11158619Y-18782667D01*
X11168143Y-18801714D01*
X11168143Y-18906476D01*
X11168143Y-18801714D02*
X11177667Y-18782667D01*
X11196714Y-18773143D01*
X11225286Y-18773143D01*
X11244333Y-18782667D01*
X11253857Y-18801714D01*
X11253857Y-18906476D01*
X11644333Y-18696952D02*
X11472905Y-18954095D01*
X11901476Y-18706476D02*
X11920524Y-18706476D01*
X11939571Y-18716000D01*
X11949095Y-18725524D01*
X11958619Y-18744571D01*
X11968143Y-18782667D01*
X11968143Y-18830286D01*
X11958619Y-18868381D01*
X11949095Y-18887429D01*
X11939571Y-18896952D01*
X11920524Y-18906476D01*
X11901476Y-18906476D01*
X11882428Y-18896952D01*
X11872905Y-18887429D01*
X11863381Y-18868381D01*
X11853857Y-18830286D01*
X11853857Y-18782667D01*
X11863381Y-18744571D01*
X11872905Y-18725524D01*
X11882428Y-18716000D01*
X11901476Y-18706476D01*
X12053857Y-18887429D02*
X12063381Y-18896952D01*
X12053857Y-18906476D01*
X12044333Y-18896952D01*
X12053857Y-18887429D01*
X12053857Y-18906476D01*
X12253857Y-18906476D02*
X12139571Y-18906476D01*
X12196714Y-18906476D02*
X12196714Y-18706476D01*
X12177667Y-18735048D01*
X12158619Y-18754095D01*
X12139571Y-18763619D01*
X12330048Y-18725524D02*
X12339571Y-18716000D01*
X12358619Y-18706476D01*
X12406238Y-18706476D01*
X12425286Y-18716000D01*
X12434809Y-18725524D01*
X12444333Y-18744571D01*
X12444333Y-18763619D01*
X12434809Y-18792190D01*
X12320524Y-18906476D01*
X12444333Y-18906476D01*
X12615762Y-18706476D02*
X12577667Y-18706476D01*
X12558619Y-18716000D01*
X12549095Y-18725524D01*
X12530048Y-18754095D01*
X12520524Y-18792190D01*
X12520524Y-18868381D01*
X12530048Y-18887429D01*
X12539571Y-18896952D01*
X12558619Y-18906476D01*
X12596714Y-18906476D01*
X12615762Y-18896952D01*
X12625286Y-18887429D01*
X12634809Y-18868381D01*
X12634809Y-18820762D01*
X12625286Y-18801714D01*
X12615762Y-18792190D01*
X12596714Y-18782667D01*
X12558619Y-18782667D01*
X12539571Y-18792190D01*
X12530048Y-18801714D01*
X12520524Y-18820762D01*
X12758619Y-18706476D02*
X12777667Y-18706476D01*
X12796714Y-18716000D01*
X12806238Y-18725524D01*
X12815762Y-18744571D01*
X12825286Y-18782667D01*
X12825286Y-18830286D01*
X12815762Y-18868381D01*
X12806238Y-18887429D01*
X12796714Y-18896952D01*
X12777667Y-18906476D01*
X12758619Y-18906476D01*
X12739571Y-18896952D01*
X12730048Y-18887429D01*
X12720524Y-18868381D01*
X12711000Y-18830286D01*
X12711000Y-18782667D01*
X12720524Y-18744571D01*
X12730048Y-18725524D01*
X12739571Y-18716000D01*
X12758619Y-18706476D01*
X12901476Y-18706476D02*
X12901476Y-18744571D01*
X12977667Y-18706476D02*
X12977667Y-18744571D01*
X13272905Y-18982667D02*
X13263381Y-18973143D01*
X13244333Y-18944571D01*
X13234809Y-18925524D01*
X13225286Y-18896952D01*
X13215762Y-18849333D01*
X13215762Y-18811238D01*
X13225286Y-18763619D01*
X13234809Y-18735048D01*
X13244333Y-18716000D01*
X13263381Y-18687429D01*
X13272905Y-18677905D01*
X13387190Y-18706476D02*
X13406238Y-18706476D01*
X13425286Y-18716000D01*
X13434809Y-18725524D01*
X13444333Y-18744571D01*
X13453857Y-18782667D01*
X13453857Y-18830286D01*
X13444333Y-18868381D01*
X13434809Y-18887429D01*
X13425286Y-18896952D01*
X13406238Y-18906476D01*
X13387190Y-18906476D01*
X13368143Y-18896952D01*
X13358619Y-18887429D01*
X13349095Y-18868381D01*
X13339571Y-18830286D01*
X13339571Y-18782667D01*
X13349095Y-18744571D01*
X13358619Y-18725524D01*
X13368143Y-18716000D01*
X13387190Y-18706476D01*
X13691952Y-18906476D02*
X13691952Y-18706476D01*
X13777667Y-18906476D02*
X13777667Y-18801714D01*
X13768143Y-18782667D01*
X13749095Y-18773143D01*
X13720524Y-18773143D01*
X13701476Y-18782667D01*
X13691952Y-18792190D01*
X13901476Y-18906476D02*
X13882428Y-18896952D01*
X13872905Y-18887429D01*
X13863381Y-18868381D01*
X13863381Y-18811238D01*
X13872905Y-18792190D01*
X13882428Y-18782667D01*
X13901476Y-18773143D01*
X13930048Y-18773143D01*
X13949095Y-18782667D01*
X13958619Y-18792190D01*
X13968143Y-18811238D01*
X13968143Y-18868381D01*
X13958619Y-18887429D01*
X13949095Y-18896952D01*
X13930048Y-18906476D01*
X13901476Y-18906476D01*
X14082428Y-18906476D02*
X14063381Y-18896952D01*
X14053857Y-18877905D01*
X14053857Y-18706476D01*
X14234809Y-18896952D02*
X14215762Y-18906476D01*
X14177667Y-18906476D01*
X14158619Y-18896952D01*
X14149095Y-18877905D01*
X14149095Y-18801714D01*
X14158619Y-18782667D01*
X14177667Y-18773143D01*
X14215762Y-18773143D01*
X14234809Y-18782667D01*
X14244333Y-18801714D01*
X14244333Y-18820762D01*
X14149095Y-18839810D01*
X14320524Y-18896952D02*
X14339571Y-18906476D01*
X14377667Y-18906476D01*
X14396714Y-18896952D01*
X14406238Y-18877905D01*
X14406238Y-18868381D01*
X14396714Y-18849333D01*
X14377667Y-18839810D01*
X14349095Y-18839810D01*
X14330048Y-18830286D01*
X14320524Y-18811238D01*
X14320524Y-18801714D01*
X14330048Y-18782667D01*
X14349095Y-18773143D01*
X14377667Y-18773143D01*
X14396714Y-18782667D01*
X14644333Y-18830286D02*
X14796714Y-18830286D01*
X14720524Y-18906476D02*
X14720524Y-18754095D01*
X15034809Y-18725524D02*
X15044333Y-18716000D01*
X15063381Y-18706476D01*
X15111000Y-18706476D01*
X15130048Y-18716000D01*
X15139571Y-18725524D01*
X15149095Y-18744571D01*
X15149095Y-18763619D01*
X15139571Y-18792190D01*
X15025286Y-18906476D01*
X15149095Y-18906476D01*
X15377667Y-18896952D02*
X15396714Y-18906476D01*
X15434809Y-18906476D01*
X15453857Y-18896952D01*
X15463381Y-18877905D01*
X15463381Y-18868381D01*
X15453857Y-18849333D01*
X15434809Y-18839810D01*
X15406238Y-18839810D01*
X15387190Y-18830286D01*
X15377667Y-18811238D01*
X15377667Y-18801714D01*
X15387190Y-18782667D01*
X15406238Y-18773143D01*
X15434809Y-18773143D01*
X15453857Y-18782667D01*
X15577667Y-18906476D02*
X15558619Y-18896952D01*
X15549095Y-18877905D01*
X15549095Y-18706476D01*
X15682428Y-18906476D02*
X15663381Y-18896952D01*
X15653857Y-18887429D01*
X15644333Y-18868381D01*
X15644333Y-18811238D01*
X15653857Y-18792190D01*
X15663381Y-18782667D01*
X15682428Y-18773143D01*
X15711000Y-18773143D01*
X15730048Y-18782667D01*
X15739571Y-18792190D01*
X15749095Y-18811238D01*
X15749095Y-18868381D01*
X15739571Y-18887429D01*
X15730048Y-18896952D01*
X15711000Y-18906476D01*
X15682428Y-18906476D01*
X15806238Y-18773143D02*
X15882428Y-18773143D01*
X15834809Y-18706476D02*
X15834809Y-18877905D01*
X15844333Y-18896952D01*
X15863381Y-18906476D01*
X15882428Y-18906476D01*
X15939571Y-18896952D02*
X15958619Y-18906476D01*
X15996714Y-18906476D01*
X16015762Y-18896952D01*
X16025286Y-18877905D01*
X16025286Y-18868381D01*
X16015762Y-18849333D01*
X15996714Y-18839810D01*
X15968143Y-18839810D01*
X15949095Y-18830286D01*
X15939571Y-18811238D01*
X15939571Y-18801714D01*
X15949095Y-18782667D01*
X15968143Y-18773143D01*
X15996714Y-18773143D01*
X16015762Y-18782667D01*
X16091952Y-18982667D02*
X16101476Y-18973143D01*
X16120524Y-18944571D01*
X16130048Y-18925524D01*
X16139571Y-18896952D01*
X16149095Y-18849333D01*
X16149095Y-18811238D01*
X16139571Y-18763619D01*
X16130048Y-18735048D01*
X16120524Y-18716000D01*
X16101476Y-18687429D01*
X16091952Y-18677905D01*
X9601000Y-19036000D02*
X9601000Y-19236000D01*
X9501000Y-19136000D02*
X9701000Y-19136000D01*
X10044333Y-19026476D02*
X10006238Y-19026476D01*
X9987190Y-19036000D01*
X9977667Y-19045524D01*
X9958619Y-19074095D01*
X9949095Y-19112190D01*
X9949095Y-19188381D01*
X9958619Y-19207429D01*
X9968143Y-19216952D01*
X9987190Y-19226476D01*
X10025286Y-19226476D01*
X10044333Y-19216952D01*
X10053857Y-19207429D01*
X10063381Y-19188381D01*
X10063381Y-19140762D01*
X10053857Y-19121714D01*
X10044333Y-19112190D01*
X10025286Y-19102667D01*
X9987190Y-19102667D01*
X9968143Y-19112190D01*
X9958619Y-19121714D01*
X9949095Y-19140762D01*
X10149095Y-19207429D02*
X10158619Y-19216952D01*
X10149095Y-19226476D01*
X10139571Y-19216952D01*
X10149095Y-19207429D01*
X10149095Y-19226476D01*
X10282429Y-19026476D02*
X10301476Y-19026476D01*
X10320524Y-19036000D01*
X10330048Y-19045524D01*
X10339571Y-19064571D01*
X10349095Y-19102667D01*
X10349095Y-19150286D01*
X10339571Y-19188381D01*
X10330048Y-19207429D01*
X10320524Y-19216952D01*
X10301476Y-19226476D01*
X10282429Y-19226476D01*
X10263381Y-19216952D01*
X10253857Y-19207429D01*
X10244333Y-19188381D01*
X10234810Y-19150286D01*
X10234810Y-19102667D01*
X10244333Y-19064571D01*
X10253857Y-19045524D01*
X10263381Y-19036000D01*
X10282429Y-19026476D01*
X10472905Y-19026476D02*
X10491952Y-19026476D01*
X10511000Y-19036000D01*
X10520524Y-19045524D01*
X10530048Y-19064571D01*
X10539571Y-19102667D01*
X10539571Y-19150286D01*
X10530048Y-19188381D01*
X10520524Y-19207429D01*
X10511000Y-19216952D01*
X10491952Y-19226476D01*
X10472905Y-19226476D01*
X10453857Y-19216952D01*
X10444333Y-19207429D01*
X10434810Y-19188381D01*
X10425286Y-19150286D01*
X10425286Y-19102667D01*
X10434810Y-19064571D01*
X10444333Y-19045524D01*
X10453857Y-19036000D01*
X10472905Y-19026476D01*
X10663381Y-19026476D02*
X10682429Y-19026476D01*
X10701476Y-19036000D01*
X10711000Y-19045524D01*
X10720524Y-19064571D01*
X10730048Y-19102667D01*
X10730048Y-19150286D01*
X10720524Y-19188381D01*
X10711000Y-19207429D01*
X10701476Y-19216952D01*
X10682429Y-19226476D01*
X10663381Y-19226476D01*
X10644333Y-19216952D01*
X10634810Y-19207429D01*
X10625286Y-19188381D01*
X10615762Y-19150286D01*
X10615762Y-19102667D01*
X10625286Y-19064571D01*
X10634810Y-19045524D01*
X10644333Y-19036000D01*
X10663381Y-19026476D01*
X10815762Y-19226476D02*
X10815762Y-19093143D01*
X10815762Y-19112190D02*
X10825286Y-19102667D01*
X10844333Y-19093143D01*
X10872905Y-19093143D01*
X10891952Y-19102667D01*
X10901476Y-19121714D01*
X10901476Y-19226476D01*
X10901476Y-19121714D02*
X10911000Y-19102667D01*
X10930048Y-19093143D01*
X10958619Y-19093143D01*
X10977667Y-19102667D01*
X10987190Y-19121714D01*
X10987190Y-19226476D01*
X11082429Y-19226476D02*
X11082429Y-19093143D01*
X11082429Y-19112190D02*
X11091952Y-19102667D01*
X11111000Y-19093143D01*
X11139571Y-19093143D01*
X11158619Y-19102667D01*
X11168143Y-19121714D01*
X11168143Y-19226476D01*
X11168143Y-19121714D02*
X11177667Y-19102667D01*
X11196714Y-19093143D01*
X11225286Y-19093143D01*
X11244333Y-19102667D01*
X11253857Y-19121714D01*
X11253857Y-19226476D01*
X11644333Y-19016952D02*
X11472905Y-19274095D01*
X11901476Y-19026476D02*
X11920524Y-19026476D01*
X11939571Y-19036000D01*
X11949095Y-19045524D01*
X11958619Y-19064571D01*
X11968143Y-19102667D01*
X11968143Y-19150286D01*
X11958619Y-19188381D01*
X11949095Y-19207429D01*
X11939571Y-19216952D01*
X11920524Y-19226476D01*
X11901476Y-19226476D01*
X11882428Y-19216952D01*
X11872905Y-19207429D01*
X11863381Y-19188381D01*
X11853857Y-19150286D01*
X11853857Y-19102667D01*
X11863381Y-19064571D01*
X11872905Y-19045524D01*
X11882428Y-19036000D01*
X11901476Y-19026476D01*
X12053857Y-19207429D02*
X12063381Y-19216952D01*
X12053857Y-19226476D01*
X12044333Y-19216952D01*
X12053857Y-19207429D01*
X12053857Y-19226476D01*
X12139571Y-19045524D02*
X12149095Y-19036000D01*
X12168143Y-19026476D01*
X12215762Y-19026476D01*
X12234809Y-19036000D01*
X12244333Y-19045524D01*
X12253857Y-19064571D01*
X12253857Y-19083619D01*
X12244333Y-19112190D01*
X12130048Y-19226476D01*
X12253857Y-19226476D01*
X12320524Y-19026476D02*
X12444333Y-19026476D01*
X12377667Y-19102667D01*
X12406238Y-19102667D01*
X12425286Y-19112190D01*
X12434809Y-19121714D01*
X12444333Y-19140762D01*
X12444333Y-19188381D01*
X12434809Y-19207429D01*
X12425286Y-19216952D01*
X12406238Y-19226476D01*
X12349095Y-19226476D01*
X12330048Y-19216952D01*
X12320524Y-19207429D01*
X12615762Y-19026476D02*
X12577667Y-19026476D01*
X12558619Y-19036000D01*
X12549095Y-19045524D01*
X12530048Y-19074095D01*
X12520524Y-19112190D01*
X12520524Y-19188381D01*
X12530048Y-19207429D01*
X12539571Y-19216952D01*
X12558619Y-19226476D01*
X12596714Y-19226476D01*
X12615762Y-19216952D01*
X12625286Y-19207429D01*
X12634809Y-19188381D01*
X12634809Y-19140762D01*
X12625286Y-19121714D01*
X12615762Y-19112190D01*
X12596714Y-19102667D01*
X12558619Y-19102667D01*
X12539571Y-19112190D01*
X12530048Y-19121714D01*
X12520524Y-19140762D01*
X12711000Y-19045524D02*
X12720524Y-19036000D01*
X12739571Y-19026476D01*
X12787190Y-19026476D01*
X12806238Y-19036000D01*
X12815762Y-19045524D01*
X12825286Y-19064571D01*
X12825286Y-19083619D01*
X12815762Y-19112190D01*
X12701476Y-19226476D01*
X12825286Y-19226476D01*
X12901476Y-19026476D02*
X12901476Y-19064571D01*
X12977667Y-19026476D02*
X12977667Y-19064571D01*
X13272905Y-19302667D02*
X13263381Y-19293143D01*
X13244333Y-19264571D01*
X13234809Y-19245524D01*
X13225286Y-19216952D01*
X13215762Y-19169333D01*
X13215762Y-19131238D01*
X13225286Y-19083619D01*
X13234809Y-19055048D01*
X13244333Y-19036000D01*
X13263381Y-19007429D01*
X13272905Y-18997905D01*
X13330048Y-19026476D02*
X13453857Y-19026476D01*
X13387190Y-19102667D01*
X13415762Y-19102667D01*
X13434809Y-19112190D01*
X13444333Y-19121714D01*
X13453857Y-19140762D01*
X13453857Y-19188381D01*
X13444333Y-19207429D01*
X13434809Y-19216952D01*
X13415762Y-19226476D01*
X13358619Y-19226476D01*
X13339571Y-19216952D01*
X13330048Y-19207429D01*
X13691952Y-19226476D02*
X13691952Y-19026476D01*
X13777667Y-19226476D02*
X13777667Y-19121714D01*
X13768143Y-19102667D01*
X13749095Y-19093143D01*
X13720524Y-19093143D01*
X13701476Y-19102667D01*
X13691952Y-19112190D01*
X13901476Y-19226476D02*
X13882428Y-19216952D01*
X13872905Y-19207429D01*
X13863381Y-19188381D01*
X13863381Y-19131238D01*
X13872905Y-19112190D01*
X13882428Y-19102667D01*
X13901476Y-19093143D01*
X13930048Y-19093143D01*
X13949095Y-19102667D01*
X13958619Y-19112190D01*
X13968143Y-19131238D01*
X13968143Y-19188381D01*
X13958619Y-19207429D01*
X13949095Y-19216952D01*
X13930048Y-19226476D01*
X13901476Y-19226476D01*
X14082428Y-19226476D02*
X14063381Y-19216952D01*
X14053857Y-19197905D01*
X14053857Y-19026476D01*
X14234809Y-19216952D02*
X14215762Y-19226476D01*
X14177667Y-19226476D01*
X14158619Y-19216952D01*
X14149095Y-19197905D01*
X14149095Y-19121714D01*
X14158619Y-19102667D01*
X14177667Y-19093143D01*
X14215762Y-19093143D01*
X14234809Y-19102667D01*
X14244333Y-19121714D01*
X14244333Y-19140762D01*
X14149095Y-19159810D01*
X14320524Y-19216952D02*
X14339571Y-19226476D01*
X14377667Y-19226476D01*
X14396714Y-19216952D01*
X14406238Y-19197905D01*
X14406238Y-19188381D01*
X14396714Y-19169333D01*
X14377667Y-19159810D01*
X14349095Y-19159810D01*
X14330048Y-19150286D01*
X14320524Y-19131238D01*
X14320524Y-19121714D01*
X14330048Y-19102667D01*
X14349095Y-19093143D01*
X14377667Y-19093143D01*
X14396714Y-19102667D01*
X14472905Y-19302667D02*
X14482428Y-19293143D01*
X14501476Y-19264571D01*
X14511000Y-19245524D01*
X14520524Y-19216952D01*
X14530048Y-19169333D01*
X14530048Y-19131238D01*
X14520524Y-19083619D01*
X14511000Y-19055048D01*
X14501476Y-19036000D01*
X14482428Y-19007429D01*
X14472905Y-18997905D01*
X9671711Y-19526711D02*
X9671711Y-19385289D01*
X9530289Y-19385289D01*
X9530289Y-19526711D01*
X9671711Y-19526711D01*
X9939571Y-19346476D02*
X10072905Y-19346476D01*
X9987190Y-19546476D01*
X10149095Y-19527429D02*
X10158619Y-19536952D01*
X10149095Y-19546476D01*
X10139571Y-19536952D01*
X10149095Y-19527429D01*
X10149095Y-19546476D01*
X10282429Y-19346476D02*
X10301476Y-19346476D01*
X10320524Y-19356000D01*
X10330048Y-19365524D01*
X10339571Y-19384571D01*
X10349095Y-19422667D01*
X10349095Y-19470286D01*
X10339571Y-19508381D01*
X10330048Y-19527429D01*
X10320524Y-19536952D01*
X10301476Y-19546476D01*
X10282429Y-19546476D01*
X10263381Y-19536952D01*
X10253857Y-19527429D01*
X10244333Y-19508381D01*
X10234810Y-19470286D01*
X10234810Y-19422667D01*
X10244333Y-19384571D01*
X10253857Y-19365524D01*
X10263381Y-19356000D01*
X10282429Y-19346476D01*
X10472905Y-19346476D02*
X10491952Y-19346476D01*
X10511000Y-19356000D01*
X10520524Y-19365524D01*
X10530048Y-19384571D01*
X10539571Y-19422667D01*
X10539571Y-19470286D01*
X10530048Y-19508381D01*
X10520524Y-19527429D01*
X10511000Y-19536952D01*
X10491952Y-19546476D01*
X10472905Y-19546476D01*
X10453857Y-19536952D01*
X10444333Y-19527429D01*
X10434810Y-19508381D01*
X10425286Y-19470286D01*
X10425286Y-19422667D01*
X10434810Y-19384571D01*
X10444333Y-19365524D01*
X10453857Y-19356000D01*
X10472905Y-19346476D01*
X10663381Y-19346476D02*
X10682429Y-19346476D01*
X10701476Y-19356000D01*
X10711000Y-19365524D01*
X10720524Y-19384571D01*
X10730048Y-19422667D01*
X10730048Y-19470286D01*
X10720524Y-19508381D01*
X10711000Y-19527429D01*
X10701476Y-19536952D01*
X10682429Y-19546476D01*
X10663381Y-19546476D01*
X10644333Y-19536952D01*
X10634810Y-19527429D01*
X10625286Y-19508381D01*
X10615762Y-19470286D01*
X10615762Y-19422667D01*
X10625286Y-19384571D01*
X10634810Y-19365524D01*
X10644333Y-19356000D01*
X10663381Y-19346476D01*
X10815762Y-19546476D02*
X10815762Y-19413143D01*
X10815762Y-19432190D02*
X10825286Y-19422667D01*
X10844333Y-19413143D01*
X10872905Y-19413143D01*
X10891952Y-19422667D01*
X10901476Y-19441714D01*
X10901476Y-19546476D01*
X10901476Y-19441714D02*
X10911000Y-19422667D01*
X10930048Y-19413143D01*
X10958619Y-19413143D01*
X10977667Y-19422667D01*
X10987190Y-19441714D01*
X10987190Y-19546476D01*
X11082429Y-19546476D02*
X11082429Y-19413143D01*
X11082429Y-19432190D02*
X11091952Y-19422667D01*
X11111000Y-19413143D01*
X11139571Y-19413143D01*
X11158619Y-19422667D01*
X11168143Y-19441714D01*
X11168143Y-19546476D01*
X11168143Y-19441714D02*
X11177667Y-19422667D01*
X11196714Y-19413143D01*
X11225286Y-19413143D01*
X11244333Y-19422667D01*
X11253857Y-19441714D01*
X11253857Y-19546476D01*
X11644333Y-19336952D02*
X11472905Y-19594095D01*
X11901476Y-19346476D02*
X11920524Y-19346476D01*
X11939571Y-19356000D01*
X11949095Y-19365524D01*
X11958619Y-19384571D01*
X11968143Y-19422667D01*
X11968143Y-19470286D01*
X11958619Y-19508381D01*
X11949095Y-19527429D01*
X11939571Y-19536952D01*
X11920524Y-19546476D01*
X11901476Y-19546476D01*
X11882428Y-19536952D01*
X11872905Y-19527429D01*
X11863381Y-19508381D01*
X11853857Y-19470286D01*
X11853857Y-19422667D01*
X11863381Y-19384571D01*
X11872905Y-19365524D01*
X11882428Y-19356000D01*
X11901476Y-19346476D01*
X12053857Y-19527429D02*
X12063381Y-19536952D01*
X12053857Y-19546476D01*
X12044333Y-19536952D01*
X12053857Y-19527429D01*
X12053857Y-19546476D01*
X12139571Y-19365524D02*
X12149095Y-19356000D01*
X12168143Y-19346476D01*
X12215762Y-19346476D01*
X12234809Y-19356000D01*
X12244333Y-19365524D01*
X12253857Y-19384571D01*
X12253857Y-19403619D01*
X12244333Y-19432190D01*
X12130048Y-19546476D01*
X12253857Y-19546476D01*
X12320524Y-19346476D02*
X12453857Y-19346476D01*
X12368143Y-19546476D01*
X12625286Y-19346476D02*
X12530048Y-19346476D01*
X12520524Y-19441714D01*
X12530048Y-19432190D01*
X12549095Y-19422667D01*
X12596714Y-19422667D01*
X12615762Y-19432190D01*
X12625286Y-19441714D01*
X12634809Y-19460762D01*
X12634809Y-19508381D01*
X12625286Y-19527429D01*
X12615762Y-19536952D01*
X12596714Y-19546476D01*
X12549095Y-19546476D01*
X12530048Y-19536952D01*
X12520524Y-19527429D01*
X12806238Y-19346476D02*
X12768143Y-19346476D01*
X12749095Y-19356000D01*
X12739571Y-19365524D01*
X12720524Y-19394095D01*
X12711000Y-19432190D01*
X12711000Y-19508381D01*
X12720524Y-19527429D01*
X12730048Y-19536952D01*
X12749095Y-19546476D01*
X12787190Y-19546476D01*
X12806238Y-19536952D01*
X12815762Y-19527429D01*
X12825286Y-19508381D01*
X12825286Y-19460762D01*
X12815762Y-19441714D01*
X12806238Y-19432190D01*
X12787190Y-19422667D01*
X12749095Y-19422667D01*
X12730048Y-19432190D01*
X12720524Y-19441714D01*
X12711000Y-19460762D01*
X12901476Y-19346476D02*
X12901476Y-19384571D01*
X12977667Y-19346476D02*
X12977667Y-19384571D01*
X13272905Y-19622667D02*
X13263381Y-19613143D01*
X13244333Y-19584571D01*
X13234809Y-19565524D01*
X13225286Y-19536952D01*
X13215762Y-19489333D01*
X13215762Y-19451238D01*
X13225286Y-19403619D01*
X13234809Y-19375048D01*
X13244333Y-19356000D01*
X13263381Y-19327429D01*
X13272905Y-19317905D01*
X13330048Y-19346476D02*
X13453857Y-19346476D01*
X13387190Y-19422667D01*
X13415762Y-19422667D01*
X13434809Y-19432190D01*
X13444333Y-19441714D01*
X13453857Y-19460762D01*
X13453857Y-19508381D01*
X13444333Y-19527429D01*
X13434809Y-19536952D01*
X13415762Y-19546476D01*
X13358619Y-19546476D01*
X13339571Y-19536952D01*
X13330048Y-19527429D01*
X13691952Y-19546476D02*
X13691952Y-19346476D01*
X13777667Y-19546476D02*
X13777667Y-19441714D01*
X13768143Y-19422667D01*
X13749095Y-19413143D01*
X13720524Y-19413143D01*
X13701476Y-19422667D01*
X13691952Y-19432190D01*
X13901476Y-19546476D02*
X13882428Y-19536952D01*
X13872905Y-19527429D01*
X13863381Y-19508381D01*
X13863381Y-19451238D01*
X13872905Y-19432190D01*
X13882428Y-19422667D01*
X13901476Y-19413143D01*
X13930048Y-19413143D01*
X13949095Y-19422667D01*
X13958619Y-19432190D01*
X13968143Y-19451238D01*
X13968143Y-19508381D01*
X13958619Y-19527429D01*
X13949095Y-19536952D01*
X13930048Y-19546476D01*
X13901476Y-19546476D01*
X14082428Y-19546476D02*
X14063381Y-19536952D01*
X14053857Y-19517905D01*
X14053857Y-19346476D01*
X14234809Y-19536952D02*
X14215762Y-19546476D01*
X14177667Y-19546476D01*
X14158619Y-19536952D01*
X14149095Y-19517905D01*
X14149095Y-19441714D01*
X14158619Y-19422667D01*
X14177667Y-19413143D01*
X14215762Y-19413143D01*
X14234809Y-19422667D01*
X14244333Y-19441714D01*
X14244333Y-19460762D01*
X14149095Y-19479810D01*
X14320524Y-19536952D02*
X14339571Y-19546476D01*
X14377667Y-19546476D01*
X14396714Y-19536952D01*
X14406238Y-19517905D01*
X14406238Y-19508381D01*
X14396714Y-19489333D01*
X14377667Y-19479810D01*
X14349095Y-19479810D01*
X14330048Y-19470286D01*
X14320524Y-19451238D01*
X14320524Y-19441714D01*
X14330048Y-19422667D01*
X14349095Y-19413143D01*
X14377667Y-19413143D01*
X14396714Y-19422667D01*
X14472905Y-19622667D02*
X14482428Y-19613143D01*
X14501476Y-19584571D01*
X14511000Y-19565524D01*
X14520524Y-19536952D01*
X14530048Y-19489333D01*
X14530048Y-19451238D01*
X14520524Y-19403619D01*
X14511000Y-19375048D01*
X14501476Y-19356000D01*
X14482428Y-19327429D01*
X14472905Y-19317905D01*
M02*
