%TF.GenerationSoftware,KiCad,Pcbnew,6.0.11+dfsg-1~bpo11+1*%
%TF.CreationDate,2023-04-14T10:24:36+08:00*%
%TF.ProjectId,MiniVerb - Front,4d696e69-5665-4726-9220-2d2046726f6e,rev?*%
%TF.SameCoordinates,Original*%
%TF.FileFunction,Copper,L2,Bot*%
%TF.FilePolarity,Positive*%
%FSLAX46Y46*%
G04 Gerber Fmt 4.6, Leading zero omitted, Abs format (unit mm)*
G04 Created by KiCad (PCBNEW 6.0.11+dfsg-1~bpo11+1) date 2023-04-14 10:24:36*
%MOMM*%
%LPD*%
G01*
G04 APERTURE LIST*
%TA.AperFunction,NonConductor*%
%ADD10C,0.000000*%
%TD*%
%TA.AperFunction,ComponentPad*%
%ADD11O,7.000000X4.200000*%
%TD*%
%TA.AperFunction,ComponentPad*%
%ADD12C,7.000000*%
%TD*%
%TA.AperFunction,ComponentPad*%
%ADD13C,8.000000*%
%TD*%
%TA.AperFunction,ViaPad*%
%ADD14C,4.000000*%
%TD*%
G04 APERTURE END LIST*
D10*
G36*
X146254039Y-145531699D02*
G01*
X141734936Y-145531699D01*
X141632447Y-145840931D01*
X141541097Y-146127896D01*
X141462175Y-146390002D01*
X141396972Y-146624656D01*
X141365350Y-146752207D01*
X141337949Y-146878490D01*
X141314766Y-147003506D01*
X141295802Y-147127255D01*
X141281054Y-147249740D01*
X141270521Y-147370960D01*
X141264203Y-147490916D01*
X141262097Y-147609610D01*
X141262097Y-148162551D01*
X139413113Y-148351683D01*
X139413113Y-148000800D01*
X139414380Y-147916314D01*
X139418181Y-147831515D01*
X139424515Y-147746404D01*
X139433381Y-147660979D01*
X139444780Y-147575240D01*
X139458709Y-147489186D01*
X139475170Y-147402817D01*
X139494162Y-147316132D01*
X139515683Y-147229131D01*
X139539733Y-147141813D01*
X139566313Y-147054178D01*
X139595421Y-146966225D01*
X139627056Y-146877953D01*
X139661219Y-146789362D01*
X139697909Y-146700451D01*
X139737124Y-146611220D01*
X139776007Y-146527727D01*
X139816990Y-146444322D01*
X139860063Y-146361007D01*
X139905214Y-146277781D01*
X139952434Y-146194646D01*
X140001711Y-146111601D01*
X140106394Y-145945785D01*
X140219179Y-145780337D01*
X140339980Y-145615261D01*
X140468712Y-145450560D01*
X140605288Y-145286238D01*
X139588814Y-145099685D01*
X139588814Y-143534407D01*
X146254039Y-143534407D01*
X146254039Y-145531699D01*
G37*
G36*
X146254037Y-99331935D02*
G01*
X141653285Y-99331935D01*
X141571291Y-99465651D01*
X141495738Y-99592253D01*
X141428033Y-99710135D01*
X141397562Y-99765305D01*
X141369581Y-99817694D01*
X141333973Y-99890636D01*
X141301338Y-99961040D01*
X141271668Y-100028910D01*
X141244956Y-100094247D01*
X141221194Y-100157055D01*
X141200373Y-100217336D01*
X141182487Y-100275091D01*
X141167526Y-100330325D01*
X141151697Y-100387674D01*
X141137964Y-100445033D01*
X141126331Y-100502398D01*
X141116803Y-100559766D01*
X141109384Y-100617135D01*
X141104079Y-100674500D01*
X141100893Y-100731860D01*
X141099830Y-100789210D01*
X141100518Y-100835648D01*
X141102583Y-100880510D01*
X141106023Y-100923795D01*
X141110838Y-100965502D01*
X141117027Y-101005631D01*
X141124589Y-101044181D01*
X141133522Y-101081150D01*
X141143827Y-101116539D01*
X141155503Y-101150347D01*
X141168548Y-101182573D01*
X141182961Y-101213216D01*
X141198743Y-101242276D01*
X141215891Y-101269751D01*
X141234406Y-101295642D01*
X141254286Y-101319947D01*
X141275530Y-101342665D01*
X141298458Y-101365537D01*
X141323389Y-101386927D01*
X141350323Y-101406837D01*
X141379260Y-101425266D01*
X141410201Y-101442217D01*
X141443144Y-101457689D01*
X141478090Y-101471684D01*
X141515039Y-101484202D01*
X141553991Y-101495244D01*
X141594945Y-101504811D01*
X141637903Y-101512905D01*
X141682863Y-101519524D01*
X141729825Y-101524672D01*
X141778790Y-101528347D01*
X141829758Y-101530552D01*
X141882728Y-101531287D01*
X146254037Y-101531287D01*
X146254037Y-103447448D01*
X141680674Y-103447448D01*
X141595147Y-103588239D01*
X141516287Y-103721557D01*
X141445336Y-103845978D01*
X141413214Y-103904407D01*
X141383534Y-103960078D01*
X141347696Y-104029860D01*
X141314377Y-104097530D01*
X141283580Y-104163089D01*
X141255308Y-104226540D01*
X141229564Y-104287883D01*
X141206351Y-104347118D01*
X141185670Y-104404248D01*
X141167527Y-104459273D01*
X141151698Y-104513672D01*
X141137965Y-104568922D01*
X141126332Y-104625022D01*
X141116804Y-104681968D01*
X141109385Y-104739757D01*
X141104080Y-104798388D01*
X141100894Y-104857855D01*
X141099830Y-104918158D01*
X141100571Y-104967805D01*
X141102792Y-105015547D01*
X141106493Y-105061385D01*
X141111673Y-105105322D01*
X141118331Y-105147357D01*
X141126467Y-105187492D01*
X141136081Y-105225727D01*
X141147171Y-105262064D01*
X141159737Y-105296503D01*
X141173778Y-105329046D01*
X141189293Y-105359693D01*
X141206283Y-105388446D01*
X141224746Y-105415305D01*
X141244681Y-105440272D01*
X141266088Y-105463346D01*
X141288966Y-105484530D01*
X141311841Y-105504141D01*
X141336615Y-105522494D01*
X141363288Y-105539589D01*
X141391859Y-105555423D01*
X141422329Y-105569997D01*
X141454697Y-105583309D01*
X141488963Y-105595357D01*
X141525127Y-105606142D01*
X141563189Y-105615662D01*
X141603147Y-105623916D01*
X141645003Y-105630903D01*
X141688756Y-105636622D01*
X141734405Y-105641071D01*
X141781950Y-105644251D01*
X141831391Y-105646160D01*
X141882728Y-105646796D01*
X146254038Y-105646796D01*
X146254038Y-107630137D01*
X141262095Y-107630137D01*
X141150775Y-107628292D01*
X141042820Y-107622755D01*
X140938231Y-107613528D01*
X140837010Y-107600611D01*
X140739158Y-107584003D01*
X140644676Y-107563705D01*
X140553564Y-107539717D01*
X140465825Y-107512040D01*
X140381458Y-107480673D01*
X140300466Y-107445617D01*
X140222849Y-107406872D01*
X140148609Y-107364438D01*
X140077746Y-107318315D01*
X140010262Y-107268504D01*
X139946158Y-107215004D01*
X139885435Y-107157817D01*
X139828247Y-107097100D01*
X139774748Y-107033013D01*
X139724936Y-106965555D01*
X139678814Y-106894725D01*
X139636379Y-106820524D01*
X139597634Y-106742951D01*
X139562577Y-106662005D01*
X139531210Y-106577687D01*
X139503533Y-106489995D01*
X139479545Y-106398930D01*
X139459246Y-106304491D01*
X139442638Y-106206677D01*
X139429721Y-106105489D01*
X139420493Y-106000925D01*
X139414957Y-105892987D01*
X139413112Y-105781672D01*
X139414379Y-105692598D01*
X139418179Y-105604157D01*
X139424513Y-105516349D01*
X139433379Y-105429173D01*
X139444778Y-105342630D01*
X139458707Y-105256720D01*
X139475168Y-105171442D01*
X139494160Y-105086797D01*
X139515681Y-105002784D01*
X139539732Y-104919403D01*
X139566311Y-104836655D01*
X139595419Y-104754540D01*
X139627054Y-104673056D01*
X139661217Y-104592205D01*
X139697907Y-104511986D01*
X139737122Y-104432399D01*
X139771455Y-104365635D01*
X139807760Y-104298707D01*
X139846023Y-104231615D01*
X139886229Y-104164361D01*
X139928364Y-104096945D01*
X139972412Y-104029370D01*
X140018358Y-103961637D01*
X140066188Y-103893747D01*
X140167440Y-103757500D01*
X140276047Y-103620642D01*
X140391891Y-103483181D01*
X140514853Y-103345130D01*
X140467798Y-103329946D01*
X140421748Y-103313728D01*
X140376707Y-103296471D01*
X140332683Y-103278170D01*
X140289678Y-103258819D01*
X140247699Y-103238413D01*
X140206750Y-103216946D01*
X140166837Y-103194413D01*
X140127965Y-103170809D01*
X140090139Y-103146127D01*
X140053364Y-103120364D01*
X140017645Y-103093513D01*
X139982988Y-103065569D01*
X139949397Y-103036526D01*
X139916877Y-103006379D01*
X139885434Y-102975123D01*
X139828247Y-102916092D01*
X139774747Y-102853688D01*
X139724936Y-102787911D01*
X139678813Y-102718761D01*
X139636379Y-102646239D01*
X139597634Y-102570343D01*
X139562577Y-102491074D01*
X139531210Y-102408432D01*
X139503532Y-102322417D01*
X139479544Y-102233028D01*
X139459246Y-102140266D01*
X139442638Y-102044131D01*
X139429721Y-101944622D01*
X139420493Y-101841739D01*
X139414957Y-101735483D01*
X139413112Y-101625853D01*
X139414379Y-101535197D01*
X139418179Y-101445385D01*
X139424513Y-101356417D01*
X139433379Y-101268293D01*
X139444778Y-101181012D01*
X139458707Y-101094574D01*
X139475168Y-101008980D01*
X139494160Y-100924230D01*
X139515681Y-100840323D01*
X139539732Y-100757259D01*
X139566311Y-100675038D01*
X139595419Y-100593661D01*
X139627054Y-100513126D01*
X139661217Y-100433434D01*
X139697907Y-100354586D01*
X139737122Y-100276580D01*
X139774464Y-100204043D01*
X139814091Y-100131216D01*
X139855991Y-100058100D01*
X139900152Y-99984698D01*
X139946563Y-99911012D01*
X139995212Y-99837043D01*
X140046086Y-99762795D01*
X140099175Y-99688270D01*
X140154466Y-99613469D01*
X140211948Y-99538395D01*
X140333437Y-99387437D01*
X140463548Y-99235412D01*
X140602186Y-99082339D01*
X139588812Y-98927310D01*
X139588812Y-97335158D01*
X146254037Y-97335158D01*
X146254037Y-99331935D01*
G37*
G36*
X148898836Y-75773688D02*
G01*
X148862733Y-75840517D01*
X148825259Y-75906076D01*
X148786416Y-75970365D01*
X148746204Y-76033385D01*
X148704621Y-76095138D01*
X148661668Y-76155623D01*
X148617345Y-76214841D01*
X148571652Y-76272794D01*
X148524588Y-76329482D01*
X148476154Y-76384906D01*
X148426349Y-76439066D01*
X148375174Y-76491964D01*
X148322627Y-76543600D01*
X148268710Y-76593975D01*
X148213422Y-76643089D01*
X148156763Y-76690944D01*
X148098940Y-76739119D01*
X148040164Y-76785819D01*
X147980434Y-76831045D01*
X147919752Y-76874797D01*
X147858118Y-76917074D01*
X147795533Y-76957875D01*
X147731998Y-76997201D01*
X147667514Y-77035051D01*
X147602080Y-77071426D01*
X147535699Y-77106325D01*
X147468371Y-77139747D01*
X147400096Y-77171693D01*
X147330876Y-77202162D01*
X147260711Y-77231154D01*
X147189602Y-77258669D01*
X147117550Y-77284707D01*
X147046557Y-77310851D01*
X146975255Y-77335311D01*
X146903642Y-77358086D01*
X146831718Y-77379176D01*
X146759481Y-77398581D01*
X146686930Y-77416301D01*
X146614064Y-77432335D01*
X146540884Y-77446682D01*
X146467387Y-77459343D01*
X146393573Y-77470317D01*
X146319441Y-77479604D01*
X146244990Y-77487202D01*
X146170219Y-77493113D01*
X146095127Y-77497336D01*
X146019714Y-77499870D01*
X145943978Y-77500714D01*
X139588811Y-77500714D01*
X139588811Y-75503421D01*
X145943978Y-75503421D01*
X146093877Y-75500481D01*
X146239983Y-75491658D01*
X146311614Y-75485038D01*
X146382297Y-75476945D01*
X146452031Y-75467378D01*
X146520816Y-75456336D01*
X146588652Y-75443818D01*
X146655540Y-75429823D01*
X146721479Y-75414351D01*
X146786468Y-75397401D01*
X146850509Y-75378971D01*
X146913600Y-75359062D01*
X146975742Y-75337672D01*
X147036934Y-75314801D01*
X147097757Y-75290130D01*
X147158789Y-75263344D01*
X147220031Y-75234443D01*
X147281481Y-75203429D01*
X147343142Y-75170301D01*
X147405012Y-75135063D01*
X147467092Y-75097714D01*
X147529383Y-75058255D01*
X147591885Y-75016689D01*
X147654598Y-74973015D01*
X147717523Y-74927235D01*
X147780658Y-74879350D01*
X147844006Y-74829360D01*
X147907566Y-74777268D01*
X147971338Y-74723074D01*
X148035323Y-74666779D01*
X148898836Y-75773688D01*
G37*
G36*
X144726362Y-132040526D02*
G01*
X144828194Y-132046704D01*
X144927076Y-132057000D01*
X145023008Y-132071412D01*
X145115989Y-132089940D01*
X145206020Y-132112582D01*
X145293099Y-132139337D01*
X145377228Y-132170205D01*
X145458405Y-132205184D01*
X145536630Y-132244272D01*
X145611903Y-132287470D01*
X145684224Y-132334775D01*
X145753593Y-132386188D01*
X145820009Y-132441706D01*
X145883471Y-132501328D01*
X145943980Y-132565055D01*
X146001168Y-132632304D01*
X146054667Y-132702498D01*
X146104478Y-132775637D01*
X146150601Y-132851722D01*
X146193035Y-132930754D01*
X146231781Y-133012735D01*
X146266837Y-133097666D01*
X146298204Y-133185547D01*
X146325882Y-133276379D01*
X146349870Y-133370164D01*
X146370168Y-133466903D01*
X146386776Y-133566597D01*
X146399694Y-133669246D01*
X146408921Y-133774853D01*
X146414457Y-133883417D01*
X146416303Y-133994941D01*
X146415656Y-134050404D01*
X146413721Y-134108844D01*
X146410505Y-134170252D01*
X146406016Y-134234619D01*
X146400261Y-134301938D01*
X146393248Y-134372200D01*
X146384985Y-134445397D01*
X146375479Y-134521521D01*
X146368115Y-134598896D01*
X146359517Y-134675850D01*
X146349675Y-134752383D01*
X146338578Y-134828495D01*
X146326215Y-134904185D01*
X146312576Y-134979453D01*
X146297650Y-135054299D01*
X146281427Y-135128722D01*
X146267502Y-135200806D01*
X146252698Y-135268647D01*
X146237027Y-135332253D01*
X146220499Y-135391634D01*
X146203125Y-135446799D01*
X146184916Y-135497756D01*
X146165882Y-135544517D01*
X146146035Y-135587088D01*
X144796764Y-135358161D01*
X144796764Y-134818145D01*
X144796133Y-134769970D01*
X144794241Y-134723269D01*
X144791087Y-134678042D01*
X144786671Y-134634291D01*
X144780991Y-134592014D01*
X144774048Y-134551212D01*
X144765841Y-134511886D01*
X144756370Y-134474035D01*
X144745633Y-134437660D01*
X144733632Y-134402761D01*
X144720364Y-134369339D01*
X144705829Y-134337393D01*
X144690028Y-134306924D01*
X144672959Y-134277932D01*
X144654622Y-134250417D01*
X144635016Y-134224379D01*
X144612460Y-134199875D01*
X144588640Y-134176959D01*
X144563558Y-134155630D01*
X144537211Y-134135887D01*
X144509601Y-134117730D01*
X144480726Y-134101156D01*
X144450587Y-134086166D01*
X144419184Y-134072758D01*
X144386515Y-134060931D01*
X144352581Y-134050684D01*
X144317381Y-134042016D01*
X144280915Y-134034926D01*
X144243183Y-134029414D01*
X144204184Y-134025478D01*
X144163918Y-134023117D01*
X144122386Y-134022330D01*
X136809138Y-134035765D01*
X136809138Y-132038466D01*
X144621580Y-132038466D01*
X144726362Y-132040526D01*
G37*
G36*
X146301025Y-62275861D02*
G01*
X146325218Y-62402157D01*
X146346565Y-62532248D01*
X146365066Y-62666133D01*
X146380721Y-62803813D01*
X146393529Y-62945286D01*
X146403491Y-63090553D01*
X146410607Y-63239613D01*
X146414877Y-63392466D01*
X146416300Y-63549111D01*
X146415445Y-63671174D01*
X146412884Y-63794491D01*
X146408624Y-63919067D01*
X146402670Y-64044904D01*
X146395028Y-64172006D01*
X146385705Y-64300377D01*
X146374707Y-64430019D01*
X146362040Y-64560936D01*
X146350871Y-64692061D01*
X146337601Y-64822330D01*
X146322229Y-64951745D01*
X146304751Y-65080313D01*
X146285165Y-65208037D01*
X146263468Y-65334922D01*
X146239656Y-65460974D01*
X146213728Y-65586196D01*
X146185487Y-65709312D01*
X146154732Y-65829045D01*
X146121457Y-65945398D01*
X146085657Y-66058374D01*
X146047327Y-66167977D01*
X146006462Y-66274210D01*
X145963056Y-66377077D01*
X145917106Y-66476581D01*
X144689274Y-66287962D01*
X144727213Y-65943914D01*
X144760101Y-65599891D01*
X144787935Y-65255867D01*
X144810713Y-64911819D01*
X144822506Y-64587930D01*
X144830899Y-64290957D01*
X144835917Y-64020969D01*
X144837585Y-63778038D01*
X144834832Y-63623716D01*
X144826576Y-63477834D01*
X144820388Y-63408057D01*
X144812826Y-63340389D01*
X144803892Y-63274830D01*
X144793587Y-63211379D01*
X144781912Y-63150037D01*
X144768867Y-63090802D01*
X144754454Y-63033675D01*
X144738672Y-62978656D01*
X144721524Y-62925744D01*
X144703009Y-62874939D01*
X144683129Y-62826241D01*
X144661885Y-62779650D01*
X144638905Y-62736589D01*
X144613818Y-62695110D01*
X144586623Y-62655213D01*
X144557320Y-62616898D01*
X144525910Y-62580165D01*
X144492391Y-62545013D01*
X144456765Y-62511443D01*
X144419031Y-62479454D01*
X144379188Y-62449046D01*
X144337237Y-62420220D01*
X144293178Y-62392974D01*
X144247010Y-62367309D01*
X144198733Y-62343225D01*
X144148348Y-62320721D01*
X144095854Y-62299798D01*
X144041251Y-62280455D01*
X143985055Y-62263302D01*
X143926049Y-62247275D01*
X143864273Y-62232350D01*
X143799765Y-62218505D01*
X143732564Y-62205718D01*
X143662708Y-62193968D01*
X143590235Y-62183231D01*
X143515185Y-62173485D01*
X143515185Y-64547500D01*
X143513444Y-64689859D01*
X143508220Y-64826838D01*
X143499514Y-64958437D01*
X143487327Y-65084658D01*
X143471659Y-65205500D01*
X143452510Y-65320965D01*
X143429882Y-65431053D01*
X143403775Y-65535764D01*
X143374189Y-65635099D01*
X143341125Y-65729058D01*
X143304584Y-65817642D01*
X143264566Y-65900852D01*
X143221071Y-65978688D01*
X143174100Y-66051151D01*
X143123655Y-66118241D01*
X143069734Y-66179958D01*
X143010599Y-66237093D01*
X142947882Y-66290436D01*
X142881584Y-66339986D01*
X142811703Y-66385744D01*
X142738240Y-66427708D01*
X142661194Y-66465878D01*
X142580565Y-66500255D01*
X142496352Y-66530836D01*
X142408556Y-66557623D01*
X142317174Y-66580615D01*
X142222208Y-66599812D01*
X142123657Y-66615212D01*
X142021520Y-66626816D01*
X141915797Y-66634623D01*
X141806487Y-66638633D01*
X141693591Y-66638845D01*
X141554129Y-66635947D01*
X141419093Y-66627251D01*
X141288484Y-66612759D01*
X141162301Y-66592469D01*
X141040545Y-66566382D01*
X140923216Y-66534497D01*
X140810314Y-66496815D01*
X140701839Y-66453336D01*
X140597791Y-66404058D01*
X140498171Y-66348983D01*
X140402978Y-66288110D01*
X140312214Y-66221439D01*
X140225877Y-66148969D01*
X140143969Y-66070702D01*
X140066488Y-65986636D01*
X139993437Y-65896771D01*
X139923177Y-65801951D01*
X139857447Y-65699643D01*
X139796248Y-65589849D01*
X139739579Y-65472569D01*
X139687443Y-65347802D01*
X139639837Y-65215551D01*
X139596764Y-65075814D01*
X139558224Y-64928592D01*
X139524216Y-64773886D01*
X139494741Y-64611696D01*
X139469800Y-64442023D01*
X139449392Y-64264866D01*
X139433519Y-64080227D01*
X139422181Y-63888105D01*
X139415378Y-63688501D01*
X139413851Y-63549111D01*
X140816643Y-63549111D01*
X140817377Y-63625271D01*
X140819582Y-63698584D01*
X140823258Y-63769048D01*
X140828405Y-63836665D01*
X140835025Y-63901435D01*
X140843118Y-63963358D01*
X140852685Y-64022434D01*
X140863727Y-64078663D01*
X140876245Y-64132047D01*
X140890239Y-64182584D01*
X140905711Y-64230276D01*
X140922661Y-64275123D01*
X140941090Y-64317124D01*
X140961000Y-64356281D01*
X140982389Y-64392593D01*
X141005261Y-64426061D01*
X141016515Y-64442676D01*
X141028351Y-64458790D01*
X141040768Y-64474402D01*
X141053767Y-64489513D01*
X141067347Y-64504122D01*
X141081509Y-64518230D01*
X141096251Y-64531837D01*
X141111575Y-64544942D01*
X141127479Y-64557547D01*
X141143964Y-64569650D01*
X141161030Y-64581252D01*
X141178676Y-64592352D01*
X141196903Y-64602952D01*
X141215709Y-64613051D01*
X141235096Y-64622650D01*
X141255062Y-64631747D01*
X141275608Y-64640344D01*
X141296734Y-64648440D01*
X141340724Y-64663130D01*
X141387031Y-64675818D01*
X141435654Y-64686505D01*
X141486592Y-64695191D01*
X141539843Y-64701876D01*
X141595408Y-64706562D01*
X141653283Y-64709247D01*
X141696553Y-64708721D01*
X141738657Y-64707141D01*
X141779597Y-64704509D01*
X141819374Y-64700823D01*
X141857987Y-64696083D01*
X141895439Y-64690290D01*
X141931730Y-64683443D01*
X141966860Y-64675542D01*
X142000830Y-64666586D01*
X142033642Y-64656577D01*
X142065295Y-64645513D01*
X142095792Y-64633395D01*
X142125132Y-64620222D01*
X142153316Y-64605993D01*
X142180345Y-64590710D01*
X142206221Y-64574372D01*
X142217843Y-64566453D01*
X142229098Y-64557873D01*
X142239985Y-64548635D01*
X142250505Y-64538736D01*
X142260656Y-64528179D01*
X142270439Y-64516962D01*
X142279855Y-64505086D01*
X142288902Y-64492550D01*
X142297581Y-64479356D01*
X142305891Y-64465502D01*
X142313833Y-64450989D01*
X142321407Y-64435817D01*
X142328612Y-64419986D01*
X142335448Y-64403496D01*
X142341915Y-64386347D01*
X142348014Y-64368539D01*
X142359104Y-64330947D01*
X142368718Y-64290719D01*
X142376855Y-64247858D01*
X142383514Y-64202362D01*
X142388694Y-64154233D01*
X142392395Y-64103470D01*
X142394616Y-64050074D01*
X142395357Y-63994045D01*
X142395357Y-62139378D01*
X142263281Y-62145910D01*
X142138044Y-62154628D01*
X142019674Y-62165545D01*
X141908201Y-62178674D01*
X141803652Y-62194029D01*
X141706057Y-62211623D01*
X141615445Y-62231470D01*
X141531843Y-62253584D01*
X141480610Y-62269498D01*
X141431482Y-62286883D01*
X141384458Y-62305738D01*
X141339540Y-62326065D01*
X141296728Y-62347865D01*
X141256022Y-62371138D01*
X141217424Y-62395885D01*
X141180933Y-62422107D01*
X141146551Y-62449805D01*
X141114277Y-62478980D01*
X141084113Y-62509632D01*
X141056059Y-62541762D01*
X141030116Y-62575372D01*
X141006283Y-62610461D01*
X140984562Y-62647030D01*
X140964953Y-62685081D01*
X140946981Y-62724828D01*
X140930170Y-62766481D01*
X140914521Y-62810041D01*
X140900033Y-62855505D01*
X140886707Y-62902872D01*
X140874541Y-62952141D01*
X140863535Y-63003310D01*
X140853690Y-63056378D01*
X140845004Y-63111344D01*
X140837477Y-63168205D01*
X140831109Y-63226961D01*
X140825900Y-63287611D01*
X140821849Y-63350152D01*
X140818956Y-63414583D01*
X140817221Y-63480903D01*
X140816643Y-63549111D01*
X139413851Y-63549111D01*
X139413110Y-63481416D01*
X139418386Y-63181836D01*
X139434212Y-62897022D01*
X139446080Y-62760151D01*
X139460585Y-62626971D01*
X139477726Y-62497482D01*
X139497503Y-62371682D01*
X139519915Y-62249571D01*
X139544962Y-62131150D01*
X139572644Y-62016417D01*
X139602959Y-61905373D01*
X139635909Y-61798017D01*
X139671492Y-61694349D01*
X139709708Y-61594368D01*
X139750557Y-61498074D01*
X139794409Y-61405205D01*
X139841634Y-61315499D01*
X139892232Y-61228956D01*
X139946202Y-61145576D01*
X140003545Y-61065358D01*
X140064261Y-60988303D01*
X140128350Y-60914411D01*
X140195812Y-60843681D01*
X140266648Y-60776114D01*
X140340856Y-60711708D01*
X140418438Y-60650465D01*
X140499393Y-60592384D01*
X140583722Y-60537466D01*
X140671424Y-60485709D01*
X140762499Y-60437114D01*
X140856949Y-60391681D01*
X140955195Y-60349199D01*
X141057657Y-60309456D01*
X141164336Y-60272453D01*
X141275231Y-60238189D01*
X141390343Y-60206666D01*
X141509671Y-60177882D01*
X141633216Y-60151839D01*
X141760977Y-60128536D01*
X141892954Y-60107974D01*
X142029148Y-60090153D01*
X142169559Y-60075074D01*
X142314186Y-60062735D01*
X142463029Y-60053138D01*
X142616089Y-60046283D01*
X142773366Y-60042170D01*
X142934859Y-60040799D01*
X143228327Y-60046074D01*
X143508299Y-60061900D01*
X143643224Y-60073769D01*
X143774775Y-60088274D01*
X143902952Y-60105414D01*
X144027756Y-60125191D01*
X144149187Y-60147603D01*
X144267245Y-60172650D01*
X144381930Y-60200331D01*
X144493241Y-60230647D01*
X144601181Y-60263597D01*
X144705747Y-60299180D01*
X144806942Y-60337396D01*
X144904764Y-60378245D01*
X144999377Y-60423730D01*
X145090939Y-60472481D01*
X145179449Y-60524499D01*
X145264907Y-60579783D01*
X145347312Y-60638334D01*
X145426663Y-60700152D01*
X145502958Y-60765237D01*
X145576198Y-60833590D01*
X145646380Y-60905210D01*
X145713504Y-60980099D01*
X145777570Y-61058256D01*
X145838575Y-61139682D01*
X145896520Y-61224376D01*
X145951403Y-61312340D01*
X146003224Y-61403572D01*
X146051981Y-61498074D01*
X146096097Y-61597796D01*
X146137367Y-61701316D01*
X146175790Y-61808632D01*
X146211368Y-61919745D01*
X146244100Y-62034655D01*
X146270465Y-62139378D01*
X146273985Y-62153360D01*
X146301025Y-62275861D01*
G37*
G36*
X146254037Y-80907222D02*
G01*
X139588811Y-80907222D01*
X139588811Y-78923882D01*
X146254037Y-78923882D01*
X146254037Y-80907222D01*
G37*
G36*
X146296791Y-119676138D02*
G01*
X146268755Y-119772169D01*
X146237768Y-119865880D01*
X146203828Y-119957272D01*
X146166936Y-120046345D01*
X146127092Y-120133099D01*
X146084296Y-120217535D01*
X146038548Y-120299651D01*
X145994942Y-120370119D01*
X145950218Y-120439045D01*
X145904382Y-120506439D01*
X145857445Y-120572313D01*
X145809413Y-120636675D01*
X145760296Y-120699537D01*
X145710100Y-120760909D01*
X145658836Y-120820802D01*
X145606510Y-120879225D01*
X145553131Y-120936189D01*
X145498707Y-120991704D01*
X145443248Y-121045781D01*
X145386759Y-121098431D01*
X145329251Y-121149663D01*
X145270731Y-121199488D01*
X145211208Y-121247916D01*
X146254038Y-121419997D01*
X146254038Y-122998710D01*
X136809137Y-122998710D01*
X136809137Y-121001418D01*
X138617295Y-121001418D01*
X138839072Y-121002252D01*
X139059145Y-121004762D01*
X139277530Y-121008959D01*
X139494244Y-121014853D01*
X139628855Y-121024370D01*
X139763479Y-121035163D01*
X140032713Y-121058265D01*
X139999269Y-121009643D01*
X139966774Y-120960419D01*
X139935236Y-120910587D01*
X139904661Y-120860144D01*
X139875057Y-120809085D01*
X139846432Y-120757407D01*
X139818793Y-120705104D01*
X139792148Y-120652173D01*
X139766505Y-120598609D01*
X139741871Y-120544409D01*
X139718254Y-120489568D01*
X139695661Y-120434082D01*
X139674100Y-120377947D01*
X139653579Y-120321158D01*
X139634104Y-120263712D01*
X139615684Y-120205603D01*
X139568239Y-120042844D01*
X139527107Y-119878401D01*
X139492292Y-119712271D01*
X139466026Y-119557578D01*
X140843516Y-119557578D01*
X140845206Y-119677118D01*
X140850272Y-119792865D01*
X140858715Y-119904818D01*
X140870533Y-120012977D01*
X140885724Y-120117340D01*
X140904286Y-120217908D01*
X140926219Y-120314679D01*
X140951520Y-120407653D01*
X141126703Y-121001418D01*
X144231940Y-121001418D01*
X144366471Y-120805391D01*
X144429814Y-120711301D01*
X144459245Y-120666495D01*
X144486704Y-120623664D01*
X144522749Y-120559576D01*
X144556693Y-120495495D01*
X144588534Y-120431420D01*
X144618271Y-120367347D01*
X144645902Y-120303274D01*
X144671427Y-120239198D01*
X144694842Y-120175118D01*
X144716148Y-120111029D01*
X144731954Y-120045463D01*
X144745629Y-119976943D01*
X144757179Y-119905470D01*
X144766612Y-119831045D01*
X144773936Y-119753668D01*
X144779158Y-119673341D01*
X144782286Y-119590064D01*
X144783327Y-119503837D01*
X144782748Y-119455453D01*
X144781013Y-119408127D01*
X144778120Y-119361859D01*
X144774069Y-119316646D01*
X144768859Y-119272490D01*
X144762492Y-119229389D01*
X144754965Y-119187343D01*
X144746279Y-119146352D01*
X144736433Y-119106414D01*
X144725428Y-119067531D01*
X144713262Y-119029701D01*
X144699935Y-118992923D01*
X144685448Y-118957197D01*
X144669799Y-118922524D01*
X144652988Y-118888901D01*
X144635016Y-118856330D01*
X144613826Y-118826444D01*
X144590735Y-118797507D01*
X144565743Y-118769519D01*
X144538851Y-118742480D01*
X144510059Y-118716389D01*
X144479368Y-118691247D01*
X144446778Y-118667054D01*
X144412290Y-118643809D01*
X144375905Y-118621513D01*
X144337623Y-118600166D01*
X144297444Y-118579768D01*
X144255370Y-118560319D01*
X144211400Y-118541819D01*
X144165536Y-118524267D01*
X144117777Y-118507665D01*
X144068125Y-118492011D01*
X144014370Y-118478939D01*
X143957673Y-118466710D01*
X143835448Y-118444777D01*
X143701439Y-118426215D01*
X143555635Y-118411025D01*
X143398026Y-118399208D01*
X143228598Y-118390765D01*
X143047342Y-118385698D01*
X142854246Y-118384009D01*
X142648258Y-118385907D01*
X142455321Y-118391599D01*
X142275443Y-118401087D01*
X142108630Y-118414369D01*
X141954888Y-118431447D01*
X141814224Y-118452319D01*
X141686644Y-118476985D01*
X141572154Y-118505446D01*
X141519287Y-118521152D01*
X141468631Y-118537911D01*
X141420186Y-118555724D01*
X141373954Y-118574590D01*
X141329934Y-118594510D01*
X141288126Y-118615483D01*
X141248532Y-118637510D01*
X141211150Y-118660592D01*
X141175983Y-118684727D01*
X141143030Y-118709917D01*
X141112291Y-118736161D01*
X141083767Y-118763460D01*
X141057458Y-118791813D01*
X141033365Y-118821221D01*
X141011488Y-118851683D01*
X140991827Y-118883201D01*
X140973856Y-118915875D01*
X140957046Y-118949809D01*
X140941398Y-118985003D01*
X140926910Y-119021459D01*
X140913584Y-119059177D01*
X140901418Y-119098157D01*
X140890412Y-119138401D01*
X140880567Y-119179909D01*
X140871880Y-119222682D01*
X140864353Y-119266720D01*
X140857985Y-119312026D01*
X140852775Y-119358598D01*
X140848724Y-119406439D01*
X140845831Y-119455549D01*
X140844095Y-119505928D01*
X140843516Y-119557578D01*
X139466026Y-119557578D01*
X139463798Y-119544456D01*
X139441629Y-119374955D01*
X139425789Y-119203767D01*
X139416282Y-119030892D01*
X139413112Y-118856330D01*
X139414327Y-118752810D01*
X139417972Y-118651394D01*
X139424045Y-118552081D01*
X139432545Y-118454872D01*
X139443474Y-118359769D01*
X139456828Y-118266771D01*
X139472609Y-118175880D01*
X139490815Y-118087097D01*
X139511445Y-118000422D01*
X139534500Y-117915856D01*
X139559977Y-117833400D01*
X139587877Y-117753055D01*
X139618199Y-117674821D01*
X139650942Y-117598699D01*
X139686105Y-117524690D01*
X139723688Y-117452796D01*
X139764221Y-117383065D01*
X139808236Y-117315547D01*
X139855732Y-117250243D01*
X139906709Y-117187152D01*
X139961166Y-117126274D01*
X140019103Y-117067610D01*
X140080520Y-117011159D01*
X140145415Y-116956922D01*
X140213789Y-116904899D01*
X140285641Y-116855089D01*
X140360971Y-116807493D01*
X140439779Y-116762111D01*
X140522063Y-116718942D01*
X140607824Y-116677988D01*
X140697060Y-116639248D01*
X140789773Y-116602721D01*
X140884856Y-116570043D01*
X140984577Y-116539476D01*
X141088936Y-116511020D01*
X141197934Y-116484673D01*
X141311570Y-116460435D01*
X141429844Y-116438307D01*
X141552757Y-116418288D01*
X141680307Y-116400377D01*
X141812496Y-116384575D01*
X141949322Y-116370880D01*
X142090787Y-116359294D01*
X142236890Y-116349814D01*
X142543010Y-116337177D01*
X142867682Y-116332965D01*
X143078769Y-116335071D01*
X143283631Y-116341389D01*
X143482269Y-116351919D01*
X143674684Y-116366664D01*
X143860876Y-116385622D01*
X144040847Y-116408795D01*
X144214596Y-116436183D01*
X144382125Y-116467788D01*
X144543435Y-116503609D01*
X144698526Y-116543647D01*
X144847400Y-116587903D01*
X144990056Y-116636377D01*
X145126497Y-116689071D01*
X145256722Y-116745985D01*
X145380732Y-116807118D01*
X145498529Y-116872474D01*
X145554979Y-116907761D01*
X145609638Y-116944471D01*
X145662506Y-116982604D01*
X145713583Y-117022160D01*
X145762870Y-117063139D01*
X145810366Y-117105541D01*
X145856070Y-117149367D01*
X145899983Y-117194615D01*
X145942105Y-117241286D01*
X145982436Y-117289381D01*
X146020975Y-117338899D01*
X146057723Y-117389839D01*
X146092679Y-117442203D01*
X146125843Y-117495990D01*
X146157215Y-117551200D01*
X146186795Y-117607833D01*
X146214584Y-117665889D01*
X146240580Y-117725368D01*
X146264784Y-117786270D01*
X146287196Y-117848596D01*
X146307815Y-117912344D01*
X146326642Y-117977516D01*
X146343676Y-118044111D01*
X146358918Y-118112128D01*
X146372366Y-118181569D01*
X146384022Y-118252433D01*
X146401955Y-118398431D01*
X146412715Y-118550121D01*
X146416302Y-118707503D01*
X146414827Y-118824406D01*
X146410401Y-118938990D01*
X146403024Y-119051255D01*
X146392697Y-119161200D01*
X146379418Y-119268826D01*
X146363188Y-119374133D01*
X146344007Y-119477121D01*
X146338134Y-119503837D01*
X146321875Y-119577789D01*
X146296791Y-119676138D01*
G37*
G36*
X144695830Y-124288860D02*
G01*
X144806750Y-124294436D01*
X144914033Y-124303728D01*
X145017678Y-124316738D01*
X145117687Y-124333464D01*
X145214057Y-124353908D01*
X145306791Y-124378068D01*
X145395888Y-124405944D01*
X145481347Y-124437537D01*
X145563170Y-124472846D01*
X145641355Y-124511872D01*
X145715904Y-124554614D01*
X145786815Y-124601072D01*
X145854090Y-124651247D01*
X145917727Y-124705137D01*
X145977728Y-124762743D01*
X146034093Y-124824065D01*
X146086820Y-124889102D01*
X146135911Y-124957856D01*
X146181365Y-125030325D01*
X146223183Y-125106509D01*
X146261364Y-125186409D01*
X146295908Y-125270024D01*
X146326816Y-125357354D01*
X146354088Y-125448400D01*
X146377723Y-125543160D01*
X146397722Y-125641635D01*
X146414085Y-125743826D01*
X146426812Y-125849731D01*
X146435902Y-125959351D01*
X146441356Y-126072685D01*
X146443174Y-126189734D01*
X146441959Y-126282335D01*
X146438315Y-126374610D01*
X146432242Y-126466562D01*
X146423740Y-126558192D01*
X146412812Y-126649501D01*
X146399457Y-126740491D01*
X146383675Y-126831161D01*
X146365469Y-126921514D01*
X146344839Y-127011551D01*
X146321784Y-127101273D01*
X146296307Y-127190681D01*
X146268407Y-127279777D01*
X146238085Y-127368560D01*
X146205343Y-127457034D01*
X146170181Y-127545199D01*
X146132599Y-127633055D01*
X146095782Y-127713861D01*
X146056738Y-127794853D01*
X146015479Y-127876031D01*
X145972017Y-127957395D01*
X145926364Y-128038941D01*
X145878532Y-128120670D01*
X145776379Y-128284670D01*
X145665657Y-128449383D01*
X145546461Y-128614799D01*
X145418890Y-128780908D01*
X145283039Y-128947699D01*
X146254039Y-129117720D01*
X146254039Y-130695914D01*
X139588814Y-130695914D01*
X139588813Y-128699141D01*
X144201451Y-128699141D01*
X144320881Y-128470600D01*
X144375916Y-128361367D01*
X144427512Y-128255838D01*
X144475428Y-128154271D01*
X144519426Y-128056925D01*
X144559266Y-127964058D01*
X144594709Y-127875930D01*
X144612680Y-127825284D01*
X144629490Y-127774540D01*
X144645138Y-127723697D01*
X144659625Y-127672754D01*
X144672952Y-127621710D01*
X144685118Y-127570564D01*
X144696123Y-127519314D01*
X144705969Y-127467960D01*
X144714656Y-127416501D01*
X144722183Y-127364935D01*
X144728551Y-127313262D01*
X144733761Y-127261480D01*
X144737812Y-127209588D01*
X144740705Y-127157586D01*
X144742441Y-127105471D01*
X144743020Y-127053244D01*
X144742337Y-127003488D01*
X144740289Y-126955417D01*
X144736874Y-126909032D01*
X144732092Y-126864332D01*
X144725943Y-126821318D01*
X144718425Y-126779989D01*
X144709538Y-126740347D01*
X144699281Y-126702391D01*
X144687654Y-126666122D01*
X144674655Y-126631540D01*
X144660285Y-126598645D01*
X144644543Y-126567436D01*
X144627428Y-126537915D01*
X144608939Y-126510082D01*
X144589075Y-126483937D01*
X144567837Y-126459479D01*
X144544961Y-126438237D01*
X144520186Y-126418358D01*
X144493513Y-126399845D01*
X144464941Y-126382697D01*
X144434471Y-126366916D01*
X144402103Y-126352503D01*
X144367837Y-126339458D01*
X144331673Y-126327782D01*
X144293612Y-126317477D01*
X144253654Y-126308543D01*
X144211799Y-126300981D01*
X144168047Y-126294792D01*
X144122398Y-126289976D01*
X144074853Y-126286535D01*
X144025412Y-126284470D01*
X143974075Y-126283782D01*
X139588813Y-126283782D01*
X139588813Y-124287001D01*
X144581272Y-124287001D01*
X144695830Y-124288860D01*
G37*
G36*
X146415653Y-55910302D02*
G01*
X146416300Y-55999701D01*
X146412296Y-56246780D01*
X146400285Y-56482035D01*
X146380265Y-56705473D01*
X146352235Y-56917099D01*
X146335215Y-57018484D01*
X146316193Y-57116918D01*
X146295167Y-57212402D01*
X146272138Y-57304937D01*
X146247105Y-57394523D01*
X146220069Y-57481161D01*
X146191029Y-57564851D01*
X146159985Y-57645595D01*
X146125462Y-57723759D01*
X146089359Y-57799708D01*
X146051675Y-57873444D01*
X146012411Y-57944965D01*
X145971566Y-58014272D01*
X145929140Y-58081365D01*
X145885133Y-58146244D01*
X145839545Y-58208910D01*
X145792376Y-58269362D01*
X145743626Y-58327600D01*
X145693294Y-58383624D01*
X145641381Y-58437436D01*
X145587886Y-58489034D01*
X145532809Y-58538418D01*
X145476151Y-58585590D01*
X145417911Y-58630548D01*
X145356557Y-58675190D01*
X145293929Y-58718040D01*
X145230031Y-58759096D01*
X145164861Y-58798360D01*
X145098423Y-58835831D01*
X145030715Y-58871509D01*
X144961741Y-58905396D01*
X144891501Y-58937490D01*
X144819995Y-58967793D01*
X144747226Y-58996303D01*
X144673194Y-59023022D01*
X144597900Y-59047949D01*
X144521345Y-59071084D01*
X144443532Y-59092428D01*
X144364460Y-59111981D01*
X144284130Y-59129742D01*
X144120331Y-59164546D01*
X143952759Y-59194741D01*
X143781406Y-59220316D01*
X143606265Y-59241262D01*
X143427329Y-59257571D01*
X143244591Y-59269231D01*
X143058044Y-59276235D01*
X142867679Y-59278571D01*
X142640723Y-59276304D01*
X142421985Y-59269500D01*
X142211466Y-59258162D01*
X142009166Y-59242289D01*
X141815085Y-59221881D01*
X141629225Y-59196940D01*
X141451587Y-59167465D01*
X141282169Y-59133457D01*
X141120974Y-59094916D01*
X140968002Y-59051843D01*
X140823253Y-59004238D01*
X140686728Y-58952101D01*
X140558427Y-58895433D01*
X140438352Y-58834234D01*
X140326503Y-58768504D01*
X140222879Y-58698245D01*
X140173071Y-58662087D01*
X140124842Y-58624452D01*
X140078194Y-58585340D01*
X140033126Y-58544751D01*
X139989638Y-58502685D01*
X139947731Y-58459141D01*
X139907405Y-58414121D01*
X139868659Y-58367625D01*
X139831493Y-58319651D01*
X139795908Y-58270201D01*
X139761905Y-58219275D01*
X139729482Y-58166872D01*
X139698640Y-58112993D01*
X139669378Y-58057638D01*
X139641698Y-58000807D01*
X139615600Y-57942500D01*
X139568146Y-57821459D01*
X139527017Y-57694516D01*
X139492214Y-57561671D01*
X139463738Y-57422926D01*
X139441589Y-57278281D01*
X139425767Y-57127737D01*
X139416274Y-56971294D01*
X139413110Y-56808955D01*
X139413798Y-56748346D01*
X139415863Y-56687956D01*
X139419303Y-56627784D01*
X139424118Y-56567828D01*
X139430307Y-56508087D01*
X139437868Y-56448560D01*
X139446802Y-56389246D01*
X139457107Y-56330144D01*
X139468782Y-56271253D01*
X139481827Y-56212571D01*
X139496241Y-56154099D01*
X139512022Y-56095834D01*
X139529171Y-56037775D01*
X139537055Y-56013137D01*
X140978389Y-56013137D01*
X140979077Y-56071326D01*
X140981142Y-56127828D01*
X140984582Y-56182644D01*
X140989397Y-56235774D01*
X140995586Y-56287217D01*
X141003147Y-56336974D01*
X141012081Y-56385044D01*
X141022386Y-56431428D01*
X141034061Y-56476125D01*
X141047106Y-56519136D01*
X141061520Y-56560460D01*
X141077301Y-56600097D01*
X141094450Y-56638047D01*
X141112964Y-56674310D01*
X141132844Y-56708886D01*
X141154088Y-56741775D01*
X141164457Y-56758470D01*
X141175324Y-56774823D01*
X141186690Y-56790832D01*
X141198555Y-56806500D01*
X141210919Y-56821824D01*
X141223782Y-56836807D01*
X141251007Y-56865743D01*
X141280230Y-56893310D01*
X141311453Y-56919506D01*
X141344676Y-56944331D01*
X141379901Y-56967787D01*
X141417128Y-56989872D01*
X141456360Y-57010587D01*
X141497597Y-57029931D01*
X141540841Y-57047905D01*
X141586091Y-57064508D01*
X141633350Y-57079741D01*
X141682619Y-57093603D01*
X141733898Y-57106094D01*
X141785818Y-57119166D01*
X141840380Y-57131396D01*
X141897582Y-57142784D01*
X141957425Y-57153329D01*
X142085026Y-57171891D01*
X142223176Y-57187082D01*
X142371868Y-57198899D01*
X142531093Y-57207342D01*
X142700844Y-57212409D01*
X142881115Y-57214098D01*
X143078018Y-57212200D01*
X143263944Y-57206507D01*
X143438899Y-57197020D01*
X143602887Y-57183737D01*
X143755912Y-57166659D01*
X143897978Y-57145787D01*
X144029091Y-57121120D01*
X144149254Y-57092658D01*
X144203910Y-57076842D01*
X144256562Y-57059754D01*
X144307208Y-57041394D01*
X144355850Y-57021764D01*
X144402489Y-57000866D01*
X144447123Y-56978699D01*
X144489754Y-56955265D01*
X144530382Y-56930565D01*
X144569006Y-56904600D01*
X144605629Y-56877371D01*
X144640249Y-56848880D01*
X144672866Y-56819126D01*
X144703483Y-56788112D01*
X144732098Y-56755838D01*
X144758711Y-56722305D01*
X144783324Y-56687515D01*
X144804619Y-56653044D01*
X144824655Y-56617098D01*
X144843429Y-56579675D01*
X144860942Y-56540776D01*
X144877193Y-56500401D01*
X144892182Y-56458551D01*
X144905907Y-56415224D01*
X144918367Y-56370421D01*
X144929563Y-56324143D01*
X144939493Y-56276389D01*
X144948157Y-56227159D01*
X144955555Y-56176454D01*
X144961684Y-56124273D01*
X144966545Y-56070616D01*
X144970138Y-56015484D01*
X144972460Y-55958877D01*
X144975413Y-55896908D01*
X144977523Y-55832432D01*
X144978788Y-55765442D01*
X144979210Y-55695930D01*
X144978788Y-55623887D01*
X144977523Y-55549307D01*
X144975413Y-55472182D01*
X144972460Y-55392504D01*
X144965282Y-55311761D01*
X144957252Y-55231447D01*
X144948371Y-55151559D01*
X144938644Y-55072095D01*
X144928073Y-54993053D01*
X144916661Y-54914430D01*
X144904412Y-54836225D01*
X144891328Y-54758434D01*
X144881773Y-54716015D01*
X144871954Y-54674707D01*
X144852054Y-54593069D01*
X141541145Y-54584284D01*
X141434709Y-54747740D01*
X141384322Y-54827582D01*
X141336050Y-54906015D01*
X141290063Y-54982925D01*
X141246533Y-55058196D01*
X141205629Y-55131715D01*
X141167524Y-55203368D01*
X141144647Y-55249225D01*
X141123241Y-55295718D01*
X141103306Y-55342848D01*
X141084844Y-55390612D01*
X141067854Y-55439012D01*
X141052339Y-55488045D01*
X141038298Y-55537713D01*
X141025731Y-55588013D01*
X141014641Y-55638946D01*
X141005027Y-55690511D01*
X140996891Y-55742707D01*
X140990232Y-55795534D01*
X140985051Y-55848991D01*
X140981350Y-55903077D01*
X140979129Y-55957793D01*
X140978389Y-56013137D01*
X139537055Y-56013137D01*
X139547685Y-55979921D01*
X139567565Y-55922272D01*
X139588810Y-55864826D01*
X139631401Y-55750981D01*
X139678218Y-55638825D01*
X139729258Y-55528357D01*
X139784517Y-55419577D01*
X139843994Y-55312483D01*
X139907685Y-55207075D01*
X139975586Y-55103352D01*
X140047696Y-55001313D01*
X140104115Y-54926208D01*
X140162275Y-54852243D01*
X140222067Y-54779355D01*
X140283384Y-54707476D01*
X140346117Y-54636541D01*
X140410157Y-54566483D01*
X140475395Y-54497238D01*
X140541723Y-54428738D01*
X140457286Y-54450340D01*
X140372607Y-54470519D01*
X140287670Y-54489172D01*
X140202458Y-54506193D01*
X140116958Y-54521478D01*
X140031152Y-54534921D01*
X139945025Y-54546417D01*
X139858560Y-54555862D01*
X139750202Y-54568502D01*
X139641011Y-54579439D01*
X139530983Y-54588679D01*
X139420115Y-54596227D01*
X139308404Y-54602088D01*
X139195846Y-54606268D01*
X139082438Y-54608772D01*
X138968176Y-54609606D01*
X136809134Y-54596170D01*
X136809134Y-52599393D01*
X145889716Y-52599392D01*
X145923029Y-52678872D01*
X145955502Y-52762145D01*
X145987132Y-52849210D01*
X146017919Y-52940070D01*
X146047860Y-53034725D01*
X146076954Y-53133175D01*
X146105200Y-53235422D01*
X146132596Y-53341466D01*
X146155565Y-53450033D01*
X146177263Y-53559850D01*
X146197692Y-53670923D01*
X146216857Y-53783257D01*
X146234757Y-53896855D01*
X146251398Y-54011723D01*
X146266780Y-54127865D01*
X146280907Y-54245287D01*
X146312136Y-54486494D01*
X146338316Y-54724355D01*
X146359433Y-54958843D01*
X146375475Y-55189932D01*
X146393245Y-55412595D01*
X146406012Y-55621802D01*
X146408931Y-55695930D01*
X146413718Y-55817516D01*
X146415653Y-55910302D01*
G37*
G36*
X146337123Y-138691976D02*
G01*
X146320506Y-138758490D01*
X146302308Y-138823949D01*
X146282532Y-138888355D01*
X146261176Y-138951706D01*
X146238243Y-139014004D01*
X146213731Y-139075248D01*
X146161868Y-139194787D01*
X146107474Y-139310534D01*
X146050548Y-139422487D01*
X145991092Y-139530646D01*
X145929106Y-139635010D01*
X145864591Y-139735577D01*
X145797546Y-139832349D01*
X145727973Y-139925322D01*
X145660472Y-140006212D01*
X145592970Y-140083269D01*
X145525468Y-140156609D01*
X145457966Y-140226345D01*
X145390463Y-140292593D01*
X145322960Y-140355466D01*
X145255457Y-140415080D01*
X145187954Y-140471549D01*
X146254039Y-140680838D01*
X146254039Y-142272986D01*
X141855341Y-142272986D01*
X141740546Y-142271777D01*
X141628912Y-142268149D01*
X141520440Y-142262102D01*
X141415130Y-142253634D01*
X141312981Y-142242745D01*
X141213995Y-142229434D01*
X141118171Y-142213700D01*
X141025509Y-142195542D01*
X140936009Y-142174960D01*
X140849672Y-142151952D01*
X140766497Y-142126518D01*
X140686485Y-142098658D01*
X140609636Y-142068369D01*
X140535950Y-142035652D01*
X140465427Y-142000505D01*
X140398066Y-141962928D01*
X140331869Y-141924710D01*
X140268203Y-141884270D01*
X140207068Y-141841609D01*
X140148465Y-141796728D01*
X140092392Y-141749629D01*
X140038850Y-141700312D01*
X139987838Y-141648779D01*
X139939357Y-141595032D01*
X139893405Y-141539070D01*
X139849983Y-141480897D01*
X139809090Y-141420512D01*
X139770727Y-141357917D01*
X139734892Y-141293113D01*
X139701585Y-141226102D01*
X139670807Y-141156885D01*
X139642557Y-141085463D01*
X139614780Y-141011940D01*
X139588793Y-140936420D01*
X139564598Y-140858903D01*
X139542193Y-140779388D01*
X139521580Y-140697874D01*
X139502758Y-140614360D01*
X139485728Y-140528845D01*
X139470490Y-140441328D01*
X139457044Y-140351808D01*
X139445390Y-140260285D01*
X139435529Y-140166756D01*
X139427460Y-140071222D01*
X139421183Y-139973682D01*
X139416700Y-139874134D01*
X139414010Y-139772578D01*
X139413113Y-139669013D01*
X139413968Y-139542099D01*
X139416529Y-139410980D01*
X139420789Y-139275651D01*
X139426743Y-139136110D01*
X139434385Y-138992353D01*
X139443708Y-138844376D01*
X139467374Y-138535750D01*
X139489298Y-138218614D01*
X139514613Y-137901419D01*
X139543310Y-137584225D01*
X139575377Y-137267089D01*
X139610750Y-136959297D01*
X139649478Y-136670073D01*
X139691593Y-136399401D01*
X139713930Y-136271015D01*
X139737124Y-136147261D01*
X141059524Y-136336394D01*
X141034191Y-136738582D01*
X141012209Y-137135617D01*
X140993601Y-137527591D01*
X140978392Y-137914595D01*
X140960704Y-138283161D01*
X140948114Y-138619733D01*
X140940586Y-138924258D01*
X140938085Y-139196685D01*
X140938930Y-139272690D01*
X140941463Y-139345533D01*
X140945686Y-139415216D01*
X140951596Y-139481738D01*
X140959195Y-139545097D01*
X140968482Y-139605295D01*
X140979455Y-139662332D01*
X140992116Y-139716205D01*
X141006464Y-139766917D01*
X141022497Y-139814466D01*
X141040217Y-139858852D01*
X141059622Y-139900075D01*
X141080713Y-139938134D01*
X141103488Y-139973031D01*
X141127948Y-140004763D01*
X141154092Y-140033332D01*
X141182075Y-140061109D01*
X141212054Y-140087096D01*
X141244031Y-140111292D01*
X141278006Y-140133696D01*
X141313980Y-140154309D01*
X141351954Y-140173130D01*
X141391929Y-140190160D01*
X141433906Y-140205397D01*
X141477887Y-140218843D01*
X141523870Y-140230496D01*
X141571859Y-140240357D01*
X141621853Y-140248426D01*
X141673854Y-140254701D01*
X141727862Y-140259184D01*
X141783879Y-140261874D01*
X141841905Y-140262771D01*
X142152481Y-140262771D01*
X143277477Y-140262771D01*
X144324441Y-140262771D01*
X144341496Y-140239242D01*
X144358632Y-140215831D01*
X144375596Y-140192248D01*
X144383935Y-140180302D01*
X144392137Y-140168204D01*
X144457718Y-140066792D01*
X144519524Y-139964948D01*
X144577550Y-139862674D01*
X144631787Y-139759975D01*
X144682229Y-139656855D01*
X144728870Y-139553316D01*
X144771701Y-139449364D01*
X144810716Y-139345000D01*
X144845498Y-139244650D01*
X144875633Y-139145993D01*
X144901126Y-139049027D01*
X144921977Y-138953750D01*
X144930664Y-138906745D01*
X144938191Y-138860161D01*
X144944559Y-138813997D01*
X144949769Y-138768255D01*
X144953820Y-138722934D01*
X144956713Y-138678033D01*
X144958449Y-138633552D01*
X144959028Y-138589492D01*
X144958339Y-138538102D01*
X144956274Y-138488505D01*
X144952834Y-138440699D01*
X144948018Y-138394685D01*
X144941829Y-138350463D01*
X144934267Y-138308033D01*
X144925333Y-138267394D01*
X144915028Y-138228548D01*
X144903352Y-138191493D01*
X144890307Y-138156231D01*
X144875894Y-138122761D01*
X144860112Y-138091083D01*
X144842964Y-138061196D01*
X144824450Y-138033102D01*
X144804571Y-138006801D01*
X144783328Y-137982291D01*
X144759137Y-137959413D01*
X144733791Y-137938006D01*
X144707287Y-137918071D01*
X144679627Y-137899609D01*
X144650808Y-137882620D01*
X144620832Y-137867104D01*
X144589697Y-137853063D01*
X144557402Y-137840498D01*
X144523949Y-137829408D01*
X144489335Y-137819795D01*
X144453560Y-137811659D01*
X144416625Y-137805000D01*
X144378527Y-137799820D01*
X144339268Y-137796120D01*
X144298847Y-137793899D01*
X144257262Y-137793158D01*
X143933251Y-137793158D01*
X143896625Y-137793743D01*
X143860957Y-137795495D01*
X143826246Y-137798414D01*
X143792490Y-137802498D01*
X143759687Y-137807747D01*
X143727838Y-137814159D01*
X143696939Y-137821733D01*
X143666990Y-137830467D01*
X143637991Y-137840361D01*
X143609938Y-137851413D01*
X143582832Y-137863623D01*
X143556670Y-137876988D01*
X143531452Y-137891508D01*
X143507176Y-137907182D01*
X143483840Y-137924008D01*
X143461445Y-137941985D01*
X143440200Y-137963013D01*
X143420321Y-137985619D01*
X143401806Y-138009803D01*
X143384657Y-138035566D01*
X143368876Y-138062909D01*
X143354463Y-138091832D01*
X143341418Y-138122335D01*
X143329742Y-138154419D01*
X143319437Y-138188084D01*
X143310504Y-138223330D01*
X143302942Y-138260159D01*
X143296753Y-138298570D01*
X143291938Y-138338564D01*
X143288498Y-138380141D01*
X143286433Y-138423302D01*
X143285745Y-138468047D01*
X143277477Y-140262771D01*
X142152481Y-140262771D01*
X142152481Y-137847419D01*
X142154217Y-137730938D01*
X142159424Y-137617621D01*
X142168104Y-137507467D01*
X142180258Y-137400477D01*
X142195886Y-137296651D01*
X142214991Y-137195987D01*
X142237572Y-137098486D01*
X142263630Y-137004148D01*
X142293168Y-136912973D01*
X142326185Y-136824959D01*
X142362683Y-136740108D01*
X142402662Y-136658418D01*
X142446124Y-136579890D01*
X142493069Y-136504523D01*
X142543499Y-136432317D01*
X142597415Y-136363273D01*
X142654448Y-136297912D01*
X142714230Y-136236761D01*
X142776762Y-136179822D01*
X142842041Y-136127096D01*
X142910065Y-136078582D01*
X142980835Y-136034283D01*
X143054347Y-135994198D01*
X143130602Y-135958329D01*
X143209598Y-135926677D01*
X143291333Y-135899242D01*
X143375806Y-135876025D01*
X143463016Y-135857028D01*
X143552962Y-135842251D01*
X143645642Y-135831695D01*
X143741055Y-135825360D01*
X143839199Y-135823249D01*
X144527013Y-135823249D01*
X144603809Y-135824360D01*
X144679029Y-135827691D01*
X144752673Y-135833243D01*
X144824739Y-135841013D01*
X144895228Y-135851002D01*
X144964137Y-135863207D01*
X145031467Y-135877627D01*
X145097217Y-135894263D01*
X145161385Y-135913112D01*
X145223971Y-135934174D01*
X145284975Y-135957448D01*
X145344395Y-135982932D01*
X145402231Y-136010626D01*
X145458482Y-136040529D01*
X145513147Y-136072639D01*
X145566226Y-136106955D01*
X145617719Y-136143164D01*
X145667629Y-136180950D01*
X145715956Y-136220315D01*
X145762701Y-136261259D01*
X145807863Y-136303783D01*
X145851443Y-136347886D01*
X145893441Y-136393569D01*
X145933858Y-136440833D01*
X145972694Y-136489678D01*
X146009949Y-136540105D01*
X146045623Y-136592113D01*
X146079717Y-136645704D01*
X146112231Y-136700878D01*
X146143165Y-136757634D01*
X146172520Y-136815975D01*
X146200296Y-136875899D01*
X146226440Y-136937092D01*
X146250900Y-136999234D01*
X146273675Y-137062326D01*
X146294766Y-137126366D01*
X146314171Y-137191356D01*
X146331891Y-137257295D01*
X146347925Y-137324183D01*
X146362272Y-137392019D01*
X146374933Y-137460804D01*
X146385906Y-137530538D01*
X146395193Y-137601220D01*
X146402792Y-137672851D01*
X146408703Y-137745430D01*
X146412925Y-137818957D01*
X146415459Y-137893432D01*
X146416303Y-137968856D01*
X146415511Y-138045912D01*
X146413133Y-138121914D01*
X146409172Y-138196862D01*
X146403626Y-138270755D01*
X146396498Y-138343595D01*
X146387786Y-138415379D01*
X146377493Y-138486110D01*
X146365617Y-138555786D01*
X146359008Y-138589492D01*
X146352161Y-138624408D01*
X146337123Y-138691976D01*
G37*
G36*
X146395200Y-93444875D02*
G01*
X146368827Y-93719627D01*
X146351687Y-93851156D01*
X146331910Y-93978785D01*
X146309498Y-94102514D01*
X146284452Y-94222342D01*
X146256770Y-94338268D01*
X146226454Y-94450292D01*
X146193504Y-94558411D01*
X146157921Y-94662626D01*
X146119704Y-94762936D01*
X146078854Y-94859340D01*
X146035003Y-94952099D01*
X145987778Y-95041476D01*
X145937181Y-95127473D01*
X145883211Y-95210090D01*
X145825868Y-95289329D01*
X145765152Y-95365190D01*
X145701063Y-95437676D01*
X145633600Y-95506788D01*
X145562765Y-95572526D01*
X145488556Y-95634892D01*
X145410974Y-95693887D01*
X145330018Y-95749513D01*
X145245689Y-95801770D01*
X145157987Y-95850661D01*
X145066911Y-95896185D01*
X144972462Y-95938346D01*
X144874372Y-95979195D01*
X144772379Y-96017411D01*
X144666482Y-96052994D01*
X144556683Y-96085943D01*
X144442981Y-96116259D01*
X144325378Y-96143941D01*
X144203874Y-96168988D01*
X144078468Y-96191400D01*
X143949163Y-96211177D01*
X143815958Y-96228318D01*
X143678853Y-96242823D01*
X143537850Y-96254691D01*
X143392949Y-96263923D01*
X143244150Y-96270518D01*
X143091453Y-96274475D01*
X142934860Y-96275794D01*
X142619250Y-96270518D01*
X142320080Y-96254691D01*
X142037351Y-96228318D01*
X141902153Y-96211177D01*
X141771066Y-96191400D01*
X141644090Y-96168988D01*
X141521225Y-96143941D01*
X141402472Y-96116259D01*
X141287831Y-96085943D01*
X141177302Y-96052994D01*
X141070884Y-96017411D01*
X140968579Y-95979195D01*
X140870387Y-95938346D01*
X140775936Y-95896185D01*
X140684860Y-95850661D01*
X140597157Y-95801770D01*
X140512827Y-95749513D01*
X140431872Y-95693887D01*
X140354290Y-95634892D01*
X140280081Y-95572526D01*
X140209246Y-95506788D01*
X140141783Y-95437676D01*
X140077695Y-95365190D01*
X140016979Y-95289329D01*
X139959636Y-95210090D01*
X139905666Y-95127473D01*
X139855069Y-95041476D01*
X139807845Y-94952099D01*
X139763994Y-94859340D01*
X139721511Y-94762936D01*
X139681768Y-94662626D01*
X139644764Y-94558411D01*
X139610500Y-94450292D01*
X139578977Y-94338268D01*
X139550193Y-94222342D01*
X139524150Y-94102514D01*
X139500848Y-93978785D01*
X139480286Y-93851156D01*
X139462465Y-93719627D01*
X139447386Y-93584200D01*
X139435048Y-93444875D01*
X139425451Y-93301652D01*
X139418596Y-93154534D01*
X139414483Y-93003521D01*
X139413112Y-92848613D01*
X140870387Y-92848613D01*
X140871075Y-92911863D01*
X140873140Y-92973430D01*
X140876581Y-93033315D01*
X140881396Y-93091515D01*
X140887585Y-93148032D01*
X140895148Y-93202863D01*
X140904082Y-93256009D01*
X140914387Y-93307469D01*
X140926063Y-93357242D01*
X140939108Y-93405328D01*
X140953521Y-93451726D01*
X140969302Y-93496436D01*
X140986450Y-93539457D01*
X141004964Y-93580789D01*
X141024844Y-93620430D01*
X141046087Y-93658381D01*
X141069066Y-93694798D01*
X141094154Y-93729841D01*
X141121348Y-93763509D01*
X141150650Y-93795804D01*
X141182060Y-93826726D01*
X141215578Y-93856276D01*
X141251204Y-93884455D01*
X141288938Y-93911262D01*
X141328781Y-93936699D01*
X141370732Y-93960767D01*
X141414791Y-93983465D01*
X141460959Y-94004795D01*
X141509236Y-94024757D01*
X141559622Y-94043352D01*
X141612117Y-94060580D01*
X141666721Y-94076442D01*
X141723852Y-94091147D01*
X141783931Y-94104904D01*
X141846958Y-94117712D01*
X141912934Y-94129571D01*
X142053735Y-94150444D01*
X142206338Y-94167522D01*
X142370747Y-94180805D01*
X142546968Y-94190292D01*
X142735004Y-94195985D01*
X142934860Y-94197883D01*
X143131554Y-94195985D01*
X143316855Y-94190292D01*
X143490765Y-94180805D01*
X143653287Y-94167522D01*
X143804425Y-94150444D01*
X143944181Y-94129571D01*
X144072560Y-94104904D01*
X144189564Y-94076442D01*
X144244173Y-94060580D01*
X144296683Y-94043352D01*
X144347094Y-94024757D01*
X144395404Y-94004795D01*
X144441611Y-93983465D01*
X144485713Y-93960767D01*
X144527711Y-93936699D01*
X144567602Y-93911262D01*
X144605384Y-93884455D01*
X144641057Y-93856276D01*
X144674619Y-93826726D01*
X144706069Y-93795804D01*
X144735405Y-93763509D01*
X144762625Y-93729841D01*
X144787729Y-93694798D01*
X144810715Y-93658381D01*
X144830320Y-93620430D01*
X144848657Y-93580789D01*
X144865726Y-93539457D01*
X144881527Y-93496436D01*
X144896062Y-93451726D01*
X144909330Y-93405328D01*
X144921332Y-93357242D01*
X144932068Y-93307469D01*
X144941539Y-93256009D01*
X144949746Y-93202863D01*
X144956689Y-93148032D01*
X144962369Y-93091515D01*
X144966785Y-93033315D01*
X144969939Y-92973430D01*
X144971831Y-92911863D01*
X144972462Y-92848613D01*
X144971831Y-92785363D01*
X144969939Y-92723795D01*
X144966785Y-92663911D01*
X144962369Y-92605710D01*
X144956689Y-92549194D01*
X144949746Y-92494362D01*
X144941539Y-92441216D01*
X144932068Y-92389756D01*
X144921332Y-92339983D01*
X144909330Y-92291896D01*
X144896062Y-92245498D01*
X144881527Y-92200787D01*
X144865726Y-92157766D01*
X144848657Y-92116434D01*
X144830320Y-92076792D01*
X144810715Y-92038840D01*
X144787729Y-92002422D01*
X144762625Y-91967380D01*
X144735405Y-91933711D01*
X144706069Y-91901416D01*
X144674619Y-91870494D01*
X144641057Y-91840944D01*
X144605384Y-91812766D01*
X144567602Y-91785959D01*
X144527711Y-91760522D01*
X144485713Y-91736455D01*
X144441611Y-91713757D01*
X144395404Y-91692427D01*
X144347094Y-91672466D01*
X144296683Y-91653871D01*
X144244173Y-91636642D01*
X144189564Y-91620780D01*
X144132484Y-91606074D01*
X144072560Y-91592318D01*
X144009793Y-91579509D01*
X143944181Y-91567650D01*
X143804425Y-91546777D01*
X143653287Y-91529700D01*
X143490765Y-91516417D01*
X143316855Y-91506929D01*
X143131554Y-91501236D01*
X142934860Y-91499339D01*
X142735004Y-91501236D01*
X142546968Y-91506929D01*
X142370747Y-91516417D01*
X142206338Y-91529700D01*
X142053735Y-91546777D01*
X141912934Y-91567650D01*
X141783931Y-91592318D01*
X141666721Y-91620780D01*
X141612117Y-91636642D01*
X141559622Y-91653871D01*
X141509236Y-91672466D01*
X141460959Y-91692427D01*
X141414791Y-91713757D01*
X141370732Y-91736455D01*
X141328781Y-91760522D01*
X141288938Y-91785959D01*
X141251204Y-91812766D01*
X141215578Y-91840944D01*
X141182060Y-91870494D01*
X141150650Y-91901416D01*
X141121348Y-91933711D01*
X141094154Y-91967380D01*
X141069066Y-92002422D01*
X141046087Y-92038840D01*
X141024844Y-92076792D01*
X141004964Y-92116434D01*
X140986450Y-92157766D01*
X140969302Y-92200787D01*
X140953521Y-92245498D01*
X140939108Y-92291896D01*
X140926063Y-92339983D01*
X140914387Y-92389756D01*
X140904082Y-92441216D01*
X140895148Y-92494362D01*
X140887585Y-92549194D01*
X140881396Y-92605710D01*
X140876581Y-92663911D01*
X140873140Y-92723795D01*
X140871075Y-92785363D01*
X140870387Y-92848613D01*
X139413112Y-92848613D01*
X139418596Y-92545664D01*
X139435048Y-92257489D01*
X139447386Y-92118941D01*
X139462465Y-91984084D01*
X139480286Y-91852918D01*
X139500848Y-91725442D01*
X139524150Y-91601655D01*
X139550193Y-91481558D01*
X139578977Y-91365148D01*
X139610500Y-91252426D01*
X139644764Y-91143390D01*
X139681768Y-91038041D01*
X139721511Y-90936376D01*
X139763994Y-90838397D01*
X139807845Y-90745580D01*
X139855069Y-90656031D01*
X139905666Y-90569749D01*
X139959636Y-90486734D01*
X140016979Y-90406986D01*
X140077695Y-90330506D01*
X140141783Y-90257294D01*
X140209246Y-90187350D01*
X140280081Y-90120673D01*
X140354290Y-90057264D01*
X140431872Y-89997123D01*
X140512827Y-89940250D01*
X140597157Y-89886645D01*
X140684860Y-89836309D01*
X140775936Y-89789240D01*
X140870387Y-89745440D01*
X140968579Y-89704592D01*
X141070884Y-89666376D01*
X141177301Y-89630793D01*
X141287831Y-89597843D01*
X141402472Y-89567528D01*
X141521225Y-89539846D01*
X141644090Y-89514800D01*
X141771066Y-89492388D01*
X141902153Y-89472612D01*
X142037351Y-89455471D01*
X142176660Y-89440966D01*
X142320079Y-89429098D01*
X142467609Y-89419866D01*
X142619249Y-89413272D01*
X142774999Y-89409315D01*
X142934860Y-89407996D01*
X143244149Y-89413272D01*
X143537850Y-89429098D01*
X143815957Y-89455471D01*
X143949163Y-89472612D01*
X144078468Y-89492388D01*
X144203873Y-89514800D01*
X144325378Y-89539846D01*
X144442981Y-89567528D01*
X144556683Y-89597843D01*
X144666482Y-89630793D01*
X144772378Y-89666376D01*
X144874372Y-89704592D01*
X144972462Y-89745440D01*
X145066911Y-89789240D01*
X145157987Y-89836309D01*
X145245689Y-89886645D01*
X145330018Y-89940250D01*
X145410974Y-89997123D01*
X145488556Y-90057264D01*
X145562765Y-90120673D01*
X145633600Y-90187350D01*
X145701063Y-90257294D01*
X145765152Y-90330506D01*
X145825868Y-90406986D01*
X145883211Y-90486734D01*
X145937181Y-90569749D01*
X145987778Y-90656031D01*
X146035002Y-90745580D01*
X146078854Y-90838397D01*
X146119704Y-90936376D01*
X146157921Y-91038041D01*
X146193504Y-91143390D01*
X146226454Y-91252426D01*
X146256770Y-91365148D01*
X146284451Y-91481558D01*
X146309498Y-91601655D01*
X146331910Y-91725442D01*
X146351686Y-91852918D01*
X146368827Y-91984084D01*
X146383332Y-92118941D01*
X146395200Y-92257489D01*
X146404431Y-92399730D01*
X146411025Y-92545664D01*
X146414982Y-92695291D01*
X146416301Y-92848613D01*
X146411025Y-93154534D01*
X146395200Y-93444875D01*
G37*
G36*
X146395201Y-112685559D02*
G01*
X146368828Y-112960312D01*
X146351687Y-113091841D01*
X146331911Y-113219470D01*
X146309499Y-113343200D01*
X146284452Y-113463028D01*
X146256771Y-113578954D01*
X146226455Y-113690978D01*
X146193505Y-113799098D01*
X146157922Y-113903313D01*
X146119705Y-114003624D01*
X146078855Y-114100028D01*
X146035003Y-114192792D01*
X145987779Y-114282186D01*
X145937182Y-114368207D01*
X145883212Y-114450857D01*
X145825869Y-114530134D01*
X145765153Y-114606039D01*
X145701063Y-114678571D01*
X145633601Y-114747730D01*
X145562766Y-114813516D01*
X145488557Y-114875928D01*
X145410975Y-114934967D01*
X145330019Y-114990632D01*
X145245690Y-115042922D01*
X145157988Y-115091838D01*
X145066912Y-115137379D01*
X144972462Y-115179545D01*
X144874373Y-115220389D01*
X144772380Y-115258589D01*
X144666483Y-115294147D01*
X144556684Y-115327064D01*
X144442982Y-115357341D01*
X144325379Y-115384979D01*
X144203875Y-115409979D01*
X144078469Y-115432343D01*
X143949164Y-115452072D01*
X143815959Y-115469166D01*
X143678854Y-115483628D01*
X143537851Y-115495457D01*
X143392950Y-115504656D01*
X143244151Y-115511224D01*
X143091454Y-115515165D01*
X142934861Y-115516478D01*
X142619251Y-115511224D01*
X142320081Y-115495457D01*
X142037352Y-115469166D01*
X141902154Y-115452072D01*
X141771067Y-115432343D01*
X141644091Y-115409979D01*
X141521226Y-115384979D01*
X141402473Y-115357341D01*
X141287832Y-115327064D01*
X141177303Y-115294147D01*
X141070885Y-115258589D01*
X140968580Y-115220389D01*
X140870388Y-115179545D01*
X140775937Y-115137379D01*
X140684861Y-115091838D01*
X140597158Y-115042922D01*
X140512828Y-114990632D01*
X140431873Y-114934967D01*
X140354291Y-114875928D01*
X140280082Y-114813516D01*
X140209246Y-114747730D01*
X140141784Y-114678571D01*
X140077696Y-114606039D01*
X140016980Y-114530134D01*
X139959637Y-114450857D01*
X139905667Y-114368207D01*
X139855070Y-114282186D01*
X139807846Y-114192792D01*
X139763995Y-114100028D01*
X139721512Y-114003624D01*
X139681769Y-113903313D01*
X139644765Y-113799098D01*
X139610501Y-113690978D01*
X139578978Y-113578954D01*
X139550194Y-113463028D01*
X139524151Y-113343200D01*
X139500849Y-113219470D01*
X139480287Y-113091841D01*
X139462466Y-112960312D01*
X139447387Y-112824884D01*
X139435048Y-112685559D01*
X139425452Y-112542337D01*
X139418597Y-112395219D01*
X139414484Y-112244205D01*
X139413112Y-112089297D01*
X140870388Y-112089297D01*
X140871076Y-112152547D01*
X140873141Y-112214115D01*
X140876582Y-112273999D01*
X140881397Y-112332200D01*
X140887586Y-112388716D01*
X140895148Y-112443547D01*
X140904083Y-112496693D01*
X140914388Y-112548153D01*
X140926064Y-112597926D01*
X140939109Y-112646013D01*
X140953522Y-112692411D01*
X140969303Y-112737121D01*
X140986451Y-112780142D01*
X141004965Y-112821474D01*
X141024844Y-112861115D01*
X141046088Y-112899066D01*
X141069067Y-112935484D01*
X141094154Y-112970526D01*
X141121349Y-113004195D01*
X141150651Y-113036490D01*
X141182061Y-113067413D01*
X141215579Y-113096963D01*
X141251205Y-113125141D01*
X141288939Y-113151949D01*
X141328782Y-113177386D01*
X141370732Y-113201453D01*
X141414792Y-113224152D01*
X141460960Y-113245482D01*
X141509237Y-113265444D01*
X141559623Y-113284039D01*
X141612117Y-113301267D01*
X141666722Y-113317130D01*
X141723853Y-113331835D01*
X141783932Y-113345591D01*
X141846959Y-113358399D01*
X141912935Y-113370258D01*
X142053736Y-113391130D01*
X142206339Y-113408207D01*
X142370748Y-113421489D01*
X142546969Y-113430977D01*
X142735005Y-113436669D01*
X142934861Y-113438567D01*
X143131555Y-113436669D01*
X143316856Y-113430977D01*
X143490766Y-113421489D01*
X143653288Y-113408207D01*
X143804426Y-113391130D01*
X143944182Y-113370258D01*
X144072561Y-113345591D01*
X144189565Y-113317130D01*
X144244174Y-113301267D01*
X144296684Y-113284039D01*
X144347095Y-113265444D01*
X144395404Y-113245482D01*
X144441611Y-113224152D01*
X144485714Y-113201453D01*
X144527712Y-113177386D01*
X144567603Y-113151949D01*
X144605385Y-113125141D01*
X144641058Y-113096963D01*
X144674620Y-113067413D01*
X144706070Y-113036490D01*
X144735405Y-113004195D01*
X144762626Y-112970526D01*
X144787730Y-112935484D01*
X144810716Y-112899066D01*
X144830321Y-112861115D01*
X144848658Y-112821474D01*
X144865727Y-112780142D01*
X144881528Y-112737121D01*
X144896063Y-112692411D01*
X144909331Y-112646013D01*
X144921332Y-112597926D01*
X144932069Y-112548153D01*
X144941540Y-112496693D01*
X144949747Y-112443547D01*
X144956690Y-112388716D01*
X144962370Y-112332200D01*
X144966786Y-112273999D01*
X144969940Y-112214115D01*
X144971832Y-112152547D01*
X144972462Y-112089297D01*
X144971832Y-112026053D01*
X144969940Y-111964502D01*
X144966786Y-111904643D01*
X144962369Y-111846475D01*
X144956690Y-111789998D01*
X144949747Y-111735210D01*
X144941540Y-111682110D01*
X144932069Y-111630698D01*
X144921332Y-111580973D01*
X144909330Y-111532934D01*
X144896063Y-111486579D01*
X144881528Y-111441908D01*
X144865727Y-111398920D01*
X144848658Y-111357614D01*
X144830321Y-111317988D01*
X144810715Y-111280043D01*
X144787729Y-111243620D01*
X144762625Y-111208561D01*
X144735405Y-111174867D01*
X144706069Y-111142538D01*
X144674620Y-111111577D01*
X144641058Y-111081983D01*
X144605385Y-111053758D01*
X144567602Y-111026903D01*
X144527712Y-111001418D01*
X144485714Y-110977304D01*
X144441611Y-110954562D01*
X144395404Y-110933193D01*
X144347094Y-110913198D01*
X144296684Y-110894578D01*
X144244173Y-110877333D01*
X144189565Y-110861464D01*
X144132484Y-110846759D01*
X144072561Y-110833002D01*
X144009793Y-110820194D01*
X143944182Y-110808334D01*
X143804425Y-110787462D01*
X143653287Y-110770384D01*
X143490765Y-110757101D01*
X143316855Y-110747614D01*
X143131555Y-110741921D01*
X142934861Y-110740023D01*
X142735005Y-110741921D01*
X142546969Y-110747614D01*
X142370748Y-110757101D01*
X142206338Y-110770384D01*
X142053735Y-110787462D01*
X141912935Y-110808334D01*
X141783931Y-110833002D01*
X141666721Y-110861464D01*
X141612117Y-110877333D01*
X141559622Y-110894578D01*
X141509236Y-110913198D01*
X141460959Y-110933193D01*
X141414791Y-110954562D01*
X141370732Y-110977304D01*
X141328781Y-111001418D01*
X141288939Y-111026903D01*
X141251205Y-111053758D01*
X141215579Y-111081983D01*
X141182061Y-111111577D01*
X141150651Y-111142538D01*
X141121349Y-111174867D01*
X141094154Y-111208561D01*
X141069067Y-111243620D01*
X141046087Y-111280043D01*
X141024844Y-111317988D01*
X141004965Y-111357614D01*
X140986451Y-111398920D01*
X140969303Y-111441908D01*
X140953522Y-111486579D01*
X140939108Y-111532934D01*
X140926063Y-111580973D01*
X140914388Y-111630698D01*
X140904082Y-111682110D01*
X140895148Y-111735210D01*
X140887586Y-111789998D01*
X140881397Y-111846475D01*
X140876582Y-111904643D01*
X140873141Y-111964502D01*
X140871076Y-112026053D01*
X140870388Y-112089297D01*
X139413112Y-112089297D01*
X139418597Y-111786348D01*
X139435048Y-111498174D01*
X139447387Y-111359625D01*
X139462466Y-111224769D01*
X139480287Y-111093603D01*
X139500849Y-110966127D01*
X139524151Y-110842340D01*
X139550194Y-110722243D01*
X139578978Y-110605834D01*
X139610501Y-110493112D01*
X139644765Y-110384077D01*
X139681769Y-110278728D01*
X139721512Y-110177064D01*
X139763995Y-110079085D01*
X139807846Y-109986268D01*
X139855070Y-109896718D01*
X139905667Y-109810435D01*
X139959637Y-109727420D01*
X140016980Y-109647672D01*
X140077696Y-109571192D01*
X140141784Y-109497980D01*
X140209246Y-109428035D01*
X140280082Y-109361358D01*
X140354291Y-109297950D01*
X140431873Y-109237809D01*
X140512828Y-109180936D01*
X140597158Y-109127332D01*
X140684861Y-109076996D01*
X140775937Y-109029928D01*
X140870388Y-108986129D01*
X140968580Y-108945279D01*
X141070885Y-108907063D01*
X141177302Y-108871479D01*
X141287832Y-108838529D01*
X141402473Y-108808214D01*
X141521226Y-108780532D01*
X141644091Y-108755485D01*
X141771066Y-108733073D01*
X141902154Y-108713297D01*
X142037352Y-108696156D01*
X142176661Y-108681651D01*
X142320080Y-108669782D01*
X142467610Y-108660551D01*
X142619250Y-108653956D01*
X142775000Y-108650000D01*
X142934861Y-108648680D01*
X143244150Y-108653956D01*
X143537851Y-108669782D01*
X143815958Y-108696156D01*
X143949163Y-108713297D01*
X144078469Y-108733073D01*
X144203874Y-108755485D01*
X144325379Y-108780532D01*
X144442982Y-108808214D01*
X144556683Y-108838529D01*
X144666483Y-108871479D01*
X144772379Y-108907063D01*
X144874373Y-108945279D01*
X144972462Y-108986129D01*
X145066912Y-109029928D01*
X145157988Y-109076996D01*
X145245690Y-109127332D01*
X145330019Y-109180936D01*
X145410974Y-109237809D01*
X145488557Y-109297950D01*
X145562765Y-109361358D01*
X145633601Y-109428035D01*
X145701063Y-109497980D01*
X145765153Y-109571192D01*
X145825869Y-109647672D01*
X145883212Y-109727420D01*
X145937182Y-109810435D01*
X145987779Y-109896718D01*
X146035003Y-109986268D01*
X146078855Y-110079085D01*
X146119705Y-110177064D01*
X146157922Y-110278728D01*
X146193505Y-110384077D01*
X146226455Y-110493112D01*
X146256771Y-110605834D01*
X146284452Y-110722243D01*
X146309499Y-110842340D01*
X146331911Y-110966127D01*
X146351687Y-111093603D01*
X146368828Y-111224769D01*
X146383332Y-111359625D01*
X146395201Y-111498174D01*
X146404432Y-111640415D01*
X146411026Y-111786348D01*
X146414983Y-111935975D01*
X146416302Y-112089297D01*
X146411026Y-112395219D01*
X146395201Y-112685559D01*
G37*
G36*
X137975618Y-75465381D02*
G01*
X138010602Y-75468215D01*
X138044401Y-75472184D01*
X138077013Y-75477286D01*
X138108440Y-75483522D01*
X138138681Y-75490892D01*
X138167736Y-75499395D01*
X138195605Y-75509032D01*
X138222289Y-75519803D01*
X138247786Y-75531707D01*
X138272098Y-75544744D01*
X138295224Y-75558915D01*
X138317164Y-75574219D01*
X138337918Y-75590656D01*
X138357486Y-75608227D01*
X138375868Y-75626931D01*
X138393064Y-75646768D01*
X138409075Y-75667738D01*
X138423899Y-75689841D01*
X138437538Y-75713077D01*
X138449991Y-75737446D01*
X138461257Y-75762948D01*
X138471338Y-75789583D01*
X138480233Y-75817350D01*
X138487942Y-75846251D01*
X138494465Y-75876284D01*
X138499802Y-75907450D01*
X138503953Y-75939748D01*
X138506918Y-75973179D01*
X138508697Y-76007743D01*
X138509290Y-76043439D01*
X138509290Y-76920388D01*
X138508697Y-76956084D01*
X138506918Y-76990647D01*
X138503953Y-77024078D01*
X138499802Y-77056376D01*
X138494465Y-77087542D01*
X138487942Y-77117575D01*
X138480233Y-77146476D01*
X138471338Y-77174243D01*
X138461257Y-77200878D01*
X138449991Y-77226380D01*
X138437538Y-77250749D01*
X138423899Y-77273985D01*
X138409075Y-77296088D01*
X138393064Y-77317058D01*
X138375868Y-77336895D01*
X138357486Y-77355599D01*
X138337918Y-77373170D01*
X138317164Y-77389607D01*
X138295224Y-77404911D01*
X138272098Y-77419082D01*
X138247786Y-77432120D01*
X138222289Y-77444024D01*
X138195605Y-77454794D01*
X138167736Y-77464431D01*
X138138681Y-77472935D01*
X138108440Y-77480304D01*
X138077013Y-77486541D01*
X138044401Y-77491643D01*
X138010602Y-77495611D01*
X137975618Y-77498446D01*
X137939448Y-77500147D01*
X137902092Y-77500714D01*
X137173454Y-77500714D01*
X137101561Y-77498446D01*
X137067354Y-77495611D01*
X137034305Y-77491643D01*
X137002416Y-77486541D01*
X136971686Y-77480304D01*
X136942115Y-77472935D01*
X136913704Y-77464431D01*
X136886452Y-77454794D01*
X136860359Y-77444024D01*
X136835425Y-77432120D01*
X136811652Y-77419082D01*
X136789037Y-77404911D01*
X136767582Y-77389607D01*
X136747287Y-77373170D01*
X136728151Y-77355599D01*
X136710174Y-77336895D01*
X136693357Y-77317058D01*
X136677700Y-77296088D01*
X136663202Y-77273985D01*
X136649864Y-77250749D01*
X136637686Y-77226380D01*
X136626668Y-77200878D01*
X136616809Y-77174243D01*
X136608110Y-77146476D01*
X136600570Y-77117575D01*
X136594191Y-77087542D01*
X136588971Y-77056376D01*
X136584911Y-77024078D01*
X136582012Y-76990647D01*
X136580272Y-76956084D01*
X136579692Y-76920388D01*
X136579692Y-76043439D01*
X136580272Y-76007743D01*
X136582012Y-75973179D01*
X136584911Y-75939748D01*
X136588971Y-75907450D01*
X136594191Y-75876284D01*
X136600570Y-75846251D01*
X136608110Y-75817350D01*
X136616809Y-75789583D01*
X136626668Y-75762948D01*
X136637686Y-75737446D01*
X136649864Y-75713077D01*
X136663202Y-75689841D01*
X136677700Y-75667738D01*
X136693357Y-75646768D01*
X136710174Y-75626931D01*
X136728151Y-75608227D01*
X136747287Y-75590656D01*
X136767582Y-75574219D01*
X136789037Y-75558915D01*
X136811652Y-75544744D01*
X136835425Y-75531707D01*
X136860359Y-75519803D01*
X136886452Y-75509032D01*
X136913704Y-75499395D01*
X136942115Y-75490892D01*
X136971686Y-75483522D01*
X137002416Y-75477286D01*
X137034305Y-75472184D01*
X137067354Y-75468215D01*
X137101561Y-75465381D01*
X137136928Y-75463680D01*
X137173454Y-75463113D01*
X137902092Y-75463113D01*
X137975618Y-75465381D01*
G37*
G36*
X146254036Y-69627293D02*
G01*
X141689457Y-69627293D01*
X141562117Y-69887383D01*
X141503805Y-70011288D01*
X141449388Y-70130735D01*
X141399109Y-70245453D01*
X141353211Y-70355169D01*
X141311937Y-70459610D01*
X141275529Y-70558503D01*
X141254285Y-70615741D01*
X141234405Y-70672765D01*
X141215890Y-70729575D01*
X141198742Y-70786173D01*
X141182960Y-70842558D01*
X141168547Y-70898731D01*
X141155502Y-70954692D01*
X141143826Y-71010442D01*
X141133521Y-71065982D01*
X141124588Y-71121310D01*
X141117026Y-71176429D01*
X141110837Y-71231338D01*
X141106022Y-71286038D01*
X141102582Y-71340529D01*
X141100518Y-71394812D01*
X141099829Y-71448888D01*
X141100518Y-71496906D01*
X141102582Y-71543138D01*
X141106022Y-71587581D01*
X141110837Y-71630237D01*
X141117026Y-71671103D01*
X141124588Y-71710179D01*
X141133521Y-71747465D01*
X141143826Y-71782959D01*
X141155502Y-71816662D01*
X141168547Y-71848571D01*
X141182960Y-71878688D01*
X141198742Y-71907009D01*
X141215890Y-71933537D01*
X141234405Y-71958268D01*
X141254285Y-71981203D01*
X141275529Y-72002341D01*
X141296876Y-72021946D01*
X141320437Y-72040283D01*
X141346212Y-72057352D01*
X141374201Y-72073153D01*
X141404403Y-72087687D01*
X141436819Y-72100955D01*
X141471449Y-72112957D01*
X141508293Y-72123694D01*
X141547350Y-72133165D01*
X141588621Y-72141372D01*
X141632105Y-72148315D01*
X141677803Y-72153995D01*
X141725714Y-72158411D01*
X141775838Y-72161565D01*
X141828176Y-72163457D01*
X141882727Y-72164088D01*
X146254036Y-72164088D01*
X146254036Y-74160867D01*
X141262093Y-74160867D01*
X141148364Y-74159022D01*
X141038243Y-74153490D01*
X140931729Y-74144270D01*
X140828824Y-74131361D01*
X140729528Y-74114763D01*
X140633840Y-74094477D01*
X140541761Y-74070503D01*
X140453290Y-74042840D01*
X140368429Y-74011488D01*
X140287177Y-73976447D01*
X140209535Y-73937717D01*
X140135502Y-73895298D01*
X140065079Y-73849190D01*
X139998265Y-73799393D01*
X139935062Y-73745906D01*
X139875469Y-73688731D01*
X139819487Y-73627865D01*
X139767115Y-73563310D01*
X139718353Y-73495066D01*
X139673203Y-73423132D01*
X139631664Y-73347508D01*
X139593736Y-73268194D01*
X139559419Y-73185190D01*
X139528714Y-73098496D01*
X139501621Y-73008112D01*
X139478140Y-72914038D01*
X139458270Y-72816273D01*
X139442013Y-72714819D01*
X139429369Y-72609673D01*
X139420336Y-72500837D01*
X139414917Y-72388311D01*
X139413111Y-72272094D01*
X139414378Y-72180912D01*
X139418178Y-72089521D01*
X139424512Y-71997920D01*
X139433378Y-71906110D01*
X139444777Y-71814090D01*
X139458706Y-71721859D01*
X139475167Y-71629418D01*
X139494159Y-71536767D01*
X139515680Y-71443904D01*
X139539731Y-71350831D01*
X139566310Y-71257546D01*
X139595418Y-71164050D01*
X139627053Y-71070342D01*
X139661216Y-70976422D01*
X139697906Y-70882290D01*
X139737121Y-70787946D01*
X139776320Y-70700551D01*
X139817553Y-70613349D01*
X139860811Y-70526338D01*
X139906086Y-70439518D01*
X140002646Y-70266447D01*
X140107157Y-70094132D01*
X140219545Y-69922566D01*
X140339735Y-69751746D01*
X140467651Y-69581666D01*
X140603219Y-69412320D01*
X139588811Y-69236102D01*
X139588811Y-67630516D01*
X146254036Y-67630516D01*
X146254036Y-69627293D01*
G37*
G36*
X146337121Y-84835313D02*
G01*
X146320503Y-84901826D01*
X146302306Y-84967286D01*
X146282529Y-85031691D01*
X146261174Y-85095043D01*
X146238240Y-85157341D01*
X146213729Y-85218585D01*
X146161866Y-85338125D01*
X146107471Y-85453872D01*
X146050546Y-85565825D01*
X145991090Y-85673984D01*
X145929104Y-85778348D01*
X145864589Y-85878916D01*
X145797544Y-85975688D01*
X145727971Y-86068663D01*
X145660466Y-86149557D01*
X145592964Y-86226615D01*
X145525463Y-86299953D01*
X145457963Y-86369686D01*
X145390463Y-86435931D01*
X145322962Y-86498801D01*
X145255459Y-86558413D01*
X145187952Y-86614882D01*
X146254037Y-86824172D01*
X146254037Y-88416323D01*
X141855339Y-88416323D01*
X141740543Y-88415109D01*
X141628910Y-88411464D01*
X141520438Y-88405391D01*
X141415127Y-88396890D01*
X141312979Y-88385962D01*
X141213993Y-88372607D01*
X141118168Y-88356826D01*
X141025507Y-88338620D01*
X140936007Y-88317990D01*
X140849670Y-88294936D01*
X140766495Y-88269458D01*
X140686483Y-88241559D01*
X140609634Y-88211237D01*
X140535948Y-88178495D01*
X140465425Y-88143332D01*
X140398064Y-88105750D01*
X140331867Y-88067538D01*
X140268201Y-88027115D01*
X140207066Y-87984479D01*
X140148463Y-87939632D01*
X140092390Y-87892571D01*
X140038848Y-87843298D01*
X139987836Y-87791812D01*
X139939355Y-87738113D01*
X139893403Y-87682200D01*
X139849981Y-87624072D01*
X139809088Y-87563731D01*
X139770725Y-87501175D01*
X139734890Y-87436404D01*
X139701583Y-87369419D01*
X139670805Y-87300217D01*
X139642555Y-87228801D01*
X139614778Y-87155278D01*
X139588791Y-87079758D01*
X139564596Y-87002242D01*
X139542191Y-86922727D01*
X139521578Y-86841212D01*
X139502757Y-86757698D01*
X139485727Y-86672182D01*
X139470488Y-86584665D01*
X139457042Y-86495145D01*
X139445388Y-86403621D01*
X139435527Y-86310093D01*
X139427458Y-86214559D01*
X139421182Y-86117018D01*
X139416698Y-86017471D01*
X139414008Y-85915915D01*
X139413112Y-85812350D01*
X139413966Y-85685416D01*
X139416527Y-85554239D01*
X139420787Y-85418828D01*
X139426741Y-85279191D01*
X139434382Y-85135338D01*
X139443705Y-84987277D01*
X139467371Y-84678569D01*
X139489295Y-84361516D01*
X139514610Y-84044500D01*
X139543307Y-83727483D01*
X139575374Y-83410430D01*
X139610747Y-83102636D01*
X139649476Y-82813411D01*
X139691590Y-82542738D01*
X139713927Y-82414354D01*
X139737121Y-82290603D01*
X141059522Y-82479220D01*
X141034189Y-82881485D01*
X141012206Y-83278698D01*
X140993598Y-83670852D01*
X140978390Y-84057936D01*
X140960701Y-84426503D01*
X140948111Y-84763073D01*
X140940584Y-85067597D01*
X140938083Y-85340026D01*
X140938927Y-85416029D01*
X140941461Y-85488872D01*
X140945683Y-85558554D01*
X140951594Y-85625075D01*
X140959193Y-85688435D01*
X140968479Y-85748633D01*
X140979453Y-85805669D01*
X140992114Y-85859543D01*
X141006461Y-85910255D01*
X141022495Y-85957804D01*
X141040215Y-86002190D01*
X141059620Y-86043413D01*
X141080710Y-86081473D01*
X141103486Y-86116369D01*
X141127946Y-86148101D01*
X141154090Y-86176669D01*
X141182073Y-86204440D01*
X141212052Y-86230409D01*
X141244029Y-86254579D01*
X141278003Y-86276950D01*
X141313978Y-86297523D01*
X141351952Y-86316301D01*
X141391927Y-86333284D01*
X141433904Y-86348474D01*
X141477884Y-86361872D01*
X141523868Y-86373479D01*
X141571857Y-86383297D01*
X141621851Y-86391327D01*
X141673852Y-86397570D01*
X141727860Y-86402028D01*
X141783877Y-86404702D01*
X141841903Y-86405593D01*
X142152479Y-86405593D01*
X143277474Y-86405593D01*
X144324956Y-86405593D01*
X144358883Y-86358905D01*
X144375711Y-86335446D01*
X144383988Y-86323568D01*
X144392135Y-86311545D01*
X144457715Y-86210131D01*
X144519522Y-86108286D01*
X144577547Y-86006013D01*
X144631785Y-85903314D01*
X144682227Y-85800195D01*
X144728867Y-85696656D01*
X144771699Y-85592703D01*
X144810714Y-85488337D01*
X144845495Y-85387987D01*
X144875631Y-85289331D01*
X144901123Y-85192366D01*
X144921975Y-85097089D01*
X144930661Y-85050084D01*
X144938188Y-85003499D01*
X144944557Y-84957336D01*
X144949766Y-84911594D01*
X144953818Y-84866273D01*
X144956711Y-84821371D01*
X144958447Y-84776890D01*
X144959025Y-84732829D01*
X144958337Y-84681440D01*
X144956272Y-84631842D01*
X144952831Y-84584036D01*
X144948016Y-84538022D01*
X144941827Y-84493800D01*
X144934265Y-84451370D01*
X144925331Y-84410732D01*
X144915025Y-84371886D01*
X144903350Y-84334831D01*
X144890305Y-84299569D01*
X144875891Y-84266099D01*
X144860110Y-84234421D01*
X144842962Y-84204536D01*
X144824448Y-84176442D01*
X144804569Y-84150141D01*
X144783325Y-84125632D01*
X144759135Y-84102755D01*
X144733788Y-84081349D01*
X144707285Y-84061414D01*
X144679624Y-84042952D01*
X144650806Y-84025962D01*
X144620829Y-84010447D01*
X144589694Y-83996405D01*
X144557400Y-83983839D01*
X144523946Y-83972749D01*
X144489332Y-83963135D01*
X144453558Y-83954998D01*
X144416622Y-83948339D01*
X144378525Y-83943158D01*
X144339266Y-83939457D01*
X144298844Y-83937236D01*
X144257260Y-83936496D01*
X143933248Y-83936496D01*
X143896623Y-83937074D01*
X143860955Y-83938810D01*
X143826243Y-83941703D01*
X143792487Y-83945755D01*
X143759685Y-83950964D01*
X143727835Y-83957333D01*
X143696937Y-83964860D01*
X143666988Y-83973546D01*
X143637988Y-83983392D01*
X143609936Y-83994398D01*
X143582829Y-84006564D01*
X143556668Y-84019890D01*
X143531449Y-84034377D01*
X143507173Y-84050026D01*
X143483838Y-84066836D01*
X143461442Y-84084807D01*
X143440198Y-84105841D01*
X143420318Y-84128464D01*
X143401804Y-84152674D01*
X143384655Y-84178470D01*
X143368874Y-84205852D01*
X143354460Y-84234818D01*
X143341415Y-84265368D01*
X143329740Y-84297500D01*
X143319435Y-84331213D01*
X143310501Y-84366506D01*
X143302940Y-84403378D01*
X143296751Y-84441828D01*
X143291936Y-84481855D01*
X143288496Y-84523459D01*
X143286431Y-84566636D01*
X143285743Y-84611388D01*
X143277474Y-86405593D01*
X142152479Y-86405593D01*
X142152479Y-83990756D01*
X142154214Y-83874275D01*
X142159421Y-83760958D01*
X142168102Y-83650805D01*
X142180255Y-83543815D01*
X142195884Y-83439988D01*
X142214988Y-83339325D01*
X142237569Y-83241824D01*
X142263628Y-83147486D01*
X142293165Y-83056311D01*
X142326182Y-82968297D01*
X142362680Y-82883446D01*
X142402659Y-82801756D01*
X142446121Y-82723228D01*
X142493067Y-82647861D01*
X142543497Y-82575655D01*
X142597412Y-82506610D01*
X142654445Y-82441250D01*
X142714228Y-82380100D01*
X142776760Y-82323162D01*
X142842038Y-82270436D01*
X142910063Y-82221923D01*
X142980832Y-82177624D01*
X143054345Y-82137540D01*
X143130600Y-82101671D01*
X143209595Y-82070019D01*
X143291330Y-82042585D01*
X143375804Y-82019368D01*
X143463014Y-82000371D01*
X143552960Y-81985594D01*
X143645640Y-81975038D01*
X143741052Y-81968703D01*
X143839197Y-81966592D01*
X144527010Y-81966592D01*
X144603806Y-81967697D01*
X144679027Y-81971012D01*
X144752670Y-81976538D01*
X144824737Y-81984275D01*
X144895225Y-81994224D01*
X144964135Y-82006386D01*
X145031465Y-82020760D01*
X145097214Y-82037347D01*
X145161382Y-82056148D01*
X145223969Y-82077163D01*
X145284972Y-82100393D01*
X145344393Y-82125838D01*
X145402229Y-82153498D01*
X145458480Y-82183375D01*
X145513145Y-82215468D01*
X145566223Y-82249778D01*
X145617716Y-82285991D01*
X145667627Y-82323794D01*
X145715954Y-82363184D01*
X145762698Y-82404161D01*
X145807860Y-82446723D01*
X145851441Y-82490869D01*
X145893439Y-82536599D01*
X145933856Y-82583911D01*
X145972691Y-82632804D01*
X146009946Y-82683278D01*
X146045621Y-82735330D01*
X146079714Y-82788960D01*
X146112229Y-82844168D01*
X146143163Y-82900951D01*
X146172518Y-82959309D01*
X146200293Y-83019240D01*
X146226438Y-83080433D01*
X146250898Y-83142575D01*
X146273673Y-83205666D01*
X146294764Y-83269707D01*
X146314169Y-83334697D01*
X146331888Y-83400635D01*
X146347922Y-83467523D01*
X146362270Y-83535359D01*
X146374930Y-83604144D01*
X146385904Y-83673878D01*
X146395191Y-83744560D01*
X146402789Y-83816191D01*
X146408700Y-83888771D01*
X146412923Y-83962298D01*
X146415456Y-84036774D01*
X146416301Y-84112199D01*
X146415508Y-84189255D01*
X146413131Y-84265257D01*
X146409169Y-84340204D01*
X146403624Y-84414097D01*
X146396495Y-84486935D01*
X146387784Y-84558719D01*
X146377490Y-84629449D01*
X146365615Y-84699125D01*
X146359006Y-84732829D01*
X146352158Y-84767746D01*
X146337121Y-84835313D01*
G37*
G36*
X138043313Y-78899331D02*
G01*
X138078298Y-78902231D01*
X138112096Y-78906291D01*
X138144709Y-78911511D01*
X138176136Y-78917890D01*
X138206377Y-78925430D01*
X138235432Y-78934129D01*
X138263301Y-78943987D01*
X138289984Y-78955006D01*
X138315482Y-78967184D01*
X138339794Y-78980522D01*
X138362920Y-78995020D01*
X138384860Y-79010677D01*
X138405614Y-79027494D01*
X138425182Y-79045470D01*
X138443564Y-79064606D01*
X138460761Y-79084902D01*
X138476771Y-79106357D01*
X138491596Y-79128971D01*
X138505234Y-79152745D01*
X138517687Y-79177678D01*
X138528954Y-79203771D01*
X138539034Y-79231023D01*
X138547929Y-79259434D01*
X138555638Y-79289005D01*
X138562161Y-79319735D01*
X138567498Y-79351624D01*
X138571649Y-79384673D01*
X138574614Y-79418880D01*
X138576393Y-79454247D01*
X138576986Y-79490773D01*
X138576986Y-80354287D01*
X138576393Y-80390813D01*
X138574614Y-80426179D01*
X138571649Y-80460387D01*
X138567498Y-80493435D01*
X138562161Y-80525324D01*
X138555638Y-80556054D01*
X138547929Y-80585625D01*
X138539034Y-80614036D01*
X138528954Y-80641288D01*
X138517687Y-80667381D01*
X138505234Y-80692314D01*
X138491596Y-80716088D01*
X138476771Y-80738702D01*
X138460761Y-80760157D01*
X138443564Y-80780453D01*
X138425182Y-80799589D01*
X138405614Y-80817565D01*
X138384860Y-80834382D01*
X138362920Y-80850040D01*
X138339794Y-80864537D01*
X138315482Y-80877875D01*
X138289984Y-80890054D01*
X138263301Y-80901072D01*
X138235432Y-80910931D01*
X138206377Y-80919630D01*
X138176136Y-80927170D01*
X138144709Y-80933549D01*
X138112096Y-80938769D01*
X138078298Y-80942829D01*
X138043313Y-80945728D01*
X138007143Y-80947468D01*
X137969787Y-80948048D01*
X137254586Y-80948048D01*
X137181060Y-80945728D01*
X137146076Y-80942829D01*
X137112277Y-80938769D01*
X137079665Y-80933549D01*
X137048238Y-80927170D01*
X137017997Y-80919630D01*
X136988942Y-80910931D01*
X136961073Y-80901072D01*
X136934389Y-80890054D01*
X136908892Y-80877875D01*
X136884580Y-80864537D01*
X136861454Y-80850040D01*
X136839514Y-80834382D01*
X136818760Y-80817565D01*
X136799192Y-80799589D01*
X136780810Y-80780453D01*
X136763613Y-80760157D01*
X136747603Y-80738702D01*
X136732778Y-80716088D01*
X136719140Y-80692314D01*
X136706687Y-80667381D01*
X136695421Y-80641288D01*
X136685340Y-80614036D01*
X136676445Y-80585625D01*
X136668736Y-80556054D01*
X136662213Y-80525324D01*
X136656876Y-80493435D01*
X136652725Y-80460387D01*
X136649760Y-80426179D01*
X136647981Y-80390813D01*
X136647388Y-80354287D01*
X136647388Y-79490773D01*
X136647981Y-79454247D01*
X136649760Y-79418880D01*
X136652725Y-79384673D01*
X136656876Y-79351624D01*
X136662213Y-79319735D01*
X136668736Y-79289005D01*
X136676445Y-79259434D01*
X136685340Y-79231023D01*
X136695421Y-79203771D01*
X136706687Y-79177678D01*
X136719140Y-79152745D01*
X136732778Y-79128971D01*
X136747603Y-79106357D01*
X136763613Y-79084902D01*
X136780810Y-79064606D01*
X136799192Y-79045470D01*
X136818760Y-79027494D01*
X136839514Y-79010677D01*
X136861454Y-78995020D01*
X136884580Y-78980522D01*
X136908892Y-78967184D01*
X136934389Y-78955006D01*
X136961073Y-78943987D01*
X136988942Y-78934129D01*
X137017997Y-78925430D01*
X137048238Y-78917890D01*
X137079665Y-78911511D01*
X137112277Y-78906291D01*
X137146076Y-78902231D01*
X137181060Y-78899331D01*
X137217230Y-78897592D01*
X137254586Y-78897012D01*
X137969787Y-78897012D01*
X138043313Y-78899331D01*
G37*
D11*
%TO.P,REF\u002A\u002A,*%
%TO.N,*%
X139649067Y-162545933D03*
X139649067Y-40045933D03*
%TD*%
D12*
%TO.P,REF\u002A\u002A,*%
%TO.N,*%
X137149067Y-126595933D03*
%TD*%
D13*
%TO.P,REF\u002A\u002A,*%
%TO.N,*%
X142149067Y-61095933D03*
%TD*%
%TO.P,REF\u002A\u002A,*%
%TO.N,*%
X142149067Y-101095933D03*
%TD*%
D12*
%TO.P,REF\u002A\u002A,*%
%TO.N,*%
X147149067Y-146695933D03*
%TD*%
%TO.P,REF\u002A\u002A,*%
%TO.N,*%
X137149067Y-146695933D03*
%TD*%
D13*
%TO.P,REF\u002A\u002A,*%
%TO.N,*%
X142099067Y-81095933D03*
%TD*%
D14*
%TO.N,*%
X137125000Y-135400000D03*
%TD*%
M02*
