%TF.GenerationSoftware,KiCad,Pcbnew,6.0.11+dfsg-1~bpo11+1*%
%TF.CreationDate,2023-04-14T10:24:38+08:00*%
%TF.ProjectId,MiniVerb - Front,4d696e69-5665-4726-9220-2d2046726f6e,rev?*%
%TF.SameCoordinates,Original*%
%TF.FileFunction,Drillmap*%
%TF.FilePolarity,Positive*%
%FSLAX45Y45*%
G04 Gerber Fmt 4.5, Leading zero omitted, Abs format (unit mm)*
G04 Created by KiCad (PCBNEW 6.0.11+dfsg-1~bpo11+1) date 2023-04-14 10:24:38*
%MOMM*%
%LPD*%
G01*
G04 APERTURE LIST*
%ADD10C,0.100000*%
%ADD11C,0.200000*%
G04 APERTURE END LIST*
D10*
X15215907Y-3705593D02*
X13215907Y-3705593D01*
X15220907Y-16555593D02*
X15215907Y-3705593D01*
X13215907Y-3705593D02*
X13225907Y-16555593D01*
X13225907Y-16555593D02*
X15220907Y-16555593D01*
D11*
X13468526Y-16871069D02*
X13468526Y-16671069D01*
X13516145Y-16671069D01*
X13544716Y-16680593D01*
X13563764Y-16699641D01*
X13573288Y-16718688D01*
X13582811Y-16756784D01*
X13582811Y-16785355D01*
X13573288Y-16823450D01*
X13563764Y-16842498D01*
X13544716Y-16861546D01*
X13516145Y-16871069D01*
X13468526Y-16871069D01*
X13668526Y-16871069D02*
X13668526Y-16737736D01*
X13668526Y-16775831D02*
X13678049Y-16756784D01*
X13687573Y-16747260D01*
X13706621Y-16737736D01*
X13725669Y-16737736D01*
X13792335Y-16871069D02*
X13792335Y-16737736D01*
X13792335Y-16671069D02*
X13782811Y-16680593D01*
X13792335Y-16690117D01*
X13801859Y-16680593D01*
X13792335Y-16671069D01*
X13792335Y-16690117D01*
X13916145Y-16871069D02*
X13897097Y-16861546D01*
X13887573Y-16842498D01*
X13887573Y-16671069D01*
X14020907Y-16871069D02*
X14001859Y-16861546D01*
X13992335Y-16842498D01*
X13992335Y-16671069D01*
X14249478Y-16871069D02*
X14249478Y-16671069D01*
X14316145Y-16813927D01*
X14382811Y-16671069D01*
X14382811Y-16871069D01*
X14563764Y-16871069D02*
X14563764Y-16766307D01*
X14554240Y-16747260D01*
X14535192Y-16737736D01*
X14497097Y-16737736D01*
X14478049Y-16747260D01*
X14563764Y-16861546D02*
X14544716Y-16871069D01*
X14497097Y-16871069D01*
X14478049Y-16861546D01*
X14468526Y-16842498D01*
X14468526Y-16823450D01*
X14478049Y-16804403D01*
X14497097Y-16794879D01*
X14544716Y-16794879D01*
X14563764Y-16785355D01*
X14659002Y-16737736D02*
X14659002Y-16937736D01*
X14659002Y-16747260D02*
X14678049Y-16737736D01*
X14716145Y-16737736D01*
X14735192Y-16747260D01*
X14744716Y-16756784D01*
X14754240Y-16775831D01*
X14754240Y-16832974D01*
X14744716Y-16852022D01*
X14735192Y-16861546D01*
X14716145Y-16871069D01*
X14678049Y-16871069D01*
X14659002Y-16861546D01*
X14839954Y-16852022D02*
X14849478Y-16861546D01*
X14839954Y-16871069D01*
X14830430Y-16861546D01*
X14839954Y-16852022D01*
X14839954Y-16871069D01*
X14839954Y-16747260D02*
X14849478Y-16756784D01*
X14839954Y-16766307D01*
X14830430Y-16756784D01*
X14839954Y-16747260D01*
X14839954Y-16766307D01*
M02*
