%TF.GenerationSoftware,KiCad,Pcbnew,6.0.11+dfsg-1~bpo11+1*%
%TF.CreationDate,2023-04-14T10:24:36+08:00*%
%TF.ProjectId,MiniVerb - Front,4d696e69-5665-4726-9220-2d2046726f6e,rev?*%
%TF.SameCoordinates,Original*%
%TF.FileFunction,Copper,L1,Top*%
%TF.FilePolarity,Positive*%
%FSLAX46Y46*%
G04 Gerber Fmt 4.6, Leading zero omitted, Abs format (unit mm)*
G04 Created by KiCad (PCBNEW 6.0.11+dfsg-1~bpo11+1) date 2023-04-14 10:24:36*
%MOMM*%
%LPD*%
G01*
G04 APERTURE LIST*
%TA.AperFunction,ComponentPad*%
%ADD10O,7.000000X4.200000*%
%TD*%
%TA.AperFunction,ComponentPad*%
%ADD11C,7.000000*%
%TD*%
%TA.AperFunction,ComponentPad*%
%ADD12C,8.000000*%
%TD*%
%TA.AperFunction,ViaPad*%
%ADD13C,4.000000*%
%TD*%
G04 APERTURE END LIST*
D10*
%TO.P,REF\u002A\u002A,*%
%TO.N,*%
X139649067Y-162545933D03*
X139649067Y-40045933D03*
%TD*%
D11*
%TO.P,REF\u002A\u002A,*%
%TO.N,*%
X137149067Y-126595933D03*
%TD*%
D12*
%TO.P,REF\u002A\u002A,*%
%TO.N,*%
X142149067Y-61095933D03*
%TD*%
%TO.P,REF\u002A\u002A,*%
%TO.N,*%
X142149067Y-101095933D03*
%TD*%
D11*
%TO.P,REF\u002A\u002A,*%
%TO.N,*%
X147149067Y-146695933D03*
%TD*%
%TO.P,REF\u002A\u002A,*%
%TO.N,*%
X137149067Y-146695933D03*
%TD*%
D12*
%TO.P,REF\u002A\u002A,*%
%TO.N,*%
X142099067Y-81095933D03*
%TD*%
D13*
%TO.N,*%
X137125000Y-135400000D03*
%TD*%
%TA.AperFunction,NonConductor*%
G36*
X136927348Y-37584435D02*
G01*
X136973841Y-37638091D01*
X136983945Y-37708365D01*
X136954451Y-37772945D01*
X136925062Y-37797866D01*
X136833291Y-37854104D01*
X136750050Y-37905114D01*
X136747046Y-37907504D01*
X136747041Y-37907507D01*
X136578437Y-38041621D01*
X136500323Y-38103756D01*
X136276666Y-38331351D01*
X136274321Y-38334407D01*
X136137262Y-38513026D01*
X136082413Y-38584506D01*
X135920460Y-38859448D01*
X135793221Y-39152078D01*
X135702593Y-39458033D01*
X135649927Y-39772752D01*
X135636008Y-40091544D01*
X135661044Y-40409656D01*
X135724661Y-40722345D01*
X135825912Y-41024951D01*
X135963286Y-41312962D01*
X136134736Y-41582084D01*
X136137179Y-41585047D01*
X136137180Y-41585049D01*
X136284083Y-41763256D01*
X136337706Y-41828306D01*
X136569169Y-42047957D01*
X136825676Y-42237762D01*
X136829009Y-42239648D01*
X136829014Y-42239651D01*
X136988171Y-42329698D01*
X137103403Y-42394893D01*
X137106946Y-42396360D01*
X137106951Y-42396363D01*
X137284099Y-42469739D01*
X137398209Y-42517005D01*
X137500599Y-42545400D01*
X137701983Y-42601250D01*
X137701991Y-42601252D01*
X137705699Y-42602280D01*
X138021289Y-42649445D01*
X138024587Y-42649589D01*
X138134157Y-42654373D01*
X138134161Y-42654373D01*
X138135533Y-42654433D01*
X141130114Y-42654433D01*
X141367567Y-42639910D01*
X141371350Y-42639209D01*
X141371357Y-42639208D01*
X141524443Y-42610834D01*
X141681319Y-42581759D01*
X141891367Y-42515531D01*
X141981974Y-42486963D01*
X141981977Y-42486962D01*
X141985646Y-42485805D01*
X141989143Y-42484211D01*
X141989149Y-42484209D01*
X142272503Y-42355078D01*
X142272507Y-42355076D01*
X142276011Y-42353479D01*
X142461761Y-42239651D01*
X142544806Y-42188761D01*
X142544809Y-42188759D01*
X142548084Y-42186752D01*
X142551088Y-42184362D01*
X142551093Y-42184359D01*
X142794800Y-41990505D01*
X142797811Y-41988110D01*
X143021468Y-41760515D01*
X143158383Y-41582084D01*
X143213371Y-41510423D01*
X143213373Y-41510419D01*
X143215721Y-41507360D01*
X143377674Y-41232418D01*
X143504913Y-40939788D01*
X143595541Y-40633833D01*
X143648207Y-40319114D01*
X143662126Y-40000322D01*
X143637090Y-39682210D01*
X143573473Y-39369521D01*
X143472222Y-39066915D01*
X143334848Y-38778904D01*
X143163398Y-38509782D01*
X143016311Y-38331351D01*
X142962871Y-38266523D01*
X142962867Y-38266518D01*
X142960428Y-38263560D01*
X142728965Y-38043909D01*
X142472458Y-37854104D01*
X142469125Y-37852218D01*
X142469120Y-37852215D01*
X142377003Y-37800098D01*
X142327564Y-37749145D01*
X142313520Y-37679551D01*
X142339330Y-37613412D01*
X142396801Y-37571727D01*
X142439049Y-37564433D01*
X151473067Y-37564433D01*
X151541188Y-37584435D01*
X151587681Y-37638091D01*
X151599067Y-37690433D01*
X151599067Y-164919933D01*
X151579065Y-164988054D01*
X151525409Y-165034547D01*
X151473067Y-165045933D01*
X142408717Y-165045933D01*
X142340596Y-165025931D01*
X142294103Y-164972275D01*
X142283999Y-164902001D01*
X142313493Y-164837421D01*
X142342882Y-164812500D01*
X142346525Y-164810268D01*
X142461761Y-164739651D01*
X142544806Y-164688761D01*
X142544809Y-164688759D01*
X142548084Y-164686752D01*
X142551088Y-164684362D01*
X142551093Y-164684359D01*
X142794800Y-164490505D01*
X142797811Y-164488110D01*
X143021468Y-164260515D01*
X143158383Y-164082084D01*
X143213371Y-164010423D01*
X143213373Y-164010419D01*
X143215721Y-164007360D01*
X143377674Y-163732418D01*
X143504913Y-163439788D01*
X143595541Y-163133833D01*
X143648207Y-162819114D01*
X143662126Y-162500322D01*
X143637090Y-162182210D01*
X143573473Y-161869521D01*
X143472222Y-161566915D01*
X143334848Y-161278904D01*
X143163398Y-161009782D01*
X143016311Y-160831351D01*
X142962871Y-160766523D01*
X142962867Y-160766518D01*
X142960428Y-160763560D01*
X142728965Y-160543909D01*
X142472458Y-160354104D01*
X142469125Y-160352218D01*
X142469120Y-160352215D01*
X142271484Y-160240398D01*
X142194731Y-160196973D01*
X142191188Y-160195506D01*
X142191183Y-160195503D01*
X141972453Y-160104903D01*
X141899925Y-160074861D01*
X141797535Y-160046466D01*
X141596151Y-159990616D01*
X141596143Y-159990614D01*
X141592435Y-159989586D01*
X141276845Y-159942421D01*
X141273547Y-159942277D01*
X141163977Y-159937493D01*
X141163973Y-159937493D01*
X141162601Y-159937433D01*
X138168020Y-159937433D01*
X137930567Y-159951956D01*
X137926784Y-159952657D01*
X137926777Y-159952658D01*
X137773691Y-159981031D01*
X137616815Y-160010107D01*
X137435558Y-160067257D01*
X137316160Y-160104903D01*
X137316157Y-160104904D01*
X137312488Y-160106061D01*
X137308991Y-160107655D01*
X137308985Y-160107657D01*
X137025631Y-160236788D01*
X137025627Y-160236790D01*
X137022123Y-160238387D01*
X137018844Y-160240397D01*
X137018841Y-160240398D01*
X136833291Y-160354104D01*
X136750050Y-160405114D01*
X136747046Y-160407504D01*
X136747041Y-160407507D01*
X136578437Y-160541621D01*
X136500323Y-160603756D01*
X136276666Y-160831351D01*
X136274321Y-160834407D01*
X136137262Y-161013026D01*
X136082413Y-161084506D01*
X135920460Y-161359448D01*
X135793221Y-161652078D01*
X135702593Y-161958033D01*
X135649927Y-162272752D01*
X135636008Y-162591544D01*
X135661044Y-162909656D01*
X135724661Y-163222345D01*
X135825912Y-163524951D01*
X135963286Y-163812962D01*
X136134736Y-164082084D01*
X136137179Y-164085047D01*
X136137180Y-164085049D01*
X136284083Y-164263256D01*
X136337706Y-164328306D01*
X136569169Y-164547957D01*
X136825676Y-164737762D01*
X136829009Y-164739648D01*
X136829014Y-164739651D01*
X136953829Y-164810268D01*
X137003268Y-164861222D01*
X137017312Y-164930815D01*
X136991501Y-164996954D01*
X136934031Y-165038639D01*
X136891783Y-165045933D01*
X132893073Y-165045933D01*
X132824952Y-165025931D01*
X132778459Y-164972275D01*
X132767073Y-164920031D01*
X132752847Y-146639898D01*
X133136124Y-146639898D01*
X133149808Y-147031760D01*
X133201666Y-147420417D01*
X133291203Y-147802158D01*
X133417563Y-148173340D01*
X133579542Y-148530420D01*
X133775592Y-148869989D01*
X133777381Y-148872487D01*
X133777383Y-148872491D01*
X133877114Y-149011793D01*
X134003843Y-149188807D01*
X134262116Y-149483829D01*
X134547945Y-149752241D01*
X134858603Y-149991479D01*
X134861206Y-149993106D01*
X134861211Y-149993109D01*
X134980643Y-150067738D01*
X135191123Y-150199261D01*
X135542333Y-150373603D01*
X135908879Y-150512840D01*
X136287262Y-150615645D01*
X136585486Y-150666086D01*
X136670850Y-150680524D01*
X136670853Y-150680524D01*
X136673872Y-150681035D01*
X136828511Y-150691849D01*
X137061952Y-150708173D01*
X137061960Y-150708173D01*
X137065018Y-150708387D01*
X137317104Y-150701346D01*
X137453892Y-150697525D01*
X137453895Y-150697525D01*
X137456966Y-150697439D01*
X137460019Y-150697053D01*
X137460023Y-150697053D01*
X137601643Y-150679162D01*
X137845975Y-150648295D01*
X137848979Y-150647613D01*
X137848982Y-150647612D01*
X138225336Y-150562107D01*
X138225342Y-150562105D01*
X138228332Y-150561426D01*
X138231251Y-150560455D01*
X138597463Y-150438633D01*
X138597469Y-150438631D01*
X138600387Y-150437660D01*
X138741802Y-150374698D01*
X138955789Y-150279425D01*
X138955795Y-150279422D01*
X138958589Y-150278178D01*
X138961258Y-150276662D01*
X139296851Y-150086019D01*
X139296857Y-150086016D01*
X139299519Y-150084503D01*
X139619922Y-149858483D01*
X139916741Y-149602277D01*
X140187141Y-149318328D01*
X140428542Y-149009348D01*
X140638641Y-148678287D01*
X140815430Y-148328303D01*
X140875536Y-148173340D01*
X140956108Y-147965614D01*
X140956111Y-147965605D01*
X140957223Y-147962738D01*
X141062667Y-147585081D01*
X141130755Y-147198937D01*
X141160836Y-146807992D01*
X141162401Y-146695933D01*
X141159661Y-146639898D01*
X143136124Y-146639898D01*
X143149808Y-147031760D01*
X143201666Y-147420417D01*
X143291203Y-147802158D01*
X143417563Y-148173340D01*
X143579542Y-148530420D01*
X143775592Y-148869989D01*
X143777381Y-148872487D01*
X143777383Y-148872491D01*
X143877114Y-149011793D01*
X144003843Y-149188807D01*
X144262116Y-149483829D01*
X144547945Y-149752241D01*
X144858603Y-149991479D01*
X144861206Y-149993106D01*
X144861211Y-149993109D01*
X144980643Y-150067738D01*
X145191123Y-150199261D01*
X145542333Y-150373603D01*
X145908879Y-150512840D01*
X146287262Y-150615645D01*
X146585486Y-150666086D01*
X146670850Y-150680524D01*
X146670853Y-150680524D01*
X146673872Y-150681035D01*
X146828511Y-150691849D01*
X147061952Y-150708173D01*
X147061960Y-150708173D01*
X147065018Y-150708387D01*
X147317104Y-150701346D01*
X147453892Y-150697525D01*
X147453895Y-150697525D01*
X147456966Y-150697439D01*
X147460019Y-150697053D01*
X147460023Y-150697053D01*
X147601643Y-150679162D01*
X147845975Y-150648295D01*
X147848979Y-150647613D01*
X147848982Y-150647612D01*
X148225336Y-150562107D01*
X148225342Y-150562105D01*
X148228332Y-150561426D01*
X148231251Y-150560455D01*
X148597463Y-150438633D01*
X148597469Y-150438631D01*
X148600387Y-150437660D01*
X148741802Y-150374698D01*
X148955789Y-150279425D01*
X148955795Y-150279422D01*
X148958589Y-150278178D01*
X148961258Y-150276662D01*
X149296851Y-150086019D01*
X149296857Y-150086016D01*
X149299519Y-150084503D01*
X149619922Y-149858483D01*
X149916741Y-149602277D01*
X150187141Y-149318328D01*
X150428542Y-149009348D01*
X150638641Y-148678287D01*
X150815430Y-148328303D01*
X150875536Y-148173340D01*
X150956108Y-147965614D01*
X150956111Y-147965605D01*
X150957223Y-147962738D01*
X151062667Y-147585081D01*
X151130755Y-147198937D01*
X151160836Y-146807992D01*
X151162401Y-146695933D01*
X151159661Y-146639898D01*
X151143397Y-146307373D01*
X151143247Y-146304300D01*
X151085968Y-145916406D01*
X150991110Y-145535952D01*
X150859579Y-145166570D01*
X150692631Y-144811787D01*
X150691064Y-144809158D01*
X150691059Y-144809149D01*
X150493428Y-144477622D01*
X150491858Y-144474988D01*
X150490044Y-144472528D01*
X150490039Y-144472520D01*
X150261000Y-144161859D01*
X150260998Y-144161856D01*
X150259178Y-144159388D01*
X149996811Y-143868001D01*
X149707262Y-143603606D01*
X149393295Y-143368728D01*
X149345082Y-143339529D01*
X149060534Y-143167200D01*
X149060525Y-143167195D01*
X149057906Y-143165609D01*
X148704296Y-142996188D01*
X148701406Y-142995136D01*
X148701401Y-142995134D01*
X148338741Y-142863137D01*
X148338738Y-142863136D01*
X148335842Y-142862082D01*
X148059630Y-142791162D01*
X147959044Y-142765336D01*
X147959041Y-142765335D01*
X147956060Y-142764570D01*
X147568575Y-142704584D01*
X147177085Y-142682697D01*
X147174006Y-142682826D01*
X147174003Y-142682826D01*
X146918255Y-142693545D01*
X146785328Y-142699116D01*
X146782284Y-142699544D01*
X146782282Y-142699544D01*
X146571845Y-142729119D01*
X146397043Y-142753686D01*
X146015936Y-142845886D01*
X145645646Y-142974835D01*
X145289705Y-143139302D01*
X144951513Y-143337718D01*
X144791511Y-143453966D01*
X144636778Y-143566386D01*
X144636772Y-143566391D01*
X144634297Y-143568189D01*
X144632011Y-143570218D01*
X144632008Y-143570221D01*
X144552190Y-143641087D01*
X144341084Y-143828516D01*
X144339005Y-143830761D01*
X144338998Y-143830768D01*
X144076761Y-144113959D01*
X144074675Y-144116212D01*
X143837611Y-144428532D01*
X143632156Y-144762495D01*
X143460270Y-145114913D01*
X143323594Y-145482422D01*
X143223434Y-145861514D01*
X143160744Y-146248571D01*
X143160550Y-146251651D01*
X143160550Y-146251653D01*
X143157045Y-146307373D01*
X143136124Y-146639898D01*
X141159661Y-146639898D01*
X141143397Y-146307373D01*
X141143247Y-146304300D01*
X141085968Y-145916406D01*
X140991110Y-145535952D01*
X140859579Y-145166570D01*
X140692631Y-144811787D01*
X140691064Y-144809158D01*
X140691059Y-144809149D01*
X140493428Y-144477622D01*
X140491858Y-144474988D01*
X140490044Y-144472528D01*
X140490039Y-144472520D01*
X140261000Y-144161859D01*
X140260998Y-144161856D01*
X140259178Y-144159388D01*
X139996811Y-143868001D01*
X139707262Y-143603606D01*
X139393295Y-143368728D01*
X139345082Y-143339529D01*
X139060534Y-143167200D01*
X139060525Y-143167195D01*
X139057906Y-143165609D01*
X138704296Y-142996188D01*
X138701406Y-142995136D01*
X138701401Y-142995134D01*
X138338741Y-142863137D01*
X138338738Y-142863136D01*
X138335842Y-142862082D01*
X138059630Y-142791162D01*
X137959044Y-142765336D01*
X137959041Y-142765335D01*
X137956060Y-142764570D01*
X137568575Y-142704584D01*
X137177085Y-142682697D01*
X137174006Y-142682826D01*
X137174003Y-142682826D01*
X136918255Y-142693545D01*
X136785328Y-142699116D01*
X136782284Y-142699544D01*
X136782282Y-142699544D01*
X136571845Y-142729119D01*
X136397043Y-142753686D01*
X136015936Y-142845886D01*
X135645646Y-142974835D01*
X135289705Y-143139302D01*
X134951513Y-143337718D01*
X134791511Y-143453966D01*
X134636778Y-143566386D01*
X134636772Y-143566391D01*
X134634297Y-143568189D01*
X134632011Y-143570218D01*
X134632008Y-143570221D01*
X134552190Y-143641087D01*
X134341084Y-143828516D01*
X134339005Y-143830761D01*
X134338998Y-143830768D01*
X134076761Y-144113959D01*
X134074675Y-144116212D01*
X133837611Y-144428532D01*
X133632156Y-144762495D01*
X133460270Y-145114913D01*
X133323594Y-145482422D01*
X133223434Y-145861514D01*
X133160744Y-146248571D01*
X133160550Y-146251651D01*
X133160550Y-146251653D01*
X133157045Y-146307373D01*
X133136124Y-146639898D01*
X132752847Y-146639898D01*
X132744100Y-135400000D01*
X134611540Y-135400000D01*
X134631359Y-135715020D01*
X134690505Y-136025072D01*
X134788044Y-136325266D01*
X134789731Y-136328852D01*
X134789733Y-136328856D01*
X134920750Y-136607283D01*
X134920754Y-136607290D01*
X134922438Y-136610869D01*
X135091568Y-136877375D01*
X135292767Y-137120582D01*
X135522860Y-137336654D01*
X135778221Y-137522184D01*
X136054821Y-137674247D01*
X136058490Y-137675700D01*
X136058495Y-137675702D01*
X136344628Y-137788990D01*
X136348298Y-137790443D01*
X136654025Y-137868940D01*
X136967179Y-137908500D01*
X137282821Y-137908500D01*
X137595975Y-137868940D01*
X137901702Y-137790443D01*
X137905372Y-137788990D01*
X138191505Y-137675702D01*
X138191510Y-137675700D01*
X138195179Y-137674247D01*
X138471779Y-137522184D01*
X138727140Y-137336654D01*
X138957233Y-137120582D01*
X139158432Y-136877375D01*
X139327562Y-136610869D01*
X139329246Y-136607290D01*
X139329250Y-136607283D01*
X139460267Y-136328856D01*
X139460269Y-136328852D01*
X139461956Y-136325266D01*
X139559495Y-136025072D01*
X139618641Y-135715020D01*
X139638460Y-135400000D01*
X139618641Y-135084980D01*
X139559495Y-134774928D01*
X139461956Y-134474734D01*
X139460267Y-134471144D01*
X139329250Y-134192717D01*
X139329246Y-134192710D01*
X139327562Y-134189131D01*
X139158432Y-133922625D01*
X138957233Y-133679418D01*
X138727140Y-133463346D01*
X138471779Y-133277816D01*
X138195179Y-133125753D01*
X138191510Y-133124300D01*
X138191505Y-133124298D01*
X137905372Y-133011010D01*
X137905371Y-133011010D01*
X137901702Y-133009557D01*
X137595975Y-132931060D01*
X137282821Y-132891500D01*
X136967179Y-132891500D01*
X136654025Y-132931060D01*
X136348298Y-133009557D01*
X136344629Y-133011010D01*
X136344628Y-133011010D01*
X136058495Y-133124298D01*
X136058490Y-133124300D01*
X136054821Y-133125753D01*
X135778221Y-133277816D01*
X135522860Y-133463346D01*
X135292767Y-133679418D01*
X135091568Y-133922625D01*
X134922438Y-134189131D01*
X134920754Y-134192710D01*
X134920750Y-134192717D01*
X134789733Y-134471144D01*
X134788044Y-134474734D01*
X134690505Y-134774928D01*
X134631359Y-135084980D01*
X134611540Y-135400000D01*
X132744100Y-135400000D01*
X132737205Y-126539898D01*
X133136124Y-126539898D01*
X133149808Y-126931760D01*
X133201666Y-127320417D01*
X133291203Y-127702158D01*
X133417563Y-128073340D01*
X133579542Y-128430420D01*
X133775592Y-128769989D01*
X133777381Y-128772487D01*
X133777383Y-128772491D01*
X133877114Y-128911793D01*
X134003843Y-129088807D01*
X134262116Y-129383829D01*
X134547945Y-129652241D01*
X134858603Y-129891479D01*
X134861206Y-129893106D01*
X134861211Y-129893109D01*
X134980643Y-129967738D01*
X135191123Y-130099261D01*
X135542333Y-130273603D01*
X135908879Y-130412840D01*
X136287262Y-130515645D01*
X136585486Y-130566086D01*
X136670850Y-130580524D01*
X136670853Y-130580524D01*
X136673872Y-130581035D01*
X136828511Y-130591849D01*
X137061952Y-130608173D01*
X137061960Y-130608173D01*
X137065018Y-130608387D01*
X137317104Y-130601346D01*
X137453892Y-130597525D01*
X137453895Y-130597525D01*
X137456966Y-130597439D01*
X137460019Y-130597053D01*
X137460023Y-130597053D01*
X137601643Y-130579162D01*
X137845975Y-130548295D01*
X137848979Y-130547613D01*
X137848982Y-130547612D01*
X138225336Y-130462107D01*
X138225342Y-130462105D01*
X138228332Y-130461426D01*
X138231251Y-130460455D01*
X138597463Y-130338633D01*
X138597469Y-130338631D01*
X138600387Y-130337660D01*
X138741802Y-130274698D01*
X138955789Y-130179425D01*
X138955795Y-130179422D01*
X138958589Y-130178178D01*
X138961258Y-130176662D01*
X139296851Y-129986019D01*
X139296857Y-129986016D01*
X139299519Y-129984503D01*
X139619922Y-129758483D01*
X139916741Y-129502277D01*
X140187141Y-129218328D01*
X140428542Y-128909348D01*
X140638641Y-128578287D01*
X140815430Y-128228303D01*
X140875536Y-128073340D01*
X140956108Y-127865614D01*
X140956111Y-127865605D01*
X140957223Y-127862738D01*
X141062667Y-127485081D01*
X141130755Y-127098937D01*
X141160836Y-126707992D01*
X141162401Y-126595933D01*
X141159661Y-126539898D01*
X141143397Y-126207373D01*
X141143247Y-126204300D01*
X141085968Y-125816406D01*
X140991110Y-125435952D01*
X140859579Y-125066570D01*
X140692631Y-124711787D01*
X140691064Y-124709158D01*
X140691059Y-124709149D01*
X140493428Y-124377622D01*
X140491858Y-124374988D01*
X140490044Y-124372528D01*
X140490039Y-124372520D01*
X140261000Y-124061859D01*
X140260998Y-124061856D01*
X140259178Y-124059388D01*
X139996811Y-123768001D01*
X139707262Y-123503606D01*
X139393295Y-123268728D01*
X139345082Y-123239529D01*
X139060534Y-123067200D01*
X139060525Y-123067195D01*
X139057906Y-123065609D01*
X138704296Y-122896188D01*
X138701406Y-122895136D01*
X138701401Y-122895134D01*
X138338741Y-122763137D01*
X138338738Y-122763136D01*
X138335842Y-122762082D01*
X138059630Y-122691162D01*
X137959044Y-122665336D01*
X137959041Y-122665335D01*
X137956060Y-122664570D01*
X137568575Y-122604584D01*
X137177085Y-122582697D01*
X137174006Y-122582826D01*
X137174003Y-122582826D01*
X136918255Y-122593545D01*
X136785328Y-122599116D01*
X136782284Y-122599544D01*
X136782282Y-122599544D01*
X136571845Y-122629119D01*
X136397043Y-122653686D01*
X136015936Y-122745886D01*
X135645646Y-122874835D01*
X135289705Y-123039302D01*
X134951513Y-123237718D01*
X134791511Y-123353966D01*
X134636778Y-123466386D01*
X134636772Y-123466391D01*
X134634297Y-123468189D01*
X134632011Y-123470218D01*
X134632008Y-123470221D01*
X134552190Y-123541087D01*
X134341084Y-123728516D01*
X134339005Y-123730761D01*
X134338998Y-123730768D01*
X134076761Y-124013959D01*
X134074675Y-124016212D01*
X133837611Y-124328532D01*
X133632156Y-124662495D01*
X133460270Y-125014913D01*
X133323594Y-125382422D01*
X133223434Y-125761514D01*
X133160744Y-126148571D01*
X133160550Y-126151651D01*
X133160550Y-126151653D01*
X133157045Y-126207373D01*
X133136124Y-126539898D01*
X132737205Y-126539898D01*
X132717526Y-101253445D01*
X137638500Y-101253445D01*
X137638729Y-101256290D01*
X137638729Y-101256293D01*
X137666532Y-101601843D01*
X137671340Y-101661601D01*
X137741036Y-102065101D01*
X137847016Y-102460624D01*
X137988407Y-102844913D01*
X138164046Y-103214807D01*
X138281327Y-103413119D01*
X138342540Y-103516624D01*
X138372485Y-103567259D01*
X138612011Y-103899369D01*
X138880651Y-104208404D01*
X139176193Y-104491819D01*
X139178411Y-104493589D01*
X139178416Y-104493594D01*
X139336200Y-104619551D01*
X139496206Y-104747282D01*
X139498587Y-104748852D01*
X139788549Y-104940046D01*
X139838056Y-104972690D01*
X139840586Y-104974046D01*
X139840585Y-104974046D01*
X140147407Y-105138563D01*
X140198927Y-105166188D01*
X140575851Y-105326183D01*
X140578589Y-105327062D01*
X140962998Y-105450482D01*
X140963002Y-105450483D01*
X140965724Y-105451357D01*
X140968514Y-105451981D01*
X140968519Y-105451982D01*
X141362544Y-105540058D01*
X141362555Y-105540060D01*
X141365338Y-105540682D01*
X141771402Y-105593420D01*
X142180576Y-105609139D01*
X142183438Y-105608989D01*
X142183439Y-105608989D01*
X142586633Y-105587859D01*
X142586640Y-105587858D01*
X142589489Y-105587709D01*
X142592312Y-105587302D01*
X142592314Y-105587302D01*
X142991956Y-105529713D01*
X142991963Y-105529712D01*
X142994778Y-105529306D01*
X143393105Y-105434411D01*
X143395803Y-105433503D01*
X143395810Y-105433501D01*
X143778481Y-105304718D01*
X143778487Y-105304716D01*
X143781193Y-105303805D01*
X144155846Y-105138563D01*
X144513981Y-104940046D01*
X144852650Y-104709887D01*
X145169065Y-104449980D01*
X145171103Y-104447971D01*
X145171110Y-104447964D01*
X145416228Y-104206244D01*
X145460622Y-104162466D01*
X145466328Y-104155714D01*
X145723075Y-103851896D01*
X145723080Y-103851890D01*
X145724921Y-103849711D01*
X145959786Y-103514289D01*
X146163284Y-103158960D01*
X146305882Y-102847500D01*
X146332552Y-102789249D01*
X146332555Y-102789240D01*
X146333741Y-102786651D01*
X146469752Y-102400425D01*
X146570200Y-102003461D01*
X146634256Y-101599028D01*
X146661393Y-101190453D01*
X146662383Y-101095933D01*
X146643808Y-100686880D01*
X146588236Y-100281193D01*
X146496124Y-99882213D01*
X146490527Y-99865188D01*
X146369124Y-99495938D01*
X146369121Y-99495931D01*
X146368231Y-99493223D01*
X146205609Y-99117425D01*
X146009596Y-98757913D01*
X145929257Y-98637904D01*
X145783399Y-98420023D01*
X145783391Y-98420012D01*
X145781807Y-98417646D01*
X145524116Y-98099424D01*
X145345449Y-97915696D01*
X145240634Y-97807913D01*
X145240630Y-97807909D01*
X145238644Y-97805867D01*
X145236486Y-97804017D01*
X145236476Y-97804008D01*
X144929916Y-97541254D01*
X144929911Y-97541250D01*
X144927742Y-97539391D01*
X144925411Y-97537734D01*
X144925404Y-97537729D01*
X144719730Y-97391565D01*
X144593967Y-97302190D01*
X144367412Y-97170332D01*
X144242541Y-97097655D01*
X144242536Y-97097652D01*
X144240068Y-97096216D01*
X144005913Y-96987028D01*
X143871554Y-96924375D01*
X143871544Y-96924371D01*
X143868958Y-96923165D01*
X143866261Y-96922194D01*
X143486381Y-96785428D01*
X143486372Y-96785425D01*
X143483691Y-96784460D01*
X143221314Y-96716116D01*
X143090207Y-96681965D01*
X143090201Y-96681964D01*
X143087438Y-96681244D01*
X142683462Y-96614366D01*
X142680619Y-96614157D01*
X142680617Y-96614157D01*
X142277932Y-96584586D01*
X142275086Y-96584377D01*
X142105110Y-96587344D01*
X141868525Y-96591473D01*
X141868520Y-96591473D01*
X141865674Y-96591523D01*
X141862841Y-96591831D01*
X141862837Y-96591831D01*
X141533963Y-96627558D01*
X141458594Y-96635746D01*
X141057197Y-96716682D01*
X141054469Y-96717495D01*
X141054458Y-96717498D01*
X140741934Y-96810666D01*
X140664788Y-96833664D01*
X140662127Y-96834728D01*
X140662125Y-96834729D01*
X140437994Y-96924375D01*
X140284596Y-96985730D01*
X140282049Y-96987028D01*
X139922294Y-97170332D01*
X139922289Y-97170335D01*
X139919751Y-97171628D01*
X139573256Y-97389827D01*
X139247963Y-97638532D01*
X138946550Y-97915696D01*
X138671497Y-98219037D01*
X138425069Y-98546058D01*
X138209294Y-98894068D01*
X138208014Y-98896624D01*
X138208009Y-98896633D01*
X138098702Y-99114915D01*
X138025948Y-99260202D01*
X138024907Y-99262858D01*
X138024904Y-99262865D01*
X137934628Y-99493223D01*
X137876540Y-99641446D01*
X137875748Y-99644173D01*
X137875744Y-99644184D01*
X137805782Y-99884996D01*
X137762300Y-100034662D01*
X137684168Y-100436614D01*
X137642788Y-100843993D01*
X137638500Y-101253445D01*
X132717526Y-101253445D01*
X132705130Y-85325063D01*
X132701961Y-81253445D01*
X137588500Y-81253445D01*
X137588729Y-81256290D01*
X137588729Y-81256293D01*
X137616532Y-81601843D01*
X137621340Y-81661601D01*
X137691036Y-82065101D01*
X137797016Y-82460624D01*
X137938407Y-82844913D01*
X138114046Y-83214807D01*
X138231327Y-83413119D01*
X138292540Y-83516624D01*
X138322485Y-83567259D01*
X138562011Y-83899369D01*
X138830651Y-84208404D01*
X139126193Y-84491819D01*
X139128411Y-84493589D01*
X139128416Y-84493594D01*
X139286200Y-84619551D01*
X139446206Y-84747282D01*
X139448587Y-84748852D01*
X139738549Y-84940046D01*
X139788056Y-84972690D01*
X139790586Y-84974046D01*
X139790585Y-84974046D01*
X140097407Y-85138563D01*
X140148927Y-85166188D01*
X140525851Y-85326183D01*
X140528589Y-85327062D01*
X140912998Y-85450482D01*
X140913002Y-85450483D01*
X140915724Y-85451357D01*
X140918514Y-85451981D01*
X140918519Y-85451982D01*
X141312544Y-85540058D01*
X141312555Y-85540060D01*
X141315338Y-85540682D01*
X141721402Y-85593420D01*
X142130576Y-85609139D01*
X142133438Y-85608989D01*
X142133439Y-85608989D01*
X142536633Y-85587859D01*
X142536640Y-85587858D01*
X142539489Y-85587709D01*
X142542312Y-85587302D01*
X142542314Y-85587302D01*
X142941956Y-85529713D01*
X142941963Y-85529712D01*
X142944778Y-85529306D01*
X143343105Y-85434411D01*
X143345803Y-85433503D01*
X143345810Y-85433501D01*
X143728481Y-85304718D01*
X143728487Y-85304716D01*
X143731193Y-85303805D01*
X144105846Y-85138563D01*
X144463981Y-84940046D01*
X144802650Y-84709887D01*
X145119065Y-84449980D01*
X145121103Y-84447971D01*
X145121110Y-84447964D01*
X145366228Y-84206244D01*
X145410622Y-84162466D01*
X145416328Y-84155714D01*
X145673075Y-83851896D01*
X145673080Y-83851890D01*
X145674921Y-83849711D01*
X145909786Y-83514289D01*
X146113284Y-83158960D01*
X146255882Y-82847500D01*
X146282552Y-82789249D01*
X146282555Y-82789240D01*
X146283741Y-82786651D01*
X146419752Y-82400425D01*
X146520200Y-82003461D01*
X146584256Y-81599028D01*
X146611393Y-81190453D01*
X146612383Y-81095933D01*
X146593808Y-80686880D01*
X146538236Y-80281193D01*
X146446124Y-79882213D01*
X146440527Y-79865188D01*
X146319124Y-79495938D01*
X146319121Y-79495931D01*
X146318231Y-79493223D01*
X146155609Y-79117425D01*
X145959596Y-78757913D01*
X145879257Y-78637904D01*
X145733399Y-78420023D01*
X145733391Y-78420012D01*
X145731807Y-78417646D01*
X145474116Y-78099424D01*
X145295449Y-77915696D01*
X145190634Y-77807913D01*
X145190630Y-77807909D01*
X145188644Y-77805867D01*
X145186486Y-77804017D01*
X145186476Y-77804008D01*
X144879916Y-77541254D01*
X144879911Y-77541250D01*
X144877742Y-77539391D01*
X144875411Y-77537734D01*
X144875404Y-77537729D01*
X144669730Y-77391565D01*
X144543967Y-77302190D01*
X144317412Y-77170332D01*
X144192541Y-77097655D01*
X144192536Y-77097652D01*
X144190068Y-77096216D01*
X143955913Y-76987028D01*
X143821554Y-76924375D01*
X143821544Y-76924371D01*
X143818958Y-76923165D01*
X143816261Y-76922194D01*
X143436381Y-76785428D01*
X143436372Y-76785425D01*
X143433691Y-76784460D01*
X143171314Y-76716116D01*
X143040207Y-76681965D01*
X143040201Y-76681964D01*
X143037438Y-76681244D01*
X142633462Y-76614366D01*
X142630619Y-76614157D01*
X142630617Y-76614157D01*
X142227932Y-76584586D01*
X142225086Y-76584377D01*
X142055110Y-76587344D01*
X141818525Y-76591473D01*
X141818520Y-76591473D01*
X141815674Y-76591523D01*
X141812841Y-76591831D01*
X141812837Y-76591831D01*
X141483963Y-76627558D01*
X141408594Y-76635746D01*
X141007197Y-76716682D01*
X141004469Y-76717495D01*
X141004458Y-76717498D01*
X140691934Y-76810666D01*
X140614788Y-76833664D01*
X140612127Y-76834728D01*
X140612125Y-76834729D01*
X140387994Y-76924375D01*
X140234596Y-76985730D01*
X140232049Y-76987028D01*
X139872294Y-77170332D01*
X139872289Y-77170335D01*
X139869751Y-77171628D01*
X139523256Y-77389827D01*
X139197963Y-77638532D01*
X138896550Y-77915696D01*
X138621497Y-78219037D01*
X138375069Y-78546058D01*
X138159294Y-78894068D01*
X138158014Y-78896624D01*
X138158009Y-78896633D01*
X138048702Y-79114915D01*
X137975948Y-79260202D01*
X137974907Y-79262858D01*
X137974904Y-79262865D01*
X137884628Y-79493223D01*
X137826540Y-79641446D01*
X137825748Y-79644173D01*
X137825744Y-79644184D01*
X137755782Y-79884996D01*
X137712300Y-80034662D01*
X137634168Y-80436614D01*
X137592788Y-80843993D01*
X137588500Y-81253445D01*
X132701961Y-81253445D01*
X132686397Y-61253445D01*
X137638500Y-61253445D01*
X137638729Y-61256290D01*
X137638729Y-61256293D01*
X137666532Y-61601843D01*
X137671340Y-61661601D01*
X137741036Y-62065101D01*
X137847016Y-62460624D01*
X137988407Y-62844913D01*
X138164046Y-63214807D01*
X138281327Y-63413119D01*
X138342540Y-63516624D01*
X138372485Y-63567259D01*
X138612011Y-63899369D01*
X138880651Y-64208404D01*
X139176193Y-64491819D01*
X139178411Y-64493589D01*
X139178416Y-64493594D01*
X139336199Y-64619550D01*
X139496206Y-64747282D01*
X139498587Y-64748852D01*
X139788549Y-64940046D01*
X139838056Y-64972690D01*
X139840586Y-64974046D01*
X139840585Y-64974046D01*
X140147407Y-65138563D01*
X140198927Y-65166188D01*
X140575851Y-65326183D01*
X140578589Y-65327062D01*
X140962998Y-65450482D01*
X140963002Y-65450483D01*
X140965724Y-65451357D01*
X140968514Y-65451981D01*
X140968519Y-65451982D01*
X141362544Y-65540058D01*
X141362555Y-65540060D01*
X141365338Y-65540682D01*
X141771402Y-65593420D01*
X142180576Y-65609139D01*
X142183438Y-65608989D01*
X142183439Y-65608989D01*
X142586633Y-65587859D01*
X142586640Y-65587858D01*
X142589489Y-65587709D01*
X142592312Y-65587302D01*
X142592314Y-65587302D01*
X142991956Y-65529713D01*
X142991963Y-65529712D01*
X142994778Y-65529306D01*
X143393105Y-65434411D01*
X143395803Y-65433503D01*
X143395810Y-65433501D01*
X143778481Y-65304718D01*
X143778487Y-65304716D01*
X143781193Y-65303805D01*
X144155846Y-65138563D01*
X144513981Y-64940046D01*
X144852650Y-64709887D01*
X145169065Y-64449980D01*
X145171103Y-64447971D01*
X145171110Y-64447964D01*
X145416228Y-64206244D01*
X145460622Y-64162466D01*
X145466328Y-64155714D01*
X145723075Y-63851896D01*
X145723080Y-63851890D01*
X145724921Y-63849711D01*
X145959786Y-63514289D01*
X146163284Y-63158960D01*
X146305882Y-62847500D01*
X146332552Y-62789249D01*
X146332555Y-62789240D01*
X146333741Y-62786651D01*
X146469752Y-62400425D01*
X146570200Y-62003461D01*
X146634256Y-61599028D01*
X146661393Y-61190453D01*
X146662383Y-61095933D01*
X146643808Y-60686880D01*
X146588236Y-60281193D01*
X146496124Y-59882213D01*
X146490527Y-59865188D01*
X146369124Y-59495938D01*
X146369121Y-59495931D01*
X146368231Y-59493223D01*
X146205609Y-59117425D01*
X146009596Y-58757913D01*
X145929257Y-58637904D01*
X145783399Y-58420023D01*
X145783391Y-58420012D01*
X145781807Y-58417646D01*
X145524116Y-58099424D01*
X145345449Y-57915696D01*
X145240634Y-57807913D01*
X145240630Y-57807909D01*
X145238644Y-57805867D01*
X145236486Y-57804017D01*
X145236476Y-57804008D01*
X144929916Y-57541254D01*
X144929911Y-57541250D01*
X144927742Y-57539391D01*
X144925411Y-57537734D01*
X144925404Y-57537729D01*
X144719730Y-57391565D01*
X144593967Y-57302190D01*
X144367412Y-57170332D01*
X144242541Y-57097655D01*
X144242536Y-57097652D01*
X144240068Y-57096216D01*
X144005913Y-56987028D01*
X143871554Y-56924375D01*
X143871544Y-56924371D01*
X143868958Y-56923165D01*
X143866261Y-56922194D01*
X143486381Y-56785428D01*
X143486372Y-56785425D01*
X143483691Y-56784460D01*
X143221314Y-56716116D01*
X143090207Y-56681965D01*
X143090201Y-56681964D01*
X143087438Y-56681244D01*
X142683462Y-56614366D01*
X142680619Y-56614157D01*
X142680617Y-56614157D01*
X142277932Y-56584586D01*
X142275086Y-56584377D01*
X142105110Y-56587344D01*
X141868525Y-56591473D01*
X141868520Y-56591473D01*
X141865674Y-56591523D01*
X141862841Y-56591831D01*
X141862837Y-56591831D01*
X141533963Y-56627558D01*
X141458594Y-56635746D01*
X141057197Y-56716682D01*
X141054469Y-56717495D01*
X141054458Y-56717498D01*
X140741934Y-56810666D01*
X140664788Y-56833664D01*
X140662127Y-56834728D01*
X140662125Y-56834729D01*
X140437994Y-56924375D01*
X140284596Y-56985730D01*
X140282049Y-56987028D01*
X139922294Y-57170332D01*
X139922289Y-57170335D01*
X139919751Y-57171628D01*
X139573256Y-57389827D01*
X139247963Y-57638532D01*
X138946550Y-57915696D01*
X138671497Y-58219037D01*
X138425069Y-58546058D01*
X138209294Y-58894068D01*
X138208014Y-58896624D01*
X138208009Y-58896633D01*
X138098702Y-59114915D01*
X138025948Y-59260202D01*
X138024907Y-59262858D01*
X138024904Y-59262865D01*
X137934628Y-59493223D01*
X137876540Y-59641446D01*
X137875748Y-59644173D01*
X137875744Y-59644184D01*
X137805782Y-59884996D01*
X137762300Y-60034662D01*
X137684168Y-60436614D01*
X137642788Y-60843993D01*
X137638500Y-61253445D01*
X132686397Y-61253445D01*
X132668060Y-37690531D01*
X132688009Y-37622395D01*
X132741629Y-37575860D01*
X132794060Y-37564433D01*
X136859227Y-37564433D01*
X136927348Y-37584435D01*
G37*
%TD.AperFunction*%
M02*
