%TF.GenerationSoftware,KiCad,Pcbnew,6.0.11+dfsg-1~bpo11+1*%
%TF.CreationDate,2023-04-14T10:24:36+08:00*%
%TF.ProjectId,MiniVerb - Front,4d696e69-5665-4726-9220-2d2046726f6e,rev?*%
%TF.SameCoordinates,Original*%
%TF.FileFunction,AssemblyDrawing,Top*%
%FSLAX46Y46*%
G04 Gerber Fmt 4.6, Leading zero omitted, Abs format (unit mm)*
G04 Created by KiCad (PCBNEW 6.0.11+dfsg-1~bpo11+1) date 2023-04-14 10:24:36*
%MOMM*%
%LPD*%
G01*
G04 APERTURE LIST*
%ADD10C,0.150000*%
%ADD11C,0.100000*%
%ADD12C,0.120000*%
G04 APERTURE END LIST*
D10*
%TO.C,REF\u002A\u002A*%
X132410971Y-36498313D02*
X132410971Y-35498313D01*
X132791924Y-35498313D01*
X132887162Y-35545933D01*
X132934781Y-35593552D01*
X132982400Y-35688790D01*
X132982400Y-35831647D01*
X132934781Y-35926885D01*
X132887162Y-35974504D01*
X132791924Y-36022123D01*
X132410971Y-36022123D01*
X133839543Y-36498313D02*
X133839543Y-35974504D01*
X133791924Y-35879266D01*
X133696686Y-35831647D01*
X133506209Y-35831647D01*
X133410971Y-35879266D01*
X133839543Y-36450694D02*
X133744305Y-36498313D01*
X133506209Y-36498313D01*
X133410971Y-36450694D01*
X133363352Y-36355456D01*
X133363352Y-36260218D01*
X133410971Y-36164980D01*
X133506209Y-36117361D01*
X133744305Y-36117361D01*
X133839543Y-36069742D01*
X134315733Y-35831647D02*
X134315733Y-36498313D01*
X134315733Y-35926885D02*
X134363352Y-35879266D01*
X134458590Y-35831647D01*
X134601447Y-35831647D01*
X134696686Y-35879266D01*
X134744305Y-35974504D01*
X134744305Y-36498313D01*
X135601447Y-36450694D02*
X135506209Y-36498313D01*
X135315733Y-36498313D01*
X135220495Y-36450694D01*
X135172876Y-36355456D01*
X135172876Y-35974504D01*
X135220495Y-35879266D01*
X135315733Y-35831647D01*
X135506209Y-35831647D01*
X135601447Y-35879266D01*
X135649067Y-35974504D01*
X135649067Y-36069742D01*
X135172876Y-36164980D01*
X136220495Y-36498313D02*
X136125257Y-36450694D01*
X136077638Y-36355456D01*
X136077638Y-35498313D01*
X136363352Y-36593552D02*
X137125257Y-36593552D01*
X137791924Y-35831647D02*
X137791924Y-36498313D01*
X137553828Y-35450694D02*
X137315733Y-36164980D01*
X137934781Y-36164980D01*
X138315733Y-36498313D02*
X138315733Y-35498313D01*
X138315733Y-35974504D02*
X138887162Y-35974504D01*
X138887162Y-36498313D02*
X138887162Y-35498313D01*
X139363352Y-36498313D02*
X139363352Y-35498313D01*
X139744305Y-35498313D01*
X139839543Y-35545933D01*
X139887162Y-35593552D01*
X139934781Y-35688790D01*
X139934781Y-35831647D01*
X139887162Y-35926885D01*
X139839543Y-35974504D01*
X139744305Y-36022123D01*
X139363352Y-36022123D01*
X135815733Y-121048313D02*
X135482400Y-120572123D01*
X135244305Y-121048313D02*
X135244305Y-120048313D01*
X135625257Y-120048313D01*
X135720495Y-120095933D01*
X135768114Y-120143552D01*
X135815733Y-120238790D01*
X135815733Y-120381647D01*
X135768114Y-120476885D01*
X135720495Y-120524504D01*
X135625257Y-120572123D01*
X135244305Y-120572123D01*
X136244305Y-120524504D02*
X136577638Y-120524504D01*
X136720495Y-121048313D02*
X136244305Y-121048313D01*
X136244305Y-120048313D01*
X136720495Y-120048313D01*
X137482400Y-120524504D02*
X137149067Y-120524504D01*
X137149067Y-121048313D02*
X137149067Y-120048313D01*
X137625257Y-120048313D01*
X138149067Y-120048313D02*
X138149067Y-120286409D01*
X137910971Y-120191171D02*
X138149067Y-120286409D01*
X138387162Y-120191171D01*
X138006209Y-120476885D02*
X138149067Y-120286409D01*
X138291924Y-120476885D01*
X138910971Y-120048313D02*
X138910971Y-120286409D01*
X138672876Y-120191171D02*
X138910971Y-120286409D01*
X139149067Y-120191171D01*
X138768114Y-120476885D02*
X138910971Y-120286409D01*
X139053828Y-120476885D01*
X126649067Y-134548313D02*
X126649067Y-133548313D01*
X127030019Y-133548313D01*
X127125257Y-133595933D01*
X127172876Y-133643552D01*
X127220495Y-133738790D01*
X127220495Y-133881647D01*
X127172876Y-133976885D01*
X127125257Y-134024504D01*
X127030019Y-134072123D01*
X126649067Y-134072123D01*
X128077638Y-134548313D02*
X128077638Y-134024504D01*
X128030019Y-133929266D01*
X127934781Y-133881647D01*
X127744305Y-133881647D01*
X127649067Y-133929266D01*
X128077638Y-134500694D02*
X127982400Y-134548313D01*
X127744305Y-134548313D01*
X127649067Y-134500694D01*
X127601447Y-134405456D01*
X127601447Y-134310218D01*
X127649067Y-134214980D01*
X127744305Y-134167361D01*
X127982400Y-134167361D01*
X128077638Y-134119742D01*
X128553828Y-133881647D02*
X128553828Y-134548313D01*
X128553828Y-133976885D02*
X128601447Y-133929266D01*
X128696686Y-133881647D01*
X128839543Y-133881647D01*
X128934781Y-133929266D01*
X128982400Y-134024504D01*
X128982400Y-134548313D01*
X129839543Y-134500694D02*
X129744305Y-134548313D01*
X129553828Y-134548313D01*
X129458590Y-134500694D01*
X129410971Y-134405456D01*
X129410971Y-134024504D01*
X129458590Y-133929266D01*
X129553828Y-133881647D01*
X129744305Y-133881647D01*
X129839543Y-133929266D01*
X129887162Y-134024504D01*
X129887162Y-134119742D01*
X129410971Y-134214980D01*
X130458590Y-134548313D02*
X130363352Y-134500694D01*
X130315733Y-134405456D01*
X130315733Y-133548313D01*
X130839543Y-134548313D02*
X130839543Y-133548313D01*
X130839543Y-134024504D02*
X131410971Y-134024504D01*
X131410971Y-134548313D02*
X131410971Y-133548313D01*
X132030019Y-134548313D02*
X131934781Y-134500694D01*
X131887162Y-134453075D01*
X131839543Y-134357837D01*
X131839543Y-134072123D01*
X131887162Y-133976885D01*
X131934781Y-133929266D01*
X132030019Y-133881647D01*
X132172876Y-133881647D01*
X132268114Y-133929266D01*
X132315733Y-133976885D01*
X132363352Y-134072123D01*
X132363352Y-134357837D01*
X132315733Y-134453075D01*
X132268114Y-134500694D01*
X132172876Y-134548313D01*
X132030019Y-134548313D01*
X132934781Y-134548313D02*
X132839543Y-134500694D01*
X132791924Y-134405456D01*
X132791924Y-133548313D01*
X133696686Y-134500694D02*
X133601447Y-134548313D01*
X133410971Y-134548313D01*
X133315733Y-134500694D01*
X133268114Y-134405456D01*
X133268114Y-134024504D01*
X133315733Y-133929266D01*
X133410971Y-133881647D01*
X133601447Y-133881647D01*
X133696686Y-133929266D01*
X133744305Y-134024504D01*
X133744305Y-134119742D01*
X133268114Y-134214980D01*
X133934781Y-134643552D02*
X134696686Y-134643552D01*
X134887162Y-134262599D02*
X135363352Y-134262599D01*
X134791924Y-134548313D02*
X135125257Y-133548313D01*
X135458590Y-134548313D01*
X136220495Y-133881647D02*
X136220495Y-134548313D01*
X135791924Y-133881647D02*
X135791924Y-134405456D01*
X135839543Y-134500694D01*
X135934781Y-134548313D01*
X136077638Y-134548313D01*
X136172876Y-134500694D01*
X136220495Y-134453075D01*
X137125257Y-134548313D02*
X137125257Y-133548313D01*
X137125257Y-134500694D02*
X137030019Y-134548313D01*
X136839543Y-134548313D01*
X136744305Y-134500694D01*
X136696686Y-134453075D01*
X136649067Y-134357837D01*
X136649067Y-134072123D01*
X136696686Y-133976885D01*
X136744305Y-133929266D01*
X136839543Y-133881647D01*
X137030019Y-133881647D01*
X137125257Y-133929266D01*
X137601447Y-134548313D02*
X137601447Y-133881647D01*
X137601447Y-133548313D02*
X137553828Y-133595933D01*
X137601447Y-133643552D01*
X137649067Y-133595933D01*
X137601447Y-133548313D01*
X137601447Y-133643552D01*
X138220495Y-134548313D02*
X138125257Y-134500694D01*
X138077638Y-134453075D01*
X138030019Y-134357837D01*
X138030019Y-134072123D01*
X138077638Y-133976885D01*
X138125257Y-133929266D01*
X138220495Y-133881647D01*
X138363352Y-133881647D01*
X138458590Y-133929266D01*
X138506209Y-133976885D01*
X138553828Y-134072123D01*
X138553828Y-134357837D01*
X138506209Y-134453075D01*
X138458590Y-134500694D01*
X138363352Y-134548313D01*
X138220495Y-134548313D01*
X139268114Y-133548313D02*
X139268114Y-134262599D01*
X139220495Y-134405456D01*
X139125257Y-134500694D01*
X138982400Y-134548313D01*
X138887162Y-134548313D01*
X140172876Y-134548313D02*
X140172876Y-134024504D01*
X140125257Y-133929266D01*
X140030019Y-133881647D01*
X139839543Y-133881647D01*
X139744305Y-133929266D01*
X140172876Y-134500694D02*
X140077638Y-134548313D01*
X139839543Y-134548313D01*
X139744305Y-134500694D01*
X139696686Y-134405456D01*
X139696686Y-134310218D01*
X139744305Y-134214980D01*
X139839543Y-134167361D01*
X140077638Y-134167361D01*
X140172876Y-134119742D01*
X141077638Y-134500694D02*
X140982400Y-134548313D01*
X140791924Y-134548313D01*
X140696686Y-134500694D01*
X140649067Y-134453075D01*
X140601447Y-134357837D01*
X140601447Y-134072123D01*
X140649067Y-133976885D01*
X140696686Y-133929266D01*
X140791924Y-133881647D01*
X140982400Y-133881647D01*
X141077638Y-133929266D01*
X141506209Y-134548313D02*
X141506209Y-133548313D01*
X141601447Y-134167361D02*
X141887162Y-134548313D01*
X141887162Y-133881647D02*
X141506209Y-134262599D01*
X142077638Y-134643552D02*
X142839543Y-134643552D01*
X142982400Y-133548313D02*
X143601447Y-133548313D01*
X143268114Y-133929266D01*
X143410971Y-133929266D01*
X143506209Y-133976885D01*
X143553828Y-134024504D01*
X143601447Y-134119742D01*
X143601447Y-134357837D01*
X143553828Y-134453075D01*
X143506209Y-134500694D01*
X143410971Y-134548313D01*
X143125257Y-134548313D01*
X143030019Y-134500694D01*
X142982400Y-134453075D01*
X144030019Y-134453075D02*
X144077638Y-134500694D01*
X144030019Y-134548313D01*
X143982400Y-134500694D01*
X144030019Y-134453075D01*
X144030019Y-134548313D01*
X144982400Y-133548313D02*
X144506209Y-133548313D01*
X144458590Y-134024504D01*
X144506209Y-133976885D01*
X144601447Y-133929266D01*
X144839543Y-133929266D01*
X144934781Y-133976885D01*
X144982400Y-134024504D01*
X145030019Y-134119742D01*
X145030019Y-134357837D01*
X144982400Y-134453075D01*
X144934781Y-134500694D01*
X144839543Y-134548313D01*
X144601447Y-134548313D01*
X144506209Y-134500694D01*
X144458590Y-134453075D01*
X145458590Y-134548313D02*
X145458590Y-133881647D01*
X145458590Y-133976885D02*
X145506209Y-133929266D01*
X145601447Y-133881647D01*
X145744305Y-133881647D01*
X145839543Y-133929266D01*
X145887162Y-134024504D01*
X145887162Y-134548313D01*
X145887162Y-134024504D02*
X145934781Y-133929266D01*
X146030019Y-133881647D01*
X146172876Y-133881647D01*
X146268114Y-133929266D01*
X146315733Y-134024504D01*
X146315733Y-134548313D01*
X146791924Y-134548313D02*
X146791924Y-133881647D01*
X146791924Y-133976885D02*
X146839543Y-133929266D01*
X146934781Y-133881647D01*
X147077638Y-133881647D01*
X147172876Y-133929266D01*
X147220495Y-134024504D01*
X147220495Y-134548313D01*
X147220495Y-134024504D02*
X147268114Y-133929266D01*
X147363352Y-133881647D01*
X147506209Y-133881647D01*
X147601447Y-133929266D01*
X147649067Y-134024504D01*
X147649067Y-134548313D01*
X142641447Y-62309266D02*
X142165257Y-62642599D01*
X142641447Y-62880694D02*
X141641447Y-62880694D01*
X141641447Y-62499742D01*
X141689067Y-62404504D01*
X141736686Y-62356885D01*
X141831924Y-62309266D01*
X141974781Y-62309266D01*
X142070019Y-62356885D01*
X142117638Y-62404504D01*
X142165257Y-62499742D01*
X142165257Y-62880694D01*
X142117638Y-61880694D02*
X142117638Y-61547361D01*
X142641447Y-61404504D02*
X142641447Y-61880694D01*
X141641447Y-61880694D01*
X141641447Y-61404504D01*
X142117638Y-60642599D02*
X142117638Y-60975933D01*
X142641447Y-60975933D02*
X141641447Y-60975933D01*
X141641447Y-60499742D01*
X141641447Y-59975933D02*
X141879543Y-59975933D01*
X141784305Y-60214028D02*
X141879543Y-59975933D01*
X141784305Y-59737837D01*
X142070019Y-60118790D02*
X141879543Y-59975933D01*
X142070019Y-59833075D01*
X141641447Y-59214028D02*
X141879543Y-59214028D01*
X141784305Y-59452123D02*
X141879543Y-59214028D01*
X141784305Y-58975933D01*
X142070019Y-59356885D02*
X141879543Y-59214028D01*
X142070019Y-59071171D01*
X142641447Y-102309266D02*
X142165257Y-102642599D01*
X142641447Y-102880694D02*
X141641447Y-102880694D01*
X141641447Y-102499742D01*
X141689067Y-102404504D01*
X141736686Y-102356885D01*
X141831924Y-102309266D01*
X141974781Y-102309266D01*
X142070019Y-102356885D01*
X142117638Y-102404504D01*
X142165257Y-102499742D01*
X142165257Y-102880694D01*
X142117638Y-101880694D02*
X142117638Y-101547361D01*
X142641447Y-101404504D02*
X142641447Y-101880694D01*
X141641447Y-101880694D01*
X141641447Y-101404504D01*
X142117638Y-100642599D02*
X142117638Y-100975933D01*
X142641447Y-100975933D02*
X141641447Y-100975933D01*
X141641447Y-100499742D01*
X141641447Y-99975933D02*
X141879543Y-99975933D01*
X141784305Y-100214028D02*
X141879543Y-99975933D01*
X141784305Y-99737837D01*
X142070019Y-100118790D02*
X141879543Y-99975933D01*
X142070019Y-99833075D01*
X141641447Y-99214028D02*
X141879543Y-99214028D01*
X141784305Y-99452123D02*
X141879543Y-99214028D01*
X141784305Y-98975933D01*
X142070019Y-99356885D02*
X141879543Y-99214028D01*
X142070019Y-99071171D01*
X145815733Y-141148313D02*
X145482400Y-140672123D01*
X145244305Y-141148313D02*
X145244305Y-140148313D01*
X145625257Y-140148313D01*
X145720495Y-140195933D01*
X145768114Y-140243552D01*
X145815733Y-140338790D01*
X145815733Y-140481647D01*
X145768114Y-140576885D01*
X145720495Y-140624504D01*
X145625257Y-140672123D01*
X145244305Y-140672123D01*
X146244305Y-140624504D02*
X146577638Y-140624504D01*
X146720495Y-141148313D02*
X146244305Y-141148313D01*
X146244305Y-140148313D01*
X146720495Y-140148313D01*
X147482400Y-140624504D02*
X147149067Y-140624504D01*
X147149067Y-141148313D02*
X147149067Y-140148313D01*
X147625257Y-140148313D01*
X148149067Y-140148313D02*
X148149067Y-140386409D01*
X147910971Y-140291171D02*
X148149067Y-140386409D01*
X148387162Y-140291171D01*
X148006209Y-140576885D02*
X148149067Y-140386409D01*
X148291924Y-140576885D01*
X148910971Y-140148313D02*
X148910971Y-140386409D01*
X148672876Y-140291171D02*
X148910971Y-140386409D01*
X149149067Y-140291171D01*
X148768114Y-140576885D02*
X148910971Y-140386409D01*
X149053828Y-140576885D01*
X136649067Y-154648313D02*
X136649067Y-153648313D01*
X137030019Y-153648313D01*
X137125257Y-153695933D01*
X137172876Y-153743552D01*
X137220495Y-153838790D01*
X137220495Y-153981647D01*
X137172876Y-154076885D01*
X137125257Y-154124504D01*
X137030019Y-154172123D01*
X136649067Y-154172123D01*
X138077638Y-154648313D02*
X138077638Y-154124504D01*
X138030019Y-154029266D01*
X137934781Y-153981647D01*
X137744305Y-153981647D01*
X137649067Y-154029266D01*
X138077638Y-154600694D02*
X137982400Y-154648313D01*
X137744305Y-154648313D01*
X137649067Y-154600694D01*
X137601447Y-154505456D01*
X137601447Y-154410218D01*
X137649067Y-154314980D01*
X137744305Y-154267361D01*
X137982400Y-154267361D01*
X138077638Y-154219742D01*
X138553828Y-153981647D02*
X138553828Y-154648313D01*
X138553828Y-154076885D02*
X138601447Y-154029266D01*
X138696686Y-153981647D01*
X138839543Y-153981647D01*
X138934781Y-154029266D01*
X138982400Y-154124504D01*
X138982400Y-154648313D01*
X139839543Y-154600694D02*
X139744305Y-154648313D01*
X139553828Y-154648313D01*
X139458590Y-154600694D01*
X139410971Y-154505456D01*
X139410971Y-154124504D01*
X139458590Y-154029266D01*
X139553828Y-153981647D01*
X139744305Y-153981647D01*
X139839543Y-154029266D01*
X139887162Y-154124504D01*
X139887162Y-154219742D01*
X139410971Y-154314980D01*
X140458590Y-154648313D02*
X140363352Y-154600694D01*
X140315733Y-154505456D01*
X140315733Y-153648313D01*
X140839543Y-154648313D02*
X140839543Y-153648313D01*
X140839543Y-154124504D02*
X141410971Y-154124504D01*
X141410971Y-154648313D02*
X141410971Y-153648313D01*
X142030019Y-154648313D02*
X141934781Y-154600694D01*
X141887162Y-154553075D01*
X141839543Y-154457837D01*
X141839543Y-154172123D01*
X141887162Y-154076885D01*
X141934781Y-154029266D01*
X142030019Y-153981647D01*
X142172876Y-153981647D01*
X142268114Y-154029266D01*
X142315733Y-154076885D01*
X142363352Y-154172123D01*
X142363352Y-154457837D01*
X142315733Y-154553075D01*
X142268114Y-154600694D01*
X142172876Y-154648313D01*
X142030019Y-154648313D01*
X142934781Y-154648313D02*
X142839543Y-154600694D01*
X142791924Y-154505456D01*
X142791924Y-153648313D01*
X143696686Y-154600694D02*
X143601447Y-154648313D01*
X143410971Y-154648313D01*
X143315733Y-154600694D01*
X143268114Y-154505456D01*
X143268114Y-154124504D01*
X143315733Y-154029266D01*
X143410971Y-153981647D01*
X143601447Y-153981647D01*
X143696686Y-154029266D01*
X143744305Y-154124504D01*
X143744305Y-154219742D01*
X143268114Y-154314980D01*
X143934781Y-154743552D02*
X144696686Y-154743552D01*
X144887162Y-154362599D02*
X145363352Y-154362599D01*
X144791924Y-154648313D02*
X145125257Y-153648313D01*
X145458590Y-154648313D01*
X146220495Y-153981647D02*
X146220495Y-154648313D01*
X145791924Y-153981647D02*
X145791924Y-154505456D01*
X145839543Y-154600694D01*
X145934781Y-154648313D01*
X146077638Y-154648313D01*
X146172876Y-154600694D01*
X146220495Y-154553075D01*
X147125257Y-154648313D02*
X147125257Y-153648313D01*
X147125257Y-154600694D02*
X147030019Y-154648313D01*
X146839543Y-154648313D01*
X146744305Y-154600694D01*
X146696686Y-154553075D01*
X146649067Y-154457837D01*
X146649067Y-154172123D01*
X146696686Y-154076885D01*
X146744305Y-154029266D01*
X146839543Y-153981647D01*
X147030019Y-153981647D01*
X147125257Y-154029266D01*
X147601447Y-154648313D02*
X147601447Y-153981647D01*
X147601447Y-153648313D02*
X147553828Y-153695933D01*
X147601447Y-153743552D01*
X147649067Y-153695933D01*
X147601447Y-153648313D01*
X147601447Y-153743552D01*
X148220495Y-154648313D02*
X148125257Y-154600694D01*
X148077638Y-154553075D01*
X148030019Y-154457837D01*
X148030019Y-154172123D01*
X148077638Y-154076885D01*
X148125257Y-154029266D01*
X148220495Y-153981647D01*
X148363352Y-153981647D01*
X148458590Y-154029266D01*
X148506209Y-154076885D01*
X148553828Y-154172123D01*
X148553828Y-154457837D01*
X148506209Y-154553075D01*
X148458590Y-154600694D01*
X148363352Y-154648313D01*
X148220495Y-154648313D01*
X149268114Y-153648313D02*
X149268114Y-154362599D01*
X149220495Y-154505456D01*
X149125257Y-154600694D01*
X148982400Y-154648313D01*
X148887162Y-154648313D01*
X150172876Y-154648313D02*
X150172876Y-154124504D01*
X150125257Y-154029266D01*
X150030019Y-153981647D01*
X149839543Y-153981647D01*
X149744305Y-154029266D01*
X150172876Y-154600694D02*
X150077638Y-154648313D01*
X149839543Y-154648313D01*
X149744305Y-154600694D01*
X149696686Y-154505456D01*
X149696686Y-154410218D01*
X149744305Y-154314980D01*
X149839543Y-154267361D01*
X150077638Y-154267361D01*
X150172876Y-154219742D01*
X151077638Y-154600694D02*
X150982400Y-154648313D01*
X150791924Y-154648313D01*
X150696686Y-154600694D01*
X150649067Y-154553075D01*
X150601447Y-154457837D01*
X150601447Y-154172123D01*
X150649067Y-154076885D01*
X150696686Y-154029266D01*
X150791924Y-153981647D01*
X150982400Y-153981647D01*
X151077638Y-154029266D01*
X151506209Y-154648313D02*
X151506209Y-153648313D01*
X151601447Y-154267361D02*
X151887162Y-154648313D01*
X151887162Y-153981647D02*
X151506209Y-154362599D01*
X152077638Y-154743552D02*
X152839543Y-154743552D01*
X152982400Y-153648313D02*
X153601447Y-153648313D01*
X153268114Y-154029266D01*
X153410971Y-154029266D01*
X153506209Y-154076885D01*
X153553828Y-154124504D01*
X153601447Y-154219742D01*
X153601447Y-154457837D01*
X153553828Y-154553075D01*
X153506209Y-154600694D01*
X153410971Y-154648313D01*
X153125257Y-154648313D01*
X153030019Y-154600694D01*
X152982400Y-154553075D01*
X154030019Y-154553075D02*
X154077638Y-154600694D01*
X154030019Y-154648313D01*
X153982400Y-154600694D01*
X154030019Y-154553075D01*
X154030019Y-154648313D01*
X154982400Y-153648313D02*
X154506209Y-153648313D01*
X154458590Y-154124504D01*
X154506209Y-154076885D01*
X154601447Y-154029266D01*
X154839543Y-154029266D01*
X154934781Y-154076885D01*
X154982400Y-154124504D01*
X155030019Y-154219742D01*
X155030019Y-154457837D01*
X154982400Y-154553075D01*
X154934781Y-154600694D01*
X154839543Y-154648313D01*
X154601447Y-154648313D01*
X154506209Y-154600694D01*
X154458590Y-154553075D01*
X155458590Y-154648313D02*
X155458590Y-153981647D01*
X155458590Y-154076885D02*
X155506209Y-154029266D01*
X155601447Y-153981647D01*
X155744305Y-153981647D01*
X155839543Y-154029266D01*
X155887162Y-154124504D01*
X155887162Y-154648313D01*
X155887162Y-154124504D02*
X155934781Y-154029266D01*
X156030019Y-153981647D01*
X156172876Y-153981647D01*
X156268114Y-154029266D01*
X156315733Y-154124504D01*
X156315733Y-154648313D01*
X156791924Y-154648313D02*
X156791924Y-153981647D01*
X156791924Y-154076885D02*
X156839543Y-154029266D01*
X156934781Y-153981647D01*
X157077638Y-153981647D01*
X157172876Y-154029266D01*
X157220495Y-154124504D01*
X157220495Y-154648313D01*
X157220495Y-154124504D02*
X157268114Y-154029266D01*
X157363352Y-153981647D01*
X157506209Y-153981647D01*
X157601447Y-154029266D01*
X157649067Y-154124504D01*
X157649067Y-154648313D01*
X135815733Y-141148313D02*
X135482400Y-140672123D01*
X135244305Y-141148313D02*
X135244305Y-140148313D01*
X135625257Y-140148313D01*
X135720495Y-140195933D01*
X135768114Y-140243552D01*
X135815733Y-140338790D01*
X135815733Y-140481647D01*
X135768114Y-140576885D01*
X135720495Y-140624504D01*
X135625257Y-140672123D01*
X135244305Y-140672123D01*
X136244305Y-140624504D02*
X136577638Y-140624504D01*
X136720495Y-141148313D02*
X136244305Y-141148313D01*
X136244305Y-140148313D01*
X136720495Y-140148313D01*
X137482400Y-140624504D02*
X137149067Y-140624504D01*
X137149067Y-141148313D02*
X137149067Y-140148313D01*
X137625257Y-140148313D01*
X138149067Y-140148313D02*
X138149067Y-140386409D01*
X137910971Y-140291171D02*
X138149067Y-140386409D01*
X138387162Y-140291171D01*
X138006209Y-140576885D02*
X138149067Y-140386409D01*
X138291924Y-140576885D01*
X138910971Y-140148313D02*
X138910971Y-140386409D01*
X138672876Y-140291171D02*
X138910971Y-140386409D01*
X139149067Y-140291171D01*
X138768114Y-140576885D02*
X138910971Y-140386409D01*
X139053828Y-140576885D01*
X126649067Y-154648313D02*
X126649067Y-153648313D01*
X127030019Y-153648313D01*
X127125257Y-153695933D01*
X127172876Y-153743552D01*
X127220495Y-153838790D01*
X127220495Y-153981647D01*
X127172876Y-154076885D01*
X127125257Y-154124504D01*
X127030019Y-154172123D01*
X126649067Y-154172123D01*
X128077638Y-154648313D02*
X128077638Y-154124504D01*
X128030019Y-154029266D01*
X127934781Y-153981647D01*
X127744305Y-153981647D01*
X127649067Y-154029266D01*
X128077638Y-154600694D02*
X127982400Y-154648313D01*
X127744305Y-154648313D01*
X127649067Y-154600694D01*
X127601447Y-154505456D01*
X127601447Y-154410218D01*
X127649067Y-154314980D01*
X127744305Y-154267361D01*
X127982400Y-154267361D01*
X128077638Y-154219742D01*
X128553828Y-153981647D02*
X128553828Y-154648313D01*
X128553828Y-154076885D02*
X128601447Y-154029266D01*
X128696686Y-153981647D01*
X128839543Y-153981647D01*
X128934781Y-154029266D01*
X128982400Y-154124504D01*
X128982400Y-154648313D01*
X129839543Y-154600694D02*
X129744305Y-154648313D01*
X129553828Y-154648313D01*
X129458590Y-154600694D01*
X129410971Y-154505456D01*
X129410971Y-154124504D01*
X129458590Y-154029266D01*
X129553828Y-153981647D01*
X129744305Y-153981647D01*
X129839543Y-154029266D01*
X129887162Y-154124504D01*
X129887162Y-154219742D01*
X129410971Y-154314980D01*
X130458590Y-154648313D02*
X130363352Y-154600694D01*
X130315733Y-154505456D01*
X130315733Y-153648313D01*
X130839543Y-154648313D02*
X130839543Y-153648313D01*
X130839543Y-154124504D02*
X131410971Y-154124504D01*
X131410971Y-154648313D02*
X131410971Y-153648313D01*
X132030019Y-154648313D02*
X131934781Y-154600694D01*
X131887162Y-154553075D01*
X131839543Y-154457837D01*
X131839543Y-154172123D01*
X131887162Y-154076885D01*
X131934781Y-154029266D01*
X132030019Y-153981647D01*
X132172876Y-153981647D01*
X132268114Y-154029266D01*
X132315733Y-154076885D01*
X132363352Y-154172123D01*
X132363352Y-154457837D01*
X132315733Y-154553075D01*
X132268114Y-154600694D01*
X132172876Y-154648313D01*
X132030019Y-154648313D01*
X132934781Y-154648313D02*
X132839543Y-154600694D01*
X132791924Y-154505456D01*
X132791924Y-153648313D01*
X133696686Y-154600694D02*
X133601447Y-154648313D01*
X133410971Y-154648313D01*
X133315733Y-154600694D01*
X133268114Y-154505456D01*
X133268114Y-154124504D01*
X133315733Y-154029266D01*
X133410971Y-153981647D01*
X133601447Y-153981647D01*
X133696686Y-154029266D01*
X133744305Y-154124504D01*
X133744305Y-154219742D01*
X133268114Y-154314980D01*
X133934781Y-154743552D02*
X134696686Y-154743552D01*
X134887162Y-154362599D02*
X135363352Y-154362599D01*
X134791924Y-154648313D02*
X135125257Y-153648313D01*
X135458590Y-154648313D01*
X136220495Y-153981647D02*
X136220495Y-154648313D01*
X135791924Y-153981647D02*
X135791924Y-154505456D01*
X135839543Y-154600694D01*
X135934781Y-154648313D01*
X136077638Y-154648313D01*
X136172876Y-154600694D01*
X136220495Y-154553075D01*
X137125257Y-154648313D02*
X137125257Y-153648313D01*
X137125257Y-154600694D02*
X137030019Y-154648313D01*
X136839543Y-154648313D01*
X136744305Y-154600694D01*
X136696686Y-154553075D01*
X136649067Y-154457837D01*
X136649067Y-154172123D01*
X136696686Y-154076885D01*
X136744305Y-154029266D01*
X136839543Y-153981647D01*
X137030019Y-153981647D01*
X137125257Y-154029266D01*
X137601447Y-154648313D02*
X137601447Y-153981647D01*
X137601447Y-153648313D02*
X137553828Y-153695933D01*
X137601447Y-153743552D01*
X137649067Y-153695933D01*
X137601447Y-153648313D01*
X137601447Y-153743552D01*
X138220495Y-154648313D02*
X138125257Y-154600694D01*
X138077638Y-154553075D01*
X138030019Y-154457837D01*
X138030019Y-154172123D01*
X138077638Y-154076885D01*
X138125257Y-154029266D01*
X138220495Y-153981647D01*
X138363352Y-153981647D01*
X138458590Y-154029266D01*
X138506209Y-154076885D01*
X138553828Y-154172123D01*
X138553828Y-154457837D01*
X138506209Y-154553075D01*
X138458590Y-154600694D01*
X138363352Y-154648313D01*
X138220495Y-154648313D01*
X139268114Y-153648313D02*
X139268114Y-154362599D01*
X139220495Y-154505456D01*
X139125257Y-154600694D01*
X138982400Y-154648313D01*
X138887162Y-154648313D01*
X140172876Y-154648313D02*
X140172876Y-154124504D01*
X140125257Y-154029266D01*
X140030019Y-153981647D01*
X139839543Y-153981647D01*
X139744305Y-154029266D01*
X140172876Y-154600694D02*
X140077638Y-154648313D01*
X139839543Y-154648313D01*
X139744305Y-154600694D01*
X139696686Y-154505456D01*
X139696686Y-154410218D01*
X139744305Y-154314980D01*
X139839543Y-154267361D01*
X140077638Y-154267361D01*
X140172876Y-154219742D01*
X141077638Y-154600694D02*
X140982400Y-154648313D01*
X140791924Y-154648313D01*
X140696686Y-154600694D01*
X140649067Y-154553075D01*
X140601447Y-154457837D01*
X140601447Y-154172123D01*
X140649067Y-154076885D01*
X140696686Y-154029266D01*
X140791924Y-153981647D01*
X140982400Y-153981647D01*
X141077638Y-154029266D01*
X141506209Y-154648313D02*
X141506209Y-153648313D01*
X141601447Y-154267361D02*
X141887162Y-154648313D01*
X141887162Y-153981647D02*
X141506209Y-154362599D01*
X142077638Y-154743552D02*
X142839543Y-154743552D01*
X142982400Y-153648313D02*
X143601447Y-153648313D01*
X143268114Y-154029266D01*
X143410971Y-154029266D01*
X143506209Y-154076885D01*
X143553828Y-154124504D01*
X143601447Y-154219742D01*
X143601447Y-154457837D01*
X143553828Y-154553075D01*
X143506209Y-154600694D01*
X143410971Y-154648313D01*
X143125257Y-154648313D01*
X143030019Y-154600694D01*
X142982400Y-154553075D01*
X144030019Y-154553075D02*
X144077638Y-154600694D01*
X144030019Y-154648313D01*
X143982400Y-154600694D01*
X144030019Y-154553075D01*
X144030019Y-154648313D01*
X144982400Y-153648313D02*
X144506209Y-153648313D01*
X144458590Y-154124504D01*
X144506209Y-154076885D01*
X144601447Y-154029266D01*
X144839543Y-154029266D01*
X144934781Y-154076885D01*
X144982400Y-154124504D01*
X145030019Y-154219742D01*
X145030019Y-154457837D01*
X144982400Y-154553075D01*
X144934781Y-154600694D01*
X144839543Y-154648313D01*
X144601447Y-154648313D01*
X144506209Y-154600694D01*
X144458590Y-154553075D01*
X145458590Y-154648313D02*
X145458590Y-153981647D01*
X145458590Y-154076885D02*
X145506209Y-154029266D01*
X145601447Y-153981647D01*
X145744305Y-153981647D01*
X145839543Y-154029266D01*
X145887162Y-154124504D01*
X145887162Y-154648313D01*
X145887162Y-154124504D02*
X145934781Y-154029266D01*
X146030019Y-153981647D01*
X146172876Y-153981647D01*
X146268114Y-154029266D01*
X146315733Y-154124504D01*
X146315733Y-154648313D01*
X146791924Y-154648313D02*
X146791924Y-153981647D01*
X146791924Y-154076885D02*
X146839543Y-154029266D01*
X146934781Y-153981647D01*
X147077638Y-153981647D01*
X147172876Y-154029266D01*
X147220495Y-154124504D01*
X147220495Y-154648313D01*
X147220495Y-154124504D02*
X147268114Y-154029266D01*
X147363352Y-153981647D01*
X147506209Y-153981647D01*
X147601447Y-154029266D01*
X147649067Y-154124504D01*
X147649067Y-154648313D01*
X142591447Y-82309266D02*
X142115257Y-82642599D01*
X142591447Y-82880694D02*
X141591447Y-82880694D01*
X141591447Y-82499742D01*
X141639067Y-82404504D01*
X141686686Y-82356885D01*
X141781924Y-82309266D01*
X141924781Y-82309266D01*
X142020019Y-82356885D01*
X142067638Y-82404504D01*
X142115257Y-82499742D01*
X142115257Y-82880694D01*
X142067638Y-81880694D02*
X142067638Y-81547361D01*
X142591447Y-81404504D02*
X142591447Y-81880694D01*
X141591447Y-81880694D01*
X141591447Y-81404504D01*
X142067638Y-80642599D02*
X142067638Y-80975933D01*
X142591447Y-80975933D02*
X141591447Y-80975933D01*
X141591447Y-80499742D01*
X141591447Y-79975933D02*
X141829543Y-79975933D01*
X141734305Y-80214028D02*
X141829543Y-79975933D01*
X141734305Y-79737837D01*
X142020019Y-80118790D02*
X141829543Y-79975933D01*
X142020019Y-79833075D01*
X141591447Y-79214028D02*
X141829543Y-79214028D01*
X141734305Y-79452123D02*
X141829543Y-79214028D01*
X141734305Y-78975933D01*
X142020019Y-79356885D02*
X141829543Y-79214028D01*
X142020019Y-79071171D01*
D11*
X132649067Y-132575933D02*
X132649067Y-122175933D01*
X137149067Y-120095933D02*
X137149067Y-122125933D01*
X141649067Y-132575933D02*
X141649067Y-122175933D01*
X141649067Y-132575933D02*
X132649067Y-132575933D01*
X141649067Y-122125933D02*
X132649067Y-122125933D01*
D12*
X141149067Y-126595933D02*
G75*
G03*
X141149067Y-126595933I-4000000J0D01*
G01*
D11*
X146899067Y-56245933D02*
X137399067Y-56245933D01*
X146899067Y-67595933D02*
X137399067Y-67595933D01*
X146899067Y-67595933D02*
X146899067Y-56245933D01*
X137399067Y-67595933D02*
X137399067Y-56245933D01*
D12*
X149649067Y-61095933D02*
G75*
G03*
X149649067Y-61095933I-7500000J0D01*
G01*
D11*
X145649067Y-61095933D02*
G75*
G03*
X145649067Y-61095933I-3500000J0D01*
G01*
X146899067Y-107595933D02*
X137399067Y-107595933D01*
X137399067Y-107595933D02*
X137399067Y-96245933D01*
X146899067Y-107595933D02*
X146899067Y-96245933D01*
X146899067Y-96245933D02*
X137399067Y-96245933D01*
D12*
X149649067Y-101095933D02*
G75*
G03*
X149649067Y-101095933I-7500000J0D01*
G01*
D11*
X145649067Y-101095933D02*
G75*
G03*
X145649067Y-101095933I-3500000J0D01*
G01*
X151649067Y-152675933D02*
X142649067Y-152675933D01*
X147149067Y-140195933D02*
X147149067Y-142225933D01*
X151649067Y-142225933D02*
X142649067Y-142225933D01*
X142649067Y-152675933D02*
X142649067Y-142275933D01*
X151649067Y-152675933D02*
X151649067Y-142275933D01*
D12*
X151149067Y-146695933D02*
G75*
G03*
X151149067Y-146695933I-4000000J0D01*
G01*
D11*
X132649067Y-152675933D02*
X132649067Y-142275933D01*
X141649067Y-152675933D02*
X132649067Y-152675933D01*
X141649067Y-142225933D02*
X132649067Y-142225933D01*
X141649067Y-152675933D02*
X141649067Y-142275933D01*
X137149067Y-140195933D02*
X137149067Y-142225933D01*
D12*
X141149067Y-146695933D02*
G75*
G03*
X141149067Y-146695933I-4000000J0D01*
G01*
D11*
X146849067Y-87595933D02*
X146849067Y-76245933D01*
X146849067Y-87595933D02*
X137349067Y-87595933D01*
X146849067Y-76245933D02*
X137349067Y-76245933D01*
X137349067Y-87595933D02*
X137349067Y-76245933D01*
D12*
X149599067Y-81095933D02*
G75*
G03*
X149599067Y-81095933I-7500000J0D01*
G01*
D11*
X145599067Y-81095933D02*
G75*
G03*
X145599067Y-81095933I-3500000J0D01*
G01*
%TD*%
M02*
