%TF.GenerationSoftware,KiCad,Pcbnew,6.0.10+dfsg-1~bpo11+1*%
%TF.CreationDate,2023-02-01T15:11:04+08:00*%
%TF.ProjectId,MiniVerb v2.0 - Main,4d696e69-5665-4726-9220-76322e30202d,rev?*%
%TF.SameCoordinates,Original*%
%TF.FileFunction,Drillmap*%
%TF.FilePolarity,Positive*%
%FSLAX45Y45*%
G04 Gerber Fmt 4.5, Leading zero omitted, Abs format (unit mm)*
G04 Created by KiCad (PCBNEW 6.0.10+dfsg-1~bpo11+1) date 2023-02-01 15:11:04*
%MOMM*%
%LPD*%
G01*
G04 APERTURE LIST*
%ADD10C,0.100000*%
%ADD11C,0.200000*%
G04 APERTURE END LIST*
D10*
X14500000Y-16650000D02*
X12500000Y-16650000D01*
X12500000Y-16650000D02*
X12500000Y-6300000D01*
X12500000Y-6300000D02*
X14500000Y-6300000D01*
X14500000Y-6300000D02*
X14500000Y-16650000D01*
D11*
X12752619Y-16965476D02*
X12752619Y-16765476D01*
X12800238Y-16765476D01*
X12828809Y-16775000D01*
X12847857Y-16794048D01*
X12857381Y-16813095D01*
X12866905Y-16851190D01*
X12866905Y-16879762D01*
X12857381Y-16917857D01*
X12847857Y-16936905D01*
X12828809Y-16955952D01*
X12800238Y-16965476D01*
X12752619Y-16965476D01*
X12952619Y-16965476D02*
X12952619Y-16832143D01*
X12952619Y-16870238D02*
X12962143Y-16851190D01*
X12971667Y-16841667D01*
X12990714Y-16832143D01*
X13009762Y-16832143D01*
X13076428Y-16965476D02*
X13076428Y-16832143D01*
X13076428Y-16765476D02*
X13066905Y-16775000D01*
X13076428Y-16784524D01*
X13085952Y-16775000D01*
X13076428Y-16765476D01*
X13076428Y-16784524D01*
X13200238Y-16965476D02*
X13181190Y-16955952D01*
X13171667Y-16936905D01*
X13171667Y-16765476D01*
X13305000Y-16965476D02*
X13285952Y-16955952D01*
X13276428Y-16936905D01*
X13276428Y-16765476D01*
X13533571Y-16965476D02*
X13533571Y-16765476D01*
X13600238Y-16908333D01*
X13666905Y-16765476D01*
X13666905Y-16965476D01*
X13847857Y-16965476D02*
X13847857Y-16860714D01*
X13838333Y-16841667D01*
X13819286Y-16832143D01*
X13781190Y-16832143D01*
X13762143Y-16841667D01*
X13847857Y-16955952D02*
X13828809Y-16965476D01*
X13781190Y-16965476D01*
X13762143Y-16955952D01*
X13752619Y-16936905D01*
X13752619Y-16917857D01*
X13762143Y-16898810D01*
X13781190Y-16889286D01*
X13828809Y-16889286D01*
X13847857Y-16879762D01*
X13943095Y-16832143D02*
X13943095Y-17032143D01*
X13943095Y-16841667D02*
X13962143Y-16832143D01*
X14000238Y-16832143D01*
X14019286Y-16841667D01*
X14028809Y-16851190D01*
X14038333Y-16870238D01*
X14038333Y-16927381D01*
X14028809Y-16946429D01*
X14019286Y-16955952D01*
X14000238Y-16965476D01*
X13962143Y-16965476D01*
X13943095Y-16955952D01*
X14124048Y-16946429D02*
X14133571Y-16955952D01*
X14124048Y-16965476D01*
X14114524Y-16955952D01*
X14124048Y-16946429D01*
X14124048Y-16965476D01*
X14124048Y-16841667D02*
X14133571Y-16851190D01*
X14124048Y-16860714D01*
X14114524Y-16851190D01*
X14124048Y-16841667D01*
X14124048Y-16860714D01*
M02*
