%TF.GenerationSoftware,KiCad,Pcbnew,6.0.10+dfsg-1~bpo11+1*%
%TF.CreationDate,2023-02-01T15:11:05+08:00*%
%TF.ProjectId,MiniVerb v2.0 - Main,4d696e69-5665-4726-9220-76322e30202d,rev?*%
%TF.SameCoordinates,Original*%
%TF.FileFunction,Soldermask,Top*%
%TF.FilePolarity,Negative*%
%FSLAX46Y46*%
G04 Gerber Fmt 4.6, Leading zero omitted, Abs format (unit mm)*
G04 Created by KiCad (PCBNEW 6.0.10+dfsg-1~bpo11+1) date 2023-02-01 15:11:05*
%MOMM*%
%LPD*%
G01*
G04 APERTURE LIST*
G04 Aperture macros list*
%AMRoundRect*
0 Rectangle with rounded corners*
0 $1 Rounding radius*
0 $2 $3 $4 $5 $6 $7 $8 $9 X,Y pos of 4 corners*
0 Add a 4 corners polygon primitive as box body*
4,1,4,$2,$3,$4,$5,$6,$7,$8,$9,$2,$3,0*
0 Add four circle primitives for the rounded corners*
1,1,$1+$1,$2,$3*
1,1,$1+$1,$4,$5*
1,1,$1+$1,$6,$7*
1,1,$1+$1,$8,$9*
0 Add four rect primitives between the rounded corners*
20,1,$1+$1,$2,$3,$4,$5,0*
20,1,$1+$1,$4,$5,$6,$7,0*
20,1,$1+$1,$6,$7,$8,$9,0*
20,1,$1+$1,$8,$9,$2,$3,0*%
G04 Aperture macros list end*
%ADD10RoundRect,0.237500X0.237500X-0.300000X0.237500X0.300000X-0.237500X0.300000X-0.237500X-0.300000X0*%
%ADD11RoundRect,0.250000X-0.337500X-0.475000X0.337500X-0.475000X0.337500X0.475000X-0.337500X0.475000X0*%
%ADD12O,2.720000X3.240000*%
%ADD13R,1.800000X1.800000*%
%ADD14C,1.800000*%
%ADD15R,1.000000X1.000000*%
%ADD16R,0.800000X1.900000*%
%ADD17RoundRect,0.237500X0.250000X0.237500X-0.250000X0.237500X-0.250000X-0.237500X0.250000X-0.237500X0*%
%ADD18C,2.000000*%
%ADD19RoundRect,0.237500X-0.237500X0.250000X-0.237500X-0.250000X0.237500X-0.250000X0.237500X0.250000X0*%
%ADD20R,1.930000X1.830000*%
%ADD21C,2.130000*%
%ADD22RoundRect,0.150000X-0.150000X0.512500X-0.150000X-0.512500X0.150000X-0.512500X0.150000X0.512500X0*%
%ADD23RoundRect,0.237500X0.300000X0.237500X-0.300000X0.237500X-0.300000X-0.237500X0.300000X-0.237500X0*%
%ADD24RoundRect,0.237500X0.237500X-0.250000X0.237500X0.250000X-0.237500X0.250000X-0.237500X-0.250000X0*%
%ADD25RoundRect,0.237500X-0.237500X0.300000X-0.237500X-0.300000X0.237500X-0.300000X0.237500X0.300000X0*%
%ADD26RoundRect,0.250000X-0.600000X-0.600000X0.600000X-0.600000X0.600000X0.600000X-0.600000X0.600000X0*%
%ADD27C,1.700000*%
%ADD28R,1.700000X1.700000*%
G04 APERTURE END LIST*
D10*
%TO.C,C13*%
X133804000Y-127219000D03*
X133804000Y-125494000D03*
%TD*%
D11*
%TO.C,C5*%
X138962500Y-133011000D03*
X141037500Y-133011000D03*
%TD*%
D12*
%TO.C,FEEDBACK_POT1*%
X130200000Y-94045000D03*
X139800000Y-94045000D03*
D13*
X132500000Y-101545000D03*
D14*
X135000000Y-101545000D03*
X137500000Y-101545000D03*
%TD*%
D15*
%TO.C,TP5*%
X140225000Y-65975000D03*
%TD*%
D16*
%TO.C,U2*%
X133162000Y-150344000D03*
X135062000Y-150344000D03*
X134112000Y-147344000D03*
%TD*%
D17*
%TO.C,R17*%
X132156500Y-130346500D03*
X130331500Y-130346500D03*
%TD*%
D11*
%TO.C,C6*%
X139050000Y-148511000D03*
X141125000Y-148511000D03*
%TD*%
D18*
%TO.C,TP3*%
X141800000Y-128600000D03*
%TD*%
D19*
%TO.C,R14*%
X128774000Y-128534000D03*
X128774000Y-130359000D03*
%TD*%
D20*
%TO.C,CV1_IN1*%
X129970000Y-133040000D03*
D21*
X129970000Y-144440000D03*
X129970000Y-136140000D03*
%TD*%
D22*
%TO.C,U3*%
X132244000Y-124819000D03*
X131294000Y-124819000D03*
X130344000Y-124819000D03*
X130344000Y-127094000D03*
X132244000Y-127094000D03*
%TD*%
D23*
%TO.C,C14*%
X132116500Y-128816500D03*
X130391500Y-128816500D03*
%TD*%
D20*
%TO.C,AUDIO_OUT1*%
X140000000Y-153162000D03*
D21*
X140000000Y-164562000D03*
X140000000Y-156262000D03*
%TD*%
D24*
%TO.C,R11*%
X143510000Y-145184500D03*
X143510000Y-143359500D03*
%TD*%
D25*
%TO.C,C9*%
X136906000Y-148489500D03*
X136906000Y-150214500D03*
%TD*%
D12*
%TO.C,MOD_POT1*%
X130260000Y-114055000D03*
X139860000Y-114055000D03*
D13*
X132560000Y-121555000D03*
D14*
X135060000Y-121555000D03*
X137560000Y-121555000D03*
%TD*%
D12*
%TO.C,LEVEL_POT1*%
X130220000Y-74055000D03*
X139820000Y-74055000D03*
D13*
X132520000Y-81555000D03*
D14*
X135020000Y-81555000D03*
X137520000Y-81555000D03*
%TD*%
D13*
%TO.C,D1*%
X127775000Y-149000000D03*
D14*
X130315000Y-149000000D03*
%TD*%
D15*
%TO.C,TP7*%
X130275000Y-66025000D03*
%TD*%
D19*
%TO.C,R12*%
X136906000Y-145034000D03*
X136906000Y-146859000D03*
%TD*%
%TO.C,R16*%
X127254000Y-128524000D03*
X127254000Y-130349000D03*
%TD*%
D20*
%TO.C,AUDIO_IN1*%
X130000000Y-153162000D03*
D21*
X130000000Y-164562000D03*
X130000000Y-156262000D03*
%TD*%
D15*
%TO.C,TP4*%
X142600000Y-121800000D03*
%TD*%
%TO.C,TP1*%
X142600000Y-116700000D03*
%TD*%
%TO.C,TP2*%
X142600000Y-119200000D03*
%TD*%
D26*
%TO.C,J1*%
X138747500Y-146011000D03*
D27*
X141287500Y-146011000D03*
X138747500Y-143471000D03*
X141287500Y-143471000D03*
X138747500Y-140931000D03*
X141287500Y-140931000D03*
X138747500Y-138391000D03*
X141287500Y-138391000D03*
X138747500Y-135851000D03*
X141287500Y-135851000D03*
%TD*%
D28*
%TO.C,A1*%
X127560933Y-113050000D03*
D27*
X127560933Y-110510000D03*
X127560933Y-107970000D03*
X127560933Y-105430000D03*
X127560933Y-102890000D03*
X127560933Y-100350000D03*
X127560933Y-97810000D03*
X127560933Y-95270000D03*
X127560933Y-92730000D03*
X127560933Y-90190000D03*
X127560933Y-87650000D03*
X127560933Y-85110000D03*
X127560933Y-82570000D03*
X127560933Y-80030000D03*
X127560933Y-77490000D03*
X127560933Y-74950000D03*
X127560933Y-72410000D03*
X127560933Y-69870000D03*
X127560933Y-67330000D03*
X127560933Y-64790000D03*
X142800933Y-64790000D03*
X142800933Y-67330000D03*
X142800933Y-69870000D03*
X142800933Y-72410000D03*
X142800933Y-74950000D03*
X142800933Y-77490000D03*
X142800933Y-80030000D03*
X142800933Y-82570000D03*
X142800933Y-85110000D03*
X142800933Y-87650000D03*
X142800933Y-90190000D03*
X142800933Y-92730000D03*
X142800933Y-95270000D03*
X142800933Y-97810000D03*
X142800933Y-100350000D03*
X142800933Y-102890000D03*
X142800933Y-105430000D03*
X142800933Y-107970000D03*
X142800933Y-110510000D03*
X142800933Y-113050000D03*
%TD*%
M02*
