%TF.GenerationSoftware,KiCad,Pcbnew,6.0.10+dfsg-1~bpo11+1*%
%TF.CreationDate,2023-02-01T15:11:05+08:00*%
%TF.ProjectId,MiniVerb v2.0 - Main,4d696e69-5665-4726-9220-76322e30202d,rev?*%
%TF.SameCoordinates,Original*%
%TF.FileFunction,AssemblyDrawing,Bot*%
%FSLAX46Y46*%
G04 Gerber Fmt 4.6, Leading zero omitted, Abs format (unit mm)*
G04 Created by KiCad (PCBNEW 6.0.10+dfsg-1~bpo11+1) date 2023-02-01 15:11:05*
%MOMM*%
%LPD*%
G01*
G04 APERTURE LIST*
%ADD10C,0.150000*%
%ADD11C,0.060000*%
%ADD12C,0.100000*%
G04 APERTURE END LIST*
D10*
%TO.C,R9*%
X133022380Y-130880952D02*
X133022380Y-130309523D01*
X133022380Y-130595238D02*
X132022380Y-130595238D01*
X132165238Y-130500000D01*
X132260476Y-130404761D01*
X132308095Y-130309523D01*
X133022380Y-131309523D02*
X132022380Y-131309523D01*
X132641428Y-131404761D02*
X133022380Y-131690476D01*
X132355714Y-131690476D02*
X132736666Y-131309523D01*
D11*
X134180952Y-130933333D02*
X133990476Y-130800000D01*
X134180952Y-130704761D02*
X133780952Y-130704761D01*
X133780952Y-130857142D01*
X133800000Y-130895238D01*
X133819047Y-130914285D01*
X133857142Y-130933333D01*
X133914285Y-130933333D01*
X133952380Y-130914285D01*
X133971428Y-130895238D01*
X133990476Y-130857142D01*
X133990476Y-130704761D01*
X134180952Y-131123809D02*
X134180952Y-131200000D01*
X134161904Y-131238095D01*
X134142857Y-131257142D01*
X134085714Y-131295238D01*
X134009523Y-131314285D01*
X133857142Y-131314285D01*
X133819047Y-131295238D01*
X133800000Y-131276190D01*
X133780952Y-131238095D01*
X133780952Y-131161904D01*
X133800000Y-131123809D01*
X133819047Y-131104761D01*
X133857142Y-131085714D01*
X133952380Y-131085714D01*
X133990476Y-131104761D01*
X134009523Y-131123809D01*
X134028571Y-131161904D01*
X134028571Y-131238095D01*
X134009523Y-131276190D01*
X133990476Y-131295238D01*
X133952380Y-131314285D01*
D10*
%TO.C,C7*%
X137267619Y-102522380D02*
X137839047Y-102522380D01*
X137553333Y-102522380D02*
X137553333Y-101522380D01*
X137648571Y-101665238D01*
X137743809Y-101760476D01*
X137839047Y-101808095D01*
X136648571Y-101522380D02*
X136553333Y-101522380D01*
X136458095Y-101570000D01*
X136410476Y-101617619D01*
X136362857Y-101712857D01*
X136315238Y-101903333D01*
X136315238Y-102141428D01*
X136362857Y-102331904D01*
X136410476Y-102427142D01*
X136458095Y-102474761D01*
X136553333Y-102522380D01*
X136648571Y-102522380D01*
X136743809Y-102474761D01*
X136791428Y-102427142D01*
X136839047Y-102331904D01*
X136886666Y-102141428D01*
X136886666Y-101903333D01*
X136839047Y-101712857D01*
X136791428Y-101617619D01*
X136743809Y-101570000D01*
X136648571Y-101522380D01*
X135696190Y-101522380D02*
X135600952Y-101522380D01*
X135505714Y-101570000D01*
X135458095Y-101617619D01*
X135410476Y-101712857D01*
X135362857Y-101903333D01*
X135362857Y-102141428D01*
X135410476Y-102331904D01*
X135458095Y-102427142D01*
X135505714Y-102474761D01*
X135600952Y-102522380D01*
X135696190Y-102522380D01*
X135791428Y-102474761D01*
X135839047Y-102427142D01*
X135886666Y-102331904D01*
X135934285Y-102141428D01*
X135934285Y-101903333D01*
X135886666Y-101712857D01*
X135839047Y-101617619D01*
X135791428Y-101570000D01*
X135696190Y-101522380D01*
X134934285Y-101855714D02*
X134934285Y-102522380D01*
X134934285Y-101950952D02*
X134886666Y-101903333D01*
X134791428Y-101855714D01*
X134648571Y-101855714D01*
X134553333Y-101903333D01*
X134505714Y-101998571D01*
X134505714Y-102522380D01*
X133696190Y-101998571D02*
X134029523Y-101998571D01*
X134029523Y-102522380D02*
X134029523Y-101522380D01*
X133553333Y-101522380D01*
D11*
X135786666Y-103642857D02*
X135805714Y-103661904D01*
X135862857Y-103680952D01*
X135900952Y-103680952D01*
X135958095Y-103661904D01*
X135996190Y-103623809D01*
X136015238Y-103585714D01*
X136034285Y-103509523D01*
X136034285Y-103452380D01*
X136015238Y-103376190D01*
X135996190Y-103338095D01*
X135958095Y-103300000D01*
X135900952Y-103280952D01*
X135862857Y-103280952D01*
X135805714Y-103300000D01*
X135786666Y-103319047D01*
X135653333Y-103280952D02*
X135386666Y-103280952D01*
X135558095Y-103680952D01*
D10*
%TO.C,C8*%
X132622380Y-111952380D02*
X132622380Y-111380952D01*
X132622380Y-111666666D02*
X131622380Y-111666666D01*
X131765238Y-111571428D01*
X131860476Y-111476190D01*
X131908095Y-111380952D01*
X131622380Y-112571428D02*
X131622380Y-112666666D01*
X131670000Y-112761904D01*
X131717619Y-112809523D01*
X131812857Y-112857142D01*
X132003333Y-112904761D01*
X132241428Y-112904761D01*
X132431904Y-112857142D01*
X132527142Y-112809523D01*
X132574761Y-112761904D01*
X132622380Y-112666666D01*
X132622380Y-112571428D01*
X132574761Y-112476190D01*
X132527142Y-112428571D01*
X132431904Y-112380952D01*
X132241428Y-112333333D01*
X132003333Y-112333333D01*
X131812857Y-112380952D01*
X131717619Y-112428571D01*
X131670000Y-112476190D01*
X131622380Y-112571428D01*
X131622380Y-113523809D02*
X131622380Y-113619047D01*
X131670000Y-113714285D01*
X131717619Y-113761904D01*
X131812857Y-113809523D01*
X132003333Y-113857142D01*
X132241428Y-113857142D01*
X132431904Y-113809523D01*
X132527142Y-113761904D01*
X132574761Y-113714285D01*
X132622380Y-113619047D01*
X132622380Y-113523809D01*
X132574761Y-113428571D01*
X132527142Y-113380952D01*
X132431904Y-113333333D01*
X132241428Y-113285714D01*
X132003333Y-113285714D01*
X131812857Y-113333333D01*
X131717619Y-113380952D01*
X131670000Y-113428571D01*
X131622380Y-113523809D01*
X131955714Y-114285714D02*
X132622380Y-114285714D01*
X132050952Y-114285714D02*
X132003333Y-114333333D01*
X131955714Y-114428571D01*
X131955714Y-114571428D01*
X132003333Y-114666666D01*
X132098571Y-114714285D01*
X132622380Y-114714285D01*
X132098571Y-115523809D02*
X132098571Y-115190476D01*
X132622380Y-115190476D02*
X131622380Y-115190476D01*
X131622380Y-115666666D01*
D11*
X133742857Y-113433333D02*
X133761904Y-113414285D01*
X133780952Y-113357142D01*
X133780952Y-113319047D01*
X133761904Y-113261904D01*
X133723809Y-113223809D01*
X133685714Y-113204761D01*
X133609523Y-113185714D01*
X133552380Y-113185714D01*
X133476190Y-113204761D01*
X133438095Y-113223809D01*
X133400000Y-113261904D01*
X133380952Y-113319047D01*
X133380952Y-113357142D01*
X133400000Y-113414285D01*
X133419047Y-113433333D01*
X133552380Y-113661904D02*
X133533333Y-113623809D01*
X133514285Y-113604761D01*
X133476190Y-113585714D01*
X133457142Y-113585714D01*
X133419047Y-113604761D01*
X133400000Y-113623809D01*
X133380952Y-113661904D01*
X133380952Y-113738095D01*
X133400000Y-113776190D01*
X133419047Y-113795238D01*
X133457142Y-113814285D01*
X133476190Y-113814285D01*
X133514285Y-113795238D01*
X133533333Y-113776190D01*
X133552380Y-113738095D01*
X133552380Y-113661904D01*
X133571428Y-113623809D01*
X133590476Y-113604761D01*
X133628571Y-113585714D01*
X133704761Y-113585714D01*
X133742857Y-113604761D01*
X133761904Y-113623809D01*
X133780952Y-113661904D01*
X133780952Y-113738095D01*
X133761904Y-113776190D01*
X133742857Y-113795238D01*
X133704761Y-113814285D01*
X133628571Y-113814285D01*
X133590476Y-113795238D01*
X133571428Y-113776190D01*
X133552380Y-113738095D01*
D10*
%TO.C,TP4*%
X140502380Y-118633333D02*
X140502380Y-119204761D01*
X141502380Y-118919047D02*
X140502380Y-118919047D01*
X141502380Y-119538095D02*
X140502380Y-119538095D01*
X140502380Y-119919047D01*
X140550000Y-120014285D01*
X140597619Y-120061904D01*
X140692857Y-120109523D01*
X140835714Y-120109523D01*
X140930952Y-120061904D01*
X140978571Y-120014285D01*
X141026190Y-119919047D01*
X141026190Y-119538095D01*
X141597619Y-120300000D02*
X141597619Y-121061904D01*
X141121428Y-121300000D02*
X141121428Y-122061904D01*
X141502380Y-123061904D02*
X141502380Y-122490476D01*
X141502380Y-122776190D02*
X140502380Y-122776190D01*
X140645238Y-122680952D01*
X140740476Y-122585714D01*
X140788095Y-122490476D01*
X140502380Y-123680952D02*
X140502380Y-123776190D01*
X140550000Y-123871428D01*
X140597619Y-123919047D01*
X140692857Y-123966666D01*
X140883333Y-124014285D01*
X141121428Y-124014285D01*
X141311904Y-123966666D01*
X141407142Y-123919047D01*
X141454761Y-123871428D01*
X141502380Y-123776190D01*
X141502380Y-123680952D01*
X141454761Y-123585714D01*
X141407142Y-123538095D01*
X141311904Y-123490476D01*
X141121428Y-123442857D01*
X140883333Y-123442857D01*
X140692857Y-123490476D01*
X140597619Y-123538095D01*
X140550000Y-123585714D01*
X140502380Y-123680952D01*
X140502380Y-124300000D02*
X141502380Y-124633333D01*
X140502380Y-124966666D01*
X143502380Y-120538095D02*
X143502380Y-121109523D01*
X144502380Y-120823809D02*
X143502380Y-120823809D01*
X144502380Y-121442857D02*
X143502380Y-121442857D01*
X143502380Y-121823809D01*
X143550000Y-121919047D01*
X143597619Y-121966666D01*
X143692857Y-122014285D01*
X143835714Y-122014285D01*
X143930952Y-121966666D01*
X143978571Y-121919047D01*
X144026190Y-121823809D01*
X144026190Y-121442857D01*
X143835714Y-122871428D02*
X144502380Y-122871428D01*
X143454761Y-122633333D02*
X144169047Y-122395238D01*
X144169047Y-123014285D01*
%TO.C,C2*%
X134454166Y-128215714D02*
X134454166Y-128882380D01*
X134692261Y-127834761D02*
X134930357Y-128549047D01*
X134311309Y-128549047D01*
X134025595Y-127882380D02*
X133358928Y-127882380D01*
X133787500Y-128882380D01*
X132977976Y-128215714D02*
X132977976Y-129215714D01*
X132977976Y-128263333D02*
X132882738Y-128215714D01*
X132692261Y-128215714D01*
X132597023Y-128263333D01*
X132549404Y-128310952D01*
X132501785Y-128406190D01*
X132501785Y-128691904D01*
X132549404Y-128787142D01*
X132597023Y-128834761D01*
X132692261Y-128882380D01*
X132882738Y-128882380D01*
X132977976Y-128834761D01*
X131739880Y-128358571D02*
X132073214Y-128358571D01*
X132073214Y-128882380D02*
X132073214Y-127882380D01*
X131597023Y-127882380D01*
D11*
X133354166Y-127142857D02*
X133373214Y-127161904D01*
X133430357Y-127180952D01*
X133468452Y-127180952D01*
X133525595Y-127161904D01*
X133563690Y-127123809D01*
X133582738Y-127085714D01*
X133601785Y-127009523D01*
X133601785Y-126952380D01*
X133582738Y-126876190D01*
X133563690Y-126838095D01*
X133525595Y-126800000D01*
X133468452Y-126780952D01*
X133430357Y-126780952D01*
X133373214Y-126800000D01*
X133354166Y-126819047D01*
X133201785Y-126819047D02*
X133182738Y-126800000D01*
X133144642Y-126780952D01*
X133049404Y-126780952D01*
X133011309Y-126800000D01*
X132992261Y-126819047D01*
X132973214Y-126857142D01*
X132973214Y-126895238D01*
X132992261Y-126952380D01*
X133220833Y-127180952D01*
X132973214Y-127180952D01*
D10*
%TO.C,R1*%
X134795238Y-95100380D02*
X135366666Y-95100380D01*
X135080952Y-95100380D02*
X135080952Y-94100380D01*
X135176190Y-94243238D01*
X135271428Y-94338476D01*
X135366666Y-94386095D01*
X134176190Y-94100380D02*
X134080952Y-94100380D01*
X133985714Y-94148000D01*
X133938095Y-94195619D01*
X133890476Y-94290857D01*
X133842857Y-94481333D01*
X133842857Y-94719428D01*
X133890476Y-94909904D01*
X133938095Y-95005142D01*
X133985714Y-95052761D01*
X134080952Y-95100380D01*
X134176190Y-95100380D01*
X134271428Y-95052761D01*
X134319047Y-95005142D01*
X134366666Y-94909904D01*
X134414285Y-94719428D01*
X134414285Y-94481333D01*
X134366666Y-94290857D01*
X134319047Y-94195619D01*
X134271428Y-94148000D01*
X134176190Y-94100380D01*
X133414285Y-95100380D02*
X133414285Y-94100380D01*
X133319047Y-94719428D02*
X133033333Y-95100380D01*
X133033333Y-94433714D02*
X133414285Y-94814666D01*
D11*
X134266666Y-93398952D02*
X134400000Y-93208476D01*
X134495238Y-93398952D02*
X134495238Y-92998952D01*
X134342857Y-92998952D01*
X134304761Y-93018000D01*
X134285714Y-93037047D01*
X134266666Y-93075142D01*
X134266666Y-93132285D01*
X134285714Y-93170380D01*
X134304761Y-93189428D01*
X134342857Y-93208476D01*
X134495238Y-93208476D01*
X133885714Y-93398952D02*
X134114285Y-93398952D01*
X134000000Y-93398952D02*
X134000000Y-92998952D01*
X134038095Y-93056095D01*
X134076190Y-93094190D01*
X134114285Y-93113238D01*
D10*
%TO.C,TP1*%
X140502380Y-114152380D02*
X140502380Y-114723809D01*
X141502380Y-114438095D02*
X140502380Y-114438095D01*
X141502380Y-115057142D02*
X140502380Y-115057142D01*
X140502380Y-115438095D01*
X140550000Y-115533333D01*
X140597619Y-115580952D01*
X140692857Y-115628571D01*
X140835714Y-115628571D01*
X140930952Y-115580952D01*
X140978571Y-115533333D01*
X141026190Y-115438095D01*
X141026190Y-115057142D01*
X141597619Y-115819047D02*
X141597619Y-116580952D01*
X141502380Y-117342857D02*
X141502380Y-116771428D01*
X141502380Y-117057142D02*
X140502380Y-117057142D01*
X140645238Y-116961904D01*
X140740476Y-116866666D01*
X140788095Y-116771428D01*
X140597619Y-117723809D02*
X140550000Y-117771428D01*
X140502380Y-117866666D01*
X140502380Y-118104761D01*
X140550000Y-118200000D01*
X140597619Y-118247619D01*
X140692857Y-118295238D01*
X140788095Y-118295238D01*
X140930952Y-118247619D01*
X141502380Y-117676190D01*
X141502380Y-118295238D01*
X140502380Y-118580952D02*
X141502380Y-118914285D01*
X140502380Y-119247619D01*
X143502380Y-115438095D02*
X143502380Y-116009523D01*
X144502380Y-115723809D02*
X143502380Y-115723809D01*
X144502380Y-116342857D02*
X143502380Y-116342857D01*
X143502380Y-116723809D01*
X143550000Y-116819047D01*
X143597619Y-116866666D01*
X143692857Y-116914285D01*
X143835714Y-116914285D01*
X143930952Y-116866666D01*
X143978571Y-116819047D01*
X144026190Y-116723809D01*
X144026190Y-116342857D01*
X144502380Y-117866666D02*
X144502380Y-117295238D01*
X144502380Y-117580952D02*
X143502380Y-117580952D01*
X143645238Y-117485714D01*
X143740476Y-117390476D01*
X143788095Y-117295238D01*
%TO.C,U1*%
X139606380Y-105870952D02*
X139606380Y-106442380D01*
X140606380Y-106156666D02*
X139606380Y-106156666D01*
X140606380Y-107251904D02*
X140606380Y-106775714D01*
X139606380Y-106775714D01*
X139606380Y-107775714D02*
X139606380Y-107870952D01*
X139654000Y-107966190D01*
X139701619Y-108013809D01*
X139796857Y-108061428D01*
X139987333Y-108109047D01*
X140225428Y-108109047D01*
X140415904Y-108061428D01*
X140511142Y-108013809D01*
X140558761Y-107966190D01*
X140606380Y-107870952D01*
X140606380Y-107775714D01*
X140558761Y-107680476D01*
X140511142Y-107632857D01*
X140415904Y-107585238D01*
X140225428Y-107537619D01*
X139987333Y-107537619D01*
X139796857Y-107585238D01*
X139701619Y-107632857D01*
X139654000Y-107680476D01*
X139606380Y-107775714D01*
X139606380Y-108442380D02*
X139606380Y-109109047D01*
X140606380Y-108680476D01*
X139939714Y-109918571D02*
X140606380Y-109918571D01*
X139558761Y-109680476D02*
X140273047Y-109442380D01*
X140273047Y-110061428D01*
X134337333Y-107243333D02*
X135130666Y-107243333D01*
X135224000Y-107290000D01*
X135270666Y-107336666D01*
X135317333Y-107430000D01*
X135317333Y-107616666D01*
X135270666Y-107710000D01*
X135224000Y-107756666D01*
X135130666Y-107803333D01*
X134337333Y-107803333D01*
X135317333Y-108783333D02*
X135317333Y-108223333D01*
X135317333Y-108503333D02*
X134337333Y-108503333D01*
X134477333Y-108410000D01*
X134570666Y-108316666D01*
X134617333Y-108223333D01*
%TO.C,TP2*%
X140502380Y-116033333D02*
X140502380Y-116604761D01*
X141502380Y-116319047D02*
X140502380Y-116319047D01*
X141502380Y-116938095D02*
X140502380Y-116938095D01*
X140502380Y-117319047D01*
X140550000Y-117414285D01*
X140597619Y-117461904D01*
X140692857Y-117509523D01*
X140835714Y-117509523D01*
X140930952Y-117461904D01*
X140978571Y-117414285D01*
X141026190Y-117319047D01*
X141026190Y-116938095D01*
X141597619Y-117700000D02*
X141597619Y-118461904D01*
X141121428Y-118700000D02*
X141121428Y-119461904D01*
X141502380Y-120461904D02*
X141502380Y-119890476D01*
X141502380Y-120176190D02*
X140502380Y-120176190D01*
X140645238Y-120080952D01*
X140740476Y-119985714D01*
X140788095Y-119890476D01*
X140597619Y-120842857D02*
X140550000Y-120890476D01*
X140502380Y-120985714D01*
X140502380Y-121223809D01*
X140550000Y-121319047D01*
X140597619Y-121366666D01*
X140692857Y-121414285D01*
X140788095Y-121414285D01*
X140930952Y-121366666D01*
X141502380Y-120795238D01*
X141502380Y-121414285D01*
X140502380Y-121700000D02*
X141502380Y-122033333D01*
X140502380Y-122366666D01*
X143502380Y-117938095D02*
X143502380Y-118509523D01*
X144502380Y-118223809D02*
X143502380Y-118223809D01*
X144502380Y-118842857D02*
X143502380Y-118842857D01*
X143502380Y-119223809D01*
X143550000Y-119319047D01*
X143597619Y-119366666D01*
X143692857Y-119414285D01*
X143835714Y-119414285D01*
X143930952Y-119366666D01*
X143978571Y-119319047D01*
X144026190Y-119223809D01*
X144026190Y-118842857D01*
X143597619Y-119795238D02*
X143550000Y-119842857D01*
X143502380Y-119938095D01*
X143502380Y-120176190D01*
X143550000Y-120271428D01*
X143597619Y-120319047D01*
X143692857Y-120366666D01*
X143788095Y-120366666D01*
X143930952Y-120319047D01*
X144502380Y-119747619D01*
X144502380Y-120366666D01*
%TO.C,R3*%
X134301428Y-96827380D02*
X134872857Y-96827380D01*
X134587142Y-96827380D02*
X134587142Y-95827380D01*
X134682380Y-95970238D01*
X134777619Y-96065476D01*
X134872857Y-96113095D01*
X133682380Y-95827380D02*
X133587142Y-95827380D01*
X133491904Y-95875000D01*
X133444285Y-95922619D01*
X133396666Y-96017857D01*
X133349047Y-96208333D01*
X133349047Y-96446428D01*
X133396666Y-96636904D01*
X133444285Y-96732142D01*
X133491904Y-96779761D01*
X133587142Y-96827380D01*
X133682380Y-96827380D01*
X133777619Y-96779761D01*
X133825238Y-96732142D01*
X133872857Y-96636904D01*
X133920476Y-96446428D01*
X133920476Y-96208333D01*
X133872857Y-96017857D01*
X133825238Y-95922619D01*
X133777619Y-95875000D01*
X133682380Y-95827380D01*
X132730000Y-95827380D02*
X132634761Y-95827380D01*
X132539523Y-95875000D01*
X132491904Y-95922619D01*
X132444285Y-96017857D01*
X132396666Y-96208333D01*
X132396666Y-96446428D01*
X132444285Y-96636904D01*
X132491904Y-96732142D01*
X132539523Y-96779761D01*
X132634761Y-96827380D01*
X132730000Y-96827380D01*
X132825238Y-96779761D01*
X132872857Y-96732142D01*
X132920476Y-96636904D01*
X132968095Y-96446428D01*
X132968095Y-96208333D01*
X132920476Y-96017857D01*
X132872857Y-95922619D01*
X132825238Y-95875000D01*
X132730000Y-95827380D01*
X131968095Y-96827380D02*
X131968095Y-95827380D01*
X131872857Y-96446428D02*
X131587142Y-96827380D01*
X131587142Y-96160714D02*
X131968095Y-96541666D01*
D11*
X133296666Y-97985952D02*
X133430000Y-97795476D01*
X133525238Y-97985952D02*
X133525238Y-97585952D01*
X133372857Y-97585952D01*
X133334761Y-97605000D01*
X133315714Y-97624047D01*
X133296666Y-97662142D01*
X133296666Y-97719285D01*
X133315714Y-97757380D01*
X133334761Y-97776428D01*
X133372857Y-97795476D01*
X133525238Y-97795476D01*
X133163333Y-97585952D02*
X132915714Y-97585952D01*
X133049047Y-97738333D01*
X132991904Y-97738333D01*
X132953809Y-97757380D01*
X132934761Y-97776428D01*
X132915714Y-97814523D01*
X132915714Y-97909761D01*
X132934761Y-97947857D01*
X132953809Y-97966904D01*
X132991904Y-97985952D01*
X133106190Y-97985952D01*
X133144285Y-97966904D01*
X133163333Y-97947857D01*
D10*
%TO.C,J1*%
X143231785Y-130203380D02*
X143231785Y-129203380D01*
X142755595Y-130203380D02*
X142755595Y-129203380D01*
X142517500Y-129203380D01*
X142374642Y-129251000D01*
X142279404Y-129346238D01*
X142231785Y-129441476D01*
X142184166Y-129631952D01*
X142184166Y-129774809D01*
X142231785Y-129965285D01*
X142279404Y-130060523D01*
X142374642Y-130155761D01*
X142517500Y-130203380D01*
X142755595Y-130203380D01*
X141184166Y-130108142D02*
X141231785Y-130155761D01*
X141374642Y-130203380D01*
X141469880Y-130203380D01*
X141612738Y-130155761D01*
X141707976Y-130060523D01*
X141755595Y-129965285D01*
X141803214Y-129774809D01*
X141803214Y-129631952D01*
X141755595Y-129441476D01*
X141707976Y-129346238D01*
X141612738Y-129251000D01*
X141469880Y-129203380D01*
X141374642Y-129203380D01*
X141231785Y-129251000D01*
X141184166Y-129298619D01*
X140993690Y-130298619D02*
X140231785Y-130298619D01*
X140041309Y-129298619D02*
X139993690Y-129251000D01*
X139898452Y-129203380D01*
X139660357Y-129203380D01*
X139565119Y-129251000D01*
X139517500Y-129298619D01*
X139469880Y-129393857D01*
X139469880Y-129489095D01*
X139517500Y-129631952D01*
X140088928Y-130203380D01*
X139469880Y-130203380D01*
X139136547Y-130203380D02*
X138612738Y-129536714D01*
X139136547Y-129536714D02*
X138612738Y-130203380D01*
X138041309Y-129203380D02*
X137946071Y-129203380D01*
X137850833Y-129251000D01*
X137803214Y-129298619D01*
X137755595Y-129393857D01*
X137707976Y-129584333D01*
X137707976Y-129822428D01*
X137755595Y-130012904D01*
X137803214Y-130108142D01*
X137850833Y-130155761D01*
X137946071Y-130203380D01*
X138041309Y-130203380D01*
X138136547Y-130155761D01*
X138184166Y-130108142D01*
X138231785Y-130012904D01*
X138279404Y-129822428D01*
X138279404Y-129584333D01*
X138231785Y-129393857D01*
X138184166Y-129298619D01*
X138136547Y-129251000D01*
X138041309Y-129203380D01*
X136803214Y-129203380D02*
X137279404Y-129203380D01*
X137327023Y-129679571D01*
X137279404Y-129631952D01*
X137184166Y-129584333D01*
X136946071Y-129584333D01*
X136850833Y-129631952D01*
X136803214Y-129679571D01*
X136755595Y-129774809D01*
X136755595Y-130012904D01*
X136803214Y-130108142D01*
X136850833Y-130155761D01*
X136946071Y-130203380D01*
X137184166Y-130203380D01*
X137279404Y-130155761D01*
X137327023Y-130108142D01*
X139469880Y-140597666D02*
X140184166Y-140597666D01*
X140327023Y-140550047D01*
X140422261Y-140454809D01*
X140469880Y-140311952D01*
X140469880Y-140216714D01*
X140469880Y-141597666D02*
X140469880Y-141026238D01*
X140469880Y-141311952D02*
X139469880Y-141311952D01*
X139612738Y-141216714D01*
X139707976Y-141121476D01*
X139755595Y-141026238D01*
%TO.C,C3*%
X131495238Y-125022380D02*
X131971428Y-125022380D01*
X132019047Y-125498571D01*
X131971428Y-125450952D01*
X131876190Y-125403333D01*
X131638095Y-125403333D01*
X131542857Y-125450952D01*
X131495238Y-125498571D01*
X131447619Y-125593809D01*
X131447619Y-125831904D01*
X131495238Y-125927142D01*
X131542857Y-125974761D01*
X131638095Y-126022380D01*
X131876190Y-126022380D01*
X131971428Y-125974761D01*
X132019047Y-125927142D01*
X130876190Y-125450952D02*
X130971428Y-125403333D01*
X131019047Y-125355714D01*
X131066666Y-125260476D01*
X131066666Y-125212857D01*
X131019047Y-125117619D01*
X130971428Y-125070000D01*
X130876190Y-125022380D01*
X130685714Y-125022380D01*
X130590476Y-125070000D01*
X130542857Y-125117619D01*
X130495238Y-125212857D01*
X130495238Y-125260476D01*
X130542857Y-125355714D01*
X130590476Y-125403333D01*
X130685714Y-125450952D01*
X130876190Y-125450952D01*
X130971428Y-125498571D01*
X131019047Y-125546190D01*
X131066666Y-125641428D01*
X131066666Y-125831904D01*
X131019047Y-125927142D01*
X130971428Y-125974761D01*
X130876190Y-126022380D01*
X130685714Y-126022380D01*
X130590476Y-125974761D01*
X130542857Y-125927142D01*
X130495238Y-125831904D01*
X130495238Y-125641428D01*
X130542857Y-125546190D01*
X130590476Y-125498571D01*
X130685714Y-125450952D01*
X129876190Y-125022380D02*
X129780952Y-125022380D01*
X129685714Y-125070000D01*
X129638095Y-125117619D01*
X129590476Y-125212857D01*
X129542857Y-125403333D01*
X129542857Y-125641428D01*
X129590476Y-125831904D01*
X129638095Y-125927142D01*
X129685714Y-125974761D01*
X129780952Y-126022380D01*
X129876190Y-126022380D01*
X129971428Y-125974761D01*
X130019047Y-125927142D01*
X130066666Y-125831904D01*
X130114285Y-125641428D01*
X130114285Y-125403333D01*
X130066666Y-125212857D01*
X130019047Y-125117619D01*
X129971428Y-125070000D01*
X129876190Y-125022380D01*
X129114285Y-125355714D02*
X129114285Y-126355714D01*
X129114285Y-125403333D02*
X129019047Y-125355714D01*
X128828571Y-125355714D01*
X128733333Y-125403333D01*
X128685714Y-125450952D01*
X128638095Y-125546190D01*
X128638095Y-125831904D01*
X128685714Y-125927142D01*
X128733333Y-125974761D01*
X128828571Y-126022380D01*
X129019047Y-126022380D01*
X129114285Y-125974761D01*
X127876190Y-125498571D02*
X128209523Y-125498571D01*
X128209523Y-126022380D02*
X128209523Y-125022380D01*
X127733333Y-125022380D01*
D11*
X129966666Y-127142857D02*
X129985714Y-127161904D01*
X130042857Y-127180952D01*
X130080952Y-127180952D01*
X130138095Y-127161904D01*
X130176190Y-127123809D01*
X130195238Y-127085714D01*
X130214285Y-127009523D01*
X130214285Y-126952380D01*
X130195238Y-126876190D01*
X130176190Y-126838095D01*
X130138095Y-126800000D01*
X130080952Y-126780952D01*
X130042857Y-126780952D01*
X129985714Y-126800000D01*
X129966666Y-126819047D01*
X129833333Y-126780952D02*
X129585714Y-126780952D01*
X129719047Y-126933333D01*
X129661904Y-126933333D01*
X129623809Y-126952380D01*
X129604761Y-126971428D01*
X129585714Y-127009523D01*
X129585714Y-127104761D01*
X129604761Y-127142857D01*
X129623809Y-127161904D01*
X129661904Y-127180952D01*
X129776190Y-127180952D01*
X129814285Y-127161904D01*
X129833333Y-127142857D01*
D10*
%TO.C,R8*%
X137681428Y-99682380D02*
X138252857Y-99682380D01*
X137967142Y-99682380D02*
X137967142Y-98682380D01*
X138062380Y-98825238D01*
X138157619Y-98920476D01*
X138252857Y-98968095D01*
X137062380Y-98682380D02*
X136967142Y-98682380D01*
X136871904Y-98730000D01*
X136824285Y-98777619D01*
X136776666Y-98872857D01*
X136729047Y-99063333D01*
X136729047Y-99301428D01*
X136776666Y-99491904D01*
X136824285Y-99587142D01*
X136871904Y-99634761D01*
X136967142Y-99682380D01*
X137062380Y-99682380D01*
X137157619Y-99634761D01*
X137205238Y-99587142D01*
X137252857Y-99491904D01*
X137300476Y-99301428D01*
X137300476Y-99063333D01*
X137252857Y-98872857D01*
X137205238Y-98777619D01*
X137157619Y-98730000D01*
X137062380Y-98682380D01*
X136110000Y-98682380D02*
X136014761Y-98682380D01*
X135919523Y-98730000D01*
X135871904Y-98777619D01*
X135824285Y-98872857D01*
X135776666Y-99063333D01*
X135776666Y-99301428D01*
X135824285Y-99491904D01*
X135871904Y-99587142D01*
X135919523Y-99634761D01*
X136014761Y-99682380D01*
X136110000Y-99682380D01*
X136205238Y-99634761D01*
X136252857Y-99587142D01*
X136300476Y-99491904D01*
X136348095Y-99301428D01*
X136348095Y-99063333D01*
X136300476Y-98872857D01*
X136252857Y-98777619D01*
X136205238Y-98730000D01*
X136110000Y-98682380D01*
X135348095Y-99682380D02*
X135348095Y-98682380D01*
X135252857Y-99301428D02*
X134967142Y-99682380D01*
X134967142Y-99015714D02*
X135348095Y-99396666D01*
D11*
X136676666Y-97980952D02*
X136810000Y-97790476D01*
X136905238Y-97980952D02*
X136905238Y-97580952D01*
X136752857Y-97580952D01*
X136714761Y-97600000D01*
X136695714Y-97619047D01*
X136676666Y-97657142D01*
X136676666Y-97714285D01*
X136695714Y-97752380D01*
X136714761Y-97771428D01*
X136752857Y-97790476D01*
X136905238Y-97790476D01*
X136448095Y-97752380D02*
X136486190Y-97733333D01*
X136505238Y-97714285D01*
X136524285Y-97676190D01*
X136524285Y-97657142D01*
X136505238Y-97619047D01*
X136486190Y-97600000D01*
X136448095Y-97580952D01*
X136371904Y-97580952D01*
X136333809Y-97600000D01*
X136314761Y-97619047D01*
X136295714Y-97657142D01*
X136295714Y-97676190D01*
X136314761Y-97714285D01*
X136333809Y-97733333D01*
X136371904Y-97752380D01*
X136448095Y-97752380D01*
X136486190Y-97771428D01*
X136505238Y-97790476D01*
X136524285Y-97828571D01*
X136524285Y-97904761D01*
X136505238Y-97942857D01*
X136486190Y-97961904D01*
X136448095Y-97980952D01*
X136371904Y-97980952D01*
X136333809Y-97961904D01*
X136314761Y-97942857D01*
X136295714Y-97904761D01*
X136295714Y-97828571D01*
X136314761Y-97790476D01*
X136333809Y-97771428D01*
X136371904Y-97752380D01*
D10*
%TO.C,A1*%
X151490456Y-63102380D02*
X151490456Y-62102380D01*
X151252361Y-62102380D01*
X151109504Y-62150000D01*
X151014266Y-62245238D01*
X150966647Y-62340476D01*
X150919028Y-62530952D01*
X150919028Y-62673809D01*
X150966647Y-62864285D01*
X151014266Y-62959523D01*
X151109504Y-63054761D01*
X151252361Y-63102380D01*
X151490456Y-63102380D01*
X150109504Y-63054761D02*
X150204742Y-63102380D01*
X150395218Y-63102380D01*
X150490456Y-63054761D01*
X150538075Y-62959523D01*
X150538075Y-62578571D01*
X150490456Y-62483333D01*
X150395218Y-62435714D01*
X150204742Y-62435714D01*
X150109504Y-62483333D01*
X150061885Y-62578571D01*
X150061885Y-62673809D01*
X150538075Y-62769047D01*
X149728552Y-62435714D02*
X149490456Y-63102380D01*
X149252361Y-62435714D01*
X148871409Y-63102380D02*
X148871409Y-62435714D01*
X148871409Y-62102380D02*
X148919028Y-62150000D01*
X148871409Y-62197619D01*
X148823790Y-62150000D01*
X148871409Y-62102380D01*
X148871409Y-62197619D01*
X147966647Y-63054761D02*
X148061885Y-63102380D01*
X148252361Y-63102380D01*
X148347599Y-63054761D01*
X148395218Y-63007142D01*
X148442837Y-62911904D01*
X148442837Y-62626190D01*
X148395218Y-62530952D01*
X148347599Y-62483333D01*
X148252361Y-62435714D01*
X148061885Y-62435714D01*
X147966647Y-62483333D01*
X147157123Y-63054761D02*
X147252361Y-63102380D01*
X147442837Y-63102380D01*
X147538075Y-63054761D01*
X147585694Y-62959523D01*
X147585694Y-62578571D01*
X147538075Y-62483333D01*
X147442837Y-62435714D01*
X147252361Y-62435714D01*
X147157123Y-62483333D01*
X147109504Y-62578571D01*
X147109504Y-62673809D01*
X147585694Y-62769047D01*
X146919028Y-63197619D02*
X146157123Y-63197619D01*
X145966647Y-62816666D02*
X145490456Y-62816666D01*
X146061885Y-63102380D02*
X145728552Y-62102380D01*
X145395218Y-63102380D01*
X144633313Y-62435714D02*
X144633313Y-63102380D01*
X145061885Y-62435714D02*
X145061885Y-62959523D01*
X145014266Y-63054761D01*
X144919028Y-63102380D01*
X144776171Y-63102380D01*
X144680933Y-63054761D01*
X144633313Y-63007142D01*
X143728552Y-63102380D02*
X143728552Y-62102380D01*
X143728552Y-63054761D02*
X143823790Y-63102380D01*
X144014266Y-63102380D01*
X144109504Y-63054761D01*
X144157123Y-63007142D01*
X144204742Y-62911904D01*
X144204742Y-62626190D01*
X144157123Y-62530952D01*
X144109504Y-62483333D01*
X144014266Y-62435714D01*
X143823790Y-62435714D01*
X143728552Y-62483333D01*
X143252361Y-63102380D02*
X143252361Y-62435714D01*
X143252361Y-62102380D02*
X143299980Y-62150000D01*
X143252361Y-62197619D01*
X143204742Y-62150000D01*
X143252361Y-62102380D01*
X143252361Y-62197619D01*
X142633313Y-63102380D02*
X142728552Y-63054761D01*
X142776171Y-63007142D01*
X142823790Y-62911904D01*
X142823790Y-62626190D01*
X142776171Y-62530952D01*
X142728552Y-62483333D01*
X142633313Y-62435714D01*
X142490456Y-62435714D01*
X142395218Y-62483333D01*
X142347599Y-62530952D01*
X142299980Y-62626190D01*
X142299980Y-62911904D01*
X142347599Y-63007142D01*
X142395218Y-63054761D01*
X142490456Y-63102380D01*
X142633313Y-63102380D01*
X142109504Y-63197619D02*
X141347599Y-63197619D01*
X141109504Y-62578571D02*
X140776171Y-62578571D01*
X140633313Y-63102380D02*
X141109504Y-63102380D01*
X141109504Y-62102380D01*
X140633313Y-62102380D01*
X140061885Y-63102380D02*
X140157123Y-63054761D01*
X140204742Y-62959523D01*
X140204742Y-62102380D01*
X139299980Y-63054761D02*
X139395218Y-63102380D01*
X139585694Y-63102380D01*
X139680933Y-63054761D01*
X139728552Y-62959523D01*
X139728552Y-62578571D01*
X139680933Y-62483333D01*
X139585694Y-62435714D01*
X139395218Y-62435714D01*
X139299980Y-62483333D01*
X139252361Y-62578571D01*
X139252361Y-62673809D01*
X139728552Y-62769047D01*
X138395218Y-63054761D02*
X138490456Y-63102380D01*
X138680933Y-63102380D01*
X138776171Y-63054761D01*
X138823790Y-63007142D01*
X138871409Y-62911904D01*
X138871409Y-62626190D01*
X138823790Y-62530952D01*
X138776171Y-62483333D01*
X138680933Y-62435714D01*
X138490456Y-62435714D01*
X138395218Y-62483333D01*
X138109504Y-62435714D02*
X137728552Y-62435714D01*
X137966647Y-62102380D02*
X137966647Y-62959523D01*
X137919028Y-63054761D01*
X137823790Y-63102380D01*
X137728552Y-63102380D01*
X137395218Y-63102380D02*
X137395218Y-62435714D01*
X137395218Y-62626190D02*
X137347599Y-62530952D01*
X137299980Y-62483333D01*
X137204742Y-62435714D01*
X137109504Y-62435714D01*
X136633313Y-63102380D02*
X136728552Y-63054761D01*
X136776171Y-63007142D01*
X136823790Y-62911904D01*
X136823790Y-62626190D01*
X136776171Y-62530952D01*
X136728552Y-62483333D01*
X136633313Y-62435714D01*
X136490456Y-62435714D01*
X136395218Y-62483333D01*
X136347599Y-62530952D01*
X136299980Y-62626190D01*
X136299980Y-62911904D01*
X136347599Y-63007142D01*
X136395218Y-63054761D01*
X136490456Y-63102380D01*
X136633313Y-63102380D01*
X135919028Y-63054761D02*
X135823790Y-63102380D01*
X135633313Y-63102380D01*
X135538075Y-63054761D01*
X135490456Y-62959523D01*
X135490456Y-62911904D01*
X135538075Y-62816666D01*
X135633313Y-62769047D01*
X135776171Y-62769047D01*
X135871409Y-62721428D01*
X135919028Y-62626190D01*
X135919028Y-62578571D01*
X135871409Y-62483333D01*
X135776171Y-62435714D01*
X135633313Y-62435714D01*
X135538075Y-62483333D01*
X135061885Y-63102380D02*
X135061885Y-62435714D01*
X135061885Y-62530952D02*
X135014266Y-62483333D01*
X134919028Y-62435714D01*
X134776171Y-62435714D01*
X134680933Y-62483333D01*
X134633313Y-62578571D01*
X134633313Y-63102380D01*
X134633313Y-62578571D02*
X134585694Y-62483333D01*
X134490456Y-62435714D01*
X134347599Y-62435714D01*
X134252361Y-62483333D01*
X134204742Y-62578571D01*
X134204742Y-63102380D01*
X133728552Y-63102380D02*
X133728552Y-62435714D01*
X133728552Y-62102380D02*
X133776171Y-62150000D01*
X133728552Y-62197619D01*
X133680933Y-62150000D01*
X133728552Y-62102380D01*
X133728552Y-62197619D01*
X133395218Y-62435714D02*
X133014266Y-62435714D01*
X133252361Y-62102380D02*
X133252361Y-62959523D01*
X133204742Y-63054761D01*
X133109504Y-63102380D01*
X133014266Y-63102380D01*
X132680933Y-63102380D02*
X132680933Y-62102380D01*
X132252361Y-63102380D02*
X132252361Y-62578571D01*
X132299980Y-62483333D01*
X132395218Y-62435714D01*
X132538075Y-62435714D01*
X132633313Y-62483333D01*
X132680933Y-62530952D01*
X132014266Y-63197619D02*
X131252361Y-63197619D01*
X131014266Y-63102380D02*
X131014266Y-62102380D01*
X130776171Y-62102380D01*
X130633313Y-62150000D01*
X130538075Y-62245238D01*
X130490456Y-62340476D01*
X130442837Y-62530952D01*
X130442837Y-62673809D01*
X130490456Y-62864285D01*
X130538075Y-62959523D01*
X130633313Y-63054761D01*
X130776171Y-63102380D01*
X131014266Y-63102380D01*
X129585694Y-63102380D02*
X129585694Y-62578571D01*
X129633313Y-62483333D01*
X129728552Y-62435714D01*
X129919028Y-62435714D01*
X130014266Y-62483333D01*
X129585694Y-63054761D02*
X129680933Y-63102380D01*
X129919028Y-63102380D01*
X130014266Y-63054761D01*
X130061885Y-62959523D01*
X130061885Y-62864285D01*
X130014266Y-62769047D01*
X129919028Y-62721428D01*
X129680933Y-62721428D01*
X129585694Y-62673809D01*
X129109504Y-63102380D02*
X129109504Y-62435714D01*
X129109504Y-62102380D02*
X129157123Y-62150000D01*
X129109504Y-62197619D01*
X129061885Y-62150000D01*
X129109504Y-62102380D01*
X129109504Y-62197619D01*
X128680933Y-63054761D02*
X128585694Y-63102380D01*
X128395218Y-63102380D01*
X128299980Y-63054761D01*
X128252361Y-62959523D01*
X128252361Y-62911904D01*
X128299980Y-62816666D01*
X128395218Y-62769047D01*
X128538075Y-62769047D01*
X128633313Y-62721428D01*
X128680933Y-62626190D01*
X128680933Y-62578571D01*
X128633313Y-62483333D01*
X128538075Y-62435714D01*
X128395218Y-62435714D01*
X128299980Y-62483333D01*
X127919028Y-62435714D02*
X127680933Y-63102380D01*
X127442837Y-62435714D02*
X127680933Y-63102380D01*
X127776171Y-63340476D01*
X127823790Y-63388095D01*
X127919028Y-63435714D01*
X127299980Y-63197619D02*
X126538075Y-63197619D01*
X126347599Y-63054761D02*
X126204742Y-63102380D01*
X125966647Y-63102380D01*
X125871409Y-63054761D01*
X125823790Y-63007142D01*
X125776171Y-62911904D01*
X125776171Y-62816666D01*
X125823790Y-62721428D01*
X125871409Y-62673809D01*
X125966647Y-62626190D01*
X126157123Y-62578571D01*
X126252361Y-62530952D01*
X126299980Y-62483333D01*
X126347599Y-62388095D01*
X126347599Y-62292857D01*
X126299980Y-62197619D01*
X126252361Y-62150000D01*
X126157123Y-62102380D01*
X125919028Y-62102380D01*
X125776171Y-62150000D01*
X124966647Y-63054761D02*
X125061885Y-63102380D01*
X125252361Y-63102380D01*
X125347599Y-63054761D01*
X125395218Y-62959523D01*
X125395218Y-62578571D01*
X125347599Y-62483333D01*
X125252361Y-62435714D01*
X125061885Y-62435714D01*
X124966647Y-62483333D01*
X124919028Y-62578571D01*
X124919028Y-62673809D01*
X125395218Y-62769047D01*
X124109504Y-63054761D02*
X124204742Y-63102380D01*
X124395218Y-63102380D01*
X124490456Y-63054761D01*
X124538075Y-62959523D01*
X124538075Y-62578571D01*
X124490456Y-62483333D01*
X124395218Y-62435714D01*
X124204742Y-62435714D01*
X124109504Y-62483333D01*
X124061885Y-62578571D01*
X124061885Y-62673809D01*
X124538075Y-62769047D01*
X123204742Y-63102380D02*
X123204742Y-62102380D01*
X123204742Y-63054761D02*
X123299980Y-63102380D01*
X123490456Y-63102380D01*
X123585694Y-63054761D01*
X123633313Y-63007142D01*
X123680933Y-62911904D01*
X123680933Y-62626190D01*
X123633313Y-62530952D01*
X123585694Y-62483333D01*
X123490456Y-62435714D01*
X123299980Y-62435714D01*
X123204742Y-62483333D01*
X122966647Y-63197619D02*
X122204742Y-63197619D01*
X121395218Y-63102380D02*
X121728552Y-62626190D01*
X121966647Y-63102380D02*
X121966647Y-62102380D01*
X121585694Y-62102380D01*
X121490456Y-62150000D01*
X121442837Y-62197619D01*
X121395218Y-62292857D01*
X121395218Y-62435714D01*
X121442837Y-62530952D01*
X121490456Y-62578571D01*
X121585694Y-62626190D01*
X121966647Y-62626190D01*
X120585694Y-63054761D02*
X120680933Y-63102380D01*
X120871409Y-63102380D01*
X120966647Y-63054761D01*
X121014266Y-62959523D01*
X121014266Y-62578571D01*
X120966647Y-62483333D01*
X120871409Y-62435714D01*
X120680933Y-62435714D01*
X120585694Y-62483333D01*
X120538075Y-62578571D01*
X120538075Y-62673809D01*
X121014266Y-62769047D01*
X120204742Y-62435714D02*
X119966647Y-63102380D01*
X119728552Y-62435714D01*
X118919028Y-62435714D02*
X118919028Y-63102380D01*
X119157123Y-62054761D02*
X119395218Y-62769047D01*
X118776171Y-62769047D01*
X135895218Y-87816666D02*
X135419028Y-87816666D01*
X135990456Y-88102380D02*
X135657123Y-87102380D01*
X135323790Y-88102380D01*
X134466647Y-88102380D02*
X135038075Y-88102380D01*
X134752361Y-88102380D02*
X134752361Y-87102380D01*
X134847599Y-87245238D01*
X134942837Y-87340476D01*
X135038075Y-87388095D01*
%TO.C,R6*%
X135261428Y-96632380D02*
X135832857Y-96632380D01*
X135547142Y-96632380D02*
X135547142Y-95632380D01*
X135642380Y-95775238D01*
X135737619Y-95870476D01*
X135832857Y-95918095D01*
X134642380Y-95632380D02*
X134547142Y-95632380D01*
X134451904Y-95680000D01*
X134404285Y-95727619D01*
X134356666Y-95822857D01*
X134309047Y-96013333D01*
X134309047Y-96251428D01*
X134356666Y-96441904D01*
X134404285Y-96537142D01*
X134451904Y-96584761D01*
X134547142Y-96632380D01*
X134642380Y-96632380D01*
X134737619Y-96584761D01*
X134785238Y-96537142D01*
X134832857Y-96441904D01*
X134880476Y-96251428D01*
X134880476Y-96013333D01*
X134832857Y-95822857D01*
X134785238Y-95727619D01*
X134737619Y-95680000D01*
X134642380Y-95632380D01*
X133690000Y-95632380D02*
X133594761Y-95632380D01*
X133499523Y-95680000D01*
X133451904Y-95727619D01*
X133404285Y-95822857D01*
X133356666Y-96013333D01*
X133356666Y-96251428D01*
X133404285Y-96441904D01*
X133451904Y-96537142D01*
X133499523Y-96584761D01*
X133594761Y-96632380D01*
X133690000Y-96632380D01*
X133785238Y-96584761D01*
X133832857Y-96537142D01*
X133880476Y-96441904D01*
X133928095Y-96251428D01*
X133928095Y-96013333D01*
X133880476Y-95822857D01*
X133832857Y-95727619D01*
X133785238Y-95680000D01*
X133690000Y-95632380D01*
X132928095Y-96632380D02*
X132928095Y-95632380D01*
X132832857Y-96251428D02*
X132547142Y-96632380D01*
X132547142Y-95965714D02*
X132928095Y-96346666D01*
D11*
X134256666Y-94930952D02*
X134390000Y-94740476D01*
X134485238Y-94930952D02*
X134485238Y-94530952D01*
X134332857Y-94530952D01*
X134294761Y-94550000D01*
X134275714Y-94569047D01*
X134256666Y-94607142D01*
X134256666Y-94664285D01*
X134275714Y-94702380D01*
X134294761Y-94721428D01*
X134332857Y-94740476D01*
X134485238Y-94740476D01*
X133913809Y-94530952D02*
X133990000Y-94530952D01*
X134028095Y-94550000D01*
X134047142Y-94569047D01*
X134085238Y-94626190D01*
X134104285Y-94702380D01*
X134104285Y-94854761D01*
X134085238Y-94892857D01*
X134066190Y-94911904D01*
X134028095Y-94930952D01*
X133951904Y-94930952D01*
X133913809Y-94911904D01*
X133894761Y-94892857D01*
X133875714Y-94854761D01*
X133875714Y-94759523D01*
X133894761Y-94721428D01*
X133913809Y-94702380D01*
X133951904Y-94683333D01*
X134028095Y-94683333D01*
X134066190Y-94702380D01*
X134085238Y-94721428D01*
X134104285Y-94759523D01*
D10*
%TO.C,R2*%
X134282380Y-129928571D02*
X134282380Y-129357142D01*
X134282380Y-129642857D02*
X133282380Y-129642857D01*
X133425238Y-129547619D01*
X133520476Y-129452380D01*
X133568095Y-129357142D01*
X133282380Y-130547619D02*
X133282380Y-130642857D01*
X133330000Y-130738095D01*
X133377619Y-130785714D01*
X133472857Y-130833333D01*
X133663333Y-130880952D01*
X133901428Y-130880952D01*
X134091904Y-130833333D01*
X134187142Y-130785714D01*
X134234761Y-130738095D01*
X134282380Y-130642857D01*
X134282380Y-130547619D01*
X134234761Y-130452380D01*
X134187142Y-130404761D01*
X134091904Y-130357142D01*
X133901428Y-130309523D01*
X133663333Y-130309523D01*
X133472857Y-130357142D01*
X133377619Y-130404761D01*
X133330000Y-130452380D01*
X133282380Y-130547619D01*
X133282380Y-131500000D02*
X133282380Y-131595238D01*
X133330000Y-131690476D01*
X133377619Y-131738095D01*
X133472857Y-131785714D01*
X133663333Y-131833333D01*
X133901428Y-131833333D01*
X134091904Y-131785714D01*
X134187142Y-131738095D01*
X134234761Y-131690476D01*
X134282380Y-131595238D01*
X134282380Y-131500000D01*
X134234761Y-131404761D01*
X134187142Y-131357142D01*
X134091904Y-131309523D01*
X133901428Y-131261904D01*
X133663333Y-131261904D01*
X133472857Y-131309523D01*
X133377619Y-131357142D01*
X133330000Y-131404761D01*
X133282380Y-131500000D01*
X134282380Y-132261904D02*
X133282380Y-132261904D01*
X133901428Y-132357142D02*
X134282380Y-132642857D01*
X133615714Y-132642857D02*
X133996666Y-132261904D01*
D11*
X132580952Y-130933333D02*
X132390476Y-130800000D01*
X132580952Y-130704761D02*
X132180952Y-130704761D01*
X132180952Y-130857142D01*
X132200000Y-130895238D01*
X132219047Y-130914285D01*
X132257142Y-130933333D01*
X132314285Y-130933333D01*
X132352380Y-130914285D01*
X132371428Y-130895238D01*
X132390476Y-130857142D01*
X132390476Y-130704761D01*
X132219047Y-131085714D02*
X132200000Y-131104761D01*
X132180952Y-131142857D01*
X132180952Y-131238095D01*
X132200000Y-131276190D01*
X132219047Y-131295238D01*
X132257142Y-131314285D01*
X132295238Y-131314285D01*
X132352380Y-131295238D01*
X132580952Y-131066666D01*
X132580952Y-131314285D01*
D10*
%TO.C,R4*%
X134358928Y-127382380D02*
X134930357Y-127382380D01*
X134644642Y-127382380D02*
X134644642Y-126382380D01*
X134739880Y-126525238D01*
X134835119Y-126620476D01*
X134930357Y-126668095D01*
X133739880Y-126382380D02*
X133644642Y-126382380D01*
X133549404Y-126430000D01*
X133501785Y-126477619D01*
X133454166Y-126572857D01*
X133406547Y-126763333D01*
X133406547Y-127001428D01*
X133454166Y-127191904D01*
X133501785Y-127287142D01*
X133549404Y-127334761D01*
X133644642Y-127382380D01*
X133739880Y-127382380D01*
X133835119Y-127334761D01*
X133882738Y-127287142D01*
X133930357Y-127191904D01*
X133977976Y-127001428D01*
X133977976Y-126763333D01*
X133930357Y-126572857D01*
X133882738Y-126477619D01*
X133835119Y-126430000D01*
X133739880Y-126382380D01*
X132787500Y-126382380D02*
X132692261Y-126382380D01*
X132597023Y-126430000D01*
X132549404Y-126477619D01*
X132501785Y-126572857D01*
X132454166Y-126763333D01*
X132454166Y-127001428D01*
X132501785Y-127191904D01*
X132549404Y-127287142D01*
X132597023Y-127334761D01*
X132692261Y-127382380D01*
X132787500Y-127382380D01*
X132882738Y-127334761D01*
X132930357Y-127287142D01*
X132977976Y-127191904D01*
X133025595Y-127001428D01*
X133025595Y-126763333D01*
X132977976Y-126572857D01*
X132930357Y-126477619D01*
X132882738Y-126430000D01*
X132787500Y-126382380D01*
X132025595Y-127382380D02*
X132025595Y-126382380D01*
X131930357Y-127001428D02*
X131644642Y-127382380D01*
X131644642Y-126715714D02*
X132025595Y-127096666D01*
D11*
X133354166Y-125680952D02*
X133487500Y-125490476D01*
X133582738Y-125680952D02*
X133582738Y-125280952D01*
X133430357Y-125280952D01*
X133392261Y-125300000D01*
X133373214Y-125319047D01*
X133354166Y-125357142D01*
X133354166Y-125414285D01*
X133373214Y-125452380D01*
X133392261Y-125471428D01*
X133430357Y-125490476D01*
X133582738Y-125490476D01*
X133011309Y-125414285D02*
X133011309Y-125680952D01*
X133106547Y-125261904D02*
X133201785Y-125547619D01*
X132954166Y-125547619D01*
D10*
%TO.C,C1*%
X134396666Y-94635714D02*
X134396666Y-95302380D01*
X134634761Y-94254761D02*
X134872857Y-94969047D01*
X134253809Y-94969047D01*
X133968095Y-94302380D02*
X133301428Y-94302380D01*
X133730000Y-95302380D01*
X132920476Y-94635714D02*
X132920476Y-95635714D01*
X132920476Y-94683333D02*
X132825238Y-94635714D01*
X132634761Y-94635714D01*
X132539523Y-94683333D01*
X132491904Y-94730952D01*
X132444285Y-94826190D01*
X132444285Y-95111904D01*
X132491904Y-95207142D01*
X132539523Y-95254761D01*
X132634761Y-95302380D01*
X132825238Y-95302380D01*
X132920476Y-95254761D01*
X131682380Y-94778571D02*
X132015714Y-94778571D01*
X132015714Y-95302380D02*
X132015714Y-94302380D01*
X131539523Y-94302380D01*
D11*
X133296666Y-96422857D02*
X133315714Y-96441904D01*
X133372857Y-96460952D01*
X133410952Y-96460952D01*
X133468095Y-96441904D01*
X133506190Y-96403809D01*
X133525238Y-96365714D01*
X133544285Y-96289523D01*
X133544285Y-96232380D01*
X133525238Y-96156190D01*
X133506190Y-96118095D01*
X133468095Y-96080000D01*
X133410952Y-96060952D01*
X133372857Y-96060952D01*
X133315714Y-96080000D01*
X133296666Y-96099047D01*
X132915714Y-96460952D02*
X133144285Y-96460952D01*
X133030000Y-96460952D02*
X133030000Y-96060952D01*
X133068095Y-96118095D01*
X133106190Y-96156190D01*
X133144285Y-96175238D01*
D10*
%TO.C,R7*%
X130495238Y-124522380D02*
X131066666Y-124522380D01*
X130780952Y-124522380D02*
X130780952Y-123522380D01*
X130876190Y-123665238D01*
X130971428Y-123760476D01*
X131066666Y-123808095D01*
X129876190Y-123522380D02*
X129780952Y-123522380D01*
X129685714Y-123570000D01*
X129638095Y-123617619D01*
X129590476Y-123712857D01*
X129542857Y-123903333D01*
X129542857Y-124141428D01*
X129590476Y-124331904D01*
X129638095Y-124427142D01*
X129685714Y-124474761D01*
X129780952Y-124522380D01*
X129876190Y-124522380D01*
X129971428Y-124474761D01*
X130019047Y-124427142D01*
X130066666Y-124331904D01*
X130114285Y-124141428D01*
X130114285Y-123903333D01*
X130066666Y-123712857D01*
X130019047Y-123617619D01*
X129971428Y-123570000D01*
X129876190Y-123522380D01*
X129114285Y-124522380D02*
X129114285Y-123522380D01*
X129019047Y-124141428D02*
X128733333Y-124522380D01*
X128733333Y-123855714D02*
X129114285Y-124236666D01*
D11*
X129966666Y-125680952D02*
X130100000Y-125490476D01*
X130195238Y-125680952D02*
X130195238Y-125280952D01*
X130042857Y-125280952D01*
X130004761Y-125300000D01*
X129985714Y-125319047D01*
X129966666Y-125357142D01*
X129966666Y-125414285D01*
X129985714Y-125452380D01*
X130004761Y-125471428D01*
X130042857Y-125490476D01*
X130195238Y-125490476D01*
X129833333Y-125280952D02*
X129566666Y-125280952D01*
X129738095Y-125680952D01*
D10*
%TO.C,C4*%
X137766666Y-97485714D02*
X137766666Y-98152380D01*
X138004761Y-97104761D02*
X138242857Y-97819047D01*
X137623809Y-97819047D01*
X137338095Y-97152380D02*
X136671428Y-97152380D01*
X137100000Y-98152380D01*
X136290476Y-97485714D02*
X136290476Y-98485714D01*
X136290476Y-97533333D02*
X136195238Y-97485714D01*
X136004761Y-97485714D01*
X135909523Y-97533333D01*
X135861904Y-97580952D01*
X135814285Y-97676190D01*
X135814285Y-97961904D01*
X135861904Y-98057142D01*
X135909523Y-98104761D01*
X136004761Y-98152380D01*
X136195238Y-98152380D01*
X136290476Y-98104761D01*
X135052380Y-97628571D02*
X135385714Y-97628571D01*
X135385714Y-98152380D02*
X135385714Y-97152380D01*
X134909523Y-97152380D01*
D11*
X136666666Y-96412857D02*
X136685714Y-96431904D01*
X136742857Y-96450952D01*
X136780952Y-96450952D01*
X136838095Y-96431904D01*
X136876190Y-96393809D01*
X136895238Y-96355714D01*
X136914285Y-96279523D01*
X136914285Y-96222380D01*
X136895238Y-96146190D01*
X136876190Y-96108095D01*
X136838095Y-96070000D01*
X136780952Y-96050952D01*
X136742857Y-96050952D01*
X136685714Y-96070000D01*
X136666666Y-96089047D01*
X136323809Y-96184285D02*
X136323809Y-96450952D01*
X136419047Y-96031904D02*
X136514285Y-96317619D01*
X136266666Y-96317619D01*
D10*
%TO.C,R10*%
X130021547Y-127530380D02*
X130592976Y-127530380D01*
X130307261Y-127530380D02*
X130307261Y-126530380D01*
X130402500Y-126673238D01*
X130497738Y-126768476D01*
X130592976Y-126816095D01*
X129592976Y-127530380D02*
X129592976Y-126530380D01*
X129497738Y-127149428D02*
X129212023Y-127530380D01*
X129212023Y-126863714D02*
X129592976Y-127244666D01*
D11*
X130159642Y-128688952D02*
X130292976Y-128498476D01*
X130388214Y-128688952D02*
X130388214Y-128288952D01*
X130235833Y-128288952D01*
X130197738Y-128308000D01*
X130178690Y-128327047D01*
X130159642Y-128365142D01*
X130159642Y-128422285D01*
X130178690Y-128460380D01*
X130197738Y-128479428D01*
X130235833Y-128498476D01*
X130388214Y-128498476D01*
X129778690Y-128688952D02*
X130007261Y-128688952D01*
X129892976Y-128688952D02*
X129892976Y-128288952D01*
X129931071Y-128346095D01*
X129969166Y-128384190D01*
X130007261Y-128403238D01*
X129531071Y-128288952D02*
X129492976Y-128288952D01*
X129454880Y-128308000D01*
X129435833Y-128327047D01*
X129416785Y-128365142D01*
X129397738Y-128441333D01*
X129397738Y-128536571D01*
X129416785Y-128612761D01*
X129435833Y-128650857D01*
X129454880Y-128669904D01*
X129492976Y-128688952D01*
X129531071Y-128688952D01*
X129569166Y-128669904D01*
X129588214Y-128650857D01*
X129607261Y-128612761D01*
X129626309Y-128536571D01*
X129626309Y-128441333D01*
X129607261Y-128365142D01*
X129588214Y-128327047D01*
X129569166Y-128308000D01*
X129531071Y-128288952D01*
D10*
%TO.C,R5*%
X134358928Y-127522380D02*
X134930357Y-127522380D01*
X134644642Y-127522380D02*
X134644642Y-126522380D01*
X134739880Y-126665238D01*
X134835119Y-126760476D01*
X134930357Y-126808095D01*
X133739880Y-126522380D02*
X133644642Y-126522380D01*
X133549404Y-126570000D01*
X133501785Y-126617619D01*
X133454166Y-126712857D01*
X133406547Y-126903333D01*
X133406547Y-127141428D01*
X133454166Y-127331904D01*
X133501785Y-127427142D01*
X133549404Y-127474761D01*
X133644642Y-127522380D01*
X133739880Y-127522380D01*
X133835119Y-127474761D01*
X133882738Y-127427142D01*
X133930357Y-127331904D01*
X133977976Y-127141428D01*
X133977976Y-126903333D01*
X133930357Y-126712857D01*
X133882738Y-126617619D01*
X133835119Y-126570000D01*
X133739880Y-126522380D01*
X132787500Y-126522380D02*
X132692261Y-126522380D01*
X132597023Y-126570000D01*
X132549404Y-126617619D01*
X132501785Y-126712857D01*
X132454166Y-126903333D01*
X132454166Y-127141428D01*
X132501785Y-127331904D01*
X132549404Y-127427142D01*
X132597023Y-127474761D01*
X132692261Y-127522380D01*
X132787500Y-127522380D01*
X132882738Y-127474761D01*
X132930357Y-127427142D01*
X132977976Y-127331904D01*
X133025595Y-127141428D01*
X133025595Y-126903333D01*
X132977976Y-126712857D01*
X132930357Y-126617619D01*
X132882738Y-126570000D01*
X132787500Y-126522380D01*
X132025595Y-127522380D02*
X132025595Y-126522380D01*
X131930357Y-127141428D02*
X131644642Y-127522380D01*
X131644642Y-126855714D02*
X132025595Y-127236666D01*
D11*
X133354166Y-128680952D02*
X133487500Y-128490476D01*
X133582738Y-128680952D02*
X133582738Y-128280952D01*
X133430357Y-128280952D01*
X133392261Y-128300000D01*
X133373214Y-128319047D01*
X133354166Y-128357142D01*
X133354166Y-128414285D01*
X133373214Y-128452380D01*
X133392261Y-128471428D01*
X133430357Y-128490476D01*
X133582738Y-128490476D01*
X132992261Y-128280952D02*
X133182738Y-128280952D01*
X133201785Y-128471428D01*
X133182738Y-128452380D01*
X133144642Y-128433333D01*
X133049404Y-128433333D01*
X133011309Y-128452380D01*
X132992261Y-128471428D01*
X132973214Y-128509523D01*
X132973214Y-128604761D01*
X132992261Y-128642857D01*
X133011309Y-128661904D01*
X133049404Y-128680952D01*
X133144642Y-128680952D01*
X133182738Y-128661904D01*
X133201785Y-128642857D01*
D12*
%TO.C,R9*%
X133587500Y-131800000D02*
X134412500Y-131800000D01*
X134412500Y-130200000D02*
X133587500Y-130200000D01*
X134412500Y-131800000D02*
X134412500Y-130200000D01*
X133587500Y-130200000D02*
X133587500Y-131800000D01*
%TO.C,C7*%
X136520000Y-103100000D02*
X134920000Y-103100000D01*
X136520000Y-103900000D02*
X136520000Y-103100000D01*
X134920000Y-103100000D02*
X134920000Y-103900000D01*
X134920000Y-103900000D02*
X136520000Y-103900000D01*
%TO.C,C8*%
X134000000Y-114300000D02*
X134000000Y-112700000D01*
X133200000Y-114300000D02*
X134000000Y-114300000D01*
X133200000Y-112700000D02*
X133200000Y-114300000D01*
X134000000Y-112700000D02*
X133200000Y-112700000D01*
%TO.C,C2*%
X132487500Y-126600000D02*
X132487500Y-127400000D01*
X132487500Y-127400000D02*
X134087500Y-127400000D01*
X134087500Y-126600000D02*
X132487500Y-126600000D01*
X134087500Y-127400000D02*
X134087500Y-126600000D01*
%TO.C,R1*%
X135000000Y-92805500D02*
X133400000Y-92805500D01*
X133400000Y-92805500D02*
X133400000Y-93630500D01*
X133400000Y-93630500D02*
X135000000Y-93630500D01*
X135000000Y-93630500D02*
X135000000Y-92805500D01*
%TO.C,U1*%
X130549000Y-109940000D02*
X139199000Y-109940000D01*
X131524000Y-106040000D02*
X130549000Y-107015000D01*
X139199000Y-109940000D02*
X139199000Y-106040000D01*
X130549000Y-107015000D02*
X130549000Y-109940000D01*
X139199000Y-106040000D02*
X131524000Y-106040000D01*
%TO.C,R3*%
X134030000Y-98217500D02*
X134030000Y-97392500D01*
X132430000Y-97392500D02*
X132430000Y-98217500D01*
X132430000Y-98217500D02*
X134030000Y-98217500D01*
X134030000Y-97392500D02*
X132430000Y-97392500D01*
%TO.C,J1*%
X135567500Y-142981000D02*
X136767500Y-142981000D01*
X136767500Y-149921000D02*
X143267500Y-149921000D01*
X136567500Y-151111000D02*
X144467500Y-151111000D01*
X135567500Y-130751000D02*
X135567500Y-150111000D01*
X143267500Y-131941000D02*
X136767500Y-131941000D01*
X144467500Y-130751000D02*
X135567500Y-130751000D01*
X136767500Y-138881000D02*
X135567500Y-138881000D01*
X136767500Y-138881000D02*
X136767500Y-138881000D01*
X144467500Y-151111000D02*
X144467500Y-130751000D01*
X143267500Y-149921000D02*
X143267500Y-131941000D01*
X136767500Y-131941000D02*
X136767500Y-138881000D01*
X136767500Y-142981000D02*
X136767500Y-149921000D01*
X135567500Y-150111000D02*
X136567500Y-151111000D01*
%TO.C,C3*%
X129100000Y-126600000D02*
X129100000Y-127400000D01*
X130700000Y-127400000D02*
X130700000Y-126600000D01*
X130700000Y-126600000D02*
X129100000Y-126600000D01*
X129100000Y-127400000D02*
X130700000Y-127400000D01*
%TO.C,R8*%
X137410000Y-98212500D02*
X137410000Y-97387500D01*
X135810000Y-98212500D02*
X137410000Y-98212500D01*
X135810000Y-97387500D02*
X135810000Y-98212500D01*
X137410000Y-97387500D02*
X135810000Y-97387500D01*
%TO.C,A1*%
X143980933Y-63550000D02*
X143980933Y-114350000D01*
X143980933Y-114350000D02*
X127380933Y-114350000D01*
X127380933Y-114350000D02*
X126380933Y-113350000D01*
X126380933Y-113350000D02*
X126380933Y-63550000D01*
X126380933Y-63550000D02*
X143980933Y-63550000D01*
%TO.C,R6*%
X134990000Y-95162500D02*
X134990000Y-94337500D01*
X133390000Y-95162500D02*
X134990000Y-95162500D01*
X134990000Y-94337500D02*
X133390000Y-94337500D01*
X133390000Y-94337500D02*
X133390000Y-95162500D01*
%TO.C,R2*%
X132812500Y-130200000D02*
X131987500Y-130200000D01*
X131987500Y-131800000D02*
X132812500Y-131800000D01*
X131987500Y-130200000D02*
X131987500Y-131800000D01*
X132812500Y-131800000D02*
X132812500Y-130200000D01*
%TO.C,R4*%
X132487500Y-125912500D02*
X134087500Y-125912500D01*
X134087500Y-125087500D02*
X132487500Y-125087500D01*
X132487500Y-125087500D02*
X132487500Y-125912500D01*
X134087500Y-125912500D02*
X134087500Y-125087500D01*
%TO.C,C1*%
X132430000Y-96680000D02*
X134030000Y-96680000D01*
X134030000Y-95880000D02*
X132430000Y-95880000D01*
X132430000Y-95880000D02*
X132430000Y-96680000D01*
X134030000Y-96680000D02*
X134030000Y-95880000D01*
%TO.C,R7*%
X129100000Y-125087500D02*
X129100000Y-125912500D01*
X129100000Y-125912500D02*
X130700000Y-125912500D01*
X130700000Y-125087500D02*
X129100000Y-125087500D01*
X130700000Y-125912500D02*
X130700000Y-125087500D01*
%TO.C,C4*%
X137400000Y-96670000D02*
X137400000Y-95870000D01*
X135800000Y-96670000D02*
X137400000Y-96670000D01*
X137400000Y-95870000D02*
X135800000Y-95870000D01*
X135800000Y-95870000D02*
X135800000Y-96670000D01*
%TO.C,R10*%
X129102500Y-128920500D02*
X130702500Y-128920500D01*
X129102500Y-128095500D02*
X129102500Y-128920500D01*
X130702500Y-128920500D02*
X130702500Y-128095500D01*
X130702500Y-128095500D02*
X129102500Y-128095500D01*
%TO.C,R5*%
X132487500Y-128087500D02*
X132487500Y-128912500D01*
X134087500Y-128087500D02*
X132487500Y-128087500D01*
X132487500Y-128912500D02*
X134087500Y-128912500D01*
X134087500Y-128912500D02*
X134087500Y-128087500D01*
%TD*%
M02*
