<?xml version="1.0" standalone="no"?>
 <!DOCTYPE svg PUBLIC "-//W3C//DTD SVG 1.1//EN" 
 "http://www.w3.org/Graphics/SVG/1.1/DTD/svg11.dtd"> 
<svg
  xmlns:svg="http://www.w3.org/2000/svg"
  xmlns="http://www.w3.org/2000/svg"
  xmlns:xlink="http://www.w3.org/1999/xlink"
  version="1.1"
  width="29.700220cm" height="21.000720cm" viewBox="0 0 297002200 210007200">
<title>SVG Picture created as MiniVerb-F_Fab.svg date 2022/12/06 22:08:04 </title>
  <desc>Picture generated by PCBNEW </desc>
<g style="fill:#000000; fill-opacity:1.000000;stroke:#000000; stroke-opacity:1.000000;
stroke-linecap:round; stroke-linejoin:round;"
 transform="translate(0 0) scale(1 1)">
</g>
<g style="fill:#000000; fill-opacity:0.0; 
stroke:#000000; stroke-width:0.000000; stroke-opacity:1; 
stroke-linecap:round; stroke-linejoin:round;">
</g>
<g style="fill:#000000; fill-opacity:0.0; 
stroke:#000000; stroke-width:21200.000000; stroke-opacity:1; 
stroke-linecap:round; stroke-linejoin:round;">
</g>
<g style="fill:#000000; fill-opacity:0.0; 
stroke:#000000; stroke-width:150000.000000; stroke-opacity:1; 
stroke-linecap:round; stroke-linejoin:round;">
<rect x="177002200.000000" y="166007200.000000" width="108000000.000000" height="32000000.000000" rx="0.000000" />
</g>
<g style="fill:#000000; fill-opacity:0.0; 
stroke:#000000; stroke-width:21200.000000; stroke-opacity:1; 
stroke-linecap:round; stroke-linejoin:round;">
</g>
<g style="fill:#000000; fill-opacity:0.0; 
stroke:#000000; stroke-width:150000.000000; stroke-opacity:1; 
stroke-linecap:round; stroke-linejoin:round;">
<rect x="10000000.000000" y="10000000.000000" width="277002200.000000" height="190007200.000000" rx="0.000000" />
</g>
<g style="fill:#000000; fill-opacity:0.0; 
stroke:#000000; stroke-width:21200.000000; stroke-opacity:1; 
stroke-linecap:round; stroke-linejoin:round;">
</g>
<g style="fill:#000000; fill-opacity:0.0; 
stroke:#000000; stroke-width:150000.000000; stroke-opacity:1; 
stroke-linecap:round; stroke-linejoin:round;">
<rect x="12000000.000000" y="12000000.000000" width="273002200.000000" height="186007200.000000" rx="0.000000" />
</g>
<g style="fill:#000000; fill-opacity:0.0; 
stroke:#000000; stroke-width:21200.000000; stroke-opacity:1; 
stroke-linecap:round; stroke-linejoin:round;">
</g>
<g style="fill:#000000; fill-opacity:0.0; 
stroke:#000000; stroke-width:150000.000000; stroke-opacity:1; 
stroke-linecap:round; stroke-linejoin:round;">
<path d="M60000000 12000000
L60000000 10000000
" />
</g>
<g style="fill:#000000; fill-opacity:0.0; 
stroke:#000000; stroke-width:21200.000000; stroke-opacity:1; 
stroke-linecap:round; stroke-linejoin:round;">
</g>
<g style="fill:#000000; fill-opacity:0.0; 
stroke:#000000; stroke-width:150000.000000; stroke-opacity:1; 
stroke-linecap:round; stroke-linejoin:round;">
<path d="M110000000 12000000
L110000000 10000000
" />
</g>
<g style="fill:#000000; fill-opacity:0.0; 
stroke:#000000; stroke-width:21200.000000; stroke-opacity:1; 
stroke-linecap:round; stroke-linejoin:round;">
</g>
<g style="fill:#000000; fill-opacity:0.0; 
stroke:#000000; stroke-width:150000.000000; stroke-opacity:1; 
stroke-linecap:round; stroke-linejoin:round;">
<path d="M160000000 12000000
L160000000 10000000
" />
</g>
<g style="fill:#000000; fill-opacity:0.0; 
stroke:#000000; stroke-width:21200.000000; stroke-opacity:1; 
stroke-linecap:round; stroke-linejoin:round;">
</g>
<g style="fill:#000000; fill-opacity:0.0; 
stroke:#000000; stroke-width:150000.000000; stroke-opacity:1; 
stroke-linecap:round; stroke-linejoin:round;">
<path d="M210000000 12000000
L210000000 10000000
" />
</g>
<g style="fill:#000000; fill-opacity:0.0; 
stroke:#000000; stroke-width:21200.000000; stroke-opacity:1; 
stroke-linecap:round; stroke-linejoin:round;">
</g>
<g style="fill:#000000; fill-opacity:0.0; 
stroke:#000000; stroke-width:150000.000000; stroke-opacity:1; 
stroke-linecap:round; stroke-linejoin:round;">
<path d="M260000000 12000000
L260000000 10000000
" />
</g>
<g style="fill:#000000; fill-opacity:0.0; 
stroke:#000000; stroke-width:21200.000000; stroke-opacity:1; 
stroke-linecap:round; stroke-linejoin:round;">
</g>
<g style="fill:#000000; fill-opacity:0.0; 
stroke:#000000; stroke-width:150000.000000; stroke-opacity:1; 
stroke-linecap:round; stroke-linejoin:round;">
<text x="35000000.000000" y="11650000.000000"
textLength="1394095.000000" font-size="1733333.000000" lengthAdjust="spacingAndGlyphs"
text-anchor="start" opacity="0">1</text>
<g class="stroked-text"><desc>1</desc>
<path d="M36065476 11588095
L35322619 11588095
" />
<path d="M35694047 11588095
L35694047 10288095
L35570238 10473809
L35446428 10597619
L35322619 10659523
" />
</g></g>
<g style="fill:#000000; fill-opacity:0.0; 
stroke:#000000; stroke-width:21200.000000; stroke-opacity:1; 
stroke-linecap:round; stroke-linejoin:round;">
</g>
<g style="fill:#000000; fill-opacity:0.0; 
stroke:#000000; stroke-width:150000.000000; stroke-opacity:1; 
stroke-linecap:round; stroke-linejoin:round;">
<text x="85000000.000000" y="11650000.000000"
textLength="1388095.000000" font-size="1733333.000000" lengthAdjust="spacingAndGlyphs"
text-anchor="start" opacity="0">2</text>
<g class="stroked-text"><desc>2</desc>
<path d="M85322619 10411904
L85384523 10350000
L85508333 10288095
L85817857 10288095
L85941666 10350000
L86003571 10411904
L86065476 10535714
L86065476 10659523
L86003571 10845238
L85260714 11588095
L86065476 11588095
" />
</g></g>
<g style="fill:#000000; fill-opacity:0.0; 
stroke:#000000; stroke-width:21200.000000; stroke-opacity:1; 
stroke-linecap:round; stroke-linejoin:round;">
</g>
<g style="fill:#000000; fill-opacity:0.0; 
stroke:#000000; stroke-width:150000.000000; stroke-opacity:1; 
stroke-linecap:round; stroke-linejoin:round;">
<text x="135000000.000000" y="11650000.000000"
textLength="1388095.000000" font-size="1733333.000000" lengthAdjust="spacingAndGlyphs"
text-anchor="start" opacity="0">3</text>
<g class="stroked-text"><desc>3</desc>
<path d="M135260714 10288095
L136065476 10288095
L135632142 10783333
L135817857 10783333
L135941666 10845238
L136003571 10907142
L136065476 11030952
L136065476 11340476
L136003571 11464285
L135941666 11526190
L135817857 11588095
L135446428 11588095
L135322619 11526190
L135260714 11464285
" />
</g></g>
<g style="fill:#000000; fill-opacity:0.0; 
stroke:#000000; stroke-width:21200.000000; stroke-opacity:1; 
stroke-linecap:round; stroke-linejoin:round;">
</g>
<g style="fill:#000000; fill-opacity:0.0; 
stroke:#000000; stroke-width:150000.000000; stroke-opacity:1; 
stroke-linecap:round; stroke-linejoin:round;">
<text x="185000000.000000" y="11650000.000000"
textLength="1388095.000000" font-size="1733333.000000" lengthAdjust="spacingAndGlyphs"
text-anchor="start" opacity="0">4</text>
<g class="stroked-text"><desc>4</desc>
<path d="M185941666 10721428
L185941666 11588095
" />
<path d="M185632142 10226190
L185322619 11154761
L186127380 11154761
" />
</g></g>
<g style="fill:#000000; fill-opacity:0.0; 
stroke:#000000; stroke-width:21200.000000; stroke-opacity:1; 
stroke-linecap:round; stroke-linejoin:round;">
</g>
<g style="fill:#000000; fill-opacity:0.0; 
stroke:#000000; stroke-width:150000.000000; stroke-opacity:1; 
stroke-linecap:round; stroke-linejoin:round;">
<text x="235000000.000000" y="11650000.000000"
textLength="1388095.000000" font-size="1733333.000000" lengthAdjust="spacingAndGlyphs"
text-anchor="start" opacity="0">5</text>
<g class="stroked-text"><desc>5</desc>
<path d="M236003571 10288095
L235384523 10288095
L235322619 10907142
L235384523 10845238
L235508333 10783333
L235817857 10783333
L235941666 10845238
L236003571 10907142
L236065476 11030952
L236065476 11340476
L236003571 11464285
L235941666 11526190
L235817857 11588095
L235508333 11588095
L235384523 11526190
L235322619 11464285
" />
</g></g>
<g style="fill:#000000; fill-opacity:0.0; 
stroke:#000000; stroke-width:21200.000000; stroke-opacity:1; 
stroke-linecap:round; stroke-linejoin:round;">
</g>
<g style="fill:#000000; fill-opacity:0.0; 
stroke:#000000; stroke-width:150000.000000; stroke-opacity:1; 
stroke-linecap:round; stroke-linejoin:round;">
<text x="285000000.000000" y="11650000.000000"
textLength="1388095.000000" font-size="1733333.000000" lengthAdjust="spacingAndGlyphs"
text-anchor="start" opacity="0">6</text>
<g class="stroked-text"><desc>6</desc>
<path d="M285941666 10288095
L285694047 10288095
L285570238 10350000
L285508333 10411904
L285384523 10597619
L285322619 10845238
L285322619 11340476
L285384523 11464285
L285446428 11526190
L285570238 11588095
L285817857 11588095
L285941666 11526190
L286003571 11464285
L286065476 11340476
L286065476 11030952
L286003571 10907142
L285941666 10845238
L285817857 10783333
L285570238 10783333
L285446428 10845238
L285384523 10907142
L285322619 11030952
" />
</g></g>
<g style="fill:#000000; fill-opacity:0.0; 
stroke:#000000; stroke-width:21200.000000; stroke-opacity:1; 
stroke-linecap:round; stroke-linejoin:round;">
</g>
<g style="fill:#000000; fill-opacity:0.0; 
stroke:#000000; stroke-width:150000.000000; stroke-opacity:1; 
stroke-linecap:round; stroke-linejoin:round;">
<path d="M60000000 198007200
L60000000 200007200
" />
</g>
<g style="fill:#000000; fill-opacity:0.0; 
stroke:#000000; stroke-width:21200.000000; stroke-opacity:1; 
stroke-linecap:round; stroke-linejoin:round;">
</g>
<g style="fill:#000000; fill-opacity:0.0; 
stroke:#000000; stroke-width:150000.000000; stroke-opacity:1; 
stroke-linecap:round; stroke-linejoin:round;">
<path d="M110000000 198007200
L110000000 200007200
" />
</g>
<g style="fill:#000000; fill-opacity:0.0; 
stroke:#000000; stroke-width:21200.000000; stroke-opacity:1; 
stroke-linecap:round; stroke-linejoin:round;">
</g>
<g style="fill:#000000; fill-opacity:0.0; 
stroke:#000000; stroke-width:150000.000000; stroke-opacity:1; 
stroke-linecap:round; stroke-linejoin:round;">
<path d="M160000000 198007200
L160000000 200007200
" />
</g>
<g style="fill:#000000; fill-opacity:0.0; 
stroke:#000000; stroke-width:21200.000000; stroke-opacity:1; 
stroke-linecap:round; stroke-linejoin:round;">
</g>
<g style="fill:#000000; fill-opacity:0.0; 
stroke:#000000; stroke-width:150000.000000; stroke-opacity:1; 
stroke-linecap:round; stroke-linejoin:round;">
<path d="M210000000 198007200
L210000000 200007200
" />
</g>
<g style="fill:#000000; fill-opacity:0.0; 
stroke:#000000; stroke-width:21200.000000; stroke-opacity:1; 
stroke-linecap:round; stroke-linejoin:round;">
</g>
<g style="fill:#000000; fill-opacity:0.0; 
stroke:#000000; stroke-width:150000.000000; stroke-opacity:1; 
stroke-linecap:round; stroke-linejoin:round;">
<path d="M260000000 198007200
L260000000 200007200
" />
</g>
<g style="fill:#000000; fill-opacity:0.0; 
stroke:#000000; stroke-width:21200.000000; stroke-opacity:1; 
stroke-linecap:round; stroke-linejoin:round;">
</g>
<g style="fill:#000000; fill-opacity:0.0; 
stroke:#000000; stroke-width:150000.000000; stroke-opacity:1; 
stroke-linecap:round; stroke-linejoin:round;">
<text x="35000000.000000" y="199657200.000000"
textLength="1388095.000000" font-size="1733333.000000" lengthAdjust="spacingAndGlyphs"
text-anchor="start" opacity="0">1</text>
<g class="stroked-text"><desc>1</desc>
<path d="M36065476 199595295
L35322619 199595295
" />
<path d="M35694047 199595295
L35694047 198295295
L35570238 198481009
L35446428 198604819
L35322619 198666723
" />
</g></g>
<g style="fill:#000000; fill-opacity:0.0; 
stroke:#000000; stroke-width:21200.000000; stroke-opacity:1; 
stroke-linecap:round; stroke-linejoin:round;">
</g>
<g style="fill:#000000; fill-opacity:0.0; 
stroke:#000000; stroke-width:150000.000000; stroke-opacity:1; 
stroke-linecap:round; stroke-linejoin:round;">
<text x="85000000.000000" y="199657200.000000"
textLength="1388095.000000" font-size="1733333.000000" lengthAdjust="spacingAndGlyphs"
text-anchor="start" opacity="0">2</text>
<g class="stroked-text"><desc>2</desc>
<path d="M85322619 198419104
L85384523 198357200
L85508333 198295295
L85817857 198295295
L85941666 198357200
L86003571 198419104
L86065476 198542914
L86065476 198666723
L86003571 198852438
L85260714 199595295
L86065476 199595295
" />
</g></g>
<g style="fill:#000000; fill-opacity:0.0; 
stroke:#000000; stroke-width:21200.000000; stroke-opacity:1; 
stroke-linecap:round; stroke-linejoin:round;">
</g>
<g style="fill:#000000; fill-opacity:0.0; 
stroke:#000000; stroke-width:150000.000000; stroke-opacity:1; 
stroke-linecap:round; stroke-linejoin:round;">
<text x="135000000.000000" y="199657200.000000"
textLength="1388095.000000" font-size="1733333.000000" lengthAdjust="spacingAndGlyphs"
text-anchor="start" opacity="0">3</text>
<g class="stroked-text"><desc>3</desc>
<path d="M135260714 198295295
L136065476 198295295
L135632142 198790533
L135817857 198790533
L135941666 198852438
L136003571 198914342
L136065476 199038152
L136065476 199347676
L136003571 199471485
L135941666 199533390
L135817857 199595295
L135446428 199595295
L135322619 199533390
L135260714 199471485
" />
</g></g>
<g style="fill:#000000; fill-opacity:0.0; 
stroke:#000000; stroke-width:21200.000000; stroke-opacity:1; 
stroke-linecap:round; stroke-linejoin:round;">
</g>
<g style="fill:#000000; fill-opacity:0.0; 
stroke:#000000; stroke-width:150000.000000; stroke-opacity:1; 
stroke-linecap:round; stroke-linejoin:round;">
<text x="185000000.000000" y="199657200.000000"
textLength="1388095.000000" font-size="1733333.000000" lengthAdjust="spacingAndGlyphs"
text-anchor="start" opacity="0">4</text>
<g class="stroked-text"><desc>4</desc>
<path d="M185941666 198728628
L185941666 199595295
" />
<path d="M185632142 198233390
L185322619 199161961
L186127380 199161961
" />
</g></g>
<g style="fill:#000000; fill-opacity:0.0; 
stroke:#000000; stroke-width:21200.000000; stroke-opacity:1; 
stroke-linecap:round; stroke-linejoin:round;">
</g>
<g style="fill:#000000; fill-opacity:0.0; 
stroke:#000000; stroke-width:150000.000000; stroke-opacity:1; 
stroke-linecap:round; stroke-linejoin:round;">
<text x="235000000.000000" y="199657200.000000"
textLength="1388095.000000" font-size="1733333.000000" lengthAdjust="spacingAndGlyphs"
text-anchor="start" opacity="0">5</text>
<g class="stroked-text"><desc>5</desc>
<path d="M236003571 198295295
L235384523 198295295
L235322619 198914342
L235384523 198852438
L235508333 198790533
L235817857 198790533
L235941666 198852438
L236003571 198914342
L236065476 199038152
L236065476 199347676
L236003571 199471485
L235941666 199533390
L235817857 199595295
L235508333 199595295
L235384523 199533390
L235322619 199471485
" />
</g></g>
<g style="fill:#000000; fill-opacity:0.0; 
stroke:#000000; stroke-width:21200.000000; stroke-opacity:1; 
stroke-linecap:round; stroke-linejoin:round;">
</g>
<g style="fill:#000000; fill-opacity:0.0; 
stroke:#000000; stroke-width:150000.000000; stroke-opacity:1; 
stroke-linecap:round; stroke-linejoin:round;">
<text x="285000000.000000" y="199657200.000000"
textLength="1388095.000000" font-size="1733333.000000" lengthAdjust="spacingAndGlyphs"
text-anchor="start" opacity="0">6</text>
<g class="stroked-text"><desc>6</desc>
<path d="M285941666 198295295
L285694047 198295295
L285570238 198357200
L285508333 198419104
L285384523 198604819
L285322619 198852438
L285322619 199347676
L285384523 199471485
L285446428 199533390
L285570238 199595295
L285817857 199595295
L285941666 199533390
L286003571 199471485
L286065476 199347676
L286065476 199038152
L286003571 198914342
L285941666 198852438
L285817857 198790533
L285570238 198790533
L285446428 198852438
L285384523 198914342
L285322619 199038152
" />
</g></g>
<g style="fill:#000000; fill-opacity:0.0; 
stroke:#000000; stroke-width:21200.000000; stroke-opacity:1; 
stroke-linecap:round; stroke-linejoin:round;">
</g>
<g style="fill:#000000; fill-opacity:0.0; 
stroke:#000000; stroke-width:150000.000000; stroke-opacity:1; 
stroke-linecap:round; stroke-linejoin:round;">
<path d="M10000000 60000000
L12000000 60000000
" />
</g>
<g style="fill:#000000; fill-opacity:0.0; 
stroke:#000000; stroke-width:21200.000000; stroke-opacity:1; 
stroke-linecap:round; stroke-linejoin:round;">
</g>
<g style="fill:#000000; fill-opacity:0.0; 
stroke:#000000; stroke-width:150000.000000; stroke-opacity:1; 
stroke-linecap:round; stroke-linejoin:round;">
<path d="M10000000 110000000
L12000000 110000000
" />
</g>
<g style="fill:#000000; fill-opacity:0.0; 
stroke:#000000; stroke-width:21200.000000; stroke-opacity:1; 
stroke-linecap:round; stroke-linejoin:round;">
</g>
<g style="fill:#000000; fill-opacity:0.0; 
stroke:#000000; stroke-width:150000.000000; stroke-opacity:1; 
stroke-linecap:round; stroke-linejoin:round;">
<path d="M10000000 160000000
L12000000 160000000
" />
</g>
<g style="fill:#000000; fill-opacity:0.0; 
stroke:#000000; stroke-width:21200.000000; stroke-opacity:1; 
stroke-linecap:round; stroke-linejoin:round;">
</g>
<g style="fill:#000000; fill-opacity:0.0; 
stroke:#000000; stroke-width:150000.000000; stroke-opacity:1; 
stroke-linecap:round; stroke-linejoin:round;">
<text x="11000000.000000" y="35650000.000000"
textLength="1264286.000000" font-size="1733333.000000" lengthAdjust="spacingAndGlyphs"
text-anchor="middle" opacity="0">A</text>
<g class="stroked-text"><desc>A</desc>
<path d="M10690476 35216666
L11309523 35216666
" />
<path d="M10566666 35588095
L11000000 34288095
L11433333 35588095
" />
</g></g>
<g style="fill:#000000; fill-opacity:0.0; 
stroke:#000000; stroke-width:21200.000000; stroke-opacity:1; 
stroke-linecap:round; stroke-linejoin:round;">
</g>
<g style="fill:#000000; fill-opacity:0.0; 
stroke:#000000; stroke-width:150000.000000; stroke-opacity:1; 
stroke-linecap:round; stroke-linejoin:round;">
<text x="11000000.000000" y="85650000.000000"
textLength="1450000.000000" font-size="1733333.000000" lengthAdjust="spacingAndGlyphs"
text-anchor="middle" opacity="0">B</text>
<g class="stroked-text"><desc>B</desc>
<path d="M11092857 84907142
L11278571 84969047
L11340476 85030952
L11402380 85154761
L11402380 85340476
L11340476 85464285
L11278571 85526190
L11154761 85588095
L10659523 85588095
L10659523 84288095
L11092857 84288095
L11216666 84350000
L11278571 84411904
L11340476 84535714
L11340476 84659523
L11278571 84783333
L11216666 84845238
L11092857 84907142
L10659523 84907142
" />
</g></g>
<g style="fill:#000000; fill-opacity:0.0; 
stroke:#000000; stroke-width:21200.000000; stroke-opacity:1; 
stroke-linecap:round; stroke-linejoin:round;">
</g>
<g style="fill:#000000; fill-opacity:0.0; 
stroke:#000000; stroke-width:150000.000000; stroke-opacity:1; 
stroke-linecap:round; stroke-linejoin:round;">
<text x="11000000.000000" y="135650000.000000"
textLength="1450000.000000" font-size="1733333.000000" lengthAdjust="spacingAndGlyphs"
text-anchor="middle" opacity="0">C</text>
<g class="stroked-text"><desc>C</desc>
<path d="M11402380 135464285
L11340476 135526190
L11154761 135588095
L11030952 135588095
L10845238 135526190
L10721428 135402380
L10659523 135278571
L10597619 135030952
L10597619 134845238
L10659523 134597619
L10721428 134473809
L10845238 134350000
L11030952 134288095
L11154761 134288095
L11340476 134350000
L11402380 134411904
" />
</g></g>
<g style="fill:#000000; fill-opacity:0.0; 
stroke:#000000; stroke-width:21200.000000; stroke-opacity:1; 
stroke-linecap:round; stroke-linejoin:round;">
</g>
<g style="fill:#000000; fill-opacity:0.0; 
stroke:#000000; stroke-width:150000.000000; stroke-opacity:1; 
stroke-linecap:round; stroke-linejoin:round;">
<text x="11000000.000000" y="185650000.000000"
textLength="1450000.000000" font-size="1733333.000000" lengthAdjust="spacingAndGlyphs"
text-anchor="middle" opacity="0">D</text>
<g class="stroked-text"><desc>D</desc>
<path d="M10659523 185588095
L10659523 184288095
L10969047 184288095
L11154761 184350000
L11278571 184473809
L11340476 184597619
L11402380 184845238
L11402380 185030952
L11340476 185278571
L11278571 185402380
L11154761 185526190
L10969047 185588095
L10659523 185588095
" />
</g></g>
<g style="fill:#000000; fill-opacity:0.0; 
stroke:#000000; stroke-width:21200.000000; stroke-opacity:1; 
stroke-linecap:round; stroke-linejoin:round;">
</g>
<g style="fill:#000000; fill-opacity:0.0; 
stroke:#000000; stroke-width:150000.000000; stroke-opacity:1; 
stroke-linecap:round; stroke-linejoin:round;">
<path d="M287002200 60000000
L285002200 60000000
" />
</g>
<g style="fill:#000000; fill-opacity:0.0; 
stroke:#000000; stroke-width:21200.000000; stroke-opacity:1; 
stroke-linecap:round; stroke-linejoin:round;">
</g>
<g style="fill:#000000; fill-opacity:0.0; 
stroke:#000000; stroke-width:150000.000000; stroke-opacity:1; 
stroke-linecap:round; stroke-linejoin:round;">
<path d="M287002200 110000000
L285002200 110000000
" />
</g>
<g style="fill:#000000; fill-opacity:0.0; 
stroke:#000000; stroke-width:21200.000000; stroke-opacity:1; 
stroke-linecap:round; stroke-linejoin:round;">
</g>
<g style="fill:#000000; fill-opacity:0.0; 
stroke:#000000; stroke-width:150000.000000; stroke-opacity:1; 
stroke-linecap:round; stroke-linejoin:round;">
<path d="M287002200 160000000
L285002200 160000000
" />
</g>
<g style="fill:#000000; fill-opacity:0.0; 
stroke:#000000; stroke-width:21200.000000; stroke-opacity:1; 
stroke-linecap:round; stroke-linejoin:round;">
</g>
<g style="fill:#000000; fill-opacity:0.0; 
stroke:#000000; stroke-width:150000.000000; stroke-opacity:1; 
stroke-linecap:round; stroke-linejoin:round;">
<text x="286002200.000000" y="35650000.000000"
textLength="1264286.000000" font-size="1733333.000000" lengthAdjust="spacingAndGlyphs"
text-anchor="middle" opacity="0">A</text>
<g class="stroked-text"><desc>A</desc>
<path d="M285692676 35216666
L286311723 35216666
" />
<path d="M285568866 35588095
L286002200 34288095
L286435533 35588095
" />
</g></g>
<g style="fill:#000000; fill-opacity:0.0; 
stroke:#000000; stroke-width:21200.000000; stroke-opacity:1; 
stroke-linecap:round; stroke-linejoin:round;">
</g>
<g style="fill:#000000; fill-opacity:0.0; 
stroke:#000000; stroke-width:150000.000000; stroke-opacity:1; 
stroke-linecap:round; stroke-linejoin:round;">
<text x="286002200.000000" y="85650000.000000"
textLength="1450000.000000" font-size="1733333.000000" lengthAdjust="spacingAndGlyphs"
text-anchor="middle" opacity="0">B</text>
<g class="stroked-text"><desc>B</desc>
<path d="M286095057 84907142
L286280771 84969047
L286342676 85030952
L286404580 85154761
L286404580 85340476
L286342676 85464285
L286280771 85526190
L286156961 85588095
L285661723 85588095
L285661723 84288095
L286095057 84288095
L286218866 84350000
L286280771 84411904
L286342676 84535714
L286342676 84659523
L286280771 84783333
L286218866 84845238
L286095057 84907142
L285661723 84907142
" />
</g></g>
<g style="fill:#000000; fill-opacity:0.0; 
stroke:#000000; stroke-width:21200.000000; stroke-opacity:1; 
stroke-linecap:round; stroke-linejoin:round;">
</g>
<g style="fill:#000000; fill-opacity:0.0; 
stroke:#000000; stroke-width:150000.000000; stroke-opacity:1; 
stroke-linecap:round; stroke-linejoin:round;">
<text x="286002200.000000" y="135650000.000000"
textLength="1450000.000000" font-size="1733333.000000" lengthAdjust="spacingAndGlyphs"
text-anchor="middle" opacity="0">C</text>
<g class="stroked-text"><desc>C</desc>
<path d="M286404580 135464285
L286342676 135526190
L286156961 135588095
L286033152 135588095
L285847438 135526190
L285723628 135402380
L285661723 135278571
L285599819 135030952
L285599819 134845238
L285661723 134597619
L285723628 134473809
L285847438 134350000
L286033152 134288095
L286156961 134288095
L286342676 134350000
L286404580 134411904
" />
</g></g>
<g style="fill:#000000; fill-opacity:0.0; 
stroke:#000000; stroke-width:21200.000000; stroke-opacity:1; 
stroke-linecap:round; stroke-linejoin:round;">
</g>
<g style="fill:#000000; fill-opacity:0.0; 
stroke:#000000; stroke-width:150000.000000; stroke-opacity:1; 
stroke-linecap:round; stroke-linejoin:round;">
<text x="286002200.000000" y="185650000.000000"
textLength="1450000.000000" font-size="1733333.000000" lengthAdjust="spacingAndGlyphs"
text-anchor="middle" opacity="0">D</text>
<g class="stroked-text"><desc>D</desc>
<path d="M285661723 185588095
L285661723 184288095
L285971247 184288095
L286156961 184350000
L286280771 184473809
L286342676 184597619
L286404580 184845238
L286404580 185030952
L286342676 185278571
L286280771 185402380
L286156961 185526190
L285971247 185588095
L285661723 185588095
" />
</g></g>
<g style="fill:#000000; fill-opacity:0.0; 
stroke:#000000; stroke-width:21200.000000; stroke-opacity:1; 
stroke-linecap:round; stroke-linejoin:round;">
</g>
<g style="fill:#000000; fill-opacity:0.0; 
stroke:#000000; stroke-width:150000.000000; stroke-opacity:1; 
stroke-linecap:round; stroke-linejoin:round;">
<text x="200002200.000000" y="193857200.000000"
textLength="7007143.000000" font-size="2000000.000000" lengthAdjust="spacingAndGlyphs"
text-anchor="start" opacity="0">Date: </text>
<g class="stroked-text"><desc>Date: </desc>
<path d="M200434342 193785771
L200434342 192285771
L200791485 192285771
L201005771 192357200
L201148628 192500057
L201220057 192642914
L201291485 192928628
L201291485 193142914
L201220057 193428628
L201148628 193571485
L201005771 193714342
L200791485 193785771
L200434342 193785771
" />
<path d="M202577200 193785771
L202577200 193000057
L202505771 192857200
L202362914 192785771
L202077200 192785771
L201934342 192857200
" />
<path d="M202577200 193714342
L202434342 193785771
L202077200 193785771
L201934342 193714342
L201862914 193571485
L201862914 193428628
L201934342 193285771
L202077200 193214342
L202434342 193214342
L202577200 193142914
" />
<path d="M203077200 192785771
L203648628 192785771
" />
<path d="M203291485 192285771
L203291485 193571485
L203362914 193714342
L203505771 193785771
L203648628 193785771
" />
<path d="M204720057 193714342
L204577200 193785771
L204291485 193785771
L204148628 193714342
L204077200 193571485
L204077200 193000057
L204148628 192857200
L204291485 192785771
L204577200 192785771
L204720057 192857200
L204791485 193000057
L204791485 193142914
L204077200 193285771
" />
<path d="M205434342 193642914
L205505771 193714342
L205434342 193785771
L205362914 193714342
L205434342 193642914
L205434342 193785771
" />
<path d="M205434342 192857200
L205505771 192928628
L205434342 193000057
L205362914 192928628
L205434342 192857200
L205434342 193000057
" />
</g></g>
<g style="fill:#000000; fill-opacity:0.0; 
stroke:#000000; stroke-width:21200.000000; stroke-opacity:1; 
stroke-linecap:round; stroke-linejoin:round;">
</g>
<g style="fill:#000000; fill-opacity:0.0; 
stroke:#000000; stroke-width:150000.000000; stroke-opacity:1; 
stroke-linecap:round; stroke-linejoin:round;">
<path d="M177002200 194507200
L285002200 194507200
" />
</g>
<g style="fill:#000000; fill-opacity:0.0; 
stroke:#000000; stroke-width:21200.000000; stroke-opacity:1; 
stroke-linecap:round; stroke-linejoin:round;">
</g>
<g style="fill:#000000; fill-opacity:0.0; 
stroke:#000000; stroke-width:150000.000000; stroke-opacity:1; 
stroke-linecap:round; stroke-linejoin:round;">
<text x="178002200.000000" y="196657200.000000"
textLength="50292857.000000" font-size="2000000.000000" lengthAdjust="spacingAndGlyphs"
text-anchor="start" opacity="0">KiCad E.D.A.  kicad 6.0.9+dfsg-1~bpo11+1</text>
<g class="stroked-text"><desc>KiCad E.D.A.  kicad 6.0.9+dfsg-1~bpo11+1</desc>
<path d="M178434342 196585771
L178434342 195085771
" />
<path d="M179291485 196585771
L178648628 195728628
" />
<path d="M179291485 195085771
L178434342 195942914
" />
<path d="M179934342 196585771
L179934342 195585771
" />
<path d="M179934342 195085771
L179862914 195157200
L179934342 195228628
L180005771 195157200
L179934342 195085771
L179934342 195228628
" />
<path d="M181505771 196442914
L181434342 196514342
L181220057 196585771
L181077200 196585771
L180862914 196514342
L180720057 196371485
L180648628 196228628
L180577200 195942914
L180577200 195728628
L180648628 195442914
L180720057 195300057
L180862914 195157200
L181077200 195085771
L181220057 195085771
L181434342 195157200
L181505771 195228628
" />
<path d="M182791485 196585771
L182791485 195800057
L182720057 195657200
L182577200 195585771
L182291485 195585771
L182148628 195657200
" />
<path d="M182791485 196514342
L182648628 196585771
L182291485 196585771
L182148628 196514342
L182077200 196371485
L182077200 196228628
L182148628 196085771
L182291485 196014342
L182648628 196014342
L182791485 195942914
" />
<path d="M184148628 196585771
L184148628 195085771
" />
<path d="M184148628 196514342
L184005771 196585771
L183720057 196585771
L183577200 196514342
L183505771 196442914
L183434342 196300057
L183434342 195871485
L183505771 195728628
L183577200 195657200
L183720057 195585771
L184005771 195585771
L184148628 195657200
" />
<path d="M186005771 195800057
L186505771 195800057
" />
<path d="M186720057 196585771
L186005771 196585771
L186005771 195085771
L186720057 195085771
" />
<path d="M187362914 196442914
L187434342 196514342
L187362914 196585771
L187291485 196514342
L187362914 196442914
L187362914 196585771
" />
<path d="M188077200 196585771
L188077200 195085771
L188434342 195085771
L188648628 195157200
L188791485 195300057
L188862914 195442914
L188934342 195728628
L188934342 195942914
L188862914 196228628
L188791485 196371485
L188648628 196514342
L188434342 196585771
L188077200 196585771
" />
<path d="M189577200 196442914
L189648628 196514342
L189577200 196585771
L189505771 196514342
L189577200 196442914
L189577200 196585771
" />
<path d="M190220057 196157200
L190934342 196157200
" />
<path d="M190077200 196585771
L190577200 195085771
L191077200 196585771
" />
<path d="M191577200 196442914
L191648628 196514342
L191577200 196585771
L191505771 196514342
L191577200 196442914
L191577200 196585771
" />
<path d="M194577200 196585771
L194577200 195085771
" />
<path d="M194720057 196014342
L195148628 196585771
" />
<path d="M195148628 195585771
L194577200 196157200
" />
<path d="M195791485 196585771
L195791485 195585771
" />
<path d="M195791485 195085771
L195720057 195157200
L195791485 195228628
L195862914 195157200
L195791485 195085771
L195791485 195228628
" />
<path d="M197148628 196514342
L197005771 196585771
L196720057 196585771
L196577200 196514342
L196505771 196442914
L196434342 196300057
L196434342 195871485
L196505771 195728628
L196577200 195657200
L196720057 195585771
L197005771 195585771
L197148628 195657200
" />
<path d="M198434342 196585771
L198434342 195800057
L198362914 195657200
L198220057 195585771
L197934342 195585771
L197791485 195657200
" />
<path d="M198434342 196514342
L198291485 196585771
L197934342 196585771
L197791485 196514342
L197720057 196371485
L197720057 196228628
L197791485 196085771
L197934342 196014342
L198291485 196014342
L198434342 195942914
" />
<path d="M199791485 196585771
L199791485 195085771
" />
<path d="M199791485 196514342
L199648628 196585771
L199362914 196585771
L199220057 196514342
L199148628 196442914
L199077200 196300057
L199077200 195871485
L199148628 195728628
L199220057 195657200
L199362914 195585771
L199648628 195585771
L199791485 195657200
" />
<path d="M202291485 195085771
L202005771 195085771
L201862914 195157200
L201791485 195228628
L201648628 195442914
L201577200 195728628
L201577200 196300057
L201648628 196442914
L201720057 196514342
L201862914 196585771
L202148628 196585771
L202291485 196514342
L202362914 196442914
L202434342 196300057
L202434342 195942914
L202362914 195800057
L202291485 195728628
L202148628 195657200
L201862914 195657200
L201720057 195728628
L201648628 195800057
L201577200 195942914
" />
<path d="M203077200 196442914
L203148628 196514342
L203077200 196585771
L203005771 196514342
L203077200 196442914
L203077200 196585771
" />
<path d="M204077200 195085771
L204220057 195085771
L204362914 195157200
L204434342 195228628
L204505771 195371485
L204577200 195657200
L204577200 196014342
L204505771 196300057
L204434342 196442914
L204362914 196514342
L204220057 196585771
L204077200 196585771
L203934342 196514342
L203862914 196442914
L203791485 196300057
L203720057 196014342
L203720057 195657200
L203791485 195371485
L203862914 195228628
L203934342 195157200
L204077200 195085771
" />
<path d="M205220057 196442914
L205291485 196514342
L205220057 196585771
L205148628 196514342
L205220057 196442914
L205220057 196585771
" />
<path d="M206005771 196585771
L206291485 196585771
L206434342 196514342
L206505771 196442914
L206648628 196228628
L206720057 195942914
L206720057 195371485
L206648628 195228628
L206577200 195157200
L206434342 195085771
L206148628 195085771
L206005771 195157200
L205934342 195228628
L205862914 195371485
L205862914 195728628
L205934342 195871485
L206005771 195942914
L206148628 196014342
L206434342 196014342
L206577200 195942914
L206648628 195871485
L206720057 195728628
" />
<path d="M207362914 196014342
L208505771 196014342
" />
<path d="M207934342 196585771
L207934342 195442914
" />
<path d="M209862914 196585771
L209862914 195085771
" />
<path d="M209862914 196514342
L209720057 196585771
L209434342 196585771
L209291485 196514342
L209220057 196442914
L209148628 196300057
L209148628 195871485
L209220057 195728628
L209291485 195657200
L209434342 195585771
L209720057 195585771
L209862914 195657200
" />
<path d="M210362914 195585771
L210934342 195585771
" />
<path d="M210577200 196585771
L210577200 195300057
L210648628 195157200
L210791485 195085771
L210934342 195085771
" />
<path d="M211362914 196514342
L211505771 196585771
L211791485 196585771
L211934342 196514342
L212005771 196371485
L212005771 196300057
L211934342 196157200
L211791485 196085771
L211577200 196085771
L211434342 196014342
L211362914 195871485
L211362914 195800057
L211434342 195657200
L211577200 195585771
L211791485 195585771
L211934342 195657200
" />
<path d="M213291485 195585771
L213291485 196800057
L213220057 196942914
L213148628 197014342
L213005771 197085771
L212791485 197085771
L212648628 197014342
" />
<path d="M213291485 196514342
L213148628 196585771
L212862914 196585771
L212720057 196514342
L212648628 196442914
L212577200 196300057
L212577200 195871485
L212648628 195728628
L212720057 195657200
L212862914 195585771
L213148628 195585771
L213291485 195657200
" />
<path d="M214005771 196014342
L215148628 196014342
" />
<path d="M216648628 196585771
L215791485 196585771
" />
<path d="M216220057 196585771
L216220057 195085771
L216077200 195300057
L215934342 195442914
L215791485 195514342
" />
<path d="M217077200 196014342
L217148628 195942914
L217291485 195871485
L217577200 196014342
L217720057 195942914
L217791485 195871485
" />
<path d="M218362914 196585771
L218362914 195085771
" />
<path d="M218362914 195657200
L218505771 195585771
L218791485 195585771
L218934342 195657200
L219005771 195728628
L219077200 195871485
L219077200 196300057
L219005771 196442914
L218934342 196514342
L218791485 196585771
L218505771 196585771
L218362914 196514342
" />
<path d="M219720057 195585771
L219720057 197085771
" />
<path d="M219720057 195657200
L219862914 195585771
L220148628 195585771
L220291485 195657200
L220362914 195728628
L220434342 195871485
L220434342 196300057
L220362914 196442914
L220291485 196514342
L220148628 196585771
L219862914 196585771
L219720057 196514342
" />
<path d="M221291485 196585771
L221148628 196514342
L221077200 196442914
L221005771 196300057
L221005771 195871485
L221077200 195728628
L221148628 195657200
L221291485 195585771
L221505771 195585771
L221648628 195657200
L221720057 195728628
L221791485 195871485
L221791485 196300057
L221720057 196442914
L221648628 196514342
L221505771 196585771
L221291485 196585771
" />
<path d="M223220057 196585771
L222362914 196585771
" />
<path d="M222791485 196585771
L222791485 195085771
L222648628 195300057
L222505771 195442914
L222362914 195514342
" />
<path d="M224648628 196585771
L223791485 196585771
" />
<path d="M224220057 196585771
L224220057 195085771
L224077200 195300057
L223934342 195442914
L223791485 195514342
" />
<path d="M225291485 196014342
L226434342 196014342
" />
<path d="M225862914 196585771
L225862914 195442914
" />
<path d="M227934342 196585771
L227077200 196585771
" />
<path d="M227505771 196585771
L227505771 195085771
L227362914 195300057
L227220057 195442914
L227077200 195514342
" />
</g></g>
<g style="fill:#000000; fill-opacity:0.0; 
stroke:#000000; stroke-width:21200.000000; stroke-opacity:1; 
stroke-linecap:round; stroke-linejoin:round;">
</g>
<g style="fill:#000000; fill-opacity:0.0; 
stroke:#000000; stroke-width:150000.000000; stroke-opacity:1; 
stroke-linecap:round; stroke-linejoin:round;">
<path d="M177002200 191507200
L285002200 191507200
" />
</g>
<g style="fill:#000000; fill-opacity:0.0; 
stroke:#000000; stroke-width:21200.000000; stroke-opacity:1; 
stroke-linecap:round; stroke-linejoin:round;">
</g>
<g style="fill:#000000; fill-opacity:0.0; 
stroke:#000000; stroke-width:300000.000000; stroke-opacity:1; 
stroke-linecap:round; stroke-linejoin:round;">
<text x="263002200.000000" y="193857200.000000"
textLength="5935714.000000" font-size="2000000.000000" lengthAdjust="spacingAndGlyphs"
text-anchor="start" opacity="0">Rev: </text>
<g class="stroked-text"><desc>Rev: </desc>
<path d="M264411485 193785771
L263911485 193071485
" />
<path d="M263554342 193785771
L263554342 192285771
L264125771 192285771
L264268628 192357200
L264340057 192428628
L264411485 192571485
L264411485 192785771
L264340057 192928628
L264268628 193000057
L264125771 193071485
L263554342 193071485
" />
<path d="M265625771 193714342
L265482914 193785771
L265197200 193785771
L265054342 193714342
L264982914 193571485
L264982914 193000057
L265054342 192857200
L265197200 192785771
L265482914 192785771
L265625771 192857200
L265697200 193000057
L265697200 193142914
L264982914 193285771
" />
<path d="M266197200 192785771
L266554342 193785771
L266911485 192785771
" />
<path d="M267482914 193642914
L267554342 193714342
L267482914 193785771
L267411485 193714342
L267482914 193642914
L267482914 193785771
" />
<path d="M267482914 192857200
L267554342 192928628
L267482914 193000057
L267411485 192928628
L267482914 192857200
L267482914 193000057
" />
</g></g>
<g style="fill:#000000; fill-opacity:0.0; 
stroke:#000000; stroke-width:21200.000000; stroke-opacity:1; 
stroke-linecap:round; stroke-linejoin:round;">
</g>
<g style="fill:#000000; fill-opacity:0.0; 
stroke:#000000; stroke-width:150000.000000; stroke-opacity:1; 
stroke-linecap:round; stroke-linejoin:round;">
<text x="178002200.000000" y="193857200.000000"
textLength="9604286.000000" font-size="2000000.000000" lengthAdjust="spacingAndGlyphs"
text-anchor="start" opacity="0">Size: A4</text>
<g class="stroked-text"><desc>Size: A4</desc>
<path d="M178362914 193714342
L178577200 193785771
L178934342 193785771
L179077200 193714342
L179148628 193642914
L179220057 193500057
L179220057 193357200
L179148628 193214342
L179077200 193142914
L178934342 193071485
L178648628 193000057
L178505771 192928628
L178434342 192857200
L178362914 192714342
L178362914 192571485
L178434342 192428628
L178505771 192357200
L178648628 192285771
L179005771 192285771
L179220057 192357200
" />
<path d="M179862914 193785771
L179862914 192785771
" />
<path d="M179862914 192285771
L179791485 192357200
L179862914 192428628
L179934342 192357200
L179862914 192285771
L179862914 192428628
" />
<path d="M180434342 192785771
L181220057 192785771
L180434342 193785771
L181220057 193785771
" />
<path d="M182362914 193714342
L182220057 193785771
L181934342 193785771
L181791485 193714342
L181720057 193571485
L181720057 193000057
L181791485 192857200
L181934342 192785771
L182220057 192785771
L182362914 192857200
L182434342 193000057
L182434342 193142914
L181720057 193285771
" />
<path d="M183077200 193642914
L183148628 193714342
L183077200 193785771
L183005771 193714342
L183077200 193642914
L183077200 193785771
" />
<path d="M183077200 192857200
L183148628 192928628
L183077200 193000057
L183005771 192928628
L183077200 192857200
L183077200 193000057
" />
<path d="M184862914 193357200
L185577200 193357200
" />
<path d="M184720057 193785771
L185220057 192285771
L185720057 193785771
" />
<path d="M186862914 192785771
L186862914 193785771
" />
<path d="M186505771 192214342
L186148628 193285771
L187077200 193285771
" />
</g></g>
<g style="fill:#000000; fill-opacity:0.0; 
stroke:#000000; stroke-width:21200.000000; stroke-opacity:1; 
stroke-linecap:round; stroke-linejoin:round;">
</g>
<g style="fill:#000000; fill-opacity:0.0; 
stroke:#000000; stroke-width:150000.000000; stroke-opacity:1; 
stroke-linecap:round; stroke-linejoin:round;">
<text x="263002200.000000" y="196657200.000000"
textLength="8507143.000000" font-size="2000000.000000" lengthAdjust="spacingAndGlyphs"
text-anchor="start" opacity="0">Id: 1/1</text>
<g class="stroked-text"><desc>Id: 1/1</desc>
<path d="M263434342 196585771
L263434342 195085771
" />
<path d="M264791485 196585771
L264791485 195085771
" />
<path d="M264791485 196514342
L264648628 196585771
L264362914 196585771
L264220057 196514342
L264148628 196442914
L264077200 196300057
L264077200 195871485
L264148628 195728628
L264220057 195657200
L264362914 195585771
L264648628 195585771
L264791485 195657200
" />
<path d="M265505771 196442914
L265577200 196514342
L265505771 196585771
L265434342 196514342
L265505771 196442914
L265505771 196585771
" />
<path d="M265505771 195657200
L265577200 195728628
L265505771 195800057
L265434342 195728628
L265505771 195657200
L265505771 195800057
" />
<path d="M268148628 196585771
L267291485 196585771
" />
<path d="M267720057 196585771
L267720057 195085771
L267577200 195300057
L267434342 195442914
L267291485 195514342
" />
<path d="M269862914 195014342
L268577200 196942914
" />
<path d="M271148628 196585771
L270291485 196585771
" />
<path d="M270720057 196585771
L270720057 195085771
L270577200 195300057
L270434342 195442914
L270291485 195514342
" />
</g></g>
<g style="fill:#000000; fill-opacity:0.0; 
stroke:#000000; stroke-width:21200.000000; stroke-opacity:1; 
stroke-linecap:round; stroke-linejoin:round;">
</g>
<g style="fill:#000000; fill-opacity:0.0; 
stroke:#000000; stroke-width:150000.000000; stroke-opacity:1; 
stroke-linecap:round; stroke-linejoin:round;">
<path d="M177002200 187507200
L285002200 187507200
" />
</g>
<g style="fill:#000000; fill-opacity:0.0; 
stroke:#000000; stroke-width:21200.000000; stroke-opacity:1; 
stroke-linecap:round; stroke-linejoin:round;">
</g>
<g style="fill:#000000; fill-opacity:0.0; 
stroke:#000000; stroke-width:400000.000000; stroke-opacity:1; 
stroke-linecap:round; stroke-linejoin:round;">
<text x="178002200.000000" y="190307200.000000"
textLength="9409643.000000" font-size="2666666.000000" lengthAdjust="spacingAndGlyphs"
text-anchor="start" opacity="0">Title: </text>
<g class="stroked-text"><desc>Title: </desc>
<path d="M178714580 188211961
L179857438 188211961
" />
<path d="M179036009 190211961
L179286009 188211961
" />
<path d="M180274104 190211961
L180440771 188878628
" />
<path d="M180524104 188211961
L180416961 188307200
L180500295 188402438
L180607438 188307200
L180524104 188211961
L180500295 188402438
" />
<path d="M181107438 188878628
L181869342 188878628
" />
<path d="M181476485 188211961
L181262200 189926247
L181333628 190116723
L181512200 190211961
L181702676 190211961
" />
<path d="M182655057 190211961
L182476485 190116723
L182405057 189926247
L182619342 188211961
" />
<path d="M184190771 190116723
L183988390 190211961
L183607438 190211961
L183428866 190116723
L183357438 189926247
L183452676 189164342
L183571723 188973866
L183774104 188878628
L184155057 188878628
L184333628 188973866
L184405057 189164342
L184381247 189354819
L183405057 189545295
" />
<path d="M185155057 190021485
L185238390 190116723
L185131247 190211961
L185047914 190116723
L185155057 190021485
L185131247 190211961
" />
<path d="M185286009 188973866
L185369342 189069104
L185262200 189164342
L185178866 189069104
L185286009 188973866
L185262200 189164342
" />
</g></g>
<g style="fill:#000000; fill-opacity:0.0; 
stroke:#000000; stroke-width:21200.000000; stroke-opacity:1; 
stroke-linecap:round; stroke-linejoin:round;">
</g>
<g style="fill:#000000; fill-opacity:0.0; 
stroke:#000000; stroke-width:150000.000000; stroke-opacity:1; 
stroke-linecap:round; stroke-linejoin:round;">
<text x="178002200.000000" y="186457200.000000"
textLength="27591429.000000" font-size="2000000.000000" lengthAdjust="spacingAndGlyphs"
text-anchor="start" opacity="0">File: MiniVerb.kicad_pcb</text>
<g class="stroked-text"><desc>File: MiniVerb.kicad_pcb</desc>
<path d="M178934342 185600057
L178434342 185600057
" />
<path d="M178434342 186385771
L178434342 184885771
L179148628 184885771
" />
<path d="M179720057 186385771
L179720057 185385771
" />
<path d="M179720057 184885771
L179648628 184957200
L179720057 185028628
L179791485 184957200
L179720057 184885771
L179720057 185028628
" />
<path d="M180648628 186385771
L180505771 186314342
L180434342 186171485
L180434342 184885771
" />
<path d="M181791485 186314342
L181648628 186385771
L181362914 186385771
L181220057 186314342
L181148628 186171485
L181148628 185600057
L181220057 185457200
L181362914 185385771
L181648628 185385771
L181791485 185457200
L181862914 185600057
L181862914 185742914
L181148628 185885771
" />
<path d="M182505771 186242914
L182577200 186314342
L182505771 186385771
L182434342 186314342
L182505771 186242914
L182505771 186385771
" />
<path d="M182505771 185457200
L182577200 185528628
L182505771 185600057
L182434342 185528628
L182505771 185457200
L182505771 185600057
" />
<path d="M184362914 186385771
L184362914 184885771
L184862914 185957200
L185362914 184885771
L185362914 186385771
" />
<path d="M186077200 186385771
L186077200 185385771
" />
<path d="M186077200 184885771
L186005771 184957200
L186077200 185028628
L186148628 184957200
L186077200 184885771
L186077200 185028628
" />
<path d="M186791485 185385771
L186791485 186385771
" />
<path d="M186791485 185528628
L186862914 185457200
L187005771 185385771
L187220057 185385771
L187362914 185457200
L187434342 185600057
L187434342 186385771
" />
<path d="M188148628 186385771
L188148628 185385771
" />
<path d="M188148628 184885771
L188077200 184957200
L188148628 185028628
L188220057 184957200
L188148628 184885771
L188148628 185028628
" />
<path d="M188648628 184885771
L189148628 186385771
L189648628 184885771
" />
<path d="M190720057 186314342
L190577200 186385771
L190291485 186385771
L190148628 186314342
L190077200 186171485
L190077200 185600057
L190148628 185457200
L190291485 185385771
L190577200 185385771
L190720057 185457200
L190791485 185600057
L190791485 185742914
L190077200 185885771
" />
<path d="M191434342 186385771
L191434342 185385771
" />
<path d="M191434342 185671485
L191505771 185528628
L191577200 185457200
L191720057 185385771
L191862914 185385771
" />
<path d="M192362914 186385771
L192362914 184885771
" />
<path d="M192362914 185457200
L192505771 185385771
L192791485 185385771
L192934342 185457200
L193005771 185528628
L193077200 185671485
L193077200 186100057
L193005771 186242914
L192934342 186314342
L192791485 186385771
L192505771 186385771
L192362914 186314342
" />
<path d="M193720057 186242914
L193791485 186314342
L193720057 186385771
L193648628 186314342
L193720057 186242914
L193720057 186385771
" />
<path d="M194434342 186385771
L194434342 184885771
" />
<path d="M194577200 185814342
L195005771 186385771
" />
<path d="M195005771 185385771
L194434342 185957200
" />
<path d="M195648628 186385771
L195648628 185385771
" />
<path d="M195648628 184885771
L195577200 184957200
L195648628 185028628
L195720057 184957200
L195648628 184885771
L195648628 185028628
" />
<path d="M197005771 186314342
L196862914 186385771
L196577200 186385771
L196434342 186314342
L196362914 186242914
L196291485 186100057
L196291485 185671485
L196362914 185528628
L196434342 185457200
L196577200 185385771
L196862914 185385771
L197005771 185457200
" />
<path d="M198291485 186385771
L198291485 185600057
L198220057 185457200
L198077200 185385771
L197791485 185385771
L197648628 185457200
" />
<path d="M198291485 186314342
L198148628 186385771
L197791485 186385771
L197648628 186314342
L197577200 186171485
L197577200 186028628
L197648628 185885771
L197791485 185814342
L198148628 185814342
L198291485 185742914
" />
<path d="M199648628 186385771
L199648628 184885771
" />
<path d="M199648628 186314342
L199505771 186385771
L199220057 186385771
L199077200 186314342
L199005771 186242914
L198934342 186100057
L198934342 185671485
L199005771 185528628
L199077200 185457200
L199220057 185385771
L199505771 185385771
L199648628 185457200
" />
<path d="M200005771 186528628
L201148628 186528628
" />
<path d="M201505771 185385771
L201505771 186885771
" />
<path d="M201505771 185457200
L201648628 185385771
L201934342 185385771
L202077200 185457200
L202148628 185528628
L202220057 185671485
L202220057 186100057
L202148628 186242914
L202077200 186314342
L201934342 186385771
L201648628 186385771
L201505771 186314342
" />
<path d="M203505771 186314342
L203362914 186385771
L203077200 186385771
L202934342 186314342
L202862914 186242914
L202791485 186100057
L202791485 185671485
L202862914 185528628
L202934342 185457200
L203077200 185385771
L203362914 185385771
L203505771 185457200
" />
<path d="M204148628 186385771
L204148628 184885771
" />
<path d="M204148628 185457200
L204291485 185385771
L204577200 185385771
L204720057 185457200
L204791485 185528628
L204862914 185671485
L204862914 186100057
L204791485 186242914
L204720057 186314342
L204577200 186385771
L204291485 186385771
L204148628 186314342
" />
</g></g>
<g style="fill:#000000; fill-opacity:0.0; 
stroke:#000000; stroke-width:21200.000000; stroke-opacity:1; 
stroke-linecap:round; stroke-linejoin:round;">
</g>
<g style="fill:#000000; fill-opacity:0.0; 
stroke:#000000; stroke-width:150000.000000; stroke-opacity:1; 
stroke-linecap:round; stroke-linejoin:round;">
<path d="M177002200 181507200
L285002200 181507200
" />
</g>
<g style="fill:#000000; fill-opacity:0.0; 
stroke:#000000; stroke-width:21200.000000; stroke-opacity:1; 
stroke-linecap:round; stroke-linejoin:round;">
</g>
<g style="fill:#000000; fill-opacity:0.0; 
stroke:#000000; stroke-width:150000.000000; stroke-opacity:1; 
stroke-linecap:round; stroke-linejoin:round;">
<text x="178002200.000000" y="183757200.000000"
textLength="8221429.000000" font-size="2000000.000000" lengthAdjust="spacingAndGlyphs"
text-anchor="start" opacity="0">Sheet: </text>
<g class="stroked-text"><desc>Sheet: </desc>
<path d="M178362914 183614342
L178577200 183685771
L178934342 183685771
L179077200 183614342
L179148628 183542914
L179220057 183400057
L179220057 183257200
L179148628 183114342
L179077200 183042914
L178934342 182971485
L178648628 182900057
L178505771 182828628
L178434342 182757200
L178362914 182614342
L178362914 182471485
L178434342 182328628
L178505771 182257200
L178648628 182185771
L179005771 182185771
L179220057 182257200
" />
<path d="M179862914 183685771
L179862914 182185771
" />
<path d="M180505771 183685771
L180505771 182900057
L180434342 182757200
L180291485 182685771
L180077200 182685771
L179934342 182757200
L179862914 182828628
" />
<path d="M181791485 183614342
L181648628 183685771
L181362914 183685771
L181220057 183614342
L181148628 183471485
L181148628 182900057
L181220057 182757200
L181362914 182685771
L181648628 182685771
L181791485 182757200
L181862914 182900057
L181862914 183042914
L181148628 183185771
" />
<path d="M183077200 183614342
L182934342 183685771
L182648628 183685771
L182505771 183614342
L182434342 183471485
L182434342 182900057
L182505771 182757200
L182648628 182685771
L182934342 182685771
L183077200 182757200
L183148628 182900057
L183148628 183042914
L182434342 183185771
" />
<path d="M183577200 182685771
L184148628 182685771
" />
<path d="M183791485 182185771
L183791485 183471485
L183862914 183614342
L184005771 183685771
L184148628 183685771
" />
<path d="M184648628 183542914
L184720057 183614342
L184648628 183685771
L184577200 183614342
L184648628 183542914
L184648628 183685771
" />
<path d="M184648628 182757200
L184720057 182828628
L184648628 182900057
L184577200 182828628
L184648628 182757200
L184648628 182900057
" />
</g></g>
<g style="fill:#000000; fill-opacity:0.0; 
stroke:#000000; stroke-width:21200.000000; stroke-opacity:1; 
stroke-linecap:round; stroke-linejoin:round;">
</g>
<g style="fill:#000000; fill-opacity:0.0; 
stroke:#000000; stroke-width:300000.000000; stroke-opacity:1; 
stroke-linecap:round; stroke-linejoin:round;">
<text x="178002200.000000" y="180757200.000000"
textLength="150000.000000" font-size="2000000.000000" lengthAdjust="spacingAndGlyphs"
text-anchor="start" opacity="0"></text>
<g class="stroked-text"><desc></desc>
</g></g>
<g style="fill:#000000; fill-opacity:0.0; 
stroke:#000000; stroke-width:21200.000000; stroke-opacity:1; 
stroke-linecap:round; stroke-linejoin:round;">
</g>
<g style="fill:#000000; fill-opacity:0.0; 
stroke:#000000; stroke-width:150000.000000; stroke-opacity:1; 
stroke-linecap:round; stroke-linejoin:round;">
<text x="178002200.000000" y="177757200.000000"
textLength="300000.000000" font-size="2000000.000000" lengthAdjust="spacingAndGlyphs"
text-anchor="start" opacity="0"></text>
<g class="stroked-text"><desc></desc>
</g></g>
<g style="fill:#000000; fill-opacity:0.0; 
stroke:#000000; stroke-width:21200.000000; stroke-opacity:1; 
stroke-linecap:round; stroke-linejoin:round;">
</g>
<g style="fill:#000000; fill-opacity:0.0; 
stroke:#000000; stroke-width:150000.000000; stroke-opacity:1; 
stroke-linecap:round; stroke-linejoin:round;">
<text x="178002200.000000" y="174757200.000000"
textLength="150000.000000" font-size="2000000.000000" lengthAdjust="spacingAndGlyphs"
text-anchor="start" opacity="0"></text>
<g class="stroked-text"><desc></desc>
</g></g>
<g style="fill:#000000; fill-opacity:0.0; 
stroke:#000000; stroke-width:21200.000000; stroke-opacity:1; 
stroke-linecap:round; stroke-linejoin:round;">
</g>
<g style="fill:#000000; fill-opacity:0.0; 
stroke:#000000; stroke-width:150000.000000; stroke-opacity:1; 
stroke-linecap:round; stroke-linejoin:round;">
<text x="178002200.000000" y="171757200.000000"
textLength="150000.000000" font-size="2000000.000000" lengthAdjust="spacingAndGlyphs"
text-anchor="start" opacity="0"></text>
<g class="stroked-text"><desc></desc>
</g></g>
<g style="fill:#000000; fill-opacity:0.0; 
stroke:#000000; stroke-width:21200.000000; stroke-opacity:1; 
stroke-linecap:round; stroke-linejoin:round;">
</g>
<g style="fill:#000000; fill-opacity:0.0; 
stroke:#000000; stroke-width:150000.000000; stroke-opacity:1; 
stroke-linecap:round; stroke-linejoin:round;">
<text x="178002200.000000" y="168757200.000000"
textLength="150000.000000" font-size="2000000.000000" lengthAdjust="spacingAndGlyphs"
text-anchor="start" opacity="0"></text>
<g class="stroked-text"><desc></desc>
</g></g>
<g style="fill:#000000; fill-opacity:0.0; 
stroke:#000000; stroke-width:21200.000000; stroke-opacity:1; 
stroke-linecap:round; stroke-linejoin:round;">
</g>
<g style="fill:#000000; fill-opacity:0.0; 
stroke:#000000; stroke-width:150000.000000; stroke-opacity:1; 
stroke-linecap:round; stroke-linejoin:round;">
<path d="M197002200 191507200
L197002200 194507200
" />
</g>
<g style="fill:#000000; fill-opacity:0.0; 
stroke:#000000; stroke-width:21200.000000; stroke-opacity:1; 
stroke-linecap:round; stroke-linejoin:round;">
</g>
<g style="fill:#000000; fill-opacity:0.0; 
stroke:#000000; stroke-width:150000.000000; stroke-opacity:1; 
stroke-linecap:round; stroke-linejoin:round;">
<path d="M261002200 191507200
L261002200 198007200
" />
<text x="129995000.000000" y="39445000.000000"
textLength="4435714.000000" font-size="1333333.000000" lengthAdjust="spacingAndGlyphs"
text-anchor="middle" opacity="0">REF**</text>
<g class="stroked-text"><desc>REF**</desc>
<path d="M128661666 39397380
L128328333 38921190
" />
<path d="M128090238 39397380
L128090238 38397380
L128471190 38397380
L128566428 38445000
L128614047 38492619
L128661666 38587857
L128661666 38730714
L128614047 38825952
L128566428 38873571
L128471190 38921190
L128090238 38921190
" />
<path d="M129090238 38873571
L129423571 38873571
" />
<path d="M129566428 39397380
L129090238 39397380
L129090238 38397380
L129566428 38397380
" />
<path d="M130328333 38873571
L129995000 38873571
" />
<path d="M129995000 39397380
L129995000 38397380
L130471190 38397380
" />
<path d="M130995000 38397380
L130995000 38635476
" />
<path d="M130756904 38540238
L130995000 38635476
L131233095 38540238
" />
<path d="M130852142 38825952
L130995000 38635476
L131137857 38825952
" />
<path d="M131756904 38397380
L131756904 38635476
" />
<path d="M131518809 38540238
L131756904 38635476
L131995000 38540238
" />
<path d="M131614047 38825952
L131756904 38635476
L131899761 38825952
" />
</g><text x="98995000.000000" y="39445000.000000"
textLength="8147381.000000" font-size="1333333.000000" lengthAdjust="spacingAndGlyphs"
text-anchor="middle" opacity="0">Panel_8HP</text>
<g class="stroked-text"><desc>Panel_8HP</desc>
<path d="M95256904 39397380
L95256904 38397380
L95637857 38397380
L95733095 38445000
L95780714 38492619
L95828333 38587857
L95828333 38730714
L95780714 38825952
L95733095 38873571
L95637857 38921190
L95256904 38921190
" />
<path d="M96685476 39397380
L96685476 38873571
L96637857 38778333
L96542619 38730714
L96352142 38730714
L96256904 38778333
" />
<path d="M96685476 39349761
L96590238 39397380
L96352142 39397380
L96256904 39349761
L96209285 39254523
L96209285 39159285
L96256904 39064047
L96352142 39016428
L96590238 39016428
L96685476 38968809
" />
<path d="M97161666 38730714
L97161666 39397380
" />
<path d="M97161666 38825952
L97209285 38778333
L97304523 38730714
L97447380 38730714
L97542619 38778333
L97590238 38873571
L97590238 39397380
" />
<path d="M98447380 39349761
L98352142 39397380
L98161666 39397380
L98066428 39349761
L98018809 39254523
L98018809 38873571
L98066428 38778333
L98161666 38730714
L98352142 38730714
L98447380 38778333
L98495000 38873571
L98495000 38968809
L98018809 39064047
" />
<path d="M99066428 39397380
L98971190 39349761
L98923571 39254523
L98923571 38397380
" />
<path d="M99209285 39492619
L99971190 39492619
" />
<path d="M100352142 38825952
L100256904 38778333
L100209285 38730714
L100161666 38635476
L100161666 38587857
L100209285 38492619
L100256904 38445000
L100352142 38397380
L100542619 38397380
L100637857 38445000
L100685476 38492619
L100733095 38587857
L100733095 38635476
L100685476 38730714
L100637857 38778333
L100542619 38825952
L100352142 38825952
L100256904 38873571
L100209285 38921190
L100161666 39016428
L100161666 39206904
L100209285 39302142
L100256904 39349761
L100352142 39397380
L100542619 39397380
L100637857 39349761
L100685476 39302142
L100733095 39206904
L100733095 39016428
L100685476 38921190
L100637857 38873571
L100542619 38825952
" />
<path d="M101161666 39397380
L101161666 38397380
" />
<path d="M101161666 38873571
L101733095 38873571
" />
<path d="M101733095 39397380
L101733095 38397380
" />
<path d="M102209285 39397380
L102209285 38397380
L102590238 38397380
L102685476 38445000
L102733095 38492619
L102780714 38587857
L102780714 38730714
L102733095 38825952
L102685476 38873571
L102590238 38921190
L102209285 38921190
" />
</g><text x="127880000.000000" y="137757500.000000"
textLength="7290238.000000" font-size="1333333.000000" lengthAdjust="spacingAndGlyphs"
text-anchor="middle" opacity="0">3mm_LED</text>
<g class="stroked-text"><desc>3mm_LED</desc>
<path d="M124475238 136709880
L125094285 136709880
L124760952 137090833
L124903809 137090833
L124999047 137138452
L125046666 137186071
L125094285 137281309
L125094285 137519404
L125046666 137614642
L124999047 137662261
L124903809 137709880
L124618095 137709880
L124522857 137662261
L124475238 137614642
" />
<path d="M125522857 137709880
L125522857 137043214
" />
<path d="M125522857 137138452
L125570476 137090833
L125665714 137043214
L125808571 137043214
L125903809 137090833
L125951428 137186071
L125951428 137709880
" />
<path d="M125951428 137186071
L125999047 137090833
L126094285 137043214
L126237142 137043214
L126332380 137090833
L126380000 137186071
L126380000 137709880
" />
<path d="M126856190 137709880
L126856190 137043214
" />
<path d="M126856190 137138452
L126903809 137090833
L126999047 137043214
L127141904 137043214
L127237142 137090833
L127284761 137186071
L127284761 137709880
" />
<path d="M127284761 137186071
L127332380 137090833
L127427619 137043214
L127570476 137043214
L127665714 137090833
L127713333 137186071
L127713333 137709880
" />
<path d="M127951428 137805119
L128713333 137805119
" />
<path d="M129427619 137709880
L128951428 137709880
L128951428 136709880
" />
<path d="M129760952 137186071
L130094285 137186071
" />
<path d="M130237142 137709880
L129760952 137709880
L129760952 136709880
L130237142 136709880
" />
<path d="M130665714 137709880
L130665714 136709880
L130903809 136709880
L131046666 136757500
L131141904 136852738
L131189523 136947976
L131237142 137138452
L131237142 137281309
L131189523 137471785
L131141904 137567023
L131046666 137662261
L130903809 137709880
L130665714 137709880
" />
</g><text x="120050000.000000" y="150794000.000000"
textLength="9195000.000000" font-size="1333333.000000" lengthAdjust="spacingAndGlyphs"
text-anchor="middle" opacity="0">AUDIO_OUT1</text>
<g class="stroked-text"><desc>AUDIO_OUT1</desc>
<path d="M115740476 150460666
L116216666 150460666
" />
<path d="M115645238 150746380
L115978571 149746380
L116311904 150746380
" />
<path d="M116645238 149746380
L116645238 150555904
L116692857 150651142
L116740476 150698761
L116835714 150746380
L117026190 150746380
L117121428 150698761
L117169047 150651142
L117216666 150555904
L117216666 149746380
" />
<path d="M117692857 150746380
L117692857 149746380
L117930952 149746380
L118073809 149794000
L118169047 149889238
L118216666 149984476
L118264285 150174952
L118264285 150317809
L118216666 150508285
L118169047 150603523
L118073809 150698761
L117930952 150746380
L117692857 150746380
" />
<path d="M118692857 150746380
L118692857 149746380
" />
<path d="M119359523 149746380
L119550000 149746380
L119645238 149794000
L119740476 149889238
L119788095 150079714
L119788095 150413047
L119740476 150603523
L119645238 150698761
L119550000 150746380
L119359523 150746380
L119264285 150698761
L119169047 150603523
L119121428 150413047
L119121428 150079714
L119169047 149889238
L119264285 149794000
L119359523 149746380
" />
<path d="M119978571 150841619
L120740476 150841619
" />
<path d="M121169047 149746380
L121359523 149746380
L121454761 149794000
L121550000 149889238
L121597619 150079714
L121597619 150413047
L121550000 150603523
L121454761 150698761
L121359523 150746380
L121169047 150746380
L121073809 150698761
L120978571 150603523
L120930952 150413047
L120930952 150079714
L120978571 149889238
L121073809 149794000
L121169047 149746380
" />
<path d="M122026190 149746380
L122026190 150555904
L122073809 150651142
L122121428 150698761
L122216666 150746380
L122407142 150746380
L122502380 150698761
L122550000 150651142
L122597619 150555904
L122597619 149746380
" />
<path d="M122930952 149746380
L123502380 149746380
" />
<path d="M123216666 150746380
L123216666 149746380
" />
<path d="M124359523 150746380
L123788095 150746380
" />
<path d="M124073809 150746380
L124073809 149746380
L123978571 149889238
L123883333 149984476
L123788095 150032095
" />
</g><g transform="rotate(-90.000000 112600000.000000 62975000.000000)">
<text x="112600000.000000" y="63475000.000000"
textLength="4099762.000000" font-size="1333333.000000" lengthAdjust="spacingAndGlyphs"
text-anchor="middle" opacity="0">B10K</text>
</g>
<g class="stroked-text"><desc>B10K</desc>
<path d="M112528571 64355952
L112576190 64213095
L112623809 64165476
L112719047 64117857
L112861904 64117857
L112957142 64165476
L113004761 64213095
L113052380 64308333
L113052380 64689285
L112052380 64689285
L112052380 64355952
L112100000 64260714
L112147619 64213095
L112242857 64165476
L112338095 64165476
L112433333 64213095
L112480952 64260714
L112528571 64355952
L112528571 64689285
" />
<path d="M113052380 63165476
L113052380 63736904
" />
<path d="M113052380 63451190
L112052380 63451190
L112195238 63546428
L112290476 63641666
L112338095 63736904
" />
<path d="M112052380 62546428
L112052380 62451190
L112100000 62355952
L112147619 62308333
L112242857 62260714
L112433333 62213095
L112671428 62213095
L112861904 62260714
L112957142 62308333
L113004761 62355952
L113052380 62451190
L113052380 62546428
L113004761 62641666
L112957142 62689285
L112861904 62736904
L112671428 62784523
L112433333 62784523
L112242857 62736904
L112147619 62689285
L112100000 62641666
L112052380 62546428
" />
<path d="M113052380 61784523
L112052380 61784523
" />
<path d="M113052380 61213095
L112480952 61641666
" />
<path d="M112052380 61213095
L112623809 61784523
" />
</g><g transform="rotate(-90.000000 112430000.000000 113445000.000000)">
<text x="112430000.000000" y="113945000.000000"
textLength="4099762.000000" font-size="1333333.000000" lengthAdjust="spacingAndGlyphs"
text-anchor="middle" opacity="0">B10K</text>
</g>
<g class="stroked-text"><desc>B10K</desc>
<path d="M112358571 114825952
L112406190 114683095
L112453809 114635476
L112549047 114587857
L112691904 114587857
L112787142 114635476
L112834761 114683095
L112882380 114778333
L112882380 115159285
L111882380 115159285
L111882380 114825952
L111930000 114730714
L111977619 114683095
L112072857 114635476
L112168095 114635476
L112263333 114683095
L112310952 114730714
L112358571 114825952
L112358571 115159285
" />
<path d="M112882380 113635476
L112882380 114206904
" />
<path d="M112882380 113921190
L111882380 113921190
L112025238 114016428
L112120476 114111666
L112168095 114206904
" />
<path d="M111882380 113016428
L111882380 112921190
L111930000 112825952
L111977619 112778333
L112072857 112730714
L112263333 112683095
L112501428 112683095
L112691904 112730714
L112787142 112778333
L112834761 112825952
L112882380 112921190
L112882380 113016428
L112834761 113111666
L112787142 113159285
L112691904 113206904
L112501428 113254523
L112263333 113254523
L112072857 113206904
L111977619 113159285
L111930000 113111666
L111882380 113016428
" />
<path d="M112882380 112254523
L111882380 112254523
" />
<path d="M112882380 111683095
L112310952 112111666
" />
<path d="M111882380 111683095
L112453809 112254523
" />
</g><text x="110026000.000000" y="150794000.000000"
textLength="7861667.000000" font-size="1333333.000000" lengthAdjust="spacingAndGlyphs"
text-anchor="middle" opacity="0">AUDIO_IN2</text>
<g class="stroked-text"><desc>AUDIO_IN2</desc>
<path d="M106383142 150460666
L106859333 150460666
" />
<path d="M106287904 150746380
L106621238 149746380
L106954571 150746380
" />
<path d="M107287904 149746380
L107287904 150555904
L107335523 150651142
L107383142 150698761
L107478380 150746380
L107668857 150746380
L107764095 150698761
L107811714 150651142
L107859333 150555904
L107859333 149746380
" />
<path d="M108335523 150746380
L108335523 149746380
L108573619 149746380
L108716476 149794000
L108811714 149889238
L108859333 149984476
L108906952 150174952
L108906952 150317809
L108859333 150508285
L108811714 150603523
L108716476 150698761
L108573619 150746380
L108335523 150746380
" />
<path d="M109335523 150746380
L109335523 149746380
" />
<path d="M110002190 149746380
L110192666 149746380
L110287904 149794000
L110383142 149889238
L110430761 150079714
L110430761 150413047
L110383142 150603523
L110287904 150698761
L110192666 150746380
L110002190 150746380
L109906952 150698761
L109811714 150603523
L109764095 150413047
L109764095 150079714
L109811714 149889238
L109906952 149794000
L110002190 149746380
" />
<path d="M110621238 150841619
L111383142 150841619
" />
<path d="M111621238 150746380
L111621238 149746380
" />
<path d="M112097428 150746380
L112097428 149746380
L112668857 150746380
L112668857 149746380
" />
<path d="M113097428 149841619
L113145047 149794000
L113240285 149746380
L113478380 149746380
L113573619 149794000
L113621238 149841619
L113668857 149936857
L113668857 150032095
L113621238 150174952
L113049809 150746380
L113668857 150746380
" />
</g><text x="100000000.000000" y="150794000.000000"
textLength="7861667.000000" font-size="1333333.000000" lengthAdjust="spacingAndGlyphs"
text-anchor="middle" opacity="0">AUDIO_IN1</text>
<g class="stroked-text"><desc>AUDIO_IN1</desc>
<path d="M96357142 150460666
L96833333 150460666
" />
<path d="M96261904 150746380
L96595238 149746380
L96928571 150746380
" />
<path d="M97261904 149746380
L97261904 150555904
L97309523 150651142
L97357142 150698761
L97452380 150746380
L97642857 150746380
L97738095 150698761
L97785714 150651142
L97833333 150555904
L97833333 149746380
" />
<path d="M98309523 150746380
L98309523 149746380
L98547619 149746380
L98690476 149794000
L98785714 149889238
L98833333 149984476
L98880952 150174952
L98880952 150317809
L98833333 150508285
L98785714 150603523
L98690476 150698761
L98547619 150746380
L98309523 150746380
" />
<path d="M99309523 150746380
L99309523 149746380
" />
<path d="M99976190 149746380
L100166666 149746380
L100261904 149794000
L100357142 149889238
L100404761 150079714
L100404761 150413047
L100357142 150603523
L100261904 150698761
L100166666 150746380
L99976190 150746380
L99880952 150698761
L99785714 150603523
L99738095 150413047
L99738095 150079714
L99785714 149889238
L99880952 149794000
L99976190 149746380
" />
<path d="M100595238 150841619
L101357142 150841619
" />
<path d="M101595238 150746380
L101595238 149746380
" />
<path d="M102071428 150746380
L102071428 149746380
L102642857 150746380
L102642857 149746380
" />
<path d="M103642857 150746380
L103071428 150746380
" />
<path d="M103357142 150746380
L103357142 149746380
L103261904 149889238
L103166666 149984476
L103071428 150032095
" />
</g><g transform="rotate(-90.000000 112430000.000000 129245000.000000)">
<text x="112430000.000000" y="129745000.000000"
textLength="4099762.000000" font-size="1333333.000000" lengthAdjust="spacingAndGlyphs"
text-anchor="middle" opacity="0">B10K</text>
</g>
<g class="stroked-text"><desc>B10K</desc>
<path d="M112358571 130625952
L112406190 130483095
L112453809 130435476
L112549047 130387857
L112691904 130387857
L112787142 130435476
L112834761 130483095
L112882380 130578333
L112882380 130959285
L111882380 130959285
L111882380 130625952
L111930000 130530714
L111977619 130483095
L112072857 130435476
L112168095 130435476
L112263333 130483095
L112310952 130530714
L112358571 130625952
L112358571 130959285
" />
<path d="M112882380 129435476
L112882380 130006904
" />
<path d="M112882380 129721190
L111882380 129721190
L112025238 129816428
L112120476 129911666
L112168095 130006904
" />
<path d="M111882380 128816428
L111882380 128721190
L111930000 128625952
L111977619 128578333
L112072857 128530714
L112263333 128483095
L112501428 128483095
L112691904 128530714
L112787142 128578333
L112834761 128625952
L112882380 128721190
L112882380 128816428
L112834761 128911666
L112787142 128959285
L112691904 129006904
L112501428 129054523
L112263333 129054523
L112072857 129006904
L111977619 128959285
L111930000 128911666
L111882380 128816428
" />
<path d="M112882380 128054523
L111882380 128054523
" />
<path d="M112882380 127483095
L112310952 127911666
" />
<path d="M111882380 127483095
L112453809 128054523
" />
</g><g transform="rotate(-90.000000 132350000.000000 62975000.000000)">
<text x="132350000.000000" y="63475000.000000"
textLength="4099762.000000" font-size="1333333.000000" lengthAdjust="spacingAndGlyphs"
text-anchor="middle" opacity="0">B10K</text>
</g>
<g class="stroked-text"><desc>B10K</desc>
<path d="M132278571 64355952
L132326190 64213095
L132373809 64165476
L132469047 64117857
L132611904 64117857
L132707142 64165476
L132754761 64213095
L132802380 64308333
L132802380 64689285
L131802380 64689285
L131802380 64355952
L131850000 64260714
L131897619 64213095
L131992857 64165476
L132088095 64165476
L132183333 64213095
L132230952 64260714
L132278571 64355952
L132278571 64689285
" />
<path d="M132802380 63165476
L132802380 63736904
" />
<path d="M132802380 63451190
L131802380 63451190
L131945238 63546428
L132040476 63641666
L132088095 63736904
" />
<path d="M131802380 62546428
L131802380 62451190
L131850000 62355952
L131897619 62308333
L131992857 62260714
L132183333 62213095
L132421428 62213095
L132611904 62260714
L132707142 62308333
L132754761 62355952
L132802380 62451190
L132802380 62546428
L132754761 62641666
L132707142 62689285
L132611904 62736904
L132421428 62784523
L132183333 62784523
L131992857 62736904
L131897619 62689285
L131850000 62641666
L131802380 62546428
" />
<path d="M132802380 61784523
L131802380 61784523
" />
<path d="M132802380 61213095
L132230952 61641666
" />
<path d="M131802380 61213095
L132373809 61784523
" />
</g><text x="130050000.000000" y="150800000.000000"
textLength="9195000.000000" font-size="1333333.000000" lengthAdjust="spacingAndGlyphs"
text-anchor="middle" opacity="0">AUDIO_OUT2</text>
<g class="stroked-text"><desc>AUDIO_OUT2</desc>
<path d="M125740476 150466666
L126216666 150466666
" />
<path d="M125645238 150752380
L125978571 149752380
L126311904 150752380
" />
<path d="M126645238 149752380
L126645238 150561904
L126692857 150657142
L126740476 150704761
L126835714 150752380
L127026190 150752380
L127121428 150704761
L127169047 150657142
L127216666 150561904
L127216666 149752380
" />
<path d="M127692857 150752380
L127692857 149752380
L127930952 149752380
L128073809 149800000
L128169047 149895238
L128216666 149990476
L128264285 150180952
L128264285 150323809
L128216666 150514285
L128169047 150609523
L128073809 150704761
L127930952 150752380
L127692857 150752380
" />
<path d="M128692857 150752380
L128692857 149752380
" />
<path d="M129359523 149752380
L129550000 149752380
L129645238 149800000
L129740476 149895238
L129788095 150085714
L129788095 150419047
L129740476 150609523
L129645238 150704761
L129550000 150752380
L129359523 150752380
L129264285 150704761
L129169047 150609523
L129121428 150419047
L129121428 150085714
L129169047 149895238
L129264285 149800000
L129359523 149752380
" />
<path d="M129978571 150847619
L130740476 150847619
" />
<path d="M131169047 149752380
L131359523 149752380
L131454761 149800000
L131550000 149895238
L131597619 150085714
L131597619 150419047
L131550000 150609523
L131454761 150704761
L131359523 150752380
L131169047 150752380
L131073809 150704761
L130978571 150609523
L130930952 150419047
L130930952 150085714
L130978571 149895238
L131073809 149800000
L131169047 149752380
" />
<path d="M132026190 149752380
L132026190 150561904
L132073809 150657142
L132121428 150704761
L132216666 150752380
L132407142 150752380
L132502380 150704761
L132550000 150657142
L132597619 150561904
L132597619 149752380
" />
<path d="M132930952 149752380
L133502380 149752380
" />
<path d="M133216666 150752380
L133216666 149752380
" />
<path d="M133788095 149847619
L133835714 149800000
L133930952 149752380
L134169047 149752380
L134264285 149800000
L134311904 149847619
L134359523 149942857
L134359523 150038095
L134311904 150180952
L133740476 150752380
L134359523 150752380
" />
</g><g transform="rotate(-90.000000 112650000.000000 82175000.000000)">
<text x="112650000.000000" y="82675000.000000"
textLength="4099762.000000" font-size="1333333.000000" lengthAdjust="spacingAndGlyphs"
text-anchor="middle" opacity="0">B10K</text>
</g>
<g class="stroked-text"><desc>B10K</desc>
<path d="M112578571 83555952
L112626190 83413095
L112673809 83365476
L112769047 83317857
L112911904 83317857
L113007142 83365476
L113054761 83413095
L113102380 83508333
L113102380 83889285
L112102380 83889285
L112102380 83555952
L112150000 83460714
L112197619 83413095
L112292857 83365476
L112388095 83365476
L112483333 83413095
L112530952 83460714
L112578571 83555952
L112578571 83889285
" />
<path d="M113102380 82365476
L113102380 82936904
" />
<path d="M113102380 82651190
L112102380 82651190
L112245238 82746428
L112340476 82841666
L112388095 82936904
" />
<path d="M112102380 81746428
L112102380 81651190
L112150000 81555952
L112197619 81508333
L112292857 81460714
L112483333 81413095
L112721428 81413095
L112911904 81460714
L113007142 81508333
L113054761 81555952
L113102380 81651190
L113102380 81746428
L113054761 81841666
L113007142 81889285
L112911904 81936904
L112721428 81984523
L112483333 81984523
L112292857 81936904
L112197619 81889285
L112150000 81841666
L112102380 81746428
" />
<path d="M113102380 80984523
L112102380 80984523
" />
<path d="M113102380 80413095
L112530952 80841666
" />
<path d="M112102380 80413095
L112673809 80984523
" />
</g></g>
<g style="fill:#000000; fill-opacity:0.0; 
stroke:#000000; stroke-width:100000.000000; stroke-opacity:1; 
stroke-linecap:round; stroke-linejoin:round;">
<circle cx="127880000.000000" cy="134297500.000000" r="1500000.000000" /> 
<path d="M126379444.919901 135462976.062212 A1900000.000000 1900000.000000 0.0 1 0 126379999.816364 133131309.857231" />
<path d="M126380000 133131310
L126380000 135463690
" />
<path d="M120050000 142294000
L120050000 144324000
" />
<path d="M124550000 154774000
L124550000 144374000
" />
<path d="M124550000 154774000
L115550000 154774000
" />
<path d="M124550000 144324000
L115550000 144324000
" />
<path d="M115550000 154774000
L115550000 144374000
" />
<circle cx="120050000.000000" cy="148774000.000000" r="1800000.000000" /> 
<circle cx="105100000.000000" cy="62975000.000000" r="3500000.000000" /> 
<path d="M109850000 58125000
L100350000 58125000
" />
<path d="M109850000 69475000
L100350000 69475000
" />
<path d="M109850000 69475000
L109850000 58125000
" />
<path d="M100350000 69475000
L100350000 58125000
" />
<circle cx="105150000.000000" cy="113575000.000000" r="3500000.000000" /> 
<path d="M109900000 120075000
L109900000 108725000
" />
<path d="M109900000 108725000
L100400000 108725000
" />
<path d="M109900000 120075000
L100400000 120075000
" />
<path d="M100400000 120075000
L100400000 108725000
" />
<circle cx="110026000.000000" cy="148774000.000000" r="1800000.000000" /> 
<path d="M114526000 144324000
L105526000 144324000
" />
<path d="M110026000 142294000
L110026000 144324000
" />
<path d="M105526000 154774000
L105526000 144374000
" />
<path d="M114526000 154774000
L114526000 144374000
" />
<path d="M114526000 154774000
L105526000 154774000
" />
<circle cx="100000000.000000" cy="148774000.000000" r="1800000.000000" /> 
<path d="M104500000 154774000
L95500000 154774000
" />
<path d="M100000000 142294000
L100000000 144324000
" />
<path d="M104500000 154774000
L104500000 144374000
" />
<path d="M104500000 144324000
L95500000 144324000
" />
<path d="M95500000 154774000
L95500000 144374000
" />
<path d="M109900000 124525000
L100400000 124525000
" />
<path d="M100400000 135875000
L100400000 124525000
" />
<path d="M109900000 135875000
L109900000 124525000
" />
<path d="M109900000 135875000
L100400000 135875000
" />
<circle cx="105150000.000000" cy="129375000.000000" r="3500000.000000" /> 
<circle cx="124850000.000000" cy="62975000.000000" r="3500000.000000" /> 
<path d="M120100000 69475000
L120100000 58125000
" />
<path d="M129600000 69475000
L129600000 58125000
" />
<path d="M129600000 69475000
L120100000 69475000
" />
<path d="M129600000 58125000
L120100000 58125000
" />
<path d="M134550000 144330000
L125550000 144330000
" />
<path d="M134550000 154780000
L125550000 154780000
" />
<path d="M125550000 154780000
L125550000 144380000
" />
<path d="M130050000 142300000
L130050000 144330000
" />
<path d="M134550000 154780000
L134550000 144380000
" />
<circle cx="130050000.000000" cy="148780000.000000" r="1800000.000000" /> 
<circle cx="105150000.000000" cy="82175000.000000" r="3500000.000000" /> 
<path d="M109900000 88675000
L109900000 77325000
" />
<path d="M100400000 88675000
L100400000 77325000
" />
<path d="M109900000 77325000
L100400000 77325000
" />
<path d="M109900000 88675000
L100400000 88675000
" />
<g >
</g>
<g >
</g>
<g >
</g>
<g >
</g>
<g >
</g>
<g >
</g>
<g >
</g>
<g >
</g>
<g >
</g>
<g >
</g>
<g >
</g>
<g >
</g>
<g >
</g>
<g >
</g>
<g >
</g>
<g >
</g>
<g >
</g>
<g >
</g>
<g >
</g>
<g >
</g>
<g >
</g>
<g >
</g>
<g >
</g>
<g >
</g>
<g >
</g>
<g >
</g>
<g >
</g>
<g >
</g>
<g >
</g>
<g >
</g>
<g >
</g>
<g >
</g>
<g >
</g>
<g >
</g>
<g >
</g>
<g >
</g>
<g >
</g>
<g >
</g>
<g >
</g>
<g >
</g>
<g >
</g>
<g >
</g>
<g >
</g>
<g >
</g>
<g >
</g>
<g >
</g>
<g >
</g>
<g >
</g>
<g >
</g>
<g >
</g>
<g >
</g>
<g >
</g>
<g >
</g>
</g> 
</svg>
