<?xml version="1.0" standalone="no"?>
 <!DOCTYPE svg PUBLIC "-//W3C//DTD SVG 1.1//EN" 
 "http://www.w3.org/Graphics/SVG/1.1/DTD/svg11.dtd"> 
<svg
  xmlns:svg="http://www.w3.org/2000/svg"
  xmlns="http://www.w3.org/2000/svg"
  xmlns:xlink="http://www.w3.org/1999/xlink"
  version="1.1"
  width="29.700220cm" height="21.000720cm" viewBox="0 0 297002200 210007200">
<title>SVG Picture created as MiniVerb-User_Drawings.svg date 2022/12/06 22:08:04 </title>
  <desc>Picture generated by PCBNEW </desc>
<g style="fill:#000000; fill-opacity:1.000000;stroke:#000000; stroke-opacity:1.000000;
stroke-linecap:round; stroke-linejoin:round;"
 transform="translate(0 0) scale(1 1)">
</g>
<g style="fill:#000000; fill-opacity:0.0; 
stroke:#000000; stroke-width:0.000000; stroke-opacity:1; 
stroke-linecap:round; stroke-linejoin:round;">
</g>
<g style="fill:#000000; fill-opacity:0.0; 
stroke:#000000; stroke-width:21200.000000; stroke-opacity:1; 
stroke-linecap:round; stroke-linejoin:round;">
</g>
<g style="fill:#000000; fill-opacity:0.0; 
stroke:#000000; stroke-width:150000.000000; stroke-opacity:1; 
stroke-linecap:round; stroke-linejoin:round;">
<rect x="177002200.000000" y="166007200.000000" width="108000000.000000" height="32000000.000000" rx="0.000000" />
</g>
<g style="fill:#000000; fill-opacity:0.0; 
stroke:#000000; stroke-width:21200.000000; stroke-opacity:1; 
stroke-linecap:round; stroke-linejoin:round;">
</g>
<g style="fill:#000000; fill-opacity:0.0; 
stroke:#000000; stroke-width:150000.000000; stroke-opacity:1; 
stroke-linecap:round; stroke-linejoin:round;">
<rect x="10000000.000000" y="10000000.000000" width="277002200.000000" height="190007200.000000" rx="0.000000" />
</g>
<g style="fill:#000000; fill-opacity:0.0; 
stroke:#000000; stroke-width:21200.000000; stroke-opacity:1; 
stroke-linecap:round; stroke-linejoin:round;">
</g>
<g style="fill:#000000; fill-opacity:0.0; 
stroke:#000000; stroke-width:150000.000000; stroke-opacity:1; 
stroke-linecap:round; stroke-linejoin:round;">
<rect x="12000000.000000" y="12000000.000000" width="273002200.000000" height="186007200.000000" rx="0.000000" />
</g>
<g style="fill:#000000; fill-opacity:0.0; 
stroke:#000000; stroke-width:21200.000000; stroke-opacity:1; 
stroke-linecap:round; stroke-linejoin:round;">
</g>
<g style="fill:#000000; fill-opacity:0.0; 
stroke:#000000; stroke-width:150000.000000; stroke-opacity:1; 
stroke-linecap:round; stroke-linejoin:round;">
<path d="M60000000 12000000
L60000000 10000000
" />
</g>
<g style="fill:#000000; fill-opacity:0.0; 
stroke:#000000; stroke-width:21200.000000; stroke-opacity:1; 
stroke-linecap:round; stroke-linejoin:round;">
</g>
<g style="fill:#000000; fill-opacity:0.0; 
stroke:#000000; stroke-width:150000.000000; stroke-opacity:1; 
stroke-linecap:round; stroke-linejoin:round;">
<path d="M110000000 12000000
L110000000 10000000
" />
</g>
<g style="fill:#000000; fill-opacity:0.0; 
stroke:#000000; stroke-width:21200.000000; stroke-opacity:1; 
stroke-linecap:round; stroke-linejoin:round;">
</g>
<g style="fill:#000000; fill-opacity:0.0; 
stroke:#000000; stroke-width:150000.000000; stroke-opacity:1; 
stroke-linecap:round; stroke-linejoin:round;">
<path d="M160000000 12000000
L160000000 10000000
" />
</g>
<g style="fill:#000000; fill-opacity:0.0; 
stroke:#000000; stroke-width:21200.000000; stroke-opacity:1; 
stroke-linecap:round; stroke-linejoin:round;">
</g>
<g style="fill:#000000; fill-opacity:0.0; 
stroke:#000000; stroke-width:150000.000000; stroke-opacity:1; 
stroke-linecap:round; stroke-linejoin:round;">
<path d="M210000000 12000000
L210000000 10000000
" />
</g>
<g style="fill:#000000; fill-opacity:0.0; 
stroke:#000000; stroke-width:21200.000000; stroke-opacity:1; 
stroke-linecap:round; stroke-linejoin:round;">
</g>
<g style="fill:#000000; fill-opacity:0.0; 
stroke:#000000; stroke-width:150000.000000; stroke-opacity:1; 
stroke-linecap:round; stroke-linejoin:round;">
<path d="M260000000 12000000
L260000000 10000000
" />
</g>
<g style="fill:#000000; fill-opacity:0.0; 
stroke:#000000; stroke-width:21200.000000; stroke-opacity:1; 
stroke-linecap:round; stroke-linejoin:round;">
</g>
<g style="fill:#000000; fill-opacity:0.0; 
stroke:#000000; stroke-width:150000.000000; stroke-opacity:1; 
stroke-linecap:round; stroke-linejoin:round;">
<text x="35000000.000000" y="11650000.000000"
textLength="1388095.000000" font-size="1733333.000000" lengthAdjust="spacingAndGlyphs"
text-anchor="start" opacity="0">1</text>
<g class="stroked-text"><desc>1</desc>
<path d="M36065476 11588095
L35322619 11588095
" />
<path d="M35694047 11588095
L35694047 10288095
L35570238 10473809
L35446428 10597619
L35322619 10659523
" />
</g></g>
<g style="fill:#000000; fill-opacity:0.0; 
stroke:#000000; stroke-width:21200.000000; stroke-opacity:1; 
stroke-linecap:round; stroke-linejoin:round;">
</g>
<g style="fill:#000000; fill-opacity:0.0; 
stroke:#000000; stroke-width:150000.000000; stroke-opacity:1; 
stroke-linecap:round; stroke-linejoin:round;">
<text x="85000000.000000" y="11650000.000000"
textLength="1388095.000000" font-size="1733333.000000" lengthAdjust="spacingAndGlyphs"
text-anchor="start" opacity="0">2</text>
<g class="stroked-text"><desc>2</desc>
<path d="M85322619 10411904
L85384523 10350000
L85508333 10288095
L85817857 10288095
L85941666 10350000
L86003571 10411904
L86065476 10535714
L86065476 10659523
L86003571 10845238
L85260714 11588095
L86065476 11588095
" />
</g></g>
<g style="fill:#000000; fill-opacity:0.0; 
stroke:#000000; stroke-width:21200.000000; stroke-opacity:1; 
stroke-linecap:round; stroke-linejoin:round;">
</g>
<g style="fill:#000000; fill-opacity:0.0; 
stroke:#000000; stroke-width:150000.000000; stroke-opacity:1; 
stroke-linecap:round; stroke-linejoin:round;">
<text x="135000000.000000" y="11650000.000000"
textLength="1388095.000000" font-size="1733333.000000" lengthAdjust="spacingAndGlyphs"
text-anchor="start" opacity="0">3</text>
<g class="stroked-text"><desc>3</desc>
<path d="M135260714 10288095
L136065476 10288095
L135632142 10783333
L135817857 10783333
L135941666 10845238
L136003571 10907142
L136065476 11030952
L136065476 11340476
L136003571 11464285
L135941666 11526190
L135817857 11588095
L135446428 11588095
L135322619 11526190
L135260714 11464285
" />
</g></g>
<g style="fill:#000000; fill-opacity:0.0; 
stroke:#000000; stroke-width:21200.000000; stroke-opacity:1; 
stroke-linecap:round; stroke-linejoin:round;">
</g>
<g style="fill:#000000; fill-opacity:0.0; 
stroke:#000000; stroke-width:150000.000000; stroke-opacity:1; 
stroke-linecap:round; stroke-linejoin:round;">
<text x="185000000.000000" y="11650000.000000"
textLength="1388095.000000" font-size="1733333.000000" lengthAdjust="spacingAndGlyphs"
text-anchor="start" opacity="0">4</text>
<g class="stroked-text"><desc>4</desc>
<path d="M185941666 10721428
L185941666 11588095
" />
<path d="M185632142 10226190
L185322619 11154761
L186127380 11154761
" />
</g></g>
<g style="fill:#000000; fill-opacity:0.0; 
stroke:#000000; stroke-width:21200.000000; stroke-opacity:1; 
stroke-linecap:round; stroke-linejoin:round;">
</g>
<g style="fill:#000000; fill-opacity:0.0; 
stroke:#000000; stroke-width:150000.000000; stroke-opacity:1; 
stroke-linecap:round; stroke-linejoin:round;">
<text x="235000000.000000" y="11650000.000000"
textLength="1388095.000000" font-size="1733333.000000" lengthAdjust="spacingAndGlyphs"
text-anchor="start" opacity="0">5</text>
<g class="stroked-text"><desc>5</desc>
<path d="M236003571 10288095
L235384523 10288095
L235322619 10907142
L235384523 10845238
L235508333 10783333
L235817857 10783333
L235941666 10845238
L236003571 10907142
L236065476 11030952
L236065476 11340476
L236003571 11464285
L235941666 11526190
L235817857 11588095
L235508333 11588095
L235384523 11526190
L235322619 11464285
" />
</g></g>
<g style="fill:#000000; fill-opacity:0.0; 
stroke:#000000; stroke-width:21200.000000; stroke-opacity:1; 
stroke-linecap:round; stroke-linejoin:round;">
</g>
<g style="fill:#000000; fill-opacity:0.0; 
stroke:#000000; stroke-width:150000.000000; stroke-opacity:1; 
stroke-linecap:round; stroke-linejoin:round;">
<text x="285000000.000000" y="11650000.000000"
textLength="1388095.000000" font-size="1733333.000000" lengthAdjust="spacingAndGlyphs"
text-anchor="start" opacity="0">6</text>
<g class="stroked-text"><desc>6</desc>
<path d="M285941666 10288095
L285694047 10288095
L285570238 10350000
L285508333 10411904
L285384523 10597619
L285322619 10845238
L285322619 11340476
L285384523 11464285
L285446428 11526190
L285570238 11588095
L285817857 11588095
L285941666 11526190
L286003571 11464285
L286065476 11340476
L286065476 11030952
L286003571 10907142
L285941666 10845238
L285817857 10783333
L285570238 10783333
L285446428 10845238
L285384523 10907142
L285322619 11030952
" />
</g></g>
<g style="fill:#000000; fill-opacity:0.0; 
stroke:#000000; stroke-width:21200.000000; stroke-opacity:1; 
stroke-linecap:round; stroke-linejoin:round;">
</g>
<g style="fill:#000000; fill-opacity:0.0; 
stroke:#000000; stroke-width:150000.000000; stroke-opacity:1; 
stroke-linecap:round; stroke-linejoin:round;">
<path d="M60000000 198007200
L60000000 200007200
" />
</g>
<g style="fill:#000000; fill-opacity:0.0; 
stroke:#000000; stroke-width:21200.000000; stroke-opacity:1; 
stroke-linecap:round; stroke-linejoin:round;">
</g>
<g style="fill:#000000; fill-opacity:0.0; 
stroke:#000000; stroke-width:150000.000000; stroke-opacity:1; 
stroke-linecap:round; stroke-linejoin:round;">
<path d="M110000000 198007200
L110000000 200007200
" />
</g>
<g style="fill:#000000; fill-opacity:0.0; 
stroke:#000000; stroke-width:21200.000000; stroke-opacity:1; 
stroke-linecap:round; stroke-linejoin:round;">
</g>
<g style="fill:#000000; fill-opacity:0.0; 
stroke:#000000; stroke-width:150000.000000; stroke-opacity:1; 
stroke-linecap:round; stroke-linejoin:round;">
<path d="M160000000 198007200
L160000000 200007200
" />
</g>
<g style="fill:#000000; fill-opacity:0.0; 
stroke:#000000; stroke-width:21200.000000; stroke-opacity:1; 
stroke-linecap:round; stroke-linejoin:round;">
</g>
<g style="fill:#000000; fill-opacity:0.0; 
stroke:#000000; stroke-width:150000.000000; stroke-opacity:1; 
stroke-linecap:round; stroke-linejoin:round;">
<path d="M210000000 198007200
L210000000 200007200
" />
</g>
<g style="fill:#000000; fill-opacity:0.0; 
stroke:#000000; stroke-width:21200.000000; stroke-opacity:1; 
stroke-linecap:round; stroke-linejoin:round;">
</g>
<g style="fill:#000000; fill-opacity:0.0; 
stroke:#000000; stroke-width:150000.000000; stroke-opacity:1; 
stroke-linecap:round; stroke-linejoin:round;">
<path d="M260000000 198007200
L260000000 200007200
" />
</g>
<g style="fill:#000000; fill-opacity:0.0; 
stroke:#000000; stroke-width:21200.000000; stroke-opacity:1; 
stroke-linecap:round; stroke-linejoin:round;">
</g>
<g style="fill:#000000; fill-opacity:0.0; 
stroke:#000000; stroke-width:150000.000000; stroke-opacity:1; 
stroke-linecap:round; stroke-linejoin:round;">
<text x="35000000.000000" y="199657200.000000"
textLength="1388095.000000" font-size="1733333.000000" lengthAdjust="spacingAndGlyphs"
text-anchor="start" opacity="0">1</text>
<g class="stroked-text"><desc>1</desc>
<path d="M36065476 199595295
L35322619 199595295
" />
<path d="M35694047 199595295
L35694047 198295295
L35570238 198481009
L35446428 198604819
L35322619 198666723
" />
</g></g>
<g style="fill:#000000; fill-opacity:0.0; 
stroke:#000000; stroke-width:21200.000000; stroke-opacity:1; 
stroke-linecap:round; stroke-linejoin:round;">
</g>
<g style="fill:#000000; fill-opacity:0.0; 
stroke:#000000; stroke-width:150000.000000; stroke-opacity:1; 
stroke-linecap:round; stroke-linejoin:round;">
<text x="85000000.000000" y="199657200.000000"
textLength="1388095.000000" font-size="1733333.000000" lengthAdjust="spacingAndGlyphs"
text-anchor="start" opacity="0">2</text>
<g class="stroked-text"><desc>2</desc>
<path d="M85322619 198419104
L85384523 198357200
L85508333 198295295
L85817857 198295295
L85941666 198357200
L86003571 198419104
L86065476 198542914
L86065476 198666723
L86003571 198852438
L85260714 199595295
L86065476 199595295
" />
</g></g>
<g style="fill:#000000; fill-opacity:0.0; 
stroke:#000000; stroke-width:21200.000000; stroke-opacity:1; 
stroke-linecap:round; stroke-linejoin:round;">
</g>
<g style="fill:#000000; fill-opacity:0.0; 
stroke:#000000; stroke-width:150000.000000; stroke-opacity:1; 
stroke-linecap:round; stroke-linejoin:round;">
<text x="135000000.000000" y="199657200.000000"
textLength="1388095.000000" font-size="1733333.000000" lengthAdjust="spacingAndGlyphs"
text-anchor="start" opacity="0">3</text>
<g class="stroked-text"><desc>3</desc>
<path d="M135260714 198295295
L136065476 198295295
L135632142 198790533
L135817857 198790533
L135941666 198852438
L136003571 198914342
L136065476 199038152
L136065476 199347676
L136003571 199471485
L135941666 199533390
L135817857 199595295
L135446428 199595295
L135322619 199533390
L135260714 199471485
" />
</g></g>
<g style="fill:#000000; fill-opacity:0.0; 
stroke:#000000; stroke-width:21200.000000; stroke-opacity:1; 
stroke-linecap:round; stroke-linejoin:round;">
</g>
<g style="fill:#000000; fill-opacity:0.0; 
stroke:#000000; stroke-width:150000.000000; stroke-opacity:1; 
stroke-linecap:round; stroke-linejoin:round;">
<text x="185000000.000000" y="199657200.000000"
textLength="1388095.000000" font-size="1733333.000000" lengthAdjust="spacingAndGlyphs"
text-anchor="start" opacity="0">4</text>
<g class="stroked-text"><desc>4</desc>
<path d="M185941666 198728628
L185941666 199595295
" />
<path d="M185632142 198233390
L185322619 199161961
L186127380 199161961
" />
</g></g>
<g style="fill:#000000; fill-opacity:0.0; 
stroke:#000000; stroke-width:21200.000000; stroke-opacity:1; 
stroke-linecap:round; stroke-linejoin:round;">
</g>
<g style="fill:#000000; fill-opacity:0.0; 
stroke:#000000; stroke-width:150000.000000; stroke-opacity:1; 
stroke-linecap:round; stroke-linejoin:round;">
<text x="235000000.000000" y="199657200.000000"
textLength="1388095.000000" font-size="1733333.000000" lengthAdjust="spacingAndGlyphs"
text-anchor="start" opacity="0">5</text>
<g class="stroked-text"><desc>5</desc>
<path d="M236003571 198295295
L235384523 198295295
L235322619 198914342
L235384523 198852438
L235508333 198790533
L235817857 198790533
L235941666 198852438
L236003571 198914342
L236065476 199038152
L236065476 199347676
L236003571 199471485
L235941666 199533390
L235817857 199595295
L235508333 199595295
L235384523 199533390
L235322619 199471485
" />
</g></g>
<g style="fill:#000000; fill-opacity:0.0; 
stroke:#000000; stroke-width:21200.000000; stroke-opacity:1; 
stroke-linecap:round; stroke-linejoin:round;">
</g>
<g style="fill:#000000; fill-opacity:0.0; 
stroke:#000000; stroke-width:150000.000000; stroke-opacity:1; 
stroke-linecap:round; stroke-linejoin:round;">
<text x="285000000.000000" y="199657200.000000"
textLength="1388095.000000" font-size="1733333.000000" lengthAdjust="spacingAndGlyphs"
text-anchor="start" opacity="0">6</text>
<g class="stroked-text"><desc>6</desc>
<path d="M285941666 198295295
L285694047 198295295
L285570238 198357200
L285508333 198419104
L285384523 198604819
L285322619 198852438
L285322619 199347676
L285384523 199471485
L285446428 199533390
L285570238 199595295
L285817857 199595295
L285941666 199533390
L286003571 199471485
L286065476 199347676
L286065476 199038152
L286003571 198914342
L285941666 198852438
L285817857 198790533
L285570238 198790533
L285446428 198852438
L285384523 198914342
L285322619 199038152
" />
</g></g>
<g style="fill:#000000; fill-opacity:0.0; 
stroke:#000000; stroke-width:21200.000000; stroke-opacity:1; 
stroke-linecap:round; stroke-linejoin:round;">
</g>
<g style="fill:#000000; fill-opacity:0.0; 
stroke:#000000; stroke-width:150000.000000; stroke-opacity:1; 
stroke-linecap:round; stroke-linejoin:round;">
<path d="M10000000 60000000
L12000000 60000000
" />
</g>
<g style="fill:#000000; fill-opacity:0.0; 
stroke:#000000; stroke-width:21200.000000; stroke-opacity:1; 
stroke-linecap:round; stroke-linejoin:round;">
</g>
<g style="fill:#000000; fill-opacity:0.0; 
stroke:#000000; stroke-width:150000.000000; stroke-opacity:1; 
stroke-linecap:round; stroke-linejoin:round;">
<path d="M10000000 110000000
L12000000 110000000
" />
</g>
<g style="fill:#000000; fill-opacity:0.0; 
stroke:#000000; stroke-width:21200.000000; stroke-opacity:1; 
stroke-linecap:round; stroke-linejoin:round;">
</g>
<g style="fill:#000000; fill-opacity:0.0; 
stroke:#000000; stroke-width:150000.000000; stroke-opacity:1; 
stroke-linecap:round; stroke-linejoin:round;">
<path d="M10000000 160000000
L12000000 160000000
" />
</g>
<g style="fill:#000000; fill-opacity:0.0; 
stroke:#000000; stroke-width:21200.000000; stroke-opacity:1; 
stroke-linecap:round; stroke-linejoin:round;">
</g>
<g style="fill:#000000; fill-opacity:0.0; 
stroke:#000000; stroke-width:150000.000000; stroke-opacity:1; 
stroke-linecap:round; stroke-linejoin:round;">
<text x="11000000.000000" y="35650000.000000"
textLength="1264286.000000" font-size="1733333.000000" lengthAdjust="spacingAndGlyphs"
text-anchor="middle" opacity="0">A</text>
<g class="stroked-text"><desc>A</desc>
<path d="M10690476 35216666
L11309523 35216666
" />
<path d="M10566666 35588095
L11000000 34288095
L11433333 35588095
" />
</g></g>
<g style="fill:#000000; fill-opacity:0.0; 
stroke:#000000; stroke-width:21200.000000; stroke-opacity:1; 
stroke-linecap:round; stroke-linejoin:round;">
</g>
<g style="fill:#000000; fill-opacity:0.0; 
stroke:#000000; stroke-width:150000.000000; stroke-opacity:1; 
stroke-linecap:round; stroke-linejoin:round;">
<text x="11000000.000000" y="85650000.000000"
textLength="1450000.000000" font-size="1733333.000000" lengthAdjust="spacingAndGlyphs"
text-anchor="middle" opacity="0">B</text>
<g class="stroked-text"><desc>B</desc>
<path d="M11092857 84907142
L11278571 84969047
L11340476 85030952
L11402380 85154761
L11402380 85340476
L11340476 85464285
L11278571 85526190
L11154761 85588095
L10659523 85588095
L10659523 84288095
L11092857 84288095
L11216666 84350000
L11278571 84411904
L11340476 84535714
L11340476 84659523
L11278571 84783333
L11216666 84845238
L11092857 84907142
L10659523 84907142
" />
</g></g>
<g style="fill:#000000; fill-opacity:0.0; 
stroke:#000000; stroke-width:21200.000000; stroke-opacity:1; 
stroke-linecap:round; stroke-linejoin:round;">
</g>
<g style="fill:#000000; fill-opacity:0.0; 
stroke:#000000; stroke-width:150000.000000; stroke-opacity:1; 
stroke-linecap:round; stroke-linejoin:round;">
<text x="11000000.000000" y="135650000.000000"
textLength="1450000.000000" font-size="1733333.000000" lengthAdjust="spacingAndGlyphs"
text-anchor="middle" opacity="0">C</text>
<g class="stroked-text"><desc>C</desc>
<path d="M11402380 135464285
L11340476 135526190
L11154761 135588095
L11030952 135588095
L10845238 135526190
L10721428 135402380
L10659523 135278571
L10597619 135030952
L10597619 134845238
L10659523 134597619
L10721428 134473809
L10845238 134350000
L11030952 134288095
L11154761 134288095
L11340476 134350000
L11402380 134411904
" />
</g></g>
<g style="fill:#000000; fill-opacity:0.0; 
stroke:#000000; stroke-width:21200.000000; stroke-opacity:1; 
stroke-linecap:round; stroke-linejoin:round;">
</g>
<g style="fill:#000000; fill-opacity:0.0; 
stroke:#000000; stroke-width:150000.000000; stroke-opacity:1; 
stroke-linecap:round; stroke-linejoin:round;">
<text x="11000000.000000" y="185650000.000000"
textLength="1450000.000000" font-size="1733333.000000" lengthAdjust="spacingAndGlyphs"
text-anchor="middle" opacity="0">D</text>
<g class="stroked-text"><desc>D</desc>
<path d="M10659523 185588095
L10659523 184288095
L10969047 184288095
L11154761 184350000
L11278571 184473809
L11340476 184597619
L11402380 184845238
L11402380 185030952
L11340476 185278571
L11278571 185402380
L11154761 185526190
L10969047 185588095
L10659523 185588095
" />
</g></g>
<g style="fill:#000000; fill-opacity:0.0; 
stroke:#000000; stroke-width:21200.000000; stroke-opacity:1; 
stroke-linecap:round; stroke-linejoin:round;">
</g>
<g style="fill:#000000; fill-opacity:0.0; 
stroke:#000000; stroke-width:150000.000000; stroke-opacity:1; 
stroke-linecap:round; stroke-linejoin:round;">
<path d="M287002200 60000000
L285002200 60000000
" />
</g>
<g style="fill:#000000; fill-opacity:0.0; 
stroke:#000000; stroke-width:21200.000000; stroke-opacity:1; 
stroke-linecap:round; stroke-linejoin:round;">
</g>
<g style="fill:#000000; fill-opacity:0.0; 
stroke:#000000; stroke-width:150000.000000; stroke-opacity:1; 
stroke-linecap:round; stroke-linejoin:round;">
<path d="M287002200 110000000
L285002200 110000000
" />
</g>
<g style="fill:#000000; fill-opacity:0.0; 
stroke:#000000; stroke-width:21200.000000; stroke-opacity:1; 
stroke-linecap:round; stroke-linejoin:round;">
</g>
<g style="fill:#000000; fill-opacity:0.0; 
stroke:#000000; stroke-width:150000.000000; stroke-opacity:1; 
stroke-linecap:round; stroke-linejoin:round;">
<path d="M287002200 160000000
L285002200 160000000
" />
</g>
<g style="fill:#000000; fill-opacity:0.0; 
stroke:#000000; stroke-width:21200.000000; stroke-opacity:1; 
stroke-linecap:round; stroke-linejoin:round;">
</g>
<g style="fill:#000000; fill-opacity:0.0; 
stroke:#000000; stroke-width:150000.000000; stroke-opacity:1; 
stroke-linecap:round; stroke-linejoin:round;">
<text x="286002200.000000" y="35650000.000000"
textLength="1264286.000000" font-size="1733333.000000" lengthAdjust="spacingAndGlyphs"
text-anchor="middle" opacity="0">A</text>
<g class="stroked-text"><desc>A</desc>
<path d="M285692676 35216666
L286311723 35216666
" />
<path d="M285568866 35588095
L286002200 34288095
L286435533 35588095
" />
</g></g>
<g style="fill:#000000; fill-opacity:0.0; 
stroke:#000000; stroke-width:21200.000000; stroke-opacity:1; 
stroke-linecap:round; stroke-linejoin:round;">
</g>
<g style="fill:#000000; fill-opacity:0.0; 
stroke:#000000; stroke-width:150000.000000; stroke-opacity:1; 
stroke-linecap:round; stroke-linejoin:round;">
<text x="286002200.000000" y="85650000.000000"
textLength="1450000.000000" font-size="1733333.000000" lengthAdjust="spacingAndGlyphs"
text-anchor="middle" opacity="0">B</text>
<g class="stroked-text"><desc>B</desc>
<path d="M286095057 84907142
L286280771 84969047
L286342676 85030952
L286404580 85154761
L286404580 85340476
L286342676 85464285
L286280771 85526190
L286156961 85588095
L285661723 85588095
L285661723 84288095
L286095057 84288095
L286218866 84350000
L286280771 84411904
L286342676 84535714
L286342676 84659523
L286280771 84783333
L286218866 84845238
L286095057 84907142
L285661723 84907142
" />
</g></g>
<g style="fill:#000000; fill-opacity:0.0; 
stroke:#000000; stroke-width:21200.000000; stroke-opacity:1; 
stroke-linecap:round; stroke-linejoin:round;">
</g>
<g style="fill:#000000; fill-opacity:0.0; 
stroke:#000000; stroke-width:150000.000000; stroke-opacity:1; 
stroke-linecap:round; stroke-linejoin:round;">
<text x="286002200.000000" y="135650000.000000"
textLength="1450000.000000" font-size="1733333.000000" lengthAdjust="spacingAndGlyphs"
text-anchor="middle" opacity="0">C</text>
<g class="stroked-text"><desc>C</desc>
<path d="M286404580 135464285
L286342676 135526190
L286156961 135588095
L286033152 135588095
L285847438 135526190
L285723628 135402380
L285661723 135278571
L285599819 135030952
L285599819 134845238
L285661723 134597619
L285723628 134473809
L285847438 134350000
L286033152 134288095
L286156961 134288095
L286342676 134350000
L286404580 134411904
" />
</g></g>
<g style="fill:#000000; fill-opacity:0.0; 
stroke:#000000; stroke-width:21200.000000; stroke-opacity:1; 
stroke-linecap:round; stroke-linejoin:round;">
</g>
<g style="fill:#000000; fill-opacity:0.0; 
stroke:#000000; stroke-width:150000.000000; stroke-opacity:1; 
stroke-linecap:round; stroke-linejoin:round;">
<text x="286002200.000000" y="185650000.000000"
textLength="1450000.000000" font-size="1733333.000000" lengthAdjust="spacingAndGlyphs"
text-anchor="middle" opacity="0">D</text>
<g class="stroked-text"><desc>D</desc>
<path d="M285661723 185588095
L285661723 184288095
L285971247 184288095
L286156961 184350000
L286280771 184473809
L286342676 184597619
L286404580 184845238
L286404580 185030952
L286342676 185278571
L286280771 185402380
L286156961 185526190
L285971247 185588095
L285661723 185588095
" />
</g></g>
<g style="fill:#000000; fill-opacity:0.0; 
stroke:#000000; stroke-width:21200.000000; stroke-opacity:1; 
stroke-linecap:round; stroke-linejoin:round;">
</g>
<g style="fill:#000000; fill-opacity:0.0; 
stroke:#000000; stroke-width:150000.000000; stroke-opacity:1; 
stroke-linecap:round; stroke-linejoin:round;">
<text x="200002200.000000" y="193857200.000000"
textLength="7007143.000000" font-size="2000000.000000" lengthAdjust="spacingAndGlyphs"
text-anchor="start" opacity="0">Date: </text>
<g class="stroked-text"><desc>Date: </desc>
<path d="M200434342 193785771
L200434342 192285771
L200791485 192285771
L201005771 192357200
L201148628 192500057
L201220057 192642914
L201291485 192928628
L201291485 193142914
L201220057 193428628
L201148628 193571485
L201005771 193714342
L200791485 193785771
L200434342 193785771
" />
<path d="M202577200 193785771
L202577200 193000057
L202505771 192857200
L202362914 192785771
L202077200 192785771
L201934342 192857200
" />
<path d="M202577200 193714342
L202434342 193785771
L202077200 193785771
L201934342 193714342
L201862914 193571485
L201862914 193428628
L201934342 193285771
L202077200 193214342
L202434342 193214342
L202577200 193142914
" />
<path d="M203077200 192785771
L203648628 192785771
" />
<path d="M203291485 192285771
L203291485 193571485
L203362914 193714342
L203505771 193785771
L203648628 193785771
" />
<path d="M204720057 193714342
L204577200 193785771
L204291485 193785771
L204148628 193714342
L204077200 193571485
L204077200 193000057
L204148628 192857200
L204291485 192785771
L204577200 192785771
L204720057 192857200
L204791485 193000057
L204791485 193142914
L204077200 193285771
" />
<path d="M205434342 193642914
L205505771 193714342
L205434342 193785771
L205362914 193714342
L205434342 193642914
L205434342 193785771
" />
<path d="M205434342 192857200
L205505771 192928628
L205434342 193000057
L205362914 192928628
L205434342 192857200
L205434342 193000057
" />
</g></g>
<g style="fill:#000000; fill-opacity:0.0; 
stroke:#000000; stroke-width:21200.000000; stroke-opacity:1; 
stroke-linecap:round; stroke-linejoin:round;">
</g>
<g style="fill:#000000; fill-opacity:0.0; 
stroke:#000000; stroke-width:150000.000000; stroke-opacity:1; 
stroke-linecap:round; stroke-linejoin:round;">
<path d="M177002200 194507200
L285002200 194507200
" />
</g>
<g style="fill:#000000; fill-opacity:0.0; 
stroke:#000000; stroke-width:21200.000000; stroke-opacity:1; 
stroke-linecap:round; stroke-linejoin:round;">
</g>
<g style="fill:#000000; fill-opacity:0.0; 
stroke:#000000; stroke-width:150000.000000; stroke-opacity:1; 
stroke-linecap:round; stroke-linejoin:round;">
<text x="178002200.000000" y="196657200.000000"
textLength="50292857.000000" font-size="2000000.000000" lengthAdjust="spacingAndGlyphs"
text-anchor="start" opacity="0">KiCad E.D.A.  kicad 6.0.9+dfsg-1~bpo11+1</text>
<g class="stroked-text"><desc>KiCad E.D.A.  kicad 6.0.9+dfsg-1~bpo11+1</desc>
<path d="M178434342 196585771
L178434342 195085771
" />
<path d="M179291485 196585771
L178648628 195728628
" />
<path d="M179291485 195085771
L178434342 195942914
" />
<path d="M179934342 196585771
L179934342 195585771
" />
<path d="M179934342 195085771
L179862914 195157200
L179934342 195228628
L180005771 195157200
L179934342 195085771
L179934342 195228628
" />
<path d="M181505771 196442914
L181434342 196514342
L181220057 196585771
L181077200 196585771
L180862914 196514342
L180720057 196371485
L180648628 196228628
L180577200 195942914
L180577200 195728628
L180648628 195442914
L180720057 195300057
L180862914 195157200
L181077200 195085771
L181220057 195085771
L181434342 195157200
L181505771 195228628
" />
<path d="M182791485 196585771
L182791485 195800057
L182720057 195657200
L182577200 195585771
L182291485 195585771
L182148628 195657200
" />
<path d="M182791485 196514342
L182648628 196585771
L182291485 196585771
L182148628 196514342
L182077200 196371485
L182077200 196228628
L182148628 196085771
L182291485 196014342
L182648628 196014342
L182791485 195942914
" />
<path d="M184148628 196585771
L184148628 195085771
" />
<path d="M184148628 196514342
L184005771 196585771
L183720057 196585771
L183577200 196514342
L183505771 196442914
L183434342 196300057
L183434342 195871485
L183505771 195728628
L183577200 195657200
L183720057 195585771
L184005771 195585771
L184148628 195657200
" />
<path d="M186005771 195800057
L186505771 195800057
" />
<path d="M186720057 196585771
L186005771 196585771
L186005771 195085771
L186720057 195085771
" />
<path d="M187362914 196442914
L187434342 196514342
L187362914 196585771
L187291485 196514342
L187362914 196442914
L187362914 196585771
" />
<path d="M188077200 196585771
L188077200 195085771
L188434342 195085771
L188648628 195157200
L188791485 195300057
L188862914 195442914
L188934342 195728628
L188934342 195942914
L188862914 196228628
L188791485 196371485
L188648628 196514342
L188434342 196585771
L188077200 196585771
" />
<path d="M189577200 196442914
L189648628 196514342
L189577200 196585771
L189505771 196514342
L189577200 196442914
L189577200 196585771
" />
<path d="M190220057 196157200
L190934342 196157200
" />
<path d="M190077200 196585771
L190577200 195085771
L191077200 196585771
" />
<path d="M191577200 196442914
L191648628 196514342
L191577200 196585771
L191505771 196514342
L191577200 196442914
L191577200 196585771
" />
<path d="M194577200 196585771
L194577200 195085771
" />
<path d="M194720057 196014342
L195148628 196585771
" />
<path d="M195148628 195585771
L194577200 196157200
" />
<path d="M195791485 196585771
L195791485 195585771
" />
<path d="M195791485 195085771
L195720057 195157200
L195791485 195228628
L195862914 195157200
L195791485 195085771
L195791485 195228628
" />
<path d="M197148628 196514342
L197005771 196585771
L196720057 196585771
L196577200 196514342
L196505771 196442914
L196434342 196300057
L196434342 195871485
L196505771 195728628
L196577200 195657200
L196720057 195585771
L197005771 195585771
L197148628 195657200
" />
<path d="M198434342 196585771
L198434342 195800057
L198362914 195657200
L198220057 195585771
L197934342 195585771
L197791485 195657200
" />
<path d="M198434342 196514342
L198291485 196585771
L197934342 196585771
L197791485 196514342
L197720057 196371485
L197720057 196228628
L197791485 196085771
L197934342 196014342
L198291485 196014342
L198434342 195942914
" />
<path d="M199791485 196585771
L199791485 195085771
" />
<path d="M199791485 196514342
L199648628 196585771
L199362914 196585771
L199220057 196514342
L199148628 196442914
L199077200 196300057
L199077200 195871485
L199148628 195728628
L199220057 195657200
L199362914 195585771
L199648628 195585771
L199791485 195657200
" />
<path d="M202291485 195085771
L202005771 195085771
L201862914 195157200
L201791485 195228628
L201648628 195442914
L201577200 195728628
L201577200 196300057
L201648628 196442914
L201720057 196514342
L201862914 196585771
L202148628 196585771
L202291485 196514342
L202362914 196442914
L202434342 196300057
L202434342 195942914
L202362914 195800057
L202291485 195728628
L202148628 195657200
L201862914 195657200
L201720057 195728628
L201648628 195800057
L201577200 195942914
" />
<path d="M203077200 196442914
L203148628 196514342
L203077200 196585771
L203005771 196514342
L203077200 196442914
L203077200 196585771
" />
<path d="M204077200 195085771
L204220057 195085771
L204362914 195157200
L204434342 195228628
L204505771 195371485
L204577200 195657200
L204577200 196014342
L204505771 196300057
L204434342 196442914
L204362914 196514342
L204220057 196585771
L204077200 196585771
L203934342 196514342
L203862914 196442914
L203791485 196300057
L203720057 196014342
L203720057 195657200
L203791485 195371485
L203862914 195228628
L203934342 195157200
L204077200 195085771
" />
<path d="M205220057 196442914
L205291485 196514342
L205220057 196585771
L205148628 196514342
L205220057 196442914
L205220057 196585771
" />
<path d="M206005771 196585771
L206291485 196585771
L206434342 196514342
L206505771 196442914
L206648628 196228628
L206720057 195942914
L206720057 195371485
L206648628 195228628
L206577200 195157200
L206434342 195085771
L206148628 195085771
L206005771 195157200
L205934342 195228628
L205862914 195371485
L205862914 195728628
L205934342 195871485
L206005771 195942914
L206148628 196014342
L206434342 196014342
L206577200 195942914
L206648628 195871485
L206720057 195728628
" />
<path d="M207362914 196014342
L208505771 196014342
" />
<path d="M207934342 196585771
L207934342 195442914
" />
<path d="M209862914 196585771
L209862914 195085771
" />
<path d="M209862914 196514342
L209720057 196585771
L209434342 196585771
L209291485 196514342
L209220057 196442914
L209148628 196300057
L209148628 195871485
L209220057 195728628
L209291485 195657200
L209434342 195585771
L209720057 195585771
L209862914 195657200
" />
<path d="M210362914 195585771
L210934342 195585771
" />
<path d="M210577200 196585771
L210577200 195300057
L210648628 195157200
L210791485 195085771
L210934342 195085771
" />
<path d="M211362914 196514342
L211505771 196585771
L211791485 196585771
L211934342 196514342
L212005771 196371485
L212005771 196300057
L211934342 196157200
L211791485 196085771
L211577200 196085771
L211434342 196014342
L211362914 195871485
L211362914 195800057
L211434342 195657200
L211577200 195585771
L211791485 195585771
L211934342 195657200
" />
<path d="M213291485 195585771
L213291485 196800057
L213220057 196942914
L213148628 197014342
L213005771 197085771
L212791485 197085771
L212648628 197014342
" />
<path d="M213291485 196514342
L213148628 196585771
L212862914 196585771
L212720057 196514342
L212648628 196442914
L212577200 196300057
L212577200 195871485
L212648628 195728628
L212720057 195657200
L212862914 195585771
L213148628 195585771
L213291485 195657200
" />
<path d="M214005771 196014342
L215148628 196014342
" />
<path d="M216648628 196585771
L215791485 196585771
" />
<path d="M216220057 196585771
L216220057 195085771
L216077200 195300057
L215934342 195442914
L215791485 195514342
" />
<path d="M217077200 196014342
L217148628 195942914
L217291485 195871485
L217577200 196014342
L217720057 195942914
L217791485 195871485
" />
<path d="M218362914 196585771
L218362914 195085771
" />
<path d="M218362914 195657200
L218505771 195585771
L218791485 195585771
L218934342 195657200
L219005771 195728628
L219077200 195871485
L219077200 196300057
L219005771 196442914
L218934342 196514342
L218791485 196585771
L218505771 196585771
L218362914 196514342
" />
<path d="M219720057 195585771
L219720057 197085771
" />
<path d="M219720057 195657200
L219862914 195585771
L220148628 195585771
L220291485 195657200
L220362914 195728628
L220434342 195871485
L220434342 196300057
L220362914 196442914
L220291485 196514342
L220148628 196585771
L219862914 196585771
L219720057 196514342
" />
<path d="M221291485 196585771
L221148628 196514342
L221077200 196442914
L221005771 196300057
L221005771 195871485
L221077200 195728628
L221148628 195657200
L221291485 195585771
L221505771 195585771
L221648628 195657200
L221720057 195728628
L221791485 195871485
L221791485 196300057
L221720057 196442914
L221648628 196514342
L221505771 196585771
L221291485 196585771
" />
<path d="M223220057 196585771
L222362914 196585771
" />
<path d="M222791485 196585771
L222791485 195085771
L222648628 195300057
L222505771 195442914
L222362914 195514342
" />
<path d="M224648628 196585771
L223791485 196585771
" />
<path d="M224220057 196585771
L224220057 195085771
L224077200 195300057
L223934342 195442914
L223791485 195514342
" />
<path d="M225291485 196014342
L226434342 196014342
" />
<path d="M225862914 196585771
L225862914 195442914
" />
<path d="M227934342 196585771
L227077200 196585771
" />
<path d="M227505771 196585771
L227505771 195085771
L227362914 195300057
L227220057 195442914
L227077200 195514342
" />
</g></g>
<g style="fill:#000000; fill-opacity:0.0; 
stroke:#000000; stroke-width:21200.000000; stroke-opacity:1; 
stroke-linecap:round; stroke-linejoin:round;">
</g>
<g style="fill:#000000; fill-opacity:0.0; 
stroke:#000000; stroke-width:150000.000000; stroke-opacity:1; 
stroke-linecap:round; stroke-linejoin:round;">
<path d="M177002200 191507200
L285002200 191507200
" />
</g>
<g style="fill:#000000; fill-opacity:0.0; 
stroke:#000000; stroke-width:21200.000000; stroke-opacity:1; 
stroke-linecap:round; stroke-linejoin:round;">
</g>
<g style="fill:#000000; fill-opacity:0.0; 
stroke:#000000; stroke-width:300000.000000; stroke-opacity:1; 
stroke-linecap:round; stroke-linejoin:round;">
<text x="263002200.000000" y="193857200.000000"
textLength="5935714.000000" font-size="2000000.000000" lengthAdjust="spacingAndGlyphs"
text-anchor="start" opacity="0">Rev: </text>
<g class="stroked-text"><desc>Rev: </desc>
<path d="M264411485 193785771
L263911485 193071485
" />
<path d="M263554342 193785771
L263554342 192285771
L264125771 192285771
L264268628 192357200
L264340057 192428628
L264411485 192571485
L264411485 192785771
L264340057 192928628
L264268628 193000057
L264125771 193071485
L263554342 193071485
" />
<path d="M265625771 193714342
L265482914 193785771
L265197200 193785771
L265054342 193714342
L264982914 193571485
L264982914 193000057
L265054342 192857200
L265197200 192785771
L265482914 192785771
L265625771 192857200
L265697200 193000057
L265697200 193142914
L264982914 193285771
" />
<path d="M266197200 192785771
L266554342 193785771
L266911485 192785771
" />
<path d="M267482914 193642914
L267554342 193714342
L267482914 193785771
L267411485 193714342
L267482914 193642914
L267482914 193785771
" />
<path d="M267482914 192857200
L267554342 192928628
L267482914 193000057
L267411485 192928628
L267482914 192857200
L267482914 193000057
" />
</g></g>
<g style="fill:#000000; fill-opacity:0.0; 
stroke:#000000; stroke-width:21200.000000; stroke-opacity:1; 
stroke-linecap:round; stroke-linejoin:round;">
</g>
<g style="fill:#000000; fill-opacity:0.0; 
stroke:#000000; stroke-width:150000.000000; stroke-opacity:1; 
stroke-linecap:round; stroke-linejoin:round;">
<text x="178002200.000000" y="193857200.000000"
textLength="9604286.000000" font-size="2000000.000000" lengthAdjust="spacingAndGlyphs"
text-anchor="start" opacity="0">Size: A4</text>
<g class="stroked-text"><desc>Size: A4</desc>
<path d="M178362914 193714342
L178577200 193785771
L178934342 193785771
L179077200 193714342
L179148628 193642914
L179220057 193500057
L179220057 193357200
L179148628 193214342
L179077200 193142914
L178934342 193071485
L178648628 193000057
L178505771 192928628
L178434342 192857200
L178362914 192714342
L178362914 192571485
L178434342 192428628
L178505771 192357200
L178648628 192285771
L179005771 192285771
L179220057 192357200
" />
<path d="M179862914 193785771
L179862914 192785771
" />
<path d="M179862914 192285771
L179791485 192357200
L179862914 192428628
L179934342 192357200
L179862914 192285771
L179862914 192428628
" />
<path d="M180434342 192785771
L181220057 192785771
L180434342 193785771
L181220057 193785771
" />
<path d="M182362914 193714342
L182220057 193785771
L181934342 193785771
L181791485 193714342
L181720057 193571485
L181720057 193000057
L181791485 192857200
L181934342 192785771
L182220057 192785771
L182362914 192857200
L182434342 193000057
L182434342 193142914
L181720057 193285771
" />
<path d="M183077200 193642914
L183148628 193714342
L183077200 193785771
L183005771 193714342
L183077200 193642914
L183077200 193785771
" />
<path d="M183077200 192857200
L183148628 192928628
L183077200 193000057
L183005771 192928628
L183077200 192857200
L183077200 193000057
" />
<path d="M184862914 193357200
L185577200 193357200
" />
<path d="M184720057 193785771
L185220057 192285771
L185720057 193785771
" />
<path d="M186862914 192785771
L186862914 193785771
" />
<path d="M186505771 192214342
L186148628 193285771
L187077200 193285771
" />
</g></g>
<g style="fill:#000000; fill-opacity:0.0; 
stroke:#000000; stroke-width:21200.000000; stroke-opacity:1; 
stroke-linecap:round; stroke-linejoin:round;">
</g>
<g style="fill:#000000; fill-opacity:0.0; 
stroke:#000000; stroke-width:150000.000000; stroke-opacity:1; 
stroke-linecap:round; stroke-linejoin:round;">
<text x="263002200.000000" y="196657200.000000"
textLength="8507143.000000" font-size="2000000.000000" lengthAdjust="spacingAndGlyphs"
text-anchor="start" opacity="0">Id: 1/1</text>
<g class="stroked-text"><desc>Id: 1/1</desc>
<path d="M263434342 196585771
L263434342 195085771
" />
<path d="M264791485 196585771
L264791485 195085771
" />
<path d="M264791485 196514342
L264648628 196585771
L264362914 196585771
L264220057 196514342
L264148628 196442914
L264077200 196300057
L264077200 195871485
L264148628 195728628
L264220057 195657200
L264362914 195585771
L264648628 195585771
L264791485 195657200
" />
<path d="M265505771 196442914
L265577200 196514342
L265505771 196585771
L265434342 196514342
L265505771 196442914
L265505771 196585771
" />
<path d="M265505771 195657200
L265577200 195728628
L265505771 195800057
L265434342 195728628
L265505771 195657200
L265505771 195800057
" />
<path d="M268148628 196585771
L267291485 196585771
" />
<path d="M267720057 196585771
L267720057 195085771
L267577200 195300057
L267434342 195442914
L267291485 195514342
" />
<path d="M269862914 195014342
L268577200 196942914
" />
<path d="M271148628 196585771
L270291485 196585771
" />
<path d="M270720057 196585771
L270720057 195085771
L270577200 195300057
L270434342 195442914
L270291485 195514342
" />
</g></g>
<g style="fill:#000000; fill-opacity:0.0; 
stroke:#000000; stroke-width:21200.000000; stroke-opacity:1; 
stroke-linecap:round; stroke-linejoin:round;">
</g>
<g style="fill:#000000; fill-opacity:0.0; 
stroke:#000000; stroke-width:150000.000000; stroke-opacity:1; 
stroke-linecap:round; stroke-linejoin:round;">
<path d="M177002200 187507200
L285002200 187507200
" />
</g>
<g style="fill:#000000; fill-opacity:0.0; 
stroke:#000000; stroke-width:21200.000000; stroke-opacity:1; 
stroke-linecap:round; stroke-linejoin:round;">
</g>
<g style="fill:#000000; fill-opacity:0.0; 
stroke:#000000; stroke-width:400000.000000; stroke-opacity:1; 
stroke-linecap:round; stroke-linejoin:round;">
<text x="178002200.000000" y="190307200.000000"
textLength="9409643.000000" font-size="2666666.000000" lengthAdjust="spacingAndGlyphs"
text-anchor="start" opacity="0">Title: </text>
<g class="stroked-text"><desc>Title: </desc>
<path d="M178714580 188211961
L179857438 188211961
" />
<path d="M179036009 190211961
L179286009 188211961
" />
<path d="M180274104 190211961
L180440771 188878628
" />
<path d="M180524104 188211961
L180416961 188307200
L180500295 188402438
L180607438 188307200
L180524104 188211961
L180500295 188402438
" />
<path d="M181107438 188878628
L181869342 188878628
" />
<path d="M181476485 188211961
L181262200 189926247
L181333628 190116723
L181512200 190211961
L181702676 190211961
" />
<path d="M182655057 190211961
L182476485 190116723
L182405057 189926247
L182619342 188211961
" />
<path d="M184190771 190116723
L183988390 190211961
L183607438 190211961
L183428866 190116723
L183357438 189926247
L183452676 189164342
L183571723 188973866
L183774104 188878628
L184155057 188878628
L184333628 188973866
L184405057 189164342
L184381247 189354819
L183405057 189545295
" />
<path d="M185155057 190021485
L185238390 190116723
L185131247 190211961
L185047914 190116723
L185155057 190021485
L185131247 190211961
" />
<path d="M185286009 188973866
L185369342 189069104
L185262200 189164342
L185178866 189069104
L185286009 188973866
L185262200 189164342
" />
</g></g>
<g style="fill:#000000; fill-opacity:0.0; 
stroke:#000000; stroke-width:21200.000000; stroke-opacity:1; 
stroke-linecap:round; stroke-linejoin:round;">
</g>
<g style="fill:#000000; fill-opacity:0.0; 
stroke:#000000; stroke-width:150000.000000; stroke-opacity:1; 
stroke-linecap:round; stroke-linejoin:round;">
<text x="178002200.000000" y="186457200.000000"
textLength="27591429.000000" font-size="2000000.000000" lengthAdjust="spacingAndGlyphs"
text-anchor="start" opacity="0">File: MiniVerb.kicad_pcb</text>
<g class="stroked-text"><desc>File: MiniVerb.kicad_pcb</desc>
<path d="M178934342 185600057
L178434342 185600057
" />
<path d="M178434342 186385771
L178434342 184885771
L179148628 184885771
" />
<path d="M179720057 186385771
L179720057 185385771
" />
<path d="M179720057 184885771
L179648628 184957200
L179720057 185028628
L179791485 184957200
L179720057 184885771
L179720057 185028628
" />
<path d="M180648628 186385771
L180505771 186314342
L180434342 186171485
L180434342 184885771
" />
<path d="M181791485 186314342
L181648628 186385771
L181362914 186385771
L181220057 186314342
L181148628 186171485
L181148628 185600057
L181220057 185457200
L181362914 185385771
L181648628 185385771
L181791485 185457200
L181862914 185600057
L181862914 185742914
L181148628 185885771
" />
<path d="M182505771 186242914
L182577200 186314342
L182505771 186385771
L182434342 186314342
L182505771 186242914
L182505771 186385771
" />
<path d="M182505771 185457200
L182577200 185528628
L182505771 185600057
L182434342 185528628
L182505771 185457200
L182505771 185600057
" />
<path d="M184362914 186385771
L184362914 184885771
L184862914 185957200
L185362914 184885771
L185362914 186385771
" />
<path d="M186077200 186385771
L186077200 185385771
" />
<path d="M186077200 184885771
L186005771 184957200
L186077200 185028628
L186148628 184957200
L186077200 184885771
L186077200 185028628
" />
<path d="M186791485 185385771
L186791485 186385771
" />
<path d="M186791485 185528628
L186862914 185457200
L187005771 185385771
L187220057 185385771
L187362914 185457200
L187434342 185600057
L187434342 186385771
" />
<path d="M188148628 186385771
L188148628 185385771
" />
<path d="M188148628 184885771
L188077200 184957200
L188148628 185028628
L188220057 184957200
L188148628 184885771
L188148628 185028628
" />
<path d="M188648628 184885771
L189148628 186385771
L189648628 184885771
" />
<path d="M190720057 186314342
L190577200 186385771
L190291485 186385771
L190148628 186314342
L190077200 186171485
L190077200 185600057
L190148628 185457200
L190291485 185385771
L190577200 185385771
L190720057 185457200
L190791485 185600057
L190791485 185742914
L190077200 185885771
" />
<path d="M191434342 186385771
L191434342 185385771
" />
<path d="M191434342 185671485
L191505771 185528628
L191577200 185457200
L191720057 185385771
L191862914 185385771
" />
<path d="M192362914 186385771
L192362914 184885771
" />
<path d="M192362914 185457200
L192505771 185385771
L192791485 185385771
L192934342 185457200
L193005771 185528628
L193077200 185671485
L193077200 186100057
L193005771 186242914
L192934342 186314342
L192791485 186385771
L192505771 186385771
L192362914 186314342
" />
<path d="M193720057 186242914
L193791485 186314342
L193720057 186385771
L193648628 186314342
L193720057 186242914
L193720057 186385771
" />
<path d="M194434342 186385771
L194434342 184885771
" />
<path d="M194577200 185814342
L195005771 186385771
" />
<path d="M195005771 185385771
L194434342 185957200
" />
<path d="M195648628 186385771
L195648628 185385771
" />
<path d="M195648628 184885771
L195577200 184957200
L195648628 185028628
L195720057 184957200
L195648628 184885771
L195648628 185028628
" />
<path d="M197005771 186314342
L196862914 186385771
L196577200 186385771
L196434342 186314342
L196362914 186242914
L196291485 186100057
L196291485 185671485
L196362914 185528628
L196434342 185457200
L196577200 185385771
L196862914 185385771
L197005771 185457200
" />
<path d="M198291485 186385771
L198291485 185600057
L198220057 185457200
L198077200 185385771
L197791485 185385771
L197648628 185457200
" />
<path d="M198291485 186314342
L198148628 186385771
L197791485 186385771
L197648628 186314342
L197577200 186171485
L197577200 186028628
L197648628 185885771
L197791485 185814342
L198148628 185814342
L198291485 185742914
" />
<path d="M199648628 186385771
L199648628 184885771
" />
<path d="M199648628 186314342
L199505771 186385771
L199220057 186385771
L199077200 186314342
L199005771 186242914
L198934342 186100057
L198934342 185671485
L199005771 185528628
L199077200 185457200
L199220057 185385771
L199505771 185385771
L199648628 185457200
" />
<path d="M200005771 186528628
L201148628 186528628
" />
<path d="M201505771 185385771
L201505771 186885771
" />
<path d="M201505771 185457200
L201648628 185385771
L201934342 185385771
L202077200 185457200
L202148628 185528628
L202220057 185671485
L202220057 186100057
L202148628 186242914
L202077200 186314342
L201934342 186385771
L201648628 186385771
L201505771 186314342
" />
<path d="M203505771 186314342
L203362914 186385771
L203077200 186385771
L202934342 186314342
L202862914 186242914
L202791485 186100057
L202791485 185671485
L202862914 185528628
L202934342 185457200
L203077200 185385771
L203362914 185385771
L203505771 185457200
" />
<path d="M204148628 186385771
L204148628 184885771
" />
<path d="M204148628 185457200
L204291485 185385771
L204577200 185385771
L204720057 185457200
L204791485 185528628
L204862914 185671485
L204862914 186100057
L204791485 186242914
L204720057 186314342
L204577200 186385771
L204291485 186385771
L204148628 186314342
" />
</g></g>
<g style="fill:#000000; fill-opacity:0.0; 
stroke:#000000; stroke-width:21200.000000; stroke-opacity:1; 
stroke-linecap:round; stroke-linejoin:round;">
</g>
<g style="fill:#000000; fill-opacity:0.0; 
stroke:#000000; stroke-width:150000.000000; stroke-opacity:1; 
stroke-linecap:round; stroke-linejoin:round;">
<path d="M177002200 181507200
L285002200 181507200
" />
</g>
<g style="fill:#000000; fill-opacity:0.0; 
stroke:#000000; stroke-width:21200.000000; stroke-opacity:1; 
stroke-linecap:round; stroke-linejoin:round;">
</g>
<g style="fill:#000000; fill-opacity:0.0; 
stroke:#000000; stroke-width:150000.000000; stroke-opacity:1; 
stroke-linecap:round; stroke-linejoin:round;">
<text x="178002200.000000" y="183757200.000000"
textLength="8221429.000000" font-size="2000000.000000" lengthAdjust="spacingAndGlyphs"
text-anchor="start" opacity="0">Sheet: </text>
<g class="stroked-text"><desc>Sheet: </desc>
<path d="M178362914 183614342
L178577200 183685771
L178934342 183685771
L179077200 183614342
L179148628 183542914
L179220057 183400057
L179220057 183257200
L179148628 183114342
L179077200 183042914
L178934342 182971485
L178648628 182900057
L178505771 182828628
L178434342 182757200
L178362914 182614342
L178362914 182471485
L178434342 182328628
L178505771 182257200
L178648628 182185771
L179005771 182185771
L179220057 182257200
" />
<path d="M179862914 183685771
L179862914 182185771
" />
<path d="M180505771 183685771
L180505771 182900057
L180434342 182757200
L180291485 182685771
L180077200 182685771
L179934342 182757200
L179862914 182828628
" />
<path d="M181791485 183614342
L181648628 183685771
L181362914 183685771
L181220057 183614342
L181148628 183471485
L181148628 182900057
L181220057 182757200
L181362914 182685771
L181648628 182685771
L181791485 182757200
L181862914 182900057
L181862914 183042914
L181148628 183185771
" />
<path d="M183077200 183614342
L182934342 183685771
L182648628 183685771
L182505771 183614342
L182434342 183471485
L182434342 182900057
L182505771 182757200
L182648628 182685771
L182934342 182685771
L183077200 182757200
L183148628 182900057
L183148628 183042914
L182434342 183185771
" />
<path d="M183577200 182685771
L184148628 182685771
" />
<path d="M183791485 182185771
L183791485 183471485
L183862914 183614342
L184005771 183685771
L184148628 183685771
" />
<path d="M184648628 183542914
L184720057 183614342
L184648628 183685771
L184577200 183614342
L184648628 183542914
L184648628 183685771
" />
<path d="M184648628 182757200
L184720057 182828628
L184648628 182900057
L184577200 182828628
L184648628 182757200
L184648628 182900057
" />
</g></g>
<g style="fill:#000000; fill-opacity:0.0; 
stroke:#000000; stroke-width:21200.000000; stroke-opacity:1; 
stroke-linecap:round; stroke-linejoin:round;">
</g>
<g style="fill:#000000; fill-opacity:0.0; 
stroke:#000000; stroke-width:300000.000000; stroke-opacity:1; 
stroke-linecap:round; stroke-linejoin:round;">
<text x="178002200.000000" y="180757200.000000"
textLength="150000.000000" font-size="2000000.000000" lengthAdjust="spacingAndGlyphs"
text-anchor="start" opacity="0"></text>
<g class="stroked-text"><desc></desc>
</g></g>
<g style="fill:#000000; fill-opacity:0.0; 
stroke:#000000; stroke-width:21200.000000; stroke-opacity:1; 
stroke-linecap:round; stroke-linejoin:round;">
</g>
<g style="fill:#000000; fill-opacity:0.0; 
stroke:#000000; stroke-width:150000.000000; stroke-opacity:1; 
stroke-linecap:round; stroke-linejoin:round;">
<text x="178002200.000000" y="177757200.000000"
textLength="300000.000000" font-size="2000000.000000" lengthAdjust="spacingAndGlyphs"
text-anchor="start" opacity="0"></text>
<g class="stroked-text"><desc></desc>
</g></g>
<g style="fill:#000000; fill-opacity:0.0; 
stroke:#000000; stroke-width:21200.000000; stroke-opacity:1; 
stroke-linecap:round; stroke-linejoin:round;">
</g>
<g style="fill:#000000; fill-opacity:0.0; 
stroke:#000000; stroke-width:150000.000000; stroke-opacity:1; 
stroke-linecap:round; stroke-linejoin:round;">
<text x="178002200.000000" y="174757200.000000"
textLength="150000.000000" font-size="2000000.000000" lengthAdjust="spacingAndGlyphs"
text-anchor="start" opacity="0"></text>
<g class="stroked-text"><desc></desc>
</g></g>
<g style="fill:#000000; fill-opacity:0.0; 
stroke:#000000; stroke-width:21200.000000; stroke-opacity:1; 
stroke-linecap:round; stroke-linejoin:round;">
</g>
<g style="fill:#000000; fill-opacity:0.0; 
stroke:#000000; stroke-width:150000.000000; stroke-opacity:1; 
stroke-linecap:round; stroke-linejoin:round;">
<text x="178002200.000000" y="171757200.000000"
textLength="150000.000000" font-size="2000000.000000" lengthAdjust="spacingAndGlyphs"
text-anchor="start" opacity="0"></text>
<g class="stroked-text"><desc></desc>
</g></g>
<g style="fill:#000000; fill-opacity:0.0; 
stroke:#000000; stroke-width:21200.000000; stroke-opacity:1; 
stroke-linecap:round; stroke-linejoin:round;">
</g>
<g style="fill:#000000; fill-opacity:0.0; 
stroke:#000000; stroke-width:150000.000000; stroke-opacity:1; 
stroke-linecap:round; stroke-linejoin:round;">
<text x="178002200.000000" y="168757200.000000"
textLength="150000.000000" font-size="2000000.000000" lengthAdjust="spacingAndGlyphs"
text-anchor="start" opacity="0"></text>
<g class="stroked-text"><desc></desc>
</g></g>
<g style="fill:#000000; fill-opacity:0.0; 
stroke:#000000; stroke-width:21200.000000; stroke-opacity:1; 
stroke-linecap:round; stroke-linejoin:round;">
</g>
<g style="fill:#000000; fill-opacity:0.0; 
stroke:#000000; stroke-width:150000.000000; stroke-opacity:1; 
stroke-linecap:round; stroke-linejoin:round;">
<path d="M197002200 191507200
L197002200 194507200
" />
</g>
<g style="fill:#000000; fill-opacity:0.0; 
stroke:#000000; stroke-width:21200.000000; stroke-opacity:1; 
stroke-linecap:round; stroke-linejoin:round;">
</g>
<g style="fill:#000000; fill-opacity:0.0; 
stroke:#000000; stroke-width:150000.000000; stroke-opacity:1; 
stroke-linecap:round; stroke-linejoin:round;">
<path d="M261002200 191507200
L261002200 198007200
" />
</g>
<g style="fill:#000000; fill-opacity:0.0; 
stroke:#000000; stroke-width:120000.000000; stroke-opacity:1; 
stroke-linecap:round; stroke-linejoin:round;">
<text x="109995000.000000" y="156845000.000000"
textLength="24569048.000000" font-size="1066666.000000" lengthAdjust="spacingAndGlyphs"
text-anchor="middle" opacity="0">Clearance for 2020 Aluminum Extrusion</text>
<g class="stroked-text"><desc>Clearance for 2020 Aluminum Extrusion</desc>
<path d="M98433095 156730714
L98395000 156768809
L98280714 156806904
L98204523 156806904
L98090238 156768809
L98014047 156692619
L97975952 156616428
L97937857 156464047
L97937857 156349761
L97975952 156197380
L98014047 156121190
L98090238 156045000
L98204523 156006904
L98280714 156006904
L98395000 156045000
L98433095 156083095
" />
<path d="M98890238 156806904
L98814047 156768809
L98775952 156692619
L98775952 156006904
" />
<path d="M99499761 156768809
L99423571 156806904
L99271190 156806904
L99195000 156768809
L99156904 156692619
L99156904 156387857
L99195000 156311666
L99271190 156273571
L99423571 156273571
L99499761 156311666
L99537857 156387857
L99537857 156464047
L99156904 156540238
" />
<path d="M100223571 156806904
L100223571 156387857
L100185476 156311666
L100109285 156273571
L99956904 156273571
L99880714 156311666
" />
<path d="M100223571 156768809
L100147380 156806904
L99956904 156806904
L99880714 156768809
L99842619 156692619
L99842619 156616428
L99880714 156540238
L99956904 156502142
L100147380 156502142
L100223571 156464047
" />
<path d="M100604523 156806904
L100604523 156273571
" />
<path d="M100604523 156425952
L100642619 156349761
L100680714 156311666
L100756904 156273571
L100833095 156273571
" />
<path d="M101442619 156806904
L101442619 156387857
L101404523 156311666
L101328333 156273571
L101175952 156273571
L101099761 156311666
" />
<path d="M101442619 156768809
L101366428 156806904
L101175952 156806904
L101099761 156768809
L101061666 156692619
L101061666 156616428
L101099761 156540238
L101175952 156502142
L101366428 156502142
L101442619 156464047
" />
<path d="M101823571 156273571
L101823571 156806904
" />
<path d="M101823571 156349761
L101861666 156311666
L101937857 156273571
L102052142 156273571
L102128333 156311666
L102166428 156387857
L102166428 156806904
" />
<path d="M102890238 156768809
L102814047 156806904
L102661666 156806904
L102585476 156768809
L102547380 156730714
L102509285 156654523
L102509285 156425952
L102547380 156349761
L102585476 156311666
L102661666 156273571
L102814047 156273571
L102890238 156311666
" />
<path d="M103537857 156768809
L103461666 156806904
L103309285 156806904
L103233095 156768809
L103195000 156692619
L103195000 156387857
L103233095 156311666
L103309285 156273571
L103461666 156273571
L103537857 156311666
L103575952 156387857
L103575952 156464047
L103195000 156540238
" />
<path d="M104414047 156273571
L104718809 156273571
" />
<path d="M104528333 156806904
L104528333 156121190
L104566428 156045000
L104642619 156006904
L104718809 156006904
" />
<path d="M105099761 156806904
L105023571 156768809
L104985476 156730714
L104947380 156654523
L104947380 156425952
L104985476 156349761
L105023571 156311666
L105099761 156273571
L105214047 156273571
L105290238 156311666
L105328333 156349761
L105366428 156425952
L105366428 156654523
L105328333 156730714
L105290238 156768809
L105214047 156806904
L105099761 156806904
" />
<path d="M105709285 156806904
L105709285 156273571
" />
<path d="M105709285 156425952
L105747380 156349761
L105785476 156311666
L105861666 156273571
L105937857 156273571
" />
<path d="M106775952 156083095
L106814047 156045000
L106890238 156006904
L107080714 156006904
L107156904 156045000
L107195000 156083095
L107233095 156159285
L107233095 156235476
L107195000 156349761
L106737857 156806904
L107233095 156806904
" />
<path d="M107728333 156006904
L107804523 156006904
L107880714 156045000
L107918809 156083095
L107956904 156159285
L107995000 156311666
L107995000 156502142
L107956904 156654523
L107918809 156730714
L107880714 156768809
L107804523 156806904
L107728333 156806904
L107652142 156768809
L107614047 156730714
L107575952 156654523
L107537857 156502142
L107537857 156311666
L107575952 156159285
L107614047 156083095
L107652142 156045000
L107728333 156006904
" />
<path d="M108299761 156083095
L108337857 156045000
L108414047 156006904
L108604523 156006904
L108680714 156045000
L108718809 156083095
L108756904 156159285
L108756904 156235476
L108718809 156349761
L108261666 156806904
L108756904 156806904
" />
<path d="M109252142 156006904
L109328333 156006904
L109404523 156045000
L109442619 156083095
L109480714 156159285
L109518809 156311666
L109518809 156502142
L109480714 156654523
L109442619 156730714
L109404523 156768809
L109328333 156806904
L109252142 156806904
L109175952 156768809
L109137857 156730714
L109099761 156654523
L109061666 156502142
L109061666 156311666
L109099761 156159285
L109137857 156083095
L109175952 156045000
L109252142 156006904
" />
<path d="M110433095 156578333
L110814047 156578333
" />
<path d="M110356904 156806904
L110623571 156006904
L110890238 156806904
" />
<path d="M111271190 156806904
L111195000 156768809
L111156904 156692619
L111156904 156006904
" />
<path d="M111918809 156273571
L111918809 156806904
" />
<path d="M111575952 156273571
L111575952 156692619
L111614047 156768809
L111690238 156806904
L111804523 156806904
L111880714 156768809
L111918809 156730714
" />
<path d="M112299761 156806904
L112299761 156273571
" />
<path d="M112299761 156349761
L112337857 156311666
L112414047 156273571
L112528333 156273571
L112604523 156311666
L112642619 156387857
L112642619 156806904
" />
<path d="M112642619 156387857
L112680714 156311666
L112756904 156273571
L112871190 156273571
L112947380 156311666
L112985476 156387857
L112985476 156806904
" />
<path d="M113366428 156806904
L113366428 156273571
" />
<path d="M113366428 156006904
L113328333 156045000
L113366428 156083095
L113404523 156045000
L113366428 156006904
L113366428 156083095
" />
<path d="M113747380 156273571
L113747380 156806904
" />
<path d="M113747380 156349761
L113785476 156311666
L113861666 156273571
L113975952 156273571
L114052142 156311666
L114090238 156387857
L114090238 156806904
" />
<path d="M114814047 156273571
L114814047 156806904
" />
<path d="M114471190 156273571
L114471190 156692619
L114509285 156768809
L114585476 156806904
L114699761 156806904
L114775952 156768809
L114814047 156730714
" />
<path d="M115195000 156806904
L115195000 156273571
" />
<path d="M115195000 156349761
L115233095 156311666
L115309285 156273571
L115423571 156273571
L115499761 156311666
L115537857 156387857
L115537857 156806904
" />
<path d="M115537857 156387857
L115575952 156311666
L115652142 156273571
L115766428 156273571
L115842619 156311666
L115880714 156387857
L115880714 156806904
" />
<path d="M116871190 156387857
L117137857 156387857
" />
<path d="M117252142 156806904
L116871190 156806904
L116871190 156006904
L117252142 156006904
" />
<path d="M117518809 156806904
L117937857 156273571
" />
<path d="M117518809 156273571
L117937857 156806904
" />
<path d="M118128333 156273571
L118433095 156273571
" />
<path d="M118242619 156006904
L118242619 156692619
L118280714 156768809
L118356904 156806904
L118433095 156806904
" />
<path d="M118699761 156806904
L118699761 156273571
" />
<path d="M118699761 156425952
L118737857 156349761
L118775952 156311666
L118852142 156273571
L118928333 156273571
" />
<path d="M119537857 156273571
L119537857 156806904
" />
<path d="M119195000 156273571
L119195000 156692619
L119233095 156768809
L119309285 156806904
L119423571 156806904
L119499761 156768809
L119537857 156730714
" />
<path d="M119880714 156768809
L119956904 156806904
L120109285 156806904
L120185476 156768809
L120223571 156692619
L120223571 156654523
L120185476 156578333
L120109285 156540238
L119995000 156540238
L119918809 156502142
L119880714 156425952
L119880714 156387857
L119918809 156311666
L119995000 156273571
L120109285 156273571
L120185476 156311666
" />
<path d="M120566428 156806904
L120566428 156273571
" />
<path d="M120566428 156006904
L120528333 156045000
L120566428 156083095
L120604523 156045000
L120566428 156006904
L120566428 156083095
" />
<path d="M121061666 156806904
L120985476 156768809
L120947380 156730714
L120909285 156654523
L120909285 156425952
L120947380 156349761
L120985476 156311666
L121061666 156273571
L121175952 156273571
L121252142 156311666
L121290238 156349761
L121328333 156425952
L121328333 156654523
L121290238 156730714
L121252142 156768809
L121175952 156806904
L121061666 156806904
" />
<path d="M121671190 156273571
L121671190 156806904
" />
<path d="M121671190 156349761
L121709285 156311666
L121785476 156273571
L121899761 156273571
L121975952 156311666
L122014047 156387857
L122014047 156806904
" />
</g><text x="109995000.000000" y="51845000.000000"
textLength="24575048.000000" font-size="1066666.000000" lengthAdjust="spacingAndGlyphs"
text-anchor="middle" opacity="0">Clearance for 2020 Aluminum Extrusion</text>
<g class="stroked-text"><desc>Clearance for 2020 Aluminum Extrusion</desc>
<path d="M98433095 51730714
L98395000 51768809
L98280714 51806904
L98204523 51806904
L98090238 51768809
L98014047 51692619
L97975952 51616428
L97937857 51464047
L97937857 51349761
L97975952 51197380
L98014047 51121190
L98090238 51045000
L98204523 51006904
L98280714 51006904
L98395000 51045000
L98433095 51083095
" />
<path d="M98890238 51806904
L98814047 51768809
L98775952 51692619
L98775952 51006904
" />
<path d="M99499761 51768809
L99423571 51806904
L99271190 51806904
L99195000 51768809
L99156904 51692619
L99156904 51387857
L99195000 51311666
L99271190 51273571
L99423571 51273571
L99499761 51311666
L99537857 51387857
L99537857 51464047
L99156904 51540238
" />
<path d="M100223571 51806904
L100223571 51387857
L100185476 51311666
L100109285 51273571
L99956904 51273571
L99880714 51311666
" />
<path d="M100223571 51768809
L100147380 51806904
L99956904 51806904
L99880714 51768809
L99842619 51692619
L99842619 51616428
L99880714 51540238
L99956904 51502142
L100147380 51502142
L100223571 51464047
" />
<path d="M100604523 51806904
L100604523 51273571
" />
<path d="M100604523 51425952
L100642619 51349761
L100680714 51311666
L100756904 51273571
L100833095 51273571
" />
<path d="M101442619 51806904
L101442619 51387857
L101404523 51311666
L101328333 51273571
L101175952 51273571
L101099761 51311666
" />
<path d="M101442619 51768809
L101366428 51806904
L101175952 51806904
L101099761 51768809
L101061666 51692619
L101061666 51616428
L101099761 51540238
L101175952 51502142
L101366428 51502142
L101442619 51464047
" />
<path d="M101823571 51273571
L101823571 51806904
" />
<path d="M101823571 51349761
L101861666 51311666
L101937857 51273571
L102052142 51273571
L102128333 51311666
L102166428 51387857
L102166428 51806904
" />
<path d="M102890238 51768809
L102814047 51806904
L102661666 51806904
L102585476 51768809
L102547380 51730714
L102509285 51654523
L102509285 51425952
L102547380 51349761
L102585476 51311666
L102661666 51273571
L102814047 51273571
L102890238 51311666
" />
<path d="M103537857 51768809
L103461666 51806904
L103309285 51806904
L103233095 51768809
L103195000 51692619
L103195000 51387857
L103233095 51311666
L103309285 51273571
L103461666 51273571
L103537857 51311666
L103575952 51387857
L103575952 51464047
L103195000 51540238
" />
<path d="M104414047 51273571
L104718809 51273571
" />
<path d="M104528333 51806904
L104528333 51121190
L104566428 51045000
L104642619 51006904
L104718809 51006904
" />
<path d="M105099761 51806904
L105023571 51768809
L104985476 51730714
L104947380 51654523
L104947380 51425952
L104985476 51349761
L105023571 51311666
L105099761 51273571
L105214047 51273571
L105290238 51311666
L105328333 51349761
L105366428 51425952
L105366428 51654523
L105328333 51730714
L105290238 51768809
L105214047 51806904
L105099761 51806904
" />
<path d="M105709285 51806904
L105709285 51273571
" />
<path d="M105709285 51425952
L105747380 51349761
L105785476 51311666
L105861666 51273571
L105937857 51273571
" />
<path d="M106775952 51083095
L106814047 51045000
L106890238 51006904
L107080714 51006904
L107156904 51045000
L107195000 51083095
L107233095 51159285
L107233095 51235476
L107195000 51349761
L106737857 51806904
L107233095 51806904
" />
<path d="M107728333 51006904
L107804523 51006904
L107880714 51045000
L107918809 51083095
L107956904 51159285
L107995000 51311666
L107995000 51502142
L107956904 51654523
L107918809 51730714
L107880714 51768809
L107804523 51806904
L107728333 51806904
L107652142 51768809
L107614047 51730714
L107575952 51654523
L107537857 51502142
L107537857 51311666
L107575952 51159285
L107614047 51083095
L107652142 51045000
L107728333 51006904
" />
<path d="M108299761 51083095
L108337857 51045000
L108414047 51006904
L108604523 51006904
L108680714 51045000
L108718809 51083095
L108756904 51159285
L108756904 51235476
L108718809 51349761
L108261666 51806904
L108756904 51806904
" />
<path d="M109252142 51006904
L109328333 51006904
L109404523 51045000
L109442619 51083095
L109480714 51159285
L109518809 51311666
L109518809 51502142
L109480714 51654523
L109442619 51730714
L109404523 51768809
L109328333 51806904
L109252142 51806904
L109175952 51768809
L109137857 51730714
L109099761 51654523
L109061666 51502142
L109061666 51311666
L109099761 51159285
L109137857 51083095
L109175952 51045000
L109252142 51006904
" />
<path d="M110433095 51578333
L110814047 51578333
" />
<path d="M110356904 51806904
L110623571 51006904
L110890238 51806904
" />
<path d="M111271190 51806904
L111195000 51768809
L111156904 51692619
L111156904 51006904
" />
<path d="M111918809 51273571
L111918809 51806904
" />
<path d="M111575952 51273571
L111575952 51692619
L111614047 51768809
L111690238 51806904
L111804523 51806904
L111880714 51768809
L111918809 51730714
" />
<path d="M112299761 51806904
L112299761 51273571
" />
<path d="M112299761 51349761
L112337857 51311666
L112414047 51273571
L112528333 51273571
L112604523 51311666
L112642619 51387857
L112642619 51806904
" />
<path d="M112642619 51387857
L112680714 51311666
L112756904 51273571
L112871190 51273571
L112947380 51311666
L112985476 51387857
L112985476 51806904
" />
<path d="M113366428 51806904
L113366428 51273571
" />
<path d="M113366428 51006904
L113328333 51045000
L113366428 51083095
L113404523 51045000
L113366428 51006904
L113366428 51083095
" />
<path d="M113747380 51273571
L113747380 51806904
" />
<path d="M113747380 51349761
L113785476 51311666
L113861666 51273571
L113975952 51273571
L114052142 51311666
L114090238 51387857
L114090238 51806904
" />
<path d="M114814047 51273571
L114814047 51806904
" />
<path d="M114471190 51273571
L114471190 51692619
L114509285 51768809
L114585476 51806904
L114699761 51806904
L114775952 51768809
L114814047 51730714
" />
<path d="M115195000 51806904
L115195000 51273571
" />
<path d="M115195000 51349761
L115233095 51311666
L115309285 51273571
L115423571 51273571
L115499761 51311666
L115537857 51387857
L115537857 51806904
" />
<path d="M115537857 51387857
L115575952 51311666
L115652142 51273571
L115766428 51273571
L115842619 51311666
L115880714 51387857
L115880714 51806904
" />
<path d="M116871190 51387857
L117137857 51387857
" />
<path d="M117252142 51806904
L116871190 51806904
L116871190 51006904
L117252142 51006904
" />
<path d="M117518809 51806904
L117937857 51273571
" />
<path d="M117518809 51273571
L117937857 51806904
" />
<path d="M118128333 51273571
L118433095 51273571
" />
<path d="M118242619 51006904
L118242619 51692619
L118280714 51768809
L118356904 51806904
L118433095 51806904
" />
<path d="M118699761 51806904
L118699761 51273571
" />
<path d="M118699761 51425952
L118737857 51349761
L118775952 51311666
L118852142 51273571
L118928333 51273571
" />
<path d="M119537857 51273571
L119537857 51806904
" />
<path d="M119195000 51273571
L119195000 51692619
L119233095 51768809
L119309285 51806904
L119423571 51806904
L119499761 51768809
L119537857 51730714
" />
<path d="M119880714 51768809
L119956904 51806904
L120109285 51806904
L120185476 51768809
L120223571 51692619
L120223571 51654523
L120185476 51578333
L120109285 51540238
L119995000 51540238
L119918809 51502142
L119880714 51425952
L119880714 51387857
L119918809 51311666
L119995000 51273571
L120109285 51273571
L120185476 51311666
" />
<path d="M120566428 51806904
L120566428 51273571
" />
<path d="M120566428 51006904
L120528333 51045000
L120566428 51083095
L120604523 51045000
L120566428 51006904
L120566428 51083095
" />
<path d="M121061666 51806904
L120985476 51768809
L120947380 51730714
L120909285 51654523
L120909285 51425952
L120947380 51349761
L120985476 51311666
L121061666 51273571
L121175952 51273571
L121252142 51311666
L121290238 51349761
L121328333 51425952
L121328333 51654523
L121290238 51730714
L121252142 51768809
L121175952 51806904
L121061666 51806904
" />
<path d="M121671190 51273571
L121671190 51806904
" />
<path d="M121671190 51349761
L121709285 51311666
L121785476 51273571
L121899761 51273571
L121975952 51311666
L122014047 51387857
L122014047 51806904
" />
</g><path d="M94995000 168445000
L94995000 39945000
" />
<path d="M134995000 168445000
L94995000 168445000
" />
<path d="M94995000 39945000
L134995000 39945000
" />
<path d="M94995000 42945000
L134995000 42945000
" />
<path d="M94995000 165445000
L134995000 165445000
" />
<path d="M94995000 52945000
L134995000 52945000
" />
<path d="M94995000 155445000
L134995000 155445000
" />
<path d="M134995000 39945000
L134995000 168445000
" />
<path d="M120140000 150254000
L121530000 148864000
" />
<path d="M118980000 149784000
L121060000 147704000
" />
<path d="M119470000 150124000
L121410000 148184000
" />
<path d="M118640000 148314000
L119590000 147364000
" />
<path d="M118630000 149169000
L120450000 147354000
" />
<circle cx="120050000.000000" cy="148774000.000000" r="1500000.000000" /> 
<circle cx="110026000.000000" cy="148774000.000000" r="1500000.000000" /> 
<path d="M109446000 150124000
L111386000 148184000
" />
<path d="M108606000 149169000
L110426000 147354000
" />
<path d="M110116000 150254000
L111506000 148864000
" />
<path d="M108616000 148314000
L109566000 147364000
" />
<path d="M108956000 149784000
L111036000 147704000
" />
<circle cx="100000000.000000" cy="148774000.000000" r="1500000.000000" /> 
<path d="M100090000 150254000
L101480000 148864000
" />
<path d="M99420000 150124000
L101360000 148184000
" />
<path d="M98580000 149169000
L100400000 147354000
" />
<path d="M98590000 148314000
L99540000 147364000
" />
<path d="M98930000 149784000
L101010000 147704000
" />
<path d="M130140000 150260000
L131530000 148870000
" />
<path d="M128980000 149790000
L131060000 147710000
" />
<path d="M128640000 148320000
L129590000 147370000
" />
<path d="M129470000 150130000
L131410000 148190000
" />
<path d="M128630000 149175000
L130450000 147360000
" />
<circle cx="130050000.000000" cy="148780000.000000" r="1500000.000000" /> 
<g >
</g>
<g >
</g>
<g >
</g>
<g >
</g>
<g >
</g>
<g >
</g>
<g >
</g>
<g >
</g>
<g >
</g>
<g >
</g>
<g >
</g>
<g >
</g>
<g >
</g>
<g >
</g>
<g >
</g>
<g >
</g>
<g >
</g>
<g >
</g>
<g >
</g>
<g >
</g>
<g >
</g>
<g >
</g>
<g >
</g>
<g >
</g>
<g >
</g>
<g >
</g>
<g >
</g>
<g >
</g>
<g >
</g>
<g >
</g>
<g >
</g>
<g >
</g>
<g >
</g>
<g >
</g>
<g >
</g>
<g >
</g>
<g >
</g>
<g >
</g>
<g >
</g>
<g >
</g>
<g >
</g>
<g >
</g>
<g >
</g>
<g >
</g>
<g >
</g>
<g >
</g>
<g >
</g>
<g >
</g>
<g >
</g>
<g >
</g>
<g >
</g>
<g >
</g>
<g >
</g>
</g> 
</svg>
