%TF.GenerationSoftware,KiCad,Pcbnew,6.0.10+dfsg-1~bpo11+1*%
%TF.CreationDate,2023-02-01T15:11:05+08:00*%
%TF.ProjectId,MiniVerb v2.0 - Main,4d696e69-5665-4726-9220-76322e30202d,rev?*%
%TF.SameCoordinates,Original*%
%TF.FileFunction,AssemblyDrawing,Top*%
%FSLAX46Y46*%
G04 Gerber Fmt 4.6, Leading zero omitted, Abs format (unit mm)*
G04 Created by KiCad (PCBNEW 6.0.10+dfsg-1~bpo11+1) date 2023-02-01 15:11:05*
%MOMM*%
%LPD*%
G01*
G04 APERTURE LIST*
%ADD10C,0.150000*%
%ADD11C,0.060000*%
%ADD12C,0.080000*%
%ADD13C,0.075000*%
%ADD14C,0.100000*%
%ADD15C,0.120000*%
G04 APERTURE END LIST*
D10*
%TO.C,C13*%
X135686380Y-127904119D02*
X135686380Y-128475547D01*
X135686380Y-128189833D02*
X134686380Y-128189833D01*
X134829238Y-128285071D01*
X134924476Y-128380309D01*
X134972095Y-128475547D01*
X134686380Y-127285071D02*
X134686380Y-127189833D01*
X134734000Y-127094595D01*
X134781619Y-127046976D01*
X134876857Y-126999357D01*
X135067333Y-126951738D01*
X135305428Y-126951738D01*
X135495904Y-126999357D01*
X135591142Y-127046976D01*
X135638761Y-127094595D01*
X135686380Y-127189833D01*
X135686380Y-127285071D01*
X135638761Y-127380309D01*
X135591142Y-127427928D01*
X135495904Y-127475547D01*
X135305428Y-127523166D01*
X135067333Y-127523166D01*
X134876857Y-127475547D01*
X134781619Y-127427928D01*
X134734000Y-127380309D01*
X134686380Y-127285071D01*
X134686380Y-126332690D02*
X134686380Y-126237452D01*
X134734000Y-126142214D01*
X134781619Y-126094595D01*
X134876857Y-126046976D01*
X135067333Y-125999357D01*
X135305428Y-125999357D01*
X135495904Y-126046976D01*
X135591142Y-126094595D01*
X135638761Y-126142214D01*
X135686380Y-126237452D01*
X135686380Y-126332690D01*
X135638761Y-126427928D01*
X135591142Y-126475547D01*
X135495904Y-126523166D01*
X135305428Y-126570785D01*
X135067333Y-126570785D01*
X134876857Y-126523166D01*
X134781619Y-126475547D01*
X134734000Y-126427928D01*
X134686380Y-126332690D01*
X135019714Y-125570785D02*
X135686380Y-125570785D01*
X135114952Y-125570785D02*
X135067333Y-125523166D01*
X135019714Y-125427928D01*
X135019714Y-125285071D01*
X135067333Y-125189833D01*
X135162571Y-125142214D01*
X135686380Y-125142214D01*
X135162571Y-124332690D02*
X135162571Y-124666023D01*
X135686380Y-124666023D02*
X134686380Y-124666023D01*
X134686380Y-124189833D01*
D11*
X133946857Y-126613642D02*
X133965904Y-126632690D01*
X133984952Y-126689833D01*
X133984952Y-126727928D01*
X133965904Y-126785071D01*
X133927809Y-126823166D01*
X133889714Y-126842214D01*
X133813523Y-126861261D01*
X133756380Y-126861261D01*
X133680190Y-126842214D01*
X133642095Y-126823166D01*
X133604000Y-126785071D01*
X133584952Y-126727928D01*
X133584952Y-126689833D01*
X133604000Y-126632690D01*
X133623047Y-126613642D01*
X133984952Y-126232690D02*
X133984952Y-126461261D01*
X133984952Y-126346976D02*
X133584952Y-126346976D01*
X133642095Y-126385071D01*
X133680190Y-126423166D01*
X133699238Y-126461261D01*
X133584952Y-126099357D02*
X133584952Y-125851738D01*
X133737333Y-125985071D01*
X133737333Y-125927928D01*
X133756380Y-125889833D01*
X133775428Y-125870785D01*
X133813523Y-125851738D01*
X133908761Y-125851738D01*
X133946857Y-125870785D01*
X133965904Y-125889833D01*
X133984952Y-125927928D01*
X133984952Y-126042214D01*
X133965904Y-126080309D01*
X133946857Y-126099357D01*
D10*
%TO.C,C5*%
X138833333Y-134476714D02*
X138833333Y-135143380D01*
X138595238Y-134095761D02*
X138357142Y-134810047D01*
X138976190Y-134810047D01*
X139261904Y-134143380D02*
X139928571Y-134143380D01*
X139500000Y-135143380D01*
X140738095Y-134476714D02*
X140738095Y-135143380D01*
X140309523Y-134476714D02*
X140309523Y-135000523D01*
X140357142Y-135095761D01*
X140452380Y-135143380D01*
X140595238Y-135143380D01*
X140690476Y-135095761D01*
X140738095Y-135048142D01*
X141547619Y-134619571D02*
X141214285Y-134619571D01*
X141214285Y-135143380D02*
X141214285Y-134143380D01*
X141690476Y-134143380D01*
D12*
X139916666Y-133189571D02*
X139892857Y-133213380D01*
X139821428Y-133237190D01*
X139773809Y-133237190D01*
X139702380Y-133213380D01*
X139654761Y-133165761D01*
X139630952Y-133118142D01*
X139607142Y-133022904D01*
X139607142Y-132951476D01*
X139630952Y-132856238D01*
X139654761Y-132808619D01*
X139702380Y-132761000D01*
X139773809Y-132737190D01*
X139821428Y-132737190D01*
X139892857Y-132761000D01*
X139916666Y-132784809D01*
X140369047Y-132737190D02*
X140130952Y-132737190D01*
X140107142Y-132975285D01*
X140130952Y-132951476D01*
X140178571Y-132927666D01*
X140297619Y-132927666D01*
X140345238Y-132951476D01*
X140369047Y-132975285D01*
X140392857Y-133022904D01*
X140392857Y-133141952D01*
X140369047Y-133189571D01*
X140345238Y-133213380D01*
X140297619Y-133237190D01*
X140178571Y-133237190D01*
X140130952Y-133213380D01*
X140107142Y-133189571D01*
D10*
%TO.C,TP5*%
X137439285Y-66977380D02*
X138010714Y-66977380D01*
X137725000Y-67977380D02*
X137725000Y-66977380D01*
X138344047Y-67977380D02*
X138344047Y-66977380D01*
X138725000Y-66977380D01*
X138820238Y-67025000D01*
X138867857Y-67072619D01*
X138915476Y-67167857D01*
X138915476Y-67310714D01*
X138867857Y-67405952D01*
X138820238Y-67453571D01*
X138725000Y-67501190D01*
X138344047Y-67501190D01*
X139105952Y-68072619D02*
X139867857Y-68072619D01*
X140010714Y-66977380D02*
X140629761Y-66977380D01*
X140296428Y-67358333D01*
X140439285Y-67358333D01*
X140534523Y-67405952D01*
X140582142Y-67453571D01*
X140629761Y-67548809D01*
X140629761Y-67786904D01*
X140582142Y-67882142D01*
X140534523Y-67929761D01*
X140439285Y-67977380D01*
X140153571Y-67977380D01*
X140058333Y-67929761D01*
X140010714Y-67882142D01*
X141058333Y-67882142D02*
X141105952Y-67929761D01*
X141058333Y-67977380D01*
X141010714Y-67929761D01*
X141058333Y-67882142D01*
X141058333Y-67977380D01*
X141439285Y-66977380D02*
X142058333Y-66977380D01*
X141725000Y-67358333D01*
X141867857Y-67358333D01*
X141963095Y-67405952D01*
X142010714Y-67453571D01*
X142058333Y-67548809D01*
X142058333Y-67786904D01*
X142010714Y-67882142D01*
X141963095Y-67929761D01*
X141867857Y-67977380D01*
X141582142Y-67977380D01*
X141486904Y-67929761D01*
X141439285Y-67882142D01*
X142344047Y-66977380D02*
X142677380Y-67977380D01*
X143010714Y-66977380D01*
X138963095Y-63977380D02*
X139534523Y-63977380D01*
X139248809Y-64977380D02*
X139248809Y-63977380D01*
X139867857Y-64977380D02*
X139867857Y-63977380D01*
X140248809Y-63977380D01*
X140344047Y-64025000D01*
X140391666Y-64072619D01*
X140439285Y-64167857D01*
X140439285Y-64310714D01*
X140391666Y-64405952D01*
X140344047Y-64453571D01*
X140248809Y-64501190D01*
X139867857Y-64501190D01*
X141344047Y-63977380D02*
X140867857Y-63977380D01*
X140820238Y-64453571D01*
X140867857Y-64405952D01*
X140963095Y-64358333D01*
X141201190Y-64358333D01*
X141296428Y-64405952D01*
X141344047Y-64453571D01*
X141391666Y-64548809D01*
X141391666Y-64786904D01*
X141344047Y-64882142D01*
X141296428Y-64929761D01*
X141201190Y-64977380D01*
X140963095Y-64977380D01*
X140867857Y-64929761D01*
X140820238Y-64882142D01*
%TO.C,U2*%
X137064380Y-153486857D02*
X137064380Y-153963047D01*
X136064380Y-153963047D01*
X137064380Y-153153523D02*
X136064380Y-153153523D01*
X136778666Y-152820190D01*
X136064380Y-152486857D01*
X137064380Y-152486857D01*
X136397714Y-151582095D02*
X137064380Y-151582095D01*
X136016761Y-151820190D02*
X136731047Y-152058285D01*
X136731047Y-151439238D01*
X136064380Y-150867809D02*
X136064380Y-150772571D01*
X136112000Y-150677333D01*
X136159619Y-150629714D01*
X136254857Y-150582095D01*
X136445333Y-150534476D01*
X136683428Y-150534476D01*
X136873904Y-150582095D01*
X136969142Y-150629714D01*
X137016761Y-150677333D01*
X137064380Y-150772571D01*
X137064380Y-150867809D01*
X137016761Y-150963047D01*
X136969142Y-151010666D01*
X136873904Y-151058285D01*
X136683428Y-151105904D01*
X136445333Y-151105904D01*
X136254857Y-151058285D01*
X136159619Y-151010666D01*
X136112000Y-150963047D01*
X136064380Y-150867809D01*
X136397714Y-149677333D02*
X137064380Y-149677333D01*
X136016761Y-149915428D02*
X136731047Y-150153523D01*
X136731047Y-149534476D01*
X136064380Y-148963047D02*
X136064380Y-148867809D01*
X136112000Y-148772571D01*
X136159619Y-148724952D01*
X136254857Y-148677333D01*
X136445333Y-148629714D01*
X136683428Y-148629714D01*
X136873904Y-148677333D01*
X136969142Y-148724952D01*
X137016761Y-148772571D01*
X137064380Y-148867809D01*
X137064380Y-148963047D01*
X137016761Y-149058285D01*
X136969142Y-149105904D01*
X136873904Y-149153523D01*
X136683428Y-149201142D01*
X136445333Y-149201142D01*
X136254857Y-149153523D01*
X136159619Y-149105904D01*
X136112000Y-149058285D01*
X136064380Y-148963047D01*
X137064380Y-147724952D02*
X137064380Y-148201142D01*
X136064380Y-148201142D01*
X137064380Y-147391619D02*
X136064380Y-147391619D01*
X136064380Y-147010666D01*
X136112000Y-146915428D01*
X136159619Y-146867809D01*
X136254857Y-146820190D01*
X136397714Y-146820190D01*
X136492952Y-146867809D01*
X136540571Y-146915428D01*
X136588190Y-147010666D01*
X136588190Y-147391619D01*
X136683428Y-146391619D02*
X136683428Y-145629714D01*
X137064380Y-144629714D02*
X137064380Y-145201142D01*
X137064380Y-144915428D02*
X136064380Y-144915428D01*
X136207238Y-145010666D01*
X136302476Y-145105904D01*
X136350095Y-145201142D01*
X136064380Y-144010666D02*
X136064380Y-143915428D01*
X136112000Y-143820190D01*
X136159619Y-143772571D01*
X136254857Y-143724952D01*
X136445333Y-143677333D01*
X136683428Y-143677333D01*
X136873904Y-143724952D01*
X136969142Y-143772571D01*
X137016761Y-143820190D01*
X137064380Y-143915428D01*
X137064380Y-144010666D01*
X137016761Y-144105904D01*
X136969142Y-144153523D01*
X136873904Y-144201142D01*
X136683428Y-144248761D01*
X136445333Y-144248761D01*
X136254857Y-144201142D01*
X136159619Y-144153523D01*
X136112000Y-144105904D01*
X136064380Y-144010666D01*
D13*
X133731047Y-148570190D02*
X133731047Y-148974952D01*
X133754857Y-149022571D01*
X133778666Y-149046380D01*
X133826285Y-149070190D01*
X133921523Y-149070190D01*
X133969142Y-149046380D01*
X133992952Y-149022571D01*
X134016761Y-148974952D01*
X134016761Y-148570190D01*
X134231047Y-148617809D02*
X134254857Y-148594000D01*
X134302476Y-148570190D01*
X134421523Y-148570190D01*
X134469142Y-148594000D01*
X134492952Y-148617809D01*
X134516761Y-148665428D01*
X134516761Y-148713047D01*
X134492952Y-148784476D01*
X134207238Y-149070190D01*
X134516761Y-149070190D01*
D10*
%TO.C,R17*%
X129839238Y-128368880D02*
X129648761Y-128368880D01*
X129553523Y-128416500D01*
X129505904Y-128464119D01*
X129410666Y-128606976D01*
X129363047Y-128797452D01*
X129363047Y-129178404D01*
X129410666Y-129273642D01*
X129458285Y-129321261D01*
X129553523Y-129368880D01*
X129744000Y-129368880D01*
X129839238Y-129321261D01*
X129886857Y-129273642D01*
X129934476Y-129178404D01*
X129934476Y-128940309D01*
X129886857Y-128845071D01*
X129839238Y-128797452D01*
X129744000Y-128749833D01*
X129553523Y-128749833D01*
X129458285Y-128797452D01*
X129410666Y-128845071D01*
X129363047Y-128940309D01*
X130791619Y-128368880D02*
X130601142Y-128368880D01*
X130505904Y-128416500D01*
X130458285Y-128464119D01*
X130363047Y-128606976D01*
X130315428Y-128797452D01*
X130315428Y-129178404D01*
X130363047Y-129273642D01*
X130410666Y-129321261D01*
X130505904Y-129368880D01*
X130696380Y-129368880D01*
X130791619Y-129321261D01*
X130839238Y-129273642D01*
X130886857Y-129178404D01*
X130886857Y-128940309D01*
X130839238Y-128845071D01*
X130791619Y-128797452D01*
X130696380Y-128749833D01*
X130505904Y-128749833D01*
X130410666Y-128797452D01*
X130363047Y-128845071D01*
X130315428Y-128940309D01*
X131315428Y-129273642D02*
X131363047Y-129321261D01*
X131315428Y-129368880D01*
X131267809Y-129321261D01*
X131315428Y-129273642D01*
X131315428Y-129368880D01*
X132267809Y-128368880D02*
X131791619Y-128368880D01*
X131744000Y-128845071D01*
X131791619Y-128797452D01*
X131886857Y-128749833D01*
X132124952Y-128749833D01*
X132220190Y-128797452D01*
X132267809Y-128845071D01*
X132315428Y-128940309D01*
X132315428Y-129178404D01*
X132267809Y-129273642D01*
X132220190Y-129321261D01*
X132124952Y-129368880D01*
X131886857Y-129368880D01*
X131791619Y-129321261D01*
X131744000Y-129273642D01*
X132744000Y-129368880D02*
X132744000Y-128368880D01*
X132839238Y-128987928D02*
X133124952Y-129368880D01*
X133124952Y-128702214D02*
X132744000Y-129083166D01*
D11*
X130986857Y-130527452D02*
X130853523Y-130336976D01*
X130758285Y-130527452D02*
X130758285Y-130127452D01*
X130910666Y-130127452D01*
X130948761Y-130146500D01*
X130967809Y-130165547D01*
X130986857Y-130203642D01*
X130986857Y-130260785D01*
X130967809Y-130298880D01*
X130948761Y-130317928D01*
X130910666Y-130336976D01*
X130758285Y-130336976D01*
X131367809Y-130527452D02*
X131139238Y-130527452D01*
X131253523Y-130527452D02*
X131253523Y-130127452D01*
X131215428Y-130184595D01*
X131177333Y-130222690D01*
X131139238Y-130241738D01*
X131501142Y-130127452D02*
X131767809Y-130127452D01*
X131596380Y-130527452D01*
D10*
%TO.C,C6*%
X138920833Y-149976714D02*
X138920833Y-150643380D01*
X138682738Y-149595761D02*
X138444642Y-150310047D01*
X139063690Y-150310047D01*
X139349404Y-149643380D02*
X140016071Y-149643380D01*
X139587500Y-150643380D01*
X140825595Y-149976714D02*
X140825595Y-150643380D01*
X140397023Y-149976714D02*
X140397023Y-150500523D01*
X140444642Y-150595761D01*
X140539880Y-150643380D01*
X140682738Y-150643380D01*
X140777976Y-150595761D01*
X140825595Y-150548142D01*
X141635119Y-150119571D02*
X141301785Y-150119571D01*
X141301785Y-150643380D02*
X141301785Y-149643380D01*
X141777976Y-149643380D01*
D12*
X140004166Y-148689571D02*
X139980357Y-148713380D01*
X139908928Y-148737190D01*
X139861309Y-148737190D01*
X139789880Y-148713380D01*
X139742261Y-148665761D01*
X139718452Y-148618142D01*
X139694642Y-148522904D01*
X139694642Y-148451476D01*
X139718452Y-148356238D01*
X139742261Y-148308619D01*
X139789880Y-148261000D01*
X139861309Y-148237190D01*
X139908928Y-148237190D01*
X139980357Y-148261000D01*
X140004166Y-148284809D01*
X140432738Y-148237190D02*
X140337500Y-148237190D01*
X140289880Y-148261000D01*
X140266071Y-148284809D01*
X140218452Y-148356238D01*
X140194642Y-148451476D01*
X140194642Y-148641952D01*
X140218452Y-148689571D01*
X140242261Y-148713380D01*
X140289880Y-148737190D01*
X140385119Y-148737190D01*
X140432738Y-148713380D01*
X140456547Y-148689571D01*
X140480357Y-148641952D01*
X140480357Y-148522904D01*
X140456547Y-148475285D01*
X140432738Y-148451476D01*
X140385119Y-148427666D01*
X140289880Y-148427666D01*
X140242261Y-148451476D01*
X140218452Y-148475285D01*
X140194642Y-148522904D01*
D10*
%TO.C,TP3*%
X138452380Y-131290476D02*
X138452380Y-130719047D01*
X139452380Y-131004761D02*
X138452380Y-131004761D01*
X139452380Y-130385714D02*
X138452380Y-130385714D01*
X138452380Y-130004761D01*
X138500000Y-129909523D01*
X138547619Y-129861904D01*
X138642857Y-129814285D01*
X138785714Y-129814285D01*
X138880952Y-129861904D01*
X138928571Y-129909523D01*
X138976190Y-130004761D01*
X138976190Y-130385714D01*
X139547619Y-129623809D02*
X139547619Y-128861904D01*
X138500000Y-128100000D02*
X138452380Y-128195238D01*
X138452380Y-128338095D01*
X138500000Y-128480952D01*
X138595238Y-128576190D01*
X138690476Y-128623809D01*
X138880952Y-128671428D01*
X139023809Y-128671428D01*
X139214285Y-128623809D01*
X139309523Y-128576190D01*
X139404761Y-128480952D01*
X139452380Y-128338095D01*
X139452380Y-128242857D01*
X139404761Y-128100000D01*
X139357142Y-128052380D01*
X139023809Y-128052380D01*
X139023809Y-128242857D01*
X139452380Y-127623809D02*
X138452380Y-127623809D01*
X139452380Y-127052380D01*
X138452380Y-127052380D01*
X139452380Y-126576190D02*
X138452380Y-126576190D01*
X138452380Y-126338095D01*
X138500000Y-126195238D01*
X138595238Y-126100000D01*
X138690476Y-126052380D01*
X138880952Y-126004761D01*
X139023809Y-126004761D01*
X139214285Y-126052380D01*
X139309523Y-126100000D01*
X139404761Y-126195238D01*
X139452380Y-126338095D01*
X139452380Y-126576190D01*
X143752380Y-129161904D02*
X143752380Y-128590476D01*
X144752380Y-128876190D02*
X143752380Y-128876190D01*
X144752380Y-128257142D02*
X143752380Y-128257142D01*
X143752380Y-127876190D01*
X143800000Y-127780952D01*
X143847619Y-127733333D01*
X143942857Y-127685714D01*
X144085714Y-127685714D01*
X144180952Y-127733333D01*
X144228571Y-127780952D01*
X144276190Y-127876190D01*
X144276190Y-128257142D01*
X143752380Y-127352380D02*
X143752380Y-126733333D01*
X144133333Y-127066666D01*
X144133333Y-126923809D01*
X144180952Y-126828571D01*
X144228571Y-126780952D01*
X144323809Y-126733333D01*
X144561904Y-126733333D01*
X144657142Y-126780952D01*
X144704761Y-126828571D01*
X144752380Y-126923809D01*
X144752380Y-127209523D01*
X144704761Y-127304761D01*
X144657142Y-127352380D01*
%TO.C,R14*%
X126891619Y-131089357D02*
X126844000Y-131041738D01*
X126796380Y-130946500D01*
X126796380Y-130708404D01*
X126844000Y-130613166D01*
X126891619Y-130565547D01*
X126986857Y-130517928D01*
X127082095Y-130517928D01*
X127224952Y-130565547D01*
X127796380Y-131136976D01*
X127796380Y-130517928D01*
X126796380Y-129898880D02*
X126796380Y-129803642D01*
X126844000Y-129708404D01*
X126891619Y-129660785D01*
X126986857Y-129613166D01*
X127177333Y-129565547D01*
X127415428Y-129565547D01*
X127605904Y-129613166D01*
X127701142Y-129660785D01*
X127748761Y-129708404D01*
X127796380Y-129803642D01*
X127796380Y-129898880D01*
X127748761Y-129994119D01*
X127701142Y-130041738D01*
X127605904Y-130089357D01*
X127415428Y-130136976D01*
X127177333Y-130136976D01*
X126986857Y-130089357D01*
X126891619Y-130041738D01*
X126844000Y-129994119D01*
X126796380Y-129898880D01*
X126796380Y-128946500D02*
X126796380Y-128851261D01*
X126844000Y-128756023D01*
X126891619Y-128708404D01*
X126986857Y-128660785D01*
X127177333Y-128613166D01*
X127415428Y-128613166D01*
X127605904Y-128660785D01*
X127701142Y-128708404D01*
X127748761Y-128756023D01*
X127796380Y-128851261D01*
X127796380Y-128946500D01*
X127748761Y-129041738D01*
X127701142Y-129089357D01*
X127605904Y-129136976D01*
X127415428Y-129184595D01*
X127177333Y-129184595D01*
X126986857Y-129136976D01*
X126891619Y-129089357D01*
X126844000Y-129041738D01*
X126796380Y-128946500D01*
X127796380Y-128184595D02*
X126796380Y-128184595D01*
X127415428Y-128089357D02*
X127796380Y-127803642D01*
X127129714Y-127803642D02*
X127510666Y-128184595D01*
D11*
X128954952Y-129703642D02*
X128764476Y-129836976D01*
X128954952Y-129932214D02*
X128554952Y-129932214D01*
X128554952Y-129779833D01*
X128574000Y-129741738D01*
X128593047Y-129722690D01*
X128631142Y-129703642D01*
X128688285Y-129703642D01*
X128726380Y-129722690D01*
X128745428Y-129741738D01*
X128764476Y-129779833D01*
X128764476Y-129932214D01*
X128954952Y-129322690D02*
X128954952Y-129551261D01*
X128954952Y-129436976D02*
X128554952Y-129436976D01*
X128612095Y-129475071D01*
X128650190Y-129513166D01*
X128669238Y-129551261D01*
X128688285Y-128979833D02*
X128954952Y-128979833D01*
X128535904Y-129075071D02*
X128821619Y-129170309D01*
X128821619Y-128922690D01*
D10*
%TO.C,CV1_IN1*%
X127725714Y-139847142D02*
X127678095Y-139894761D01*
X127535238Y-139942380D01*
X127440000Y-139942380D01*
X127297142Y-139894761D01*
X127201904Y-139799523D01*
X127154285Y-139704285D01*
X127106666Y-139513809D01*
X127106666Y-139370952D01*
X127154285Y-139180476D01*
X127201904Y-139085238D01*
X127297142Y-138990000D01*
X127440000Y-138942380D01*
X127535238Y-138942380D01*
X127678095Y-138990000D01*
X127725714Y-139037619D01*
X128011428Y-138942380D02*
X128344761Y-139942380D01*
X128678095Y-138942380D01*
X129535238Y-139942380D02*
X128963809Y-139942380D01*
X129249523Y-139942380D02*
X129249523Y-138942380D01*
X129154285Y-139085238D01*
X129059047Y-139180476D01*
X128963809Y-139228095D01*
X129725714Y-140037619D02*
X130487619Y-140037619D01*
X130725714Y-139942380D02*
X130725714Y-138942380D01*
X131201904Y-139942380D02*
X131201904Y-138942380D01*
X131773333Y-139942380D01*
X131773333Y-138942380D01*
X132773333Y-139942380D02*
X132201904Y-139942380D01*
X132487619Y-139942380D02*
X132487619Y-138942380D01*
X132392380Y-139085238D01*
X132297142Y-139180476D01*
X132201904Y-139228095D01*
%TO.C,U3*%
X129346380Y-130718404D02*
X128346380Y-130718404D01*
X129060666Y-130385071D01*
X128346380Y-130051738D01*
X129346380Y-130051738D01*
X129251142Y-129004119D02*
X129298761Y-129051738D01*
X129346380Y-129194595D01*
X129346380Y-129289833D01*
X129298761Y-129432690D01*
X129203523Y-129527928D01*
X129108285Y-129575547D01*
X128917809Y-129623166D01*
X128774952Y-129623166D01*
X128584476Y-129575547D01*
X128489238Y-129527928D01*
X128394000Y-129432690D01*
X128346380Y-129289833D01*
X128346380Y-129194595D01*
X128394000Y-129051738D01*
X128441619Y-129004119D01*
X129346380Y-128575547D02*
X128346380Y-128575547D01*
X128346380Y-128194595D01*
X128394000Y-128099357D01*
X128441619Y-128051738D01*
X128536857Y-128004119D01*
X128679714Y-128004119D01*
X128774952Y-128051738D01*
X128822571Y-128099357D01*
X128870190Y-128194595D01*
X128870190Y-128575547D01*
X128346380Y-127146976D02*
X128346380Y-127337452D01*
X128394000Y-127432690D01*
X128441619Y-127480309D01*
X128584476Y-127575547D01*
X128774952Y-127623166D01*
X129155904Y-127623166D01*
X129251142Y-127575547D01*
X129298761Y-127527928D01*
X129346380Y-127432690D01*
X129346380Y-127242214D01*
X129298761Y-127146976D01*
X129251142Y-127099357D01*
X129155904Y-127051738D01*
X128917809Y-127051738D01*
X128822571Y-127099357D01*
X128774952Y-127146976D01*
X128727333Y-127242214D01*
X128727333Y-127432690D01*
X128774952Y-127527928D01*
X128822571Y-127575547D01*
X128917809Y-127623166D01*
X128346380Y-126432690D02*
X128346380Y-126337452D01*
X128394000Y-126242214D01*
X128441619Y-126194595D01*
X128536857Y-126146976D01*
X128727333Y-126099357D01*
X128965428Y-126099357D01*
X129155904Y-126146976D01*
X129251142Y-126194595D01*
X129298761Y-126242214D01*
X129346380Y-126337452D01*
X129346380Y-126432690D01*
X129298761Y-126527928D01*
X129251142Y-126575547D01*
X129155904Y-126623166D01*
X128965428Y-126670785D01*
X128727333Y-126670785D01*
X128536857Y-126623166D01*
X128441619Y-126575547D01*
X128394000Y-126527928D01*
X128346380Y-126432690D01*
X128346380Y-125480309D02*
X128346380Y-125385071D01*
X128394000Y-125289833D01*
X128441619Y-125242214D01*
X128536857Y-125194595D01*
X128727333Y-125146976D01*
X128965428Y-125146976D01*
X129155904Y-125194595D01*
X129251142Y-125242214D01*
X129298761Y-125289833D01*
X129346380Y-125385071D01*
X129346380Y-125480309D01*
X129298761Y-125575547D01*
X129251142Y-125623166D01*
X129155904Y-125670785D01*
X128965428Y-125718404D01*
X128727333Y-125718404D01*
X128536857Y-125670785D01*
X128441619Y-125623166D01*
X128394000Y-125575547D01*
X128346380Y-125480309D01*
X129346380Y-124194595D02*
X129346380Y-124766023D01*
X129346380Y-124480309D02*
X128346380Y-124480309D01*
X128489238Y-124575547D01*
X128584476Y-124670785D01*
X128632095Y-124766023D01*
X128965428Y-123766023D02*
X128965428Y-123004119D01*
X128346380Y-122337452D02*
X128346380Y-122146976D01*
X128394000Y-122051738D01*
X128489238Y-121956500D01*
X128679714Y-121908880D01*
X129013047Y-121908880D01*
X129203523Y-121956500D01*
X129298761Y-122051738D01*
X129346380Y-122146976D01*
X129346380Y-122337452D01*
X129298761Y-122432690D01*
X129203523Y-122527928D01*
X129013047Y-122575547D01*
X128679714Y-122575547D01*
X128489238Y-122527928D01*
X128394000Y-122432690D01*
X128346380Y-122337452D01*
X128346380Y-121623166D02*
X128346380Y-121051738D01*
X129346380Y-121337452D02*
X128346380Y-121337452D01*
D11*
X131074952Y-126261261D02*
X131398761Y-126261261D01*
X131436857Y-126242214D01*
X131455904Y-126223166D01*
X131474952Y-126185071D01*
X131474952Y-126108880D01*
X131455904Y-126070785D01*
X131436857Y-126051738D01*
X131398761Y-126032690D01*
X131074952Y-126032690D01*
X131074952Y-125880309D02*
X131074952Y-125632690D01*
X131227333Y-125766023D01*
X131227333Y-125708880D01*
X131246380Y-125670785D01*
X131265428Y-125651738D01*
X131303523Y-125632690D01*
X131398761Y-125632690D01*
X131436857Y-125651738D01*
X131455904Y-125670785D01*
X131474952Y-125708880D01*
X131474952Y-125823166D01*
X131455904Y-125861261D01*
X131436857Y-125880309D01*
D10*
%TO.C,C14*%
X130182571Y-127838880D02*
X129611142Y-127838880D01*
X129896857Y-127838880D02*
X129896857Y-126838880D01*
X129801619Y-126981738D01*
X129706380Y-127076976D01*
X129611142Y-127124595D01*
X130801619Y-126838880D02*
X130896857Y-126838880D01*
X130992095Y-126886500D01*
X131039714Y-126934119D01*
X131087333Y-127029357D01*
X131134952Y-127219833D01*
X131134952Y-127457928D01*
X131087333Y-127648404D01*
X131039714Y-127743642D01*
X130992095Y-127791261D01*
X130896857Y-127838880D01*
X130801619Y-127838880D01*
X130706380Y-127791261D01*
X130658761Y-127743642D01*
X130611142Y-127648404D01*
X130563523Y-127457928D01*
X130563523Y-127219833D01*
X130611142Y-127029357D01*
X130658761Y-126934119D01*
X130706380Y-126886500D01*
X130801619Y-126838880D01*
X131563523Y-127172214D02*
X131563523Y-127838880D01*
X131563523Y-127267452D02*
X131611142Y-127219833D01*
X131706380Y-127172214D01*
X131849238Y-127172214D01*
X131944476Y-127219833D01*
X131992095Y-127315071D01*
X131992095Y-127838880D01*
X132801619Y-127315071D02*
X132468285Y-127315071D01*
X132468285Y-127838880D02*
X132468285Y-126838880D01*
X132944476Y-126838880D01*
D11*
X130996857Y-128959357D02*
X130977809Y-128978404D01*
X130920666Y-128997452D01*
X130882571Y-128997452D01*
X130825428Y-128978404D01*
X130787333Y-128940309D01*
X130768285Y-128902214D01*
X130749238Y-128826023D01*
X130749238Y-128768880D01*
X130768285Y-128692690D01*
X130787333Y-128654595D01*
X130825428Y-128616500D01*
X130882571Y-128597452D01*
X130920666Y-128597452D01*
X130977809Y-128616500D01*
X130996857Y-128635547D01*
X131377809Y-128997452D02*
X131149238Y-128997452D01*
X131263523Y-128997452D02*
X131263523Y-128597452D01*
X131225428Y-128654595D01*
X131187333Y-128692690D01*
X131149238Y-128711738D01*
X131720666Y-128730785D02*
X131720666Y-128997452D01*
X131625428Y-128578404D02*
X131530190Y-128864119D01*
X131777809Y-128864119D01*
D10*
%TO.C,AUDIO_OUT1*%
X135690476Y-161328666D02*
X136166666Y-161328666D01*
X135595238Y-161614380D02*
X135928571Y-160614380D01*
X136261904Y-161614380D01*
X136595238Y-160614380D02*
X136595238Y-161423904D01*
X136642857Y-161519142D01*
X136690476Y-161566761D01*
X136785714Y-161614380D01*
X136976190Y-161614380D01*
X137071428Y-161566761D01*
X137119047Y-161519142D01*
X137166666Y-161423904D01*
X137166666Y-160614380D01*
X137642857Y-161614380D02*
X137642857Y-160614380D01*
X137880952Y-160614380D01*
X138023809Y-160662000D01*
X138119047Y-160757238D01*
X138166666Y-160852476D01*
X138214285Y-161042952D01*
X138214285Y-161185809D01*
X138166666Y-161376285D01*
X138119047Y-161471523D01*
X138023809Y-161566761D01*
X137880952Y-161614380D01*
X137642857Y-161614380D01*
X138642857Y-161614380D02*
X138642857Y-160614380D01*
X139309523Y-160614380D02*
X139500000Y-160614380D01*
X139595238Y-160662000D01*
X139690476Y-160757238D01*
X139738095Y-160947714D01*
X139738095Y-161281047D01*
X139690476Y-161471523D01*
X139595238Y-161566761D01*
X139500000Y-161614380D01*
X139309523Y-161614380D01*
X139214285Y-161566761D01*
X139119047Y-161471523D01*
X139071428Y-161281047D01*
X139071428Y-160947714D01*
X139119047Y-160757238D01*
X139214285Y-160662000D01*
X139309523Y-160614380D01*
X139928571Y-161709619D02*
X140690476Y-161709619D01*
X141119047Y-160614380D02*
X141309523Y-160614380D01*
X141404761Y-160662000D01*
X141500000Y-160757238D01*
X141547619Y-160947714D01*
X141547619Y-161281047D01*
X141500000Y-161471523D01*
X141404761Y-161566761D01*
X141309523Y-161614380D01*
X141119047Y-161614380D01*
X141023809Y-161566761D01*
X140928571Y-161471523D01*
X140880952Y-161281047D01*
X140880952Y-160947714D01*
X140928571Y-160757238D01*
X141023809Y-160662000D01*
X141119047Y-160614380D01*
X141976190Y-160614380D02*
X141976190Y-161423904D01*
X142023809Y-161519142D01*
X142071428Y-161566761D01*
X142166666Y-161614380D01*
X142357142Y-161614380D01*
X142452380Y-161566761D01*
X142500000Y-161519142D01*
X142547619Y-161423904D01*
X142547619Y-160614380D01*
X142880952Y-160614380D02*
X143452380Y-160614380D01*
X143166666Y-161614380D02*
X143166666Y-160614380D01*
X144309523Y-161614380D02*
X143738095Y-161614380D01*
X144023809Y-161614380D02*
X144023809Y-160614380D01*
X143928571Y-160757238D01*
X143833333Y-160852476D01*
X143738095Y-160900095D01*
%TO.C,R11*%
X145392380Y-144867238D02*
X145392380Y-145438666D01*
X145392380Y-145152952D02*
X144392380Y-145152952D01*
X144535238Y-145248190D01*
X144630476Y-145343428D01*
X144678095Y-145438666D01*
X144392380Y-144248190D02*
X144392380Y-144152952D01*
X144440000Y-144057714D01*
X144487619Y-144010095D01*
X144582857Y-143962476D01*
X144773333Y-143914857D01*
X145011428Y-143914857D01*
X145201904Y-143962476D01*
X145297142Y-144010095D01*
X145344761Y-144057714D01*
X145392380Y-144152952D01*
X145392380Y-144248190D01*
X145344761Y-144343428D01*
X145297142Y-144391047D01*
X145201904Y-144438666D01*
X145011428Y-144486285D01*
X144773333Y-144486285D01*
X144582857Y-144438666D01*
X144487619Y-144391047D01*
X144440000Y-144343428D01*
X144392380Y-144248190D01*
X145392380Y-143486285D02*
X144392380Y-143486285D01*
X145011428Y-143391047D02*
X145392380Y-143105333D01*
X144725714Y-143105333D02*
X145106666Y-143486285D01*
D11*
X143690952Y-144529142D02*
X143500476Y-144662476D01*
X143690952Y-144757714D02*
X143290952Y-144757714D01*
X143290952Y-144605333D01*
X143310000Y-144567238D01*
X143329047Y-144548190D01*
X143367142Y-144529142D01*
X143424285Y-144529142D01*
X143462380Y-144548190D01*
X143481428Y-144567238D01*
X143500476Y-144605333D01*
X143500476Y-144757714D01*
X143690952Y-144148190D02*
X143690952Y-144376761D01*
X143690952Y-144262476D02*
X143290952Y-144262476D01*
X143348095Y-144300571D01*
X143386190Y-144338666D01*
X143405238Y-144376761D01*
X143690952Y-143767238D02*
X143690952Y-143995809D01*
X143690952Y-143881523D02*
X143290952Y-143881523D01*
X143348095Y-143919619D01*
X143386190Y-143957714D01*
X143405238Y-143995809D01*
D10*
%TO.C,C9*%
X135928380Y-150899619D02*
X135928380Y-151471047D01*
X135928380Y-151185333D02*
X134928380Y-151185333D01*
X135071238Y-151280571D01*
X135166476Y-151375809D01*
X135214095Y-151471047D01*
X134928380Y-150280571D02*
X134928380Y-150185333D01*
X134976000Y-150090095D01*
X135023619Y-150042476D01*
X135118857Y-149994857D01*
X135309333Y-149947238D01*
X135547428Y-149947238D01*
X135737904Y-149994857D01*
X135833142Y-150042476D01*
X135880761Y-150090095D01*
X135928380Y-150185333D01*
X135928380Y-150280571D01*
X135880761Y-150375809D01*
X135833142Y-150423428D01*
X135737904Y-150471047D01*
X135547428Y-150518666D01*
X135309333Y-150518666D01*
X135118857Y-150471047D01*
X135023619Y-150423428D01*
X134976000Y-150375809D01*
X134928380Y-150280571D01*
X134928380Y-149328190D02*
X134928380Y-149232952D01*
X134976000Y-149137714D01*
X135023619Y-149090095D01*
X135118857Y-149042476D01*
X135309333Y-148994857D01*
X135547428Y-148994857D01*
X135737904Y-149042476D01*
X135833142Y-149090095D01*
X135880761Y-149137714D01*
X135928380Y-149232952D01*
X135928380Y-149328190D01*
X135880761Y-149423428D01*
X135833142Y-149471047D01*
X135737904Y-149518666D01*
X135547428Y-149566285D01*
X135309333Y-149566285D01*
X135118857Y-149518666D01*
X135023619Y-149471047D01*
X134976000Y-149423428D01*
X134928380Y-149328190D01*
X135261714Y-148566285D02*
X135928380Y-148566285D01*
X135356952Y-148566285D02*
X135309333Y-148518666D01*
X135261714Y-148423428D01*
X135261714Y-148280571D01*
X135309333Y-148185333D01*
X135404571Y-148137714D01*
X135928380Y-148137714D01*
X135404571Y-147328190D02*
X135404571Y-147661523D01*
X135928380Y-147661523D02*
X134928380Y-147661523D01*
X134928380Y-147185333D01*
D11*
X137048857Y-149418666D02*
X137067904Y-149437714D01*
X137086952Y-149494857D01*
X137086952Y-149532952D01*
X137067904Y-149590095D01*
X137029809Y-149628190D01*
X136991714Y-149647238D01*
X136915523Y-149666285D01*
X136858380Y-149666285D01*
X136782190Y-149647238D01*
X136744095Y-149628190D01*
X136706000Y-149590095D01*
X136686952Y-149532952D01*
X136686952Y-149494857D01*
X136706000Y-149437714D01*
X136725047Y-149418666D01*
X137086952Y-149228190D02*
X137086952Y-149152000D01*
X137067904Y-149113904D01*
X137048857Y-149094857D01*
X136991714Y-149056761D01*
X136915523Y-149037714D01*
X136763142Y-149037714D01*
X136725047Y-149056761D01*
X136706000Y-149075809D01*
X136686952Y-149113904D01*
X136686952Y-149190095D01*
X136706000Y-149228190D01*
X136725047Y-149247238D01*
X136763142Y-149266285D01*
X136858380Y-149266285D01*
X136896476Y-149247238D01*
X136915523Y-149228190D01*
X136934571Y-149190095D01*
X136934571Y-149113904D01*
X136915523Y-149075809D01*
X136896476Y-149056761D01*
X136858380Y-149037714D01*
D10*
%TO.C,D1*%
X125640238Y-151412380D02*
X126259285Y-151412380D01*
X125925952Y-151793333D01*
X126068809Y-151793333D01*
X126164047Y-151840952D01*
X126211666Y-151888571D01*
X126259285Y-151983809D01*
X126259285Y-152221904D01*
X126211666Y-152317142D01*
X126164047Y-152364761D01*
X126068809Y-152412380D01*
X125783095Y-152412380D01*
X125687857Y-152364761D01*
X125640238Y-152317142D01*
X126687857Y-152412380D02*
X126687857Y-151745714D01*
X126687857Y-151840952D02*
X126735476Y-151793333D01*
X126830714Y-151745714D01*
X126973571Y-151745714D01*
X127068809Y-151793333D01*
X127116428Y-151888571D01*
X127116428Y-152412380D01*
X127116428Y-151888571D02*
X127164047Y-151793333D01*
X127259285Y-151745714D01*
X127402142Y-151745714D01*
X127497380Y-151793333D01*
X127545000Y-151888571D01*
X127545000Y-152412380D01*
X128021190Y-152412380D02*
X128021190Y-151745714D01*
X128021190Y-151840952D02*
X128068809Y-151793333D01*
X128164047Y-151745714D01*
X128306904Y-151745714D01*
X128402142Y-151793333D01*
X128449761Y-151888571D01*
X128449761Y-152412380D01*
X128449761Y-151888571D02*
X128497380Y-151793333D01*
X128592619Y-151745714D01*
X128735476Y-151745714D01*
X128830714Y-151793333D01*
X128878333Y-151888571D01*
X128878333Y-152412380D01*
X129116428Y-152507619D02*
X129878333Y-152507619D01*
X130592619Y-152412380D02*
X130116428Y-152412380D01*
X130116428Y-151412380D01*
X130925952Y-151888571D02*
X131259285Y-151888571D01*
X131402142Y-152412380D02*
X130925952Y-152412380D01*
X130925952Y-151412380D01*
X131402142Y-151412380D01*
X131830714Y-152412380D02*
X131830714Y-151412380D01*
X132068809Y-151412380D01*
X132211666Y-151460000D01*
X132306904Y-151555238D01*
X132354523Y-151650476D01*
X132402142Y-151840952D01*
X132402142Y-151983809D01*
X132354523Y-152174285D01*
X132306904Y-152269523D01*
X132211666Y-152364761D01*
X132068809Y-152412380D01*
X131830714Y-152412380D01*
%TO.C,TP7*%
X123727380Y-67027380D02*
X124298809Y-67027380D01*
X124013095Y-68027380D02*
X124013095Y-67027380D01*
X124632142Y-68027380D02*
X124632142Y-67027380D01*
X125013095Y-67027380D01*
X125108333Y-67075000D01*
X125155952Y-67122619D01*
X125203571Y-67217857D01*
X125203571Y-67360714D01*
X125155952Y-67455952D01*
X125108333Y-67503571D01*
X125013095Y-67551190D01*
X124632142Y-67551190D01*
X125394047Y-68122619D02*
X126155952Y-68122619D01*
X126394047Y-68027380D02*
X126394047Y-67027380D01*
X126870238Y-68027380D02*
X126870238Y-67027380D01*
X127441666Y-68027380D01*
X127441666Y-67027380D01*
X127917857Y-68027380D02*
X127917857Y-67027380D01*
X128298809Y-67027380D01*
X128394047Y-67075000D01*
X128441666Y-67122619D01*
X128489285Y-67217857D01*
X128489285Y-67360714D01*
X128441666Y-67455952D01*
X128394047Y-67503571D01*
X128298809Y-67551190D01*
X127917857Y-67551190D01*
X128917857Y-67027380D02*
X128917857Y-67836904D01*
X128965476Y-67932142D01*
X129013095Y-67979761D01*
X129108333Y-68027380D01*
X129298809Y-68027380D01*
X129394047Y-67979761D01*
X129441666Y-67932142D01*
X129489285Y-67836904D01*
X129489285Y-67027380D01*
X129822619Y-67027380D02*
X130394047Y-67027380D01*
X130108333Y-68027380D02*
X130108333Y-67027380D01*
X130489285Y-68122619D02*
X131251190Y-68122619D01*
X131822619Y-67503571D02*
X131965476Y-67551190D01*
X132013095Y-67598809D01*
X132060714Y-67694047D01*
X132060714Y-67836904D01*
X132013095Y-67932142D01*
X131965476Y-67979761D01*
X131870238Y-68027380D01*
X131489285Y-68027380D01*
X131489285Y-67027380D01*
X131822619Y-67027380D01*
X131917857Y-67075000D01*
X131965476Y-67122619D01*
X132013095Y-67217857D01*
X132013095Y-67313095D01*
X131965476Y-67408333D01*
X131917857Y-67455952D01*
X131822619Y-67503571D01*
X131489285Y-67503571D01*
X132489285Y-67027380D02*
X132489285Y-67836904D01*
X132536904Y-67932142D01*
X132584523Y-67979761D01*
X132679761Y-68027380D01*
X132870238Y-68027380D01*
X132965476Y-67979761D01*
X133013095Y-67932142D01*
X133060714Y-67836904D01*
X133060714Y-67027380D01*
X133870238Y-67503571D02*
X133536904Y-67503571D01*
X133536904Y-68027380D02*
X133536904Y-67027380D01*
X134013095Y-67027380D01*
X134727380Y-67503571D02*
X134394047Y-67503571D01*
X134394047Y-68027380D02*
X134394047Y-67027380D01*
X134870238Y-67027380D01*
X135251190Y-67503571D02*
X135584523Y-67503571D01*
X135727380Y-68027380D02*
X135251190Y-68027380D01*
X135251190Y-67027380D01*
X135727380Y-67027380D01*
X136727380Y-68027380D02*
X136394047Y-67551190D01*
X136155952Y-68027380D02*
X136155952Y-67027380D01*
X136536904Y-67027380D01*
X136632142Y-67075000D01*
X136679761Y-67122619D01*
X136727380Y-67217857D01*
X136727380Y-67360714D01*
X136679761Y-67455952D01*
X136632142Y-67503571D01*
X136536904Y-67551190D01*
X136155952Y-67551190D01*
X129013095Y-64027380D02*
X129584523Y-64027380D01*
X129298809Y-65027380D02*
X129298809Y-64027380D01*
X129917857Y-65027380D02*
X129917857Y-64027380D01*
X130298809Y-64027380D01*
X130394047Y-64075000D01*
X130441666Y-64122619D01*
X130489285Y-64217857D01*
X130489285Y-64360714D01*
X130441666Y-64455952D01*
X130394047Y-64503571D01*
X130298809Y-64551190D01*
X129917857Y-64551190D01*
X130822619Y-64027380D02*
X131489285Y-64027380D01*
X131060714Y-65027380D01*
%TO.C,R12*%
X134928380Y-147232214D02*
X134928380Y-146613166D01*
X135309333Y-146946500D01*
X135309333Y-146803642D01*
X135356952Y-146708404D01*
X135404571Y-146660785D01*
X135499809Y-146613166D01*
X135737904Y-146613166D01*
X135833142Y-146660785D01*
X135880761Y-146708404D01*
X135928380Y-146803642D01*
X135928380Y-147089357D01*
X135880761Y-147184595D01*
X135833142Y-147232214D01*
X134928380Y-146279833D02*
X134928380Y-145660785D01*
X135309333Y-145994119D01*
X135309333Y-145851261D01*
X135356952Y-145756023D01*
X135404571Y-145708404D01*
X135499809Y-145660785D01*
X135737904Y-145660785D01*
X135833142Y-145708404D01*
X135880761Y-145756023D01*
X135928380Y-145851261D01*
X135928380Y-146136976D01*
X135880761Y-146232214D01*
X135833142Y-146279833D01*
X134928380Y-145041738D02*
X134928380Y-144946500D01*
X134976000Y-144851261D01*
X135023619Y-144803642D01*
X135118857Y-144756023D01*
X135309333Y-144708404D01*
X135547428Y-144708404D01*
X135737904Y-144756023D01*
X135833142Y-144803642D01*
X135880761Y-144851261D01*
X135928380Y-144946500D01*
X135928380Y-145041738D01*
X135880761Y-145136976D01*
X135833142Y-145184595D01*
X135737904Y-145232214D01*
X135547428Y-145279833D01*
X135309333Y-145279833D01*
X135118857Y-145232214D01*
X135023619Y-145184595D01*
X134976000Y-145136976D01*
X134928380Y-145041738D01*
D11*
X137086952Y-146203642D02*
X136896476Y-146336976D01*
X137086952Y-146432214D02*
X136686952Y-146432214D01*
X136686952Y-146279833D01*
X136706000Y-146241738D01*
X136725047Y-146222690D01*
X136763142Y-146203642D01*
X136820285Y-146203642D01*
X136858380Y-146222690D01*
X136877428Y-146241738D01*
X136896476Y-146279833D01*
X136896476Y-146432214D01*
X137086952Y-145822690D02*
X137086952Y-146051261D01*
X137086952Y-145936976D02*
X136686952Y-145936976D01*
X136744095Y-145975071D01*
X136782190Y-146013166D01*
X136801238Y-146051261D01*
X136725047Y-145670309D02*
X136706000Y-145651261D01*
X136686952Y-145613166D01*
X136686952Y-145517928D01*
X136706000Y-145479833D01*
X136725047Y-145460785D01*
X136763142Y-145441738D01*
X136801238Y-145441738D01*
X136858380Y-145460785D01*
X137086952Y-145689357D01*
X137086952Y-145441738D01*
D10*
%TO.C,R16*%
X126276380Y-130507928D02*
X126276380Y-131079357D01*
X126276380Y-130793642D02*
X125276380Y-130793642D01*
X125419238Y-130888880D01*
X125514476Y-130984119D01*
X125562095Y-131079357D01*
X125276380Y-129888880D02*
X125276380Y-129793642D01*
X125324000Y-129698404D01*
X125371619Y-129650785D01*
X125466857Y-129603166D01*
X125657333Y-129555547D01*
X125895428Y-129555547D01*
X126085904Y-129603166D01*
X126181142Y-129650785D01*
X126228761Y-129698404D01*
X126276380Y-129793642D01*
X126276380Y-129888880D01*
X126228761Y-129984119D01*
X126181142Y-130031738D01*
X126085904Y-130079357D01*
X125895428Y-130126976D01*
X125657333Y-130126976D01*
X125466857Y-130079357D01*
X125371619Y-130031738D01*
X125324000Y-129984119D01*
X125276380Y-129888880D01*
X125276380Y-128936500D02*
X125276380Y-128841261D01*
X125324000Y-128746023D01*
X125371619Y-128698404D01*
X125466857Y-128650785D01*
X125657333Y-128603166D01*
X125895428Y-128603166D01*
X126085904Y-128650785D01*
X126181142Y-128698404D01*
X126228761Y-128746023D01*
X126276380Y-128841261D01*
X126276380Y-128936500D01*
X126228761Y-129031738D01*
X126181142Y-129079357D01*
X126085904Y-129126976D01*
X125895428Y-129174595D01*
X125657333Y-129174595D01*
X125466857Y-129126976D01*
X125371619Y-129079357D01*
X125324000Y-129031738D01*
X125276380Y-128936500D01*
X126276380Y-128174595D02*
X125276380Y-128174595D01*
X125895428Y-128079357D02*
X126276380Y-127793642D01*
X125609714Y-127793642D02*
X125990666Y-128174595D01*
D11*
X127434952Y-129693642D02*
X127244476Y-129826976D01*
X127434952Y-129922214D02*
X127034952Y-129922214D01*
X127034952Y-129769833D01*
X127054000Y-129731738D01*
X127073047Y-129712690D01*
X127111142Y-129693642D01*
X127168285Y-129693642D01*
X127206380Y-129712690D01*
X127225428Y-129731738D01*
X127244476Y-129769833D01*
X127244476Y-129922214D01*
X127434952Y-129312690D02*
X127434952Y-129541261D01*
X127434952Y-129426976D02*
X127034952Y-129426976D01*
X127092095Y-129465071D01*
X127130190Y-129503166D01*
X127149238Y-129541261D01*
X127034952Y-128969833D02*
X127034952Y-129046023D01*
X127054000Y-129084119D01*
X127073047Y-129103166D01*
X127130190Y-129141261D01*
X127206380Y-129160309D01*
X127358761Y-129160309D01*
X127396857Y-129141261D01*
X127415904Y-129122214D01*
X127434952Y-129084119D01*
X127434952Y-129007928D01*
X127415904Y-128969833D01*
X127396857Y-128950785D01*
X127358761Y-128931738D01*
X127263523Y-128931738D01*
X127225428Y-128950785D01*
X127206380Y-128969833D01*
X127187333Y-129007928D01*
X127187333Y-129084119D01*
X127206380Y-129122214D01*
X127225428Y-129141261D01*
X127263523Y-129160309D01*
D10*
%TO.C,AUDIO_IN1*%
X126357142Y-161328666D02*
X126833333Y-161328666D01*
X126261904Y-161614380D02*
X126595238Y-160614380D01*
X126928571Y-161614380D01*
X127261904Y-160614380D02*
X127261904Y-161423904D01*
X127309523Y-161519142D01*
X127357142Y-161566761D01*
X127452380Y-161614380D01*
X127642857Y-161614380D01*
X127738095Y-161566761D01*
X127785714Y-161519142D01*
X127833333Y-161423904D01*
X127833333Y-160614380D01*
X128309523Y-161614380D02*
X128309523Y-160614380D01*
X128547619Y-160614380D01*
X128690476Y-160662000D01*
X128785714Y-160757238D01*
X128833333Y-160852476D01*
X128880952Y-161042952D01*
X128880952Y-161185809D01*
X128833333Y-161376285D01*
X128785714Y-161471523D01*
X128690476Y-161566761D01*
X128547619Y-161614380D01*
X128309523Y-161614380D01*
X129309523Y-161614380D02*
X129309523Y-160614380D01*
X129976190Y-160614380D02*
X130166666Y-160614380D01*
X130261904Y-160662000D01*
X130357142Y-160757238D01*
X130404761Y-160947714D01*
X130404761Y-161281047D01*
X130357142Y-161471523D01*
X130261904Y-161566761D01*
X130166666Y-161614380D01*
X129976190Y-161614380D01*
X129880952Y-161566761D01*
X129785714Y-161471523D01*
X129738095Y-161281047D01*
X129738095Y-160947714D01*
X129785714Y-160757238D01*
X129880952Y-160662000D01*
X129976190Y-160614380D01*
X130595238Y-161709619D02*
X131357142Y-161709619D01*
X131595238Y-161614380D02*
X131595238Y-160614380D01*
X132071428Y-161614380D02*
X132071428Y-160614380D01*
X132642857Y-161614380D01*
X132642857Y-160614380D01*
X133642857Y-161614380D02*
X133071428Y-161614380D01*
X133357142Y-161614380D02*
X133357142Y-160614380D01*
X133261904Y-160757238D01*
X133166666Y-160852476D01*
X133071428Y-160900095D01*
D14*
%TO.C,C13*%
X133404000Y-125556500D02*
X134204000Y-125556500D01*
X133404000Y-127156500D02*
X133404000Y-125556500D01*
X134204000Y-127156500D02*
X133404000Y-127156500D01*
X134204000Y-125556500D02*
X134204000Y-127156500D01*
%TO.C,C5*%
X141000000Y-133636000D02*
X139000000Y-133636000D01*
X139000000Y-133636000D02*
X139000000Y-132386000D01*
X141000000Y-132386000D02*
X141000000Y-133636000D01*
X139000000Y-132386000D02*
X141000000Y-132386000D01*
%TO.C,FEEDBACK_POT1*%
X139750000Y-89195000D02*
X130250000Y-89195000D01*
X139750000Y-100545000D02*
X130250000Y-100545000D01*
X130250000Y-100545000D02*
X130250000Y-89195000D01*
X139750000Y-100545000D02*
X139750000Y-89195000D01*
X138500000Y-94045000D02*
G75*
G03*
X138500000Y-94045000I-3500000J0D01*
G01*
%TO.C,U2*%
X132592000Y-148144000D02*
X135632000Y-148144000D01*
X135632000Y-149544000D02*
X135632000Y-148144000D01*
X132592000Y-148994000D02*
X132592000Y-148144000D01*
X133162000Y-149544000D02*
X132592000Y-148994000D01*
X133162000Y-149544000D02*
X135612000Y-149544000D01*
%TO.C,R17*%
X132044000Y-129934000D02*
X132044000Y-130759000D01*
X132044000Y-130759000D02*
X130444000Y-130759000D01*
X130444000Y-130759000D02*
X130444000Y-129934000D01*
X130444000Y-129934000D02*
X132044000Y-129934000D01*
%TO.C,C6*%
X141087500Y-149136000D02*
X139087500Y-149136000D01*
X141087500Y-147886000D02*
X141087500Y-149136000D01*
X139087500Y-147886000D02*
X141087500Y-147886000D01*
X139087500Y-149136000D02*
X139087500Y-147886000D01*
D15*
%TO.C,TP3*%
X142000000Y-129500000D02*
X141600000Y-129500000D01*
X141600000Y-129500000D02*
X141600000Y-127700000D01*
X142000000Y-127700000D02*
X142000000Y-129500000D01*
X141600000Y-127700000D02*
X142000000Y-127700000D01*
X143100000Y-128600000D02*
G75*
G03*
X143100000Y-128600000I-1300000J0D01*
G01*
D14*
%TO.C,R14*%
X128361500Y-128646500D02*
X129186500Y-128646500D01*
X128361500Y-130246500D02*
X128361500Y-128646500D01*
X129186500Y-130246500D02*
X128361500Y-130246500D01*
X129186500Y-128646500D02*
X129186500Y-130246500D01*
%TO.C,CV1_IN1*%
X134470000Y-145520000D02*
X134470000Y-135120000D01*
X129970000Y-133040000D02*
X129970000Y-135070000D01*
X134470000Y-145520000D02*
X125470000Y-145520000D01*
X134470000Y-135070000D02*
X125470000Y-135070000D01*
X125470000Y-145520000D02*
X125470000Y-135120000D01*
X131770000Y-139520000D02*
G75*
G03*
X131770000Y-139520000I-1800000J0D01*
G01*
%TO.C,U3*%
X129844000Y-126756500D02*
X129844000Y-125156500D01*
X129844000Y-125156500D02*
X132344000Y-125156500D01*
X132744000Y-125556500D02*
X132744000Y-126756500D01*
X132744000Y-126756500D02*
X129844000Y-126756500D01*
X132344000Y-125156500D02*
X132744000Y-125556500D01*
%TO.C,C14*%
X130454000Y-128416500D02*
X132054000Y-128416500D01*
X132054000Y-128416500D02*
X132054000Y-129216500D01*
X132054000Y-129216500D02*
X130454000Y-129216500D01*
X130454000Y-129216500D02*
X130454000Y-128416500D01*
%TO.C,AUDIO_OUT1*%
X135500000Y-165642000D02*
X135500000Y-155242000D01*
X144500000Y-155192000D02*
X135500000Y-155192000D01*
X144500000Y-165642000D02*
X144500000Y-155242000D01*
X140000000Y-153162000D02*
X140000000Y-155192000D01*
X144500000Y-165642000D02*
X135500000Y-165642000D01*
X141800000Y-159642000D02*
G75*
G03*
X141800000Y-159642000I-1800000J0D01*
G01*
%TO.C,R11*%
X143922500Y-143472000D02*
X143922500Y-145072000D01*
X143097500Y-145072000D02*
X143097500Y-143472000D01*
X143922500Y-145072000D02*
X143097500Y-145072000D01*
X143097500Y-143472000D02*
X143922500Y-143472000D01*
%TO.C,C9*%
X137306000Y-148552000D02*
X137306000Y-150152000D01*
X136506000Y-150152000D02*
X136506000Y-148552000D01*
X137306000Y-150152000D02*
X136506000Y-150152000D01*
X136506000Y-148552000D02*
X137306000Y-148552000D01*
%TO.C,MOD_POT1*%
X130310000Y-120555000D02*
X130310000Y-109205000D01*
X139810000Y-120555000D02*
X130310000Y-120555000D01*
X139810000Y-109205000D02*
X130310000Y-109205000D01*
X139810000Y-120555000D02*
X139810000Y-109205000D01*
X138560000Y-114055000D02*
G75*
G03*
X138560000Y-114055000I-3500000J0D01*
G01*
%TO.C,LEVEL_POT1*%
X139770000Y-80555000D02*
X130270000Y-80555000D01*
X130270000Y-80555000D02*
X130270000Y-69205000D01*
X139770000Y-80555000D02*
X139770000Y-69205000D01*
X139770000Y-69205000D02*
X130270000Y-69205000D01*
X138520000Y-74055000D02*
G75*
G03*
X138520000Y-74055000I-3500000J0D01*
G01*
%TO.C,D1*%
X127545000Y-147833810D02*
X127545000Y-150166190D01*
X127544445Y-150165476D02*
G75*
G03*
X127545000Y-147833810I1500555J1165476D01*
G01*
X130545000Y-149000000D02*
G75*
G03*
X130545000Y-149000000I-1500000J0D01*
G01*
%TO.C,R12*%
X137318500Y-145146500D02*
X137318500Y-146746500D01*
X136493500Y-146746500D02*
X136493500Y-145146500D01*
X137318500Y-146746500D02*
X136493500Y-146746500D01*
X136493500Y-145146500D02*
X137318500Y-145146500D01*
%TO.C,R16*%
X126841500Y-130236500D02*
X126841500Y-128636500D01*
X127666500Y-130236500D02*
X126841500Y-130236500D01*
X126841500Y-128636500D02*
X127666500Y-128636500D01*
X127666500Y-128636500D02*
X127666500Y-130236500D01*
%TO.C,AUDIO_IN1*%
X134500000Y-165642000D02*
X134500000Y-155242000D01*
X125500000Y-165642000D02*
X125500000Y-155242000D01*
X134500000Y-165642000D02*
X125500000Y-165642000D01*
X130000000Y-153162000D02*
X130000000Y-155192000D01*
X134500000Y-155192000D02*
X125500000Y-155192000D01*
X131800000Y-159642000D02*
G75*
G03*
X131800000Y-159642000I-1800000J0D01*
G01*
%TD*%
M02*
