%TF.GenerationSoftware,KiCad,Pcbnew,6.0.10+dfsg-1~bpo11+1*%
%TF.CreationDate,2023-02-01T15:11:05+08:00*%
%TF.ProjectId,MiniVerb v2.0 - Main,4d696e69-5665-4726-9220-76322e30202d,rev?*%
%TF.SameCoordinates,Original*%
%TF.FileFunction,Soldermask,Bot*%
%TF.FilePolarity,Negative*%
%FSLAX46Y46*%
G04 Gerber Fmt 4.6, Leading zero omitted, Abs format (unit mm)*
G04 Created by KiCad (PCBNEW 6.0.10+dfsg-1~bpo11+1) date 2023-02-01 15:11:05*
%MOMM*%
%LPD*%
G01*
G04 APERTURE LIST*
G04 Aperture macros list*
%AMRoundRect*
0 Rectangle with rounded corners*
0 $1 Rounding radius*
0 $2 $3 $4 $5 $6 $7 $8 $9 X,Y pos of 4 corners*
0 Add a 4 corners polygon primitive as box body*
4,1,4,$2,$3,$4,$5,$6,$7,$8,$9,$2,$3,0*
0 Add four circle primitives for the rounded corners*
1,1,$1+$1,$2,$3*
1,1,$1+$1,$4,$5*
1,1,$1+$1,$6,$7*
1,1,$1+$1,$8,$9*
0 Add four rect primitives between the rounded corners*
20,1,$1+$1,$2,$3,$4,$5,0*
20,1,$1+$1,$4,$5,$6,$7,0*
20,1,$1+$1,$6,$7,$8,$9,0*
20,1,$1+$1,$8,$9,$2,$3,0*%
G04 Aperture macros list end*
%ADD10O,2.720000X3.240000*%
%ADD11R,1.800000X1.800000*%
%ADD12C,1.800000*%
%ADD13R,1.000000X1.000000*%
%ADD14C,2.000000*%
%ADD15R,1.930000X1.830000*%
%ADD16C,2.130000*%
%ADD17RoundRect,0.237500X0.237500X-0.250000X0.237500X0.250000X-0.237500X0.250000X-0.237500X-0.250000X0*%
%ADD18RoundRect,0.237500X-0.300000X-0.237500X0.300000X-0.237500X0.300000X0.237500X-0.300000X0.237500X0*%
%ADD19RoundRect,0.237500X0.237500X-0.300000X0.237500X0.300000X-0.237500X0.300000X-0.237500X-0.300000X0*%
%ADD20RoundRect,0.237500X0.300000X0.237500X-0.300000X0.237500X-0.300000X-0.237500X0.300000X-0.237500X0*%
%ADD21RoundRect,0.237500X0.250000X0.237500X-0.250000X0.237500X-0.250000X-0.237500X0.250000X-0.237500X0*%
%ADD22RoundRect,0.150000X-0.150000X0.825000X-0.150000X-0.825000X0.150000X-0.825000X0.150000X0.825000X0*%
%ADD23RoundRect,0.237500X-0.250000X-0.237500X0.250000X-0.237500X0.250000X0.237500X-0.250000X0.237500X0*%
%ADD24RoundRect,0.250000X-0.600000X-0.600000X0.600000X-0.600000X0.600000X0.600000X-0.600000X0.600000X0*%
%ADD25C,1.700000*%
%ADD26R,1.700000X1.700000*%
%ADD27RoundRect,0.237500X-0.237500X0.250000X-0.237500X-0.250000X0.237500X-0.250000X0.237500X0.250000X0*%
G04 APERTURE END LIST*
D10*
%TO.C,FEEDBACK_POT1*%
X130200000Y-94045000D03*
X139800000Y-94045000D03*
D11*
X132500000Y-101545000D03*
D12*
X135000000Y-101545000D03*
X137500000Y-101545000D03*
%TD*%
D13*
%TO.C,TP5*%
X140225000Y-65975000D03*
%TD*%
D14*
%TO.C,TP3*%
X141800000Y-128600000D03*
%TD*%
D15*
%TO.C,CV1_IN1*%
X129970000Y-133040000D03*
D16*
X129970000Y-144440000D03*
X129970000Y-136140000D03*
%TD*%
D15*
%TO.C,AUDIO_OUT1*%
X140000000Y-153162000D03*
D16*
X140000000Y-164562000D03*
X140000000Y-156262000D03*
%TD*%
D10*
%TO.C,MOD_POT1*%
X130260000Y-114055000D03*
X139860000Y-114055000D03*
D11*
X132560000Y-121555000D03*
D12*
X135060000Y-121555000D03*
X137560000Y-121555000D03*
%TD*%
D10*
%TO.C,LEVEL_POT1*%
X130220000Y-74055000D03*
X139820000Y-74055000D03*
D11*
X132520000Y-81555000D03*
D12*
X135020000Y-81555000D03*
X137520000Y-81555000D03*
%TD*%
D11*
%TO.C,D1*%
X127775000Y-149000000D03*
D12*
X130315000Y-149000000D03*
%TD*%
D13*
%TO.C,TP7*%
X130275000Y-66025000D03*
%TD*%
D15*
%TO.C,AUDIO_IN1*%
X130000000Y-153162000D03*
D16*
X130000000Y-164562000D03*
X130000000Y-156262000D03*
%TD*%
D17*
%TO.C,R9*%
X134000000Y-131912500D03*
X134000000Y-130087500D03*
%TD*%
D18*
%TO.C,C7*%
X134857500Y-103500000D03*
X136582500Y-103500000D03*
%TD*%
D19*
%TO.C,C8*%
X133600000Y-114362500D03*
X133600000Y-112637500D03*
%TD*%
D13*
%TO.C,TP4*%
X142600000Y-121800000D03*
%TD*%
D20*
%TO.C,C2*%
X134150000Y-127000000D03*
X132425000Y-127000000D03*
%TD*%
D21*
%TO.C,R1*%
X135112500Y-93218000D03*
X133287500Y-93218000D03*
%TD*%
D13*
%TO.C,TP1*%
X142600000Y-116700000D03*
%TD*%
D22*
%TO.C,U1*%
X131064000Y-105515000D03*
X132334000Y-105515000D03*
X133604000Y-105515000D03*
X134874000Y-105515000D03*
X136144000Y-105515000D03*
X137414000Y-105515000D03*
X138684000Y-105515000D03*
X138684000Y-110465000D03*
X137414000Y-110465000D03*
X136144000Y-110465000D03*
X134874000Y-110465000D03*
X133604000Y-110465000D03*
X132334000Y-110465000D03*
X131064000Y-110465000D03*
%TD*%
D13*
%TO.C,TP2*%
X142600000Y-119200000D03*
%TD*%
D23*
%TO.C,R3*%
X132317500Y-97805000D03*
X134142500Y-97805000D03*
%TD*%
D24*
%TO.C,J1*%
X138747500Y-146011000D03*
D25*
X141287500Y-146011000D03*
X138747500Y-143471000D03*
X141287500Y-143471000D03*
X138747500Y-140931000D03*
X141287500Y-140931000D03*
X138747500Y-138391000D03*
X141287500Y-138391000D03*
X138747500Y-135851000D03*
X141287500Y-135851000D03*
%TD*%
D18*
%TO.C,C3*%
X129037500Y-127000000D03*
X130762500Y-127000000D03*
%TD*%
D21*
%TO.C,R8*%
X137522500Y-97800000D03*
X135697500Y-97800000D03*
%TD*%
D26*
%TO.C,A1*%
X127560933Y-113050000D03*
D25*
X127560933Y-110510000D03*
X127560933Y-107970000D03*
X127560933Y-105430000D03*
X127560933Y-102890000D03*
X127560933Y-100350000D03*
X127560933Y-97810000D03*
X127560933Y-95270000D03*
X127560933Y-92730000D03*
X127560933Y-90190000D03*
X127560933Y-87650000D03*
X127560933Y-85110000D03*
X127560933Y-82570000D03*
X127560933Y-80030000D03*
X127560933Y-77490000D03*
X127560933Y-74950000D03*
X127560933Y-72410000D03*
X127560933Y-69870000D03*
X127560933Y-67330000D03*
X127560933Y-64790000D03*
X142800933Y-64790000D03*
X142800933Y-67330000D03*
X142800933Y-69870000D03*
X142800933Y-72410000D03*
X142800933Y-74950000D03*
X142800933Y-77490000D03*
X142800933Y-80030000D03*
X142800933Y-82570000D03*
X142800933Y-85110000D03*
X142800933Y-87650000D03*
X142800933Y-90190000D03*
X142800933Y-92730000D03*
X142800933Y-95270000D03*
X142800933Y-97810000D03*
X142800933Y-100350000D03*
X142800933Y-102890000D03*
X142800933Y-105430000D03*
X142800933Y-107970000D03*
X142800933Y-110510000D03*
X142800933Y-113050000D03*
%TD*%
D21*
%TO.C,R6*%
X135102500Y-94750000D03*
X133277500Y-94750000D03*
%TD*%
D27*
%TO.C,R2*%
X132400000Y-130087500D03*
X132400000Y-131912500D03*
%TD*%
D21*
%TO.C,R4*%
X134200000Y-125500000D03*
X132375000Y-125500000D03*
%TD*%
D18*
%TO.C,C1*%
X132367500Y-96280000D03*
X134092500Y-96280000D03*
%TD*%
D23*
%TO.C,R7*%
X128987500Y-125500000D03*
X130812500Y-125500000D03*
%TD*%
D20*
%TO.C,C4*%
X137462500Y-96270000D03*
X135737500Y-96270000D03*
%TD*%
D23*
%TO.C,R10*%
X128990000Y-128508000D03*
X130815000Y-128508000D03*
%TD*%
%TO.C,R5*%
X132375000Y-128500000D03*
X134200000Y-128500000D03*
%TD*%
M02*
