%TF.GenerationSoftware,KiCad,Pcbnew,6.0.10+dfsg-1~bpo11+1*%
%TF.CreationDate,2023-02-01T15:11:05+08:00*%
%TF.ProjectId,MiniVerb v2.0 - Main,4d696e69-5665-4726-9220-76322e30202d,rev?*%
%TF.SameCoordinates,Original*%
%TF.FileFunction,Legend,Bot*%
%TF.FilePolarity,Positive*%
%FSLAX46Y46*%
G04 Gerber Fmt 4.6, Leading zero omitted, Abs format (unit mm)*
G04 Created by KiCad (PCBNEW 6.0.10+dfsg-1~bpo11+1) date 2023-02-01 15:11:05*
%MOMM*%
%LPD*%
G01*
G04 APERTURE LIST*
%ADD10C,0.250000*%
%ADD11C,0.300000*%
%ADD12C,0.150000*%
%ADD13C,0.120000*%
G04 APERTURE END LIST*
D10*
X131867142Y-161745714D02*
X133067142Y-161745714D01*
X132610000Y-161745714D02*
X132667142Y-161631428D01*
X132667142Y-161402857D01*
X132610000Y-161288571D01*
X132552857Y-161231428D01*
X132438571Y-161174285D01*
X132095714Y-161174285D01*
X131981428Y-161231428D01*
X131924285Y-161288571D01*
X131867142Y-161402857D01*
X131867142Y-161631428D01*
X131924285Y-161745714D01*
X132667142Y-160774285D02*
X131867142Y-160488571D01*
X132667142Y-160202857D02*
X131867142Y-160488571D01*
X131581428Y-160602857D01*
X131524285Y-160660000D01*
X131467142Y-160774285D01*
X131867142Y-158831428D02*
X133067142Y-158831428D01*
X132610000Y-158831428D02*
X132667142Y-158717142D01*
X132667142Y-158488571D01*
X132610000Y-158374285D01*
X132552857Y-158317142D01*
X132438571Y-158260000D01*
X132095714Y-158260000D01*
X131981428Y-158317142D01*
X131924285Y-158374285D01*
X131867142Y-158488571D01*
X131867142Y-158717142D01*
X131924285Y-158831428D01*
X131924285Y-157288571D02*
X131867142Y-157402857D01*
X131867142Y-157631428D01*
X131924285Y-157745714D01*
X132038571Y-157802857D01*
X132495714Y-157802857D01*
X132610000Y-157745714D01*
X132667142Y-157631428D01*
X132667142Y-157402857D01*
X132610000Y-157288571D01*
X132495714Y-157231428D01*
X132381428Y-157231428D01*
X132267142Y-157802857D01*
X132667142Y-156717142D02*
X131867142Y-156717142D01*
X132552857Y-156717142D02*
X132610000Y-156660000D01*
X132667142Y-156545714D01*
X132667142Y-156374285D01*
X132610000Y-156260000D01*
X132495714Y-156202857D01*
X131867142Y-156202857D01*
X132667142Y-155631428D02*
X131638571Y-155631428D01*
X131524285Y-155688571D01*
X131467142Y-155802857D01*
X131467142Y-155860000D01*
X133067142Y-155631428D02*
X133010000Y-155688571D01*
X132952857Y-155631428D01*
X133010000Y-155574285D01*
X133067142Y-155631428D01*
X132952857Y-155631428D01*
X131867142Y-155060000D02*
X132667142Y-155060000D01*
X133067142Y-155060000D02*
X133010000Y-155117142D01*
X132952857Y-155060000D01*
X133010000Y-155002857D01*
X133067142Y-155060000D01*
X132952857Y-155060000D01*
X131867142Y-153974285D02*
X132495714Y-153974285D01*
X132610000Y-154031428D01*
X132667142Y-154145714D01*
X132667142Y-154374285D01*
X132610000Y-154488571D01*
X131924285Y-153974285D02*
X131867142Y-154088571D01*
X131867142Y-154374285D01*
X131924285Y-154488571D01*
X132038571Y-154545714D01*
X132152857Y-154545714D01*
X132267142Y-154488571D01*
X132324285Y-154374285D01*
X132324285Y-154088571D01*
X132381428Y-153974285D01*
X131867142Y-153231428D02*
X131924285Y-153345714D01*
X131981428Y-153402857D01*
X132095714Y-153460000D01*
X132438571Y-153460000D01*
X132552857Y-153402857D01*
X132610000Y-153345714D01*
X132667142Y-153231428D01*
X132667142Y-153060000D01*
X132610000Y-152945714D01*
X132552857Y-152888571D01*
X132438571Y-152831428D01*
X132095714Y-152831428D01*
X131981428Y-152888571D01*
X131924285Y-152945714D01*
X131867142Y-153060000D01*
X131867142Y-153231428D01*
X131867142Y-152317142D02*
X132667142Y-152317142D01*
X132552857Y-152317142D02*
X132610000Y-152260000D01*
X132667142Y-152145714D01*
X132667142Y-151974285D01*
X132610000Y-151860000D01*
X132495714Y-151802857D01*
X131867142Y-151802857D01*
X132495714Y-151802857D02*
X132610000Y-151745714D01*
X132667142Y-151631428D01*
X132667142Y-151460000D01*
X132610000Y-151345714D01*
X132495714Y-151288571D01*
X131867142Y-151288571D01*
X131867142Y-150545714D02*
X131924285Y-150660000D01*
X131981428Y-150717142D01*
X132095714Y-150774285D01*
X132438571Y-150774285D01*
X132552857Y-150717142D01*
X132610000Y-150660000D01*
X132667142Y-150545714D01*
X132667142Y-150374285D01*
X132610000Y-150260000D01*
X132552857Y-150202857D01*
X132438571Y-150145714D01*
X132095714Y-150145714D01*
X131981428Y-150202857D01*
X131924285Y-150260000D01*
X131867142Y-150374285D01*
X131867142Y-150545714D01*
X131867142Y-149117142D02*
X133067142Y-149117142D01*
X131924285Y-149117142D02*
X131867142Y-149231428D01*
X131867142Y-149460000D01*
X131924285Y-149574285D01*
X131981428Y-149631428D01*
X132095714Y-149688571D01*
X132438571Y-149688571D01*
X132552857Y-149631428D01*
X132610000Y-149574285D01*
X132667142Y-149460000D01*
X132667142Y-149231428D01*
X132610000Y-149117142D01*
X132667142Y-148031428D02*
X131867142Y-148031428D01*
X132667142Y-148545714D02*
X132038571Y-148545714D01*
X131924285Y-148488571D01*
X131867142Y-148374285D01*
X131867142Y-148202857D01*
X131924285Y-148088571D01*
X131981428Y-148031428D01*
X131867142Y-147288571D02*
X131924285Y-147402857D01*
X132038571Y-147460000D01*
X133067142Y-147460000D01*
X131867142Y-146317142D02*
X132495714Y-146317142D01*
X132610000Y-146374285D01*
X132667142Y-146488571D01*
X132667142Y-146717142D01*
X132610000Y-146831428D01*
X131924285Y-146317142D02*
X131867142Y-146431428D01*
X131867142Y-146717142D01*
X131924285Y-146831428D01*
X132038571Y-146888571D01*
X132152857Y-146888571D01*
X132267142Y-146831428D01*
X132324285Y-146717142D01*
X132324285Y-146431428D01*
X132381428Y-146317142D01*
X131867142Y-145745714D02*
X132667142Y-145745714D01*
X132438571Y-145745714D02*
X132552857Y-145688571D01*
X132610000Y-145631428D01*
X132667142Y-145517142D01*
X132667142Y-145402857D01*
D11*
X133481428Y-161735000D02*
X134981428Y-161735000D01*
X133910000Y-161235000D01*
X134981428Y-160735000D01*
X133481428Y-160735000D01*
X133481428Y-160020714D02*
X134481428Y-160020714D01*
X134981428Y-160020714D02*
X134910000Y-160092142D01*
X134838571Y-160020714D01*
X134910000Y-159949285D01*
X134981428Y-160020714D01*
X134838571Y-160020714D01*
X134481428Y-159306428D02*
X133481428Y-159306428D01*
X134338571Y-159306428D02*
X134410000Y-159235000D01*
X134481428Y-159092142D01*
X134481428Y-158877857D01*
X134410000Y-158735000D01*
X134267142Y-158663571D01*
X133481428Y-158663571D01*
X133481428Y-157949285D02*
X134481428Y-157949285D01*
X134981428Y-157949285D02*
X134910000Y-158020714D01*
X134838571Y-157949285D01*
X134910000Y-157877857D01*
X134981428Y-157949285D01*
X134838571Y-157949285D01*
X134981428Y-157449285D02*
X133481428Y-156949285D01*
X134981428Y-156449285D01*
X133552857Y-155377857D02*
X133481428Y-155520714D01*
X133481428Y-155806428D01*
X133552857Y-155949285D01*
X133695714Y-156020714D01*
X134267142Y-156020714D01*
X134410000Y-155949285D01*
X134481428Y-155806428D01*
X134481428Y-155520714D01*
X134410000Y-155377857D01*
X134267142Y-155306428D01*
X134124285Y-155306428D01*
X133981428Y-156020714D01*
X133481428Y-154663571D02*
X134481428Y-154663571D01*
X134195714Y-154663571D02*
X134338571Y-154592142D01*
X134410000Y-154520714D01*
X134481428Y-154377857D01*
X134481428Y-154235000D01*
X133481428Y-153735000D02*
X134981428Y-153735000D01*
X134410000Y-153735000D02*
X134481428Y-153592142D01*
X134481428Y-153306428D01*
X134410000Y-153163571D01*
X134338571Y-153092142D01*
X134195714Y-153020714D01*
X133767142Y-153020714D01*
X133624285Y-153092142D01*
X133552857Y-153163571D01*
X133481428Y-153306428D01*
X133481428Y-153592142D01*
X133552857Y-153735000D01*
X134481428Y-151377857D02*
X133481428Y-151020714D01*
X134481428Y-150663571D01*
X134838571Y-150163571D02*
X134910000Y-150092142D01*
X134981428Y-149949285D01*
X134981428Y-149592142D01*
X134910000Y-149449285D01*
X134838571Y-149377857D01*
X134695714Y-149306428D01*
X134552857Y-149306428D01*
X134338571Y-149377857D01*
X133481428Y-150235000D01*
X133481428Y-149306428D01*
X133624285Y-148663571D02*
X133552857Y-148592142D01*
X133481428Y-148663571D01*
X133552857Y-148735000D01*
X133624285Y-148663571D01*
X133481428Y-148663571D01*
X134981428Y-147663571D02*
X134981428Y-147520714D01*
X134910000Y-147377857D01*
X134838571Y-147306428D01*
X134695714Y-147235000D01*
X134410000Y-147163571D01*
X134052857Y-147163571D01*
X133767142Y-147235000D01*
X133624285Y-147306428D01*
X133552857Y-147377857D01*
X133481428Y-147520714D01*
X133481428Y-147663571D01*
X133552857Y-147806428D01*
X133624285Y-147877857D01*
X133767142Y-147949285D01*
X134052857Y-148020714D01*
X134410000Y-148020714D01*
X134695714Y-147949285D01*
X134838571Y-147877857D01*
X134910000Y-147806428D01*
X134981428Y-147663571D01*
D12*
%TO.C,R9*%
X134452380Y-133433333D02*
X133976190Y-133100000D01*
X134452380Y-132861904D02*
X133452380Y-132861904D01*
X133452380Y-133242857D01*
X133500000Y-133338095D01*
X133547619Y-133385714D01*
X133642857Y-133433333D01*
X133785714Y-133433333D01*
X133880952Y-133385714D01*
X133928571Y-133338095D01*
X133976190Y-133242857D01*
X133976190Y-132861904D01*
X134452380Y-133909523D02*
X134452380Y-134100000D01*
X134404761Y-134195238D01*
X134357142Y-134242857D01*
X134214285Y-134338095D01*
X134023809Y-134385714D01*
X133642857Y-134385714D01*
X133547619Y-134338095D01*
X133500000Y-134290476D01*
X133452380Y-134195238D01*
X133452380Y-134004761D01*
X133500000Y-133909523D01*
X133547619Y-133861904D01*
X133642857Y-133814285D01*
X133880952Y-133814285D01*
X133976190Y-133861904D01*
X134023809Y-133909523D01*
X134071428Y-134004761D01*
X134071428Y-134195238D01*
X134023809Y-134290476D01*
X133976190Y-134338095D01*
X133880952Y-134385714D01*
%TO.C,C7*%
X133316666Y-103857142D02*
X133364285Y-103904761D01*
X133507142Y-103952380D01*
X133602380Y-103952380D01*
X133745238Y-103904761D01*
X133840476Y-103809523D01*
X133888095Y-103714285D01*
X133935714Y-103523809D01*
X133935714Y-103380952D01*
X133888095Y-103190476D01*
X133840476Y-103095238D01*
X133745238Y-103000000D01*
X133602380Y-102952380D01*
X133507142Y-102952380D01*
X133364285Y-103000000D01*
X133316666Y-103047619D01*
X132983333Y-102952380D02*
X132316666Y-102952380D01*
X132745238Y-103952380D01*
%TO.C,C8*%
X132557142Y-113333333D02*
X132604761Y-113285714D01*
X132652380Y-113142857D01*
X132652380Y-113047619D01*
X132604761Y-112904761D01*
X132509523Y-112809523D01*
X132414285Y-112761904D01*
X132223809Y-112714285D01*
X132080952Y-112714285D01*
X131890476Y-112761904D01*
X131795238Y-112809523D01*
X131700000Y-112904761D01*
X131652380Y-113047619D01*
X131652380Y-113142857D01*
X131700000Y-113285714D01*
X131747619Y-113333333D01*
X132080952Y-113904761D02*
X132033333Y-113809523D01*
X131985714Y-113761904D01*
X131890476Y-113714285D01*
X131842857Y-113714285D01*
X131747619Y-113761904D01*
X131700000Y-113809523D01*
X131652380Y-113904761D01*
X131652380Y-114095238D01*
X131700000Y-114190476D01*
X131747619Y-114238095D01*
X131842857Y-114285714D01*
X131890476Y-114285714D01*
X131985714Y-114238095D01*
X132033333Y-114190476D01*
X132080952Y-114095238D01*
X132080952Y-113904761D01*
X132128571Y-113809523D01*
X132176190Y-113761904D01*
X132271428Y-113714285D01*
X132461904Y-113714285D01*
X132557142Y-113761904D01*
X132604761Y-113809523D01*
X132652380Y-113904761D01*
X132652380Y-114095238D01*
X132604761Y-114190476D01*
X132557142Y-114238095D01*
X132461904Y-114285714D01*
X132271428Y-114285714D01*
X132176190Y-114238095D01*
X132128571Y-114190476D01*
X132080952Y-114095238D01*
%TO.C,TP4*%
X143500380Y-120538095D02*
X143500380Y-121109523D01*
X144500380Y-120823809D02*
X143500380Y-120823809D01*
X144500380Y-121442857D02*
X143500380Y-121442857D01*
X143500380Y-121823809D01*
X143548000Y-121919047D01*
X143595619Y-121966666D01*
X143690857Y-122014285D01*
X143833714Y-122014285D01*
X143928952Y-121966666D01*
X143976571Y-121919047D01*
X144024190Y-121823809D01*
X144024190Y-121442857D01*
X143833714Y-122871428D02*
X144500380Y-122871428D01*
X143452761Y-122633333D02*
X144167047Y-122395238D01*
X144167047Y-123014285D01*
%TO.C,C2*%
X135954166Y-127257142D02*
X136001785Y-127304761D01*
X136144642Y-127352380D01*
X136239880Y-127352380D01*
X136382738Y-127304761D01*
X136477976Y-127209523D01*
X136525595Y-127114285D01*
X136573214Y-126923809D01*
X136573214Y-126780952D01*
X136525595Y-126590476D01*
X136477976Y-126495238D01*
X136382738Y-126400000D01*
X136239880Y-126352380D01*
X136144642Y-126352380D01*
X136001785Y-126400000D01*
X135954166Y-126447619D01*
X135573214Y-126447619D02*
X135525595Y-126400000D01*
X135430357Y-126352380D01*
X135192261Y-126352380D01*
X135097023Y-126400000D01*
X135049404Y-126447619D01*
X135001785Y-126542857D01*
X135001785Y-126638095D01*
X135049404Y-126780952D01*
X135620833Y-127352380D01*
X135001785Y-127352380D01*
%TO.C,R1*%
X136946666Y-93660380D02*
X137280000Y-93184190D01*
X137518095Y-93660380D02*
X137518095Y-92660380D01*
X137137142Y-92660380D01*
X137041904Y-92708000D01*
X136994285Y-92755619D01*
X136946666Y-92850857D01*
X136946666Y-92993714D01*
X136994285Y-93088952D01*
X137041904Y-93136571D01*
X137137142Y-93184190D01*
X137518095Y-93184190D01*
X135994285Y-93660380D02*
X136565714Y-93660380D01*
X136280000Y-93660380D02*
X136280000Y-92660380D01*
X136375238Y-92803238D01*
X136470476Y-92898476D01*
X136565714Y-92946095D01*
%TO.C,TP1*%
X143500380Y-115438095D02*
X143500380Y-116009523D01*
X144500380Y-115723809D02*
X143500380Y-115723809D01*
X144500380Y-116342857D02*
X143500380Y-116342857D01*
X143500380Y-116723809D01*
X143548000Y-116819047D01*
X143595619Y-116866666D01*
X143690857Y-116914285D01*
X143833714Y-116914285D01*
X143928952Y-116866666D01*
X143976571Y-116819047D01*
X144024190Y-116723809D01*
X144024190Y-116342857D01*
X144500380Y-117866666D02*
X144500380Y-117295238D01*
X144500380Y-117580952D02*
X143500380Y-117580952D01*
X143643238Y-117485714D01*
X143738476Y-117390476D01*
X143786095Y-117295238D01*
%TO.C,U1*%
X129046380Y-107228095D02*
X129855904Y-107228095D01*
X129951142Y-107275714D01*
X129998761Y-107323333D01*
X130046380Y-107418571D01*
X130046380Y-107609047D01*
X129998761Y-107704285D01*
X129951142Y-107751904D01*
X129855904Y-107799523D01*
X129046380Y-107799523D01*
X130046380Y-108799523D02*
X130046380Y-108228095D01*
X130046380Y-108513809D02*
X129046380Y-108513809D01*
X129189238Y-108418571D01*
X129284476Y-108323333D01*
X129332095Y-108228095D01*
%TO.C,TP2*%
X143500380Y-117938095D02*
X143500380Y-118509523D01*
X144500380Y-118223809D02*
X143500380Y-118223809D01*
X144500380Y-118842857D02*
X143500380Y-118842857D01*
X143500380Y-119223809D01*
X143548000Y-119319047D01*
X143595619Y-119366666D01*
X143690857Y-119414285D01*
X143833714Y-119414285D01*
X143928952Y-119366666D01*
X143976571Y-119319047D01*
X144024190Y-119223809D01*
X144024190Y-118842857D01*
X143595619Y-119795238D02*
X143548000Y-119842857D01*
X143500380Y-119938095D01*
X143500380Y-120176190D01*
X143548000Y-120271428D01*
X143595619Y-120319047D01*
X143690857Y-120366666D01*
X143786095Y-120366666D01*
X143928952Y-120319047D01*
X144500380Y-119747619D01*
X144500380Y-120366666D01*
%TO.C,R3*%
X130796666Y-98352380D02*
X131130000Y-97876190D01*
X131368095Y-98352380D02*
X131368095Y-97352380D01*
X130987142Y-97352380D01*
X130891904Y-97400000D01*
X130844285Y-97447619D01*
X130796666Y-97542857D01*
X130796666Y-97685714D01*
X130844285Y-97780952D01*
X130891904Y-97828571D01*
X130987142Y-97876190D01*
X131368095Y-97876190D01*
X130463333Y-97352380D02*
X129844285Y-97352380D01*
X130177619Y-97733333D01*
X130034761Y-97733333D01*
X129939523Y-97780952D01*
X129891904Y-97828571D01*
X129844285Y-97923809D01*
X129844285Y-98161904D01*
X129891904Y-98257142D01*
X129939523Y-98304761D01*
X130034761Y-98352380D01*
X130320476Y-98352380D01*
X130415714Y-98304761D01*
X130463333Y-98257142D01*
%TO.C,J1*%
X140093333Y-128952380D02*
X140093333Y-129666666D01*
X140140952Y-129809523D01*
X140236190Y-129904761D01*
X140379047Y-129952380D01*
X140474285Y-129952380D01*
X139093333Y-129952380D02*
X139664761Y-129952380D01*
X139379047Y-129952380D02*
X139379047Y-128952380D01*
X139474285Y-129095238D01*
X139569523Y-129190476D01*
X139664761Y-129238095D01*
%TO.C,C3*%
X127429166Y-127357142D02*
X127476785Y-127404761D01*
X127619642Y-127452380D01*
X127714880Y-127452380D01*
X127857738Y-127404761D01*
X127952976Y-127309523D01*
X128000595Y-127214285D01*
X128048214Y-127023809D01*
X128048214Y-126880952D01*
X128000595Y-126690476D01*
X127952976Y-126595238D01*
X127857738Y-126500000D01*
X127714880Y-126452380D01*
X127619642Y-126452380D01*
X127476785Y-126500000D01*
X127429166Y-126547619D01*
X127095833Y-126452380D02*
X126476785Y-126452380D01*
X126810119Y-126833333D01*
X126667261Y-126833333D01*
X126572023Y-126880952D01*
X126524404Y-126928571D01*
X126476785Y-127023809D01*
X126476785Y-127261904D01*
X126524404Y-127357142D01*
X126572023Y-127404761D01*
X126667261Y-127452380D01*
X126952976Y-127452380D01*
X127048214Y-127404761D01*
X127095833Y-127357142D01*
%TO.C,R8*%
X139396666Y-98452380D02*
X139730000Y-97976190D01*
X139968095Y-98452380D02*
X139968095Y-97452380D01*
X139587142Y-97452380D01*
X139491904Y-97500000D01*
X139444285Y-97547619D01*
X139396666Y-97642857D01*
X139396666Y-97785714D01*
X139444285Y-97880952D01*
X139491904Y-97928571D01*
X139587142Y-97976190D01*
X139968095Y-97976190D01*
X138825238Y-97880952D02*
X138920476Y-97833333D01*
X138968095Y-97785714D01*
X139015714Y-97690476D01*
X139015714Y-97642857D01*
X138968095Y-97547619D01*
X138920476Y-97500000D01*
X138825238Y-97452380D01*
X138634761Y-97452380D01*
X138539523Y-97500000D01*
X138491904Y-97547619D01*
X138444285Y-97642857D01*
X138444285Y-97690476D01*
X138491904Y-97785714D01*
X138539523Y-97833333D01*
X138634761Y-97880952D01*
X138825238Y-97880952D01*
X138920476Y-97928571D01*
X138968095Y-97976190D01*
X139015714Y-98071428D01*
X139015714Y-98261904D01*
X138968095Y-98357142D01*
X138920476Y-98404761D01*
X138825238Y-98452380D01*
X138634761Y-98452380D01*
X138539523Y-98404761D01*
X138491904Y-98357142D01*
X138444285Y-98261904D01*
X138444285Y-98071428D01*
X138491904Y-97976190D01*
X138539523Y-97928571D01*
X138634761Y-97880952D01*
%TO.C,A1*%
X135895218Y-116816666D02*
X135419028Y-116816666D01*
X135990456Y-117102380D02*
X135657123Y-116102380D01*
X135323790Y-117102380D01*
X134466647Y-117102380D02*
X135038075Y-117102380D01*
X134752361Y-117102380D02*
X134752361Y-116102380D01*
X134847599Y-116245238D01*
X134942837Y-116340476D01*
X135038075Y-116388095D01*
%TO.C,R6*%
X136906666Y-95232380D02*
X137240000Y-94756190D01*
X137478095Y-95232380D02*
X137478095Y-94232380D01*
X137097142Y-94232380D01*
X137001904Y-94280000D01*
X136954285Y-94327619D01*
X136906666Y-94422857D01*
X136906666Y-94565714D01*
X136954285Y-94660952D01*
X137001904Y-94708571D01*
X137097142Y-94756190D01*
X137478095Y-94756190D01*
X136049523Y-94232380D02*
X136240000Y-94232380D01*
X136335238Y-94280000D01*
X136382857Y-94327619D01*
X136478095Y-94470476D01*
X136525714Y-94660952D01*
X136525714Y-95041904D01*
X136478095Y-95137142D01*
X136430476Y-95184761D01*
X136335238Y-95232380D01*
X136144761Y-95232380D01*
X136049523Y-95184761D01*
X136001904Y-95137142D01*
X135954285Y-95041904D01*
X135954285Y-94803809D01*
X136001904Y-94708571D01*
X136049523Y-94660952D01*
X136144761Y-94613333D01*
X136335238Y-94613333D01*
X136430476Y-94660952D01*
X136478095Y-94708571D01*
X136525714Y-94803809D01*
%TO.C,R2*%
X132852380Y-133433333D02*
X132376190Y-133100000D01*
X132852380Y-132861904D02*
X131852380Y-132861904D01*
X131852380Y-133242857D01*
X131900000Y-133338095D01*
X131947619Y-133385714D01*
X132042857Y-133433333D01*
X132185714Y-133433333D01*
X132280952Y-133385714D01*
X132328571Y-133338095D01*
X132376190Y-133242857D01*
X132376190Y-132861904D01*
X131947619Y-133814285D02*
X131900000Y-133861904D01*
X131852380Y-133957142D01*
X131852380Y-134195238D01*
X131900000Y-134290476D01*
X131947619Y-134338095D01*
X132042857Y-134385714D01*
X132138095Y-134385714D01*
X132280952Y-134338095D01*
X132852380Y-133766666D01*
X132852380Y-134385714D01*
%TO.C,R4*%
X135954166Y-125952380D02*
X136287500Y-125476190D01*
X136525595Y-125952380D02*
X136525595Y-124952380D01*
X136144642Y-124952380D01*
X136049404Y-125000000D01*
X136001785Y-125047619D01*
X135954166Y-125142857D01*
X135954166Y-125285714D01*
X136001785Y-125380952D01*
X136049404Y-125428571D01*
X136144642Y-125476190D01*
X136525595Y-125476190D01*
X135097023Y-125285714D02*
X135097023Y-125952380D01*
X135335119Y-124904761D02*
X135573214Y-125619047D01*
X134954166Y-125619047D01*
%TO.C,C1*%
X130821666Y-96857142D02*
X130869285Y-96904761D01*
X131012142Y-96952380D01*
X131107380Y-96952380D01*
X131250238Y-96904761D01*
X131345476Y-96809523D01*
X131393095Y-96714285D01*
X131440714Y-96523809D01*
X131440714Y-96380952D01*
X131393095Y-96190476D01*
X131345476Y-96095238D01*
X131250238Y-96000000D01*
X131107380Y-95952380D01*
X131012142Y-95952380D01*
X130869285Y-96000000D01*
X130821666Y-96047619D01*
X129869285Y-96952380D02*
X130440714Y-96952380D01*
X130155000Y-96952380D02*
X130155000Y-95952380D01*
X130250238Y-96095238D01*
X130345476Y-96190476D01*
X130440714Y-96238095D01*
%TO.C,R7*%
X127416666Y-125952380D02*
X127750000Y-125476190D01*
X127988095Y-125952380D02*
X127988095Y-124952380D01*
X127607142Y-124952380D01*
X127511904Y-125000000D01*
X127464285Y-125047619D01*
X127416666Y-125142857D01*
X127416666Y-125285714D01*
X127464285Y-125380952D01*
X127511904Y-125428571D01*
X127607142Y-125476190D01*
X127988095Y-125476190D01*
X127083333Y-124952380D02*
X126416666Y-124952380D01*
X126845238Y-125952380D01*
%TO.C,C4*%
X139386666Y-96857142D02*
X139434285Y-96904761D01*
X139577142Y-96952380D01*
X139672380Y-96952380D01*
X139815238Y-96904761D01*
X139910476Y-96809523D01*
X139958095Y-96714285D01*
X140005714Y-96523809D01*
X140005714Y-96380952D01*
X139958095Y-96190476D01*
X139910476Y-96095238D01*
X139815238Y-96000000D01*
X139672380Y-95952380D01*
X139577142Y-95952380D01*
X139434285Y-96000000D01*
X139386666Y-96047619D01*
X138529523Y-96285714D02*
X138529523Y-96952380D01*
X138767619Y-95904761D02*
X139005714Y-96619047D01*
X138386666Y-96619047D01*
%TO.C,R10*%
X127495357Y-128960380D02*
X127828690Y-128484190D01*
X128066785Y-128960380D02*
X128066785Y-127960380D01*
X127685833Y-127960380D01*
X127590595Y-128008000D01*
X127542976Y-128055619D01*
X127495357Y-128150857D01*
X127495357Y-128293714D01*
X127542976Y-128388952D01*
X127590595Y-128436571D01*
X127685833Y-128484190D01*
X128066785Y-128484190D01*
X126542976Y-128960380D02*
X127114404Y-128960380D01*
X126828690Y-128960380D02*
X126828690Y-127960380D01*
X126923928Y-128103238D01*
X127019166Y-128198476D01*
X127114404Y-128246095D01*
X125923928Y-127960380D02*
X125828690Y-127960380D01*
X125733452Y-128008000D01*
X125685833Y-128055619D01*
X125638214Y-128150857D01*
X125590595Y-128341333D01*
X125590595Y-128579428D01*
X125638214Y-128769904D01*
X125685833Y-128865142D01*
X125733452Y-128912761D01*
X125828690Y-128960380D01*
X125923928Y-128960380D01*
X126019166Y-128912761D01*
X126066785Y-128865142D01*
X126114404Y-128769904D01*
X126162023Y-128579428D01*
X126162023Y-128341333D01*
X126114404Y-128150857D01*
X126066785Y-128055619D01*
X126019166Y-128008000D01*
X125923928Y-127960380D01*
%TO.C,R5*%
X135954166Y-128952380D02*
X136287500Y-128476190D01*
X136525595Y-128952380D02*
X136525595Y-127952380D01*
X136144642Y-127952380D01*
X136049404Y-128000000D01*
X136001785Y-128047619D01*
X135954166Y-128142857D01*
X135954166Y-128285714D01*
X136001785Y-128380952D01*
X136049404Y-128428571D01*
X136144642Y-128476190D01*
X136525595Y-128476190D01*
X135049404Y-127952380D02*
X135525595Y-127952380D01*
X135573214Y-128428571D01*
X135525595Y-128380952D01*
X135430357Y-128333333D01*
X135192261Y-128333333D01*
X135097023Y-128380952D01*
X135049404Y-128428571D01*
X135001785Y-128523809D01*
X135001785Y-128761904D01*
X135049404Y-128857142D01*
X135097023Y-128904761D01*
X135192261Y-128952380D01*
X135430357Y-128952380D01*
X135525595Y-128904761D01*
X135573214Y-128857142D01*
D13*
%TO.C,R9*%
X134522500Y-131254724D02*
X134522500Y-130745276D01*
X133477500Y-131254724D02*
X133477500Y-130745276D01*
%TO.C,C7*%
X135573733Y-104010000D02*
X135866267Y-104010000D01*
X135573733Y-102990000D02*
X135866267Y-102990000D01*
%TO.C,C8*%
X133090000Y-113646267D02*
X133090000Y-113353733D01*
X134110000Y-113646267D02*
X134110000Y-113353733D01*
%TO.C,TP4*%
X143300000Y-121100000D02*
X141900000Y-121100000D01*
X141900000Y-121100000D02*
X141900000Y-122500000D01*
X143300000Y-122500000D02*
X143300000Y-121100000D01*
X141900000Y-122500000D02*
X143300000Y-122500000D01*
%TO.C,C2*%
X133433767Y-126490000D02*
X133141233Y-126490000D01*
X133433767Y-127510000D02*
X133141233Y-127510000D01*
%TO.C,R1*%
X134454724Y-93740500D02*
X133945276Y-93740500D01*
X134454724Y-92695500D02*
X133945276Y-92695500D01*
%TO.C,TP1*%
X141900000Y-116000000D02*
X141900000Y-117400000D01*
X143300000Y-117400000D02*
X143300000Y-116000000D01*
X141900000Y-117400000D02*
X143300000Y-117400000D01*
X143300000Y-116000000D02*
X141900000Y-116000000D01*
%TO.C,U1*%
X139309000Y-107990000D02*
X139309000Y-106040000D01*
X130439000Y-107990000D02*
X130439000Y-104540000D01*
X130439000Y-107990000D02*
X130439000Y-109940000D01*
X139309000Y-107990000D02*
X139309000Y-109940000D01*
%TO.C,TP2*%
X143300000Y-118500000D02*
X141900000Y-118500000D01*
X143300000Y-119900000D02*
X143300000Y-118500000D01*
X141900000Y-118500000D02*
X141900000Y-119900000D01*
X141900000Y-119900000D02*
X143300000Y-119900000D01*
%TO.C,R3*%
X132975276Y-98327500D02*
X133484724Y-98327500D01*
X132975276Y-97282500D02*
X133484724Y-97282500D01*
%TO.C,J1*%
X136767500Y-138881000D02*
X135457500Y-138881000D01*
X135067500Y-146011000D02*
X134067500Y-146511000D01*
X135457500Y-130641000D02*
X135457500Y-151221000D01*
X136767500Y-149921000D02*
X143267500Y-149921000D01*
X144577500Y-151221000D02*
X144577500Y-130641000D01*
X135457500Y-151221000D02*
X144577500Y-151221000D01*
X143267500Y-131941000D02*
X136767500Y-131941000D01*
X144577500Y-130641000D02*
X135457500Y-130641000D01*
X134067500Y-146511000D02*
X134067500Y-145511000D01*
X143267500Y-149921000D02*
X143267500Y-131941000D01*
X134067500Y-145511000D02*
X135067500Y-146011000D01*
X136767500Y-138881000D02*
X136767500Y-138881000D01*
X136767500Y-131941000D02*
X136767500Y-138881000D01*
X135457500Y-142981000D02*
X136767500Y-142981000D01*
X136767500Y-142981000D02*
X136767500Y-149921000D01*
%TO.C,C3*%
X129753733Y-126490000D02*
X130046267Y-126490000D01*
X129753733Y-127510000D02*
X130046267Y-127510000D01*
%TO.C,R8*%
X136864724Y-97277500D02*
X136355276Y-97277500D01*
X136864724Y-98322500D02*
X136355276Y-98322500D01*
%TO.C,A1*%
X126280933Y-63450000D02*
X126280933Y-114450000D01*
X125980933Y-114750000D02*
X125980933Y-112350000D01*
X126280933Y-114450000D02*
X144080933Y-114450000D01*
X128280933Y-114750000D02*
X125980933Y-114750000D01*
X131180933Y-115650000D02*
X139180933Y-115650000D01*
X128760933Y-114450000D02*
X128760933Y-63450000D01*
X139180933Y-115650000D02*
X139180933Y-114450000D01*
X131180933Y-114450000D02*
X131180933Y-115650000D01*
X141560933Y-114450000D02*
X141560933Y-63450000D01*
X144080933Y-63450000D02*
X126280933Y-63450000D01*
X144080933Y-114450000D02*
X144080933Y-63450000D01*
%TO.C,R6*%
X134444724Y-94227500D02*
X133935276Y-94227500D01*
X134444724Y-95272500D02*
X133935276Y-95272500D01*
%TO.C,R2*%
X132922500Y-130745276D02*
X132922500Y-131254724D01*
X131877500Y-130745276D02*
X131877500Y-131254724D01*
%TO.C,R4*%
X133542224Y-124977500D02*
X133032776Y-124977500D01*
X133542224Y-126022500D02*
X133032776Y-126022500D01*
%TO.C,C1*%
X133083733Y-96790000D02*
X133376267Y-96790000D01*
X133083733Y-95770000D02*
X133376267Y-95770000D01*
%TO.C,R7*%
X129645276Y-124977500D02*
X130154724Y-124977500D01*
X129645276Y-126022500D02*
X130154724Y-126022500D01*
%TO.C,C4*%
X136746267Y-96780000D02*
X136453733Y-96780000D01*
X136746267Y-95760000D02*
X136453733Y-95760000D01*
%TO.C,R10*%
X129647776Y-127985500D02*
X130157224Y-127985500D01*
X129647776Y-129030500D02*
X130157224Y-129030500D01*
%TO.C,R5*%
X133032776Y-129022500D02*
X133542224Y-129022500D01*
X133032776Y-127977500D02*
X133542224Y-127977500D01*
%TD*%
M02*
