%TF.GenerationSoftware,KiCad,Pcbnew,6.0.10+dfsg-1~bpo11+1*%
%TF.CreationDate,2023-02-01T15:11:05+08:00*%
%TF.ProjectId,MiniVerb v2.0 - Main,4d696e69-5665-4726-9220-76322e30202d,rev?*%
%TF.SameCoordinates,Original*%
%TF.FileFunction,Copper,L2,Bot*%
%TF.FilePolarity,Positive*%
%FSLAX46Y46*%
G04 Gerber Fmt 4.6, Leading zero omitted, Abs format (unit mm)*
G04 Created by KiCad (PCBNEW 6.0.10+dfsg-1~bpo11+1) date 2023-02-01 15:11:05*
%MOMM*%
%LPD*%
G01*
G04 APERTURE LIST*
G04 Aperture macros list*
%AMRoundRect*
0 Rectangle with rounded corners*
0 $1 Rounding radius*
0 $2 $3 $4 $5 $6 $7 $8 $9 X,Y pos of 4 corners*
0 Add a 4 corners polygon primitive as box body*
4,1,4,$2,$3,$4,$5,$6,$7,$8,$9,$2,$3,0*
0 Add four circle primitives for the rounded corners*
1,1,$1+$1,$2,$3*
1,1,$1+$1,$4,$5*
1,1,$1+$1,$6,$7*
1,1,$1+$1,$8,$9*
0 Add four rect primitives between the rounded corners*
20,1,$1+$1,$2,$3,$4,$5,0*
20,1,$1+$1,$4,$5,$6,$7,0*
20,1,$1+$1,$6,$7,$8,$9,0*
20,1,$1+$1,$8,$9,$2,$3,0*%
G04 Aperture macros list end*
%TA.AperFunction,ComponentPad*%
%ADD10O,2.720000X3.240000*%
%TD*%
%TA.AperFunction,ComponentPad*%
%ADD11R,1.800000X1.800000*%
%TD*%
%TA.AperFunction,ComponentPad*%
%ADD12C,1.800000*%
%TD*%
%TA.AperFunction,ComponentPad*%
%ADD13R,1.000000X1.000000*%
%TD*%
%TA.AperFunction,ComponentPad*%
%ADD14C,2.000000*%
%TD*%
%TA.AperFunction,ComponentPad*%
%ADD15R,1.930000X1.830000*%
%TD*%
%TA.AperFunction,ComponentPad*%
%ADD16C,2.130000*%
%TD*%
%TA.AperFunction,SMDPad,CuDef*%
%ADD17RoundRect,0.237500X0.237500X-0.250000X0.237500X0.250000X-0.237500X0.250000X-0.237500X-0.250000X0*%
%TD*%
%TA.AperFunction,SMDPad,CuDef*%
%ADD18RoundRect,0.237500X-0.300000X-0.237500X0.300000X-0.237500X0.300000X0.237500X-0.300000X0.237500X0*%
%TD*%
%TA.AperFunction,SMDPad,CuDef*%
%ADD19RoundRect,0.237500X0.237500X-0.300000X0.237500X0.300000X-0.237500X0.300000X-0.237500X-0.300000X0*%
%TD*%
%TA.AperFunction,SMDPad,CuDef*%
%ADD20RoundRect,0.237500X0.300000X0.237500X-0.300000X0.237500X-0.300000X-0.237500X0.300000X-0.237500X0*%
%TD*%
%TA.AperFunction,SMDPad,CuDef*%
%ADD21RoundRect,0.237500X0.250000X0.237500X-0.250000X0.237500X-0.250000X-0.237500X0.250000X-0.237500X0*%
%TD*%
%TA.AperFunction,SMDPad,CuDef*%
%ADD22RoundRect,0.150000X-0.150000X0.825000X-0.150000X-0.825000X0.150000X-0.825000X0.150000X0.825000X0*%
%TD*%
%TA.AperFunction,SMDPad,CuDef*%
%ADD23RoundRect,0.237500X-0.250000X-0.237500X0.250000X-0.237500X0.250000X0.237500X-0.250000X0.237500X0*%
%TD*%
%TA.AperFunction,ComponentPad*%
%ADD24RoundRect,0.250000X-0.600000X-0.600000X0.600000X-0.600000X0.600000X0.600000X-0.600000X0.600000X0*%
%TD*%
%TA.AperFunction,ComponentPad*%
%ADD25C,1.700000*%
%TD*%
%TA.AperFunction,ComponentPad*%
%ADD26R,1.700000X1.700000*%
%TD*%
%TA.AperFunction,SMDPad,CuDef*%
%ADD27RoundRect,0.237500X-0.237500X0.250000X-0.237500X-0.250000X0.237500X-0.250000X0.237500X0.250000X0*%
%TD*%
%TA.AperFunction,ViaPad*%
%ADD28C,0.800000*%
%TD*%
%TA.AperFunction,Conductor*%
%ADD29C,0.500000*%
%TD*%
%TA.AperFunction,Conductor*%
%ADD30C,0.250000*%
%TD*%
%TA.AperFunction,Conductor*%
%ADD31C,0.200000*%
%TD*%
G04 APERTURE END LIST*
D10*
%TO.P,FEEDBACK_POT1,*%
%TO.N,*%
X130200000Y-94045000D03*
X139800000Y-94045000D03*
D11*
%TO.P,FEEDBACK_POT1,1,1*%
%TO.N,GND*%
X132500000Y-101545000D03*
D12*
%TO.P,FEEDBACK_POT1,2,2*%
%TO.N,FEEDBACK*%
X135000000Y-101545000D03*
%TO.P,FEEDBACK_POT1,3,3*%
%TO.N,3V3_A*%
X137500000Y-101545000D03*
%TD*%
D13*
%TO.P,TP5,1,1*%
%TO.N,3V3_A*%
X140225000Y-65975000D03*
%TD*%
D14*
%TO.P,TP3,1,1*%
%TO.N,GND*%
X141800000Y-128600000D03*
%TD*%
D15*
%TO.P,CV1_IN1,S*%
%TO.N,GND*%
X129970000Y-133040000D03*
D16*
%TO.P,CV1_IN1,T*%
%TO.N,Net-(CV1_IN1-PadT)*%
X129970000Y-144440000D03*
%TO.P,CV1_IN1,TN*%
%TO.N,unconnected-(CV1_IN1-PadTN)*%
X129970000Y-136140000D03*
%TD*%
D15*
%TO.P,AUDIO_OUT1,S*%
%TO.N,GND*%
X140000000Y-153162000D03*
D16*
%TO.P,AUDIO_OUT1,T*%
%TO.N,Net-(AUDIO_OUT1-PadT)*%
X140000000Y-164562000D03*
%TO.P,AUDIO_OUT1,TN*%
%TO.N,unconnected-(AUDIO_OUT1-PadTN)*%
X140000000Y-156262000D03*
%TD*%
D10*
%TO.P,MOD_POT1,*%
%TO.N,*%
X130260000Y-114055000D03*
X139860000Y-114055000D03*
D11*
%TO.P,MOD_POT1,1,1*%
%TO.N,GND*%
X132560000Y-121555000D03*
D12*
%TO.P,MOD_POT1,2,2*%
%TO.N,MOD*%
X135060000Y-121555000D03*
%TO.P,MOD_POT1,3,3*%
%TO.N,3V3_A*%
X137560000Y-121555000D03*
%TD*%
D10*
%TO.P,LEVEL_POT1,*%
%TO.N,*%
X130220000Y-74055000D03*
X139820000Y-74055000D03*
D11*
%TO.P,LEVEL_POT1,1,1*%
%TO.N,GND*%
X132520000Y-81555000D03*
D12*
%TO.P,LEVEL_POT1,2,2*%
%TO.N,LEVEL*%
X135020000Y-81555000D03*
%TO.P,LEVEL_POT1,3,3*%
%TO.N,3V3_A*%
X137520000Y-81555000D03*
%TD*%
D11*
%TO.P,D1,1,K*%
%TO.N,GND*%
X127775000Y-149000000D03*
D12*
%TO.P,D1,2,A*%
%TO.N,Net-(D1-Pad2)*%
X130315000Y-149000000D03*
%TD*%
D13*
%TO.P,TP7,1,1*%
%TO.N,INT_AUDIO_IN1*%
X130275000Y-66025000D03*
%TD*%
D15*
%TO.P,AUDIO_IN1,S*%
%TO.N,GND*%
X130000000Y-153162000D03*
D16*
%TO.P,AUDIO_IN1,T*%
%TO.N,Net-(AUDIO_IN1-PadT)*%
X130000000Y-164562000D03*
%TO.P,AUDIO_IN1,TN*%
%TO.N,unconnected-(AUDIO_IN1-PadTN)*%
X130000000Y-156262000D03*
%TD*%
D17*
%TO.P,R9,1*%
%TO.N,Net-(AUDIO_OUT1-PadT)*%
X134000000Y-131912500D03*
%TO.P,R9,2*%
%TO.N,Net-(C4-Pad1)*%
X134000000Y-130087500D03*
%TD*%
D18*
%TO.P,C7,1*%
%TO.N,+12V*%
X134857500Y-103500000D03*
%TO.P,C7,2*%
%TO.N,GND*%
X136582500Y-103500000D03*
%TD*%
D19*
%TO.P,C8,1*%
%TO.N,GND*%
X133600000Y-114362500D03*
%TO.P,C8,2*%
%TO.N,-12V*%
X133600000Y-112637500D03*
%TD*%
D13*
%TO.P,TP4,1,1*%
%TO.N,AREF_-10*%
X142600000Y-121800000D03*
%TD*%
D20*
%TO.P,C2,1*%
%TO.N,Net-(C2-Pad1)*%
X134150000Y-127000000D03*
%TO.P,C2,2*%
%TO.N,Net-(C2-Pad2)*%
X132425000Y-127000000D03*
%TD*%
D21*
%TO.P,R1,1*%
%TO.N,Net-(C1-Pad2)*%
X135112500Y-93218000D03*
%TO.P,R1,2*%
%TO.N,INT_AUDIO_OUT1*%
X133287500Y-93218000D03*
%TD*%
D13*
%TO.P,TP1,1,1*%
%TO.N,+12V*%
X142600000Y-116700000D03*
%TD*%
D22*
%TO.P,U1,1*%
%TO.N,Net-(C1-Pad1)*%
X131064000Y-105515000D03*
%TO.P,U1,2,-*%
%TO.N,Net-(C1-Pad2)*%
X132334000Y-105515000D03*
%TO.P,U1,3,+*%
%TO.N,GND*%
X133604000Y-105515000D03*
%TO.P,U1,4,V+*%
%TO.N,+12V*%
X134874000Y-105515000D03*
%TO.P,U1,5,+*%
%TO.N,GND*%
X136144000Y-105515000D03*
%TO.P,U1,6,-*%
%TO.N,Net-(C4-Pad2)*%
X137414000Y-105515000D03*
%TO.P,U1,7*%
%TO.N,Net-(C4-Pad1)*%
X138684000Y-105515000D03*
%TO.P,U1,8*%
%TO.N,Net-(C2-Pad1)*%
X138684000Y-110465000D03*
%TO.P,U1,9,-*%
%TO.N,Net-(C2-Pad2)*%
X137414000Y-110465000D03*
%TO.P,U1,10,+*%
%TO.N,GND*%
X136144000Y-110465000D03*
%TO.P,U1,11,V-*%
%TO.N,-12V*%
X134874000Y-110465000D03*
%TO.P,U1,12,+*%
%TO.N,GND*%
X133604000Y-110465000D03*
%TO.P,U1,13,-*%
%TO.N,Net-(C3-Pad2)*%
X132334000Y-110465000D03*
%TO.P,U1,14*%
%TO.N,Net-(C3-Pad1)*%
X131064000Y-110465000D03*
%TD*%
D13*
%TO.P,TP2,1,1*%
%TO.N,-12V*%
X142600000Y-119200000D03*
%TD*%
D23*
%TO.P,R3,1*%
%TO.N,Net-(C1-Pad1)*%
X132317500Y-97805000D03*
%TO.P,R3,2*%
%TO.N,Net-(C1-Pad2)*%
X134142500Y-97805000D03*
%TD*%
D24*
%TO.P,J1,1,Pin_1*%
%TO.N,-12V*%
X138747500Y-146011000D03*
D25*
%TO.P,J1,2,Pin_2*%
X141287500Y-146011000D03*
%TO.P,J1,3,Pin_3*%
%TO.N,GND*%
X138747500Y-143471000D03*
%TO.P,J1,4,Pin_4*%
X141287500Y-143471000D03*
%TO.P,J1,5,Pin_5*%
X138747500Y-140931000D03*
%TO.P,J1,6,Pin_6*%
X141287500Y-140931000D03*
%TO.P,J1,7,Pin_7*%
X138747500Y-138391000D03*
%TO.P,J1,8,Pin_8*%
X141287500Y-138391000D03*
%TO.P,J1,9,Pin_9*%
%TO.N,+12V*%
X138747500Y-135851000D03*
%TO.P,J1,10,Pin_10*%
X141287500Y-135851000D03*
%TD*%
D18*
%TO.P,C3,1*%
%TO.N,Net-(C3-Pad1)*%
X129037500Y-127000000D03*
%TO.P,C3,2*%
%TO.N,Net-(C3-Pad2)*%
X130762500Y-127000000D03*
%TD*%
D21*
%TO.P,R8,1*%
%TO.N,Net-(C4-Pad1)*%
X137522500Y-97800000D03*
%TO.P,R8,2*%
%TO.N,Net-(C4-Pad2)*%
X135697500Y-97800000D03*
%TD*%
D26*
%TO.P,A1,1,USB_HS_ID*%
%TO.N,unconnected-(A1-Pad1)*%
X127560933Y-113050000D03*
D25*
%TO.P,A1,2,SDMMC1_D3*%
%TO.N,unconnected-(A1-Pad2)*%
X127560933Y-110510000D03*
%TO.P,A1,3,SDMMC1_D2*%
%TO.N,unconnected-(A1-Pad3)*%
X127560933Y-107970000D03*
%TO.P,A1,4,SDMMC1_D1*%
%TO.N,unconnected-(A1-Pad4)*%
X127560933Y-105430000D03*
%TO.P,A1,5,SDMMC1_D0*%
%TO.N,unconnected-(A1-Pad5)*%
X127560933Y-102890000D03*
%TO.P,A1,6,SDMMC1_CMD*%
%TO.N,unconnected-(A1-Pad6)*%
X127560933Y-100350000D03*
%TO.P,A1,7,SDMMC1_CK*%
%TO.N,unconnected-(A1-Pad7)*%
X127560933Y-97810000D03*
%TO.P,A1,8,SPI1_NSS*%
%TO.N,unconnected-(A1-Pad8)*%
X127560933Y-95270000D03*
%TO.P,A1,9,SPI1_SCK*%
%TO.N,unconnected-(A1-Pad9)*%
X127560933Y-92730000D03*
%TO.P,A1,10,SPI1_MISO*%
%TO.N,unconnected-(A1-Pad10)*%
X127560933Y-90190000D03*
%TO.P,A1,11,SPI1_MOSI*%
%TO.N,unconnected-(A1-Pad11)*%
X127560933Y-87650000D03*
%TO.P,A1,12,I2C1_SCL*%
%TO.N,unconnected-(A1-Pad12)*%
X127560933Y-85110000D03*
%TO.P,A1,13,I2C1_SDA*%
%TO.N,unconnected-(A1-Pad13)*%
X127560933Y-82570000D03*
%TO.P,A1,14,USART1_TX*%
%TO.N,unconnected-(A1-Pad14)*%
X127560933Y-80030000D03*
%TO.P,A1,15,USART1_RX*%
%TO.N,unconnected-(A1-Pad15)*%
X127560933Y-77490000D03*
%TO.P,A1,16,AUDIO_IN_L*%
%TO.N,INT_AUDIO_IN1*%
X127560933Y-74950000D03*
%TO.P,A1,17,AUDIO_IN_R*%
%TO.N,unconnected-(A1-Pad17)*%
X127560933Y-72410000D03*
%TO.P,A1,18,AUDIO_OUT_L*%
%TO.N,INT_AUDIO_OUT1*%
X127560933Y-69870000D03*
%TO.P,A1,19,AUDIO_OUT_R*%
%TO.N,unconnected-(A1-Pad19)*%
X127560933Y-67330000D03*
%TO.P,A1,20,AGND*%
%TO.N,GND*%
X127560933Y-64790000D03*
%TO.P,A1,21,3V3_A*%
%TO.N,3V3_A*%
X142800933Y-64790000D03*
%TO.P,A1,22,ADC_INP10*%
%TO.N,LEVEL*%
X142800933Y-67330000D03*
%TO.P,A1,23,ADC_INP15*%
%TO.N,FEEDBACK*%
X142800933Y-69870000D03*
%TO.P,A1,24,ADC_INP5*%
%TO.N,MOD*%
X142800933Y-72410000D03*
%TO.P,A1,25,ADC_INP7*%
%TO.N,CV1*%
X142800933Y-74950000D03*
%TO.P,A1,26,ADC_INP3*%
%TO.N,unconnected-(A1-Pad26)*%
X142800933Y-77490000D03*
%TO.P,A1,27,ADC_INP11*%
%TO.N,unconnected-(A1-Pad27)*%
X142800933Y-80030000D03*
%TO.P,A1,28,ADC1_INP4*%
%TO.N,unconnected-(A1-Pad28)*%
X142800933Y-82570000D03*
%TO.P,A1,29,DAC1_OUT2*%
%TO.N,unconnected-(A1-Pad29)*%
X142800933Y-85110000D03*
%TO.P,A1,30,DAC1_OUT1*%
%TO.N,unconnected-(A1-Pad30)*%
X142800933Y-87650000D03*
%TO.P,A1,31,SAI2_MCLK_B*%
%TO.N,unconnected-(A1-Pad31)*%
X142800933Y-90190000D03*
%TO.P,A1,32,SAI2_SD_B*%
%TO.N,unconnected-(A1-Pad32)*%
X142800933Y-92730000D03*
%TO.P,A1,33,SAI2_SD_A*%
%TO.N,unconnected-(A1-Pad33)*%
X142800933Y-95270000D03*
%TO.P,A1,34,SAI2_FS_B*%
%TO.N,unconnected-(A1-Pad34)*%
X142800933Y-97810000D03*
%TO.P,A1,35,SAI2_SCK_B*%
%TO.N,unconnected-(A1-Pad35)*%
X142800933Y-100350000D03*
%TO.P,A1,36,USB_HS_D_-*%
%TO.N,unconnected-(A1-Pad36)*%
X142800933Y-102890000D03*
%TO.P,A1,37,USB_HS_D_+*%
%TO.N,unconnected-(A1-Pad37)*%
X142800933Y-105430000D03*
%TO.P,A1,38,3V3_D*%
%TO.N,unconnected-(A1-Pad38)*%
X142800933Y-107970000D03*
%TO.P,A1,39,VIN*%
%TO.N,+12V*%
X142800933Y-110510000D03*
%TO.P,A1,40,GND*%
%TO.N,GND*%
X142800933Y-113050000D03*
%TD*%
D21*
%TO.P,R6,1*%
%TO.N,Net-(C4-Pad2)*%
X135102500Y-94750000D03*
%TO.P,R6,2*%
%TO.N,Net-(C1-Pad1)*%
X133277500Y-94750000D03*
%TD*%
D27*
%TO.P,R2,1*%
%TO.N,Net-(C2-Pad2)*%
X132400000Y-130087500D03*
%TO.P,R2,2*%
%TO.N,Net-(AUDIO_IN1-PadT)*%
X132400000Y-131912500D03*
%TD*%
D21*
%TO.P,R4,1*%
%TO.N,Net-(C2-Pad1)*%
X134200000Y-125500000D03*
%TO.P,R4,2*%
%TO.N,Net-(C2-Pad2)*%
X132375000Y-125500000D03*
%TD*%
D18*
%TO.P,C1,1*%
%TO.N,Net-(C1-Pad1)*%
X132367500Y-96280000D03*
%TO.P,C1,2*%
%TO.N,Net-(C1-Pad2)*%
X134092500Y-96280000D03*
%TD*%
D23*
%TO.P,R7,1*%
%TO.N,Net-(C3-Pad1)*%
X128987500Y-125500000D03*
%TO.P,R7,2*%
%TO.N,Net-(C3-Pad2)*%
X130812500Y-125500000D03*
%TD*%
D20*
%TO.P,C4,1*%
%TO.N,Net-(C4-Pad1)*%
X137462500Y-96270000D03*
%TO.P,C4,2*%
%TO.N,Net-(C4-Pad2)*%
X135737500Y-96270000D03*
%TD*%
D23*
%TO.P,R10,1*%
%TO.N,INT_AUDIO_IN1*%
X128990000Y-128508000D03*
%TO.P,R10,2*%
%TO.N,Net-(C3-Pad1)*%
X130815000Y-128508000D03*
%TD*%
%TO.P,R5,1*%
%TO.N,Net-(C3-Pad2)*%
X132375000Y-128500000D03*
%TO.P,R5,2*%
%TO.N,Net-(C2-Pad1)*%
X134200000Y-128500000D03*
%TD*%
D28*
%TO.N,GND*%
X137760000Y-159480000D03*
X135060000Y-69790000D03*
X141840000Y-150760000D03*
X135400000Y-143700000D03*
X129730000Y-84410000D03*
X131130000Y-138870000D03*
X127130000Y-152120000D03*
X140750000Y-88310000D03*
X139230000Y-98200000D03*
X126290000Y-143890000D03*
X132030000Y-87020000D03*
X135420000Y-66310000D03*
X133830000Y-88640000D03*
X126860000Y-144710000D03*
X141630000Y-159390000D03*
X138500000Y-85330000D03*
X136400000Y-129875000D03*
X143870000Y-155150000D03*
X142450000Y-124600000D03*
X132950000Y-118820000D03*
X140970000Y-116790000D03*
X142890000Y-126250000D03*
X132190000Y-141890000D03*
X136570000Y-92870000D03*
X126710000Y-155760000D03*
X127040000Y-142320000D03*
X136500000Y-94330000D03*
X139270000Y-77600000D03*
X129140000Y-101500000D03*
X132970000Y-65520000D03*
X141280000Y-107020000D03*
X140980000Y-84260000D03*
X141140000Y-81210000D03*
X141550000Y-124310000D03*
X129610000Y-83170000D03*
X127040000Y-163200000D03*
X135450000Y-75150000D03*
X129490000Y-96990000D03*
X140880000Y-117580000D03*
X141300000Y-96270000D03*
X131550000Y-140770000D03*
X130620000Y-71260000D03*
X136110000Y-86240000D03*
X137810000Y-65640000D03*
X134700000Y-161870000D03*
X140980000Y-111620000D03*
X141930000Y-162410000D03*
X138600000Y-91590000D03*
X129450000Y-117030000D03*
X135150000Y-134570000D03*
X126800000Y-161450000D03*
X129570000Y-70890000D03*
X127740000Y-117750000D03*
X129630000Y-110840000D03*
X130700000Y-97670000D03*
X141120000Y-150400000D03*
X133420000Y-74300000D03*
X127170000Y-157390000D03*
X133900000Y-123700000D03*
X136150000Y-64550000D03*
X133330000Y-66980000D03*
X140850000Y-130730000D03*
X134731250Y-113231250D03*
X134570000Y-78340000D03*
X133360000Y-71550000D03*
X140600000Y-89220000D03*
X141110000Y-125650000D03*
X138390000Y-151760000D03*
X142360000Y-149730000D03*
X128240000Y-116290000D03*
X135000000Y-123700000D03*
X129550000Y-104870000D03*
X132730000Y-157450000D03*
X137760000Y-158060000D03*
X135330000Y-145460000D03*
X140090000Y-161420000D03*
X133640000Y-156850000D03*
X136000000Y-84660000D03*
X133910000Y-84280000D03*
X143600000Y-158660000D03*
X126850000Y-115730000D03*
X133790000Y-108070000D03*
X134960000Y-118820000D03*
X138430000Y-83930000D03*
X142450000Y-152460000D03*
X141110000Y-79130000D03*
X134240000Y-85180000D03*
X139520000Y-131180000D03*
X140490000Y-98770000D03*
X138870000Y-76870000D03*
X130430000Y-64220000D03*
X141250000Y-99590000D03*
X142690000Y-123580000D03*
X126910000Y-116690000D03*
X139060000Y-97110000D03*
X141120000Y-78030000D03*
X138575000Y-127225000D03*
X130210000Y-91400000D03*
X135010000Y-87510000D03*
X131860000Y-83850000D03*
X135710000Y-136440000D03*
X125980000Y-132390000D03*
X127040000Y-158390000D03*
X139510000Y-117040000D03*
X135840000Y-132790000D03*
X135480000Y-138820000D03*
X126350000Y-135150000D03*
X132700000Y-163470000D03*
X140780000Y-91140000D03*
X136150000Y-164650000D03*
X132100000Y-149040000D03*
X130150000Y-77210000D03*
X128740000Y-161780000D03*
X129650000Y-109190000D03*
X142490000Y-114950000D03*
X126290000Y-153000000D03*
X135750000Y-68190000D03*
X126320000Y-140870000D03*
X129710000Y-159870000D03*
X129590000Y-88860000D03*
X129520000Y-81140000D03*
X130950000Y-96520000D03*
X133850000Y-163530000D03*
X141030000Y-104400000D03*
X133950000Y-118770000D03*
X132380000Y-88690000D03*
X132550000Y-138320000D03*
X135420000Y-74030000D03*
X135140000Y-88550000D03*
X132630000Y-64310000D03*
X132250000Y-107910000D03*
X135570000Y-76600000D03*
X136610000Y-162990000D03*
X126110000Y-138350000D03*
X138640000Y-131080000D03*
X126710000Y-126490000D03*
X130000000Y-78900000D03*
X132180000Y-67910000D03*
X131950000Y-147160000D03*
X139580000Y-89360000D03*
X131010000Y-160480000D03*
X129930000Y-99050000D03*
X134390000Y-77170000D03*
X141030000Y-120590000D03*
X143270000Y-163750000D03*
X127000000Y-120600000D03*
X136990000Y-66850000D03*
X134490000Y-152310000D03*
X140340000Y-96890000D03*
X133230000Y-86790000D03*
X126950000Y-124250000D03*
X128660000Y-118140000D03*
X135481250Y-112481250D03*
X129560000Y-106190000D03*
X129550000Y-90370000D03*
X129430000Y-86160000D03*
X129980000Y-68200000D03*
X129730000Y-87710000D03*
X135320000Y-141240000D03*
X126500000Y-121950000D03*
X130790000Y-78630000D03*
X138060000Y-153240000D03*
X138000000Y-128200000D03*
X134460000Y-119840000D03*
X141060000Y-86080000D03*
X132270000Y-85340000D03*
X140810000Y-97750000D03*
X132850000Y-66430000D03*
X139530000Y-64280000D03*
X131930000Y-90260000D03*
X133360000Y-79200000D03*
X142750000Y-157000000D03*
X142720000Y-131470000D03*
X131300000Y-77080000D03*
X139210000Y-90630000D03*
X129670000Y-107320000D03*
X126080000Y-134300000D03*
%TO.N,FEEDBACK*%
X133844917Y-91500000D03*
%TO.N,Net-(C4-Pad1)*%
X136300000Y-128400000D03*
X140150000Y-105950000D03*
%TO.N,CV1*%
X135900000Y-91500000D03*
%TO.N,MOD*%
X134891661Y-91519432D03*
%TD*%
D29*
%TO.N,GND*%
X136200000Y-105459000D02*
X136144000Y-105515000D01*
X139300000Y-101025658D02*
X137874342Y-99600000D01*
X135481250Y-112481250D02*
X134731250Y-113231250D01*
X139300000Y-102300000D02*
X139300000Y-101025658D01*
X133600000Y-114362500D02*
X134731250Y-113231250D01*
X138100000Y-103500000D02*
X139300000Y-102300000D01*
X136582500Y-103500000D02*
X136200000Y-103882500D01*
X134445000Y-99600000D02*
X132500000Y-101545000D01*
X136144000Y-110465000D02*
X136144000Y-111818500D01*
X136144000Y-111818500D02*
X135481250Y-112481250D01*
X136200000Y-103882500D02*
X136200000Y-105459000D01*
X137874342Y-99600000D02*
X134445000Y-99600000D01*
X136582500Y-103500000D02*
X138100000Y-103500000D01*
D30*
%TO.N,+12V*%
X144100000Y-115200000D02*
X144200000Y-115200000D01*
D29*
X141287500Y-135851000D02*
X138747500Y-135851000D01*
X134874000Y-107074000D02*
X135800000Y-108000000D01*
X134874000Y-105515000D02*
X134874000Y-103516500D01*
X140125000Y-108000000D02*
X144200000Y-112075000D01*
D30*
X142600000Y-116700000D02*
X144100000Y-115200000D01*
D29*
X144200000Y-115200000D02*
X144200000Y-132938500D01*
X134874000Y-105515000D02*
X134874000Y-107074000D01*
X144200000Y-112075000D02*
X144200000Y-115200000D01*
X135800000Y-108000000D02*
X140125000Y-108000000D01*
X144200000Y-132938500D02*
X141287500Y-135851000D01*
D31*
%TO.N,INT_AUDIO_OUT1*%
X130500000Y-90430500D02*
X133287500Y-93218000D01*
X130500000Y-80400000D02*
X130500000Y-90430500D01*
X130470000Y-69870000D02*
X132500000Y-71900000D01*
X127395000Y-69870000D02*
X130470000Y-69870000D01*
X132500000Y-71900000D02*
X132500000Y-78400000D01*
X132500000Y-78400000D02*
X130500000Y-80400000D01*
D30*
%TO.N,INT_AUDIO_IN1*%
X125875000Y-73264067D02*
X125875000Y-66875000D01*
X125800000Y-76710933D02*
X127560933Y-74950000D01*
X125800000Y-117670000D02*
X125800000Y-76710933D01*
X126725000Y-66025000D02*
X130275000Y-66025000D01*
X128000000Y-119870000D02*
X125800000Y-117670000D01*
X128000000Y-127518000D02*
X128000000Y-119870000D01*
X127560933Y-74950000D02*
X125875000Y-73264067D01*
X125875000Y-66875000D02*
X126725000Y-66025000D01*
X128990000Y-128508000D02*
X128000000Y-127518000D01*
%TO.N,FEEDBACK*%
X137349501Y-71850499D02*
X137349501Y-77649501D01*
X139300000Y-85989402D02*
X133844917Y-91444485D01*
X139300000Y-79600000D02*
X139300000Y-85989402D01*
X139330000Y-69870000D02*
X137349501Y-71850499D01*
X137349501Y-77649501D02*
X139300000Y-79600000D01*
X142635000Y-69870000D02*
X139330000Y-69870000D01*
%TO.N,Net-(AUDIO_IN1-PadT)*%
X132400000Y-131912500D02*
X133500000Y-133012500D01*
X133500000Y-147700000D02*
X135750499Y-149950499D01*
X135750499Y-149950499D02*
X135750499Y-158811501D01*
X135750499Y-158811501D02*
X130000000Y-164562000D01*
X133500000Y-133012500D02*
X133500000Y-147700000D01*
%TO.N,Net-(AUDIO_OUT1-PadT)*%
X136200000Y-160762000D02*
X140000000Y-164562000D01*
X134000000Y-131912500D02*
X134000000Y-147500000D01*
X136200000Y-149700000D02*
X136200000Y-160762000D01*
X134000000Y-147500000D02*
X136200000Y-149700000D01*
%TO.N,Net-(C1-Pad1)*%
X131064000Y-104074000D02*
X131064000Y-105825000D01*
X130190000Y-100740000D02*
X130190000Y-103200000D01*
X132367500Y-95660000D02*
X132367500Y-96280000D01*
X132367500Y-97755000D02*
X132317500Y-97805000D01*
X132317500Y-97805000D02*
X132317500Y-98612500D01*
X132317500Y-98612500D02*
X130190000Y-100740000D01*
X133277500Y-94750000D02*
X132367500Y-95660000D01*
X132367500Y-96280000D02*
X132367500Y-97755000D01*
X130190000Y-103200000D02*
X131064000Y-104074000D01*
%TO.N,Net-(C1-Pad2)*%
X132334000Y-104708310D02*
X132334000Y-105825000D01*
X134092500Y-96280000D02*
X134092500Y-97755000D01*
X134092500Y-96280000D02*
X134200000Y-96172500D01*
X133760690Y-97805000D02*
X130640000Y-100925690D01*
X134200000Y-96172500D02*
X134200000Y-94130500D01*
X130640000Y-103014310D02*
X132334000Y-104708310D01*
X130640000Y-100925690D02*
X130640000Y-103014310D01*
X134200000Y-94130500D02*
X135112500Y-93218000D01*
X134142500Y-97805000D02*
X133760690Y-97805000D01*
X134092500Y-97755000D02*
X134142500Y-97805000D01*
%TO.N,Net-(C2-Pad1)*%
X134200000Y-125500000D02*
X134200000Y-128500000D01*
X137475499Y-112807307D02*
X129870000Y-120412806D01*
X138684000Y-111203533D02*
X137475499Y-112412034D01*
X129870000Y-120412806D02*
X129870000Y-121320000D01*
X134050000Y-125500000D02*
X134200000Y-125500000D01*
X137475499Y-112412034D02*
X137475499Y-112807307D01*
X129870000Y-121320000D02*
X134050000Y-125500000D01*
X138684000Y-110465000D02*
X138684000Y-111203533D01*
%TO.N,Net-(C2-Pad2)*%
X129420499Y-120226617D02*
X129420499Y-122550499D01*
X129420499Y-122550499D02*
X132370000Y-125500000D01*
X137414000Y-110465000D02*
X137025998Y-110853002D01*
X132375000Y-125500000D02*
X132375000Y-126950000D01*
X133300000Y-127875000D02*
X133300000Y-129187500D01*
X137025998Y-112621118D02*
X129420499Y-120226617D01*
X132375000Y-126950000D02*
X132425000Y-127000000D01*
X132425000Y-127000000D02*
X133300000Y-127875000D01*
X132370000Y-125500000D02*
X132375000Y-125500000D01*
X137025998Y-110853002D02*
X137025998Y-112621118D01*
X133300000Y-129187500D02*
X132400000Y-130087500D01*
%TO.N,Net-(C4-Pad1)*%
X136300000Y-128400000D02*
X134612500Y-130087500D01*
X138684000Y-105515000D02*
X139715000Y-105515000D01*
X137462500Y-97740000D02*
X140500000Y-100777500D01*
X137462500Y-96315000D02*
X137462500Y-97740000D01*
X140500000Y-100777500D02*
X140500000Y-102848157D01*
X140500000Y-102848157D02*
X138684000Y-104664157D01*
X139715000Y-105515000D02*
X140150000Y-105950000D01*
X134612500Y-130087500D02*
X134000000Y-130087500D01*
%TO.N,Net-(C4-Pad2)*%
X135737500Y-96272500D02*
X135737500Y-97837500D01*
X137414000Y-105098467D02*
X137414000Y-105825000D01*
X140050499Y-102461968D02*
X137414000Y-105098467D01*
X136925499Y-99025499D02*
X138112309Y-99025499D01*
X140050499Y-100963689D02*
X140050499Y-102461968D01*
X135737500Y-97837500D02*
X136925499Y-99025499D01*
X135737500Y-95385000D02*
X135102500Y-94750000D01*
X138112309Y-99025499D02*
X140050499Y-100963689D01*
X135737500Y-96270000D02*
X135737500Y-95385000D01*
D29*
%TO.N,-12V*%
X134874000Y-109826000D02*
X136000499Y-108699501D01*
X137000000Y-144263500D02*
X138747500Y-146011000D01*
X139800000Y-118800000D02*
X139800000Y-127676375D01*
X139115000Y-111985000D02*
X139110273Y-111985000D01*
X138742029Y-108699501D02*
X139900000Y-109857472D01*
X139110273Y-111985000D02*
X138050000Y-113045273D01*
X136000499Y-108699501D02*
X138742029Y-108699501D01*
X139900000Y-109857472D02*
X139900000Y-111200000D01*
X140200000Y-119200000D02*
X142600000Y-119200000D01*
X133600000Y-112637500D02*
X134874000Y-111363500D01*
X139800000Y-118800000D02*
X140200000Y-119200000D01*
X139900000Y-111200000D02*
X139115000Y-111985000D01*
X137000000Y-130476375D02*
X137000000Y-144263500D01*
X134874000Y-111363500D02*
X134874000Y-109826000D01*
X138050000Y-113045273D02*
X138050000Y-117050000D01*
X139800000Y-127676375D02*
X137000000Y-130476375D01*
X138050000Y-117050000D02*
X139800000Y-118800000D01*
D30*
%TO.N,Net-(C3-Pad1)*%
X130545500Y-128508000D02*
X129037500Y-127000000D01*
X131945000Y-116405000D02*
X128470000Y-119880000D01*
X128987500Y-126900000D02*
X129037500Y-126950000D01*
X131945000Y-112245000D02*
X131945000Y-116405000D01*
X128470000Y-124982500D02*
X128987500Y-125500000D01*
X128987500Y-125398000D02*
X128987500Y-126900000D01*
X131064000Y-111364000D02*
X131945000Y-112245000D01*
X131064000Y-110465000D02*
X131064000Y-111364000D01*
X129037500Y-126950000D02*
X129034500Y-126953000D01*
X130815000Y-128508000D02*
X130545500Y-128508000D01*
X128470000Y-119880000D02*
X128470000Y-124982500D01*
%TO.N,Net-(C3-Pad2)*%
X132394501Y-110525501D02*
X132394501Y-116616925D01*
X130762500Y-127000000D02*
X130875000Y-127000000D01*
X130812500Y-125398000D02*
X130812500Y-126900000D01*
X128970998Y-123658498D02*
X130812500Y-125500000D01*
X132394501Y-116616925D02*
X128970998Y-120040428D01*
X130875000Y-127000000D02*
X132375000Y-128500000D01*
X128970998Y-120040428D02*
X128970998Y-123658498D01*
X132334000Y-110465000D02*
X132394501Y-110525501D01*
X130812500Y-126900000D02*
X130762500Y-126950000D01*
%TO.N,CV1*%
X140200000Y-87200000D02*
X140200000Y-77385000D01*
X140200000Y-77385000D02*
X142635000Y-74950000D01*
X135900000Y-91500000D02*
X140200000Y-87200000D01*
%TO.N,LEVEL*%
X141234310Y-67330000D02*
X142635000Y-67330000D01*
X136900000Y-71664310D02*
X141234310Y-67330000D01*
X135020000Y-79680000D02*
X136900000Y-77800000D01*
X136900000Y-77800000D02*
X136900000Y-71664310D01*
X135020000Y-81555000D02*
X135020000Y-79680000D01*
%TO.N,MOD*%
X141325000Y-71100000D02*
X138800000Y-71100000D01*
X134891661Y-91415339D02*
X134891661Y-91519432D01*
X139749501Y-86557499D02*
X134891661Y-91415339D01*
X138800000Y-71100000D02*
X137800000Y-72100000D01*
X139749501Y-79349501D02*
X139749501Y-86557499D01*
X142635000Y-72410000D02*
X141325000Y-71100000D01*
X137800000Y-72100000D02*
X137800000Y-77400000D01*
X137800000Y-77400000D02*
X139749501Y-79349501D01*
%TD*%
%TA.AperFunction,Conductor*%
%TO.N,GND*%
G36*
X125717012Y-118483370D02*
G01*
X125723593Y-118489497D01*
X127094399Y-119860304D01*
X127329595Y-120095500D01*
X127363621Y-120157812D01*
X127366500Y-120184595D01*
X127366500Y-127439233D01*
X127365973Y-127450416D01*
X127364298Y-127457909D01*
X127364547Y-127465835D01*
X127364547Y-127465836D01*
X127366438Y-127525986D01*
X127366500Y-127529945D01*
X127366500Y-127557856D01*
X127366997Y-127561790D01*
X127366997Y-127561791D01*
X127367005Y-127561856D01*
X127367938Y-127573693D01*
X127369327Y-127617889D01*
X127374978Y-127637339D01*
X127378987Y-127656700D01*
X127379840Y-127663448D01*
X127381526Y-127676797D01*
X127384445Y-127684168D01*
X127384445Y-127684170D01*
X127397804Y-127717912D01*
X127401649Y-127729142D01*
X127405255Y-127741555D01*
X127413982Y-127771593D01*
X127418015Y-127778412D01*
X127418017Y-127778417D01*
X127424293Y-127789028D01*
X127432988Y-127806776D01*
X127440448Y-127825617D01*
X127445110Y-127832033D01*
X127445110Y-127832034D01*
X127466436Y-127861387D01*
X127472952Y-127871307D01*
X127495458Y-127909362D01*
X127509779Y-127923683D01*
X127522619Y-127938716D01*
X127534528Y-127955107D01*
X127540634Y-127960158D01*
X127568605Y-127983298D01*
X127577384Y-127991288D01*
X127957095Y-128370999D01*
X127991121Y-128433311D01*
X127994000Y-128460094D01*
X127994000Y-128795072D01*
X127994337Y-128798318D01*
X127994337Y-128798322D01*
X127998812Y-128841446D01*
X128004793Y-128899093D01*
X128006974Y-128905629D01*
X128006974Y-128905631D01*
X128028046Y-128968790D01*
X128059846Y-129064107D01*
X128151384Y-129212031D01*
X128156566Y-129217204D01*
X128269316Y-129329758D01*
X128269321Y-129329762D01*
X128274497Y-129334929D01*
X128422580Y-129426209D01*
X128587691Y-129480974D01*
X128594527Y-129481674D01*
X128594530Y-129481675D01*
X128646026Y-129486951D01*
X128690428Y-129491500D01*
X129289572Y-129491500D01*
X129292818Y-129491163D01*
X129292822Y-129491163D01*
X129386735Y-129481419D01*
X129386739Y-129481418D01*
X129393593Y-129480707D01*
X129400129Y-129478526D01*
X129400131Y-129478526D01*
X129532895Y-129434232D01*
X129558607Y-129425654D01*
X129706531Y-129334116D01*
X129749614Y-129290958D01*
X129813247Y-129227214D01*
X129875530Y-129193135D01*
X129946350Y-129198138D01*
X129991437Y-129227059D01*
X130094312Y-129329754D01*
X130094317Y-129329758D01*
X130099497Y-129334929D01*
X130247580Y-129426209D01*
X130412691Y-129480974D01*
X130419527Y-129481674D01*
X130419530Y-129481675D01*
X130471026Y-129486951D01*
X130515428Y-129491500D01*
X131114572Y-129491500D01*
X131117818Y-129491163D01*
X131117822Y-129491163D01*
X131211735Y-129481419D01*
X131211739Y-129481418D01*
X131218593Y-129480707D01*
X131225129Y-129478526D01*
X131225131Y-129478526D01*
X131290542Y-129456703D01*
X131361491Y-129454119D01*
X131422575Y-129490303D01*
X131454400Y-129553767D01*
X131450011Y-129615893D01*
X131427026Y-129685191D01*
X131416500Y-129787928D01*
X131416500Y-130387072D01*
X131416837Y-130390318D01*
X131416837Y-130390322D01*
X131417655Y-130398201D01*
X131427293Y-130491093D01*
X131429474Y-130497629D01*
X131429474Y-130497631D01*
X131435044Y-130514327D01*
X131482346Y-130656107D01*
X131573884Y-130804031D01*
X131579066Y-130809204D01*
X131680786Y-130910747D01*
X131714865Y-130973030D01*
X131709862Y-131043850D01*
X131680941Y-131088937D01*
X131578246Y-131191812D01*
X131578242Y-131191817D01*
X131573071Y-131196997D01*
X131569231Y-131203227D01*
X131569230Y-131203228D01*
X131486364Y-131337662D01*
X131481791Y-131345080D01*
X131427026Y-131510191D01*
X131426326Y-131517027D01*
X131426325Y-131517030D01*
X131416548Y-131612458D01*
X131389707Y-131678186D01*
X131331592Y-131718968D01*
X131260654Y-131721856D01*
X131215639Y-131700443D01*
X131188644Y-131680211D01*
X131173054Y-131671676D01*
X131052606Y-131626522D01*
X131037351Y-131622895D01*
X130986486Y-131617369D01*
X130979672Y-131617000D01*
X130242115Y-131617000D01*
X130226876Y-131621475D01*
X130225671Y-131622865D01*
X130224000Y-131630548D01*
X130224000Y-132767885D01*
X130228475Y-132783124D01*
X130229865Y-132784329D01*
X130237548Y-132786000D01*
X131424884Y-132786000D01*
X131440123Y-132781525D01*
X131441328Y-132780135D01*
X131442984Y-132772521D01*
X131477008Y-132710208D01*
X131539320Y-132676182D01*
X131610136Y-132681246D01*
X131655122Y-132710128D01*
X131689903Y-132744847D01*
X131696997Y-132751929D01*
X131703227Y-132755769D01*
X131703228Y-132755770D01*
X131769861Y-132796843D01*
X131845080Y-132843209D01*
X132010191Y-132897974D01*
X132017027Y-132898674D01*
X132017030Y-132898675D01*
X132068526Y-132903951D01*
X132112928Y-132908500D01*
X132447905Y-132908500D01*
X132516026Y-132928502D01*
X132537000Y-132945405D01*
X132829595Y-133238000D01*
X132863621Y-133300312D01*
X132866500Y-133327095D01*
X132866500Y-147621233D01*
X132865973Y-147632416D01*
X132864298Y-147639909D01*
X132864547Y-147647835D01*
X132864547Y-147647836D01*
X132866438Y-147707986D01*
X132866500Y-147711945D01*
X132866500Y-147739856D01*
X132866997Y-147743790D01*
X132866997Y-147743791D01*
X132867005Y-147743856D01*
X132867938Y-147755693D01*
X132869327Y-147799889D01*
X132874978Y-147819339D01*
X132878987Y-147838700D01*
X132881526Y-147858797D01*
X132884445Y-147866168D01*
X132884445Y-147866170D01*
X132897804Y-147899912D01*
X132901649Y-147911142D01*
X132911771Y-147945983D01*
X132913982Y-147953593D01*
X132918015Y-147960412D01*
X132918017Y-147960417D01*
X132924293Y-147971028D01*
X132932988Y-147988776D01*
X132940448Y-148007617D01*
X132945110Y-148014033D01*
X132945110Y-148014034D01*
X132966436Y-148043387D01*
X132972952Y-148053307D01*
X132995458Y-148091362D01*
X133009779Y-148105683D01*
X133022619Y-148120716D01*
X133034528Y-148137107D01*
X133040634Y-148142158D01*
X133068605Y-148165298D01*
X133077384Y-148173288D01*
X135080094Y-150175998D01*
X135114120Y-150238310D01*
X135116999Y-150265093D01*
X135116999Y-158496907D01*
X135096997Y-158565028D01*
X135080094Y-158586002D01*
X130630337Y-163035758D01*
X130568025Y-163069784D01*
X130497303Y-163063457D01*
X130497026Y-163064309D01*
X130493302Y-163063099D01*
X130493033Y-163063075D01*
X130492323Y-163062781D01*
X130492306Y-163062775D01*
X130487742Y-163060885D01*
X130383082Y-163035758D01*
X130251724Y-163004221D01*
X130251718Y-163004220D01*
X130246911Y-163003066D01*
X130000000Y-162983634D01*
X129753089Y-163003066D01*
X129748282Y-163004220D01*
X129748276Y-163004221D01*
X129616918Y-163035758D01*
X129512258Y-163060885D01*
X129507687Y-163062778D01*
X129507685Y-163062779D01*
X129288011Y-163153771D01*
X129288007Y-163153773D01*
X129283437Y-163155666D01*
X129072260Y-163285075D01*
X128883927Y-163445927D01*
X128723075Y-163634260D01*
X128593666Y-163845437D01*
X128591773Y-163850007D01*
X128591771Y-163850011D01*
X128500779Y-164069685D01*
X128498885Y-164074258D01*
X128497730Y-164079070D01*
X128442221Y-164310276D01*
X128442220Y-164310282D01*
X128441066Y-164315089D01*
X128421634Y-164562000D01*
X128441066Y-164808911D01*
X128442222Y-164813725D01*
X128442223Y-164813733D01*
X128449630Y-164844585D01*
X128446084Y-164915493D01*
X128404765Y-164973227D01*
X128338791Y-164999458D01*
X128327112Y-165000000D01*
X125634500Y-165000000D01*
X125566379Y-164979998D01*
X125519886Y-164926342D01*
X125508500Y-164874000D01*
X125508500Y-156262000D01*
X128421634Y-156262000D01*
X128441066Y-156508911D01*
X128442220Y-156513718D01*
X128442221Y-156513724D01*
X128478499Y-156664830D01*
X128498885Y-156749742D01*
X128593666Y-156978563D01*
X128723075Y-157189740D01*
X128883927Y-157378073D01*
X129072260Y-157538925D01*
X129283437Y-157668334D01*
X129288007Y-157670227D01*
X129288011Y-157670229D01*
X129507685Y-157761221D01*
X129512258Y-157763115D01*
X129597170Y-157783501D01*
X129748276Y-157819779D01*
X129748282Y-157819780D01*
X129753089Y-157820934D01*
X130000000Y-157840366D01*
X130246911Y-157820934D01*
X130251718Y-157819780D01*
X130251724Y-157819779D01*
X130402830Y-157783501D01*
X130487742Y-157763115D01*
X130492315Y-157761221D01*
X130711989Y-157670229D01*
X130711993Y-157670227D01*
X130716563Y-157668334D01*
X130927740Y-157538925D01*
X131116073Y-157378073D01*
X131276925Y-157189740D01*
X131406334Y-156978563D01*
X131501115Y-156749742D01*
X131521501Y-156664830D01*
X131557779Y-156513724D01*
X131557780Y-156513718D01*
X131558934Y-156508911D01*
X131578366Y-156262000D01*
X131558934Y-156015089D01*
X131557780Y-156010282D01*
X131557779Y-156010276D01*
X131502270Y-155779070D01*
X131501115Y-155774258D01*
X131406334Y-155545437D01*
X131276925Y-155334260D01*
X131116073Y-155145927D01*
X130927740Y-154985075D01*
X130716563Y-154855666D01*
X130648342Y-154827408D01*
X130593062Y-154782859D01*
X130570641Y-154715496D01*
X130588199Y-154646705D01*
X130640162Y-154598326D01*
X130696561Y-154584999D01*
X131009669Y-154584999D01*
X131016490Y-154584629D01*
X131067352Y-154579105D01*
X131082604Y-154575479D01*
X131203054Y-154530324D01*
X131218649Y-154521786D01*
X131320724Y-154445285D01*
X131333285Y-154432724D01*
X131409786Y-154330649D01*
X131418324Y-154315054D01*
X131463478Y-154194606D01*
X131467105Y-154179351D01*
X131472631Y-154128486D01*
X131473000Y-154121672D01*
X131473000Y-153434115D01*
X131468525Y-153418876D01*
X131467135Y-153417671D01*
X131459452Y-153416000D01*
X128545116Y-153416000D01*
X128529877Y-153420475D01*
X128528672Y-153421865D01*
X128527001Y-153429548D01*
X128527001Y-154121669D01*
X128527371Y-154128490D01*
X128532895Y-154179352D01*
X128536521Y-154194604D01*
X128581676Y-154315054D01*
X128590214Y-154330649D01*
X128666715Y-154432724D01*
X128679276Y-154445285D01*
X128781351Y-154521786D01*
X128796946Y-154530324D01*
X128917394Y-154575478D01*
X128932649Y-154579105D01*
X128983514Y-154584631D01*
X128990328Y-154585000D01*
X129303438Y-154585000D01*
X129371559Y-154605002D01*
X129418052Y-154658658D01*
X129428156Y-154728932D01*
X129398662Y-154793512D01*
X129351657Y-154827408D01*
X129323360Y-154839129D01*
X129288011Y-154853771D01*
X129288007Y-154853773D01*
X129283437Y-154855666D01*
X129072260Y-154985075D01*
X128883927Y-155145927D01*
X128723075Y-155334260D01*
X128593666Y-155545437D01*
X128498885Y-155774258D01*
X128497730Y-155779070D01*
X128442221Y-156010276D01*
X128442220Y-156010282D01*
X128441066Y-156015089D01*
X128421634Y-156262000D01*
X125508500Y-156262000D01*
X125508500Y-152889885D01*
X128527000Y-152889885D01*
X128531475Y-152905124D01*
X128532865Y-152906329D01*
X128540548Y-152908000D01*
X129727885Y-152908000D01*
X129743124Y-152903525D01*
X129744329Y-152902135D01*
X129746000Y-152894452D01*
X129746000Y-152889885D01*
X130254000Y-152889885D01*
X130258475Y-152905124D01*
X130259865Y-152906329D01*
X130267548Y-152908000D01*
X131454884Y-152908000D01*
X131470123Y-152903525D01*
X131471328Y-152902135D01*
X131472999Y-152894452D01*
X131472999Y-152202331D01*
X131472629Y-152195510D01*
X131467105Y-152144648D01*
X131463479Y-152129396D01*
X131418324Y-152008946D01*
X131409786Y-151993351D01*
X131333285Y-151891276D01*
X131320724Y-151878715D01*
X131218649Y-151802214D01*
X131203054Y-151793676D01*
X131082606Y-151748522D01*
X131067351Y-151744895D01*
X131016486Y-151739369D01*
X131009672Y-151739000D01*
X130272115Y-151739000D01*
X130256876Y-151743475D01*
X130255671Y-151744865D01*
X130254000Y-151752548D01*
X130254000Y-152889885D01*
X129746000Y-152889885D01*
X129746000Y-151757116D01*
X129741525Y-151741877D01*
X129740135Y-151740672D01*
X129732452Y-151739001D01*
X128990331Y-151739001D01*
X128983510Y-151739371D01*
X128932648Y-151744895D01*
X128917396Y-151748521D01*
X128796946Y-151793676D01*
X128781351Y-151802214D01*
X128679276Y-151878715D01*
X128666715Y-151891276D01*
X128590214Y-151993351D01*
X128581676Y-152008946D01*
X128536522Y-152129394D01*
X128532895Y-152144649D01*
X128527369Y-152195514D01*
X128527000Y-152202328D01*
X128527000Y-152889885D01*
X125508500Y-152889885D01*
X125508500Y-149944669D01*
X126367001Y-149944669D01*
X126367371Y-149951490D01*
X126372895Y-150002352D01*
X126376521Y-150017604D01*
X126421676Y-150138054D01*
X126430214Y-150153649D01*
X126506715Y-150255724D01*
X126519276Y-150268285D01*
X126621351Y-150344786D01*
X126636946Y-150353324D01*
X126757394Y-150398478D01*
X126772649Y-150402105D01*
X126823514Y-150407631D01*
X126830328Y-150408000D01*
X127502885Y-150408000D01*
X127518124Y-150403525D01*
X127519329Y-150402135D01*
X127521000Y-150394452D01*
X127521000Y-150389884D01*
X128029000Y-150389884D01*
X128033475Y-150405123D01*
X128034865Y-150406328D01*
X128042548Y-150407999D01*
X128719669Y-150407999D01*
X128726490Y-150407629D01*
X128777352Y-150402105D01*
X128792604Y-150398479D01*
X128913054Y-150353324D01*
X128928649Y-150344786D01*
X129030724Y-150268285D01*
X129043285Y-150255724D01*
X129119786Y-150153649D01*
X129128324Y-150138054D01*
X129149773Y-150080840D01*
X129192415Y-150024075D01*
X129258977Y-149999376D01*
X129328325Y-150014584D01*
X129348240Y-150028126D01*
X129504349Y-150157730D01*
X129704322Y-150274584D01*
X129920694Y-150357209D01*
X129925760Y-150358240D01*
X129925761Y-150358240D01*
X129978846Y-150369040D01*
X130147656Y-150403385D01*
X130278324Y-150408176D01*
X130373949Y-150411683D01*
X130373953Y-150411683D01*
X130379113Y-150411872D01*
X130384233Y-150411216D01*
X130384235Y-150411216D01*
X130483668Y-150398478D01*
X130608847Y-150382442D01*
X130613795Y-150380957D01*
X130613802Y-150380956D01*
X130825747Y-150317369D01*
X130830690Y-150315886D01*
X130911236Y-150276427D01*
X131034049Y-150216262D01*
X131034052Y-150216260D01*
X131038684Y-150213991D01*
X131227243Y-150079494D01*
X131391303Y-149916005D01*
X131526458Y-149727917D01*
X131559954Y-149660144D01*
X131626784Y-149524922D01*
X131626785Y-149524920D01*
X131629078Y-149520280D01*
X131696408Y-149298671D01*
X131726640Y-149069041D01*
X131728327Y-149000000D01*
X131722032Y-148923434D01*
X131709773Y-148774318D01*
X131709772Y-148774312D01*
X131709349Y-148769167D01*
X131652925Y-148544533D01*
X131560570Y-148332131D01*
X131434764Y-148137665D01*
X131278887Y-147966358D01*
X131274836Y-147963159D01*
X131274832Y-147963155D01*
X131101177Y-147826011D01*
X131101172Y-147826008D01*
X131097123Y-147822810D01*
X131092607Y-147820317D01*
X131092604Y-147820315D01*
X130898879Y-147713373D01*
X130898875Y-147713371D01*
X130894355Y-147710876D01*
X130889486Y-147709152D01*
X130889482Y-147709150D01*
X130680903Y-147635288D01*
X130680899Y-147635287D01*
X130676028Y-147633562D01*
X130670935Y-147632655D01*
X130670932Y-147632654D01*
X130453095Y-147593851D01*
X130453089Y-147593850D01*
X130448006Y-147592945D01*
X130370644Y-147592000D01*
X130221581Y-147590179D01*
X130221579Y-147590179D01*
X130216411Y-147590116D01*
X129987464Y-147625150D01*
X129767314Y-147697106D01*
X129762726Y-147699494D01*
X129762722Y-147699496D01*
X129585081Y-147791970D01*
X129561872Y-147804052D01*
X129557739Y-147807155D01*
X129557736Y-147807157D01*
X129380790Y-147940012D01*
X129376655Y-147943117D01*
X129373083Y-147946855D01*
X129358787Y-147961815D01*
X129297263Y-147997245D01*
X129226351Y-147993788D01*
X129168564Y-147952543D01*
X129149711Y-147918994D01*
X129128324Y-147861946D01*
X129119786Y-147846351D01*
X129043285Y-147744276D01*
X129030724Y-147731715D01*
X128928649Y-147655214D01*
X128913054Y-147646676D01*
X128792606Y-147601522D01*
X128777351Y-147597895D01*
X128726486Y-147592369D01*
X128719672Y-147592000D01*
X128047115Y-147592000D01*
X128031876Y-147596475D01*
X128030671Y-147597865D01*
X128029000Y-147605548D01*
X128029000Y-150389884D01*
X127521000Y-150389884D01*
X127521000Y-149272115D01*
X127516525Y-149256876D01*
X127515135Y-149255671D01*
X127507452Y-149254000D01*
X126385116Y-149254000D01*
X126369877Y-149258475D01*
X126368672Y-149259865D01*
X126367001Y-149267548D01*
X126367001Y-149944669D01*
X125508500Y-149944669D01*
X125508500Y-148727885D01*
X126367000Y-148727885D01*
X126371475Y-148743124D01*
X126372865Y-148744329D01*
X126380548Y-148746000D01*
X127502885Y-148746000D01*
X127518124Y-148741525D01*
X127519329Y-148740135D01*
X127521000Y-148732452D01*
X127521000Y-147610116D01*
X127516525Y-147594877D01*
X127515135Y-147593672D01*
X127507452Y-147592001D01*
X126830331Y-147592001D01*
X126823510Y-147592371D01*
X126772648Y-147597895D01*
X126757396Y-147601521D01*
X126636946Y-147646676D01*
X126621351Y-147655214D01*
X126519276Y-147731715D01*
X126506715Y-147744276D01*
X126430214Y-147846351D01*
X126421676Y-147861946D01*
X126376522Y-147982394D01*
X126372895Y-147997649D01*
X126367369Y-148048514D01*
X126367000Y-148055328D01*
X126367000Y-148727885D01*
X125508500Y-148727885D01*
X125508500Y-144440000D01*
X128391634Y-144440000D01*
X128411066Y-144686911D01*
X128412220Y-144691718D01*
X128412221Y-144691724D01*
X128428225Y-144758384D01*
X128468885Y-144927742D01*
X128470778Y-144932313D01*
X128470779Y-144932315D01*
X128539489Y-145098194D01*
X128563666Y-145156563D01*
X128693075Y-145367740D01*
X128853927Y-145556073D01*
X129042260Y-145716925D01*
X129253437Y-145846334D01*
X129258007Y-145848227D01*
X129258011Y-145848229D01*
X129477685Y-145939221D01*
X129482258Y-145941115D01*
X129567170Y-145961501D01*
X129718276Y-145997779D01*
X129718282Y-145997780D01*
X129723089Y-145998934D01*
X129970000Y-146018366D01*
X130216911Y-145998934D01*
X130221718Y-145997780D01*
X130221724Y-145997779D01*
X130372830Y-145961501D01*
X130457742Y-145941115D01*
X130462315Y-145939221D01*
X130681989Y-145848229D01*
X130681993Y-145848227D01*
X130686563Y-145846334D01*
X130897740Y-145716925D01*
X131086073Y-145556073D01*
X131246925Y-145367740D01*
X131376334Y-145156563D01*
X131400512Y-145098194D01*
X131469221Y-144932315D01*
X131469222Y-144932313D01*
X131471115Y-144927742D01*
X131511775Y-144758384D01*
X131527779Y-144691724D01*
X131527780Y-144691718D01*
X131528934Y-144686911D01*
X131548366Y-144440000D01*
X131528934Y-144193089D01*
X131527780Y-144188282D01*
X131527779Y-144188276D01*
X131477119Y-143977267D01*
X131471115Y-143952258D01*
X131424529Y-143839790D01*
X131378229Y-143728011D01*
X131378227Y-143728007D01*
X131376334Y-143723437D01*
X131246925Y-143512260D01*
X131086073Y-143323927D01*
X130897740Y-143163075D01*
X130686563Y-143033666D01*
X130681993Y-143031773D01*
X130681989Y-143031771D01*
X130462315Y-142940779D01*
X130462313Y-142940778D01*
X130457742Y-142938885D01*
X130372830Y-142918499D01*
X130221724Y-142882221D01*
X130221718Y-142882220D01*
X130216911Y-142881066D01*
X129970000Y-142861634D01*
X129723089Y-142881066D01*
X129718282Y-142882220D01*
X129718276Y-142882221D01*
X129567170Y-142918499D01*
X129482258Y-142938885D01*
X129477687Y-142940778D01*
X129477685Y-142940779D01*
X129258011Y-143031771D01*
X129258007Y-143031773D01*
X129253437Y-143033666D01*
X129042260Y-143163075D01*
X128853927Y-143323927D01*
X128693075Y-143512260D01*
X128563666Y-143723437D01*
X128561773Y-143728007D01*
X128561771Y-143728011D01*
X128515471Y-143839790D01*
X128468885Y-143952258D01*
X128462881Y-143977267D01*
X128412221Y-144188276D01*
X128412220Y-144188282D01*
X128411066Y-144193089D01*
X128391634Y-144440000D01*
X125508500Y-144440000D01*
X125508500Y-136140000D01*
X128391634Y-136140000D01*
X128411066Y-136386911D01*
X128412220Y-136391718D01*
X128412221Y-136391724D01*
X128448499Y-136542830D01*
X128468885Y-136627742D01*
X128470778Y-136632313D01*
X128470779Y-136632315D01*
X128511363Y-136730292D01*
X128563666Y-136856563D01*
X128693075Y-137067740D01*
X128853927Y-137256073D01*
X129042260Y-137416925D01*
X129253437Y-137546334D01*
X129258007Y-137548227D01*
X129258011Y-137548229D01*
X129464499Y-137633759D01*
X129482258Y-137641115D01*
X129567170Y-137661501D01*
X129718276Y-137697779D01*
X129718282Y-137697780D01*
X129723089Y-137698934D01*
X129970000Y-137718366D01*
X130216911Y-137698934D01*
X130221718Y-137697780D01*
X130221724Y-137697779D01*
X130372830Y-137661501D01*
X130457742Y-137641115D01*
X130475501Y-137633759D01*
X130681989Y-137548229D01*
X130681993Y-137548227D01*
X130686563Y-137546334D01*
X130897740Y-137416925D01*
X131086073Y-137256073D01*
X131246925Y-137067740D01*
X131376334Y-136856563D01*
X131428638Y-136730292D01*
X131469221Y-136632315D01*
X131469222Y-136632313D01*
X131471115Y-136627742D01*
X131491501Y-136542830D01*
X131527779Y-136391724D01*
X131527780Y-136391718D01*
X131528934Y-136386911D01*
X131548366Y-136140000D01*
X131528934Y-135893089D01*
X131527780Y-135888282D01*
X131527779Y-135888276D01*
X131472270Y-135657070D01*
X131471115Y-135652258D01*
X131444819Y-135588773D01*
X131378229Y-135428011D01*
X131378227Y-135428007D01*
X131376334Y-135423437D01*
X131246925Y-135212260D01*
X131086073Y-135023927D01*
X130897740Y-134863075D01*
X130686563Y-134733666D01*
X130618342Y-134705408D01*
X130563062Y-134660859D01*
X130540641Y-134593496D01*
X130558199Y-134524705D01*
X130610162Y-134476326D01*
X130666561Y-134462999D01*
X130979669Y-134462999D01*
X130986490Y-134462629D01*
X131037352Y-134457105D01*
X131052604Y-134453479D01*
X131173054Y-134408324D01*
X131188649Y-134399786D01*
X131290724Y-134323285D01*
X131303285Y-134310724D01*
X131379786Y-134208649D01*
X131388324Y-134193054D01*
X131433478Y-134072606D01*
X131437105Y-134057351D01*
X131442631Y-134006486D01*
X131443000Y-133999672D01*
X131443000Y-133312115D01*
X131438525Y-133296876D01*
X131437135Y-133295671D01*
X131429452Y-133294000D01*
X128515116Y-133294000D01*
X128499877Y-133298475D01*
X128498672Y-133299865D01*
X128497001Y-133307548D01*
X128497001Y-133999669D01*
X128497371Y-134006490D01*
X128502895Y-134057352D01*
X128506521Y-134072604D01*
X128551676Y-134193054D01*
X128560214Y-134208649D01*
X128636715Y-134310724D01*
X128649276Y-134323285D01*
X128751351Y-134399786D01*
X128766946Y-134408324D01*
X128887394Y-134453478D01*
X128902649Y-134457105D01*
X128953514Y-134462631D01*
X128960328Y-134463000D01*
X129273438Y-134463000D01*
X129341559Y-134483002D01*
X129388052Y-134536658D01*
X129398156Y-134606932D01*
X129368662Y-134671512D01*
X129321657Y-134705408D01*
X129303085Y-134713101D01*
X129258011Y-134731771D01*
X129258007Y-134731773D01*
X129253437Y-134733666D01*
X129042260Y-134863075D01*
X128853927Y-135023927D01*
X128693075Y-135212260D01*
X128563666Y-135423437D01*
X128561773Y-135428007D01*
X128561771Y-135428011D01*
X128495181Y-135588773D01*
X128468885Y-135652258D01*
X128467730Y-135657070D01*
X128412221Y-135888276D01*
X128412220Y-135888282D01*
X128411066Y-135893089D01*
X128391634Y-136140000D01*
X125508500Y-136140000D01*
X125508500Y-132767885D01*
X128497000Y-132767885D01*
X128501475Y-132783124D01*
X128502865Y-132784329D01*
X128510548Y-132786000D01*
X129697885Y-132786000D01*
X129713124Y-132781525D01*
X129714329Y-132780135D01*
X129716000Y-132772452D01*
X129716000Y-131635116D01*
X129711525Y-131619877D01*
X129710135Y-131618672D01*
X129702452Y-131617001D01*
X128960331Y-131617001D01*
X128953510Y-131617371D01*
X128902648Y-131622895D01*
X128887396Y-131626521D01*
X128766946Y-131671676D01*
X128751351Y-131680214D01*
X128649276Y-131756715D01*
X128636715Y-131769276D01*
X128560214Y-131871351D01*
X128551676Y-131886946D01*
X128506522Y-132007394D01*
X128502895Y-132022649D01*
X128497369Y-132073514D01*
X128497000Y-132080328D01*
X128497000Y-132767885D01*
X125508500Y-132767885D01*
X125508500Y-118578594D01*
X125528502Y-118510473D01*
X125582158Y-118463980D01*
X125652432Y-118453876D01*
X125717012Y-118483370D01*
G37*
%TD.AperFunction*%
%TA.AperFunction,Conductor*%
G36*
X138986834Y-122171985D02*
G01*
X139031662Y-122227039D01*
X139041500Y-122275848D01*
X139041500Y-127310004D01*
X139021498Y-127378125D01*
X139004595Y-127399099D01*
X136511089Y-129892605D01*
X136496677Y-129904991D01*
X136485082Y-129913524D01*
X136485077Y-129913529D01*
X136479182Y-129917867D01*
X136474443Y-129923445D01*
X136474440Y-129923448D01*
X136444965Y-129958143D01*
X136438035Y-129965659D01*
X136432340Y-129971354D01*
X136430060Y-129974236D01*
X136414719Y-129993626D01*
X136411928Y-129997030D01*
X136378197Y-130036734D01*
X136364667Y-130052660D01*
X136361339Y-130059176D01*
X136357972Y-130064225D01*
X136354805Y-130069354D01*
X136350266Y-130075091D01*
X136319345Y-130141250D01*
X136317442Y-130145144D01*
X136284231Y-130210183D01*
X136282492Y-130217291D01*
X136280393Y-130222934D01*
X136278476Y-130228697D01*
X136275378Y-130235325D01*
X136273888Y-130242487D01*
X136273888Y-130242488D01*
X136260514Y-130306787D01*
X136259544Y-130311071D01*
X136242192Y-130381985D01*
X136241500Y-130393139D01*
X136241464Y-130393137D01*
X136241225Y-130397130D01*
X136240851Y-130401322D01*
X136239360Y-130408490D01*
X136239558Y-130415807D01*
X136241454Y-130485896D01*
X136241500Y-130489303D01*
X136241500Y-144196430D01*
X136240067Y-144215380D01*
X136238437Y-144226096D01*
X136236801Y-144236849D01*
X136237394Y-144244141D01*
X136237394Y-144244144D01*
X136241085Y-144289518D01*
X136241500Y-144299733D01*
X136241500Y-144307793D01*
X136241925Y-144311437D01*
X136244789Y-144336007D01*
X136245222Y-144340382D01*
X136251140Y-144413137D01*
X136253396Y-144420101D01*
X136254587Y-144426060D01*
X136255971Y-144431915D01*
X136256818Y-144439181D01*
X136281735Y-144507827D01*
X136283152Y-144511955D01*
X136305649Y-144581399D01*
X136309445Y-144587654D01*
X136311951Y-144593128D01*
X136314670Y-144598558D01*
X136317167Y-144605437D01*
X136321180Y-144611557D01*
X136321180Y-144611558D01*
X136357186Y-144666476D01*
X136359523Y-144670180D01*
X136397405Y-144732607D01*
X136401121Y-144736815D01*
X136401122Y-144736816D01*
X136404803Y-144740984D01*
X136404776Y-144741008D01*
X136407429Y-144744000D01*
X136410132Y-144747233D01*
X136414144Y-144753352D01*
X136419456Y-144758384D01*
X136470383Y-144806628D01*
X136472825Y-144809006D01*
X137352095Y-145688276D01*
X137386121Y-145750588D01*
X137389000Y-145777371D01*
X137389000Y-146661400D01*
X137389337Y-146664646D01*
X137389337Y-146664650D01*
X137394798Y-146717277D01*
X137399974Y-146767166D01*
X137402155Y-146773702D01*
X137402155Y-146773704D01*
X137446228Y-146905806D01*
X137455950Y-146934946D01*
X137549022Y-147085348D01*
X137674197Y-147210305D01*
X137680427Y-147214145D01*
X137680428Y-147214146D01*
X137817590Y-147298694D01*
X137824762Y-147303115D01*
X137878871Y-147321062D01*
X137986111Y-147356632D01*
X137986113Y-147356632D01*
X137992639Y-147358797D01*
X137999475Y-147359497D01*
X137999478Y-147359498D01*
X138038872Y-147363534D01*
X138097100Y-147369500D01*
X139397900Y-147369500D01*
X139401146Y-147369163D01*
X139401150Y-147369163D01*
X139496808Y-147359238D01*
X139496812Y-147359237D01*
X139503666Y-147358526D01*
X139510202Y-147356345D01*
X139510204Y-147356345D01*
X139642306Y-147312272D01*
X139671446Y-147302550D01*
X139821848Y-147209478D01*
X139946805Y-147084303D01*
X140039615Y-146933738D01*
X140041918Y-146926795D01*
X140044263Y-146921766D01*
X140091180Y-146868481D01*
X140159458Y-146849021D01*
X140227418Y-146869564D01*
X140253694Y-146892520D01*
X140330360Y-146981025D01*
X140333750Y-146984938D01*
X140505626Y-147127632D01*
X140698500Y-147240338D01*
X140907192Y-147320030D01*
X140912260Y-147321061D01*
X140912263Y-147321062D01*
X141019517Y-147342883D01*
X141126097Y-147364567D01*
X141131272Y-147364757D01*
X141131274Y-147364757D01*
X141344173Y-147372564D01*
X141344177Y-147372564D01*
X141349337Y-147372753D01*
X141354457Y-147372097D01*
X141354459Y-147372097D01*
X141565788Y-147345025D01*
X141565789Y-147345025D01*
X141570916Y-147344368D01*
X141575866Y-147342883D01*
X141779929Y-147281661D01*
X141779934Y-147281659D01*
X141784884Y-147280174D01*
X141985494Y-147181896D01*
X142167360Y-147052173D01*
X142325596Y-146894489D01*
X142455953Y-146713077D01*
X142483108Y-146658134D01*
X142552636Y-146517453D01*
X142552637Y-146517451D01*
X142554930Y-146512811D01*
X142619870Y-146299069D01*
X142649029Y-146077590D01*
X142650656Y-146011000D01*
X142632352Y-145788361D01*
X142577931Y-145571702D01*
X142488854Y-145366840D01*
X142367514Y-145179277D01*
X142217170Y-145014051D01*
X142213119Y-145010852D01*
X142213115Y-145010848D01*
X142045914Y-144878800D01*
X142045910Y-144878798D01*
X142041859Y-144875598D01*
X142000069Y-144852529D01*
X141950098Y-144802097D01*
X141935326Y-144732654D01*
X141960442Y-144666248D01*
X141987793Y-144639642D01*
X142036747Y-144604723D01*
X142045148Y-144594023D01*
X142038160Y-144580870D01*
X141300312Y-143843022D01*
X141286368Y-143835408D01*
X141284535Y-143835539D01*
X141277920Y-143839790D01*
X140534237Y-144583473D01*
X140527477Y-144595853D01*
X140532758Y-144602907D01*
X140579469Y-144630203D01*
X140628193Y-144681841D01*
X140641264Y-144751624D01*
X140614533Y-144817396D01*
X140574084Y-144850752D01*
X140561107Y-144857507D01*
X140556974Y-144860610D01*
X140556971Y-144860612D01*
X140386600Y-144988530D01*
X140382465Y-144991635D01*
X140291281Y-145087054D01*
X140248527Y-145131793D01*
X140187003Y-145167223D01*
X140116090Y-145163766D01*
X140058304Y-145122520D01*
X140043333Y-145098194D01*
X140041365Y-145093994D01*
X140039050Y-145087054D01*
X139945978Y-144936652D01*
X139820803Y-144811695D01*
X139726154Y-144753352D01*
X139676468Y-144722725D01*
X139676466Y-144722724D01*
X139670238Y-144718885D01*
X139616474Y-144701052D01*
X139595140Y-144693976D01*
X139536780Y-144653545D01*
X139526229Y-144628146D01*
X139523924Y-144629370D01*
X139498160Y-144580870D01*
X138477385Y-143560095D01*
X138443359Y-143497783D01*
X138445194Y-143472132D01*
X139111908Y-143472132D01*
X139112039Y-143473965D01*
X139116290Y-143480580D01*
X139857974Y-144222264D01*
X139869984Y-144228823D01*
X139881723Y-144219855D01*
X139915522Y-144172819D01*
X139916649Y-144173629D01*
X139964159Y-144129881D01*
X140034096Y-144117661D01*
X140099538Y-144145191D01*
X140127370Y-144177029D01*
X140153959Y-144220419D01*
X140164416Y-144229880D01*
X140173194Y-144226096D01*
X140915478Y-143483812D01*
X140921856Y-143472132D01*
X141651908Y-143472132D01*
X141652039Y-143473965D01*
X141656290Y-143480580D01*
X142397974Y-144222264D01*
X142409984Y-144228823D01*
X142421723Y-144219855D01*
X142452504Y-144177019D01*
X142457815Y-144168180D01*
X142552170Y-143977267D01*
X142555969Y-143967672D01*
X142617876Y-143763915D01*
X142620055Y-143753834D01*
X142648090Y-143540887D01*
X142648609Y-143534212D01*
X142650072Y-143474364D01*
X142649878Y-143467646D01*
X142632281Y-143253604D01*
X142630596Y-143243424D01*
X142578714Y-143036875D01*
X142575394Y-143027124D01*
X142490472Y-142831814D01*
X142485605Y-142822739D01*
X142420563Y-142722197D01*
X142409877Y-142712995D01*
X142400312Y-142717398D01*
X141659522Y-143458188D01*
X141651908Y-143472132D01*
X140921856Y-143472132D01*
X140923092Y-143469868D01*
X140922961Y-143468035D01*
X140918710Y-143461420D01*
X140177349Y-142720059D01*
X140165813Y-142713759D01*
X140153528Y-142723384D01*
X140120692Y-142771520D01*
X140065781Y-142816523D01*
X139995256Y-142824694D01*
X139931509Y-142793440D01*
X139910811Y-142768955D01*
X139880562Y-142722197D01*
X139869877Y-142712995D01*
X139860312Y-142717398D01*
X139119522Y-143458188D01*
X139111908Y-143472132D01*
X138445194Y-143472132D01*
X138448424Y-143426968D01*
X138477385Y-143381905D01*
X139500889Y-142358401D01*
X139507910Y-142345544D01*
X139501111Y-142336213D01*
X139497059Y-142333521D01*
X139459616Y-142312852D01*
X139409645Y-142262420D01*
X139394873Y-142192977D01*
X139419989Y-142126572D01*
X139447340Y-142099965D01*
X139496747Y-142064723D01*
X139503711Y-142055853D01*
X140527477Y-142055853D01*
X140532758Y-142062907D01*
X140579979Y-142090501D01*
X140628703Y-142142139D01*
X140641774Y-142211922D01*
X140615043Y-142277694D01*
X140574587Y-142311053D01*
X140565966Y-142315541D01*
X140557234Y-142321039D01*
X140537177Y-142336099D01*
X140528723Y-142347427D01*
X140535468Y-142359758D01*
X141274688Y-143098978D01*
X141288632Y-143106592D01*
X141290465Y-143106461D01*
X141297080Y-143102210D01*
X142040889Y-142358401D01*
X142047910Y-142345544D01*
X142041111Y-142336213D01*
X142037059Y-142333521D01*
X141999616Y-142312852D01*
X141949645Y-142262420D01*
X141934873Y-142192977D01*
X141959989Y-142126572D01*
X141987340Y-142099965D01*
X142036747Y-142064723D01*
X142045148Y-142054023D01*
X142038160Y-142040870D01*
X141300312Y-141303022D01*
X141286368Y-141295408D01*
X141284535Y-141295539D01*
X141277920Y-141299790D01*
X140534237Y-142043473D01*
X140527477Y-142055853D01*
X139503711Y-142055853D01*
X139505148Y-142054023D01*
X139498160Y-142040870D01*
X138477385Y-141020095D01*
X138443359Y-140957783D01*
X138445194Y-140932132D01*
X139111908Y-140932132D01*
X139112039Y-140933965D01*
X139116290Y-140940580D01*
X139857974Y-141682264D01*
X139869984Y-141688823D01*
X139881723Y-141679855D01*
X139915522Y-141632819D01*
X139916649Y-141633629D01*
X139964159Y-141589881D01*
X140034096Y-141577661D01*
X140099538Y-141605191D01*
X140127370Y-141637029D01*
X140153959Y-141680419D01*
X140164416Y-141689880D01*
X140173194Y-141686096D01*
X140915478Y-140943812D01*
X140921856Y-140932132D01*
X141651908Y-140932132D01*
X141652039Y-140933965D01*
X141656290Y-140940580D01*
X142397974Y-141682264D01*
X142409984Y-141688823D01*
X142421723Y-141679855D01*
X142452504Y-141637019D01*
X142457815Y-141628180D01*
X142552170Y-141437267D01*
X142555969Y-141427672D01*
X142617876Y-141223915D01*
X142620055Y-141213834D01*
X142648090Y-141000887D01*
X142648609Y-140994212D01*
X142650072Y-140934364D01*
X142649878Y-140927646D01*
X142632281Y-140713604D01*
X142630596Y-140703424D01*
X142578714Y-140496875D01*
X142575394Y-140487124D01*
X142490472Y-140291814D01*
X142485605Y-140282739D01*
X142420563Y-140182197D01*
X142409877Y-140172995D01*
X142400312Y-140177398D01*
X141659522Y-140918188D01*
X141651908Y-140932132D01*
X140921856Y-140932132D01*
X140923092Y-140929868D01*
X140922961Y-140928035D01*
X140918710Y-140921420D01*
X140177349Y-140180059D01*
X140165813Y-140173759D01*
X140153528Y-140183384D01*
X140120692Y-140231520D01*
X140065781Y-140276523D01*
X139995256Y-140284694D01*
X139931509Y-140253440D01*
X139910811Y-140228955D01*
X139880562Y-140182197D01*
X139869877Y-140172995D01*
X139860312Y-140177398D01*
X139119522Y-140918188D01*
X139111908Y-140932132D01*
X138445194Y-140932132D01*
X138448424Y-140886968D01*
X138477385Y-140841905D01*
X139500889Y-139818401D01*
X139507910Y-139805544D01*
X139501111Y-139796213D01*
X139497059Y-139793521D01*
X139459616Y-139772852D01*
X139409645Y-139722420D01*
X139394873Y-139652977D01*
X139419989Y-139586572D01*
X139447340Y-139559965D01*
X139496747Y-139524723D01*
X139503711Y-139515853D01*
X140527477Y-139515853D01*
X140532758Y-139522907D01*
X140579979Y-139550501D01*
X140628703Y-139602139D01*
X140641774Y-139671922D01*
X140615043Y-139737694D01*
X140574587Y-139771053D01*
X140565966Y-139775541D01*
X140557234Y-139781039D01*
X140537177Y-139796099D01*
X140528723Y-139807427D01*
X140535468Y-139819758D01*
X141274688Y-140558978D01*
X141288632Y-140566592D01*
X141290465Y-140566461D01*
X141297080Y-140562210D01*
X142040889Y-139818401D01*
X142047910Y-139805544D01*
X142041111Y-139796213D01*
X142037059Y-139793521D01*
X141999616Y-139772852D01*
X141949645Y-139722420D01*
X141934873Y-139652977D01*
X141959989Y-139586572D01*
X141987340Y-139559965D01*
X142036747Y-139524723D01*
X142045148Y-139514023D01*
X142038160Y-139500870D01*
X141300312Y-138763022D01*
X141286368Y-138755408D01*
X141284535Y-138755539D01*
X141277920Y-138759790D01*
X140534237Y-139503473D01*
X140527477Y-139515853D01*
X139503711Y-139515853D01*
X139505148Y-139514023D01*
X139498160Y-139500870D01*
X138477385Y-138480095D01*
X138443359Y-138417783D01*
X138445194Y-138392132D01*
X139111908Y-138392132D01*
X139112039Y-138393965D01*
X139116290Y-138400580D01*
X139857974Y-139142264D01*
X139869984Y-139148823D01*
X139881723Y-139139855D01*
X139915522Y-139092819D01*
X139916649Y-139093629D01*
X139964159Y-139049881D01*
X140034096Y-139037661D01*
X140099538Y-139065191D01*
X140127370Y-139097029D01*
X140153959Y-139140419D01*
X140164416Y-139149880D01*
X140173194Y-139146096D01*
X140915478Y-138403812D01*
X140921856Y-138392132D01*
X141651908Y-138392132D01*
X141652039Y-138393965D01*
X141656290Y-138400580D01*
X142397974Y-139142264D01*
X142409984Y-139148823D01*
X142421723Y-139139855D01*
X142452504Y-139097019D01*
X142457815Y-139088180D01*
X142552170Y-138897267D01*
X142555969Y-138887672D01*
X142617876Y-138683915D01*
X142620055Y-138673834D01*
X142648090Y-138460887D01*
X142648609Y-138454212D01*
X142650072Y-138394364D01*
X142649878Y-138387646D01*
X142632281Y-138173604D01*
X142630596Y-138163424D01*
X142578714Y-137956875D01*
X142575394Y-137947124D01*
X142490472Y-137751814D01*
X142485605Y-137742739D01*
X142420563Y-137642197D01*
X142409877Y-137632995D01*
X142400312Y-137637398D01*
X141659522Y-138378188D01*
X141651908Y-138392132D01*
X140921856Y-138392132D01*
X140923092Y-138389868D01*
X140922961Y-138388035D01*
X140918710Y-138381420D01*
X140177349Y-137640059D01*
X140165813Y-137633759D01*
X140153528Y-137643384D01*
X140120692Y-137691520D01*
X140065781Y-137736523D01*
X139995256Y-137744694D01*
X139931509Y-137713440D01*
X139910811Y-137688955D01*
X139880562Y-137642197D01*
X139869877Y-137632995D01*
X139860312Y-137637398D01*
X139119522Y-138378188D01*
X139111908Y-138392132D01*
X138445194Y-138392132D01*
X138448424Y-138346968D01*
X138477385Y-138301905D01*
X139500889Y-137278401D01*
X139507910Y-137265544D01*
X139501111Y-137256213D01*
X139497059Y-137253521D01*
X139460102Y-137233120D01*
X139410131Y-137182687D01*
X139395359Y-137113245D01*
X139420475Y-137046839D01*
X139447827Y-137020232D01*
X139471297Y-137003491D01*
X139627360Y-136892173D01*
X139785596Y-136734489D01*
X139837703Y-136661974D01*
X139893698Y-136618326D01*
X139940026Y-136609500D01*
X140089991Y-136609500D01*
X140158112Y-136629502D01*
X140186902Y-136656595D01*
X140187487Y-136656088D01*
X140333750Y-136824938D01*
X140505626Y-136967632D01*
X140579455Y-137010774D01*
X140628179Y-137062412D01*
X140641250Y-137132195D01*
X140614519Y-137197967D01*
X140574062Y-137231327D01*
X140565960Y-137235544D01*
X140557234Y-137241039D01*
X140537177Y-137256099D01*
X140528723Y-137267427D01*
X140535468Y-137279758D01*
X141274688Y-138018978D01*
X141288632Y-138026592D01*
X141290465Y-138026461D01*
X141297080Y-138022210D01*
X142040889Y-137278401D01*
X142047910Y-137265544D01*
X142041111Y-137256213D01*
X142037059Y-137253521D01*
X142000102Y-137233120D01*
X141950131Y-137182687D01*
X141935359Y-137113245D01*
X141960475Y-137046839D01*
X141987827Y-137020232D01*
X142011297Y-137003491D01*
X142167360Y-136892173D01*
X142325596Y-136734489D01*
X142455953Y-136553077D01*
X142540516Y-136381977D01*
X142552636Y-136357453D01*
X142552637Y-136357451D01*
X142554930Y-136352811D01*
X142619870Y-136139069D01*
X142649029Y-135917590D01*
X142650656Y-135851000D01*
X142633370Y-135640747D01*
X142647723Y-135571219D01*
X142669851Y-135541330D01*
X144276405Y-133934776D01*
X144338717Y-133900750D01*
X144409532Y-133905815D01*
X144466368Y-133948362D01*
X144491179Y-134014882D01*
X144491500Y-134023871D01*
X144491500Y-164874000D01*
X144471498Y-164942121D01*
X144417842Y-164988614D01*
X144365500Y-165000000D01*
X141672888Y-165000000D01*
X141604767Y-164979998D01*
X141558274Y-164926342D01*
X141548170Y-164856068D01*
X141550370Y-164844585D01*
X141557777Y-164813733D01*
X141557778Y-164813725D01*
X141558934Y-164808911D01*
X141578366Y-164562000D01*
X141558934Y-164315089D01*
X141557780Y-164310282D01*
X141557779Y-164310276D01*
X141502270Y-164079070D01*
X141501115Y-164074258D01*
X141499221Y-164069685D01*
X141408229Y-163850011D01*
X141408227Y-163850007D01*
X141406334Y-163845437D01*
X141276925Y-163634260D01*
X141116073Y-163445927D01*
X140927740Y-163285075D01*
X140716563Y-163155666D01*
X140711993Y-163153773D01*
X140711989Y-163153771D01*
X140492315Y-163062779D01*
X140492313Y-163062778D01*
X140487742Y-163060885D01*
X140383082Y-163035758D01*
X140251724Y-163004221D01*
X140251718Y-163004220D01*
X140246911Y-163003066D01*
X140000000Y-162983634D01*
X139753089Y-163003066D01*
X139748282Y-163004220D01*
X139748276Y-163004221D01*
X139616918Y-163035758D01*
X139512258Y-163060885D01*
X139507073Y-163063033D01*
X139506978Y-163063072D01*
X139506688Y-163063103D01*
X139502977Y-163064309D01*
X139502724Y-163063529D01*
X139436389Y-163070662D01*
X139369663Y-163035759D01*
X136870405Y-160536500D01*
X136836379Y-160474188D01*
X136833500Y-160447405D01*
X136833500Y-156262000D01*
X138421634Y-156262000D01*
X138441066Y-156508911D01*
X138442220Y-156513718D01*
X138442221Y-156513724D01*
X138478499Y-156664830D01*
X138498885Y-156749742D01*
X138593666Y-156978563D01*
X138723075Y-157189740D01*
X138883927Y-157378073D01*
X139072260Y-157538925D01*
X139283437Y-157668334D01*
X139288007Y-157670227D01*
X139288011Y-157670229D01*
X139507685Y-157761221D01*
X139512258Y-157763115D01*
X139597170Y-157783501D01*
X139748276Y-157819779D01*
X139748282Y-157819780D01*
X139753089Y-157820934D01*
X140000000Y-157840366D01*
X140246911Y-157820934D01*
X140251718Y-157819780D01*
X140251724Y-157819779D01*
X140402830Y-157783501D01*
X140487742Y-157763115D01*
X140492315Y-157761221D01*
X140711989Y-157670229D01*
X140711993Y-157670227D01*
X140716563Y-157668334D01*
X140927740Y-157538925D01*
X141116073Y-157378073D01*
X141276925Y-157189740D01*
X141406334Y-156978563D01*
X141501115Y-156749742D01*
X141521501Y-156664830D01*
X141557779Y-156513724D01*
X141557780Y-156513718D01*
X141558934Y-156508911D01*
X141578366Y-156262000D01*
X141558934Y-156015089D01*
X141557780Y-156010282D01*
X141557779Y-156010276D01*
X141502270Y-155779070D01*
X141501115Y-155774258D01*
X141406334Y-155545437D01*
X141276925Y-155334260D01*
X141116073Y-155145927D01*
X140927740Y-154985075D01*
X140716563Y-154855666D01*
X140648342Y-154827408D01*
X140593062Y-154782859D01*
X140570641Y-154715496D01*
X140588199Y-154646705D01*
X140640162Y-154598326D01*
X140696561Y-154584999D01*
X141009669Y-154584999D01*
X141016490Y-154584629D01*
X141067352Y-154579105D01*
X141082604Y-154575479D01*
X141203054Y-154530324D01*
X141218649Y-154521786D01*
X141320724Y-154445285D01*
X141333285Y-154432724D01*
X141409786Y-154330649D01*
X141418324Y-154315054D01*
X141463478Y-154194606D01*
X141467105Y-154179351D01*
X141472631Y-154128486D01*
X141473000Y-154121672D01*
X141473000Y-153434115D01*
X141468525Y-153418876D01*
X141467135Y-153417671D01*
X141459452Y-153416000D01*
X138545116Y-153416000D01*
X138529877Y-153420475D01*
X138528672Y-153421865D01*
X138527001Y-153429548D01*
X138527001Y-154121669D01*
X138527371Y-154128490D01*
X138532895Y-154179352D01*
X138536521Y-154194604D01*
X138581676Y-154315054D01*
X138590214Y-154330649D01*
X138666715Y-154432724D01*
X138679276Y-154445285D01*
X138781351Y-154521786D01*
X138796946Y-154530324D01*
X138917394Y-154575478D01*
X138932649Y-154579105D01*
X138983514Y-154584631D01*
X138990328Y-154585000D01*
X139303438Y-154585000D01*
X139371559Y-154605002D01*
X139418052Y-154658658D01*
X139428156Y-154728932D01*
X139398662Y-154793512D01*
X139351657Y-154827408D01*
X139323360Y-154839129D01*
X139288011Y-154853771D01*
X139288007Y-154853773D01*
X139283437Y-154855666D01*
X139072260Y-154985075D01*
X138883927Y-155145927D01*
X138723075Y-155334260D01*
X138593666Y-155545437D01*
X138498885Y-155774258D01*
X138497730Y-155779070D01*
X138442221Y-156010276D01*
X138442220Y-156010282D01*
X138441066Y-156015089D01*
X138421634Y-156262000D01*
X136833500Y-156262000D01*
X136833500Y-152889885D01*
X138527000Y-152889885D01*
X138531475Y-152905124D01*
X138532865Y-152906329D01*
X138540548Y-152908000D01*
X139727885Y-152908000D01*
X139743124Y-152903525D01*
X139744329Y-152902135D01*
X139746000Y-152894452D01*
X139746000Y-152889885D01*
X140254000Y-152889885D01*
X140258475Y-152905124D01*
X140259865Y-152906329D01*
X140267548Y-152908000D01*
X141454884Y-152908000D01*
X141470123Y-152903525D01*
X141471328Y-152902135D01*
X141472999Y-152894452D01*
X141472999Y-152202331D01*
X141472629Y-152195510D01*
X141467105Y-152144648D01*
X141463479Y-152129396D01*
X141418324Y-152008946D01*
X141409786Y-151993351D01*
X141333285Y-151891276D01*
X141320724Y-151878715D01*
X141218649Y-151802214D01*
X141203054Y-151793676D01*
X141082606Y-151748522D01*
X141067351Y-151744895D01*
X141016486Y-151739369D01*
X141009672Y-151739000D01*
X140272115Y-151739000D01*
X140256876Y-151743475D01*
X140255671Y-151744865D01*
X140254000Y-151752548D01*
X140254000Y-152889885D01*
X139746000Y-152889885D01*
X139746000Y-151757116D01*
X139741525Y-151741877D01*
X139740135Y-151740672D01*
X139732452Y-151739001D01*
X138990331Y-151739001D01*
X138983510Y-151739371D01*
X138932648Y-151744895D01*
X138917396Y-151748521D01*
X138796946Y-151793676D01*
X138781351Y-151802214D01*
X138679276Y-151878715D01*
X138666715Y-151891276D01*
X138590214Y-151993351D01*
X138581676Y-152008946D01*
X138536522Y-152129394D01*
X138532895Y-152144649D01*
X138527369Y-152195514D01*
X138527000Y-152202328D01*
X138527000Y-152889885D01*
X136833500Y-152889885D01*
X136833500Y-149778767D01*
X136834027Y-149767584D01*
X136835702Y-149760091D01*
X136833562Y-149692000D01*
X136833500Y-149688043D01*
X136833500Y-149660144D01*
X136832996Y-149656153D01*
X136832063Y-149644311D01*
X136830923Y-149608036D01*
X136830674Y-149600111D01*
X136828462Y-149592497D01*
X136828461Y-149592492D01*
X136825023Y-149580659D01*
X136821012Y-149561295D01*
X136819467Y-149549064D01*
X136818474Y-149541203D01*
X136815557Y-149533836D01*
X136815556Y-149533831D01*
X136802198Y-149500092D01*
X136798354Y-149488865D01*
X136788230Y-149454022D01*
X136786018Y-149446407D01*
X136775707Y-149428972D01*
X136767012Y-149411224D01*
X136759552Y-149392383D01*
X136733564Y-149356613D01*
X136727048Y-149346693D01*
X136708580Y-149315465D01*
X136708578Y-149315462D01*
X136704542Y-149308638D01*
X136690221Y-149294317D01*
X136677380Y-149279283D01*
X136670131Y-149269306D01*
X136665472Y-149262893D01*
X136631395Y-149234702D01*
X136622616Y-149226712D01*
X134670405Y-147274500D01*
X134636379Y-147212188D01*
X134633500Y-147185405D01*
X134633500Y-132864964D01*
X134653502Y-132796843D01*
X134693196Y-132757821D01*
X134704031Y-132751116D01*
X134744868Y-132710208D01*
X134821758Y-132633184D01*
X134821762Y-132633179D01*
X134826929Y-132628003D01*
X134830770Y-132621772D01*
X134914369Y-132486150D01*
X134914370Y-132486148D01*
X134918209Y-132479920D01*
X134972974Y-132314809D01*
X134983500Y-132212072D01*
X134983500Y-131612928D01*
X134972707Y-131508907D01*
X134917654Y-131343893D01*
X134826116Y-131195969D01*
X134820934Y-131190796D01*
X134719214Y-131089253D01*
X134685135Y-131026970D01*
X134690138Y-130956150D01*
X134719059Y-130911063D01*
X134821754Y-130808188D01*
X134821758Y-130808183D01*
X134826929Y-130803003D01*
X134834602Y-130790556D01*
X134912383Y-130664371D01*
X134945587Y-130628547D01*
X134955893Y-130621060D01*
X134965809Y-130614547D01*
X134997034Y-130596080D01*
X135003862Y-130592042D01*
X135018183Y-130577721D01*
X135033217Y-130564880D01*
X135043194Y-130557631D01*
X135049607Y-130552972D01*
X135077798Y-130518895D01*
X135085788Y-130510116D01*
X136250499Y-129345405D01*
X136312811Y-129311379D01*
X136339594Y-129308500D01*
X136395487Y-129308500D01*
X136401939Y-129307128D01*
X136401944Y-129307128D01*
X136488887Y-129288647D01*
X136582288Y-129268794D01*
X136698162Y-129217204D01*
X136750722Y-129193803D01*
X136750724Y-129193802D01*
X136756752Y-129191118D01*
X136911253Y-129078866D01*
X137010366Y-128968790D01*
X137034621Y-128941852D01*
X137034622Y-128941851D01*
X137039040Y-128936944D01*
X137134527Y-128771556D01*
X137193542Y-128589928D01*
X137213504Y-128400000D01*
X137196224Y-128235592D01*
X137194232Y-128216635D01*
X137194232Y-128216633D01*
X137193542Y-128210072D01*
X137134527Y-128028444D01*
X137039040Y-127863056D01*
X137021724Y-127843824D01*
X136915675Y-127726045D01*
X136915674Y-127726044D01*
X136911253Y-127721134D01*
X136795920Y-127637339D01*
X136762094Y-127612763D01*
X136762093Y-127612762D01*
X136756752Y-127608882D01*
X136750724Y-127606198D01*
X136750722Y-127606197D01*
X136588319Y-127533891D01*
X136588318Y-127533891D01*
X136582288Y-127531206D01*
X136488887Y-127511353D01*
X136401944Y-127492872D01*
X136401939Y-127492872D01*
X136395487Y-127491500D01*
X136204513Y-127491500D01*
X136198061Y-127492872D01*
X136198056Y-127492872D01*
X136111113Y-127511353D01*
X136017712Y-127531206D01*
X136011682Y-127533891D01*
X136011681Y-127533891D01*
X135849278Y-127606197D01*
X135849276Y-127606198D01*
X135843248Y-127608882D01*
X135837907Y-127612762D01*
X135837906Y-127612763D01*
X135804080Y-127637339D01*
X135688747Y-127721134D01*
X135684326Y-127726044D01*
X135684325Y-127726045D01*
X135578277Y-127843824D01*
X135560960Y-127863056D01*
X135465473Y-128028444D01*
X135463431Y-128034729D01*
X135430497Y-128136089D01*
X135390424Y-128194695D01*
X135325027Y-128222332D01*
X135255070Y-128210225D01*
X135202764Y-128162219D01*
X135189322Y-128122079D01*
X135187373Y-128122500D01*
X135185918Y-128115764D01*
X135185207Y-128108907D01*
X135182266Y-128100090D01*
X135132472Y-127950841D01*
X135130154Y-127943893D01*
X135051263Y-127816407D01*
X135032427Y-127747957D01*
X135051149Y-127683990D01*
X135126869Y-127561150D01*
X135126870Y-127561148D01*
X135130709Y-127554920D01*
X135185474Y-127389809D01*
X135196000Y-127287072D01*
X135196000Y-126712928D01*
X135185207Y-126608907D01*
X135130154Y-126443893D01*
X135051263Y-126316407D01*
X135032427Y-126247957D01*
X135051149Y-126183990D01*
X135126869Y-126061150D01*
X135126870Y-126061148D01*
X135130709Y-126054920D01*
X135185474Y-125889809D01*
X135196000Y-125787072D01*
X135196000Y-125212928D01*
X135185207Y-125108907D01*
X135130154Y-124943893D01*
X135038616Y-124795969D01*
X135033434Y-124790796D01*
X134920684Y-124678242D01*
X134920679Y-124678238D01*
X134915503Y-124673071D01*
X134767420Y-124581791D01*
X134602309Y-124527026D01*
X134595473Y-124526326D01*
X134595470Y-124526325D01*
X134543974Y-124521049D01*
X134499572Y-124516500D01*
X134014594Y-124516500D01*
X133946473Y-124496498D01*
X133925499Y-124479595D01*
X132623999Y-123178095D01*
X132589973Y-123115783D01*
X132595038Y-123044968D01*
X132637585Y-122988132D01*
X132704105Y-122963321D01*
X132713094Y-122963000D01*
X133504669Y-122962999D01*
X133511490Y-122962629D01*
X133562352Y-122957105D01*
X133577604Y-122953479D01*
X133698054Y-122908324D01*
X133713649Y-122899786D01*
X133815724Y-122823285D01*
X133828285Y-122810724D01*
X133904786Y-122708649D01*
X133913325Y-122693052D01*
X133925278Y-122661167D01*
X133967919Y-122604402D01*
X134034480Y-122579702D01*
X134103829Y-122594909D01*
X134123741Y-122608448D01*
X134249349Y-122712730D01*
X134449322Y-122829584D01*
X134665694Y-122912209D01*
X134670760Y-122913240D01*
X134670761Y-122913240D01*
X134723846Y-122924040D01*
X134892656Y-122958385D01*
X135023324Y-122963176D01*
X135118949Y-122966683D01*
X135118953Y-122966683D01*
X135124113Y-122966872D01*
X135129233Y-122966216D01*
X135129235Y-122966216D01*
X135228660Y-122953479D01*
X135353847Y-122937442D01*
X135358795Y-122935957D01*
X135358802Y-122935956D01*
X135570747Y-122872369D01*
X135575690Y-122870886D01*
X135656236Y-122831427D01*
X135779049Y-122771262D01*
X135779052Y-122771260D01*
X135783684Y-122768991D01*
X135972243Y-122634494D01*
X136136303Y-122471005D01*
X136205370Y-122374888D01*
X136261365Y-122331240D01*
X136332068Y-122324794D01*
X136395033Y-122357597D01*
X136415128Y-122382584D01*
X136416799Y-122385311D01*
X136416804Y-122385317D01*
X136419501Y-122389719D01*
X136571147Y-122564784D01*
X136749349Y-122712730D01*
X136949322Y-122829584D01*
X137165694Y-122912209D01*
X137170760Y-122913240D01*
X137170761Y-122913240D01*
X137223846Y-122924040D01*
X137392656Y-122958385D01*
X137523324Y-122963176D01*
X137618949Y-122966683D01*
X137618953Y-122966683D01*
X137624113Y-122966872D01*
X137629233Y-122966216D01*
X137629235Y-122966216D01*
X137728660Y-122953479D01*
X137853847Y-122937442D01*
X137858795Y-122935957D01*
X137858802Y-122935956D01*
X138070747Y-122872369D01*
X138075690Y-122870886D01*
X138156236Y-122831427D01*
X138279049Y-122771262D01*
X138279052Y-122771260D01*
X138283684Y-122768991D01*
X138472243Y-122634494D01*
X138636303Y-122471005D01*
X138771458Y-122282917D01*
X138799075Y-122227039D01*
X138802543Y-122220021D01*
X138850656Y-122167814D01*
X138919358Y-122149907D01*
X138986834Y-122171985D01*
G37*
%TD.AperFunction*%
%TA.AperFunction,Conductor*%
G36*
X135484532Y-160077538D02*
G01*
X135541368Y-160120085D01*
X135566179Y-160186605D01*
X135566500Y-160195594D01*
X135566500Y-160683233D01*
X135565973Y-160694416D01*
X135564298Y-160701909D01*
X135564547Y-160709835D01*
X135564547Y-160709836D01*
X135566438Y-160769986D01*
X135566500Y-160773945D01*
X135566500Y-160801856D01*
X135566997Y-160805790D01*
X135566997Y-160805791D01*
X135567005Y-160805856D01*
X135567938Y-160817693D01*
X135569327Y-160861889D01*
X135574978Y-160881339D01*
X135578987Y-160900700D01*
X135581526Y-160920797D01*
X135584445Y-160928168D01*
X135584445Y-160928170D01*
X135597804Y-160961912D01*
X135601649Y-160973142D01*
X135613982Y-161015593D01*
X135618015Y-161022412D01*
X135618017Y-161022417D01*
X135624293Y-161033028D01*
X135632988Y-161050776D01*
X135640448Y-161069617D01*
X135645110Y-161076033D01*
X135645110Y-161076034D01*
X135666436Y-161105387D01*
X135672952Y-161115307D01*
X135695458Y-161153362D01*
X135709779Y-161167683D01*
X135722619Y-161182716D01*
X135734528Y-161199107D01*
X135740634Y-161204158D01*
X135768605Y-161227298D01*
X135777384Y-161235288D01*
X138473759Y-163931663D01*
X138507785Y-163993975D01*
X138501455Y-164064699D01*
X138502309Y-164064977D01*
X138501096Y-164068710D01*
X138501072Y-164068978D01*
X138498885Y-164074258D01*
X138497730Y-164079070D01*
X138442221Y-164310276D01*
X138442220Y-164310282D01*
X138441066Y-164315089D01*
X138421634Y-164562000D01*
X138441066Y-164808911D01*
X138442222Y-164813725D01*
X138442223Y-164813733D01*
X138449630Y-164844585D01*
X138446084Y-164915493D01*
X138404765Y-164973227D01*
X138338791Y-164999458D01*
X138327112Y-165000000D01*
X131672888Y-165000000D01*
X131604767Y-164979998D01*
X131558274Y-164926342D01*
X131548170Y-164856068D01*
X131550370Y-164844585D01*
X131557777Y-164813733D01*
X131557778Y-164813725D01*
X131558934Y-164808911D01*
X131578366Y-164562000D01*
X131558934Y-164315089D01*
X131557780Y-164310282D01*
X131557779Y-164310276D01*
X131502270Y-164079070D01*
X131501115Y-164074258D01*
X131498928Y-164068978D01*
X131498897Y-164068688D01*
X131497691Y-164064977D01*
X131498471Y-164064724D01*
X131491338Y-163998389D01*
X131526241Y-163931663D01*
X135351405Y-160106499D01*
X135413717Y-160072473D01*
X135484532Y-160077538D01*
G37*
%TD.AperFunction*%
%TA.AperFunction,Conductor*%
G36*
X141663319Y-119978502D02*
G01*
X141696024Y-120008935D01*
X141736739Y-120063261D01*
X141853295Y-120150615D01*
X141989684Y-120201745D01*
X142051866Y-120208500D01*
X143148134Y-120208500D01*
X143210316Y-120201745D01*
X143271271Y-120178894D01*
X143342077Y-120173711D01*
X143404446Y-120207631D01*
X143438575Y-120269887D01*
X143441500Y-120296876D01*
X143441500Y-120703124D01*
X143421498Y-120771245D01*
X143367842Y-120817738D01*
X143297568Y-120827842D01*
X143271273Y-120821107D01*
X143210316Y-120798255D01*
X143148134Y-120791500D01*
X142051866Y-120791500D01*
X141989684Y-120798255D01*
X141853295Y-120849385D01*
X141736739Y-120936739D01*
X141649385Y-121053295D01*
X141598255Y-121189684D01*
X141591500Y-121251866D01*
X141591500Y-122348134D01*
X141598255Y-122410316D01*
X141649385Y-122546705D01*
X141736739Y-122663261D01*
X141853295Y-122750615D01*
X141989684Y-122801745D01*
X142051866Y-122808500D01*
X143148134Y-122808500D01*
X143210316Y-122801745D01*
X143271271Y-122778894D01*
X143342077Y-122773711D01*
X143404446Y-122807631D01*
X143438575Y-122869887D01*
X143441500Y-122896876D01*
X143441500Y-127988892D01*
X143421498Y-128057013D01*
X143367842Y-128103506D01*
X143297568Y-128113610D01*
X143232988Y-128084116D01*
X143199091Y-128037110D01*
X143149687Y-127917837D01*
X143145205Y-127909042D01*
X143042568Y-127741555D01*
X143032110Y-127732093D01*
X143023334Y-127735876D01*
X142172022Y-128587188D01*
X142164408Y-128601132D01*
X142164539Y-128602965D01*
X142168790Y-128609580D01*
X143020290Y-129461080D01*
X143032670Y-129467840D01*
X143040320Y-129462113D01*
X143145205Y-129290958D01*
X143149687Y-129282163D01*
X143199091Y-129162890D01*
X143243639Y-129107609D01*
X143311003Y-129085188D01*
X143379794Y-129102746D01*
X143428172Y-129154708D01*
X143441500Y-129211108D01*
X143441500Y-132572129D01*
X143421498Y-132640250D01*
X143404595Y-132661224D01*
X141594796Y-134471023D01*
X141532484Y-134505049D01*
X141483605Y-134505975D01*
X141415784Y-134493894D01*
X141341952Y-134492992D01*
X141197581Y-134491228D01*
X141197579Y-134491228D01*
X141192411Y-134491165D01*
X140971591Y-134524955D01*
X140759256Y-134594357D01*
X140561107Y-134697507D01*
X140556974Y-134700610D01*
X140556971Y-134700612D01*
X140386600Y-134828530D01*
X140382465Y-134831635D01*
X140228129Y-134993138D01*
X140197863Y-135037507D01*
X140142955Y-135082507D01*
X140093777Y-135092500D01*
X139943439Y-135092500D01*
X139875318Y-135072498D01*
X139837647Y-135034941D01*
X139830318Y-135023612D01*
X139827514Y-135019277D01*
X139677170Y-134854051D01*
X139673119Y-134850852D01*
X139673115Y-134850848D01*
X139505914Y-134718800D01*
X139505910Y-134718798D01*
X139501859Y-134715598D01*
X139479138Y-134703055D01*
X139369463Y-134642512D01*
X139306289Y-134607638D01*
X139301420Y-134605914D01*
X139301416Y-134605912D01*
X139100587Y-134534795D01*
X139100583Y-134534794D01*
X139095712Y-134533069D01*
X139090619Y-134532162D01*
X139090616Y-134532161D01*
X138880873Y-134494800D01*
X138880867Y-134494799D01*
X138875784Y-134493894D01*
X138801952Y-134492992D01*
X138657581Y-134491228D01*
X138657579Y-134491228D01*
X138652411Y-134491165D01*
X138431591Y-134524955D01*
X138219256Y-134594357D01*
X138021107Y-134697507D01*
X138016973Y-134700611D01*
X137960152Y-134743273D01*
X137893667Y-134768178D01*
X137824272Y-134753185D01*
X137773998Y-134703055D01*
X137758500Y-134642512D01*
X137758500Y-130842746D01*
X137778502Y-130774625D01*
X137795405Y-130753651D01*
X138716386Y-129832670D01*
X140932160Y-129832670D01*
X140937887Y-129840320D01*
X141109042Y-129945205D01*
X141117837Y-129949687D01*
X141327988Y-130036734D01*
X141337373Y-130039783D01*
X141558554Y-130092885D01*
X141568301Y-130094428D01*
X141795070Y-130112275D01*
X141804930Y-130112275D01*
X142031699Y-130094428D01*
X142041446Y-130092885D01*
X142262627Y-130039783D01*
X142272012Y-130036734D01*
X142482163Y-129949687D01*
X142490958Y-129945205D01*
X142658445Y-129842568D01*
X142667907Y-129832110D01*
X142664124Y-129823334D01*
X141812812Y-128972022D01*
X141798868Y-128964408D01*
X141797035Y-128964539D01*
X141790420Y-128968790D01*
X140938920Y-129820290D01*
X140932160Y-129832670D01*
X138716386Y-129832670D01*
X140074731Y-128474325D01*
X140137043Y-128440299D01*
X140207858Y-128445364D01*
X140264694Y-128487911D01*
X140289505Y-128554431D01*
X140289438Y-128573306D01*
X140287725Y-128595070D01*
X140287725Y-128604930D01*
X140305572Y-128831699D01*
X140307115Y-128841446D01*
X140360217Y-129062627D01*
X140363266Y-129072012D01*
X140450313Y-129282163D01*
X140454795Y-129290958D01*
X140557432Y-129458445D01*
X140567890Y-129467907D01*
X140576666Y-129464124D01*
X141427978Y-128612812D01*
X141435592Y-128598868D01*
X141435461Y-128597035D01*
X141431210Y-128590420D01*
X140595463Y-127754673D01*
X140561437Y-127692361D01*
X140558605Y-127669008D01*
X140558547Y-127666878D01*
X140558500Y-127663448D01*
X140558500Y-127367890D01*
X140932093Y-127367890D01*
X140935876Y-127376666D01*
X141787188Y-128227978D01*
X141801132Y-128235592D01*
X141802965Y-128235461D01*
X141809580Y-128231210D01*
X142661080Y-127379710D01*
X142667840Y-127367330D01*
X142662113Y-127359680D01*
X142490958Y-127254795D01*
X142482163Y-127250313D01*
X142272012Y-127163266D01*
X142262627Y-127160217D01*
X142041446Y-127107115D01*
X142031699Y-127105572D01*
X141804930Y-127087725D01*
X141795070Y-127087725D01*
X141568301Y-127105572D01*
X141558554Y-127107115D01*
X141337373Y-127160217D01*
X141327988Y-127163266D01*
X141117837Y-127250313D01*
X141109042Y-127254795D01*
X140941555Y-127357432D01*
X140932093Y-127367890D01*
X140558500Y-127367890D01*
X140558500Y-120084500D01*
X140578502Y-120016379D01*
X140632158Y-119969886D01*
X140684500Y-119958500D01*
X141595198Y-119958500D01*
X141663319Y-119978502D01*
G37*
%TD.AperFunction*%
%TA.AperFunction,Conductor*%
G36*
X137209532Y-114073345D02*
G01*
X137266368Y-114115892D01*
X137291179Y-114182412D01*
X137291500Y-114191401D01*
X137291500Y-116982930D01*
X137290067Y-117001880D01*
X137286801Y-117023349D01*
X137287394Y-117030641D01*
X137287394Y-117030644D01*
X137291085Y-117076018D01*
X137291500Y-117086233D01*
X137291500Y-117094293D01*
X137291925Y-117097937D01*
X137294789Y-117122507D01*
X137295222Y-117126882D01*
X137301140Y-117199637D01*
X137303396Y-117206601D01*
X137304587Y-117212560D01*
X137305971Y-117218415D01*
X137306818Y-117225681D01*
X137331735Y-117294327D01*
X137333152Y-117298455D01*
X137336995Y-117310316D01*
X137355649Y-117367899D01*
X137359445Y-117374154D01*
X137361951Y-117379628D01*
X137364670Y-117385058D01*
X137367167Y-117391937D01*
X137371180Y-117398057D01*
X137371180Y-117398058D01*
X137407186Y-117452976D01*
X137409523Y-117456680D01*
X137447405Y-117519107D01*
X137451121Y-117523315D01*
X137451122Y-117523316D01*
X137454803Y-117527484D01*
X137454776Y-117527508D01*
X137457429Y-117530500D01*
X137460132Y-117533733D01*
X137464144Y-117539852D01*
X137469456Y-117544884D01*
X137520383Y-117593128D01*
X137522825Y-117595506D01*
X139004595Y-119077276D01*
X139038621Y-119139588D01*
X139041500Y-119166371D01*
X139041500Y-120826408D01*
X139021498Y-120894529D01*
X138967842Y-120941022D01*
X138897568Y-120951126D01*
X138832988Y-120921632D01*
X138805772Y-120887596D01*
X138805570Y-120887131D01*
X138784636Y-120854771D01*
X138682574Y-120697009D01*
X138679764Y-120692665D01*
X138523887Y-120521358D01*
X138519836Y-120518159D01*
X138519832Y-120518155D01*
X138346177Y-120381011D01*
X138346172Y-120381008D01*
X138342123Y-120377810D01*
X138337607Y-120375317D01*
X138337604Y-120375315D01*
X138143879Y-120268373D01*
X138143875Y-120268371D01*
X138139355Y-120265876D01*
X138134486Y-120264152D01*
X138134482Y-120264150D01*
X137925903Y-120190288D01*
X137925899Y-120190287D01*
X137921028Y-120188562D01*
X137915935Y-120187655D01*
X137915932Y-120187654D01*
X137698095Y-120148851D01*
X137698089Y-120148850D01*
X137693006Y-120147945D01*
X137615644Y-120147000D01*
X137466581Y-120145179D01*
X137466579Y-120145179D01*
X137461411Y-120145116D01*
X137232464Y-120180150D01*
X137012314Y-120252106D01*
X137007726Y-120254494D01*
X137007722Y-120254496D01*
X136811461Y-120356663D01*
X136806872Y-120359052D01*
X136802739Y-120362155D01*
X136802736Y-120362157D01*
X136625790Y-120495012D01*
X136621655Y-120498117D01*
X136461639Y-120665564D01*
X136414836Y-120734174D01*
X136359927Y-120779175D01*
X136289402Y-120787346D01*
X136225655Y-120756092D01*
X136204959Y-120731609D01*
X136182577Y-120697013D01*
X136182574Y-120697009D01*
X136179764Y-120692665D01*
X136023887Y-120521358D01*
X136019836Y-120518159D01*
X136019832Y-120518155D01*
X135846177Y-120381011D01*
X135846172Y-120381008D01*
X135842123Y-120377810D01*
X135837607Y-120375317D01*
X135837604Y-120375315D01*
X135643879Y-120268373D01*
X135643875Y-120268371D01*
X135639355Y-120265876D01*
X135634486Y-120264152D01*
X135634482Y-120264150D01*
X135425903Y-120190288D01*
X135425899Y-120190287D01*
X135421028Y-120188562D01*
X135415935Y-120187655D01*
X135415932Y-120187654D01*
X135198095Y-120148851D01*
X135198089Y-120148850D01*
X135193006Y-120147945D01*
X135115644Y-120147000D01*
X134966581Y-120145179D01*
X134966579Y-120145179D01*
X134961411Y-120145116D01*
X134732464Y-120180150D01*
X134512314Y-120252106D01*
X134507726Y-120254494D01*
X134507722Y-120254496D01*
X134311461Y-120356663D01*
X134306872Y-120359052D01*
X134302739Y-120362155D01*
X134302736Y-120362157D01*
X134125790Y-120495012D01*
X134121655Y-120498117D01*
X134121066Y-120497333D01*
X134061346Y-120525484D01*
X133990955Y-120516231D01*
X133936741Y-120470391D01*
X133923925Y-120445224D01*
X133913323Y-120416944D01*
X133904786Y-120401351D01*
X133828285Y-120299276D01*
X133815724Y-120286715D01*
X133713649Y-120210214D01*
X133698054Y-120201676D01*
X133577606Y-120156522D01*
X133562351Y-120152895D01*
X133511486Y-120147369D01*
X133504672Y-120147000D01*
X132832115Y-120147000D01*
X132816876Y-120151475D01*
X132815671Y-120152865D01*
X132814000Y-120160548D01*
X132814000Y-121683000D01*
X132793998Y-121751121D01*
X132740342Y-121797614D01*
X132688000Y-121809000D01*
X132432000Y-121809000D01*
X132363879Y-121788998D01*
X132317386Y-121735342D01*
X132306000Y-121683000D01*
X132306000Y-120165116D01*
X132301525Y-120149877D01*
X132300135Y-120148672D01*
X132292452Y-120147001D01*
X131615331Y-120147001D01*
X131608510Y-120147371D01*
X131557648Y-120152895D01*
X131542396Y-120156521D01*
X131421946Y-120201676D01*
X131406351Y-120210214D01*
X131304276Y-120286715D01*
X131291715Y-120299276D01*
X131215214Y-120401351D01*
X131206676Y-120416946D01*
X131161522Y-120537394D01*
X131157895Y-120552649D01*
X131152369Y-120603514D01*
X131152000Y-120610328D01*
X131152001Y-121401906D01*
X131131999Y-121470027D01*
X131078343Y-121516520D01*
X131008069Y-121526624D01*
X130943489Y-121497131D01*
X130936906Y-121491001D01*
X130540405Y-121094500D01*
X130506379Y-121032188D01*
X130503500Y-121005405D01*
X130503500Y-120727400D01*
X130523502Y-120659279D01*
X130540405Y-120638305D01*
X137076405Y-114102306D01*
X137138717Y-114068280D01*
X137209532Y-114073345D01*
G37*
%TD.AperFunction*%
%TA.AperFunction,Conductor*%
G36*
X126588647Y-114397885D02*
G01*
X126593223Y-114398973D01*
X126600617Y-114401745D01*
X126608465Y-114402598D01*
X126608467Y-114402598D01*
X126659402Y-114408131D01*
X126662799Y-114408500D01*
X128276097Y-114408500D01*
X128344218Y-114428502D01*
X128390711Y-114482158D01*
X128401767Y-114525381D01*
X128406125Y-114585451D01*
X128407109Y-114589906D01*
X128407109Y-114589909D01*
X128446482Y-114768240D01*
X128464585Y-114850237D01*
X128560655Y-115103810D01*
X128692324Y-115340859D01*
X128856833Y-115556417D01*
X129050736Y-115745970D01*
X129054428Y-115748657D01*
X129054430Y-115748659D01*
X129266279Y-115902859D01*
X129269972Y-115905547D01*
X129509947Y-116031804D01*
X129514248Y-116033323D01*
X129514253Y-116033325D01*
X129647087Y-116080233D01*
X129765634Y-116122096D01*
X129863653Y-116141415D01*
X130027206Y-116173652D01*
X130027212Y-116173653D01*
X130031678Y-116174533D01*
X130036232Y-116174760D01*
X130036234Y-116174760D01*
X130297936Y-116187789D01*
X130297942Y-116187789D01*
X130302505Y-116188016D01*
X130572441Y-116162262D01*
X130576870Y-116161178D01*
X130576877Y-116161177D01*
X130736584Y-116122096D01*
X130835832Y-116097810D01*
X130855895Y-116089684D01*
X131082931Y-115997725D01*
X131082932Y-115997725D01*
X131087160Y-115996012D01*
X131121835Y-115975709D01*
X131190727Y-115958549D01*
X131257959Y-115981360D01*
X131302186Y-116036898D01*
X131311500Y-116084441D01*
X131311500Y-116090406D01*
X131291498Y-116158527D01*
X131274595Y-116179501D01*
X128329095Y-119125000D01*
X128266783Y-119159026D01*
X128195967Y-119153961D01*
X128150905Y-119125000D01*
X126470405Y-117444500D01*
X126436379Y-117382188D01*
X126433500Y-117355405D01*
X126433500Y-114520467D01*
X126453502Y-114452346D01*
X126507158Y-114405853D01*
X126577432Y-114395749D01*
X126588647Y-114397885D01*
G37*
%TD.AperFunction*%
%TA.AperFunction,Conductor*%
G36*
X141934985Y-114096182D02*
G01*
X142015367Y-114162916D01*
X142023814Y-114168831D01*
X142207689Y-114276279D01*
X142216975Y-114280729D01*
X142415934Y-114356703D01*
X142425832Y-114359579D01*
X142634528Y-114402038D01*
X142644756Y-114403257D01*
X142857583Y-114411062D01*
X142867869Y-114410595D01*
X143079118Y-114383534D01*
X143089199Y-114381391D01*
X143279293Y-114324360D01*
X143350288Y-114323944D01*
X143410238Y-114361976D01*
X143440110Y-114426382D01*
X143441500Y-114445046D01*
X143441500Y-114910405D01*
X143421498Y-114978526D01*
X143404595Y-114999500D01*
X142749500Y-115654595D01*
X142687188Y-115688621D01*
X142660405Y-115691500D01*
X142051866Y-115691500D01*
X141989684Y-115698255D01*
X141853295Y-115749385D01*
X141736739Y-115836739D01*
X141649385Y-115953295D01*
X141598255Y-116089684D01*
X141591500Y-116151866D01*
X141591500Y-117248134D01*
X141598255Y-117310316D01*
X141649385Y-117446705D01*
X141736739Y-117563261D01*
X141853295Y-117650615D01*
X141989684Y-117701745D01*
X142051866Y-117708500D01*
X143148134Y-117708500D01*
X143210316Y-117701745D01*
X143271271Y-117678894D01*
X143342077Y-117673711D01*
X143404446Y-117707631D01*
X143438575Y-117769887D01*
X143441500Y-117796876D01*
X143441500Y-118103124D01*
X143421498Y-118171245D01*
X143367842Y-118217738D01*
X143297568Y-118227842D01*
X143271273Y-118221107D01*
X143210316Y-118198255D01*
X143148134Y-118191500D01*
X142051866Y-118191500D01*
X141989684Y-118198255D01*
X141853295Y-118249385D01*
X141736739Y-118336739D01*
X141731358Y-118343919D01*
X141696024Y-118391065D01*
X141639165Y-118433580D01*
X141595198Y-118441500D01*
X140566371Y-118441500D01*
X140498250Y-118421498D01*
X140477276Y-118404595D01*
X140398531Y-118325850D01*
X140390963Y-118317577D01*
X140389868Y-118316268D01*
X140385856Y-118310148D01*
X140329617Y-118256872D01*
X140327175Y-118254494D01*
X138845405Y-116772724D01*
X138811379Y-116710412D01*
X138808500Y-116683629D01*
X138808500Y-116081871D01*
X138828502Y-116013750D01*
X138882158Y-115967257D01*
X138952432Y-115957153D01*
X138993167Y-115970363D01*
X139109947Y-116031804D01*
X139114248Y-116033323D01*
X139114253Y-116033325D01*
X139247087Y-116080233D01*
X139365634Y-116122096D01*
X139463653Y-116141415D01*
X139627206Y-116173652D01*
X139627212Y-116173653D01*
X139631678Y-116174533D01*
X139636232Y-116174760D01*
X139636234Y-116174760D01*
X139897936Y-116187789D01*
X139897942Y-116187789D01*
X139902505Y-116188016D01*
X140172441Y-116162262D01*
X140176870Y-116161178D01*
X140176877Y-116161177D01*
X140336584Y-116122096D01*
X140435832Y-116097810D01*
X140455895Y-116089684D01*
X140682931Y-115997725D01*
X140682932Y-115997725D01*
X140687160Y-115996012D01*
X140921161Y-115858999D01*
X141122161Y-115698255D01*
X141129366Y-115692493D01*
X141129368Y-115692492D01*
X141132932Y-115689641D01*
X141254399Y-115559612D01*
X141314921Y-115494824D01*
X141314923Y-115494821D01*
X141318037Y-115491488D01*
X141472598Y-115268688D01*
X141554624Y-115103810D01*
X141591346Y-115029997D01*
X141591347Y-115029994D01*
X141593379Y-115025910D01*
X141677847Y-114768240D01*
X141710375Y-114580900D01*
X141723579Y-114504856D01*
X141723580Y-114504848D01*
X141724235Y-114501075D01*
X141728500Y-114415400D01*
X141728500Y-114193126D01*
X141748502Y-114125005D01*
X141802158Y-114078512D01*
X141872432Y-114068408D01*
X141934985Y-114096182D01*
G37*
%TD.AperFunction*%
%TA.AperFunction,Conductor*%
G36*
X136340121Y-110231002D02*
G01*
X136386614Y-110284658D01*
X136398000Y-110337000D01*
X136398000Y-110735625D01*
X136395249Y-110757403D01*
X136395463Y-110757430D01*
X136394470Y-110765292D01*
X136392498Y-110772972D01*
X136392498Y-110793226D01*
X136390947Y-110812936D01*
X136387778Y-110832945D01*
X136388524Y-110840837D01*
X136391939Y-110876963D01*
X136392498Y-110888821D01*
X136392498Y-112306524D01*
X136372496Y-112374645D01*
X136355593Y-112395619D01*
X134782990Y-113968222D01*
X134720678Y-114002248D01*
X134649863Y-113997183D01*
X134593027Y-113954636D01*
X134572229Y-113909005D01*
X134572213Y-113909010D01*
X134572162Y-113908857D01*
X134570734Y-113905724D01*
X134570032Y-113902472D01*
X134519512Y-113751047D01*
X134513347Y-113737885D01*
X134429574Y-113602508D01*
X134420536Y-113591106D01*
X134418861Y-113589433D01*
X134418081Y-113588007D01*
X134415993Y-113585373D01*
X134416444Y-113585016D01*
X134384781Y-113527151D01*
X134389784Y-113456331D01*
X134418701Y-113411246D01*
X134421756Y-113408185D01*
X134426929Y-113403003D01*
X134518209Y-113254920D01*
X134572974Y-113089809D01*
X134583500Y-112987072D01*
X134583500Y-112778871D01*
X134603502Y-112710750D01*
X134620405Y-112689776D01*
X135362911Y-111947270D01*
X135377323Y-111934884D01*
X135388918Y-111926351D01*
X135388923Y-111926346D01*
X135394818Y-111922008D01*
X135399557Y-111916430D01*
X135399560Y-111916427D01*
X135429035Y-111881732D01*
X135435965Y-111874216D01*
X135441660Y-111868521D01*
X135443934Y-111865647D01*
X135443940Y-111865640D01*
X135449243Y-111858937D01*
X135507194Y-111817923D01*
X135578120Y-111814752D01*
X135612197Y-111828659D01*
X135723779Y-111894648D01*
X135738210Y-111900893D01*
X135872605Y-111939939D01*
X135886706Y-111939899D01*
X135890000Y-111932630D01*
X135890000Y-110337000D01*
X135910002Y-110268879D01*
X135963658Y-110222386D01*
X136016000Y-110211000D01*
X136272000Y-110211000D01*
X136340121Y-110231002D01*
G37*
%TD.AperFunction*%
%TA.AperFunction,Conductor*%
G36*
X140822856Y-109791640D02*
G01*
X140875466Y-109823147D01*
X141404361Y-110352042D01*
X141438387Y-110414354D01*
X141440553Y-110454526D01*
X141438732Y-110471561D01*
X141438732Y-110471569D01*
X141438184Y-110476695D01*
X141438481Y-110481847D01*
X141438481Y-110481851D01*
X141443794Y-110573991D01*
X141451043Y-110699715D01*
X141452180Y-110704761D01*
X141452181Y-110704767D01*
X141472052Y-110792939D01*
X141500155Y-110917639D01*
X141584199Y-111124616D01*
X141623505Y-111188758D01*
X141684802Y-111288785D01*
X141700920Y-111315088D01*
X141847183Y-111483938D01*
X142019059Y-111626632D01*
X142024296Y-111629692D01*
X142092888Y-111669774D01*
X142141612Y-111721412D01*
X142154683Y-111791195D01*
X142127952Y-111856967D01*
X142087495Y-111890327D01*
X142079393Y-111894544D01*
X142070667Y-111900039D01*
X142050610Y-111915099D01*
X142042156Y-111926427D01*
X142048901Y-111938758D01*
X143071048Y-112960905D01*
X143105074Y-113023217D01*
X143100009Y-113094032D01*
X143071048Y-113139095D01*
X142890028Y-113320115D01*
X142827716Y-113354141D01*
X142756901Y-113349076D01*
X142711838Y-113320115D01*
X141690782Y-112299059D01*
X141679246Y-112292759D01*
X141666964Y-112302382D01*
X141619022Y-112372662D01*
X141613937Y-112381613D01*
X141524270Y-112574786D01*
X141523824Y-112575998D01*
X141523512Y-112576418D01*
X141522092Y-112579478D01*
X141521460Y-112579185D01*
X141481531Y-112633022D01*
X141415122Y-112658130D01*
X141345681Y-112643348D01*
X141305410Y-112608934D01*
X141265939Y-112557215D01*
X141265938Y-112557214D01*
X141263167Y-112553583D01*
X141069264Y-112364030D01*
X141033054Y-112337673D01*
X140853721Y-112207141D01*
X140850028Y-112204453D01*
X140610053Y-112078196D01*
X140605752Y-112076677D01*
X140605747Y-112076675D01*
X140519311Y-112046152D01*
X140417518Y-112010205D01*
X140359946Y-111968662D01*
X140333973Y-111902587D01*
X140347846Y-111832959D01*
X140370380Y-111802301D01*
X140388911Y-111783770D01*
X140403323Y-111771384D01*
X140414918Y-111762851D01*
X140414923Y-111762846D01*
X140420818Y-111758508D01*
X140425557Y-111752930D01*
X140425560Y-111752927D01*
X140455035Y-111718232D01*
X140461965Y-111710716D01*
X140467661Y-111705020D01*
X140469924Y-111702159D01*
X140469929Y-111702154D01*
X140485285Y-111682744D01*
X140488074Y-111679342D01*
X140530596Y-111629291D01*
X140530597Y-111629290D01*
X140535333Y-111623715D01*
X140538661Y-111617198D01*
X140542027Y-111612150D01*
X140545190Y-111607028D01*
X140549735Y-111601284D01*
X140580664Y-111535105D01*
X140582563Y-111531221D01*
X140615769Y-111466192D01*
X140617510Y-111459077D01*
X140619613Y-111453422D01*
X140621522Y-111447683D01*
X140624622Y-111441050D01*
X140639491Y-111369565D01*
X140640461Y-111365282D01*
X140657808Y-111294390D01*
X140658500Y-111283236D01*
X140658535Y-111283238D01*
X140658775Y-111279266D01*
X140659152Y-111275045D01*
X140660641Y-111267885D01*
X140658546Y-111190458D01*
X140658500Y-111187050D01*
X140658500Y-109924541D01*
X140659933Y-109905591D01*
X140661804Y-109893292D01*
X140691824Y-109828954D01*
X140751861Y-109791060D01*
X140822856Y-109791640D01*
G37*
%TD.AperFunction*%
%TA.AperFunction,Conductor*%
G36*
X129005218Y-95746511D02*
G01*
X129209972Y-95895547D01*
X129449947Y-96021804D01*
X129454248Y-96023323D01*
X129454253Y-96023325D01*
X129587087Y-96070233D01*
X129705634Y-96112096D01*
X129803653Y-96131415D01*
X129967206Y-96163652D01*
X129967212Y-96163653D01*
X129971678Y-96164533D01*
X129976232Y-96164760D01*
X129976234Y-96164760D01*
X130237936Y-96177789D01*
X130237942Y-96177789D01*
X130242505Y-96178016D01*
X130512441Y-96152262D01*
X130516870Y-96151178D01*
X130516877Y-96151177D01*
X130676584Y-96112096D01*
X130775832Y-96087810D01*
X130807242Y-96075088D01*
X131022931Y-95987725D01*
X131022932Y-95987725D01*
X131027160Y-95986012D01*
X131131837Y-95924721D01*
X131200726Y-95907562D01*
X131267959Y-95930373D01*
X131312186Y-95985911D01*
X131321500Y-96033454D01*
X131321500Y-96567072D01*
X131321837Y-96570318D01*
X131321837Y-96570322D01*
X131331102Y-96659612D01*
X131332293Y-96671093D01*
X131334474Y-96677629D01*
X131334474Y-96677631D01*
X131370932Y-96786909D01*
X131387346Y-96836107D01*
X131391202Y-96842338D01*
X131473955Y-96976066D01*
X131492793Y-97044518D01*
X131474071Y-97108485D01*
X131390631Y-97243850D01*
X131386791Y-97250080D01*
X131332026Y-97415191D01*
X131321500Y-97517928D01*
X131321500Y-98092072D01*
X131332293Y-98196093D01*
X131387346Y-98361107D01*
X131444034Y-98452715D01*
X131462871Y-98521166D01*
X131441709Y-98588935D01*
X131425984Y-98608111D01*
X129797747Y-100236348D01*
X129789461Y-100243888D01*
X129782982Y-100248000D01*
X129777557Y-100253777D01*
X129736357Y-100297651D01*
X129733602Y-100300493D01*
X129713865Y-100320230D01*
X129711385Y-100323427D01*
X129703682Y-100332447D01*
X129673414Y-100364679D01*
X129669595Y-100371625D01*
X129669593Y-100371628D01*
X129663652Y-100382434D01*
X129652801Y-100398953D01*
X129640386Y-100414959D01*
X129637241Y-100422228D01*
X129637238Y-100422232D01*
X129622826Y-100455537D01*
X129617609Y-100466187D01*
X129596305Y-100504940D01*
X129594334Y-100512615D01*
X129594334Y-100512616D01*
X129591267Y-100524562D01*
X129584863Y-100543266D01*
X129584214Y-100544767D01*
X129576819Y-100561855D01*
X129575580Y-100569678D01*
X129575577Y-100569688D01*
X129569901Y-100605524D01*
X129567495Y-100617144D01*
X129560851Y-100643023D01*
X129556500Y-100659970D01*
X129556500Y-100680224D01*
X129554949Y-100699934D01*
X129551780Y-100719943D01*
X129552526Y-100727835D01*
X129555941Y-100763961D01*
X129556500Y-100775819D01*
X129556500Y-103121233D01*
X129555973Y-103132416D01*
X129554298Y-103139909D01*
X129554547Y-103147835D01*
X129554547Y-103147836D01*
X129556438Y-103207986D01*
X129556500Y-103211945D01*
X129556500Y-103239856D01*
X129556997Y-103243790D01*
X129556997Y-103243791D01*
X129557005Y-103243856D01*
X129557938Y-103255693D01*
X129559327Y-103299889D01*
X129564978Y-103319339D01*
X129568987Y-103338700D01*
X129571526Y-103358797D01*
X129574445Y-103366168D01*
X129574445Y-103366170D01*
X129587804Y-103399912D01*
X129591649Y-103411142D01*
X129603982Y-103453593D01*
X129608015Y-103460412D01*
X129608017Y-103460417D01*
X129614293Y-103471028D01*
X129622988Y-103488776D01*
X129630448Y-103507617D01*
X129635110Y-103514033D01*
X129635110Y-103514034D01*
X129656436Y-103543387D01*
X129662952Y-103553307D01*
X129685458Y-103591362D01*
X129699779Y-103605683D01*
X129712619Y-103620716D01*
X129724528Y-103637107D01*
X129758605Y-103665298D01*
X129767384Y-103673288D01*
X130315882Y-104221786D01*
X130349908Y-104284098D01*
X130344843Y-104354913D01*
X130335240Y-104375020D01*
X130309936Y-104417807D01*
X130304855Y-104426399D01*
X130258438Y-104586169D01*
X130257934Y-104592574D01*
X130257933Y-104592579D01*
X130257485Y-104598277D01*
X130255500Y-104623498D01*
X130255500Y-106406502D01*
X130255693Y-106408950D01*
X130255693Y-106408958D01*
X130257442Y-106431170D01*
X130258438Y-106443831D01*
X130304855Y-106603601D01*
X130308892Y-106610427D01*
X130385509Y-106739980D01*
X130385511Y-106739983D01*
X130389547Y-106746807D01*
X130507193Y-106864453D01*
X130514016Y-106868488D01*
X130514020Y-106868491D01*
X130535118Y-106880968D01*
X130650399Y-106949145D01*
X130658010Y-106951356D01*
X130658012Y-106951357D01*
X130680214Y-106957807D01*
X130810169Y-106995562D01*
X130816574Y-106996066D01*
X130816579Y-106996067D01*
X130845042Y-106998307D01*
X130845050Y-106998307D01*
X130847498Y-106998500D01*
X131280502Y-106998500D01*
X131282950Y-106998307D01*
X131282958Y-106998307D01*
X131311421Y-106996067D01*
X131311426Y-106996066D01*
X131317831Y-106995562D01*
X131447786Y-106957807D01*
X131469988Y-106951357D01*
X131469990Y-106951356D01*
X131477601Y-106949145D01*
X131620807Y-106864453D01*
X131623489Y-106861771D01*
X131687861Y-106836498D01*
X131757484Y-106850400D01*
X131773312Y-106860572D01*
X131777193Y-106864453D01*
X131920399Y-106949145D01*
X131928010Y-106951356D01*
X131928012Y-106951357D01*
X131950214Y-106957807D01*
X132080169Y-106995562D01*
X132086574Y-106996066D01*
X132086579Y-106996067D01*
X132115042Y-106998307D01*
X132115050Y-106998307D01*
X132117498Y-106998500D01*
X132550502Y-106998500D01*
X132552950Y-106998307D01*
X132552958Y-106998307D01*
X132581421Y-106996067D01*
X132581426Y-106996066D01*
X132587831Y-106995562D01*
X132717786Y-106957807D01*
X132739988Y-106951357D01*
X132739990Y-106951356D01*
X132747601Y-106949145D01*
X132890807Y-106864453D01*
X132893747Y-106861513D01*
X132958271Y-106836179D01*
X133027894Y-106850080D01*
X133046640Y-106862129D01*
X133054323Y-106868089D01*
X133183779Y-106944648D01*
X133198210Y-106950893D01*
X133332605Y-106989939D01*
X133346706Y-106989899D01*
X133350000Y-106982630D01*
X133350000Y-104053122D01*
X133346027Y-104039591D01*
X133338129Y-104038456D01*
X133198210Y-104079107D01*
X133183779Y-104085352D01*
X133054324Y-104161910D01*
X133046636Y-104167874D01*
X132980551Y-104193821D01*
X132910928Y-104179920D01*
X132894842Y-104169582D01*
X132890807Y-104165547D01*
X132747601Y-104080855D01*
X132739990Y-104078644D01*
X132739988Y-104078643D01*
X132594013Y-104036234D01*
X132587831Y-104034438D01*
X132586779Y-104034355D01*
X132521951Y-104000356D01*
X131689690Y-103168095D01*
X131655664Y-103105783D01*
X131660729Y-103034968D01*
X131703276Y-102978132D01*
X131769796Y-102953321D01*
X131778785Y-102953000D01*
X132227885Y-102953000D01*
X132243124Y-102948525D01*
X132244329Y-102947135D01*
X132246000Y-102939452D01*
X132246000Y-101417000D01*
X132266002Y-101348879D01*
X132319658Y-101302386D01*
X132372000Y-101291000D01*
X132628000Y-101291000D01*
X132696121Y-101311002D01*
X132742614Y-101364658D01*
X132754000Y-101417000D01*
X132754000Y-102934884D01*
X132758475Y-102950123D01*
X132759865Y-102951328D01*
X132767548Y-102952999D01*
X133444669Y-102952999D01*
X133451490Y-102952629D01*
X133502352Y-102947105D01*
X133517604Y-102943479D01*
X133638054Y-102898324D01*
X133661517Y-102885478D01*
X133662201Y-102886727D01*
X133719790Y-102865212D01*
X133789172Y-102880265D01*
X133839402Y-102930440D01*
X133854532Y-102999806D01*
X133848442Y-103030550D01*
X133822026Y-103110191D01*
X133821326Y-103117027D01*
X133821325Y-103117030D01*
X133818981Y-103139909D01*
X133811500Y-103212928D01*
X133811500Y-103787072D01*
X133811837Y-103790318D01*
X133811837Y-103790322D01*
X133820468Y-103873501D01*
X133822293Y-103891093D01*
X133824473Y-103897627D01*
X133824474Y-103897632D01*
X133852475Y-103981561D01*
X133858643Y-104030246D01*
X133858000Y-104039421D01*
X133858000Y-106976878D01*
X133861973Y-106990409D01*
X133869871Y-106991544D01*
X133952580Y-106967515D01*
X134023576Y-106967718D01*
X134083193Y-107006272D01*
X134112501Y-107070936D01*
X134113318Y-107078296D01*
X134115085Y-107100017D01*
X134115500Y-107110233D01*
X134115500Y-107118293D01*
X134115925Y-107121937D01*
X134118789Y-107146507D01*
X134119222Y-107150882D01*
X134120602Y-107167842D01*
X134125140Y-107223637D01*
X134127396Y-107230601D01*
X134128587Y-107236560D01*
X134129971Y-107242415D01*
X134130818Y-107249681D01*
X134155735Y-107318327D01*
X134157152Y-107322455D01*
X134166162Y-107350266D01*
X134179649Y-107391899D01*
X134183445Y-107398154D01*
X134185951Y-107403628D01*
X134188670Y-107409058D01*
X134191167Y-107415937D01*
X134195180Y-107422057D01*
X134195180Y-107422058D01*
X134231186Y-107476976D01*
X134233523Y-107480680D01*
X134271405Y-107543107D01*
X134275121Y-107547315D01*
X134275122Y-107547316D01*
X134278803Y-107551484D01*
X134278776Y-107551508D01*
X134281429Y-107554500D01*
X134284132Y-107557733D01*
X134288144Y-107563852D01*
X134293456Y-107568884D01*
X134344383Y-107617128D01*
X134346825Y-107619506D01*
X135088224Y-108360905D01*
X135122250Y-108423217D01*
X135117185Y-108494032D01*
X135088224Y-108539095D01*
X134674933Y-108952386D01*
X134619328Y-108981544D01*
X134620169Y-108984438D01*
X134468012Y-109028643D01*
X134468010Y-109028644D01*
X134460399Y-109030855D01*
X134317193Y-109115547D01*
X134314253Y-109118487D01*
X134249729Y-109143821D01*
X134180106Y-109129920D01*
X134161360Y-109117871D01*
X134153677Y-109111911D01*
X134024221Y-109035352D01*
X134009790Y-109029107D01*
X133875395Y-108990061D01*
X133861294Y-108990101D01*
X133858000Y-108997370D01*
X133858000Y-110593000D01*
X133837998Y-110661121D01*
X133784342Y-110707614D01*
X133732000Y-110719000D01*
X133476000Y-110719000D01*
X133407879Y-110698998D01*
X133361386Y-110645342D01*
X133350000Y-110593000D01*
X133350000Y-109003122D01*
X133346027Y-108989591D01*
X133338129Y-108988456D01*
X133198210Y-109029107D01*
X133183779Y-109035352D01*
X133054324Y-109111910D01*
X133046636Y-109117874D01*
X132980551Y-109143821D01*
X132910928Y-109129920D01*
X132894842Y-109119582D01*
X132890807Y-109115547D01*
X132747601Y-109030855D01*
X132739990Y-109028644D01*
X132739988Y-109028643D01*
X132679854Y-109011173D01*
X132587831Y-108984438D01*
X132581426Y-108983934D01*
X132581421Y-108983933D01*
X132552958Y-108981693D01*
X132552950Y-108981693D01*
X132550502Y-108981500D01*
X132117498Y-108981500D01*
X132115050Y-108981693D01*
X132115042Y-108981693D01*
X132086579Y-108983933D01*
X132086574Y-108983934D01*
X132080169Y-108984438D01*
X131988146Y-109011173D01*
X131928012Y-109028643D01*
X131928010Y-109028644D01*
X131920399Y-109030855D01*
X131777193Y-109115547D01*
X131774511Y-109118229D01*
X131710139Y-109143502D01*
X131640516Y-109129600D01*
X131624688Y-109119428D01*
X131620807Y-109115547D01*
X131477601Y-109030855D01*
X131469990Y-109028644D01*
X131469988Y-109028643D01*
X131409854Y-109011173D01*
X131317831Y-108984438D01*
X131311426Y-108983934D01*
X131311421Y-108983933D01*
X131282958Y-108981693D01*
X131282950Y-108981693D01*
X131280502Y-108981500D01*
X130847498Y-108981500D01*
X130845050Y-108981693D01*
X130845042Y-108981693D01*
X130816579Y-108983933D01*
X130816574Y-108983934D01*
X130810169Y-108984438D01*
X130718146Y-109011173D01*
X130658012Y-109028643D01*
X130658010Y-109028644D01*
X130650399Y-109030855D01*
X130643572Y-109034892D01*
X130643573Y-109034892D01*
X130514020Y-109111509D01*
X130514017Y-109111511D01*
X130507193Y-109115547D01*
X130389547Y-109233193D01*
X130385511Y-109240017D01*
X130385509Y-109240020D01*
X130340179Y-109316669D01*
X130304855Y-109376399D01*
X130258438Y-109536169D01*
X130257934Y-109542574D01*
X130257933Y-109542579D01*
X130255693Y-109571042D01*
X130255500Y-109573498D01*
X130255500Y-111356502D01*
X130255693Y-111358950D01*
X130255693Y-111358958D01*
X130256529Y-111369571D01*
X130258438Y-111393831D01*
X130304855Y-111553601D01*
X130308892Y-111560427D01*
X130385509Y-111689980D01*
X130385511Y-111689983D01*
X130389547Y-111696807D01*
X130404340Y-111711600D01*
X130438366Y-111773912D01*
X130433301Y-111844727D01*
X130390754Y-111901563D01*
X130324234Y-111926374D01*
X130308987Y-111926539D01*
X130261086Y-111924154D01*
X130222063Y-111922211D01*
X130222057Y-111922211D01*
X130217495Y-111921984D01*
X129947559Y-111947738D01*
X129943130Y-111948822D01*
X129943123Y-111948823D01*
X129813069Y-111980648D01*
X129684168Y-112012190D01*
X129679933Y-112013905D01*
X129679931Y-112013906D01*
X129511111Y-112082285D01*
X129432840Y-112113988D01*
X129198839Y-112251001D01*
X129146623Y-112292759D01*
X129124128Y-112310749D01*
X129058435Y-112337673D01*
X128988614Y-112324807D01*
X128936832Y-112276236D01*
X128919433Y-112212346D01*
X128919433Y-112151866D01*
X128912678Y-112089684D01*
X128861548Y-111953295D01*
X128774194Y-111836739D01*
X128657638Y-111749385D01*
X128630838Y-111739338D01*
X128539136Y-111704960D01*
X128482372Y-111662318D01*
X128457672Y-111595756D01*
X128472880Y-111526408D01*
X128494426Y-111497727D01*
X128539129Y-111453180D01*
X128599029Y-111393489D01*
X128658527Y-111310689D01*
X128726368Y-111216277D01*
X128729386Y-111212077D01*
X128828363Y-111011811D01*
X128883214Y-110831277D01*
X128891798Y-110803023D01*
X128891798Y-110803021D01*
X128893303Y-110798069D01*
X128922462Y-110576590D01*
X128924089Y-110510000D01*
X128905785Y-110287361D01*
X128851364Y-110070702D01*
X128762287Y-109865840D01*
X128640947Y-109678277D01*
X128490603Y-109513051D01*
X128486552Y-109509852D01*
X128486548Y-109509848D01*
X128319347Y-109377800D01*
X128319343Y-109377798D01*
X128315292Y-109374598D01*
X128273986Y-109351796D01*
X128224017Y-109301364D01*
X128209245Y-109231921D01*
X128234361Y-109165516D01*
X128261713Y-109138909D01*
X128305536Y-109107650D01*
X128440793Y-109011173D01*
X128454645Y-108997370D01*
X128595368Y-108857137D01*
X128599029Y-108853489D01*
X128729386Y-108672077D01*
X128795110Y-108539095D01*
X128826069Y-108476453D01*
X128826070Y-108476451D01*
X128828363Y-108471811D01*
X128893303Y-108258069D01*
X128922462Y-108036590D01*
X128924089Y-107970000D01*
X128905785Y-107747361D01*
X128851364Y-107530702D01*
X128762287Y-107325840D01*
X128688584Y-107211913D01*
X128643755Y-107142617D01*
X128643753Y-107142614D01*
X128640947Y-107138277D01*
X128490603Y-106973051D01*
X128486552Y-106969852D01*
X128486548Y-106969848D01*
X128319347Y-106837800D01*
X128319343Y-106837798D01*
X128315292Y-106834598D01*
X128273986Y-106811796D01*
X128224017Y-106761364D01*
X128209245Y-106691921D01*
X128234361Y-106625516D01*
X128261713Y-106598909D01*
X128305536Y-106567650D01*
X128440793Y-106471173D01*
X128599029Y-106313489D01*
X128658527Y-106230689D01*
X128726368Y-106136277D01*
X128729386Y-106132077D01*
X128819374Y-105950000D01*
X128826069Y-105936453D01*
X128826070Y-105936451D01*
X128828363Y-105931811D01*
X128860833Y-105824940D01*
X128891798Y-105723023D01*
X128891798Y-105723021D01*
X128893303Y-105718069D01*
X128922462Y-105496590D01*
X128924089Y-105430000D01*
X128905785Y-105207361D01*
X128851364Y-104990702D01*
X128762287Y-104785840D01*
X128657263Y-104623498D01*
X128643755Y-104602617D01*
X128643753Y-104602614D01*
X128640947Y-104598277D01*
X128490603Y-104433051D01*
X128486552Y-104429852D01*
X128486548Y-104429848D01*
X128319347Y-104297800D01*
X128319343Y-104297798D01*
X128315292Y-104294598D01*
X128273986Y-104271796D01*
X128224017Y-104221364D01*
X128209245Y-104151921D01*
X128234361Y-104085516D01*
X128261713Y-104058909D01*
X128305536Y-104027650D01*
X128440793Y-103931173D01*
X128474452Y-103897632D01*
X128595368Y-103777137D01*
X128599029Y-103773489D01*
X128611833Y-103755671D01*
X128726368Y-103596277D01*
X128729386Y-103592077D01*
X128733114Y-103584535D01*
X128826069Y-103396453D01*
X128826070Y-103396451D01*
X128828363Y-103391811D01*
X128883687Y-103209718D01*
X128891798Y-103183023D01*
X128891798Y-103183021D01*
X128893303Y-103178069D01*
X128922462Y-102956590D01*
X128922659Y-102948525D01*
X128924007Y-102893365D01*
X128924007Y-102893361D01*
X128924089Y-102890000D01*
X128905785Y-102667361D01*
X128851364Y-102450702D01*
X128762287Y-102245840D01*
X128721140Y-102182237D01*
X128643755Y-102062617D01*
X128643753Y-102062614D01*
X128640947Y-102058277D01*
X128490603Y-101893051D01*
X128486552Y-101889852D01*
X128486548Y-101889848D01*
X128319347Y-101757800D01*
X128319343Y-101757798D01*
X128315292Y-101754598D01*
X128273986Y-101731796D01*
X128224017Y-101681364D01*
X128209245Y-101611921D01*
X128234361Y-101545516D01*
X128261713Y-101518909D01*
X128305536Y-101487650D01*
X128440793Y-101391173D01*
X128599029Y-101233489D01*
X128631649Y-101188094D01*
X128726368Y-101056277D01*
X128729386Y-101052077D01*
X128797036Y-100915198D01*
X128826069Y-100856453D01*
X128826070Y-100856451D01*
X128828363Y-100851811D01*
X128893303Y-100638069D01*
X128922462Y-100416590D01*
X128923079Y-100391351D01*
X128924007Y-100353365D01*
X128924007Y-100353361D01*
X128924089Y-100350000D01*
X128905785Y-100127361D01*
X128851364Y-99910702D01*
X128762287Y-99705840D01*
X128662663Y-99551845D01*
X128643755Y-99522617D01*
X128643753Y-99522614D01*
X128640947Y-99518277D01*
X128490603Y-99353051D01*
X128486552Y-99349852D01*
X128486548Y-99349848D01*
X128319347Y-99217800D01*
X128319343Y-99217798D01*
X128315292Y-99214598D01*
X128273986Y-99191796D01*
X128224017Y-99141364D01*
X128209245Y-99071921D01*
X128234361Y-99005516D01*
X128261713Y-98978909D01*
X128305536Y-98947650D01*
X128440793Y-98851173D01*
X128477023Y-98815070D01*
X128595368Y-98697137D01*
X128599029Y-98693489D01*
X128658527Y-98610689D01*
X128726368Y-98516277D01*
X128729386Y-98512077D01*
X128758726Y-98452713D01*
X128826069Y-98316453D01*
X128826070Y-98316451D01*
X128828363Y-98311811D01*
X128893303Y-98098069D01*
X128922462Y-97876590D01*
X128924089Y-97810000D01*
X128905785Y-97587361D01*
X128851364Y-97370702D01*
X128762287Y-97165840D01*
X128674408Y-97030000D01*
X128643755Y-96982617D01*
X128643753Y-96982614D01*
X128640947Y-96978277D01*
X128490603Y-96813051D01*
X128486552Y-96809852D01*
X128486548Y-96809848D01*
X128319347Y-96677800D01*
X128319343Y-96677798D01*
X128315292Y-96674598D01*
X128273986Y-96651796D01*
X128224017Y-96601364D01*
X128209245Y-96531921D01*
X128234361Y-96465516D01*
X128261713Y-96438909D01*
X128305536Y-96407650D01*
X128440793Y-96311173D01*
X128599029Y-96153489D01*
X128628141Y-96112976D01*
X128726368Y-95976277D01*
X128729386Y-95972077D01*
X128749998Y-95930373D01*
X128818111Y-95792555D01*
X128866224Y-95740348D01*
X128934926Y-95722441D01*
X129005218Y-95746511D01*
G37*
%TD.AperFunction*%
%TA.AperFunction,Conductor*%
G36*
X141386929Y-95451410D02*
G01*
X141445179Y-95491999D01*
X141469856Y-95543195D01*
X141500155Y-95677639D01*
X141554209Y-95810759D01*
X141570675Y-95851309D01*
X141584199Y-95884616D01*
X141590898Y-95895547D01*
X141668268Y-96021804D01*
X141700920Y-96075088D01*
X141847183Y-96243938D01*
X142019059Y-96386632D01*
X142089528Y-96427811D01*
X142092378Y-96429476D01*
X142141102Y-96481114D01*
X142154173Y-96550897D01*
X142127442Y-96616669D01*
X142086988Y-96650027D01*
X142081335Y-96652970D01*
X142074540Y-96656507D01*
X142070407Y-96659610D01*
X142070404Y-96659612D01*
X141900033Y-96787530D01*
X141895898Y-96790635D01*
X141741562Y-96952138D01*
X141738648Y-96956410D01*
X141738647Y-96956411D01*
X141678545Y-97044518D01*
X141615676Y-97136680D01*
X141568802Y-97237662D01*
X141559813Y-97257028D01*
X141521621Y-97339305D01*
X141461922Y-97554570D01*
X141438184Y-97776695D01*
X141438481Y-97781848D01*
X141438481Y-97781851D01*
X141443834Y-97874688D01*
X141451043Y-97999715D01*
X141452180Y-98004761D01*
X141452181Y-98004767D01*
X141471121Y-98088806D01*
X141500155Y-98217639D01*
X141584199Y-98424616D01*
X141586898Y-98429020D01*
X141696645Y-98608111D01*
X141700920Y-98615088D01*
X141847183Y-98783938D01*
X142019059Y-98926632D01*
X142089528Y-98967811D01*
X142092378Y-98969476D01*
X142141102Y-99021114D01*
X142154173Y-99090897D01*
X142127442Y-99156669D01*
X142086988Y-99190027D01*
X142074540Y-99196507D01*
X142070407Y-99199610D01*
X142070404Y-99199612D01*
X141900033Y-99327530D01*
X141895898Y-99330635D01*
X141741562Y-99492138D01*
X141738648Y-99496410D01*
X141738647Y-99496411D01*
X141669424Y-99597889D01*
X141615676Y-99676680D01*
X141521621Y-99879305D01*
X141461922Y-100094570D01*
X141438184Y-100316695D01*
X141438481Y-100321848D01*
X141438481Y-100321851D01*
X141449628Y-100515181D01*
X141451043Y-100539715D01*
X141452180Y-100544761D01*
X141452181Y-100544767D01*
X141472052Y-100632939D01*
X141500155Y-100757639D01*
X141584199Y-100964616D01*
X141700920Y-101155088D01*
X141847183Y-101323938D01*
X142019059Y-101466632D01*
X142089528Y-101507811D01*
X142092378Y-101509476D01*
X142141102Y-101561114D01*
X142154173Y-101630897D01*
X142127442Y-101696669D01*
X142086988Y-101730027D01*
X142074540Y-101736507D01*
X142070407Y-101739610D01*
X142070404Y-101739612D01*
X141900033Y-101867530D01*
X141895898Y-101870635D01*
X141741562Y-102032138D01*
X141738648Y-102036410D01*
X141738647Y-102036411D01*
X141673500Y-102131913D01*
X141615676Y-102216680D01*
X141521621Y-102419305D01*
X141461922Y-102634570D01*
X141438184Y-102856695D01*
X141438481Y-102861848D01*
X141438481Y-102861851D01*
X141447512Y-103018469D01*
X141451043Y-103079715D01*
X141452180Y-103084761D01*
X141452181Y-103084767D01*
X141472052Y-103172939D01*
X141500155Y-103297639D01*
X141560391Y-103445983D01*
X141577772Y-103488787D01*
X141584199Y-103504616D01*
X141607958Y-103543387D01*
X141691884Y-103680342D01*
X141700920Y-103695088D01*
X141847183Y-103863938D01*
X141887768Y-103897632D01*
X142011500Y-104000356D01*
X142019059Y-104006632D01*
X142075171Y-104039421D01*
X142092378Y-104049476D01*
X142141102Y-104101114D01*
X142154173Y-104170897D01*
X142127442Y-104236669D01*
X142086988Y-104270027D01*
X142074540Y-104276507D01*
X142070407Y-104279610D01*
X142070404Y-104279612D01*
X141900033Y-104407530D01*
X141895898Y-104410635D01*
X141741562Y-104572138D01*
X141738648Y-104576410D01*
X141738647Y-104576411D01*
X141704842Y-104625968D01*
X141615676Y-104756680D01*
X141568648Y-104857993D01*
X141537489Y-104925121D01*
X141521621Y-104959305D01*
X141461922Y-105174570D01*
X141438184Y-105396695D01*
X141438481Y-105401848D01*
X141438481Y-105401851D01*
X141443944Y-105496590D01*
X141451043Y-105619715D01*
X141452180Y-105624761D01*
X141452181Y-105624767D01*
X141472052Y-105712939D01*
X141500155Y-105837639D01*
X141584199Y-106044616D01*
X141700920Y-106235088D01*
X141847183Y-106403938D01*
X142019059Y-106546632D01*
X142089528Y-106587811D01*
X142092378Y-106589476D01*
X142141102Y-106641114D01*
X142154173Y-106710897D01*
X142127442Y-106776669D01*
X142086988Y-106810027D01*
X142074540Y-106816507D01*
X142070407Y-106819610D01*
X142070404Y-106819612D01*
X141900033Y-106947530D01*
X141895898Y-106950635D01*
X141890107Y-106956695D01*
X141748269Y-107105120D01*
X141741562Y-107112138D01*
X141738648Y-107116410D01*
X141738647Y-107116411D01*
X141715133Y-107150882D01*
X141615676Y-107296680D01*
X141574709Y-107384936D01*
X141530962Y-107479182D01*
X141521621Y-107499305D01*
X141461922Y-107714570D01*
X141438184Y-107936695D01*
X141438388Y-107940225D01*
X141416874Y-108007387D01*
X141362099Y-108052556D01*
X141291600Y-108060942D01*
X141223475Y-108025794D01*
X140708770Y-107511089D01*
X140696384Y-107496677D01*
X140687851Y-107485082D01*
X140687846Y-107485077D01*
X140683508Y-107479182D01*
X140677930Y-107474443D01*
X140677927Y-107474440D01*
X140643232Y-107444965D01*
X140635716Y-107438035D01*
X140630021Y-107432340D01*
X140609288Y-107415937D01*
X140607749Y-107414719D01*
X140604345Y-107411928D01*
X140554297Y-107369409D01*
X140554295Y-107369408D01*
X140548715Y-107364667D01*
X140542199Y-107361339D01*
X140537150Y-107357972D01*
X140532021Y-107354805D01*
X140526284Y-107350266D01*
X140460125Y-107319345D01*
X140456225Y-107317439D01*
X140391192Y-107284231D01*
X140384084Y-107282492D01*
X140378441Y-107280393D01*
X140372678Y-107278476D01*
X140366050Y-107275378D01*
X140294583Y-107260513D01*
X140290299Y-107259543D01*
X140278080Y-107256553D01*
X140219390Y-107242192D01*
X140213788Y-107241844D01*
X140213785Y-107241844D01*
X140208236Y-107241500D01*
X140208238Y-107241464D01*
X140204245Y-107241225D01*
X140200053Y-107240851D01*
X140192885Y-107239360D01*
X140126675Y-107241151D01*
X140115479Y-107241454D01*
X140112072Y-107241500D01*
X138976629Y-107241500D01*
X138908508Y-107221498D01*
X138862015Y-107167842D01*
X138851911Y-107097568D01*
X138881405Y-107032988D01*
X138941476Y-106994503D01*
X139089988Y-106951357D01*
X139089990Y-106951356D01*
X139097601Y-106949145D01*
X139212882Y-106880968D01*
X139233980Y-106868491D01*
X139233984Y-106868488D01*
X139240807Y-106864453D01*
X139358453Y-106746807D01*
X139362489Y-106739983D01*
X139362491Y-106739980D01*
X139390938Y-106691878D01*
X139442831Y-106643425D01*
X139512681Y-106630720D01*
X139573452Y-106654081D01*
X139655038Y-106713357D01*
X139693248Y-106741118D01*
X139699276Y-106743802D01*
X139699278Y-106743803D01*
X139735251Y-106759819D01*
X139867712Y-106818794D01*
X139957128Y-106837800D01*
X140048056Y-106857128D01*
X140048061Y-106857128D01*
X140054513Y-106858500D01*
X140245487Y-106858500D01*
X140251939Y-106857128D01*
X140251944Y-106857128D01*
X140342872Y-106837800D01*
X140432288Y-106818794D01*
X140564749Y-106759819D01*
X140600722Y-106743803D01*
X140600724Y-106743802D01*
X140606752Y-106741118D01*
X140648348Y-106710897D01*
X140719312Y-106659338D01*
X140761253Y-106628866D01*
X140786437Y-106600896D01*
X140884621Y-106491852D01*
X140884622Y-106491851D01*
X140889040Y-106486944D01*
X140984527Y-106321556D01*
X141043542Y-106139928D01*
X141063504Y-105950000D01*
X141051695Y-105837639D01*
X141044232Y-105766635D01*
X141044232Y-105766633D01*
X141043542Y-105760072D01*
X140984527Y-105578444D01*
X140889040Y-105413056D01*
X140761253Y-105271134D01*
X140628345Y-105174570D01*
X140612094Y-105162763D01*
X140612093Y-105162762D01*
X140606752Y-105158882D01*
X140600724Y-105156198D01*
X140600722Y-105156197D01*
X140438319Y-105083891D01*
X140438318Y-105083891D01*
X140432288Y-105081206D01*
X140338887Y-105061353D01*
X140251944Y-105042872D01*
X140251939Y-105042872D01*
X140245487Y-105041500D01*
X140186090Y-105041500D01*
X140117969Y-105021498D01*
X140099838Y-105007351D01*
X140096100Y-105003841D01*
X140090321Y-104998414D01*
X140083375Y-104994595D01*
X140083372Y-104994593D01*
X140072566Y-104988652D01*
X140056047Y-104977801D01*
X140055583Y-104977441D01*
X140040041Y-104965386D01*
X140032772Y-104962241D01*
X140032768Y-104962238D01*
X139999463Y-104947826D01*
X139988813Y-104942609D01*
X139950060Y-104921305D01*
X139930437Y-104916267D01*
X139911734Y-104909863D01*
X139900420Y-104904967D01*
X139900419Y-104904967D01*
X139893145Y-104901819D01*
X139885322Y-104900580D01*
X139885312Y-104900577D01*
X139849476Y-104894901D01*
X139837856Y-104892495D01*
X139802711Y-104883472D01*
X139802710Y-104883472D01*
X139795030Y-104881500D01*
X139774776Y-104881500D01*
X139755065Y-104879949D01*
X139742886Y-104878020D01*
X139735057Y-104876780D01*
X139727165Y-104877526D01*
X139691039Y-104880941D01*
X139679181Y-104881500D01*
X139666751Y-104881500D01*
X139598630Y-104861498D01*
X139552137Y-104807842D01*
X139542033Y-104737568D01*
X139571527Y-104672988D01*
X139577656Y-104666405D01*
X140204471Y-104039591D01*
X140892253Y-103351809D01*
X140900539Y-103344269D01*
X140907018Y-103340157D01*
X140953644Y-103290505D01*
X140956398Y-103287664D01*
X140976135Y-103267927D01*
X140978615Y-103264730D01*
X140986320Y-103255708D01*
X141016586Y-103223478D01*
X141020405Y-103216532D01*
X141020407Y-103216529D01*
X141026348Y-103205723D01*
X141037199Y-103189204D01*
X141044758Y-103179458D01*
X141049614Y-103173198D01*
X141052759Y-103165929D01*
X141052762Y-103165925D01*
X141067174Y-103132620D01*
X141072391Y-103121970D01*
X141093695Y-103083217D01*
X141098733Y-103063594D01*
X141105137Y-103044891D01*
X141110033Y-103033577D01*
X141110033Y-103033576D01*
X141113181Y-103026302D01*
X141114420Y-103018479D01*
X141114423Y-103018469D01*
X141120099Y-102982633D01*
X141122505Y-102971013D01*
X141131528Y-102935868D01*
X141131528Y-102935867D01*
X141133500Y-102928187D01*
X141133500Y-102907933D01*
X141135051Y-102888222D01*
X141136980Y-102876043D01*
X141138220Y-102868214D01*
X141134059Y-102824195D01*
X141133500Y-102812338D01*
X141133500Y-100856268D01*
X141134027Y-100845085D01*
X141135702Y-100837592D01*
X141133562Y-100769501D01*
X141133500Y-100765544D01*
X141133500Y-100737644D01*
X141132996Y-100733653D01*
X141132063Y-100721811D01*
X141132005Y-100719943D01*
X141130674Y-100677611D01*
X141128462Y-100669997D01*
X141128461Y-100669992D01*
X141125023Y-100658159D01*
X141121012Y-100638795D01*
X141119467Y-100626564D01*
X141118474Y-100618703D01*
X141115557Y-100611336D01*
X141115556Y-100611331D01*
X141102198Y-100577592D01*
X141098354Y-100566365D01*
X141094930Y-100554580D01*
X141086018Y-100523907D01*
X141079340Y-100512616D01*
X141075707Y-100506472D01*
X141067012Y-100488724D01*
X141059552Y-100469883D01*
X141033564Y-100434113D01*
X141027048Y-100424193D01*
X141008580Y-100392965D01*
X141008578Y-100392962D01*
X141004542Y-100386138D01*
X140990221Y-100371817D01*
X140977380Y-100356783D01*
X140970131Y-100346806D01*
X140965472Y-100340393D01*
X140931395Y-100312202D01*
X140922616Y-100304212D01*
X138555405Y-97937000D01*
X138521379Y-97874688D01*
X138518500Y-97847905D01*
X138518500Y-97512928D01*
X138507707Y-97408907D01*
X138486152Y-97344297D01*
X138454972Y-97250841D01*
X138452654Y-97243893D01*
X138361116Y-97095969D01*
X138363249Y-97094649D01*
X138341054Y-97039834D01*
X138354216Y-96970068D01*
X138359175Y-96961248D01*
X138439369Y-96831150D01*
X138439370Y-96831148D01*
X138443209Y-96824920D01*
X138497974Y-96659809D01*
X138498977Y-96650027D01*
X138508172Y-96560271D01*
X138508500Y-96557072D01*
X138508500Y-95982928D01*
X138508164Y-95979687D01*
X138508163Y-95979673D01*
X138503254Y-95932361D01*
X138516119Y-95862540D01*
X138564691Y-95810759D01*
X138633547Y-95793457D01*
X138702729Y-95817487D01*
X138809972Y-95895547D01*
X139049947Y-96021804D01*
X139054248Y-96023323D01*
X139054253Y-96023325D01*
X139187087Y-96070233D01*
X139305634Y-96112096D01*
X139403653Y-96131415D01*
X139567206Y-96163652D01*
X139567212Y-96163653D01*
X139571678Y-96164533D01*
X139576232Y-96164760D01*
X139576234Y-96164760D01*
X139837936Y-96177789D01*
X139837942Y-96177789D01*
X139842505Y-96178016D01*
X140112441Y-96152262D01*
X140116870Y-96151178D01*
X140116877Y-96151177D01*
X140276584Y-96112096D01*
X140375832Y-96087810D01*
X140407242Y-96075088D01*
X140622931Y-95987725D01*
X140622932Y-95987725D01*
X140627160Y-95986012D01*
X140861161Y-95848999D01*
X141072932Y-95679641D01*
X141254867Y-95484882D01*
X141315982Y-95448758D01*
X141386929Y-95451410D01*
G37*
%TD.AperFunction*%
%TA.AperFunction,Conductor*%
G36*
X138915370Y-100744728D02*
G01*
X138966767Y-100775861D01*
X139380094Y-101189188D01*
X139414120Y-101251500D01*
X139416999Y-101278283D01*
X139416999Y-102147374D01*
X139396997Y-102215495D01*
X139380094Y-102236469D01*
X137827291Y-103789271D01*
X137764979Y-103823297D01*
X137694163Y-103818232D01*
X137637328Y-103775685D01*
X137631274Y-103763590D01*
X137622135Y-103755671D01*
X137614452Y-103754000D01*
X136454500Y-103754000D01*
X136386379Y-103733998D01*
X136339886Y-103680342D01*
X136328500Y-103628000D01*
X136328500Y-103372000D01*
X136348502Y-103303879D01*
X136402158Y-103257386D01*
X136454500Y-103246000D01*
X137609885Y-103246000D01*
X137625124Y-103241525D01*
X137626329Y-103240135D01*
X137628000Y-103232452D01*
X137628000Y-103216234D01*
X137627663Y-103209718D01*
X137617925Y-103115868D01*
X137615031Y-103102469D01*
X137614861Y-103101959D01*
X137614849Y-103101625D01*
X137613576Y-103095731D01*
X137614626Y-103095504D01*
X137612280Y-103031009D01*
X137648467Y-102969927D01*
X137718377Y-102937110D01*
X137793847Y-102927442D01*
X137798795Y-102925957D01*
X137798802Y-102925956D01*
X138010747Y-102862369D01*
X138015690Y-102860886D01*
X138090584Y-102824196D01*
X138219049Y-102761262D01*
X138219052Y-102761260D01*
X138223684Y-102758991D01*
X138412243Y-102624494D01*
X138576303Y-102461005D01*
X138583707Y-102450702D01*
X138602680Y-102424297D01*
X138711458Y-102272917D01*
X138736932Y-102221375D01*
X138811784Y-102069922D01*
X138811785Y-102069920D01*
X138814078Y-102065280D01*
X138881408Y-101843671D01*
X138911640Y-101614041D01*
X138913327Y-101545000D01*
X138905362Y-101448115D01*
X138894773Y-101319318D01*
X138894772Y-101319312D01*
X138894349Y-101314167D01*
X138837925Y-101089533D01*
X138785525Y-100969020D01*
X138762122Y-100915198D01*
X138753302Y-100844752D01*
X138783969Y-100780720D01*
X138844385Y-100743432D01*
X138915370Y-100744728D01*
G37*
%TD.AperFunction*%
%TA.AperFunction,Conductor*%
G36*
X134990028Y-98631880D02*
G01*
X135095895Y-98697137D01*
X135130080Y-98718209D01*
X135295191Y-98772974D01*
X135302027Y-98773674D01*
X135302030Y-98773675D01*
X135353526Y-98778951D01*
X135397928Y-98783500D01*
X135735406Y-98783500D01*
X135803527Y-98803502D01*
X135824501Y-98820405D01*
X136421842Y-99417746D01*
X136429386Y-99426036D01*
X136433499Y-99432517D01*
X136439276Y-99437942D01*
X136483166Y-99479157D01*
X136486008Y-99481912D01*
X136505729Y-99501633D01*
X136508924Y-99504111D01*
X136517946Y-99511817D01*
X136550178Y-99542085D01*
X136557127Y-99545905D01*
X136567931Y-99551845D01*
X136584455Y-99562698D01*
X136600458Y-99575112D01*
X136641042Y-99592675D01*
X136651672Y-99597882D01*
X136690439Y-99619194D01*
X136698116Y-99621165D01*
X136698121Y-99621167D01*
X136710057Y-99624231D01*
X136728765Y-99630636D01*
X136747354Y-99638680D01*
X136755182Y-99639920D01*
X136755189Y-99639922D01*
X136791023Y-99645598D01*
X136802643Y-99648004D01*
X136837788Y-99657027D01*
X136845469Y-99658999D01*
X136865723Y-99658999D01*
X136885433Y-99660550D01*
X136905442Y-99663719D01*
X136913334Y-99662973D01*
X136949460Y-99659558D01*
X136961318Y-99658999D01*
X137797715Y-99658999D01*
X137865836Y-99679001D01*
X137886810Y-99695904D01*
X138269601Y-100078695D01*
X138303627Y-100141007D01*
X138298562Y-100211822D01*
X138256015Y-100268658D01*
X138189495Y-100293469D01*
X138119613Y-100278099D01*
X138083884Y-100258376D01*
X138083883Y-100258375D01*
X138079355Y-100255876D01*
X138074486Y-100254152D01*
X138074482Y-100254150D01*
X137865903Y-100180288D01*
X137865899Y-100180287D01*
X137861028Y-100178562D01*
X137855935Y-100177655D01*
X137855932Y-100177654D01*
X137638095Y-100138851D01*
X137638089Y-100138850D01*
X137633006Y-100137945D01*
X137555644Y-100137000D01*
X137406581Y-100135179D01*
X137406579Y-100135179D01*
X137401411Y-100135116D01*
X137172464Y-100170150D01*
X136952314Y-100242106D01*
X136947726Y-100244494D01*
X136947722Y-100244496D01*
X136763506Y-100340393D01*
X136746872Y-100349052D01*
X136742739Y-100352155D01*
X136742736Y-100352157D01*
X136597786Y-100460989D01*
X136561655Y-100488117D01*
X136512347Y-100539715D01*
X136418358Y-100638069D01*
X136401639Y-100655564D01*
X136354836Y-100724174D01*
X136299927Y-100769175D01*
X136229402Y-100777346D01*
X136165655Y-100746092D01*
X136144959Y-100721609D01*
X136122577Y-100687013D01*
X136122576Y-100687012D01*
X136119764Y-100682665D01*
X136115166Y-100677611D01*
X136013939Y-100566365D01*
X135963887Y-100511358D01*
X135959836Y-100508159D01*
X135959832Y-100508155D01*
X135786177Y-100371011D01*
X135786172Y-100371008D01*
X135782123Y-100367810D01*
X135777607Y-100365317D01*
X135777604Y-100365315D01*
X135583879Y-100258373D01*
X135583875Y-100258371D01*
X135579355Y-100255876D01*
X135574486Y-100254152D01*
X135574482Y-100254150D01*
X135365903Y-100180288D01*
X135365899Y-100180287D01*
X135361028Y-100178562D01*
X135355935Y-100177655D01*
X135355932Y-100177654D01*
X135138095Y-100138851D01*
X135138089Y-100138850D01*
X135133006Y-100137945D01*
X135055644Y-100137000D01*
X134906581Y-100135179D01*
X134906579Y-100135179D01*
X134901411Y-100135116D01*
X134672464Y-100170150D01*
X134452314Y-100242106D01*
X134447726Y-100244494D01*
X134447722Y-100244496D01*
X134263506Y-100340393D01*
X134246872Y-100349052D01*
X134242739Y-100352155D01*
X134242736Y-100352157D01*
X134097786Y-100460989D01*
X134061655Y-100488117D01*
X134061066Y-100487333D01*
X134001346Y-100515484D01*
X133930955Y-100506231D01*
X133876741Y-100460391D01*
X133863925Y-100435224D01*
X133853323Y-100406944D01*
X133844786Y-100391351D01*
X133768285Y-100289276D01*
X133755724Y-100276715D01*
X133653649Y-100200214D01*
X133638054Y-100191676D01*
X133517606Y-100146522D01*
X133502351Y-100142895D01*
X133451486Y-100137369D01*
X133444672Y-100137000D01*
X132628784Y-100137001D01*
X132560663Y-100116999D01*
X132514170Y-100063343D01*
X132504066Y-99993069D01*
X132533559Y-99928489D01*
X132539689Y-99921906D01*
X133646525Y-98815070D01*
X133708837Y-98781044D01*
X133748460Y-98778821D01*
X133842928Y-98788500D01*
X134442072Y-98788500D01*
X134445318Y-98788163D01*
X134445322Y-98788163D01*
X134539235Y-98778419D01*
X134539239Y-98778418D01*
X134546093Y-98777707D01*
X134552629Y-98775526D01*
X134552631Y-98775526D01*
X134704159Y-98724972D01*
X134711107Y-98722654D01*
X134857609Y-98631996D01*
X134926061Y-98613158D01*
X134990028Y-98631880D01*
G37*
%TD.AperFunction*%
%TA.AperFunction,Conductor*%
G36*
X141368549Y-77216521D02*
G01*
X141425385Y-77259068D01*
X141450196Y-77325588D01*
X141449804Y-77347962D01*
X141438184Y-77456695D01*
X141438481Y-77461847D01*
X141438481Y-77461851D01*
X141443767Y-77553526D01*
X141451043Y-77679715D01*
X141452180Y-77684761D01*
X141452181Y-77684767D01*
X141455523Y-77699594D01*
X141500155Y-77897639D01*
X141538394Y-77991811D01*
X141578721Y-78091124D01*
X141584199Y-78104616D01*
X141700920Y-78295088D01*
X141847183Y-78463938D01*
X142019059Y-78606632D01*
X142089528Y-78647811D01*
X142092378Y-78649476D01*
X142141102Y-78701114D01*
X142154173Y-78770897D01*
X142127442Y-78836669D01*
X142086988Y-78870027D01*
X142074540Y-78876507D01*
X142070407Y-78879610D01*
X142070404Y-78879612D01*
X141900033Y-79007530D01*
X141895898Y-79010635D01*
X141741562Y-79172138D01*
X141738648Y-79176410D01*
X141738647Y-79176411D01*
X141673500Y-79271913D01*
X141615676Y-79356680D01*
X141521621Y-79559305D01*
X141461922Y-79774570D01*
X141438184Y-79996695D01*
X141438481Y-80001848D01*
X141438481Y-80001851D01*
X141447895Y-80165116D01*
X141451043Y-80219715D01*
X141452180Y-80224761D01*
X141452181Y-80224767D01*
X141464916Y-80281274D01*
X141500155Y-80437639D01*
X141584199Y-80644616D01*
X141611298Y-80688838D01*
X141666657Y-80779175D01*
X141700920Y-80835088D01*
X141847183Y-81003938D01*
X142019059Y-81146632D01*
X142089528Y-81187811D01*
X142092378Y-81189476D01*
X142141102Y-81241114D01*
X142154173Y-81310897D01*
X142127442Y-81376669D01*
X142086988Y-81410027D01*
X142074540Y-81416507D01*
X142070407Y-81419610D01*
X142070404Y-81419612D01*
X141900033Y-81547530D01*
X141895898Y-81550635D01*
X141741562Y-81712138D01*
X141615676Y-81896680D01*
X141521621Y-82099305D01*
X141461922Y-82314570D01*
X141438184Y-82536695D01*
X141438481Y-82541848D01*
X141438481Y-82541851D01*
X141443823Y-82634494D01*
X141451043Y-82759715D01*
X141452180Y-82764761D01*
X141452181Y-82764767D01*
X141465369Y-82823285D01*
X141500155Y-82977639D01*
X141584199Y-83184616D01*
X141700920Y-83375088D01*
X141847183Y-83543938D01*
X142019059Y-83686632D01*
X142089528Y-83727811D01*
X142092378Y-83729476D01*
X142141102Y-83781114D01*
X142154173Y-83850897D01*
X142127442Y-83916669D01*
X142086988Y-83950027D01*
X142074540Y-83956507D01*
X142070407Y-83959610D01*
X142070404Y-83959612D01*
X141900033Y-84087530D01*
X141895898Y-84090635D01*
X141741562Y-84252138D01*
X141615676Y-84436680D01*
X141521621Y-84639305D01*
X141461922Y-84854570D01*
X141438184Y-85076695D01*
X141438481Y-85081848D01*
X141438481Y-85081851D01*
X141443944Y-85176590D01*
X141451043Y-85299715D01*
X141452180Y-85304761D01*
X141452181Y-85304767D01*
X141472052Y-85392939D01*
X141500155Y-85517639D01*
X141584199Y-85724616D01*
X141700920Y-85915088D01*
X141847183Y-86083938D01*
X142019059Y-86226632D01*
X142089528Y-86267811D01*
X142092378Y-86269476D01*
X142141102Y-86321114D01*
X142154173Y-86390897D01*
X142127442Y-86456669D01*
X142086988Y-86490027D01*
X142074540Y-86496507D01*
X142070407Y-86499610D01*
X142070404Y-86499612D01*
X141900033Y-86627530D01*
X141895898Y-86630635D01*
X141741562Y-86792138D01*
X141615676Y-86976680D01*
X141521621Y-87179305D01*
X141461922Y-87394570D01*
X141438184Y-87616695D01*
X141438481Y-87621848D01*
X141438481Y-87621851D01*
X141443944Y-87716590D01*
X141451043Y-87839715D01*
X141452180Y-87844761D01*
X141452181Y-87844767D01*
X141472052Y-87932939D01*
X141500155Y-88057639D01*
X141584199Y-88264616D01*
X141700920Y-88455088D01*
X141847183Y-88623938D01*
X142019059Y-88766632D01*
X142089528Y-88807811D01*
X142092378Y-88809476D01*
X142141102Y-88861114D01*
X142154173Y-88930897D01*
X142127442Y-88996669D01*
X142086988Y-89030027D01*
X142074540Y-89036507D01*
X142070407Y-89039610D01*
X142070404Y-89039612D01*
X141900033Y-89167530D01*
X141895898Y-89170635D01*
X141741562Y-89332138D01*
X141615676Y-89516680D01*
X141521621Y-89719305D01*
X141461922Y-89934570D01*
X141438184Y-90156695D01*
X141438481Y-90161848D01*
X141438481Y-90161851D01*
X141443944Y-90256590D01*
X141451043Y-90379715D01*
X141452180Y-90384761D01*
X141452181Y-90384767D01*
X141471477Y-90470385D01*
X141500155Y-90597639D01*
X141584199Y-90804616D01*
X141700920Y-90995088D01*
X141847183Y-91163938D01*
X142019059Y-91306632D01*
X142089528Y-91347811D01*
X142092378Y-91349476D01*
X142141102Y-91401114D01*
X142154173Y-91470897D01*
X142127442Y-91536669D01*
X142086988Y-91570027D01*
X142074540Y-91576507D01*
X142070407Y-91579610D01*
X142070404Y-91579612D01*
X141900033Y-91707530D01*
X141895898Y-91710635D01*
X141890107Y-91716695D01*
X141765086Y-91847522D01*
X141741562Y-91872138D01*
X141615676Y-92056680D01*
X141592646Y-92106295D01*
X141531190Y-92238691D01*
X141521621Y-92259305D01*
X141461922Y-92474570D01*
X141461373Y-92479708D01*
X141461371Y-92479718D01*
X141457271Y-92518079D01*
X141430143Y-92583689D01*
X141371851Y-92624216D01*
X141300901Y-92626795D01*
X141239820Y-92590605D01*
X141231832Y-92581143D01*
X141203167Y-92543583D01*
X141172874Y-92513969D01*
X141012531Y-92357224D01*
X141009264Y-92354030D01*
X140964672Y-92321572D01*
X140793721Y-92197141D01*
X140790028Y-92194453D01*
X140550053Y-92068196D01*
X140545752Y-92066677D01*
X140545747Y-92066675D01*
X140367998Y-92003906D01*
X140294366Y-91977904D01*
X140196347Y-91958585D01*
X140032794Y-91926348D01*
X140032788Y-91926347D01*
X140028322Y-91925467D01*
X140023768Y-91925240D01*
X140023766Y-91925240D01*
X139762064Y-91912211D01*
X139762058Y-91912211D01*
X139757495Y-91911984D01*
X139487559Y-91937738D01*
X139483130Y-91938822D01*
X139483123Y-91938823D01*
X139353069Y-91970648D01*
X139224168Y-92002190D01*
X139219933Y-92003905D01*
X139219931Y-92003906D01*
X139005918Y-92090590D01*
X138972840Y-92103988D01*
X138738839Y-92241001D01*
X138527068Y-92410359D01*
X138523947Y-92413700D01*
X138399227Y-92547212D01*
X138341963Y-92608512D01*
X138187402Y-92831312D01*
X138185374Y-92835388D01*
X138185373Y-92835390D01*
X138092027Y-93023023D01*
X138066621Y-93074090D01*
X137982153Y-93331760D01*
X137981373Y-93336251D01*
X137981373Y-93336252D01*
X137939821Y-93575566D01*
X137935765Y-93598925D01*
X137931500Y-93684600D01*
X137931500Y-94373884D01*
X137931665Y-94376152D01*
X137931665Y-94376164D01*
X137935895Y-94434457D01*
X137946125Y-94575451D01*
X137947109Y-94579906D01*
X137947109Y-94579909D01*
X138003588Y-94835720D01*
X138004585Y-94840237D01*
X138006203Y-94844507D01*
X138097226Y-95084758D01*
X138100655Y-95093810D01*
X138102870Y-95097798D01*
X138102872Y-95097802D01*
X138124072Y-95135969D01*
X138139664Y-95205233D01*
X138115333Y-95271930D01*
X138058806Y-95314886D01*
X137988029Y-95320462D01*
X137974265Y-95316747D01*
X137914809Y-95297026D01*
X137907973Y-95296326D01*
X137907970Y-95296325D01*
X137856474Y-95291049D01*
X137812072Y-95286500D01*
X137112928Y-95286500D01*
X137109682Y-95286837D01*
X137109678Y-95286837D01*
X137015765Y-95296581D01*
X137015761Y-95296582D01*
X137008907Y-95297293D01*
X137002371Y-95299474D01*
X137002369Y-95299474D01*
X136881174Y-95339908D01*
X136843893Y-95352346D01*
X136837661Y-95356202D01*
X136837662Y-95356202D01*
X136703490Y-95439230D01*
X136695969Y-95443884D01*
X136689077Y-95450788D01*
X136687613Y-95451589D01*
X136685062Y-95453611D01*
X136684716Y-95453174D01*
X136626796Y-95484866D01*
X136555976Y-95479863D01*
X136510890Y-95450944D01*
X136508184Y-95448243D01*
X136503003Y-95443071D01*
X136496772Y-95439230D01*
X136428266Y-95397002D01*
X136380772Y-95344229D01*
X136370172Y-95300783D01*
X136369663Y-95300864D01*
X136368684Y-95294684D01*
X136368444Y-95293700D01*
X136368423Y-95293036D01*
X136368174Y-95285111D01*
X136365961Y-95277493D01*
X136362521Y-95265652D01*
X136358512Y-95246293D01*
X136357299Y-95236695D01*
X136355974Y-95226203D01*
X136353058Y-95218837D01*
X136353056Y-95218831D01*
X136339700Y-95185098D01*
X136335855Y-95173868D01*
X136325730Y-95139017D01*
X136325730Y-95139016D01*
X136323519Y-95131407D01*
X136313205Y-95113966D01*
X136304508Y-95096213D01*
X136299972Y-95084758D01*
X136297052Y-95077383D01*
X136271063Y-95041612D01*
X136264547Y-95031692D01*
X136242042Y-94993638D01*
X136227721Y-94979317D01*
X136214880Y-94964283D01*
X136207632Y-94954307D01*
X136202972Y-94947893D01*
X136168901Y-94919707D01*
X136160122Y-94911718D01*
X136135405Y-94887001D01*
X136101379Y-94824689D01*
X136098500Y-94797906D01*
X136098500Y-94462928D01*
X136096393Y-94442617D01*
X136088419Y-94365765D01*
X136088418Y-94365761D01*
X136087707Y-94358907D01*
X136067003Y-94296848D01*
X136034972Y-94200841D01*
X136032654Y-94193893D01*
X135948503Y-94057906D01*
X135929665Y-93989455D01*
X135950634Y-93922300D01*
X135951929Y-93921003D01*
X135996163Y-93849242D01*
X136039369Y-93779150D01*
X136039370Y-93779148D01*
X136043209Y-93772920D01*
X136097974Y-93607809D01*
X136098885Y-93598925D01*
X136108172Y-93508271D01*
X136108500Y-93505072D01*
X136108500Y-92930928D01*
X136103703Y-92884694D01*
X136098419Y-92833765D01*
X136098418Y-92833761D01*
X136097707Y-92826907D01*
X136088700Y-92799908D01*
X136044972Y-92668841D01*
X136042654Y-92661893D01*
X135992846Y-92581404D01*
X135974009Y-92512952D01*
X135995171Y-92445183D01*
X136049612Y-92399612D01*
X136073792Y-92391856D01*
X136182288Y-92368794D01*
X136215449Y-92354030D01*
X136350722Y-92293803D01*
X136350724Y-92293802D01*
X136356752Y-92291118D01*
X136409999Y-92252432D01*
X136434680Y-92234500D01*
X136511253Y-92178866D01*
X136576596Y-92106295D01*
X136634621Y-92041852D01*
X136634622Y-92041851D01*
X136639040Y-92036944D01*
X136734527Y-91871556D01*
X136793542Y-91689928D01*
X136810907Y-91524706D01*
X136837920Y-91459050D01*
X136847122Y-91448782D01*
X140592247Y-87703657D01*
X140600537Y-87696113D01*
X140607018Y-87692000D01*
X140653659Y-87642332D01*
X140656413Y-87639491D01*
X140676134Y-87619770D01*
X140678612Y-87616575D01*
X140686318Y-87607553D01*
X140711158Y-87581101D01*
X140716586Y-87575321D01*
X140726346Y-87557568D01*
X140737199Y-87541045D01*
X140744753Y-87531306D01*
X140749613Y-87525041D01*
X140767176Y-87484457D01*
X140772383Y-87473827D01*
X140793695Y-87435060D01*
X140795666Y-87427383D01*
X140795668Y-87427378D01*
X140798732Y-87415442D01*
X140805138Y-87396730D01*
X140810033Y-87385419D01*
X140813181Y-87378145D01*
X140814421Y-87370317D01*
X140814423Y-87370310D01*
X140820099Y-87334476D01*
X140822505Y-87322856D01*
X140831528Y-87287711D01*
X140831528Y-87287710D01*
X140833500Y-87280030D01*
X140833500Y-87259776D01*
X140835051Y-87240065D01*
X140836980Y-87227886D01*
X140838220Y-87220057D01*
X140834059Y-87176038D01*
X140833500Y-87164181D01*
X140833500Y-77699594D01*
X140853502Y-77631473D01*
X140870405Y-77610499D01*
X141235422Y-77245482D01*
X141297734Y-77211456D01*
X141368549Y-77216521D01*
G37*
%TD.AperFunction*%
%TA.AperFunction,Conductor*%
G36*
X131805490Y-75462951D02*
G01*
X131863741Y-75503540D01*
X131890800Y-75569177D01*
X131891500Y-75582437D01*
X131891500Y-78095761D01*
X131871498Y-78163882D01*
X131854595Y-78184856D01*
X130103766Y-79935685D01*
X130091375Y-79946552D01*
X130066013Y-79966013D01*
X130041526Y-79997925D01*
X130041523Y-79997928D01*
X130041517Y-79997936D01*
X129983655Y-80073343D01*
X129968476Y-80093124D01*
X129907162Y-80241149D01*
X129907162Y-80241150D01*
X129905414Y-80254426D01*
X129897711Y-80312939D01*
X129891500Y-80360115D01*
X129891500Y-80360120D01*
X129886250Y-80400000D01*
X129887328Y-80408188D01*
X129890422Y-80431690D01*
X129891500Y-80448136D01*
X129891500Y-90382364D01*
X129890422Y-90398807D01*
X129886250Y-90430500D01*
X129891500Y-90470380D01*
X129891500Y-90470385D01*
X129903874Y-90564373D01*
X129907162Y-90589351D01*
X129968476Y-90737376D01*
X129973503Y-90743927D01*
X129973504Y-90743929D01*
X130041520Y-90832569D01*
X130041526Y-90832575D01*
X130066013Y-90864487D01*
X130072568Y-90869517D01*
X130091379Y-90883952D01*
X130103770Y-90894819D01*
X131062766Y-91853815D01*
X131096792Y-91916127D01*
X131091727Y-91986942D01*
X131049180Y-92043778D01*
X130982660Y-92068589D01*
X130931715Y-92061720D01*
X130842909Y-92030360D01*
X130694366Y-91977904D01*
X130596347Y-91958585D01*
X130432794Y-91926348D01*
X130432788Y-91926347D01*
X130428322Y-91925467D01*
X130423768Y-91925240D01*
X130423766Y-91925240D01*
X130162064Y-91912211D01*
X130162058Y-91912211D01*
X130157495Y-91911984D01*
X129887559Y-91937738D01*
X129883130Y-91938822D01*
X129883123Y-91938823D01*
X129753069Y-91970648D01*
X129624168Y-92002190D01*
X129619933Y-92003905D01*
X129619931Y-92003906D01*
X129405918Y-92090590D01*
X129372840Y-92103988D01*
X129138839Y-92241001D01*
X129121822Y-92254610D01*
X129038090Y-92321572D01*
X128972397Y-92348496D01*
X128902576Y-92335630D01*
X128850794Y-92287059D01*
X128843846Y-92273412D01*
X128764352Y-92090589D01*
X128764352Y-92090588D01*
X128762287Y-92085840D01*
X128722839Y-92024862D01*
X128643755Y-91902617D01*
X128643753Y-91902614D01*
X128640947Y-91898277D01*
X128490603Y-91733051D01*
X128486552Y-91729852D01*
X128486548Y-91729848D01*
X128319347Y-91597800D01*
X128319343Y-91597798D01*
X128315292Y-91594598D01*
X128273986Y-91571796D01*
X128224017Y-91521364D01*
X128209245Y-91451921D01*
X128234361Y-91385516D01*
X128261713Y-91358909D01*
X128330180Y-91310072D01*
X128440793Y-91231173D01*
X128599029Y-91073489D01*
X128658527Y-90990689D01*
X128726368Y-90896277D01*
X128729386Y-90892077D01*
X128746261Y-90857934D01*
X128826069Y-90696453D01*
X128826070Y-90696451D01*
X128828363Y-90691811D01*
X128893303Y-90478069D01*
X128922462Y-90256590D01*
X128922544Y-90253240D01*
X128924007Y-90193365D01*
X128924007Y-90193361D01*
X128924089Y-90190000D01*
X128905785Y-89967361D01*
X128851364Y-89750702D01*
X128762287Y-89545840D01*
X128640947Y-89358277D01*
X128490603Y-89193051D01*
X128486552Y-89189852D01*
X128486548Y-89189848D01*
X128319347Y-89057800D01*
X128319343Y-89057798D01*
X128315292Y-89054598D01*
X128273986Y-89031796D01*
X128224017Y-88981364D01*
X128209245Y-88911921D01*
X128234361Y-88845516D01*
X128261713Y-88818909D01*
X128305536Y-88787650D01*
X128440793Y-88691173D01*
X128599029Y-88533489D01*
X128658527Y-88450689D01*
X128726368Y-88356277D01*
X128729386Y-88352077D01*
X128828363Y-88151811D01*
X128893303Y-87938069D01*
X128922462Y-87716590D01*
X128924089Y-87650000D01*
X128905785Y-87427361D01*
X128851364Y-87210702D01*
X128762287Y-87005840D01*
X128640947Y-86818277D01*
X128490603Y-86653051D01*
X128486552Y-86649852D01*
X128486548Y-86649848D01*
X128319347Y-86517800D01*
X128319343Y-86517798D01*
X128315292Y-86514598D01*
X128273986Y-86491796D01*
X128224017Y-86441364D01*
X128209245Y-86371921D01*
X128234361Y-86305516D01*
X128261713Y-86278909D01*
X128305536Y-86247650D01*
X128440793Y-86151173D01*
X128599029Y-85993489D01*
X128658527Y-85910689D01*
X128726368Y-85816277D01*
X128729386Y-85812077D01*
X128753196Y-85763902D01*
X128826069Y-85616453D01*
X128826070Y-85616451D01*
X128828363Y-85611811D01*
X128893303Y-85398069D01*
X128922462Y-85176590D01*
X128924089Y-85110000D01*
X128905785Y-84887361D01*
X128851364Y-84670702D01*
X128762287Y-84465840D01*
X128640947Y-84278277D01*
X128490603Y-84113051D01*
X128486552Y-84109852D01*
X128486548Y-84109848D01*
X128319347Y-83977800D01*
X128319343Y-83977798D01*
X128315292Y-83974598D01*
X128273986Y-83951796D01*
X128224017Y-83901364D01*
X128209245Y-83831921D01*
X128234361Y-83765516D01*
X128261713Y-83738909D01*
X128305536Y-83707650D01*
X128440793Y-83611173D01*
X128599029Y-83453489D01*
X128658527Y-83370689D01*
X128726368Y-83276277D01*
X128729386Y-83272077D01*
X128828363Y-83071811D01*
X128865539Y-82949452D01*
X128891798Y-82863023D01*
X128891798Y-82863021D01*
X128893303Y-82858069D01*
X128922462Y-82636590D01*
X128923150Y-82608451D01*
X128924007Y-82573365D01*
X128924007Y-82573361D01*
X128924089Y-82570000D01*
X128905785Y-82347361D01*
X128851364Y-82130702D01*
X128762287Y-81925840D01*
X128640947Y-81738277D01*
X128490603Y-81573051D01*
X128486552Y-81569852D01*
X128486548Y-81569848D01*
X128319347Y-81437800D01*
X128319343Y-81437798D01*
X128315292Y-81434598D01*
X128273986Y-81411796D01*
X128224017Y-81361364D01*
X128209245Y-81291921D01*
X128234361Y-81225516D01*
X128261713Y-81198909D01*
X128305536Y-81167650D01*
X128440793Y-81071173D01*
X128599029Y-80913489D01*
X128658527Y-80830689D01*
X128726368Y-80736277D01*
X128729386Y-80732077D01*
X128764106Y-80661827D01*
X128826069Y-80536453D01*
X128826070Y-80536451D01*
X128828363Y-80531811D01*
X128889045Y-80332083D01*
X128891798Y-80323023D01*
X128891798Y-80323021D01*
X128893303Y-80318069D01*
X128922462Y-80096590D01*
X128924089Y-80030000D01*
X128905785Y-79807361D01*
X128851364Y-79590702D01*
X128762287Y-79385840D01*
X128688584Y-79271913D01*
X128643755Y-79202617D01*
X128643753Y-79202614D01*
X128640947Y-79198277D01*
X128490603Y-79033051D01*
X128486552Y-79029852D01*
X128486548Y-79029848D01*
X128319347Y-78897800D01*
X128319343Y-78897798D01*
X128315292Y-78894598D01*
X128273986Y-78871796D01*
X128224017Y-78821364D01*
X128209245Y-78751921D01*
X128234361Y-78685516D01*
X128261713Y-78658909D01*
X128305536Y-78627650D01*
X128440793Y-78531173D01*
X128599029Y-78373489D01*
X128602751Y-78368310D01*
X128726368Y-78196277D01*
X128729386Y-78192077D01*
X128751195Y-78147951D01*
X128826069Y-77996453D01*
X128826070Y-77996451D01*
X128828363Y-77991811D01*
X128893303Y-77778069D01*
X128922462Y-77556590D01*
X128924089Y-77490000D01*
X128905785Y-77267361D01*
X128851364Y-77050702D01*
X128762287Y-76845840D01*
X128640947Y-76658277D01*
X128490603Y-76493051D01*
X128486552Y-76489852D01*
X128486548Y-76489848D01*
X128319347Y-76357800D01*
X128319343Y-76357798D01*
X128315292Y-76354598D01*
X128273986Y-76331796D01*
X128224017Y-76281364D01*
X128209245Y-76211921D01*
X128234361Y-76145516D01*
X128261713Y-76118909D01*
X128305536Y-76087650D01*
X128440793Y-75991173D01*
X128599029Y-75833489D01*
X128720286Y-75664741D01*
X128776281Y-75621093D01*
X128846984Y-75614647D01*
X128910687Y-75648165D01*
X129010736Y-75745970D01*
X129014428Y-75748657D01*
X129014430Y-75748659D01*
X129135986Y-75837137D01*
X129229972Y-75905547D01*
X129469947Y-76031804D01*
X129474248Y-76033323D01*
X129474253Y-76033325D01*
X129607087Y-76080233D01*
X129725634Y-76122096D01*
X129823653Y-76141415D01*
X129987206Y-76173652D01*
X129987212Y-76173653D01*
X129991678Y-76174533D01*
X129996232Y-76174760D01*
X129996234Y-76174760D01*
X130257936Y-76187789D01*
X130257942Y-76187789D01*
X130262505Y-76188016D01*
X130532441Y-76162262D01*
X130536870Y-76161178D01*
X130536877Y-76161177D01*
X130701488Y-76120896D01*
X130795832Y-76097810D01*
X130955039Y-76033325D01*
X131042931Y-75997725D01*
X131042932Y-75997725D01*
X131047160Y-75996012D01*
X131281161Y-75858999D01*
X131492932Y-75689641D01*
X131673425Y-75496425D01*
X131734543Y-75460299D01*
X131805490Y-75462951D01*
G37*
%TD.AperFunction*%
%TA.AperFunction,Conductor*%
G36*
X126745255Y-63528502D02*
G01*
X126791748Y-63582158D01*
X126802826Y-63643308D01*
X126801314Y-63664887D01*
X126808901Y-63678758D01*
X127548121Y-64417978D01*
X127562065Y-64425592D01*
X127563898Y-64425461D01*
X127570513Y-64421210D01*
X128314322Y-63677401D01*
X128321936Y-63663457D01*
X128320508Y-63643490D01*
X128335599Y-63574115D01*
X128385801Y-63523913D01*
X128446187Y-63508500D01*
X141867360Y-63508500D01*
X141935481Y-63528502D01*
X141981974Y-63582158D01*
X141992078Y-63652432D01*
X141962584Y-63717012D01*
X141943013Y-63735260D01*
X141895898Y-63770635D01*
X141741562Y-63932138D01*
X141615676Y-64116680D01*
X141521621Y-64319305D01*
X141461922Y-64534570D01*
X141438184Y-64756695D01*
X141438481Y-64761848D01*
X141438481Y-64761851D01*
X141443944Y-64856590D01*
X141451043Y-64979715D01*
X141452180Y-64984761D01*
X141452181Y-64984767D01*
X141472052Y-65072939D01*
X141500155Y-65197639D01*
X141584199Y-65404616D01*
X141700920Y-65595088D01*
X141847183Y-65763938D01*
X142019059Y-65906632D01*
X142089528Y-65947811D01*
X142092378Y-65949476D01*
X142141102Y-66001114D01*
X142154173Y-66070897D01*
X142127442Y-66136669D01*
X142086988Y-66170027D01*
X142074540Y-66176507D01*
X142070407Y-66179610D01*
X142070404Y-66179612D01*
X142046180Y-66197800D01*
X141895898Y-66310635D01*
X141741562Y-66472138D01*
X141738648Y-66476410D01*
X141738647Y-66476411D01*
X141626028Y-66641504D01*
X141571117Y-66686507D01*
X141521940Y-66696500D01*
X141355096Y-66696500D01*
X141286975Y-66676498D01*
X141240482Y-66622842D01*
X141229833Y-66556893D01*
X141233131Y-66526533D01*
X141233131Y-66526529D01*
X141233500Y-66523134D01*
X141233500Y-65426866D01*
X141226745Y-65364684D01*
X141175615Y-65228295D01*
X141088261Y-65111739D01*
X140971705Y-65024385D01*
X140835316Y-64973255D01*
X140773134Y-64966500D01*
X139676866Y-64966500D01*
X139614684Y-64973255D01*
X139478295Y-65024385D01*
X139361739Y-65111739D01*
X139274385Y-65228295D01*
X139223255Y-65364684D01*
X139216500Y-65426866D01*
X139216500Y-66523134D01*
X139223255Y-66585316D01*
X139274385Y-66721705D01*
X139361739Y-66838261D01*
X139478295Y-66925615D01*
X139614684Y-66976745D01*
X139676866Y-66983500D01*
X140380716Y-66983500D01*
X140448837Y-67003502D01*
X140495330Y-67057158D01*
X140505434Y-67127432D01*
X140475940Y-67192012D01*
X140469812Y-67198594D01*
X138486901Y-69181504D01*
X136507747Y-71160658D01*
X136499461Y-71168198D01*
X136492982Y-71172310D01*
X136487557Y-71178087D01*
X136446357Y-71221961D01*
X136443602Y-71224803D01*
X136423865Y-71244540D01*
X136421385Y-71247737D01*
X136413682Y-71256757D01*
X136383414Y-71288989D01*
X136379595Y-71295935D01*
X136379593Y-71295938D01*
X136373652Y-71306744D01*
X136362801Y-71323263D01*
X136350386Y-71339269D01*
X136347241Y-71346538D01*
X136347238Y-71346542D01*
X136332826Y-71379847D01*
X136327609Y-71390497D01*
X136306305Y-71429250D01*
X136304334Y-71436925D01*
X136304334Y-71436926D01*
X136301267Y-71448872D01*
X136294863Y-71467576D01*
X136286819Y-71486165D01*
X136285580Y-71493988D01*
X136285577Y-71493998D01*
X136279901Y-71529834D01*
X136277495Y-71541454D01*
X136266500Y-71584280D01*
X136266500Y-71604534D01*
X136264949Y-71624244D01*
X136261780Y-71644253D01*
X136262526Y-71652145D01*
X136265941Y-71688271D01*
X136266500Y-71700129D01*
X136266500Y-77485405D01*
X136246498Y-77553526D01*
X136229595Y-77574500D01*
X134627747Y-79176348D01*
X134619461Y-79183888D01*
X134612982Y-79188000D01*
X134607557Y-79193777D01*
X134566357Y-79237651D01*
X134563602Y-79240493D01*
X134543865Y-79260230D01*
X134541385Y-79263427D01*
X134533682Y-79272447D01*
X134503414Y-79304679D01*
X134499595Y-79311625D01*
X134499593Y-79311628D01*
X134493652Y-79322434D01*
X134482801Y-79338953D01*
X134470386Y-79354959D01*
X134467241Y-79362228D01*
X134467238Y-79362232D01*
X134452826Y-79395537D01*
X134447609Y-79406187D01*
X134426305Y-79444940D01*
X134424334Y-79452615D01*
X134424334Y-79452616D01*
X134421267Y-79464562D01*
X134414863Y-79483266D01*
X134406819Y-79501855D01*
X134405580Y-79509678D01*
X134405577Y-79509688D01*
X134399901Y-79545524D01*
X134397495Y-79557144D01*
X134388472Y-79592289D01*
X134386500Y-79599970D01*
X134386500Y-79620224D01*
X134384949Y-79639934D01*
X134381780Y-79659943D01*
X134382526Y-79667835D01*
X134385941Y-79703961D01*
X134386500Y-79715819D01*
X134386500Y-80220319D01*
X134366498Y-80288440D01*
X134318679Y-80332083D01*
X134266872Y-80359052D01*
X134245212Y-80375315D01*
X134118583Y-80470391D01*
X134081655Y-80498117D01*
X134081066Y-80497333D01*
X134021346Y-80525484D01*
X133950955Y-80516231D01*
X133896741Y-80470391D01*
X133883925Y-80445224D01*
X133873323Y-80416944D01*
X133864786Y-80401351D01*
X133788285Y-80299276D01*
X133775724Y-80286715D01*
X133673649Y-80210214D01*
X133658054Y-80201676D01*
X133537606Y-80156522D01*
X133522351Y-80152895D01*
X133471486Y-80147369D01*
X133464672Y-80147000D01*
X132792115Y-80147000D01*
X132776876Y-80151475D01*
X132775671Y-80152865D01*
X132774000Y-80160548D01*
X132774000Y-82944884D01*
X132778475Y-82960123D01*
X132779865Y-82961328D01*
X132787548Y-82962999D01*
X133464669Y-82962999D01*
X133471490Y-82962629D01*
X133522352Y-82957105D01*
X133537604Y-82953479D01*
X133658054Y-82908324D01*
X133673649Y-82899786D01*
X133775724Y-82823285D01*
X133788285Y-82810724D01*
X133864786Y-82708649D01*
X133873325Y-82693052D01*
X133885278Y-82661167D01*
X133927919Y-82604402D01*
X133994480Y-82579702D01*
X134063829Y-82594909D01*
X134083741Y-82608448D01*
X134209349Y-82712730D01*
X134409322Y-82829584D01*
X134625694Y-82912209D01*
X134630760Y-82913240D01*
X134630761Y-82913240D01*
X134683846Y-82924040D01*
X134852656Y-82958385D01*
X134983324Y-82963176D01*
X135078949Y-82966683D01*
X135078953Y-82966683D01*
X135084113Y-82966872D01*
X135089233Y-82966216D01*
X135089235Y-82966216D01*
X135188668Y-82953478D01*
X135313847Y-82937442D01*
X135318795Y-82935957D01*
X135318802Y-82935956D01*
X135530747Y-82872369D01*
X135535690Y-82870886D01*
X135540324Y-82868616D01*
X135739049Y-82771262D01*
X135739052Y-82771260D01*
X135743684Y-82768991D01*
X135932243Y-82634494D01*
X136096303Y-82471005D01*
X136165370Y-82374888D01*
X136221365Y-82331240D01*
X136292068Y-82324794D01*
X136355033Y-82357597D01*
X136375128Y-82382584D01*
X136376799Y-82385311D01*
X136376804Y-82385317D01*
X136379501Y-82389719D01*
X136531147Y-82564784D01*
X136709349Y-82712730D01*
X136909322Y-82829584D01*
X137125694Y-82912209D01*
X137130760Y-82913240D01*
X137130761Y-82913240D01*
X137183846Y-82924040D01*
X137352656Y-82958385D01*
X137483324Y-82963176D01*
X137578949Y-82966683D01*
X137578953Y-82966683D01*
X137584113Y-82966872D01*
X137589233Y-82966216D01*
X137589235Y-82966216D01*
X137688668Y-82953478D01*
X137813847Y-82937442D01*
X137818795Y-82935957D01*
X137818802Y-82935956D01*
X138030747Y-82872369D01*
X138035690Y-82870886D01*
X138040324Y-82868616D01*
X138239049Y-82771262D01*
X138239052Y-82771260D01*
X138243684Y-82768991D01*
X138432243Y-82634494D01*
X138451560Y-82615245D01*
X138513931Y-82581328D01*
X138584738Y-82586516D01*
X138641499Y-82629161D01*
X138666194Y-82695725D01*
X138666500Y-82704495D01*
X138666500Y-85674807D01*
X138646498Y-85742928D01*
X138629595Y-85763902D01*
X133838902Y-90554595D01*
X133776590Y-90588621D01*
X133762528Y-90590133D01*
X133762599Y-90590810D01*
X133756032Y-90591500D01*
X133749430Y-90591500D01*
X133742978Y-90592872D01*
X133742973Y-90592872D01*
X133656029Y-90611353D01*
X133562629Y-90631206D01*
X133556599Y-90633891D01*
X133556598Y-90633891D01*
X133394195Y-90706197D01*
X133394193Y-90706198D01*
X133388165Y-90708882D01*
X133382824Y-90712762D01*
X133382823Y-90712763D01*
X133339927Y-90743929D01*
X133233664Y-90821134D01*
X133105877Y-90963056D01*
X133010390Y-91128444D01*
X132951375Y-91310072D01*
X132950685Y-91316633D01*
X132950685Y-91316635D01*
X132941806Y-91401114D01*
X132931413Y-91500000D01*
X132951375Y-91689928D01*
X132953274Y-91695773D01*
X132947887Y-91766394D01*
X132905071Y-91823027D01*
X132838434Y-91847522D01*
X132769132Y-91832102D01*
X132740946Y-91810897D01*
X131145405Y-90215356D01*
X131111379Y-90153044D01*
X131108500Y-90126261D01*
X131108500Y-82958428D01*
X131128502Y-82890307D01*
X131182158Y-82843814D01*
X131252432Y-82833710D01*
X131310065Y-82857602D01*
X131366351Y-82899786D01*
X131381946Y-82908324D01*
X131502394Y-82953478D01*
X131517649Y-82957105D01*
X131568514Y-82962631D01*
X131575328Y-82963000D01*
X132247885Y-82963000D01*
X132263124Y-82958525D01*
X132264329Y-82957135D01*
X132266000Y-82949452D01*
X132266000Y-80165116D01*
X132261525Y-80149877D01*
X132260135Y-80148672D01*
X132252452Y-80147001D01*
X131917738Y-80147001D01*
X131849617Y-80126999D01*
X131803124Y-80073343D01*
X131793020Y-80003069D01*
X131822514Y-79938489D01*
X131828643Y-79931906D01*
X132896234Y-78864315D01*
X132908625Y-78853448D01*
X132927437Y-78839013D01*
X132933987Y-78833987D01*
X132958474Y-78802075D01*
X132958480Y-78802069D01*
X133026496Y-78713429D01*
X133026497Y-78713427D01*
X133031524Y-78706876D01*
X133092838Y-78558851D01*
X133096482Y-78531173D01*
X133105333Y-78463940D01*
X133105333Y-78463938D01*
X133108500Y-78439885D01*
X133108501Y-78439871D01*
X133112672Y-78408188D01*
X133113750Y-78400000D01*
X133109578Y-78368307D01*
X133108500Y-78351864D01*
X133108500Y-71948144D01*
X133109578Y-71931698D01*
X133112673Y-71908188D01*
X133113751Y-71900000D01*
X133092838Y-71741149D01*
X133031524Y-71593124D01*
X132958478Y-71497929D01*
X132958474Y-71497925D01*
X132955461Y-71493998D01*
X132939016Y-71472566D01*
X132939013Y-71472563D01*
X132933987Y-71466013D01*
X132924165Y-71458476D01*
X132908621Y-71446548D01*
X132896230Y-71435681D01*
X130934315Y-69473766D01*
X130923448Y-69461375D01*
X130909013Y-69442563D01*
X130903987Y-69436013D01*
X130872075Y-69411526D01*
X130872072Y-69411523D01*
X130776876Y-69338476D01*
X130628851Y-69277162D01*
X130620664Y-69276084D01*
X130620663Y-69276084D01*
X130609458Y-69274609D01*
X130578262Y-69270502D01*
X130509885Y-69261500D01*
X130509882Y-69261500D01*
X130509874Y-69261499D01*
X130478189Y-69257328D01*
X130470000Y-69256250D01*
X130438307Y-69260422D01*
X130421864Y-69261500D01*
X128853911Y-69261500D01*
X128785790Y-69241498D01*
X128748119Y-69203940D01*
X128743423Y-69196680D01*
X128703057Y-69134284D01*
X128643755Y-69042617D01*
X128643753Y-69042614D01*
X128640947Y-69038277D01*
X128490603Y-68873051D01*
X128486552Y-68869852D01*
X128486548Y-68869848D01*
X128319347Y-68737800D01*
X128319343Y-68737798D01*
X128315292Y-68734598D01*
X128273986Y-68711796D01*
X128224017Y-68661364D01*
X128209245Y-68591921D01*
X128234361Y-68525516D01*
X128261713Y-68498909D01*
X128305536Y-68467650D01*
X128440793Y-68371173D01*
X128446323Y-68365663D01*
X128595368Y-68217137D01*
X128599029Y-68213489D01*
X128729386Y-68032077D01*
X128752091Y-67986138D01*
X128826069Y-67836453D01*
X128826070Y-67836451D01*
X128828363Y-67831811D01*
X128893303Y-67618069D01*
X128922462Y-67396590D01*
X128924089Y-67330000D01*
X128905785Y-67107361D01*
X128851364Y-66890702D01*
X128827032Y-66834742D01*
X128818211Y-66764296D01*
X128848877Y-66700264D01*
X128909294Y-66662976D01*
X128942581Y-66658500D01*
X129194618Y-66658500D01*
X129262739Y-66678502D01*
X129309232Y-66732158D01*
X129312599Y-66740269D01*
X129321231Y-66763293D01*
X129324385Y-66771705D01*
X129411739Y-66888261D01*
X129528295Y-66975615D01*
X129664684Y-67026745D01*
X129726866Y-67033500D01*
X130823134Y-67033500D01*
X130885316Y-67026745D01*
X131021705Y-66975615D01*
X131138261Y-66888261D01*
X131225615Y-66771705D01*
X131276745Y-66635316D01*
X131283500Y-66573134D01*
X131283500Y-65476866D01*
X131276745Y-65414684D01*
X131225615Y-65278295D01*
X131138261Y-65161739D01*
X131021705Y-65074385D01*
X130885316Y-65023255D01*
X130823134Y-65016500D01*
X129726866Y-65016500D01*
X129664684Y-65023255D01*
X129528295Y-65074385D01*
X129411739Y-65161739D01*
X129324385Y-65278295D01*
X129321233Y-65286703D01*
X129321231Y-65286707D01*
X129312599Y-65309731D01*
X129269957Y-65366495D01*
X129203395Y-65391194D01*
X129194618Y-65391500D01*
X128967521Y-65391500D01*
X128899400Y-65371498D01*
X128852907Y-65317842D01*
X128842803Y-65247568D01*
X128846963Y-65228871D01*
X128891309Y-65082915D01*
X128893488Y-65072834D01*
X128921523Y-64859887D01*
X128922042Y-64853212D01*
X128923505Y-64793364D01*
X128923311Y-64786646D01*
X128905714Y-64572604D01*
X128904029Y-64562424D01*
X128852147Y-64355875D01*
X128848827Y-64346124D01*
X128763905Y-64150814D01*
X128759038Y-64141739D01*
X128693996Y-64041197D01*
X128683310Y-64031995D01*
X128673745Y-64036398D01*
X127650028Y-65060115D01*
X127587716Y-65094141D01*
X127516901Y-65089076D01*
X127471838Y-65060115D01*
X126450782Y-64039059D01*
X126439246Y-64032759D01*
X126426964Y-64042382D01*
X126379022Y-64112662D01*
X126373937Y-64121613D01*
X126284271Y-64314783D01*
X126280708Y-64324470D01*
X126223797Y-64529681D01*
X126221866Y-64539800D01*
X126199235Y-64751574D01*
X126198983Y-64761863D01*
X126211242Y-64974477D01*
X126212678Y-64984697D01*
X126259498Y-65192446D01*
X126262578Y-65202275D01*
X126343259Y-65400972D01*
X126350355Y-65471613D01*
X126318133Y-65534877D01*
X126300580Y-65550310D01*
X126287893Y-65559528D01*
X126282842Y-65565633D01*
X126282837Y-65565638D01*
X126259701Y-65593604D01*
X126251713Y-65602382D01*
X125723595Y-66130500D01*
X125661283Y-66164526D01*
X125590468Y-66159461D01*
X125533632Y-66116914D01*
X125508821Y-66050394D01*
X125508500Y-66041405D01*
X125508500Y-63634500D01*
X125528502Y-63566379D01*
X125582158Y-63519886D01*
X125634500Y-63508500D01*
X126677134Y-63508500D01*
X126745255Y-63528502D01*
G37*
%TD.AperFunction*%
%TA.AperFunction,Conductor*%
G36*
X138633648Y-75762647D02*
G01*
X138829972Y-75905547D01*
X139069947Y-76031804D01*
X139074248Y-76033323D01*
X139074253Y-76033325D01*
X139207087Y-76080233D01*
X139325634Y-76122096D01*
X139423653Y-76141415D01*
X139587206Y-76173652D01*
X139587212Y-76173653D01*
X139591678Y-76174533D01*
X139596232Y-76174760D01*
X139596234Y-76174760D01*
X139857936Y-76187789D01*
X139857942Y-76187789D01*
X139862505Y-76188016D01*
X140132441Y-76162262D01*
X140136870Y-76161178D01*
X140136877Y-76161177D01*
X140185451Y-76149291D01*
X140216997Y-76141571D01*
X140287919Y-76144808D01*
X140345833Y-76185875D01*
X140372350Y-76251733D01*
X140359053Y-76321474D01*
X140336040Y-76353055D01*
X139807747Y-76881348D01*
X139799461Y-76888888D01*
X139792982Y-76893000D01*
X139787557Y-76898777D01*
X139746357Y-76942651D01*
X139743602Y-76945493D01*
X139723865Y-76965230D01*
X139721385Y-76968427D01*
X139713682Y-76977447D01*
X139683414Y-77009679D01*
X139679595Y-77016625D01*
X139679593Y-77016628D01*
X139673652Y-77027434D01*
X139662801Y-77043953D01*
X139650386Y-77059959D01*
X139647241Y-77067228D01*
X139647238Y-77067232D01*
X139632826Y-77100537D01*
X139627609Y-77111187D01*
X139606305Y-77149940D01*
X139604334Y-77157615D01*
X139604334Y-77157616D01*
X139601267Y-77169562D01*
X139594863Y-77188266D01*
X139586819Y-77206855D01*
X139585580Y-77214678D01*
X139585577Y-77214688D01*
X139579901Y-77250524D01*
X139577495Y-77262144D01*
X139576156Y-77267361D01*
X139566500Y-77304970D01*
X139566500Y-77325224D01*
X139564949Y-77344934D01*
X139561780Y-77364943D01*
X139562526Y-77372835D01*
X139565941Y-77408961D01*
X139566500Y-77420819D01*
X139566500Y-77966406D01*
X139546498Y-78034527D01*
X139492842Y-78081020D01*
X139422568Y-78091124D01*
X139357988Y-78061630D01*
X139351421Y-78055517D01*
X138470403Y-77174498D01*
X138436379Y-77112188D01*
X138433500Y-77085405D01*
X138433500Y-75864520D01*
X138453502Y-75796399D01*
X138507158Y-75749906D01*
X138577432Y-75739802D01*
X138633648Y-75762647D01*
G37*
%TD.AperFunction*%
%TA.AperFunction,Conductor*%
G36*
X130233882Y-70498502D02*
G01*
X130254856Y-70515405D01*
X131854595Y-72115144D01*
X131888621Y-72177456D01*
X131891500Y-72204239D01*
X131891500Y-72532397D01*
X131871498Y-72600518D01*
X131817842Y-72647011D01*
X131747568Y-72657115D01*
X131682988Y-72627621D01*
X131665337Y-72608839D01*
X131625939Y-72557215D01*
X131625938Y-72557214D01*
X131623167Y-72553583D01*
X131429264Y-72364030D01*
X131326342Y-72289115D01*
X131213721Y-72207141D01*
X131210028Y-72204453D01*
X130970053Y-72078196D01*
X130965752Y-72076677D01*
X130965747Y-72076675D01*
X130787998Y-72013906D01*
X130714366Y-71987904D01*
X130603001Y-71965954D01*
X130452794Y-71936348D01*
X130452788Y-71936347D01*
X130448322Y-71935467D01*
X130443768Y-71935240D01*
X130443766Y-71935240D01*
X130182064Y-71922211D01*
X130182058Y-71922211D01*
X130177495Y-71921984D01*
X129907559Y-71947738D01*
X129903130Y-71948822D01*
X129903123Y-71948823D01*
X129793207Y-71975720D01*
X129644168Y-72012190D01*
X129639933Y-72013905D01*
X129639931Y-72013906D01*
X129446304Y-72092333D01*
X129392840Y-72113988D01*
X129158839Y-72251001D01*
X129155277Y-72253849D01*
X129155272Y-72253853D01*
X129111180Y-72289115D01*
X129045487Y-72316039D01*
X128975666Y-72303173D01*
X128923884Y-72254602D01*
X128906909Y-72201039D01*
X128905785Y-72187361D01*
X128851364Y-71970702D01*
X128762287Y-71765840D01*
X128712105Y-71688271D01*
X128643755Y-71582617D01*
X128643753Y-71582614D01*
X128640947Y-71578277D01*
X128490603Y-71413051D01*
X128486552Y-71409852D01*
X128486548Y-71409848D01*
X128319347Y-71277800D01*
X128319343Y-71277798D01*
X128315292Y-71274598D01*
X128273986Y-71251796D01*
X128224017Y-71201364D01*
X128209245Y-71131921D01*
X128234361Y-71065516D01*
X128261713Y-71038909D01*
X128305536Y-71007650D01*
X128440793Y-70911173D01*
X128446323Y-70905663D01*
X128595368Y-70757137D01*
X128599029Y-70753489D01*
X128729386Y-70572077D01*
X128740952Y-70548675D01*
X128789065Y-70496467D01*
X128853910Y-70478500D01*
X130165761Y-70478500D01*
X130233882Y-70498502D01*
G37*
%TD.AperFunction*%
%TD*%
M02*
