%TF.GenerationSoftware,KiCad,Pcbnew,6.0.10+dfsg-1~bpo11+1*%
%TF.CreationDate,2023-02-01T15:11:05+08:00*%
%TF.ProjectId,MiniVerb v2.0 - Main,4d696e69-5665-4726-9220-76322e30202d,rev?*%
%TF.SameCoordinates,Original*%
%TF.FileFunction,Copper,L1,Top*%
%TF.FilePolarity,Positive*%
%FSLAX46Y46*%
G04 Gerber Fmt 4.6, Leading zero omitted, Abs format (unit mm)*
G04 Created by KiCad (PCBNEW 6.0.10+dfsg-1~bpo11+1) date 2023-02-01 15:11:05*
%MOMM*%
%LPD*%
G01*
G04 APERTURE LIST*
G04 Aperture macros list*
%AMRoundRect*
0 Rectangle with rounded corners*
0 $1 Rounding radius*
0 $2 $3 $4 $5 $6 $7 $8 $9 X,Y pos of 4 corners*
0 Add a 4 corners polygon primitive as box body*
4,1,4,$2,$3,$4,$5,$6,$7,$8,$9,$2,$3,0*
0 Add four circle primitives for the rounded corners*
1,1,$1+$1,$2,$3*
1,1,$1+$1,$4,$5*
1,1,$1+$1,$6,$7*
1,1,$1+$1,$8,$9*
0 Add four rect primitives between the rounded corners*
20,1,$1+$1,$2,$3,$4,$5,0*
20,1,$1+$1,$4,$5,$6,$7,0*
20,1,$1+$1,$6,$7,$8,$9,0*
20,1,$1+$1,$8,$9,$2,$3,0*%
G04 Aperture macros list end*
%TA.AperFunction,SMDPad,CuDef*%
%ADD10RoundRect,0.237500X0.237500X-0.300000X0.237500X0.300000X-0.237500X0.300000X-0.237500X-0.300000X0*%
%TD*%
%TA.AperFunction,SMDPad,CuDef*%
%ADD11RoundRect,0.250000X-0.337500X-0.475000X0.337500X-0.475000X0.337500X0.475000X-0.337500X0.475000X0*%
%TD*%
%TA.AperFunction,ComponentPad*%
%ADD12O,2.720000X3.240000*%
%TD*%
%TA.AperFunction,ComponentPad*%
%ADD13R,1.800000X1.800000*%
%TD*%
%TA.AperFunction,ComponentPad*%
%ADD14C,1.800000*%
%TD*%
%TA.AperFunction,ComponentPad*%
%ADD15R,1.000000X1.000000*%
%TD*%
%TA.AperFunction,SMDPad,CuDef*%
%ADD16R,0.800000X1.900000*%
%TD*%
%TA.AperFunction,SMDPad,CuDef*%
%ADD17RoundRect,0.237500X0.250000X0.237500X-0.250000X0.237500X-0.250000X-0.237500X0.250000X-0.237500X0*%
%TD*%
%TA.AperFunction,ComponentPad*%
%ADD18C,2.000000*%
%TD*%
%TA.AperFunction,SMDPad,CuDef*%
%ADD19RoundRect,0.237500X-0.237500X0.250000X-0.237500X-0.250000X0.237500X-0.250000X0.237500X0.250000X0*%
%TD*%
%TA.AperFunction,ComponentPad*%
%ADD20R,1.930000X1.830000*%
%TD*%
%TA.AperFunction,ComponentPad*%
%ADD21C,2.130000*%
%TD*%
%TA.AperFunction,SMDPad,CuDef*%
%ADD22RoundRect,0.150000X-0.150000X0.512500X-0.150000X-0.512500X0.150000X-0.512500X0.150000X0.512500X0*%
%TD*%
%TA.AperFunction,SMDPad,CuDef*%
%ADD23RoundRect,0.237500X0.300000X0.237500X-0.300000X0.237500X-0.300000X-0.237500X0.300000X-0.237500X0*%
%TD*%
%TA.AperFunction,SMDPad,CuDef*%
%ADD24RoundRect,0.237500X0.237500X-0.250000X0.237500X0.250000X-0.237500X0.250000X-0.237500X-0.250000X0*%
%TD*%
%TA.AperFunction,SMDPad,CuDef*%
%ADD25RoundRect,0.237500X-0.237500X0.300000X-0.237500X-0.300000X0.237500X-0.300000X0.237500X0.300000X0*%
%TD*%
%TA.AperFunction,ComponentPad*%
%ADD26RoundRect,0.250000X-0.600000X-0.600000X0.600000X-0.600000X0.600000X0.600000X-0.600000X0.600000X0*%
%TD*%
%TA.AperFunction,ComponentPad*%
%ADD27C,1.700000*%
%TD*%
%TA.AperFunction,ComponentPad*%
%ADD28R,1.700000X1.700000*%
%TD*%
%TA.AperFunction,ViaPad*%
%ADD29C,0.800000*%
%TD*%
%TA.AperFunction,Conductor*%
%ADD30C,0.250000*%
%TD*%
%TA.AperFunction,Conductor*%
%ADD31C,0.500000*%
%TD*%
G04 APERTURE END LIST*
D10*
%TO.P,C13,1*%
%TO.N,3V3_A*%
X133804000Y-127219000D03*
%TO.P,C13,2*%
%TO.N,GND*%
X133804000Y-125494000D03*
%TD*%
D11*
%TO.P,C5,1*%
%TO.N,+12V*%
X138962500Y-133011000D03*
%TO.P,C5,2*%
%TO.N,GND*%
X141037500Y-133011000D03*
%TD*%
D12*
%TO.P,FEEDBACK_POT1,*%
%TO.N,*%
X130200000Y-94045000D03*
X139800000Y-94045000D03*
D13*
%TO.P,FEEDBACK_POT1,1,1*%
%TO.N,GND*%
X132500000Y-101545000D03*
D14*
%TO.P,FEEDBACK_POT1,2,2*%
%TO.N,FEEDBACK*%
X135000000Y-101545000D03*
%TO.P,FEEDBACK_POT1,3,3*%
%TO.N,3V3_A*%
X137500000Y-101545000D03*
%TD*%
D15*
%TO.P,TP5,1,1*%
%TO.N,3V3_A*%
X140225000Y-65975000D03*
%TD*%
D16*
%TO.P,U2,1*%
%TO.N,N/C*%
X133162000Y-150344000D03*
%TO.P,U2,2,K*%
%TO.N,GND*%
X135062000Y-150344000D03*
%TO.P,U2,3,A*%
%TO.N,AREF_-10*%
X134112000Y-147344000D03*
%TD*%
D17*
%TO.P,R17,1*%
%TO.N,CV1*%
X132156500Y-130346500D03*
%TO.P,R17,2*%
%TO.N,Net-(C14-Pad2)*%
X130331500Y-130346500D03*
%TD*%
D11*
%TO.P,C6,1*%
%TO.N,GND*%
X139050000Y-148511000D03*
%TO.P,C6,2*%
%TO.N,-12V*%
X141125000Y-148511000D03*
%TD*%
D18*
%TO.P,TP3,1,1*%
%TO.N,GND*%
X141800000Y-128600000D03*
%TD*%
D19*
%TO.P,R14,1*%
%TO.N,Net-(C14-Pad2)*%
X128774000Y-128534000D03*
%TO.P,R14,2*%
%TO.N,AREF_-10*%
X128774000Y-130359000D03*
%TD*%
D20*
%TO.P,CV1_IN1,S*%
%TO.N,GND*%
X129970000Y-133040000D03*
D21*
%TO.P,CV1_IN1,T*%
%TO.N,Net-(CV1_IN1-PadT)*%
X129970000Y-144440000D03*
%TO.P,CV1_IN1,TN*%
%TO.N,unconnected-(CV1_IN1-PadTN)*%
X129970000Y-136140000D03*
%TD*%
D22*
%TO.P,U3,1*%
%TO.N,CV1*%
X132244000Y-124819000D03*
%TO.P,U3,2,V-*%
%TO.N,GND*%
X131294000Y-124819000D03*
%TO.P,U3,3,+*%
X130344000Y-124819000D03*
%TO.P,U3,4,-*%
%TO.N,Net-(C14-Pad2)*%
X130344000Y-127094000D03*
%TO.P,U3,5,V+*%
%TO.N,3V3_A*%
X132244000Y-127094000D03*
%TD*%
D23*
%TO.P,C14,1*%
%TO.N,CV1*%
X132116500Y-128816500D03*
%TO.P,C14,2*%
%TO.N,Net-(C14-Pad2)*%
X130391500Y-128816500D03*
%TD*%
D20*
%TO.P,AUDIO_OUT1,S*%
%TO.N,GND*%
X140000000Y-153162000D03*
D21*
%TO.P,AUDIO_OUT1,T*%
%TO.N,Net-(AUDIO_OUT1-PadT)*%
X140000000Y-164562000D03*
%TO.P,AUDIO_OUT1,TN*%
%TO.N,unconnected-(AUDIO_OUT1-PadTN)*%
X140000000Y-156262000D03*
%TD*%
D24*
%TO.P,R11,1*%
%TO.N,Net-(D1-Pad2)*%
X143510000Y-145184500D03*
%TO.P,R11,2*%
%TO.N,+12V*%
X143510000Y-143359500D03*
%TD*%
D25*
%TO.P,C9,1*%
%TO.N,AREF_-10*%
X136906000Y-148489500D03*
%TO.P,C9,2*%
%TO.N,GND*%
X136906000Y-150214500D03*
%TD*%
D12*
%TO.P,MOD_POT1,*%
%TO.N,*%
X130260000Y-114055000D03*
X139860000Y-114055000D03*
D13*
%TO.P,MOD_POT1,1,1*%
%TO.N,GND*%
X132560000Y-121555000D03*
D14*
%TO.P,MOD_POT1,2,2*%
%TO.N,MOD*%
X135060000Y-121555000D03*
%TO.P,MOD_POT1,3,3*%
%TO.N,3V3_A*%
X137560000Y-121555000D03*
%TD*%
D12*
%TO.P,LEVEL_POT1,*%
%TO.N,*%
X130220000Y-74055000D03*
X139820000Y-74055000D03*
D13*
%TO.P,LEVEL_POT1,1,1*%
%TO.N,GND*%
X132520000Y-81555000D03*
D14*
%TO.P,LEVEL_POT1,2,2*%
%TO.N,LEVEL*%
X135020000Y-81555000D03*
%TO.P,LEVEL_POT1,3,3*%
%TO.N,3V3_A*%
X137520000Y-81555000D03*
%TD*%
D13*
%TO.P,D1,1,K*%
%TO.N,GND*%
X127775000Y-149000000D03*
D14*
%TO.P,D1,2,A*%
%TO.N,Net-(D1-Pad2)*%
X130315000Y-149000000D03*
%TD*%
D15*
%TO.P,TP7,1,1*%
%TO.N,INT_AUDIO_IN1*%
X130275000Y-66025000D03*
%TD*%
D19*
%TO.P,R12,1*%
%TO.N,-12V*%
X136906000Y-145034000D03*
%TO.P,R12,2*%
%TO.N,AREF_-10*%
X136906000Y-146859000D03*
%TD*%
%TO.P,R16,1*%
%TO.N,Net-(C14-Pad2)*%
X127254000Y-128524000D03*
%TO.P,R16,2*%
%TO.N,Net-(CV1_IN1-PadT)*%
X127254000Y-130349000D03*
%TD*%
D20*
%TO.P,AUDIO_IN1,S*%
%TO.N,GND*%
X130000000Y-153162000D03*
D21*
%TO.P,AUDIO_IN1,T*%
%TO.N,Net-(AUDIO_IN1-PadT)*%
X130000000Y-164562000D03*
%TO.P,AUDIO_IN1,TN*%
%TO.N,unconnected-(AUDIO_IN1-PadTN)*%
X130000000Y-156262000D03*
%TD*%
D15*
%TO.P,TP4,1,1*%
%TO.N,AREF_-10*%
X142600000Y-121800000D03*
%TD*%
%TO.P,TP1,1,1*%
%TO.N,+12V*%
X142600000Y-116700000D03*
%TD*%
%TO.P,TP2,1,1*%
%TO.N,-12V*%
X142600000Y-119200000D03*
%TD*%
D26*
%TO.P,J1,1,Pin_1*%
%TO.N,-12V*%
X138747500Y-146011000D03*
D27*
%TO.P,J1,2,Pin_2*%
X141287500Y-146011000D03*
%TO.P,J1,3,Pin_3*%
%TO.N,GND*%
X138747500Y-143471000D03*
%TO.P,J1,4,Pin_4*%
X141287500Y-143471000D03*
%TO.P,J1,5,Pin_5*%
X138747500Y-140931000D03*
%TO.P,J1,6,Pin_6*%
X141287500Y-140931000D03*
%TO.P,J1,7,Pin_7*%
X138747500Y-138391000D03*
%TO.P,J1,8,Pin_8*%
X141287500Y-138391000D03*
%TO.P,J1,9,Pin_9*%
%TO.N,+12V*%
X138747500Y-135851000D03*
%TO.P,J1,10,Pin_10*%
X141287500Y-135851000D03*
%TD*%
D28*
%TO.P,A1,1,USB_HS_ID*%
%TO.N,unconnected-(A1-Pad1)*%
X127560933Y-113050000D03*
D27*
%TO.P,A1,2,SDMMC1_D3*%
%TO.N,unconnected-(A1-Pad2)*%
X127560933Y-110510000D03*
%TO.P,A1,3,SDMMC1_D2*%
%TO.N,unconnected-(A1-Pad3)*%
X127560933Y-107970000D03*
%TO.P,A1,4,SDMMC1_D1*%
%TO.N,unconnected-(A1-Pad4)*%
X127560933Y-105430000D03*
%TO.P,A1,5,SDMMC1_D0*%
%TO.N,unconnected-(A1-Pad5)*%
X127560933Y-102890000D03*
%TO.P,A1,6,SDMMC1_CMD*%
%TO.N,unconnected-(A1-Pad6)*%
X127560933Y-100350000D03*
%TO.P,A1,7,SDMMC1_CK*%
%TO.N,unconnected-(A1-Pad7)*%
X127560933Y-97810000D03*
%TO.P,A1,8,SPI1_NSS*%
%TO.N,unconnected-(A1-Pad8)*%
X127560933Y-95270000D03*
%TO.P,A1,9,SPI1_SCK*%
%TO.N,unconnected-(A1-Pad9)*%
X127560933Y-92730000D03*
%TO.P,A1,10,SPI1_MISO*%
%TO.N,unconnected-(A1-Pad10)*%
X127560933Y-90190000D03*
%TO.P,A1,11,SPI1_MOSI*%
%TO.N,unconnected-(A1-Pad11)*%
X127560933Y-87650000D03*
%TO.P,A1,12,I2C1_SCL*%
%TO.N,unconnected-(A1-Pad12)*%
X127560933Y-85110000D03*
%TO.P,A1,13,I2C1_SDA*%
%TO.N,unconnected-(A1-Pad13)*%
X127560933Y-82570000D03*
%TO.P,A1,14,USART1_TX*%
%TO.N,unconnected-(A1-Pad14)*%
X127560933Y-80030000D03*
%TO.P,A1,15,USART1_RX*%
%TO.N,unconnected-(A1-Pad15)*%
X127560933Y-77490000D03*
%TO.P,A1,16,AUDIO_IN_L*%
%TO.N,INT_AUDIO_IN1*%
X127560933Y-74950000D03*
%TO.P,A1,17,AUDIO_IN_R*%
%TO.N,unconnected-(A1-Pad17)*%
X127560933Y-72410000D03*
%TO.P,A1,18,AUDIO_OUT_L*%
%TO.N,INT_AUDIO_OUT1*%
X127560933Y-69870000D03*
%TO.P,A1,19,AUDIO_OUT_R*%
%TO.N,unconnected-(A1-Pad19)*%
X127560933Y-67330000D03*
%TO.P,A1,20,AGND*%
%TO.N,GND*%
X127560933Y-64790000D03*
%TO.P,A1,21,3V3_A*%
%TO.N,3V3_A*%
X142800933Y-64790000D03*
%TO.P,A1,22,ADC_INP10*%
%TO.N,LEVEL*%
X142800933Y-67330000D03*
%TO.P,A1,23,ADC_INP15*%
%TO.N,FEEDBACK*%
X142800933Y-69870000D03*
%TO.P,A1,24,ADC_INP5*%
%TO.N,MOD*%
X142800933Y-72410000D03*
%TO.P,A1,25,ADC_INP7*%
%TO.N,CV1*%
X142800933Y-74950000D03*
%TO.P,A1,26,ADC_INP3*%
%TO.N,unconnected-(A1-Pad26)*%
X142800933Y-77490000D03*
%TO.P,A1,27,ADC_INP11*%
%TO.N,unconnected-(A1-Pad27)*%
X142800933Y-80030000D03*
%TO.P,A1,28,ADC1_INP4*%
%TO.N,unconnected-(A1-Pad28)*%
X142800933Y-82570000D03*
%TO.P,A1,29,DAC1_OUT2*%
%TO.N,unconnected-(A1-Pad29)*%
X142800933Y-85110000D03*
%TO.P,A1,30,DAC1_OUT1*%
%TO.N,unconnected-(A1-Pad30)*%
X142800933Y-87650000D03*
%TO.P,A1,31,SAI2_MCLK_B*%
%TO.N,unconnected-(A1-Pad31)*%
X142800933Y-90190000D03*
%TO.P,A1,32,SAI2_SD_B*%
%TO.N,unconnected-(A1-Pad32)*%
X142800933Y-92730000D03*
%TO.P,A1,33,SAI2_SD_A*%
%TO.N,unconnected-(A1-Pad33)*%
X142800933Y-95270000D03*
%TO.P,A1,34,SAI2_FS_B*%
%TO.N,unconnected-(A1-Pad34)*%
X142800933Y-97810000D03*
%TO.P,A1,35,SAI2_SCK_B*%
%TO.N,unconnected-(A1-Pad35)*%
X142800933Y-100350000D03*
%TO.P,A1,36,USB_HS_D_-*%
%TO.N,unconnected-(A1-Pad36)*%
X142800933Y-102890000D03*
%TO.P,A1,37,USB_HS_D_+*%
%TO.N,unconnected-(A1-Pad37)*%
X142800933Y-105430000D03*
%TO.P,A1,38,3V3_D*%
%TO.N,unconnected-(A1-Pad38)*%
X142800933Y-107970000D03*
%TO.P,A1,39,VIN*%
%TO.N,+12V*%
X142800933Y-110510000D03*
%TO.P,A1,40,GND*%
%TO.N,GND*%
X142800933Y-113050000D03*
%TD*%
D29*
%TO.N,GND*%
X137760000Y-159480000D03*
X135060000Y-69790000D03*
X141840000Y-150760000D03*
X135400000Y-143700000D03*
X129730000Y-84410000D03*
X131130000Y-138870000D03*
X127130000Y-152120000D03*
X140750000Y-88310000D03*
X139230000Y-98200000D03*
X126290000Y-143890000D03*
X132030000Y-87020000D03*
X135420000Y-66310000D03*
X133830000Y-88640000D03*
X126860000Y-144710000D03*
X141630000Y-159390000D03*
X138500000Y-85330000D03*
X136400000Y-129875000D03*
X143870000Y-155150000D03*
X142450000Y-124600000D03*
X132950000Y-118820000D03*
X140970000Y-116790000D03*
X142890000Y-126250000D03*
X132190000Y-141890000D03*
X136570000Y-92870000D03*
X126710000Y-155760000D03*
X127040000Y-142320000D03*
X136500000Y-94330000D03*
X139270000Y-77600000D03*
X129140000Y-101500000D03*
X132970000Y-65520000D03*
X141280000Y-107020000D03*
X140980000Y-84260000D03*
X141140000Y-81210000D03*
X141550000Y-124310000D03*
X129610000Y-83170000D03*
X127040000Y-163200000D03*
X135450000Y-75150000D03*
X129490000Y-96990000D03*
X140880000Y-117580000D03*
X141300000Y-96270000D03*
X131550000Y-140770000D03*
X130620000Y-71260000D03*
X136110000Y-86240000D03*
X137810000Y-65640000D03*
X134700000Y-161870000D03*
X140980000Y-111620000D03*
X141930000Y-162410000D03*
X138600000Y-91590000D03*
X129450000Y-117030000D03*
X135150000Y-134570000D03*
X126800000Y-161450000D03*
X129570000Y-70890000D03*
X127740000Y-117750000D03*
X129630000Y-110840000D03*
X130700000Y-97670000D03*
X141120000Y-150400000D03*
X133420000Y-74300000D03*
X127170000Y-157390000D03*
X133900000Y-123700000D03*
X136150000Y-64550000D03*
X133330000Y-66980000D03*
X140850000Y-130730000D03*
X134731250Y-113231250D03*
X134570000Y-78340000D03*
X133360000Y-71550000D03*
X140600000Y-89220000D03*
X141110000Y-125650000D03*
X138390000Y-151760000D03*
X142360000Y-149730000D03*
X128240000Y-116290000D03*
X135000000Y-123700000D03*
X129550000Y-104870000D03*
X132730000Y-157450000D03*
X137760000Y-158060000D03*
X135330000Y-145460000D03*
X140090000Y-161420000D03*
X133640000Y-156850000D03*
X136000000Y-84660000D03*
X133910000Y-84280000D03*
X143600000Y-158660000D03*
X126850000Y-115730000D03*
X133790000Y-108070000D03*
X134960000Y-118820000D03*
X138430000Y-83930000D03*
X142450000Y-152460000D03*
X141110000Y-79130000D03*
X134240000Y-85180000D03*
X139520000Y-131180000D03*
X140490000Y-98770000D03*
X138870000Y-76870000D03*
X130430000Y-64220000D03*
X141250000Y-99590000D03*
X142690000Y-123580000D03*
X126910000Y-116690000D03*
X139060000Y-97110000D03*
X141120000Y-78030000D03*
X138575000Y-127225000D03*
X130210000Y-91400000D03*
X135010000Y-87510000D03*
X131860000Y-83850000D03*
X135710000Y-136440000D03*
X125980000Y-132390000D03*
X127040000Y-158390000D03*
X139510000Y-117040000D03*
X135840000Y-132790000D03*
X135480000Y-138820000D03*
X126350000Y-135150000D03*
X132700000Y-163470000D03*
X140780000Y-91140000D03*
X136150000Y-164650000D03*
X132100000Y-149040000D03*
X130150000Y-77210000D03*
X128740000Y-161780000D03*
X129650000Y-109190000D03*
X142490000Y-114950000D03*
X126290000Y-153000000D03*
X135750000Y-68190000D03*
X126320000Y-140870000D03*
X129710000Y-159870000D03*
X129590000Y-88860000D03*
X129520000Y-81140000D03*
X130950000Y-96520000D03*
X133850000Y-163530000D03*
X141030000Y-104400000D03*
X133950000Y-118770000D03*
X132380000Y-88690000D03*
X132550000Y-138320000D03*
X135420000Y-74030000D03*
X135140000Y-88550000D03*
X132630000Y-64310000D03*
X132250000Y-107910000D03*
X135570000Y-76600000D03*
X136610000Y-162990000D03*
X126110000Y-138350000D03*
X138640000Y-131080000D03*
X126710000Y-126490000D03*
X130000000Y-78900000D03*
X132180000Y-67910000D03*
X131950000Y-147160000D03*
X139580000Y-89360000D03*
X131010000Y-160480000D03*
X129930000Y-99050000D03*
X134390000Y-77170000D03*
X141030000Y-120590000D03*
X143270000Y-163750000D03*
X127000000Y-120600000D03*
X136990000Y-66850000D03*
X134490000Y-152310000D03*
X140340000Y-96890000D03*
X133230000Y-86790000D03*
X126950000Y-124250000D03*
X128660000Y-118140000D03*
X135481250Y-112481250D03*
X129560000Y-106190000D03*
X129550000Y-90370000D03*
X129430000Y-86160000D03*
X129980000Y-68200000D03*
X129730000Y-87710000D03*
X135320000Y-141240000D03*
X126500000Y-121950000D03*
X130790000Y-78630000D03*
X138060000Y-153240000D03*
X138000000Y-128200000D03*
X134460000Y-119840000D03*
X141060000Y-86080000D03*
X132270000Y-85340000D03*
X140810000Y-97750000D03*
X132850000Y-66430000D03*
X139530000Y-64280000D03*
X131930000Y-90260000D03*
X133360000Y-79200000D03*
X142750000Y-157000000D03*
X142720000Y-131470000D03*
X131300000Y-77080000D03*
X139210000Y-90630000D03*
X129670000Y-107320000D03*
X126080000Y-134300000D03*
%TO.N,FEEDBACK*%
X133844917Y-91500000D03*
%TO.N,Net-(C4-Pad1)*%
X136300000Y-128400000D03*
X140150000Y-105950000D03*
%TO.N,CV1*%
X135900000Y-91500000D03*
%TO.N,MOD*%
X134891661Y-91519432D03*
%TD*%
D30*
%TO.N,GND*%
X131294000Y-124819000D02*
X130344000Y-124819000D01*
D31*
X139050000Y-148511000D02*
X138609500Y-148511000D01*
X138609500Y-148511000D02*
X136906000Y-150214500D01*
%TO.N,+12V*%
X138962500Y-133011000D02*
X138962500Y-135636000D01*
X141287500Y-135851000D02*
X143510000Y-138073500D01*
X138962500Y-135636000D02*
X138747500Y-135851000D01*
X143510000Y-138073500D02*
X143510000Y-143359500D01*
%TO.N,3V3_A*%
X137500000Y-124400000D02*
X134681000Y-127219000D01*
X142635000Y-64790000D02*
X141432919Y-64790000D01*
X137500000Y-121615000D02*
X137500000Y-124400000D01*
X134681000Y-127219000D02*
X133804000Y-127219000D01*
X137500000Y-121495000D02*
X137560000Y-121555000D01*
X137500000Y-68722919D02*
X137500000Y-121495000D01*
X132244000Y-127094000D02*
X133669000Y-127094000D01*
X141432919Y-64790000D02*
X137500000Y-68722919D01*
X133669000Y-127094000D02*
X133784000Y-127209000D01*
X137560000Y-121555000D02*
X137500000Y-121615000D01*
D30*
%TO.N,FEEDBACK*%
X133844917Y-100389917D02*
X133844917Y-91601629D01*
X135000000Y-101545000D02*
X133844917Y-100389917D01*
%TO.N,Net-(C4-Pad1)*%
X136300000Y-127700000D02*
X136300000Y-128400000D01*
X138175000Y-119375000D02*
X139100499Y-120300499D01*
X139100499Y-120300499D02*
X139100499Y-124899501D01*
X139100499Y-124899501D02*
X136300000Y-127700000D01*
X140150000Y-105950000D02*
X138175000Y-107925000D01*
X138175000Y-107925000D02*
X138175000Y-119375000D01*
D31*
%TO.N,-12V*%
X137883000Y-146011000D02*
X136906000Y-145034000D01*
X138747500Y-146011000D02*
X137883000Y-146011000D01*
X141287500Y-146011000D02*
X138747500Y-146011000D01*
X141287500Y-146011000D02*
X141287500Y-148348500D01*
X141287500Y-148348500D02*
X141125000Y-148511000D01*
D30*
%TO.N,Net-(D1-Pad2)*%
X141986000Y-154686000D02*
X143510000Y-153162000D01*
X130315000Y-150315000D02*
X134686000Y-154686000D01*
X134686000Y-154686000D02*
X141986000Y-154686000D01*
X130315000Y-149000000D02*
X130315000Y-150315000D01*
X143510000Y-153162000D02*
X143510000Y-145184500D01*
%TO.N,CV1*%
X130900000Y-100000000D02*
X132900000Y-98000000D01*
X132244000Y-124819000D02*
X132244000Y-124044000D01*
X132116500Y-130306500D02*
X132156500Y-130346500D01*
X131314000Y-126466500D02*
X131314000Y-128014000D01*
X133400000Y-90600000D02*
X135600000Y-90600000D01*
X135600000Y-90600000D02*
X135900000Y-90900000D01*
X131100000Y-122900000D02*
X131100000Y-119100000D01*
X132900000Y-91100000D02*
X133400000Y-90600000D01*
X131100000Y-119100000D02*
X132300000Y-117900000D01*
X131314000Y-128014000D02*
X132116500Y-128816500D01*
X130900000Y-111100000D02*
X130900000Y-100000000D01*
X132244000Y-124044000D02*
X131100000Y-122900000D01*
X132244000Y-124819000D02*
X132244000Y-125536500D01*
X132244000Y-125536500D02*
X131314000Y-126466500D01*
X135900000Y-90900000D02*
X135900000Y-91500000D01*
X132900000Y-98000000D02*
X132900000Y-91100000D01*
X132300000Y-117900000D02*
X132300000Y-112500000D01*
X132300000Y-112500000D02*
X130900000Y-111100000D01*
X132116500Y-128816500D02*
X132116500Y-130306500D01*
%TO.N,MOD*%
X134500000Y-91911093D02*
X134891661Y-91519432D01*
X135060000Y-121555000D02*
X136225000Y-120390000D01*
X136225000Y-120390000D02*
X136225000Y-100225000D01*
X136225000Y-100225000D02*
X134500000Y-98500000D01*
X134500000Y-98500000D02*
X134500000Y-91911093D01*
%TO.N,AREF_-10*%
X139550000Y-122600000D02*
X139550000Y-128350000D01*
X127800000Y-139500000D02*
X134112000Y-145812000D01*
X140350000Y-121800000D02*
X139550000Y-122600000D01*
X129665000Y-131250000D02*
X128774000Y-130359000D01*
D31*
X136906000Y-148489500D02*
X135760500Y-147344000D01*
X135760500Y-147344000D02*
X134112000Y-147344000D01*
D30*
X136650000Y-131250000D02*
X129665000Y-131250000D01*
X127800000Y-131333000D02*
X127800000Y-139500000D01*
X142600000Y-121800000D02*
X140350000Y-121800000D01*
D31*
X134112000Y-147344000D02*
X134112000Y-146769250D01*
D30*
X128774000Y-130359000D02*
X127800000Y-131333000D01*
X139550000Y-128350000D02*
X136650000Y-131250000D01*
D31*
X136906000Y-146859000D02*
X136906000Y-148489500D01*
D30*
X134112000Y-145812000D02*
X134112000Y-146769250D01*
%TO.N,Net-(C14-Pad2)*%
X130099000Y-128524000D02*
X130391500Y-128816500D01*
X130344000Y-130334000D02*
X130331500Y-130346500D01*
X130344000Y-127094000D02*
X130344000Y-130334000D01*
X127254000Y-128524000D02*
X130099000Y-128524000D01*
%TO.N,Net-(CV1_IN1-PadT)*%
X127254000Y-130349000D02*
X127254000Y-139654000D01*
X129970000Y-142370000D02*
X129970000Y-144440000D01*
X127254000Y-139654000D02*
X129970000Y-142370000D01*
%TD*%
%TA.AperFunction,Conductor*%
%TO.N,GND*%
G36*
X126745255Y-63528502D02*
G01*
X126791748Y-63582158D01*
X126802826Y-63643308D01*
X126801314Y-63664887D01*
X126808901Y-63678758D01*
X127548121Y-64417978D01*
X127562065Y-64425592D01*
X127563898Y-64425461D01*
X127570513Y-64421210D01*
X128314322Y-63677401D01*
X128321936Y-63663457D01*
X128320508Y-63643490D01*
X128335599Y-63574115D01*
X128385801Y-63523913D01*
X128446187Y-63508500D01*
X141867360Y-63508500D01*
X141935481Y-63528502D01*
X141981974Y-63582158D01*
X141992078Y-63652432D01*
X141962584Y-63717012D01*
X141943013Y-63735260D01*
X141895898Y-63770635D01*
X141741562Y-63932138D01*
X141711296Y-63976507D01*
X141656388Y-64021507D01*
X141607210Y-64031500D01*
X141499982Y-64031500D01*
X141481033Y-64030067D01*
X141480826Y-64030036D01*
X141459570Y-64026802D01*
X141452278Y-64027395D01*
X141452275Y-64027395D01*
X141406910Y-64031085D01*
X141396696Y-64031500D01*
X141388626Y-64031500D01*
X141385006Y-64031922D01*
X141384988Y-64031923D01*
X141360380Y-64034792D01*
X141356019Y-64035224D01*
X141330900Y-64037267D01*
X141290580Y-64040546D01*
X141290577Y-64040547D01*
X141283282Y-64041140D01*
X141276318Y-64043396D01*
X141270359Y-64044587D01*
X141264504Y-64045971D01*
X141257238Y-64046818D01*
X141188592Y-64071735D01*
X141184464Y-64073152D01*
X141121983Y-64093393D01*
X141121981Y-64093394D01*
X141115020Y-64095649D01*
X141108765Y-64099445D01*
X141103291Y-64101951D01*
X141097861Y-64104670D01*
X141090982Y-64107167D01*
X141029935Y-64147191D01*
X141026246Y-64149518D01*
X141006054Y-64161771D01*
X140968612Y-64184491D01*
X140968607Y-64184495D01*
X140963811Y-64187405D01*
X140955435Y-64194803D01*
X140955412Y-64194777D01*
X140952422Y-64197426D01*
X140949183Y-64200134D01*
X140943067Y-64204144D01*
X140938040Y-64209451D01*
X140938036Y-64209454D01*
X140889791Y-64260383D01*
X140887413Y-64262825D01*
X140220643Y-64929595D01*
X140158331Y-64963621D01*
X140131548Y-64966500D01*
X139676866Y-64966500D01*
X139614684Y-64973255D01*
X139478295Y-65024385D01*
X139361739Y-65111739D01*
X139274385Y-65228295D01*
X139223255Y-65364684D01*
X139216500Y-65426866D01*
X139216500Y-65881548D01*
X139196498Y-65949669D01*
X139179595Y-65970643D01*
X137011089Y-68139149D01*
X136996677Y-68151535D01*
X136985082Y-68160068D01*
X136985077Y-68160073D01*
X136979182Y-68164411D01*
X136974443Y-68169989D01*
X136974440Y-68169992D01*
X136944965Y-68204687D01*
X136938035Y-68212203D01*
X136932340Y-68217898D01*
X136930060Y-68220780D01*
X136914719Y-68240170D01*
X136911928Y-68243574D01*
X136869409Y-68293622D01*
X136864667Y-68299204D01*
X136861339Y-68305720D01*
X136857972Y-68310769D01*
X136854805Y-68315898D01*
X136850266Y-68321635D01*
X136819345Y-68387794D01*
X136817442Y-68391688D01*
X136784231Y-68456727D01*
X136782492Y-68463835D01*
X136780393Y-68469478D01*
X136778476Y-68475241D01*
X136775378Y-68481869D01*
X136773888Y-68489031D01*
X136773888Y-68489032D01*
X136760514Y-68553331D01*
X136759544Y-68557615D01*
X136742192Y-68628529D01*
X136741500Y-68639683D01*
X136741464Y-68639681D01*
X136741225Y-68643674D01*
X136740851Y-68647866D01*
X136739360Y-68655034D01*
X136739558Y-68662351D01*
X136741454Y-68732440D01*
X136741500Y-68735847D01*
X136741500Y-80315144D01*
X136721498Y-80383265D01*
X136691154Y-80415903D01*
X136689765Y-80416946D01*
X136618583Y-80470391D01*
X136581655Y-80498117D01*
X136421639Y-80665564D01*
X136374836Y-80734174D01*
X136319927Y-80779175D01*
X136249402Y-80787346D01*
X136185655Y-80756092D01*
X136164959Y-80731609D01*
X136142577Y-80697013D01*
X136142574Y-80697009D01*
X136139764Y-80692665D01*
X135983887Y-80521358D01*
X135979836Y-80518159D01*
X135979832Y-80518155D01*
X135806177Y-80381011D01*
X135806172Y-80381008D01*
X135802123Y-80377810D01*
X135797607Y-80375317D01*
X135797604Y-80375315D01*
X135603879Y-80268373D01*
X135603875Y-80268371D01*
X135599355Y-80265876D01*
X135594486Y-80264152D01*
X135594482Y-80264150D01*
X135385903Y-80190288D01*
X135385899Y-80190287D01*
X135381028Y-80188562D01*
X135375935Y-80187655D01*
X135375932Y-80187654D01*
X135158095Y-80148851D01*
X135158089Y-80148850D01*
X135153006Y-80147945D01*
X135075644Y-80147000D01*
X134926581Y-80145179D01*
X134926579Y-80145179D01*
X134921411Y-80145116D01*
X134692464Y-80180150D01*
X134472314Y-80252106D01*
X134467726Y-80254494D01*
X134467722Y-80254496D01*
X134336083Y-80323023D01*
X134266872Y-80359052D01*
X134262739Y-80362155D01*
X134262736Y-80362157D01*
X134085790Y-80495012D01*
X134081655Y-80498117D01*
X134081066Y-80497333D01*
X134021346Y-80525484D01*
X133950955Y-80516231D01*
X133896741Y-80470391D01*
X133883925Y-80445224D01*
X133873323Y-80416944D01*
X133864786Y-80401351D01*
X133788285Y-80299276D01*
X133775724Y-80286715D01*
X133673649Y-80210214D01*
X133658054Y-80201676D01*
X133537606Y-80156522D01*
X133522351Y-80152895D01*
X133471486Y-80147369D01*
X133464672Y-80147000D01*
X132792115Y-80147000D01*
X132776876Y-80151475D01*
X132775671Y-80152865D01*
X132774000Y-80160548D01*
X132774000Y-82944884D01*
X132778475Y-82960123D01*
X132779865Y-82961328D01*
X132787548Y-82962999D01*
X133464669Y-82962999D01*
X133471490Y-82962629D01*
X133522352Y-82957105D01*
X133537604Y-82953479D01*
X133658054Y-82908324D01*
X133673649Y-82899786D01*
X133775724Y-82823285D01*
X133788285Y-82810724D01*
X133864786Y-82708649D01*
X133873325Y-82693052D01*
X133885278Y-82661167D01*
X133927919Y-82604402D01*
X133994480Y-82579702D01*
X134063829Y-82594909D01*
X134083741Y-82608448D01*
X134209349Y-82712730D01*
X134409322Y-82829584D01*
X134625694Y-82912209D01*
X134630760Y-82913240D01*
X134630761Y-82913240D01*
X134683846Y-82924040D01*
X134852656Y-82958385D01*
X134983324Y-82963176D01*
X135078949Y-82966683D01*
X135078953Y-82966683D01*
X135084113Y-82966872D01*
X135089233Y-82966216D01*
X135089235Y-82966216D01*
X135188668Y-82953478D01*
X135313847Y-82937442D01*
X135318795Y-82935957D01*
X135318802Y-82935956D01*
X135530747Y-82872369D01*
X135535690Y-82870886D01*
X135540324Y-82868616D01*
X135739049Y-82771262D01*
X135739052Y-82771260D01*
X135743684Y-82768991D01*
X135932243Y-82634494D01*
X136096303Y-82471005D01*
X136165370Y-82374888D01*
X136221365Y-82331240D01*
X136292068Y-82324794D01*
X136355033Y-82357597D01*
X136375128Y-82382584D01*
X136376799Y-82385311D01*
X136376804Y-82385317D01*
X136379501Y-82389719D01*
X136531147Y-82564784D01*
X136647241Y-82661167D01*
X136695985Y-82701635D01*
X136735620Y-82760538D01*
X136741500Y-82798579D01*
X136741500Y-90640461D01*
X136721498Y-90708582D01*
X136667842Y-90755075D01*
X136597568Y-90765179D01*
X136532988Y-90735685D01*
X136494503Y-90675613D01*
X136489699Y-90659079D01*
X136486018Y-90646407D01*
X136481985Y-90639588D01*
X136481983Y-90639583D01*
X136475707Y-90628972D01*
X136467012Y-90611224D01*
X136459552Y-90592383D01*
X136433564Y-90556613D01*
X136427048Y-90546693D01*
X136408578Y-90515463D01*
X136404542Y-90508638D01*
X136398936Y-90503031D01*
X136390220Y-90494315D01*
X136377379Y-90479281D01*
X136376499Y-90478069D01*
X136365472Y-90462893D01*
X136331407Y-90434712D01*
X136322626Y-90426722D01*
X136103647Y-90207742D01*
X136096113Y-90199463D01*
X136092000Y-90192982D01*
X136042347Y-90146355D01*
X136039506Y-90143601D01*
X136019770Y-90123865D01*
X136016573Y-90121385D01*
X136007551Y-90113680D01*
X135994122Y-90101069D01*
X135975321Y-90083414D01*
X135968375Y-90079595D01*
X135968372Y-90079593D01*
X135957566Y-90073652D01*
X135941047Y-90062801D01*
X135940583Y-90062441D01*
X135925041Y-90050386D01*
X135917772Y-90047241D01*
X135917768Y-90047238D01*
X135884463Y-90032826D01*
X135873813Y-90027609D01*
X135835060Y-90006305D01*
X135815437Y-90001267D01*
X135796734Y-89994863D01*
X135785420Y-89989967D01*
X135785419Y-89989967D01*
X135778145Y-89986819D01*
X135770322Y-89985580D01*
X135770312Y-89985577D01*
X135734476Y-89979901D01*
X135722856Y-89977495D01*
X135687711Y-89968472D01*
X135687710Y-89968472D01*
X135680030Y-89966500D01*
X135659776Y-89966500D01*
X135640065Y-89964949D01*
X135627886Y-89963020D01*
X135620057Y-89961780D01*
X135590786Y-89964547D01*
X135576039Y-89965941D01*
X135564181Y-89966500D01*
X133478768Y-89966500D01*
X133467585Y-89965973D01*
X133460092Y-89964298D01*
X133452166Y-89964547D01*
X133452165Y-89964547D01*
X133392002Y-89966438D01*
X133388044Y-89966500D01*
X133360144Y-89966500D01*
X133356154Y-89967004D01*
X133344320Y-89967936D01*
X133300111Y-89969326D01*
X133292497Y-89971538D01*
X133292492Y-89971539D01*
X133280659Y-89974977D01*
X133261296Y-89978988D01*
X133241203Y-89981526D01*
X133233836Y-89984443D01*
X133233831Y-89984444D01*
X133200092Y-89997802D01*
X133188865Y-90001646D01*
X133146407Y-90013982D01*
X133139581Y-90018019D01*
X133128972Y-90024293D01*
X133111224Y-90032988D01*
X133092383Y-90040448D01*
X133085967Y-90045110D01*
X133085966Y-90045110D01*
X133056613Y-90066436D01*
X133046693Y-90072952D01*
X133015465Y-90091420D01*
X133015462Y-90091422D01*
X133008638Y-90095458D01*
X132994317Y-90109779D01*
X132979284Y-90122619D01*
X132962893Y-90134528D01*
X132944555Y-90156695D01*
X132934712Y-90168593D01*
X132926722Y-90177374D01*
X132507742Y-90596353D01*
X132499463Y-90603887D01*
X132492982Y-90608000D01*
X132456916Y-90646407D01*
X132446357Y-90657651D01*
X132443602Y-90660493D01*
X132423865Y-90680230D01*
X132421385Y-90683427D01*
X132413682Y-90692447D01*
X132383414Y-90724679D01*
X132379595Y-90731625D01*
X132379593Y-90731628D01*
X132373652Y-90742434D01*
X132362801Y-90758953D01*
X132350386Y-90774959D01*
X132347241Y-90782228D01*
X132347238Y-90782232D01*
X132332826Y-90815537D01*
X132327609Y-90826187D01*
X132306305Y-90864940D01*
X132304334Y-90872615D01*
X132304334Y-90872616D01*
X132301267Y-90884562D01*
X132294863Y-90903266D01*
X132286819Y-90921855D01*
X132285580Y-90929678D01*
X132285577Y-90929688D01*
X132279901Y-90965524D01*
X132277495Y-90977144D01*
X132268472Y-91012289D01*
X132266500Y-91019970D01*
X132266500Y-91040224D01*
X132264949Y-91059934D01*
X132261780Y-91079943D01*
X132262526Y-91087835D01*
X132265941Y-91123961D01*
X132266500Y-91135819D01*
X132266500Y-93322462D01*
X132246498Y-93390583D01*
X132192842Y-93437076D01*
X132122568Y-93447180D01*
X132057988Y-93417686D01*
X132019604Y-93357960D01*
X132017463Y-93349626D01*
X131996400Y-93254223D01*
X131996399Y-93254219D01*
X131995415Y-93249763D01*
X131899345Y-92996190D01*
X131767676Y-92759141D01*
X131603167Y-92543583D01*
X131409264Y-92354030D01*
X131364672Y-92321572D01*
X131193721Y-92197141D01*
X131190028Y-92194453D01*
X130950053Y-92068196D01*
X130945752Y-92066677D01*
X130945747Y-92066675D01*
X130767998Y-92003906D01*
X130694366Y-91977904D01*
X130596347Y-91958585D01*
X130432794Y-91926348D01*
X130432788Y-91926347D01*
X130428322Y-91925467D01*
X130423768Y-91925240D01*
X130423766Y-91925240D01*
X130162064Y-91912211D01*
X130162058Y-91912211D01*
X130157495Y-91911984D01*
X129887559Y-91937738D01*
X129883130Y-91938822D01*
X129883123Y-91938823D01*
X129753069Y-91970648D01*
X129624168Y-92002190D01*
X129619933Y-92003905D01*
X129619931Y-92003906D01*
X129405918Y-92090590D01*
X129372840Y-92103988D01*
X129138839Y-92241001D01*
X129098311Y-92273412D01*
X129038090Y-92321572D01*
X128972397Y-92348496D01*
X128902576Y-92335630D01*
X128850794Y-92287059D01*
X128843846Y-92273412D01*
X128764352Y-92090589D01*
X128764352Y-92090588D01*
X128762287Y-92085840D01*
X128722839Y-92024862D01*
X128643755Y-91902617D01*
X128643753Y-91902614D01*
X128640947Y-91898277D01*
X128490603Y-91733051D01*
X128486552Y-91729852D01*
X128486548Y-91729848D01*
X128319347Y-91597800D01*
X128319343Y-91597798D01*
X128315292Y-91594598D01*
X128273986Y-91571796D01*
X128224017Y-91521364D01*
X128209245Y-91451921D01*
X128234361Y-91385516D01*
X128261713Y-91358909D01*
X128305536Y-91327650D01*
X128440793Y-91231173D01*
X128599029Y-91073489D01*
X128608769Y-91059935D01*
X128726368Y-90896277D01*
X128729386Y-90892077D01*
X128746229Y-90857999D01*
X128826069Y-90696453D01*
X128826070Y-90696451D01*
X128828363Y-90691811D01*
X128881942Y-90515463D01*
X128891798Y-90483023D01*
X128891798Y-90483021D01*
X128893303Y-90478069D01*
X128922462Y-90256590D01*
X128924089Y-90190000D01*
X128905785Y-89967361D01*
X128851364Y-89750702D01*
X128762287Y-89545840D01*
X128640947Y-89358277D01*
X128490603Y-89193051D01*
X128486552Y-89189852D01*
X128486548Y-89189848D01*
X128319347Y-89057800D01*
X128319343Y-89057798D01*
X128315292Y-89054598D01*
X128273986Y-89031796D01*
X128224017Y-88981364D01*
X128209245Y-88911921D01*
X128234361Y-88845516D01*
X128261713Y-88818909D01*
X128305536Y-88787650D01*
X128440793Y-88691173D01*
X128599029Y-88533489D01*
X128658527Y-88450689D01*
X128726368Y-88356277D01*
X128729386Y-88352077D01*
X128828363Y-88151811D01*
X128893303Y-87938069D01*
X128922462Y-87716590D01*
X128924089Y-87650000D01*
X128905785Y-87427361D01*
X128851364Y-87210702D01*
X128762287Y-87005840D01*
X128640947Y-86818277D01*
X128490603Y-86653051D01*
X128486552Y-86649852D01*
X128486548Y-86649848D01*
X128319347Y-86517800D01*
X128319343Y-86517798D01*
X128315292Y-86514598D01*
X128273986Y-86491796D01*
X128224017Y-86441364D01*
X128209245Y-86371921D01*
X128234361Y-86305516D01*
X128261713Y-86278909D01*
X128305536Y-86247650D01*
X128440793Y-86151173D01*
X128599029Y-85993489D01*
X128658527Y-85910689D01*
X128726368Y-85816277D01*
X128729386Y-85812077D01*
X128828363Y-85611811D01*
X128893303Y-85398069D01*
X128922462Y-85176590D01*
X128924089Y-85110000D01*
X128905785Y-84887361D01*
X128851364Y-84670702D01*
X128762287Y-84465840D01*
X128640947Y-84278277D01*
X128490603Y-84113051D01*
X128486552Y-84109852D01*
X128486548Y-84109848D01*
X128319347Y-83977800D01*
X128319343Y-83977798D01*
X128315292Y-83974598D01*
X128273986Y-83951796D01*
X128224017Y-83901364D01*
X128209245Y-83831921D01*
X128234361Y-83765516D01*
X128261713Y-83738909D01*
X128305536Y-83707650D01*
X128440793Y-83611173D01*
X128599029Y-83453489D01*
X128658527Y-83370689D01*
X128726368Y-83276277D01*
X128729386Y-83272077D01*
X128828363Y-83071811D01*
X128865539Y-82949452D01*
X128891798Y-82863023D01*
X128891798Y-82863021D01*
X128893303Y-82858069D01*
X128922462Y-82636590D01*
X128923150Y-82608451D01*
X128924007Y-82573365D01*
X128924007Y-82573361D01*
X128924089Y-82570000D01*
X128918307Y-82499669D01*
X131112001Y-82499669D01*
X131112371Y-82506490D01*
X131117895Y-82557352D01*
X131121521Y-82572604D01*
X131166676Y-82693054D01*
X131175214Y-82708649D01*
X131251715Y-82810724D01*
X131264276Y-82823285D01*
X131366351Y-82899786D01*
X131381946Y-82908324D01*
X131502394Y-82953478D01*
X131517649Y-82957105D01*
X131568514Y-82962631D01*
X131575328Y-82963000D01*
X132247885Y-82963000D01*
X132263124Y-82958525D01*
X132264329Y-82957135D01*
X132266000Y-82949452D01*
X132266000Y-81827115D01*
X132261525Y-81811876D01*
X132260135Y-81810671D01*
X132252452Y-81809000D01*
X131130116Y-81809000D01*
X131114877Y-81813475D01*
X131113672Y-81814865D01*
X131112001Y-81822548D01*
X131112001Y-82499669D01*
X128918307Y-82499669D01*
X128905785Y-82347361D01*
X128851364Y-82130702D01*
X128762287Y-81925840D01*
X128640947Y-81738277D01*
X128490603Y-81573051D01*
X128486552Y-81569852D01*
X128486548Y-81569848D01*
X128319347Y-81437800D01*
X128319343Y-81437798D01*
X128315292Y-81434598D01*
X128273986Y-81411796D01*
X128224017Y-81361364D01*
X128209245Y-81291921D01*
X128212663Y-81282885D01*
X131112000Y-81282885D01*
X131116475Y-81298124D01*
X131117865Y-81299329D01*
X131125548Y-81301000D01*
X132247885Y-81301000D01*
X132263124Y-81296525D01*
X132264329Y-81295135D01*
X132266000Y-81287452D01*
X132266000Y-80165116D01*
X132261525Y-80149877D01*
X132260135Y-80148672D01*
X132252452Y-80147001D01*
X131575331Y-80147001D01*
X131568510Y-80147371D01*
X131517648Y-80152895D01*
X131502396Y-80156521D01*
X131381946Y-80201676D01*
X131366351Y-80210214D01*
X131264276Y-80286715D01*
X131251715Y-80299276D01*
X131175214Y-80401351D01*
X131166676Y-80416946D01*
X131121522Y-80537394D01*
X131117895Y-80552649D01*
X131112369Y-80603514D01*
X131112000Y-80610328D01*
X131112000Y-81282885D01*
X128212663Y-81282885D01*
X128234361Y-81225516D01*
X128261713Y-81198909D01*
X128305536Y-81167650D01*
X128440793Y-81071173D01*
X128599029Y-80913489D01*
X128658527Y-80830689D01*
X128726368Y-80736277D01*
X128729386Y-80732077D01*
X128764106Y-80661827D01*
X128826069Y-80536453D01*
X128826070Y-80536451D01*
X128828363Y-80531811D01*
X128893303Y-80318069D01*
X128922462Y-80096590D01*
X128924089Y-80030000D01*
X128905785Y-79807361D01*
X128851364Y-79590702D01*
X128762287Y-79385840D01*
X128640947Y-79198277D01*
X128490603Y-79033051D01*
X128486552Y-79029852D01*
X128486548Y-79029848D01*
X128319347Y-78897800D01*
X128319343Y-78897798D01*
X128315292Y-78894598D01*
X128273986Y-78871796D01*
X128224017Y-78821364D01*
X128209245Y-78751921D01*
X128234361Y-78685516D01*
X128261713Y-78658909D01*
X128305536Y-78627650D01*
X128440793Y-78531173D01*
X128599029Y-78373489D01*
X128658527Y-78290689D01*
X128726368Y-78196277D01*
X128729386Y-78192077D01*
X128828363Y-77991811D01*
X128893303Y-77778069D01*
X128922462Y-77556590D01*
X128924089Y-77490000D01*
X128905785Y-77267361D01*
X128851364Y-77050702D01*
X128762287Y-76845840D01*
X128640947Y-76658277D01*
X128490603Y-76493051D01*
X128486552Y-76489852D01*
X128486548Y-76489848D01*
X128319347Y-76357800D01*
X128319343Y-76357798D01*
X128315292Y-76354598D01*
X128273986Y-76331796D01*
X128224017Y-76281364D01*
X128209245Y-76211921D01*
X128234361Y-76145516D01*
X128261713Y-76118909D01*
X128305536Y-76087650D01*
X128440793Y-75991173D01*
X128599029Y-75833489D01*
X128658527Y-75750689D01*
X128720286Y-75664741D01*
X128776281Y-75621093D01*
X128846984Y-75614647D01*
X128910687Y-75648165D01*
X129010736Y-75745970D01*
X129014428Y-75748657D01*
X129014430Y-75748659D01*
X129135986Y-75837137D01*
X129229972Y-75905547D01*
X129469947Y-76031804D01*
X129474248Y-76033323D01*
X129474253Y-76033325D01*
X129559213Y-76063327D01*
X129725634Y-76122096D01*
X129823653Y-76141415D01*
X129987206Y-76173652D01*
X129987212Y-76173653D01*
X129991678Y-76174533D01*
X129996232Y-76174760D01*
X129996234Y-76174760D01*
X130257936Y-76187789D01*
X130257942Y-76187789D01*
X130262505Y-76188016D01*
X130532441Y-76162262D01*
X130536870Y-76161178D01*
X130536877Y-76161177D01*
X130701488Y-76120896D01*
X130795832Y-76097810D01*
X130866364Y-76069242D01*
X131042931Y-75997725D01*
X131042932Y-75997725D01*
X131047160Y-75996012D01*
X131281161Y-75858999D01*
X131426490Y-75742776D01*
X131489366Y-75692493D01*
X131489368Y-75692492D01*
X131492932Y-75689641D01*
X131524099Y-75656277D01*
X131674921Y-75494824D01*
X131674923Y-75494821D01*
X131678037Y-75491488D01*
X131832598Y-75268688D01*
X131850383Y-75232939D01*
X131951346Y-75029997D01*
X131951347Y-75029994D01*
X131953379Y-75025910D01*
X132037847Y-74768240D01*
X132045816Y-74722342D01*
X132083579Y-74504856D01*
X132083580Y-74504848D01*
X132084235Y-74501075D01*
X132085319Y-74479305D01*
X132088422Y-74416971D01*
X132088422Y-74416963D01*
X132088500Y-74415400D01*
X132088500Y-73726116D01*
X132086214Y-73694600D01*
X132077135Y-73569476D01*
X132073875Y-73524549D01*
X132057675Y-73451173D01*
X132016400Y-73264223D01*
X132016399Y-73264219D01*
X132015415Y-73259763D01*
X131957704Y-73107438D01*
X131920963Y-73010460D01*
X131920962Y-73010457D01*
X131919345Y-73006190D01*
X131787676Y-72769141D01*
X131672719Y-72618512D01*
X131625939Y-72557215D01*
X131625938Y-72557214D01*
X131623167Y-72553583D01*
X131601035Y-72531947D01*
X131476289Y-72410000D01*
X131429264Y-72364030D01*
X131326342Y-72289115D01*
X131213721Y-72207141D01*
X131210028Y-72204453D01*
X130970053Y-72078196D01*
X130965752Y-72076677D01*
X130965747Y-72076675D01*
X130787998Y-72013906D01*
X130714366Y-71987904D01*
X130603001Y-71965954D01*
X130452794Y-71936348D01*
X130452788Y-71936347D01*
X130448322Y-71935467D01*
X130443768Y-71935240D01*
X130443766Y-71935240D01*
X130182064Y-71922211D01*
X130182058Y-71922211D01*
X130177495Y-71921984D01*
X129907559Y-71947738D01*
X129903130Y-71948822D01*
X129903123Y-71948823D01*
X129793207Y-71975720D01*
X129644168Y-72012190D01*
X129639933Y-72013905D01*
X129639931Y-72013906D01*
X129397069Y-72112275D01*
X129392840Y-72113988D01*
X129158839Y-72251001D01*
X129155277Y-72253849D01*
X129155272Y-72253853D01*
X129111180Y-72289115D01*
X129045487Y-72316039D01*
X128975666Y-72303173D01*
X128923884Y-72254602D01*
X128906909Y-72201039D01*
X128905785Y-72187361D01*
X128851364Y-71970702D01*
X128762287Y-71765840D01*
X128640947Y-71578277D01*
X128490603Y-71413051D01*
X128486552Y-71409852D01*
X128486548Y-71409848D01*
X128319347Y-71277800D01*
X128319343Y-71277798D01*
X128315292Y-71274598D01*
X128273986Y-71251796D01*
X128224017Y-71201364D01*
X128209245Y-71131921D01*
X128234361Y-71065516D01*
X128261713Y-71038909D01*
X128305536Y-71007650D01*
X128440793Y-70911173D01*
X128599029Y-70753489D01*
X128658527Y-70670689D01*
X128726368Y-70576277D01*
X128729386Y-70572077D01*
X128828363Y-70371811D01*
X128893303Y-70158069D01*
X128922462Y-69936590D01*
X128924089Y-69870000D01*
X128905785Y-69647361D01*
X128851364Y-69430702D01*
X128762287Y-69225840D01*
X128640947Y-69038277D01*
X128490603Y-68873051D01*
X128486552Y-68869852D01*
X128486548Y-68869848D01*
X128319347Y-68737800D01*
X128319343Y-68737798D01*
X128315292Y-68734598D01*
X128273986Y-68711796D01*
X128224017Y-68661364D01*
X128209245Y-68591921D01*
X128234361Y-68525516D01*
X128261713Y-68498909D01*
X128329988Y-68450209D01*
X128440793Y-68371173D01*
X128490505Y-68321635D01*
X128568839Y-68243574D01*
X128599029Y-68213489D01*
X128658527Y-68130689D01*
X128726368Y-68036277D01*
X128729386Y-68032077D01*
X128828363Y-67831811D01*
X128893303Y-67618069D01*
X128922462Y-67396590D01*
X128924089Y-67330000D01*
X128905785Y-67107361D01*
X128851364Y-66890702D01*
X128762287Y-66685840D01*
X128689375Y-66573134D01*
X129266500Y-66573134D01*
X129273255Y-66635316D01*
X129324385Y-66771705D01*
X129411739Y-66888261D01*
X129528295Y-66975615D01*
X129664684Y-67026745D01*
X129726866Y-67033500D01*
X130823134Y-67033500D01*
X130885316Y-67026745D01*
X131021705Y-66975615D01*
X131138261Y-66888261D01*
X131225615Y-66771705D01*
X131276745Y-66635316D01*
X131283500Y-66573134D01*
X131283500Y-65476866D01*
X131276745Y-65414684D01*
X131225615Y-65278295D01*
X131138261Y-65161739D01*
X131021705Y-65074385D01*
X130885316Y-65023255D01*
X130823134Y-65016500D01*
X129726866Y-65016500D01*
X129664684Y-65023255D01*
X129528295Y-65074385D01*
X129411739Y-65161739D01*
X129324385Y-65278295D01*
X129273255Y-65414684D01*
X129266500Y-65476866D01*
X129266500Y-66573134D01*
X128689375Y-66573134D01*
X128687164Y-66569717D01*
X128643755Y-66502617D01*
X128643753Y-66502614D01*
X128640947Y-66498277D01*
X128490603Y-66333051D01*
X128486552Y-66329852D01*
X128486548Y-66329848D01*
X128319347Y-66197800D01*
X128319343Y-66197798D01*
X128315292Y-66194598D01*
X128273502Y-66171529D01*
X128223531Y-66121097D01*
X128208759Y-66051654D01*
X128233875Y-65985248D01*
X128261226Y-65958642D01*
X128310180Y-65923723D01*
X128318581Y-65913023D01*
X128311593Y-65899870D01*
X127573745Y-65162022D01*
X127559801Y-65154408D01*
X127557968Y-65154539D01*
X127551353Y-65158790D01*
X126807670Y-65902473D01*
X126800910Y-65914853D01*
X126806191Y-65921907D01*
X126852902Y-65949203D01*
X126901626Y-66000841D01*
X126914697Y-66070624D01*
X126887966Y-66136396D01*
X126847517Y-66169752D01*
X126834540Y-66176507D01*
X126830407Y-66179610D01*
X126830404Y-66179612D01*
X126806180Y-66197800D01*
X126655898Y-66310635D01*
X126501562Y-66472138D01*
X126375676Y-66656680D01*
X126281621Y-66859305D01*
X126221922Y-67074570D01*
X126198184Y-67296695D01*
X126198481Y-67301848D01*
X126198481Y-67301851D01*
X126203944Y-67396590D01*
X126211043Y-67519715D01*
X126212180Y-67524761D01*
X126212181Y-67524767D01*
X126232052Y-67612939D01*
X126260155Y-67737639D01*
X126344199Y-67944616D01*
X126460920Y-68135088D01*
X126607183Y-68303938D01*
X126779059Y-68446632D01*
X126818604Y-68469740D01*
X126852378Y-68489476D01*
X126901102Y-68541114D01*
X126914173Y-68610897D01*
X126887442Y-68676669D01*
X126846988Y-68710027D01*
X126834540Y-68716507D01*
X126830407Y-68719610D01*
X126830404Y-68719612D01*
X126808781Y-68735847D01*
X126655898Y-68850635D01*
X126501562Y-69012138D01*
X126375676Y-69196680D01*
X126281621Y-69399305D01*
X126221922Y-69614570D01*
X126198184Y-69836695D01*
X126198481Y-69841848D01*
X126198481Y-69841851D01*
X126203944Y-69936590D01*
X126211043Y-70059715D01*
X126212180Y-70064761D01*
X126212181Y-70064767D01*
X126232052Y-70152939D01*
X126260155Y-70277639D01*
X126344199Y-70484616D01*
X126460920Y-70675088D01*
X126607183Y-70843938D01*
X126779059Y-70986632D01*
X126849528Y-71027811D01*
X126852378Y-71029476D01*
X126901102Y-71081114D01*
X126914173Y-71150897D01*
X126887442Y-71216669D01*
X126846988Y-71250027D01*
X126834540Y-71256507D01*
X126830407Y-71259610D01*
X126830404Y-71259612D01*
X126806180Y-71277800D01*
X126655898Y-71390635D01*
X126501562Y-71552138D01*
X126375676Y-71736680D01*
X126359936Y-71770590D01*
X126289556Y-71922211D01*
X126281621Y-71939305D01*
X126221922Y-72154570D01*
X126198184Y-72376695D01*
X126198481Y-72381848D01*
X126198481Y-72381851D01*
X126209343Y-72570231D01*
X126211043Y-72599715D01*
X126212180Y-72604761D01*
X126212181Y-72604767D01*
X126215279Y-72618512D01*
X126260155Y-72817639D01*
X126344199Y-73024616D01*
X126460920Y-73215088D01*
X126607183Y-73383938D01*
X126779059Y-73526632D01*
X126849528Y-73567811D01*
X126852378Y-73569476D01*
X126901102Y-73621114D01*
X126914173Y-73690897D01*
X126887442Y-73756669D01*
X126846988Y-73790027D01*
X126834540Y-73796507D01*
X126830407Y-73799610D01*
X126830404Y-73799612D01*
X126660033Y-73927530D01*
X126655898Y-73930635D01*
X126501562Y-74092138D01*
X126375676Y-74276680D01*
X126359936Y-74310590D01*
X126311285Y-74415400D01*
X126281621Y-74479305D01*
X126221922Y-74694570D01*
X126198184Y-74916695D01*
X126198481Y-74921848D01*
X126198481Y-74921851D01*
X126203944Y-75016590D01*
X126211043Y-75139715D01*
X126212180Y-75144761D01*
X126212181Y-75144767D01*
X126232052Y-75232939D01*
X126260155Y-75357639D01*
X126344199Y-75564616D01*
X126346898Y-75569020D01*
X126455333Y-75745970D01*
X126460920Y-75755088D01*
X126607183Y-75923938D01*
X126779059Y-76066632D01*
X126849528Y-76107811D01*
X126852378Y-76109476D01*
X126901102Y-76161114D01*
X126914173Y-76230897D01*
X126887442Y-76296669D01*
X126846988Y-76330027D01*
X126834540Y-76336507D01*
X126830407Y-76339610D01*
X126830404Y-76339612D01*
X126806180Y-76357800D01*
X126655898Y-76470635D01*
X126501562Y-76632138D01*
X126375676Y-76816680D01*
X126281621Y-77019305D01*
X126221922Y-77234570D01*
X126198184Y-77456695D01*
X126198481Y-77461848D01*
X126198481Y-77461851D01*
X126203944Y-77556590D01*
X126211043Y-77679715D01*
X126212180Y-77684761D01*
X126212181Y-77684767D01*
X126232052Y-77772939D01*
X126260155Y-77897639D01*
X126344199Y-78104616D01*
X126460920Y-78295088D01*
X126607183Y-78463938D01*
X126779059Y-78606632D01*
X126849528Y-78647811D01*
X126852378Y-78649476D01*
X126901102Y-78701114D01*
X126914173Y-78770897D01*
X126887442Y-78836669D01*
X126846988Y-78870027D01*
X126834540Y-78876507D01*
X126830407Y-78879610D01*
X126830404Y-78879612D01*
X126806180Y-78897800D01*
X126655898Y-79010635D01*
X126501562Y-79172138D01*
X126375676Y-79356680D01*
X126281621Y-79559305D01*
X126221922Y-79774570D01*
X126198184Y-79996695D01*
X126198481Y-80001848D01*
X126198481Y-80001851D01*
X126207895Y-80165116D01*
X126211043Y-80219715D01*
X126212180Y-80224761D01*
X126212181Y-80224767D01*
X126225150Y-80282312D01*
X126260155Y-80437639D01*
X126344199Y-80644616D01*
X126371298Y-80688838D01*
X126426657Y-80779175D01*
X126460920Y-80835088D01*
X126607183Y-81003938D01*
X126779059Y-81146632D01*
X126849528Y-81187811D01*
X126852378Y-81189476D01*
X126901102Y-81241114D01*
X126914173Y-81310897D01*
X126887442Y-81376669D01*
X126846988Y-81410027D01*
X126834540Y-81416507D01*
X126830407Y-81419610D01*
X126830404Y-81419612D01*
X126806180Y-81437800D01*
X126655898Y-81550635D01*
X126501562Y-81712138D01*
X126375676Y-81896680D01*
X126281621Y-82099305D01*
X126221922Y-82314570D01*
X126198184Y-82536695D01*
X126198481Y-82541848D01*
X126198481Y-82541851D01*
X126203996Y-82637492D01*
X126211043Y-82759715D01*
X126212180Y-82764761D01*
X126212181Y-82764767D01*
X126225369Y-82823285D01*
X126260155Y-82977639D01*
X126344199Y-83184616D01*
X126460920Y-83375088D01*
X126607183Y-83543938D01*
X126779059Y-83686632D01*
X126849528Y-83727811D01*
X126852378Y-83729476D01*
X126901102Y-83781114D01*
X126914173Y-83850897D01*
X126887442Y-83916669D01*
X126846988Y-83950027D01*
X126834540Y-83956507D01*
X126830407Y-83959610D01*
X126830404Y-83959612D01*
X126806180Y-83977800D01*
X126655898Y-84090635D01*
X126501562Y-84252138D01*
X126375676Y-84436680D01*
X126281621Y-84639305D01*
X126221922Y-84854570D01*
X126198184Y-85076695D01*
X126198481Y-85081848D01*
X126198481Y-85081851D01*
X126203944Y-85176590D01*
X126211043Y-85299715D01*
X126212180Y-85304761D01*
X126212181Y-85304767D01*
X126232052Y-85392939D01*
X126260155Y-85517639D01*
X126344199Y-85724616D01*
X126460920Y-85915088D01*
X126607183Y-86083938D01*
X126779059Y-86226632D01*
X126849528Y-86267811D01*
X126852378Y-86269476D01*
X126901102Y-86321114D01*
X126914173Y-86390897D01*
X126887442Y-86456669D01*
X126846988Y-86490027D01*
X126834540Y-86496507D01*
X126830407Y-86499610D01*
X126830404Y-86499612D01*
X126806180Y-86517800D01*
X126655898Y-86630635D01*
X126501562Y-86792138D01*
X126375676Y-86976680D01*
X126281621Y-87179305D01*
X126221922Y-87394570D01*
X126198184Y-87616695D01*
X126198481Y-87621848D01*
X126198481Y-87621851D01*
X126203944Y-87716590D01*
X126211043Y-87839715D01*
X126212180Y-87844761D01*
X126212181Y-87844767D01*
X126232052Y-87932939D01*
X126260155Y-88057639D01*
X126344199Y-88264616D01*
X126460920Y-88455088D01*
X126607183Y-88623938D01*
X126779059Y-88766632D01*
X126849528Y-88807811D01*
X126852378Y-88809476D01*
X126901102Y-88861114D01*
X126914173Y-88930897D01*
X126887442Y-88996669D01*
X126846988Y-89030027D01*
X126834540Y-89036507D01*
X126830407Y-89039610D01*
X126830404Y-89039612D01*
X126806180Y-89057800D01*
X126655898Y-89170635D01*
X126501562Y-89332138D01*
X126375676Y-89516680D01*
X126281621Y-89719305D01*
X126221922Y-89934570D01*
X126198184Y-90156695D01*
X126198481Y-90161848D01*
X126198481Y-90161851D01*
X126203944Y-90256590D01*
X126211043Y-90379715D01*
X126212180Y-90384761D01*
X126212181Y-90384767D01*
X126223437Y-90434712D01*
X126260155Y-90597639D01*
X126298394Y-90691811D01*
X126330606Y-90771139D01*
X126344199Y-90804616D01*
X126460920Y-90995088D01*
X126607183Y-91163938D01*
X126779059Y-91306632D01*
X126849528Y-91347811D01*
X126852378Y-91349476D01*
X126901102Y-91401114D01*
X126914173Y-91470897D01*
X126887442Y-91536669D01*
X126846988Y-91570027D01*
X126834540Y-91576507D01*
X126830407Y-91579610D01*
X126830404Y-91579612D01*
X126806180Y-91597800D01*
X126655898Y-91710635D01*
X126501562Y-91872138D01*
X126375676Y-92056680D01*
X126352646Y-92106295D01*
X126285295Y-92251391D01*
X126281621Y-92259305D01*
X126221922Y-92474570D01*
X126198184Y-92696695D01*
X126198481Y-92701848D01*
X126198481Y-92701851D01*
X126203944Y-92796590D01*
X126211043Y-92919715D01*
X126212180Y-92924761D01*
X126212181Y-92924767D01*
X126229240Y-93000460D01*
X126260155Y-93137639D01*
X126344199Y-93344616D01*
X126346898Y-93349020D01*
X126448334Y-93514549D01*
X126460920Y-93535088D01*
X126607183Y-93703938D01*
X126779059Y-93846632D01*
X126849528Y-93887811D01*
X126852378Y-93889476D01*
X126901102Y-93941114D01*
X126914173Y-94010897D01*
X126887442Y-94076669D01*
X126846988Y-94110027D01*
X126834540Y-94116507D01*
X126830407Y-94119610D01*
X126830404Y-94119612D01*
X126741716Y-94186201D01*
X126655898Y-94250635D01*
X126501562Y-94412138D01*
X126375676Y-94596680D01*
X126342061Y-94669097D01*
X126300683Y-94758240D01*
X126281621Y-94799305D01*
X126221922Y-95014570D01*
X126198184Y-95236695D01*
X126198481Y-95241848D01*
X126198481Y-95241851D01*
X126203944Y-95336590D01*
X126211043Y-95459715D01*
X126212180Y-95464761D01*
X126212181Y-95464767D01*
X126229856Y-95543195D01*
X126260155Y-95677639D01*
X126298394Y-95771811D01*
X126330675Y-95851309D01*
X126344199Y-95884616D01*
X126350898Y-95895547D01*
X126428268Y-96021804D01*
X126460920Y-96075088D01*
X126607183Y-96243938D01*
X126779059Y-96386632D01*
X126849528Y-96427811D01*
X126852378Y-96429476D01*
X126901102Y-96481114D01*
X126914173Y-96550897D01*
X126887442Y-96616669D01*
X126846988Y-96650027D01*
X126834540Y-96656507D01*
X126830407Y-96659610D01*
X126830404Y-96659612D01*
X126806180Y-96677800D01*
X126655898Y-96790635D01*
X126501562Y-96952138D01*
X126375676Y-97136680D01*
X126281621Y-97339305D01*
X126221922Y-97554570D01*
X126198184Y-97776695D01*
X126198481Y-97781848D01*
X126198481Y-97781851D01*
X126203944Y-97876590D01*
X126211043Y-97999715D01*
X126212180Y-98004761D01*
X126212181Y-98004767D01*
X126232052Y-98092939D01*
X126260155Y-98217639D01*
X126344199Y-98424616D01*
X126460920Y-98615088D01*
X126607183Y-98783938D01*
X126779059Y-98926632D01*
X126849528Y-98967811D01*
X126852378Y-98969476D01*
X126901102Y-99021114D01*
X126914173Y-99090897D01*
X126887442Y-99156669D01*
X126846988Y-99190027D01*
X126834540Y-99196507D01*
X126830407Y-99199610D01*
X126830404Y-99199612D01*
X126806180Y-99217800D01*
X126655898Y-99330635D01*
X126501562Y-99492138D01*
X126498648Y-99496410D01*
X126498647Y-99496411D01*
X126435203Y-99589416D01*
X126375676Y-99676680D01*
X126337929Y-99757999D01*
X126293434Y-99853857D01*
X126281621Y-99879305D01*
X126221922Y-100094570D01*
X126198184Y-100316695D01*
X126198481Y-100321848D01*
X126198481Y-100321851D01*
X126203944Y-100416590D01*
X126211043Y-100539715D01*
X126212180Y-100544761D01*
X126212181Y-100544767D01*
X126232052Y-100632939D01*
X126260155Y-100757639D01*
X126344199Y-100964616D01*
X126460920Y-101155088D01*
X126607183Y-101323938D01*
X126779059Y-101466632D01*
X126849528Y-101507811D01*
X126852378Y-101509476D01*
X126901102Y-101561114D01*
X126914173Y-101630897D01*
X126887442Y-101696669D01*
X126846988Y-101730027D01*
X126834540Y-101736507D01*
X126830407Y-101739610D01*
X126830404Y-101739612D01*
X126685223Y-101848617D01*
X126655898Y-101870635D01*
X126501562Y-102032138D01*
X126498648Y-102036410D01*
X126498647Y-102036411D01*
X126413489Y-102161249D01*
X126375676Y-102216680D01*
X126281621Y-102419305D01*
X126221922Y-102634570D01*
X126198184Y-102856695D01*
X126198481Y-102861848D01*
X126198481Y-102861851D01*
X126206879Y-103007492D01*
X126211043Y-103079715D01*
X126212180Y-103084761D01*
X126212181Y-103084767D01*
X126232052Y-103172939D01*
X126260155Y-103297639D01*
X126344199Y-103504616D01*
X126460920Y-103695088D01*
X126607183Y-103863938D01*
X126779059Y-104006632D01*
X126849528Y-104047811D01*
X126852378Y-104049476D01*
X126901102Y-104101114D01*
X126914173Y-104170897D01*
X126887442Y-104236669D01*
X126846988Y-104270027D01*
X126834540Y-104276507D01*
X126830407Y-104279610D01*
X126830404Y-104279612D01*
X126806180Y-104297800D01*
X126655898Y-104410635D01*
X126501562Y-104572138D01*
X126375676Y-104756680D01*
X126281621Y-104959305D01*
X126221922Y-105174570D01*
X126198184Y-105396695D01*
X126198481Y-105401848D01*
X126198481Y-105401851D01*
X126203944Y-105496590D01*
X126211043Y-105619715D01*
X126212180Y-105624761D01*
X126212181Y-105624767D01*
X126232052Y-105712939D01*
X126260155Y-105837639D01*
X126344199Y-106044616D01*
X126460920Y-106235088D01*
X126607183Y-106403938D01*
X126779059Y-106546632D01*
X126849528Y-106587811D01*
X126852378Y-106589476D01*
X126901102Y-106641114D01*
X126914173Y-106710897D01*
X126887442Y-106776669D01*
X126846988Y-106810027D01*
X126834540Y-106816507D01*
X126830407Y-106819610D01*
X126830404Y-106819612D01*
X126660033Y-106947530D01*
X126655898Y-106950635D01*
X126501562Y-107112138D01*
X126375676Y-107296680D01*
X126281621Y-107499305D01*
X126221922Y-107714570D01*
X126198184Y-107936695D01*
X126198481Y-107941848D01*
X126198481Y-107941851D01*
X126203944Y-108036590D01*
X126211043Y-108159715D01*
X126212180Y-108164761D01*
X126212181Y-108164767D01*
X126217283Y-108187404D01*
X126260155Y-108377639D01*
X126344199Y-108584616D01*
X126460920Y-108775088D01*
X126607183Y-108943938D01*
X126779059Y-109086632D01*
X126849528Y-109127811D01*
X126852378Y-109129476D01*
X126901102Y-109181114D01*
X126914173Y-109250897D01*
X126887442Y-109316669D01*
X126846988Y-109350027D01*
X126834540Y-109356507D01*
X126830407Y-109359610D01*
X126830404Y-109359612D01*
X126806180Y-109377800D01*
X126655898Y-109490635D01*
X126501562Y-109652138D01*
X126375676Y-109836680D01*
X126281621Y-110039305D01*
X126221922Y-110254570D01*
X126198184Y-110476695D01*
X126198481Y-110481848D01*
X126198481Y-110481851D01*
X126203944Y-110576590D01*
X126211043Y-110699715D01*
X126212180Y-110704761D01*
X126212181Y-110704767D01*
X126230354Y-110785405D01*
X126260155Y-110917639D01*
X126344199Y-111124616D01*
X126355989Y-111143856D01*
X126414110Y-111238700D01*
X126460920Y-111315088D01*
X126607183Y-111483938D01*
X126611163Y-111487242D01*
X126615914Y-111491187D01*
X126655549Y-111550090D01*
X126657046Y-111621071D01*
X126619930Y-111681593D01*
X126579657Y-111706112D01*
X126464228Y-111749385D01*
X126347672Y-111836739D01*
X126260318Y-111953295D01*
X126209188Y-112089684D01*
X126202433Y-112151866D01*
X126202433Y-113948134D01*
X126209188Y-114010316D01*
X126260318Y-114146705D01*
X126347672Y-114263261D01*
X126464228Y-114350615D01*
X126600617Y-114401745D01*
X126662799Y-114408500D01*
X128276097Y-114408500D01*
X128344218Y-114428502D01*
X128390711Y-114482158D01*
X128401767Y-114525381D01*
X128406125Y-114585451D01*
X128407109Y-114589906D01*
X128407109Y-114589909D01*
X128446482Y-114768240D01*
X128464585Y-114850237D01*
X128560655Y-115103810D01*
X128692324Y-115340859D01*
X128856833Y-115556417D01*
X129050736Y-115745970D01*
X129054428Y-115748657D01*
X129054430Y-115748659D01*
X129185304Y-115843919D01*
X129269972Y-115905547D01*
X129509947Y-116031804D01*
X129514248Y-116033323D01*
X129514253Y-116033325D01*
X129647087Y-116080233D01*
X129765634Y-116122096D01*
X129863653Y-116141415D01*
X130027206Y-116173652D01*
X130027212Y-116173653D01*
X130031678Y-116174533D01*
X130036232Y-116174760D01*
X130036234Y-116174760D01*
X130297936Y-116187789D01*
X130297942Y-116187789D01*
X130302505Y-116188016D01*
X130572441Y-116162262D01*
X130576870Y-116161178D01*
X130576877Y-116161177D01*
X130736584Y-116122096D01*
X130835832Y-116097810D01*
X130855895Y-116089684D01*
X131082931Y-115997725D01*
X131082932Y-115997725D01*
X131087160Y-115996012D01*
X131321161Y-115858999D01*
X131461805Y-115746523D01*
X131527498Y-115719599D01*
X131597319Y-115732465D01*
X131649101Y-115781036D01*
X131666500Y-115844926D01*
X131666500Y-117585405D01*
X131646498Y-117653526D01*
X131629595Y-117674500D01*
X130707747Y-118596348D01*
X130699461Y-118603888D01*
X130692982Y-118608000D01*
X130687557Y-118613777D01*
X130646357Y-118657651D01*
X130643602Y-118660493D01*
X130623865Y-118680230D01*
X130621385Y-118683427D01*
X130613682Y-118692447D01*
X130583414Y-118724679D01*
X130579595Y-118731625D01*
X130579593Y-118731628D01*
X130573652Y-118742434D01*
X130562801Y-118758953D01*
X130550386Y-118774959D01*
X130547241Y-118782228D01*
X130547238Y-118782232D01*
X130532826Y-118815537D01*
X130527609Y-118826187D01*
X130506305Y-118864940D01*
X130504334Y-118872615D01*
X130504334Y-118872616D01*
X130501267Y-118884562D01*
X130494863Y-118903266D01*
X130486819Y-118921855D01*
X130485580Y-118929678D01*
X130485577Y-118929688D01*
X130479901Y-118965524D01*
X130477495Y-118977144D01*
X130466500Y-119019970D01*
X130466500Y-119040224D01*
X130464949Y-119059934D01*
X130461780Y-119079943D01*
X130462526Y-119087835D01*
X130465941Y-119123961D01*
X130466500Y-119135819D01*
X130466500Y-122821233D01*
X130465973Y-122832416D01*
X130464298Y-122839909D01*
X130464547Y-122847835D01*
X130464547Y-122847836D01*
X130466438Y-122907986D01*
X130466500Y-122911945D01*
X130466500Y-122939856D01*
X130466997Y-122943790D01*
X130466997Y-122943791D01*
X130467005Y-122943856D01*
X130467938Y-122955693D01*
X130469327Y-122999889D01*
X130474978Y-123019339D01*
X130478987Y-123038700D01*
X130481526Y-123058797D01*
X130484445Y-123066168D01*
X130484445Y-123066170D01*
X130497804Y-123099912D01*
X130501649Y-123111142D01*
X130513982Y-123153593D01*
X130518015Y-123160412D01*
X130518017Y-123160417D01*
X130524293Y-123171028D01*
X130532988Y-123188776D01*
X130540448Y-123207617D01*
X130545110Y-123214033D01*
X130545110Y-123214034D01*
X130566436Y-123243387D01*
X130572952Y-123253307D01*
X130595458Y-123291362D01*
X130609779Y-123305683D01*
X130622619Y-123320716D01*
X130634528Y-123337107D01*
X130640634Y-123342158D01*
X130668605Y-123365298D01*
X130677384Y-123373288D01*
X130755037Y-123450941D01*
X130789063Y-123513253D01*
X130783998Y-123584068D01*
X130741451Y-123640904D01*
X130674931Y-123665715D01*
X130630788Y-123661033D01*
X130615395Y-123656561D01*
X130601294Y-123656601D01*
X130598000Y-123663870D01*
X130598000Y-124546885D01*
X130602475Y-124562124D01*
X130603865Y-124563329D01*
X130611548Y-124565000D01*
X131309500Y-124565000D01*
X131377621Y-124585002D01*
X131424114Y-124638658D01*
X131435500Y-124691000D01*
X131435500Y-124947000D01*
X131415498Y-125015121D01*
X131361842Y-125061614D01*
X131309500Y-125073000D01*
X129554116Y-125073000D01*
X129538877Y-125077475D01*
X129537672Y-125078865D01*
X129536001Y-125086548D01*
X129536001Y-125395484D01*
X129536195Y-125400420D01*
X129538430Y-125428836D01*
X129540730Y-125441431D01*
X129583107Y-125587290D01*
X129589352Y-125601721D01*
X129665911Y-125731178D01*
X129675551Y-125743604D01*
X129781895Y-125849948D01*
X129790500Y-125856623D01*
X129832066Y-125914180D01*
X129835915Y-125985073D01*
X129800826Y-126046792D01*
X129792857Y-126053697D01*
X129787193Y-126057047D01*
X129669547Y-126174693D01*
X129665511Y-126181517D01*
X129665509Y-126181520D01*
X129649799Y-126208085D01*
X129584855Y-126317899D01*
X129538438Y-126477669D01*
X129535500Y-126514998D01*
X129535500Y-127504947D01*
X129515498Y-127573068D01*
X129461842Y-127619561D01*
X129391568Y-127629665D01*
X129343383Y-127612206D01*
X129335152Y-127607132D01*
X129335149Y-127607131D01*
X129328920Y-127603291D01*
X129163809Y-127548526D01*
X129156973Y-127547826D01*
X129156970Y-127547825D01*
X129105474Y-127542549D01*
X129061072Y-127538000D01*
X128486928Y-127538000D01*
X128483682Y-127538337D01*
X128483678Y-127538337D01*
X128389765Y-127548081D01*
X128389761Y-127548082D01*
X128382907Y-127548793D01*
X128376371Y-127550974D01*
X128376369Y-127550974D01*
X128249530Y-127593291D01*
X128217893Y-127603846D01*
X128094922Y-127679943D01*
X128088524Y-127683902D01*
X128020072Y-127702740D01*
X127956107Y-127684018D01*
X127831374Y-127607132D01*
X127815150Y-127597131D01*
X127815148Y-127597130D01*
X127808920Y-127593291D01*
X127643809Y-127538526D01*
X127636973Y-127537826D01*
X127636970Y-127537825D01*
X127585474Y-127532549D01*
X127541072Y-127528000D01*
X126966928Y-127528000D01*
X126963682Y-127528337D01*
X126963678Y-127528337D01*
X126869765Y-127538081D01*
X126869761Y-127538082D01*
X126862907Y-127538793D01*
X126856371Y-127540974D01*
X126856369Y-127540974D01*
X126832933Y-127548793D01*
X126697893Y-127593846D01*
X126549969Y-127685384D01*
X126544796Y-127690566D01*
X126432242Y-127803316D01*
X126432238Y-127803321D01*
X126427071Y-127808497D01*
X126423231Y-127814727D01*
X126423230Y-127814728D01*
X126348153Y-127936526D01*
X126335791Y-127956580D01*
X126281026Y-128121691D01*
X126270500Y-128224428D01*
X126270500Y-128823572D01*
X126281293Y-128927593D01*
X126283474Y-128934129D01*
X126283474Y-128934131D01*
X126286050Y-128941852D01*
X126336346Y-129092607D01*
X126427884Y-129240531D01*
X126433066Y-129245704D01*
X126534786Y-129347247D01*
X126568865Y-129409530D01*
X126563862Y-129480350D01*
X126534941Y-129525437D01*
X126432246Y-129628312D01*
X126432242Y-129628317D01*
X126427071Y-129633497D01*
X126423231Y-129639727D01*
X126423230Y-129639728D01*
X126421541Y-129642469D01*
X126335791Y-129781580D01*
X126281026Y-129946691D01*
X126270500Y-130049428D01*
X126270500Y-130648572D01*
X126281293Y-130752593D01*
X126336346Y-130917607D01*
X126427884Y-131065531D01*
X126433066Y-131070704D01*
X126545816Y-131183258D01*
X126545821Y-131183262D01*
X126550997Y-131188429D01*
X126557227Y-131192269D01*
X126557228Y-131192270D01*
X126560614Y-131194357D01*
X126562441Y-131196386D01*
X126562973Y-131196807D01*
X126562901Y-131196898D01*
X126608108Y-131247128D01*
X126620500Y-131301618D01*
X126620500Y-139575233D01*
X126619973Y-139586416D01*
X126618298Y-139593909D01*
X126618547Y-139601835D01*
X126618547Y-139601836D01*
X126620438Y-139661986D01*
X126620500Y-139665945D01*
X126620500Y-139693856D01*
X126620997Y-139697790D01*
X126620997Y-139697791D01*
X126621005Y-139697856D01*
X126621938Y-139709693D01*
X126623327Y-139753889D01*
X126628978Y-139773339D01*
X126632987Y-139792700D01*
X126635526Y-139812797D01*
X126638445Y-139820168D01*
X126638445Y-139820170D01*
X126651804Y-139853912D01*
X126655649Y-139865142D01*
X126667982Y-139907593D01*
X126672015Y-139914412D01*
X126672017Y-139914417D01*
X126678293Y-139925028D01*
X126686988Y-139942776D01*
X126694448Y-139961617D01*
X126699110Y-139968033D01*
X126699110Y-139968034D01*
X126720436Y-139997387D01*
X126726952Y-140007307D01*
X126749458Y-140045362D01*
X126763779Y-140059683D01*
X126776619Y-140074716D01*
X126788528Y-140091107D01*
X126794634Y-140096158D01*
X126822605Y-140119298D01*
X126831384Y-140127288D01*
X129299595Y-142595500D01*
X129333621Y-142657812D01*
X129336500Y-142684595D01*
X129336500Y-142915070D01*
X129316498Y-142983191D01*
X129262011Y-143028723D01*
X129262420Y-143029525D01*
X129258912Y-143031312D01*
X129258709Y-143031482D01*
X129258015Y-143031769D01*
X129258007Y-143031773D01*
X129253437Y-143033666D01*
X129042260Y-143163075D01*
X128853927Y-143323927D01*
X128693075Y-143512260D01*
X128563666Y-143723437D01*
X128561773Y-143728007D01*
X128561771Y-143728011D01*
X128470779Y-143947685D01*
X128468885Y-143952258D01*
X128467730Y-143957070D01*
X128412221Y-144188276D01*
X128412220Y-144188282D01*
X128411066Y-144193089D01*
X128391634Y-144440000D01*
X128411066Y-144686911D01*
X128412220Y-144691718D01*
X128412221Y-144691724D01*
X128433941Y-144782191D01*
X128468885Y-144927742D01*
X128470778Y-144932313D01*
X128470779Y-144932315D01*
X128545667Y-145113109D01*
X128563666Y-145156563D01*
X128693075Y-145367740D01*
X128853927Y-145556073D01*
X129042260Y-145716925D01*
X129253437Y-145846334D01*
X129258007Y-145848227D01*
X129258011Y-145848229D01*
X129477685Y-145939221D01*
X129482258Y-145941115D01*
X129563880Y-145960711D01*
X129718276Y-145997779D01*
X129718282Y-145997780D01*
X129723089Y-145998934D01*
X129970000Y-146018366D01*
X130216911Y-145998934D01*
X130221718Y-145997780D01*
X130221724Y-145997779D01*
X130376120Y-145960711D01*
X130457742Y-145941115D01*
X130462315Y-145939221D01*
X130681989Y-145848229D01*
X130681993Y-145848227D01*
X130686563Y-145846334D01*
X130897740Y-145716925D01*
X131086073Y-145556073D01*
X131246925Y-145367740D01*
X131376334Y-145156563D01*
X131394334Y-145113109D01*
X131469221Y-144932315D01*
X131469222Y-144932313D01*
X131471115Y-144927742D01*
X131506059Y-144782191D01*
X131527779Y-144691724D01*
X131527780Y-144691718D01*
X131528934Y-144686911D01*
X131548366Y-144440000D01*
X131550303Y-144440152D01*
X131567980Y-144379951D01*
X131621636Y-144333458D01*
X131691910Y-144323354D01*
X131756490Y-144352848D01*
X131763071Y-144358975D01*
X132535888Y-145131793D01*
X133308377Y-145904282D01*
X133342403Y-145966594D01*
X133337338Y-146037410D01*
X133320112Y-146068936D01*
X133261385Y-146147295D01*
X133210255Y-146283684D01*
X133203500Y-146345866D01*
X133203500Y-148342134D01*
X133210255Y-148404316D01*
X133261385Y-148540705D01*
X133348739Y-148657261D01*
X133355919Y-148662642D01*
X133362269Y-148668992D01*
X133360022Y-148671239D01*
X133393143Y-148715544D01*
X133398162Y-148786363D01*
X133364097Y-148848653D01*
X133301762Y-148882638D01*
X133275059Y-148885500D01*
X132713866Y-148885500D01*
X132651684Y-148892255D01*
X132515295Y-148943385D01*
X132398739Y-149030739D01*
X132311385Y-149147295D01*
X132260255Y-149283684D01*
X132253500Y-149345866D01*
X132253500Y-151053405D01*
X132233498Y-151121526D01*
X132179842Y-151168019D01*
X132109568Y-151178123D01*
X132044988Y-151148629D01*
X132038405Y-151142500D01*
X131185492Y-150289587D01*
X131151466Y-150227275D01*
X131156531Y-150156460D01*
X131201420Y-150097914D01*
X131220737Y-150084135D01*
X131223031Y-150082499D01*
X131223036Y-150082495D01*
X131227243Y-150079494D01*
X131278791Y-150028126D01*
X131335227Y-149971886D01*
X131391303Y-149916005D01*
X131526458Y-149727917D01*
X131552970Y-149674275D01*
X131626784Y-149524922D01*
X131626785Y-149524920D01*
X131629078Y-149520280D01*
X131696408Y-149298671D01*
X131726640Y-149069041D01*
X131726722Y-149065691D01*
X131728245Y-149003365D01*
X131728245Y-149003361D01*
X131728327Y-149000000D01*
X131718985Y-148886369D01*
X131709773Y-148774318D01*
X131709772Y-148774312D01*
X131709349Y-148769167D01*
X131667884Y-148604088D01*
X131654184Y-148549544D01*
X131654183Y-148549540D01*
X131652925Y-148544533D01*
X131588541Y-148396460D01*
X131562630Y-148336868D01*
X131562628Y-148336865D01*
X131560570Y-148332131D01*
X131434764Y-148137665D01*
X131402767Y-148102500D01*
X131353643Y-148048514D01*
X131278887Y-147966358D01*
X131274836Y-147963159D01*
X131274832Y-147963155D01*
X131101177Y-147826011D01*
X131101172Y-147826008D01*
X131097123Y-147822810D01*
X131092607Y-147820317D01*
X131092604Y-147820315D01*
X130898879Y-147713373D01*
X130898875Y-147713371D01*
X130894355Y-147710876D01*
X130889486Y-147709152D01*
X130889482Y-147709150D01*
X130680903Y-147635288D01*
X130680899Y-147635287D01*
X130676028Y-147633562D01*
X130670935Y-147632655D01*
X130670932Y-147632654D01*
X130453095Y-147593851D01*
X130453089Y-147593850D01*
X130448006Y-147592945D01*
X130370644Y-147592000D01*
X130221581Y-147590179D01*
X130221579Y-147590179D01*
X130216411Y-147590116D01*
X129987464Y-147625150D01*
X129767314Y-147697106D01*
X129762726Y-147699494D01*
X129762722Y-147699496D01*
X129632028Y-147767531D01*
X129561872Y-147804052D01*
X129557739Y-147807155D01*
X129557736Y-147807157D01*
X129380790Y-147940012D01*
X129376655Y-147943117D01*
X129373083Y-147946855D01*
X129358787Y-147961815D01*
X129297263Y-147997245D01*
X129226351Y-147993788D01*
X129168564Y-147952543D01*
X129149711Y-147918994D01*
X129128324Y-147861946D01*
X129119786Y-147846351D01*
X129043285Y-147744276D01*
X129030724Y-147731715D01*
X128928649Y-147655214D01*
X128913054Y-147646676D01*
X128792606Y-147601522D01*
X128777351Y-147597895D01*
X128726486Y-147592369D01*
X128719672Y-147592000D01*
X128047115Y-147592000D01*
X128031876Y-147596475D01*
X128030671Y-147597865D01*
X128029000Y-147605548D01*
X128029000Y-150389884D01*
X128033475Y-150405123D01*
X128034865Y-150406328D01*
X128042548Y-150407999D01*
X128719669Y-150407999D01*
X128726490Y-150407629D01*
X128777352Y-150402105D01*
X128792604Y-150398479D01*
X128913054Y-150353324D01*
X128928649Y-150344786D01*
X129030724Y-150268285D01*
X129043285Y-150255724D01*
X129119786Y-150153649D01*
X129128324Y-150138054D01*
X129149773Y-150080840D01*
X129192415Y-150024075D01*
X129258977Y-149999376D01*
X129328325Y-150014584D01*
X129348240Y-150028126D01*
X129419304Y-150087124D01*
X129504349Y-150157730D01*
X129508816Y-150160340D01*
X129619070Y-150224767D01*
X129667794Y-150276405D01*
X129681500Y-150333555D01*
X129681500Y-150354856D01*
X129681997Y-150358790D01*
X129681997Y-150358791D01*
X129682005Y-150358856D01*
X129682938Y-150370693D01*
X129684327Y-150414889D01*
X129689978Y-150434339D01*
X129693987Y-150453700D01*
X129696526Y-150473797D01*
X129699445Y-150481168D01*
X129699445Y-150481170D01*
X129712804Y-150514912D01*
X129716649Y-150526142D01*
X129728982Y-150568593D01*
X129733015Y-150575412D01*
X129733017Y-150575417D01*
X129739293Y-150586028D01*
X129747988Y-150603776D01*
X129755448Y-150622617D01*
X129760110Y-150629033D01*
X129760110Y-150629034D01*
X129781436Y-150658387D01*
X129787952Y-150668307D01*
X129810458Y-150706362D01*
X129824779Y-150720683D01*
X129837619Y-150735716D01*
X129849528Y-150752107D01*
X129855634Y-150757158D01*
X129883605Y-150780298D01*
X129892384Y-150788288D01*
X130628001Y-151523905D01*
X130662027Y-151586217D01*
X130656962Y-151657032D01*
X130614415Y-151713868D01*
X130547895Y-151738679D01*
X130538906Y-151739000D01*
X130272115Y-151739000D01*
X130256876Y-151743475D01*
X130255671Y-151744865D01*
X130254000Y-151752548D01*
X130254000Y-152889885D01*
X130258475Y-152905124D01*
X130259865Y-152906329D01*
X130267548Y-152908000D01*
X131454884Y-152908000D01*
X131470123Y-152903525D01*
X131471328Y-152902135D01*
X131472999Y-152894452D01*
X131472999Y-152673093D01*
X131493001Y-152604972D01*
X131546657Y-152558479D01*
X131616931Y-152548375D01*
X131681511Y-152577869D01*
X131688094Y-152583998D01*
X134182343Y-155078247D01*
X134189887Y-155086537D01*
X134194000Y-155093018D01*
X134199777Y-155098443D01*
X134243667Y-155139658D01*
X134246509Y-155142413D01*
X134266230Y-155162134D01*
X134269425Y-155164612D01*
X134278447Y-155172318D01*
X134310679Y-155202586D01*
X134317628Y-155206406D01*
X134328432Y-155212346D01*
X134344956Y-155223199D01*
X134360959Y-155235613D01*
X134401543Y-155253176D01*
X134412173Y-155258383D01*
X134450940Y-155279695D01*
X134458617Y-155281666D01*
X134458622Y-155281668D01*
X134470558Y-155284732D01*
X134489266Y-155291137D01*
X134507855Y-155299181D01*
X134515680Y-155300420D01*
X134515682Y-155300421D01*
X134551519Y-155306097D01*
X134563140Y-155308504D01*
X134594959Y-155316673D01*
X134605970Y-155319500D01*
X134626231Y-155319500D01*
X134645940Y-155321051D01*
X134665943Y-155324219D01*
X134673835Y-155323473D01*
X134679062Y-155322979D01*
X134709954Y-155320059D01*
X134721811Y-155319500D01*
X138507131Y-155319500D01*
X138575252Y-155339502D01*
X138621745Y-155393158D01*
X138631849Y-155463432D01*
X138614563Y-155511335D01*
X138596257Y-155541208D01*
X138596254Y-155541213D01*
X138593666Y-155545437D01*
X138498885Y-155774258D01*
X138497730Y-155779070D01*
X138442221Y-156010276D01*
X138442220Y-156010282D01*
X138441066Y-156015089D01*
X138421634Y-156262000D01*
X138441066Y-156508911D01*
X138442220Y-156513718D01*
X138442221Y-156513724D01*
X138478499Y-156664830D01*
X138498885Y-156749742D01*
X138593666Y-156978563D01*
X138723075Y-157189740D01*
X138883927Y-157378073D01*
X139072260Y-157538925D01*
X139283437Y-157668334D01*
X139288007Y-157670227D01*
X139288011Y-157670229D01*
X139507685Y-157761221D01*
X139512258Y-157763115D01*
X139597170Y-157783501D01*
X139748276Y-157819779D01*
X139748282Y-157819780D01*
X139753089Y-157820934D01*
X140000000Y-157840366D01*
X140246911Y-157820934D01*
X140251718Y-157819780D01*
X140251724Y-157819779D01*
X140402830Y-157783501D01*
X140487742Y-157763115D01*
X140492315Y-157761221D01*
X140711989Y-157670229D01*
X140711993Y-157670227D01*
X140716563Y-157668334D01*
X140927740Y-157538925D01*
X141116073Y-157378073D01*
X141276925Y-157189740D01*
X141406334Y-156978563D01*
X141501115Y-156749742D01*
X141521501Y-156664830D01*
X141557779Y-156513724D01*
X141557780Y-156513718D01*
X141558934Y-156508911D01*
X141578366Y-156262000D01*
X141558934Y-156015089D01*
X141557780Y-156010282D01*
X141557779Y-156010276D01*
X141502270Y-155779070D01*
X141501115Y-155774258D01*
X141406334Y-155545437D01*
X141403746Y-155541213D01*
X141403743Y-155541208D01*
X141385437Y-155511335D01*
X141366898Y-155442802D01*
X141388354Y-155375125D01*
X141442993Y-155329792D01*
X141492869Y-155319500D01*
X141907233Y-155319500D01*
X141918416Y-155320027D01*
X141925909Y-155321702D01*
X141933835Y-155321453D01*
X141933836Y-155321453D01*
X141993986Y-155319562D01*
X141997945Y-155319500D01*
X142025856Y-155319500D01*
X142029791Y-155319003D01*
X142029856Y-155318995D01*
X142041693Y-155318062D01*
X142073951Y-155317048D01*
X142077970Y-155316922D01*
X142085889Y-155316673D01*
X142105343Y-155311021D01*
X142124700Y-155307013D01*
X142136930Y-155305468D01*
X142136931Y-155305468D01*
X142144797Y-155304474D01*
X142152168Y-155301555D01*
X142152170Y-155301555D01*
X142185912Y-155288196D01*
X142197142Y-155284351D01*
X142231983Y-155274229D01*
X142231984Y-155274229D01*
X142239593Y-155272018D01*
X142246412Y-155267985D01*
X142246417Y-155267983D01*
X142257028Y-155261707D01*
X142274776Y-155253012D01*
X142293617Y-155245552D01*
X142313987Y-155230753D01*
X142329387Y-155219564D01*
X142339307Y-155213048D01*
X142370535Y-155194580D01*
X142370538Y-155194578D01*
X142377362Y-155190542D01*
X142391683Y-155176221D01*
X142406717Y-155163380D01*
X142408432Y-155162134D01*
X142423107Y-155151472D01*
X142451298Y-155117395D01*
X142459288Y-155108616D01*
X143902247Y-153665657D01*
X143910537Y-153658113D01*
X143917018Y-153654000D01*
X143963659Y-153604332D01*
X143966413Y-153601491D01*
X143986134Y-153581770D01*
X143988612Y-153578575D01*
X143996318Y-153569553D01*
X144021158Y-153543101D01*
X144026586Y-153537321D01*
X144036346Y-153519568D01*
X144047199Y-153503045D01*
X144054753Y-153493306D01*
X144059613Y-153487041D01*
X144077176Y-153446457D01*
X144082383Y-153435827D01*
X144103695Y-153397060D01*
X144105666Y-153389383D01*
X144105668Y-153389378D01*
X144108732Y-153377442D01*
X144115138Y-153358730D01*
X144120034Y-153347417D01*
X144123181Y-153340145D01*
X144130097Y-153296481D01*
X144132504Y-153284860D01*
X144141528Y-153249711D01*
X144141528Y-153249710D01*
X144143500Y-153242030D01*
X144143500Y-153221769D01*
X144145051Y-153202058D01*
X144146979Y-153189885D01*
X144148219Y-153182057D01*
X144144059Y-153138046D01*
X144143500Y-153126189D01*
X144143500Y-146136964D01*
X144163502Y-146068843D01*
X144203196Y-146029821D01*
X144214031Y-146023116D01*
X144276327Y-145960711D01*
X144338609Y-145926632D01*
X144409429Y-145931635D01*
X144466302Y-145974132D01*
X144491171Y-146040630D01*
X144491500Y-146049729D01*
X144491500Y-164874000D01*
X144471498Y-164942121D01*
X144417842Y-164988614D01*
X144365500Y-165000000D01*
X141672888Y-165000000D01*
X141604767Y-164979998D01*
X141558274Y-164926342D01*
X141548170Y-164856068D01*
X141550370Y-164844585D01*
X141557777Y-164813733D01*
X141557778Y-164813725D01*
X141558934Y-164808911D01*
X141578366Y-164562000D01*
X141558934Y-164315089D01*
X141557780Y-164310282D01*
X141557779Y-164310276D01*
X141502270Y-164079070D01*
X141501115Y-164074258D01*
X141406334Y-163845437D01*
X141276925Y-163634260D01*
X141116073Y-163445927D01*
X140927740Y-163285075D01*
X140716563Y-163155666D01*
X140711993Y-163153773D01*
X140711989Y-163153771D01*
X140492315Y-163062779D01*
X140492313Y-163062778D01*
X140487742Y-163060885D01*
X140402830Y-163040499D01*
X140251724Y-163004221D01*
X140251718Y-163004220D01*
X140246911Y-163003066D01*
X140000000Y-162983634D01*
X139753089Y-163003066D01*
X139748282Y-163004220D01*
X139748276Y-163004221D01*
X139597170Y-163040499D01*
X139512258Y-163060885D01*
X139507687Y-163062778D01*
X139507685Y-163062779D01*
X139288011Y-163153771D01*
X139288007Y-163153773D01*
X139283437Y-163155666D01*
X139072260Y-163285075D01*
X138883927Y-163445927D01*
X138723075Y-163634260D01*
X138593666Y-163845437D01*
X138498885Y-164074258D01*
X138497730Y-164079070D01*
X138442221Y-164310276D01*
X138442220Y-164310282D01*
X138441066Y-164315089D01*
X138421634Y-164562000D01*
X138441066Y-164808911D01*
X138442222Y-164813725D01*
X138442223Y-164813733D01*
X138449630Y-164844585D01*
X138446084Y-164915493D01*
X138404765Y-164973227D01*
X138338791Y-164999458D01*
X138327112Y-165000000D01*
X131672888Y-165000000D01*
X131604767Y-164979998D01*
X131558274Y-164926342D01*
X131548170Y-164856068D01*
X131550370Y-164844585D01*
X131557777Y-164813733D01*
X131557778Y-164813725D01*
X131558934Y-164808911D01*
X131578366Y-164562000D01*
X131558934Y-164315089D01*
X131557780Y-164310282D01*
X131557779Y-164310276D01*
X131502270Y-164079070D01*
X131501115Y-164074258D01*
X131406334Y-163845437D01*
X131276925Y-163634260D01*
X131116073Y-163445927D01*
X130927740Y-163285075D01*
X130716563Y-163155666D01*
X130711993Y-163153773D01*
X130711989Y-163153771D01*
X130492315Y-163062779D01*
X130492313Y-163062778D01*
X130487742Y-163060885D01*
X130402830Y-163040499D01*
X130251724Y-163004221D01*
X130251718Y-163004220D01*
X130246911Y-163003066D01*
X130000000Y-162983634D01*
X129753089Y-163003066D01*
X129748282Y-163004220D01*
X129748276Y-163004221D01*
X129597170Y-163040499D01*
X129512258Y-163060885D01*
X129507687Y-163062778D01*
X129507685Y-163062779D01*
X129288011Y-163153771D01*
X129288007Y-163153773D01*
X129283437Y-163155666D01*
X129072260Y-163285075D01*
X128883927Y-163445927D01*
X128723075Y-163634260D01*
X128593666Y-163845437D01*
X128498885Y-164074258D01*
X128497730Y-164079070D01*
X128442221Y-164310276D01*
X128442220Y-164310282D01*
X128441066Y-164315089D01*
X128421634Y-164562000D01*
X128441066Y-164808911D01*
X128442222Y-164813725D01*
X128442223Y-164813733D01*
X128449630Y-164844585D01*
X128446084Y-164915493D01*
X128404765Y-164973227D01*
X128338791Y-164999458D01*
X128327112Y-165000000D01*
X125634500Y-165000000D01*
X125566379Y-164979998D01*
X125519886Y-164926342D01*
X125508500Y-164874000D01*
X125508500Y-156262000D01*
X128421634Y-156262000D01*
X128441066Y-156508911D01*
X128442220Y-156513718D01*
X128442221Y-156513724D01*
X128478499Y-156664830D01*
X128498885Y-156749742D01*
X128593666Y-156978563D01*
X128723075Y-157189740D01*
X128883927Y-157378073D01*
X129072260Y-157538925D01*
X129283437Y-157668334D01*
X129288007Y-157670227D01*
X129288011Y-157670229D01*
X129507685Y-157761221D01*
X129512258Y-157763115D01*
X129597170Y-157783501D01*
X129748276Y-157819779D01*
X129748282Y-157819780D01*
X129753089Y-157820934D01*
X130000000Y-157840366D01*
X130246911Y-157820934D01*
X130251718Y-157819780D01*
X130251724Y-157819779D01*
X130402830Y-157783501D01*
X130487742Y-157763115D01*
X130492315Y-157761221D01*
X130711989Y-157670229D01*
X130711993Y-157670227D01*
X130716563Y-157668334D01*
X130927740Y-157538925D01*
X131116073Y-157378073D01*
X131276925Y-157189740D01*
X131406334Y-156978563D01*
X131501115Y-156749742D01*
X131521501Y-156664830D01*
X131557779Y-156513724D01*
X131557780Y-156513718D01*
X131558934Y-156508911D01*
X131578366Y-156262000D01*
X131558934Y-156015089D01*
X131557780Y-156010282D01*
X131557779Y-156010276D01*
X131502270Y-155779070D01*
X131501115Y-155774258D01*
X131406334Y-155545437D01*
X131276925Y-155334260D01*
X131116073Y-155145927D01*
X130927740Y-154985075D01*
X130716563Y-154855666D01*
X130648342Y-154827408D01*
X130593062Y-154782859D01*
X130570641Y-154715496D01*
X130588199Y-154646705D01*
X130640162Y-154598326D01*
X130696561Y-154584999D01*
X131009669Y-154584999D01*
X131016490Y-154584629D01*
X131067352Y-154579105D01*
X131082604Y-154575479D01*
X131203054Y-154530324D01*
X131218649Y-154521786D01*
X131320724Y-154445285D01*
X131333285Y-154432724D01*
X131409786Y-154330649D01*
X131418324Y-154315054D01*
X131463478Y-154194606D01*
X131467105Y-154179351D01*
X131472631Y-154128486D01*
X131473000Y-154121672D01*
X131473000Y-153434115D01*
X131468525Y-153418876D01*
X131467135Y-153417671D01*
X131459452Y-153416000D01*
X128545116Y-153416000D01*
X128529877Y-153420475D01*
X128528672Y-153421865D01*
X128527001Y-153429548D01*
X128527001Y-154121669D01*
X128527371Y-154128490D01*
X128532895Y-154179352D01*
X128536521Y-154194604D01*
X128581676Y-154315054D01*
X128590214Y-154330649D01*
X128666715Y-154432724D01*
X128679276Y-154445285D01*
X128781351Y-154521786D01*
X128796946Y-154530324D01*
X128917394Y-154575478D01*
X128932649Y-154579105D01*
X128983514Y-154584631D01*
X128990328Y-154585000D01*
X129303438Y-154585000D01*
X129371559Y-154605002D01*
X129418052Y-154658658D01*
X129428156Y-154728932D01*
X129398662Y-154793512D01*
X129351657Y-154827408D01*
X129323360Y-154839129D01*
X129288011Y-154853771D01*
X129288007Y-154853773D01*
X129283437Y-154855666D01*
X129072260Y-154985075D01*
X128883927Y-155145927D01*
X128723075Y-155334260D01*
X128593666Y-155545437D01*
X128498885Y-155774258D01*
X128497730Y-155779070D01*
X128442221Y-156010276D01*
X128442220Y-156010282D01*
X128441066Y-156015089D01*
X128421634Y-156262000D01*
X125508500Y-156262000D01*
X125508500Y-152889885D01*
X128527000Y-152889885D01*
X128531475Y-152905124D01*
X128532865Y-152906329D01*
X128540548Y-152908000D01*
X129727885Y-152908000D01*
X129743124Y-152903525D01*
X129744329Y-152902135D01*
X129746000Y-152894452D01*
X129746000Y-151757116D01*
X129741525Y-151741877D01*
X129740135Y-151740672D01*
X129732452Y-151739001D01*
X128990331Y-151739001D01*
X128983510Y-151739371D01*
X128932648Y-151744895D01*
X128917396Y-151748521D01*
X128796946Y-151793676D01*
X128781351Y-151802214D01*
X128679276Y-151878715D01*
X128666715Y-151891276D01*
X128590214Y-151993351D01*
X128581676Y-152008946D01*
X128536522Y-152129394D01*
X128532895Y-152144649D01*
X128527369Y-152195514D01*
X128527000Y-152202328D01*
X128527000Y-152889885D01*
X125508500Y-152889885D01*
X125508500Y-149944669D01*
X126367001Y-149944669D01*
X126367371Y-149951490D01*
X126372895Y-150002352D01*
X126376521Y-150017604D01*
X126421676Y-150138054D01*
X126430214Y-150153649D01*
X126506715Y-150255724D01*
X126519276Y-150268285D01*
X126621351Y-150344786D01*
X126636946Y-150353324D01*
X126757394Y-150398478D01*
X126772649Y-150402105D01*
X126823514Y-150407631D01*
X126830328Y-150408000D01*
X127502885Y-150408000D01*
X127518124Y-150403525D01*
X127519329Y-150402135D01*
X127521000Y-150394452D01*
X127521000Y-149272115D01*
X127516525Y-149256876D01*
X127515135Y-149255671D01*
X127507452Y-149254000D01*
X126385116Y-149254000D01*
X126369877Y-149258475D01*
X126368672Y-149259865D01*
X126367001Y-149267548D01*
X126367001Y-149944669D01*
X125508500Y-149944669D01*
X125508500Y-148727885D01*
X126367000Y-148727885D01*
X126371475Y-148743124D01*
X126372865Y-148744329D01*
X126380548Y-148746000D01*
X127502885Y-148746000D01*
X127518124Y-148741525D01*
X127519329Y-148740135D01*
X127521000Y-148732452D01*
X127521000Y-147610116D01*
X127516525Y-147594877D01*
X127515135Y-147593672D01*
X127507452Y-147592001D01*
X126830331Y-147592001D01*
X126823510Y-147592371D01*
X126772648Y-147597895D01*
X126757396Y-147601521D01*
X126636946Y-147646676D01*
X126621351Y-147655214D01*
X126519276Y-147731715D01*
X126506715Y-147744276D01*
X126430214Y-147846351D01*
X126421676Y-147861946D01*
X126376522Y-147982394D01*
X126372895Y-147997649D01*
X126367369Y-148048514D01*
X126367000Y-148055328D01*
X126367000Y-148727885D01*
X125508500Y-148727885D01*
X125508500Y-124546885D01*
X129536000Y-124546885D01*
X129540475Y-124562124D01*
X129541865Y-124563329D01*
X129549548Y-124565000D01*
X130071885Y-124565000D01*
X130087124Y-124560525D01*
X130088329Y-124559135D01*
X130090000Y-124551452D01*
X130090000Y-123669622D01*
X130086027Y-123656091D01*
X130078129Y-123654956D01*
X129938210Y-123695607D01*
X129923779Y-123701852D01*
X129794322Y-123778411D01*
X129781896Y-123788051D01*
X129675551Y-123894396D01*
X129665911Y-123906822D01*
X129589352Y-124036279D01*
X129583107Y-124050710D01*
X129540731Y-124196565D01*
X129538430Y-124209167D01*
X129536193Y-124237584D01*
X129536000Y-124242514D01*
X129536000Y-124546885D01*
X125508500Y-124546885D01*
X125508500Y-64761863D01*
X126198983Y-64761863D01*
X126211242Y-64974477D01*
X126212678Y-64984697D01*
X126259498Y-65192446D01*
X126262578Y-65202275D01*
X126342702Y-65399600D01*
X126347346Y-65408794D01*
X126427393Y-65539420D01*
X126437849Y-65548880D01*
X126446627Y-65545096D01*
X127188911Y-64802812D01*
X127195289Y-64791132D01*
X127925341Y-64791132D01*
X127925472Y-64792965D01*
X127929723Y-64799580D01*
X128671407Y-65541264D01*
X128683417Y-65547823D01*
X128695156Y-65538855D01*
X128725937Y-65496019D01*
X128731248Y-65487180D01*
X128825603Y-65296267D01*
X128829402Y-65286672D01*
X128891309Y-65082915D01*
X128893488Y-65072834D01*
X128921523Y-64859887D01*
X128922042Y-64853212D01*
X128923505Y-64793364D01*
X128923311Y-64786646D01*
X128905714Y-64572604D01*
X128904029Y-64562424D01*
X128852147Y-64355875D01*
X128848827Y-64346124D01*
X128763905Y-64150814D01*
X128759038Y-64141739D01*
X128693996Y-64041197D01*
X128683310Y-64031995D01*
X128673745Y-64036398D01*
X127932955Y-64777188D01*
X127925341Y-64791132D01*
X127195289Y-64791132D01*
X127196525Y-64788868D01*
X127196394Y-64787035D01*
X127192143Y-64780420D01*
X126450782Y-64039059D01*
X126439246Y-64032759D01*
X126426964Y-64042382D01*
X126379022Y-64112662D01*
X126373937Y-64121613D01*
X126284271Y-64314783D01*
X126280708Y-64324470D01*
X126223797Y-64529681D01*
X126221866Y-64539800D01*
X126199235Y-64751574D01*
X126198983Y-64761863D01*
X125508500Y-64761863D01*
X125508500Y-63634500D01*
X125528502Y-63566379D01*
X125582158Y-63519886D01*
X125634500Y-63508500D01*
X126677134Y-63508500D01*
X126745255Y-63528502D01*
G37*
%TD.AperFunction*%
%TA.AperFunction,Conductor*%
G36*
X142844736Y-146188522D02*
G01*
X142874995Y-146252747D01*
X142876500Y-146272161D01*
X142876500Y-152847405D01*
X142856498Y-152915526D01*
X142839595Y-152936500D01*
X141760500Y-154015595D01*
X141698188Y-154049621D01*
X141671405Y-154052500D01*
X141599000Y-154052500D01*
X141530879Y-154032498D01*
X141484386Y-153978842D01*
X141473000Y-153926500D01*
X141473000Y-153434115D01*
X141468525Y-153418876D01*
X141467135Y-153417671D01*
X141459452Y-153416000D01*
X138545116Y-153416000D01*
X138529877Y-153420475D01*
X138528672Y-153421865D01*
X138527001Y-153429548D01*
X138527001Y-153926500D01*
X138506999Y-153994621D01*
X138453343Y-154041114D01*
X138401001Y-154052500D01*
X135000595Y-154052500D01*
X134932474Y-154032498D01*
X134911500Y-154015595D01*
X133785790Y-152889885D01*
X138527000Y-152889885D01*
X138531475Y-152905124D01*
X138532865Y-152906329D01*
X138540548Y-152908000D01*
X139727885Y-152908000D01*
X139743124Y-152903525D01*
X139744329Y-152902135D01*
X139746000Y-152894452D01*
X139746000Y-152889885D01*
X140254000Y-152889885D01*
X140258475Y-152905124D01*
X140259865Y-152906329D01*
X140267548Y-152908000D01*
X141454884Y-152908000D01*
X141470123Y-152903525D01*
X141471328Y-152902135D01*
X141472999Y-152894452D01*
X141472999Y-152202331D01*
X141472629Y-152195510D01*
X141467105Y-152144648D01*
X141463479Y-152129396D01*
X141418324Y-152008946D01*
X141409786Y-151993351D01*
X141333285Y-151891276D01*
X141320724Y-151878715D01*
X141218649Y-151802214D01*
X141203054Y-151793676D01*
X141082606Y-151748522D01*
X141067351Y-151744895D01*
X141016486Y-151739369D01*
X141009672Y-151739000D01*
X140272115Y-151739000D01*
X140256876Y-151743475D01*
X140255671Y-151744865D01*
X140254000Y-151752548D01*
X140254000Y-152889885D01*
X139746000Y-152889885D01*
X139746000Y-151757116D01*
X139741525Y-151741877D01*
X139740135Y-151740672D01*
X139732452Y-151739001D01*
X138990331Y-151739001D01*
X138983510Y-151739371D01*
X138932648Y-151744895D01*
X138917396Y-151748521D01*
X138796946Y-151793676D01*
X138781351Y-151802214D01*
X138679276Y-151878715D01*
X138666715Y-151891276D01*
X138590214Y-151993351D01*
X138581676Y-152008946D01*
X138536522Y-152129394D01*
X138532895Y-152144649D01*
X138527369Y-152195514D01*
X138527000Y-152202328D01*
X138527000Y-152889885D01*
X133785790Y-152889885D01*
X132913500Y-152017595D01*
X132879474Y-151955283D01*
X132884539Y-151884468D01*
X132927086Y-151827632D01*
X132993606Y-151802821D01*
X133002595Y-151802500D01*
X133610134Y-151802500D01*
X133672316Y-151795745D01*
X133808705Y-151744615D01*
X133925261Y-151657261D01*
X134011487Y-151542210D01*
X134068347Y-151499696D01*
X134139165Y-151494671D01*
X134201458Y-151528730D01*
X134213139Y-151542211D01*
X134293715Y-151649724D01*
X134306276Y-151662285D01*
X134408351Y-151738786D01*
X134423946Y-151747324D01*
X134544394Y-151792478D01*
X134559649Y-151796105D01*
X134610514Y-151801631D01*
X134617328Y-151802000D01*
X134789885Y-151802000D01*
X134805124Y-151797525D01*
X134806329Y-151796135D01*
X134808000Y-151788452D01*
X134808000Y-151783884D01*
X135316000Y-151783884D01*
X135320475Y-151799123D01*
X135321865Y-151800328D01*
X135329548Y-151801999D01*
X135506669Y-151801999D01*
X135513490Y-151801629D01*
X135564352Y-151796105D01*
X135579604Y-151792479D01*
X135700054Y-151747324D01*
X135715649Y-151738786D01*
X135817724Y-151662285D01*
X135830285Y-151649724D01*
X135906786Y-151547649D01*
X135915324Y-151532054D01*
X135960478Y-151411606D01*
X135964105Y-151396351D01*
X135969631Y-151345486D01*
X135970000Y-151338672D01*
X135970000Y-151174448D01*
X135990002Y-151106327D01*
X136043658Y-151059834D01*
X136113932Y-151049730D01*
X136178512Y-151079224D01*
X136185017Y-151085275D01*
X136198124Y-151098359D01*
X136209540Y-151107375D01*
X136345063Y-151190912D01*
X136358241Y-151197056D01*
X136509766Y-151247315D01*
X136523132Y-151250181D01*
X136615770Y-151259672D01*
X136622185Y-151260000D01*
X136633885Y-151260000D01*
X136649124Y-151255525D01*
X136650329Y-151254135D01*
X136652000Y-151246452D01*
X136652000Y-151241885D01*
X137160000Y-151241885D01*
X137164475Y-151257124D01*
X137165865Y-151258329D01*
X137173548Y-151260000D01*
X137189766Y-151260000D01*
X137196282Y-151259663D01*
X137290132Y-151249925D01*
X137303528Y-151247032D01*
X137454953Y-151196512D01*
X137468115Y-151190347D01*
X137603492Y-151106574D01*
X137614890Y-151097540D01*
X137727363Y-150984871D01*
X137736375Y-150973460D01*
X137819912Y-150837937D01*
X137826056Y-150824759D01*
X137876315Y-150673234D01*
X137879181Y-150659868D01*
X137888672Y-150567230D01*
X137889000Y-150560815D01*
X137889000Y-150486615D01*
X137884525Y-150471376D01*
X137883135Y-150470171D01*
X137875452Y-150468500D01*
X137178115Y-150468500D01*
X137162876Y-150472975D01*
X137161671Y-150474365D01*
X137160000Y-150482048D01*
X137160000Y-151241885D01*
X136652000Y-151241885D01*
X136652000Y-150486615D01*
X136647525Y-150471376D01*
X136646135Y-150470171D01*
X136638452Y-150468500D01*
X136028115Y-150468500D01*
X136012876Y-150472975D01*
X136011671Y-150474365D01*
X136007121Y-150495283D01*
X136003401Y-150494474D01*
X135989998Y-150540121D01*
X135936342Y-150586614D01*
X135884000Y-150598000D01*
X135334115Y-150598000D01*
X135318876Y-150602475D01*
X135317671Y-150603865D01*
X135316000Y-150611548D01*
X135316000Y-151783884D01*
X134808000Y-151783884D01*
X134808000Y-148904116D01*
X134800528Y-148878669D01*
X134773181Y-148836115D01*
X134773181Y-148765118D01*
X134811566Y-148705393D01*
X134818512Y-148699792D01*
X134868081Y-148662642D01*
X134875261Y-148657261D01*
X134962615Y-148540705D01*
X135013745Y-148404316D01*
X135020500Y-148342134D01*
X135020500Y-148228500D01*
X135040502Y-148160379D01*
X135094158Y-148113886D01*
X135146500Y-148102500D01*
X135394129Y-148102500D01*
X135462250Y-148122502D01*
X135483224Y-148139405D01*
X135885595Y-148541776D01*
X135919621Y-148604088D01*
X135922500Y-148630871D01*
X135922500Y-148839072D01*
X135922837Y-148842322D01*
X135923005Y-148845564D01*
X135921519Y-148845641D01*
X135909752Y-148909681D01*
X135861207Y-148961488D01*
X135792360Y-148978825D01*
X135721698Y-148953747D01*
X135715652Y-148949216D01*
X135700054Y-148940676D01*
X135579606Y-148895522D01*
X135564351Y-148891895D01*
X135513486Y-148886369D01*
X135506672Y-148886000D01*
X135334115Y-148886000D01*
X135318876Y-148890475D01*
X135317671Y-148891865D01*
X135316000Y-148899548D01*
X135316000Y-150071885D01*
X135320475Y-150087124D01*
X135321865Y-150088329D01*
X135329548Y-150090000D01*
X135864885Y-150090000D01*
X135880124Y-150085525D01*
X135881329Y-150084135D01*
X135885879Y-150063217D01*
X135889599Y-150064026D01*
X135903002Y-150018379D01*
X135956658Y-149971886D01*
X136009000Y-149960500D01*
X137870885Y-149960500D01*
X137886124Y-149956025D01*
X137887329Y-149954635D01*
X137889000Y-149946952D01*
X137889000Y-149868234D01*
X137888663Y-149861718D01*
X137878925Y-149767868D01*
X137876032Y-149754472D01*
X137825512Y-149603047D01*
X137819347Y-149589885D01*
X137735574Y-149454508D01*
X137726536Y-149443106D01*
X137724861Y-149441433D01*
X137724081Y-149440007D01*
X137721993Y-149437373D01*
X137722444Y-149437016D01*
X137690781Y-149379151D01*
X137695784Y-149308331D01*
X137724701Y-149263246D01*
X137727756Y-149260185D01*
X137732929Y-149255003D01*
X137736772Y-149248769D01*
X137766792Y-149200069D01*
X137819564Y-149152576D01*
X137889636Y-149141154D01*
X137954760Y-149169428D01*
X137993575Y-149226311D01*
X138019087Y-149302782D01*
X138025261Y-149315962D01*
X138110563Y-149453807D01*
X138119599Y-149465208D01*
X138234329Y-149579739D01*
X138245740Y-149588751D01*
X138383743Y-149673816D01*
X138396924Y-149679963D01*
X138551210Y-149731138D01*
X138564586Y-149734005D01*
X138658938Y-149743672D01*
X138665354Y-149744000D01*
X138777885Y-149744000D01*
X138793124Y-149739525D01*
X138794329Y-149738135D01*
X138796000Y-149730452D01*
X138796000Y-148383000D01*
X138816002Y-148314879D01*
X138869658Y-148268386D01*
X138922000Y-148257000D01*
X139178000Y-148257000D01*
X139246121Y-148277002D01*
X139292614Y-148330658D01*
X139304000Y-148383000D01*
X139304000Y-149725884D01*
X139308475Y-149741123D01*
X139309865Y-149742328D01*
X139317548Y-149743999D01*
X139434595Y-149743999D01*
X139441114Y-149743662D01*
X139536706Y-149733743D01*
X139550100Y-149730851D01*
X139704284Y-149679412D01*
X139717462Y-149673239D01*
X139855307Y-149587937D01*
X139866708Y-149578901D01*
X139981238Y-149464172D01*
X139988294Y-149455238D01*
X140046212Y-149414177D01*
X140117135Y-149410947D01*
X140178546Y-149446574D01*
X140185346Y-149454407D01*
X140189022Y-149460348D01*
X140314197Y-149585305D01*
X140320427Y-149589145D01*
X140320428Y-149589146D01*
X140457788Y-149673816D01*
X140464762Y-149678115D01*
X140544505Y-149704564D01*
X140626111Y-149731632D01*
X140626113Y-149731632D01*
X140632639Y-149733797D01*
X140639475Y-149734497D01*
X140639478Y-149734498D01*
X140682531Y-149738909D01*
X140737100Y-149744500D01*
X141512900Y-149744500D01*
X141516146Y-149744163D01*
X141516150Y-149744163D01*
X141611808Y-149734238D01*
X141611812Y-149734237D01*
X141618666Y-149733526D01*
X141625202Y-149731345D01*
X141625204Y-149731345D01*
X141757306Y-149687272D01*
X141786446Y-149677550D01*
X141936848Y-149584478D01*
X142061805Y-149459303D01*
X142111212Y-149379151D01*
X142150775Y-149314968D01*
X142150776Y-149314966D01*
X142154615Y-149308738D01*
X142205374Y-149155703D01*
X142208132Y-149147389D01*
X142208132Y-149147387D01*
X142210297Y-149140861D01*
X142221000Y-149036400D01*
X142221000Y-147985600D01*
X142210026Y-147879834D01*
X142196935Y-147840594D01*
X142156368Y-147719002D01*
X142154050Y-147712054D01*
X142064856Y-147567919D01*
X142046000Y-147501616D01*
X142046000Y-147203632D01*
X142066002Y-147135511D01*
X142098831Y-147101054D01*
X142167360Y-147052173D01*
X142325596Y-146894489D01*
X142455953Y-146713077D01*
X142554930Y-146512811D01*
X142619870Y-146299069D01*
X142625578Y-146255714D01*
X142654301Y-146190787D01*
X142713566Y-146151696D01*
X142784558Y-146150851D01*
X142844736Y-146188522D01*
G37*
%TD.AperFunction*%
%TA.AperFunction,Conductor*%
G36*
X144433621Y-63528502D02*
G01*
X144480114Y-63582158D01*
X144491500Y-63634500D01*
X144491500Y-137837964D01*
X144471498Y-137906085D01*
X144417842Y-137952578D01*
X144347568Y-137962682D01*
X144282988Y-137933188D01*
X144247062Y-137880957D01*
X144228275Y-137829202D01*
X144226865Y-137825098D01*
X144204352Y-137755601D01*
X144200556Y-137749346D01*
X144198057Y-137743887D01*
X144195329Y-137738439D01*
X144192833Y-137731563D01*
X144152805Y-137670510D01*
X144150481Y-137666827D01*
X144115504Y-137609186D01*
X144115501Y-137609182D01*
X144112595Y-137604393D01*
X144108886Y-137600194D01*
X144108883Y-137600189D01*
X144105197Y-137596016D01*
X144105224Y-137595992D01*
X144102571Y-137593000D01*
X144099868Y-137589767D01*
X144095856Y-137583648D01*
X144039617Y-137530372D01*
X144037175Y-137527994D01*
X142667109Y-136157928D01*
X142633083Y-136095616D01*
X142631282Y-136052389D01*
X142649029Y-135917590D01*
X142650656Y-135851000D01*
X142632352Y-135628361D01*
X142577931Y-135411702D01*
X142488854Y-135206840D01*
X142372952Y-135027683D01*
X142370322Y-135023617D01*
X142370320Y-135023614D01*
X142367514Y-135019277D01*
X142217170Y-134854051D01*
X142213119Y-134850852D01*
X142213115Y-134850848D01*
X142045914Y-134718800D01*
X142045910Y-134718798D01*
X142041859Y-134715598D01*
X141846289Y-134607638D01*
X141841420Y-134605914D01*
X141841416Y-134605912D01*
X141640587Y-134534795D01*
X141640583Y-134534794D01*
X141635712Y-134533069D01*
X141630619Y-134532162D01*
X141630616Y-134532161D01*
X141415784Y-134493894D01*
X141416061Y-134492341D01*
X141356708Y-134468652D01*
X141352502Y-134462758D01*
X141349312Y-134467019D01*
X141282792Y-134491829D01*
X141272274Y-134492141D01*
X141217412Y-134491470D01*
X141197580Y-134491228D01*
X141197578Y-134491228D01*
X141192411Y-134491165D01*
X140971591Y-134524955D01*
X140759256Y-134594357D01*
X140561107Y-134697507D01*
X140556974Y-134700610D01*
X140556971Y-134700612D01*
X140509503Y-134736252D01*
X140382465Y-134831635D01*
X140228129Y-134993138D01*
X140120701Y-135150621D01*
X140065793Y-135195621D01*
X139995268Y-135203792D01*
X139931521Y-135172538D01*
X139910824Y-135148054D01*
X139830324Y-135023620D01*
X139830322Y-135023617D01*
X139827514Y-135019277D01*
X139753805Y-134938272D01*
X139722755Y-134874428D01*
X139721000Y-134853474D01*
X139721000Y-134186590D01*
X139741002Y-134118469D01*
X139768518Y-134088086D01*
X139774348Y-134084478D01*
X139899305Y-133959303D01*
X139902102Y-133954765D01*
X139959353Y-133914176D01*
X140030276Y-133910946D01*
X140091687Y-133946572D01*
X140099062Y-133955068D01*
X140107098Y-133965207D01*
X140221829Y-134079739D01*
X140233240Y-134088751D01*
X140371243Y-134173816D01*
X140384424Y-134179963D01*
X140538710Y-134231138D01*
X140552086Y-134234005D01*
X140646438Y-134243672D01*
X140652854Y-134244000D01*
X140765385Y-134244000D01*
X140780624Y-134239525D01*
X140781829Y-134238135D01*
X140783500Y-134230452D01*
X140783500Y-134225884D01*
X141291500Y-134225884D01*
X141295975Y-134241123D01*
X141297367Y-134242329D01*
X141300588Y-134243030D01*
X141356676Y-134273657D01*
X141410515Y-134245829D01*
X141425364Y-134244014D01*
X141425362Y-134243999D01*
X141426165Y-134243916D01*
X141427962Y-134243696D01*
X141428603Y-134243663D01*
X141524206Y-134233743D01*
X141537600Y-134230851D01*
X141691784Y-134179412D01*
X141704962Y-134173239D01*
X141842807Y-134087937D01*
X141854208Y-134078901D01*
X141968739Y-133964171D01*
X141977751Y-133952760D01*
X142062816Y-133814757D01*
X142068963Y-133801576D01*
X142120138Y-133647290D01*
X142123005Y-133633914D01*
X142132672Y-133539562D01*
X142133000Y-133533146D01*
X142133000Y-133283115D01*
X142128525Y-133267876D01*
X142127135Y-133266671D01*
X142119452Y-133265000D01*
X141309615Y-133265000D01*
X141294376Y-133269475D01*
X141293171Y-133270865D01*
X141291500Y-133278548D01*
X141291500Y-134225884D01*
X140783500Y-134225884D01*
X140783500Y-132738885D01*
X141291500Y-132738885D01*
X141295975Y-132754124D01*
X141297365Y-132755329D01*
X141305048Y-132757000D01*
X142114884Y-132757000D01*
X142130123Y-132752525D01*
X142131328Y-132751135D01*
X142132999Y-132743452D01*
X142132999Y-132488905D01*
X142132662Y-132482386D01*
X142122743Y-132386794D01*
X142119851Y-132373400D01*
X142068412Y-132219216D01*
X142062239Y-132206038D01*
X141976937Y-132068193D01*
X141967901Y-132056792D01*
X141853171Y-131942261D01*
X141841760Y-131933249D01*
X141703757Y-131848184D01*
X141690576Y-131842037D01*
X141536290Y-131790862D01*
X141522914Y-131787995D01*
X141428562Y-131778328D01*
X141422145Y-131778000D01*
X141309615Y-131778000D01*
X141294376Y-131782475D01*
X141293171Y-131783865D01*
X141291500Y-131791548D01*
X141291500Y-132738885D01*
X140783500Y-132738885D01*
X140783500Y-131796116D01*
X140779025Y-131780877D01*
X140777635Y-131779672D01*
X140769952Y-131778001D01*
X140652905Y-131778001D01*
X140646386Y-131778338D01*
X140550794Y-131788257D01*
X140537400Y-131791149D01*
X140383216Y-131842588D01*
X140370038Y-131848761D01*
X140232193Y-131934063D01*
X140220792Y-131943099D01*
X140106262Y-132057828D01*
X140099206Y-132066762D01*
X140041288Y-132107823D01*
X139970365Y-132111053D01*
X139908954Y-132075426D01*
X139902154Y-132067593D01*
X139898478Y-132061652D01*
X139773303Y-131936695D01*
X139715733Y-131901208D01*
X139628968Y-131847725D01*
X139628966Y-131847724D01*
X139622738Y-131843885D01*
X139505171Y-131804890D01*
X139461389Y-131790368D01*
X139461387Y-131790368D01*
X139454861Y-131788203D01*
X139448025Y-131787503D01*
X139448022Y-131787502D01*
X139404969Y-131783091D01*
X139350400Y-131777500D01*
X138574600Y-131777500D01*
X138571354Y-131777837D01*
X138571350Y-131777837D01*
X138475692Y-131787762D01*
X138475688Y-131787763D01*
X138468834Y-131788474D01*
X138462298Y-131790655D01*
X138462296Y-131790655D01*
X138396912Y-131812469D01*
X138301054Y-131844450D01*
X138150652Y-131937522D01*
X138025695Y-132062697D01*
X137932885Y-132213262D01*
X137877203Y-132381139D01*
X137866500Y-132485600D01*
X137866500Y-133536400D01*
X137866837Y-133539646D01*
X137866837Y-133539650D01*
X137876618Y-133633914D01*
X137877474Y-133642166D01*
X137933450Y-133809946D01*
X138026522Y-133960348D01*
X138151697Y-134085305D01*
X138156493Y-134088261D01*
X138197155Y-134145614D01*
X138204000Y-134186578D01*
X138204000Y-134525841D01*
X138183998Y-134593962D01*
X138136180Y-134637604D01*
X138021107Y-134697507D01*
X138016974Y-134700610D01*
X138016971Y-134700612D01*
X137969503Y-134736252D01*
X137842465Y-134831635D01*
X137688129Y-134993138D01*
X137685220Y-134997403D01*
X137685214Y-134997411D01*
X137667126Y-135023927D01*
X137562243Y-135177680D01*
X137468188Y-135380305D01*
X137408489Y-135595570D01*
X137384751Y-135817695D01*
X137385048Y-135822848D01*
X137385048Y-135822851D01*
X137390511Y-135917590D01*
X137397610Y-136040715D01*
X137398747Y-136045761D01*
X137398748Y-136045767D01*
X137414124Y-136113991D01*
X137446722Y-136258639D01*
X137530766Y-136465616D01*
X137582442Y-136549944D01*
X137644791Y-136651688D01*
X137647487Y-136656088D01*
X137793750Y-136824938D01*
X137965626Y-136967632D01*
X138039455Y-137010774D01*
X138088179Y-137062412D01*
X138101250Y-137132195D01*
X138074519Y-137197967D01*
X138034062Y-137231327D01*
X138025960Y-137235544D01*
X138017234Y-137241039D01*
X137997177Y-137256099D01*
X137988723Y-137267427D01*
X137995468Y-137279758D01*
X138734688Y-138018978D01*
X138748632Y-138026592D01*
X138750465Y-138026461D01*
X138757080Y-138022210D01*
X139500889Y-137278401D01*
X139507910Y-137265544D01*
X139501111Y-137256213D01*
X139497059Y-137253521D01*
X139460102Y-137233120D01*
X139410131Y-137182687D01*
X139395359Y-137113245D01*
X139420475Y-137046839D01*
X139447827Y-137020232D01*
X139509416Y-136976301D01*
X139627360Y-136892173D01*
X139785596Y-136734489D01*
X139845094Y-136651689D01*
X139915953Y-136553077D01*
X139917276Y-136554028D01*
X139964145Y-136510857D01*
X140034080Y-136498625D01*
X140099526Y-136526144D01*
X140127375Y-136557994D01*
X140187487Y-136656088D01*
X140333750Y-136824938D01*
X140505626Y-136967632D01*
X140579455Y-137010774D01*
X140628179Y-137062412D01*
X140641250Y-137132195D01*
X140614519Y-137197967D01*
X140574062Y-137231327D01*
X140565960Y-137235544D01*
X140557234Y-137241039D01*
X140537177Y-137256099D01*
X140528723Y-137267427D01*
X140535468Y-137279758D01*
X142397974Y-139142264D01*
X142409984Y-139148823D01*
X142421723Y-139139855D01*
X142452504Y-139097019D01*
X142457815Y-139088180D01*
X142512543Y-138977446D01*
X142560657Y-138925239D01*
X142629358Y-138907332D01*
X142696834Y-138929411D01*
X142741663Y-138984465D01*
X142751500Y-139033273D01*
X142751500Y-140286369D01*
X142731498Y-140354490D01*
X142677842Y-140400983D01*
X142607568Y-140411087D01*
X142542988Y-140381593D01*
X142509950Y-140336611D01*
X142490472Y-140291814D01*
X142485605Y-140282739D01*
X142420563Y-140182197D01*
X142409877Y-140172995D01*
X142400312Y-140177398D01*
X141659522Y-140918188D01*
X141651908Y-140932132D01*
X141652039Y-140933965D01*
X141656290Y-140940580D01*
X142397974Y-141682264D01*
X142409984Y-141688823D01*
X142421723Y-141679855D01*
X142452504Y-141637019D01*
X142457815Y-141628180D01*
X142512543Y-141517446D01*
X142560657Y-141465239D01*
X142629358Y-141447332D01*
X142696834Y-141469411D01*
X142741663Y-141524465D01*
X142751500Y-141573273D01*
X142751500Y-142523323D01*
X142731498Y-142591444D01*
X142714679Y-142612334D01*
X142683071Y-142643997D01*
X142674556Y-142657812D01*
X142634990Y-142721999D01*
X142582218Y-142769492D01*
X142512146Y-142780916D01*
X142447022Y-142752642D01*
X142421937Y-142724322D01*
X142420562Y-142722197D01*
X142409877Y-142712995D01*
X142400312Y-142717398D01*
X141659522Y-143458188D01*
X141651908Y-143472132D01*
X141652039Y-143473965D01*
X141656290Y-143480580D01*
X142397974Y-144222264D01*
X142409984Y-144228823D01*
X142421723Y-144219855D01*
X142452504Y-144177019D01*
X142457812Y-144168184D01*
X142485236Y-144112697D01*
X142533350Y-144060491D01*
X142602051Y-144042584D01*
X142669528Y-144064663D01*
X142687211Y-144079352D01*
X142790786Y-144182747D01*
X142824865Y-144245030D01*
X142819862Y-144315850D01*
X142790941Y-144360937D01*
X142688246Y-144463812D01*
X142688242Y-144463817D01*
X142683071Y-144468997D01*
X142679231Y-144475227D01*
X142679230Y-144475228D01*
X142604876Y-144595853D01*
X142591791Y-144617080D01*
X142537026Y-144782191D01*
X142536326Y-144789027D01*
X142536325Y-144789030D01*
X142534003Y-144811695D01*
X142526500Y-144884928D01*
X142526500Y-145028309D01*
X142506498Y-145096430D01*
X142452842Y-145142923D01*
X142382568Y-145153027D01*
X142317988Y-145123533D01*
X142307307Y-145113109D01*
X142220652Y-145017876D01*
X142220642Y-145017867D01*
X142217170Y-145014051D01*
X142213119Y-145010852D01*
X142213115Y-145010848D01*
X142045914Y-144878800D01*
X142045910Y-144878798D01*
X142041859Y-144875598D01*
X142000069Y-144852529D01*
X141950098Y-144802097D01*
X141935326Y-144732654D01*
X141960442Y-144666248D01*
X141987793Y-144639642D01*
X142036747Y-144604723D01*
X142045148Y-144594023D01*
X142038160Y-144580870D01*
X141300312Y-143843022D01*
X141286368Y-143835408D01*
X141284535Y-143835539D01*
X141277920Y-143839790D01*
X140534237Y-144583473D01*
X140527477Y-144595853D01*
X140532758Y-144602907D01*
X140579469Y-144630203D01*
X140628193Y-144681841D01*
X140641264Y-144751624D01*
X140614533Y-144817396D01*
X140574084Y-144850752D01*
X140561107Y-144857507D01*
X140556974Y-144860610D01*
X140556971Y-144860612D01*
X140386600Y-144988530D01*
X140382465Y-144991635D01*
X140282321Y-145096430D01*
X140248527Y-145131793D01*
X140187003Y-145167223D01*
X140116090Y-145163766D01*
X140058304Y-145122520D01*
X140043333Y-145098194D01*
X140041365Y-145093993D01*
X140039050Y-145087054D01*
X139945978Y-144936652D01*
X139820803Y-144811695D01*
X139727784Y-144754357D01*
X139676468Y-144722725D01*
X139676466Y-144722724D01*
X139670238Y-144718885D01*
X139609340Y-144698686D01*
X139595140Y-144693976D01*
X139536780Y-144653545D01*
X139526229Y-144628146D01*
X139523924Y-144629370D01*
X139498160Y-144580870D01*
X138389422Y-143472132D01*
X139111908Y-143472132D01*
X139112039Y-143473965D01*
X139116290Y-143480580D01*
X139857974Y-144222264D01*
X139869984Y-144228823D01*
X139881723Y-144219855D01*
X139915522Y-144172819D01*
X139916649Y-144173629D01*
X139964159Y-144129881D01*
X140034096Y-144117661D01*
X140099538Y-144145191D01*
X140127370Y-144177029D01*
X140153959Y-144220419D01*
X140164416Y-144229880D01*
X140173194Y-144226096D01*
X140915478Y-143483812D01*
X140923092Y-143469868D01*
X140922961Y-143468035D01*
X140918710Y-143461420D01*
X140177349Y-142720059D01*
X140165813Y-142713759D01*
X140153528Y-142723384D01*
X140120692Y-142771520D01*
X140065781Y-142816523D01*
X139995256Y-142824694D01*
X139931509Y-142793440D01*
X139910811Y-142768955D01*
X139880562Y-142722197D01*
X139869877Y-142712995D01*
X139860312Y-142717398D01*
X139119522Y-143458188D01*
X139111908Y-143472132D01*
X138389422Y-143472132D01*
X137637349Y-142720059D01*
X137625813Y-142713759D01*
X137613531Y-142723382D01*
X137565589Y-142793662D01*
X137560504Y-142802613D01*
X137470838Y-142995783D01*
X137467275Y-143005470D01*
X137410364Y-143210681D01*
X137408433Y-143220800D01*
X137385802Y-143432574D01*
X137385550Y-143442863D01*
X137397809Y-143655477D01*
X137399245Y-143665697D01*
X137446065Y-143873446D01*
X137450693Y-143888217D01*
X137448887Y-143888783D01*
X137455176Y-143951253D01*
X137422969Y-144014524D01*
X137361667Y-144050338D01*
X137304922Y-144051245D01*
X137302333Y-144050690D01*
X137295809Y-144048526D01*
X137288971Y-144047825D01*
X137288969Y-144047825D01*
X137237813Y-144042584D01*
X137193072Y-144038000D01*
X136618928Y-144038000D01*
X136615682Y-144038337D01*
X136615678Y-144038337D01*
X136521765Y-144048081D01*
X136521761Y-144048082D01*
X136514907Y-144048793D01*
X136508371Y-144050974D01*
X136508369Y-144050974D01*
X136423310Y-144079352D01*
X136349893Y-144103846D01*
X136201969Y-144195384D01*
X136196796Y-144200566D01*
X136084242Y-144313316D01*
X136084238Y-144313321D01*
X136079071Y-144318497D01*
X136075231Y-144324727D01*
X136075230Y-144324728D01*
X136004082Y-144440152D01*
X135987791Y-144466580D01*
X135933026Y-144631691D01*
X135932326Y-144638527D01*
X135932325Y-144638530D01*
X135929485Y-144666248D01*
X135922500Y-144734428D01*
X135922500Y-145333572D01*
X135922837Y-145336818D01*
X135922837Y-145336822D01*
X135931534Y-145420638D01*
X135933293Y-145437593D01*
X135935474Y-145444129D01*
X135935474Y-145444131D01*
X135942039Y-145463808D01*
X135988346Y-145602607D01*
X136079884Y-145750531D01*
X136085066Y-145755704D01*
X136186786Y-145857247D01*
X136220865Y-145919530D01*
X136215862Y-145990350D01*
X136186941Y-146035437D01*
X136084246Y-146138312D01*
X136084242Y-146138317D01*
X136079071Y-146143497D01*
X135987791Y-146291580D01*
X135933026Y-146456691D01*
X135932326Y-146463525D01*
X135932325Y-146463529D01*
X135931585Y-146470756D01*
X135904744Y-146536483D01*
X135846629Y-146577265D01*
X135809649Y-146583867D01*
X135755903Y-146585321D01*
X135750979Y-146585454D01*
X135747572Y-146585500D01*
X135146500Y-146585500D01*
X135078379Y-146565498D01*
X135031886Y-146511842D01*
X135020500Y-146459500D01*
X135020500Y-146345866D01*
X135013745Y-146283684D01*
X134962615Y-146147295D01*
X134875261Y-146030739D01*
X134868080Y-146025357D01*
X134797728Y-145972631D01*
X134755213Y-145915772D01*
X134749445Y-145872036D01*
X134747702Y-145872091D01*
X134745562Y-145804014D01*
X134745500Y-145800055D01*
X134745500Y-145772144D01*
X134744995Y-145768144D01*
X134744062Y-145756301D01*
X134744044Y-145755704D01*
X134742673Y-145712111D01*
X134737021Y-145692657D01*
X134733013Y-145673300D01*
X134731468Y-145661070D01*
X134731468Y-145661069D01*
X134730474Y-145653203D01*
X134727555Y-145645830D01*
X134714196Y-145612088D01*
X134710351Y-145600858D01*
X134700229Y-145566017D01*
X134700229Y-145566016D01*
X134698018Y-145558407D01*
X134693985Y-145551588D01*
X134693983Y-145551583D01*
X134687707Y-145540972D01*
X134679012Y-145523224D01*
X134671552Y-145504383D01*
X134645564Y-145468613D01*
X134639048Y-145458693D01*
X134620580Y-145427465D01*
X134620578Y-145427462D01*
X134616542Y-145420638D01*
X134602221Y-145406317D01*
X134589380Y-145391283D01*
X134582131Y-145381306D01*
X134577472Y-145374893D01*
X134543395Y-145346702D01*
X134534616Y-145338712D01*
X131251758Y-142055853D01*
X137987477Y-142055853D01*
X137992758Y-142062907D01*
X138039979Y-142090501D01*
X138088703Y-142142139D01*
X138101774Y-142211922D01*
X138075043Y-142277694D01*
X138034587Y-142311053D01*
X138025966Y-142315541D01*
X138017234Y-142321039D01*
X137997177Y-142336099D01*
X137988723Y-142347427D01*
X137995468Y-142359758D01*
X138734688Y-143098978D01*
X138748632Y-143106592D01*
X138750465Y-143106461D01*
X138757080Y-143102210D01*
X139500889Y-142358401D01*
X139507910Y-142345544D01*
X139501111Y-142336213D01*
X139497059Y-142333521D01*
X139459616Y-142312852D01*
X139409645Y-142262420D01*
X139394873Y-142192977D01*
X139419989Y-142126572D01*
X139447340Y-142099965D01*
X139496747Y-142064723D01*
X139503711Y-142055853D01*
X140527477Y-142055853D01*
X140532758Y-142062907D01*
X140579979Y-142090501D01*
X140628703Y-142142139D01*
X140641774Y-142211922D01*
X140615043Y-142277694D01*
X140574587Y-142311053D01*
X140565966Y-142315541D01*
X140557234Y-142321039D01*
X140537177Y-142336099D01*
X140528723Y-142347427D01*
X140535468Y-142359758D01*
X141274688Y-143098978D01*
X141288632Y-143106592D01*
X141290465Y-143106461D01*
X141297080Y-143102210D01*
X142040889Y-142358401D01*
X142047910Y-142345544D01*
X142041111Y-142336213D01*
X142037059Y-142333521D01*
X141999616Y-142312852D01*
X141949645Y-142262420D01*
X141934873Y-142192977D01*
X141959989Y-142126572D01*
X141987340Y-142099965D01*
X142036747Y-142064723D01*
X142045148Y-142054023D01*
X142038160Y-142040870D01*
X141300312Y-141303022D01*
X141286368Y-141295408D01*
X141284535Y-141295539D01*
X141277920Y-141299790D01*
X140534237Y-142043473D01*
X140527477Y-142055853D01*
X139503711Y-142055853D01*
X139505148Y-142054023D01*
X139498160Y-142040870D01*
X138760312Y-141303022D01*
X138746368Y-141295408D01*
X138744535Y-141295539D01*
X138737920Y-141299790D01*
X137994237Y-142043473D01*
X137987477Y-142055853D01*
X131251758Y-142055853D01*
X130098768Y-140902863D01*
X137385550Y-140902863D01*
X137397809Y-141115477D01*
X137399245Y-141125697D01*
X137446065Y-141333446D01*
X137449145Y-141343275D01*
X137529270Y-141540603D01*
X137533913Y-141549794D01*
X137613960Y-141680420D01*
X137624416Y-141689880D01*
X137633194Y-141686096D01*
X138375478Y-140943812D01*
X138381856Y-140932132D01*
X139111908Y-140932132D01*
X139112039Y-140933965D01*
X139116290Y-140940580D01*
X139857974Y-141682264D01*
X139869984Y-141688823D01*
X139881723Y-141679855D01*
X139915522Y-141632819D01*
X139916649Y-141633629D01*
X139964159Y-141589881D01*
X140034096Y-141577661D01*
X140099538Y-141605191D01*
X140127370Y-141637029D01*
X140153959Y-141680419D01*
X140164416Y-141689880D01*
X140173194Y-141686096D01*
X140915478Y-140943812D01*
X140923092Y-140929868D01*
X140922961Y-140928035D01*
X140918710Y-140921420D01*
X140177349Y-140180059D01*
X140165813Y-140173759D01*
X140153528Y-140183384D01*
X140120692Y-140231520D01*
X140065781Y-140276523D01*
X139995256Y-140284694D01*
X139931509Y-140253440D01*
X139910811Y-140228955D01*
X139880562Y-140182197D01*
X139869877Y-140172995D01*
X139860312Y-140177398D01*
X139119522Y-140918188D01*
X139111908Y-140932132D01*
X138381856Y-140932132D01*
X138383092Y-140929868D01*
X138382961Y-140928035D01*
X138378710Y-140921420D01*
X137637349Y-140180059D01*
X137625813Y-140173759D01*
X137613531Y-140183382D01*
X137565589Y-140253662D01*
X137560504Y-140262613D01*
X137470838Y-140455783D01*
X137467275Y-140465470D01*
X137410364Y-140670681D01*
X137408433Y-140680800D01*
X137385802Y-140892574D01*
X137385550Y-140902863D01*
X130098768Y-140902863D01*
X128711758Y-139515853D01*
X137987477Y-139515853D01*
X137992758Y-139522907D01*
X138039979Y-139550501D01*
X138088703Y-139602139D01*
X138101774Y-139671922D01*
X138075043Y-139737694D01*
X138034587Y-139771053D01*
X138025966Y-139775541D01*
X138017234Y-139781039D01*
X137997177Y-139796099D01*
X137988723Y-139807427D01*
X137995468Y-139819758D01*
X138734688Y-140558978D01*
X138748632Y-140566592D01*
X138750465Y-140566461D01*
X138757080Y-140562210D01*
X139500889Y-139818401D01*
X139507910Y-139805544D01*
X139501111Y-139796213D01*
X139497059Y-139793521D01*
X139459616Y-139772852D01*
X139409645Y-139722420D01*
X139394873Y-139652977D01*
X139419989Y-139586572D01*
X139447340Y-139559965D01*
X139496747Y-139524723D01*
X139503711Y-139515853D01*
X140527477Y-139515853D01*
X140532758Y-139522907D01*
X140579979Y-139550501D01*
X140628703Y-139602139D01*
X140641774Y-139671922D01*
X140615043Y-139737694D01*
X140574587Y-139771053D01*
X140565966Y-139775541D01*
X140557234Y-139781039D01*
X140537177Y-139796099D01*
X140528723Y-139807427D01*
X140535468Y-139819758D01*
X141274688Y-140558978D01*
X141288632Y-140566592D01*
X141290465Y-140566461D01*
X141297080Y-140562210D01*
X142040889Y-139818401D01*
X142047910Y-139805544D01*
X142041111Y-139796213D01*
X142037059Y-139793521D01*
X141999616Y-139772852D01*
X141949645Y-139722420D01*
X141934873Y-139652977D01*
X141959989Y-139586572D01*
X141987340Y-139559965D01*
X142036747Y-139524723D01*
X142045148Y-139514023D01*
X142038160Y-139500870D01*
X141300312Y-138763022D01*
X141286368Y-138755408D01*
X141284535Y-138755539D01*
X141277920Y-138759790D01*
X140534237Y-139503473D01*
X140527477Y-139515853D01*
X139503711Y-139515853D01*
X139505148Y-139514023D01*
X139498160Y-139500870D01*
X138760312Y-138763022D01*
X138746368Y-138755408D01*
X138744535Y-138755539D01*
X138737920Y-138759790D01*
X137994237Y-139503473D01*
X137987477Y-139515853D01*
X128711758Y-139515853D01*
X128470405Y-139274500D01*
X128436379Y-139212188D01*
X128433500Y-139185405D01*
X128433500Y-138362863D01*
X137385550Y-138362863D01*
X137397809Y-138575477D01*
X137399245Y-138585697D01*
X137446065Y-138793446D01*
X137449145Y-138803275D01*
X137529270Y-139000603D01*
X137533913Y-139009794D01*
X137613960Y-139140420D01*
X137624416Y-139149880D01*
X137633194Y-139146096D01*
X138375478Y-138403812D01*
X138381856Y-138392132D01*
X139111908Y-138392132D01*
X139112039Y-138393965D01*
X139116290Y-138400580D01*
X139857974Y-139142264D01*
X139869984Y-139148823D01*
X139881723Y-139139855D01*
X139915522Y-139092819D01*
X139916649Y-139093629D01*
X139964159Y-139049881D01*
X140034096Y-139037661D01*
X140099538Y-139065191D01*
X140127370Y-139097029D01*
X140153959Y-139140419D01*
X140164416Y-139149880D01*
X140173194Y-139146096D01*
X140915478Y-138403812D01*
X140923092Y-138389868D01*
X140922961Y-138388035D01*
X140918710Y-138381420D01*
X140177349Y-137640059D01*
X140165813Y-137633759D01*
X140153528Y-137643384D01*
X140120692Y-137691520D01*
X140065781Y-137736523D01*
X139995256Y-137744694D01*
X139931509Y-137713440D01*
X139910811Y-137688955D01*
X139880562Y-137642197D01*
X139869877Y-137632995D01*
X139860312Y-137637398D01*
X139119522Y-138378188D01*
X139111908Y-138392132D01*
X138381856Y-138392132D01*
X138383092Y-138389868D01*
X138382961Y-138388035D01*
X138378710Y-138381420D01*
X137637349Y-137640059D01*
X137625813Y-137633759D01*
X137613531Y-137643382D01*
X137565589Y-137713662D01*
X137560504Y-137722613D01*
X137470838Y-137915783D01*
X137467275Y-137925470D01*
X137410364Y-138130681D01*
X137408433Y-138140800D01*
X137385802Y-138352574D01*
X137385550Y-138362863D01*
X128433500Y-138362863D01*
X128433500Y-137090915D01*
X128453502Y-137022794D01*
X128507158Y-136976301D01*
X128577432Y-136966197D01*
X128642012Y-136995691D01*
X128666933Y-137025080D01*
X128693075Y-137067740D01*
X128853927Y-137256073D01*
X129042260Y-137416925D01*
X129253437Y-137546334D01*
X129258007Y-137548227D01*
X129258011Y-137548229D01*
X129464499Y-137633759D01*
X129482258Y-137641115D01*
X129567170Y-137661501D01*
X129718276Y-137697779D01*
X129718282Y-137697780D01*
X129723089Y-137698934D01*
X129970000Y-137718366D01*
X130216911Y-137698934D01*
X130221718Y-137697780D01*
X130221724Y-137697779D01*
X130372830Y-137661501D01*
X130457742Y-137641115D01*
X130475501Y-137633759D01*
X130681989Y-137548229D01*
X130681993Y-137548227D01*
X130686563Y-137546334D01*
X130897740Y-137416925D01*
X131086073Y-137256073D01*
X131246925Y-137067740D01*
X131376334Y-136856563D01*
X131428638Y-136730292D01*
X131469221Y-136632315D01*
X131469222Y-136632313D01*
X131471115Y-136627742D01*
X131508981Y-136470020D01*
X131527779Y-136391724D01*
X131527780Y-136391718D01*
X131528934Y-136386911D01*
X131548366Y-136140000D01*
X131528934Y-135893089D01*
X131527780Y-135888282D01*
X131527779Y-135888276D01*
X131472270Y-135657070D01*
X131471115Y-135652258D01*
X131447634Y-135595570D01*
X131378229Y-135428011D01*
X131378227Y-135428007D01*
X131376334Y-135423437D01*
X131246925Y-135212260D01*
X131086073Y-135023927D01*
X130897740Y-134863075D01*
X130686563Y-134733666D01*
X130618342Y-134705408D01*
X130563062Y-134660859D01*
X130540641Y-134593496D01*
X130558199Y-134524705D01*
X130610162Y-134476326D01*
X130666561Y-134462999D01*
X130979669Y-134462999D01*
X130986490Y-134462629D01*
X131037352Y-134457105D01*
X131052604Y-134453479D01*
X131173054Y-134408324D01*
X131188649Y-134399786D01*
X131290724Y-134323285D01*
X131303285Y-134310724D01*
X131379786Y-134208649D01*
X131388324Y-134193054D01*
X131433478Y-134072606D01*
X131437105Y-134057351D01*
X131442631Y-134006486D01*
X131443000Y-133999672D01*
X131443000Y-133312115D01*
X131438525Y-133296876D01*
X131437135Y-133295671D01*
X131429452Y-133294000D01*
X129842000Y-133294000D01*
X129773879Y-133273998D01*
X129727386Y-133220342D01*
X129716000Y-133168000D01*
X129716000Y-132912000D01*
X129736002Y-132843879D01*
X129789658Y-132797386D01*
X129842000Y-132786000D01*
X131424884Y-132786000D01*
X131440123Y-132781525D01*
X131441328Y-132780135D01*
X131442999Y-132772452D01*
X131442999Y-132080331D01*
X131442629Y-132073509D01*
X131437155Y-132023105D01*
X131449684Y-131953223D01*
X131498006Y-131901208D01*
X131562418Y-131883500D01*
X136571233Y-131883500D01*
X136582416Y-131884027D01*
X136589909Y-131885702D01*
X136597835Y-131885453D01*
X136597836Y-131885453D01*
X136657986Y-131883562D01*
X136661945Y-131883500D01*
X136689856Y-131883500D01*
X136693791Y-131883003D01*
X136693856Y-131882995D01*
X136705693Y-131882062D01*
X136737951Y-131881048D01*
X136741970Y-131880922D01*
X136749889Y-131880673D01*
X136769343Y-131875021D01*
X136788700Y-131871013D01*
X136800930Y-131869468D01*
X136800931Y-131869468D01*
X136808797Y-131868474D01*
X136816168Y-131865555D01*
X136816170Y-131865555D01*
X136849912Y-131852196D01*
X136861142Y-131848351D01*
X136895983Y-131838229D01*
X136895984Y-131838229D01*
X136903593Y-131836018D01*
X136910412Y-131831985D01*
X136910417Y-131831983D01*
X136921028Y-131825707D01*
X136938776Y-131817012D01*
X136957617Y-131809552D01*
X136993387Y-131783564D01*
X137003307Y-131777048D01*
X137034535Y-131758580D01*
X137034538Y-131758578D01*
X137041362Y-131754542D01*
X137055683Y-131740221D01*
X137070717Y-131727380D01*
X137080694Y-131720131D01*
X137087107Y-131715472D01*
X137115298Y-131681395D01*
X137123288Y-131672616D01*
X138963234Y-129832670D01*
X140932160Y-129832670D01*
X140937887Y-129840320D01*
X141109042Y-129945205D01*
X141117837Y-129949687D01*
X141327988Y-130036734D01*
X141337373Y-130039783D01*
X141558554Y-130092885D01*
X141568301Y-130094428D01*
X141795070Y-130112275D01*
X141804930Y-130112275D01*
X142031699Y-130094428D01*
X142041446Y-130092885D01*
X142262627Y-130039783D01*
X142272012Y-130036734D01*
X142482163Y-129949687D01*
X142490958Y-129945205D01*
X142658445Y-129842568D01*
X142667907Y-129832110D01*
X142664124Y-129823334D01*
X141812812Y-128972022D01*
X141798868Y-128964408D01*
X141797035Y-128964539D01*
X141790420Y-128968790D01*
X140938920Y-129820290D01*
X140932160Y-129832670D01*
X138963234Y-129832670D01*
X139942247Y-128853657D01*
X139950537Y-128846113D01*
X139957018Y-128842000D01*
X140003659Y-128792332D01*
X140006413Y-128789491D01*
X140026134Y-128769770D01*
X140028612Y-128766575D01*
X140036318Y-128757553D01*
X140061161Y-128731098D01*
X140066586Y-128725321D01*
X140070404Y-128718375D01*
X140073788Y-128713718D01*
X140130010Y-128670363D01*
X140200746Y-128664286D01*
X140263538Y-128697417D01*
X140298450Y-128759237D01*
X140301337Y-128777891D01*
X140305572Y-128831699D01*
X140307115Y-128841446D01*
X140360217Y-129062627D01*
X140363266Y-129072012D01*
X140450313Y-129282163D01*
X140454795Y-129290958D01*
X140557432Y-129458445D01*
X140567890Y-129467907D01*
X140576666Y-129464124D01*
X141427978Y-128612812D01*
X141434356Y-128601132D01*
X142164408Y-128601132D01*
X142164539Y-128602965D01*
X142168790Y-128609580D01*
X143020290Y-129461080D01*
X143032670Y-129467840D01*
X143040320Y-129462113D01*
X143145205Y-129290958D01*
X143149687Y-129282163D01*
X143236734Y-129072012D01*
X143239783Y-129062627D01*
X143292885Y-128841446D01*
X143294428Y-128831699D01*
X143312275Y-128604930D01*
X143312275Y-128595070D01*
X143294428Y-128368301D01*
X143292885Y-128358554D01*
X143239783Y-128137373D01*
X143236734Y-128127988D01*
X143149687Y-127917837D01*
X143145205Y-127909042D01*
X143042568Y-127741555D01*
X143032110Y-127732093D01*
X143023334Y-127735876D01*
X142172022Y-128587188D01*
X142164408Y-128601132D01*
X141434356Y-128601132D01*
X141435592Y-128598868D01*
X141435461Y-128597035D01*
X141431210Y-128590420D01*
X140579710Y-127738920D01*
X140567330Y-127732160D01*
X140559680Y-127737887D01*
X140454795Y-127909042D01*
X140450313Y-127917837D01*
X140425909Y-127976754D01*
X140381361Y-128032035D01*
X140313997Y-128054456D01*
X140245206Y-128036898D01*
X140196828Y-127984936D01*
X140183500Y-127928536D01*
X140183500Y-127367890D01*
X140932093Y-127367890D01*
X140935876Y-127376666D01*
X141787188Y-128227978D01*
X141801132Y-128235592D01*
X141802965Y-128235461D01*
X141809580Y-128231210D01*
X142661080Y-127379710D01*
X142667840Y-127367330D01*
X142662113Y-127359680D01*
X142490958Y-127254795D01*
X142482163Y-127250313D01*
X142272012Y-127163266D01*
X142262627Y-127160217D01*
X142041446Y-127107115D01*
X142031699Y-127105572D01*
X141804930Y-127087725D01*
X141795070Y-127087725D01*
X141568301Y-127105572D01*
X141558554Y-127107115D01*
X141337373Y-127160217D01*
X141327988Y-127163266D01*
X141117837Y-127250313D01*
X141109042Y-127254795D01*
X140941555Y-127357432D01*
X140932093Y-127367890D01*
X140183500Y-127367890D01*
X140183500Y-122914595D01*
X140203502Y-122846474D01*
X140220405Y-122825499D01*
X140575501Y-122470404D01*
X140637813Y-122436379D01*
X140664596Y-122433500D01*
X141519618Y-122433500D01*
X141587739Y-122453502D01*
X141634232Y-122507158D01*
X141637599Y-122515269D01*
X141646231Y-122538293D01*
X141649385Y-122546705D01*
X141736739Y-122663261D01*
X141853295Y-122750615D01*
X141989684Y-122801745D01*
X142051866Y-122808500D01*
X143148134Y-122808500D01*
X143210316Y-122801745D01*
X143346705Y-122750615D01*
X143463261Y-122663261D01*
X143550615Y-122546705D01*
X143601745Y-122410316D01*
X143608500Y-122348134D01*
X143608500Y-121251866D01*
X143601745Y-121189684D01*
X143550615Y-121053295D01*
X143463261Y-120936739D01*
X143346705Y-120849385D01*
X143210316Y-120798255D01*
X143148134Y-120791500D01*
X142051866Y-120791500D01*
X141989684Y-120798255D01*
X141853295Y-120849385D01*
X141736739Y-120936739D01*
X141649385Y-121053295D01*
X141646233Y-121061703D01*
X141646231Y-121061707D01*
X141637599Y-121084731D01*
X141594957Y-121141495D01*
X141528395Y-121166194D01*
X141519618Y-121166500D01*
X140428767Y-121166500D01*
X140417584Y-121165973D01*
X140410091Y-121164298D01*
X140402165Y-121164547D01*
X140402164Y-121164547D01*
X140342001Y-121166438D01*
X140338043Y-121166500D01*
X140310144Y-121166500D01*
X140306154Y-121167004D01*
X140294320Y-121167936D01*
X140250111Y-121169326D01*
X140242497Y-121171538D01*
X140242492Y-121171539D01*
X140230659Y-121174977D01*
X140211296Y-121178988D01*
X140191203Y-121181526D01*
X140183836Y-121184443D01*
X140183831Y-121184444D01*
X140150092Y-121197802D01*
X140138865Y-121201646D01*
X140096407Y-121213982D01*
X140089581Y-121218019D01*
X140078972Y-121224293D01*
X140061224Y-121232988D01*
X140042383Y-121240448D01*
X140035967Y-121245110D01*
X140035966Y-121245110D01*
X140006613Y-121266436D01*
X139996693Y-121272952D01*
X139965465Y-121291420D01*
X139965462Y-121291422D01*
X139958638Y-121295458D01*
X139949094Y-121305002D01*
X139886782Y-121339028D01*
X139815967Y-121333963D01*
X139759131Y-121291416D01*
X139734320Y-121224896D01*
X139733999Y-121215907D01*
X139733999Y-120379266D01*
X139734526Y-120368083D01*
X139736201Y-120360590D01*
X139734061Y-120292513D01*
X139733999Y-120288554D01*
X139733999Y-120260643D01*
X139733494Y-120256643D01*
X139732561Y-120244800D01*
X139731421Y-120208528D01*
X139731172Y-120200609D01*
X139725521Y-120181157D01*
X139721513Y-120161805D01*
X139719966Y-120149562D01*
X139718973Y-120141702D01*
X139716055Y-120134331D01*
X139702699Y-120100596D01*
X139698854Y-120089369D01*
X139692832Y-120068642D01*
X139686517Y-120046906D01*
X139682483Y-120040084D01*
X139682480Y-120040078D01*
X139676205Y-120029467D01*
X139667509Y-120011717D01*
X139662971Y-120000255D01*
X139662968Y-120000250D01*
X139660051Y-119992882D01*
X139634072Y-119957124D01*
X139627556Y-119947206D01*
X139609074Y-119915956D01*
X139605041Y-119909136D01*
X139590717Y-119894812D01*
X139577875Y-119879777D01*
X139565971Y-119863392D01*
X139531905Y-119835210D01*
X139523126Y-119827221D01*
X139444039Y-119748134D01*
X141591500Y-119748134D01*
X141598255Y-119810316D01*
X141649385Y-119946705D01*
X141736739Y-120063261D01*
X141853295Y-120150615D01*
X141989684Y-120201745D01*
X142051866Y-120208500D01*
X143148134Y-120208500D01*
X143210316Y-120201745D01*
X143346705Y-120150615D01*
X143463261Y-120063261D01*
X143550615Y-119946705D01*
X143601745Y-119810316D01*
X143608500Y-119748134D01*
X143608500Y-118651866D01*
X143601745Y-118589684D01*
X143550615Y-118453295D01*
X143463261Y-118336739D01*
X143346705Y-118249385D01*
X143210316Y-118198255D01*
X143148134Y-118191500D01*
X142051866Y-118191500D01*
X141989684Y-118198255D01*
X141853295Y-118249385D01*
X141736739Y-118336739D01*
X141649385Y-118453295D01*
X141598255Y-118589684D01*
X141591500Y-118651866D01*
X141591500Y-119748134D01*
X139444039Y-119748134D01*
X138845405Y-119149500D01*
X138811379Y-119087188D01*
X138808500Y-119060405D01*
X138808500Y-117248134D01*
X141591500Y-117248134D01*
X141598255Y-117310316D01*
X141649385Y-117446705D01*
X141736739Y-117563261D01*
X141853295Y-117650615D01*
X141989684Y-117701745D01*
X142051866Y-117708500D01*
X143148134Y-117708500D01*
X143210316Y-117701745D01*
X143346705Y-117650615D01*
X143463261Y-117563261D01*
X143550615Y-117446705D01*
X143601745Y-117310316D01*
X143608500Y-117248134D01*
X143608500Y-116151866D01*
X143601745Y-116089684D01*
X143550615Y-115953295D01*
X143463261Y-115836739D01*
X143346705Y-115749385D01*
X143210316Y-115698255D01*
X143148134Y-115691500D01*
X142051866Y-115691500D01*
X141989684Y-115698255D01*
X141853295Y-115749385D01*
X141736739Y-115836739D01*
X141649385Y-115953295D01*
X141598255Y-116089684D01*
X141591500Y-116151866D01*
X141591500Y-117248134D01*
X138808500Y-117248134D01*
X138808500Y-116081871D01*
X138828502Y-116013750D01*
X138882158Y-115967257D01*
X138952432Y-115957153D01*
X138993167Y-115970363D01*
X139109947Y-116031804D01*
X139114248Y-116033323D01*
X139114253Y-116033325D01*
X139247087Y-116080233D01*
X139365634Y-116122096D01*
X139463653Y-116141415D01*
X139627206Y-116173652D01*
X139627212Y-116173653D01*
X139631678Y-116174533D01*
X139636232Y-116174760D01*
X139636234Y-116174760D01*
X139897936Y-116187789D01*
X139897942Y-116187789D01*
X139902505Y-116188016D01*
X140172441Y-116162262D01*
X140176870Y-116161178D01*
X140176877Y-116161177D01*
X140336584Y-116122096D01*
X140435832Y-116097810D01*
X140455895Y-116089684D01*
X140682931Y-115997725D01*
X140682932Y-115997725D01*
X140687160Y-115996012D01*
X140921161Y-115858999D01*
X141079383Y-115732465D01*
X141129366Y-115692493D01*
X141129368Y-115692492D01*
X141132932Y-115689641D01*
X141254399Y-115559612D01*
X141314921Y-115494824D01*
X141314923Y-115494821D01*
X141318037Y-115491488D01*
X141472598Y-115268688D01*
X141554624Y-115103810D01*
X141591346Y-115029997D01*
X141591347Y-115029994D01*
X141593379Y-115025910D01*
X141677847Y-114768240D01*
X141710375Y-114580900D01*
X141723579Y-114504856D01*
X141723580Y-114504848D01*
X141724235Y-114501075D01*
X141728500Y-114415400D01*
X141728500Y-114193126D01*
X141748502Y-114125005D01*
X141802158Y-114078512D01*
X141872432Y-114068408D01*
X141934985Y-114096182D01*
X142015367Y-114162916D01*
X142023814Y-114168831D01*
X142207689Y-114276279D01*
X142216975Y-114280729D01*
X142415934Y-114356703D01*
X142425832Y-114359579D01*
X142634528Y-114402038D01*
X142644756Y-114403257D01*
X142857583Y-114411062D01*
X142867869Y-114410595D01*
X143079118Y-114383534D01*
X143089195Y-114381392D01*
X143293188Y-114320191D01*
X143302775Y-114316433D01*
X143494031Y-114222738D01*
X143502877Y-114217465D01*
X143550180Y-114183723D01*
X143558581Y-114173023D01*
X143551593Y-114159870D01*
X142442855Y-113051132D01*
X143165341Y-113051132D01*
X143165472Y-113052965D01*
X143169723Y-113059580D01*
X143911407Y-113801264D01*
X143923417Y-113807823D01*
X143935156Y-113798855D01*
X143965937Y-113756019D01*
X143971248Y-113747180D01*
X144065603Y-113556267D01*
X144069402Y-113546672D01*
X144131309Y-113342915D01*
X144133488Y-113332834D01*
X144161523Y-113119887D01*
X144162042Y-113113212D01*
X144163505Y-113053364D01*
X144163311Y-113046646D01*
X144145714Y-112832604D01*
X144144029Y-112822424D01*
X144092147Y-112615875D01*
X144088827Y-112606124D01*
X144003905Y-112410814D01*
X143999038Y-112401739D01*
X143933996Y-112301197D01*
X143923310Y-112291995D01*
X143913745Y-112296398D01*
X143172955Y-113037188D01*
X143165341Y-113051132D01*
X142442855Y-113051132D01*
X141690782Y-112299059D01*
X141679246Y-112292759D01*
X141666964Y-112302382D01*
X141619022Y-112372662D01*
X141613937Y-112381613D01*
X141524270Y-112574786D01*
X141523824Y-112575998D01*
X141523512Y-112576418D01*
X141522092Y-112579478D01*
X141521460Y-112579185D01*
X141481531Y-112633022D01*
X141415122Y-112658130D01*
X141345681Y-112643348D01*
X141305410Y-112608934D01*
X141265939Y-112557215D01*
X141265938Y-112557214D01*
X141263167Y-112553583D01*
X141069264Y-112364030D01*
X141065514Y-112361300D01*
X140853721Y-112207141D01*
X140850028Y-112204453D01*
X140610053Y-112078196D01*
X140605752Y-112076677D01*
X140605747Y-112076675D01*
X140427998Y-112013906D01*
X140354366Y-111987904D01*
X140221433Y-111961703D01*
X140092794Y-111936348D01*
X140092788Y-111936347D01*
X140088322Y-111935467D01*
X140083768Y-111935240D01*
X140083766Y-111935240D01*
X139822064Y-111922211D01*
X139822058Y-111922211D01*
X139817495Y-111921984D01*
X139547559Y-111947738D01*
X139543130Y-111948822D01*
X139543123Y-111948823D01*
X139413069Y-111980648D01*
X139284168Y-112012190D01*
X139279933Y-112013905D01*
X139279931Y-112013906D01*
X139037069Y-112112275D01*
X139032840Y-112113988D01*
X138998165Y-112134291D01*
X138929273Y-112151451D01*
X138862041Y-112128640D01*
X138817814Y-112073102D01*
X138808500Y-112025559D01*
X138808500Y-108239594D01*
X138828502Y-108171473D01*
X138845405Y-108150499D01*
X140100500Y-106895405D01*
X140162812Y-106861379D01*
X140189595Y-106858500D01*
X140245487Y-106858500D01*
X140251939Y-106857128D01*
X140251944Y-106857128D01*
X140357936Y-106834598D01*
X140432288Y-106818794D01*
X140565553Y-106759461D01*
X140600722Y-106743803D01*
X140600724Y-106743802D01*
X140606752Y-106741118D01*
X140648348Y-106710897D01*
X140731622Y-106650394D01*
X140761253Y-106628866D01*
X140786437Y-106600896D01*
X140884621Y-106491852D01*
X140884622Y-106491851D01*
X140889040Y-106486944D01*
X140984527Y-106321556D01*
X141043542Y-106139928D01*
X141063504Y-105950000D01*
X141051695Y-105837639D01*
X141044232Y-105766635D01*
X141044232Y-105766633D01*
X141043542Y-105760072D01*
X140984527Y-105578444D01*
X140889040Y-105413056D01*
X140761253Y-105271134D01*
X140628345Y-105174570D01*
X140612094Y-105162763D01*
X140612093Y-105162762D01*
X140606752Y-105158882D01*
X140600724Y-105156198D01*
X140600722Y-105156197D01*
X140438319Y-105083891D01*
X140438318Y-105083891D01*
X140432288Y-105081206D01*
X140338887Y-105061353D01*
X140251944Y-105042872D01*
X140251939Y-105042872D01*
X140245487Y-105041500D01*
X140054513Y-105041500D01*
X140048061Y-105042872D01*
X140048056Y-105042872D01*
X139961113Y-105061353D01*
X139867712Y-105081206D01*
X139861682Y-105083891D01*
X139861681Y-105083891D01*
X139699278Y-105156197D01*
X139699276Y-105156198D01*
X139693248Y-105158882D01*
X139687907Y-105162762D01*
X139687906Y-105162763D01*
X139671655Y-105174570D01*
X139538747Y-105271134D01*
X139410960Y-105413056D01*
X139315473Y-105578444D01*
X139256458Y-105760072D01*
X139255768Y-105766633D01*
X139255768Y-105766635D01*
X139239093Y-105925293D01*
X139212080Y-105990950D01*
X139202887Y-106001209D01*
X138473593Y-106730502D01*
X138411283Y-106764526D01*
X138340467Y-106759461D01*
X138283632Y-106716914D01*
X138258821Y-106650394D01*
X138258500Y-106641405D01*
X138258500Y-102799052D01*
X138278502Y-102730931D01*
X138311332Y-102696473D01*
X138408039Y-102627493D01*
X138408042Y-102627491D01*
X138412243Y-102624494D01*
X138576303Y-102461005D01*
X138583707Y-102450702D01*
X138602680Y-102424297D01*
X138711458Y-102272917D01*
X138736932Y-102221375D01*
X138811784Y-102069922D01*
X138811785Y-102069920D01*
X138814078Y-102065280D01*
X138881408Y-101843671D01*
X138911640Y-101614041D01*
X138913327Y-101545000D01*
X138900680Y-101391173D01*
X138894773Y-101319318D01*
X138894772Y-101319312D01*
X138894349Y-101314167D01*
X138837925Y-101089533D01*
X138819622Y-101047438D01*
X138747630Y-100881868D01*
X138747628Y-100881865D01*
X138745570Y-100877131D01*
X138619764Y-100682665D01*
X138463887Y-100511358D01*
X138459836Y-100508159D01*
X138459832Y-100508155D01*
X138306408Y-100386989D01*
X138265345Y-100329072D01*
X138258500Y-100288107D01*
X138258500Y-95710564D01*
X138278502Y-95642443D01*
X138332158Y-95595950D01*
X138402432Y-95585846D01*
X138467012Y-95615340D01*
X138472579Y-95620464D01*
X138587468Y-95732776D01*
X138587473Y-95732780D01*
X138590736Y-95735970D01*
X138594428Y-95738657D01*
X138594430Y-95738659D01*
X138742102Y-95846146D01*
X138809972Y-95895547D01*
X139049947Y-96021804D01*
X139054248Y-96023323D01*
X139054253Y-96023325D01*
X139187087Y-96070233D01*
X139305634Y-96112096D01*
X139403653Y-96131415D01*
X139567206Y-96163652D01*
X139567212Y-96163653D01*
X139571678Y-96164533D01*
X139576232Y-96164760D01*
X139576234Y-96164760D01*
X139837936Y-96177789D01*
X139837942Y-96177789D01*
X139842505Y-96178016D01*
X140112441Y-96152262D01*
X140116870Y-96151178D01*
X140116877Y-96151177D01*
X140276584Y-96112096D01*
X140375832Y-96087810D01*
X140407242Y-96075088D01*
X140622931Y-95987725D01*
X140622932Y-95987725D01*
X140627160Y-95986012D01*
X140861161Y-95848999D01*
X141072932Y-95679641D01*
X141254867Y-95484882D01*
X141315982Y-95448758D01*
X141386929Y-95451410D01*
X141445179Y-95491999D01*
X141469856Y-95543195D01*
X141500155Y-95677639D01*
X141538394Y-95771811D01*
X141570675Y-95851309D01*
X141584199Y-95884616D01*
X141590898Y-95895547D01*
X141668268Y-96021804D01*
X141700920Y-96075088D01*
X141847183Y-96243938D01*
X142019059Y-96386632D01*
X142089528Y-96427811D01*
X142092378Y-96429476D01*
X142141102Y-96481114D01*
X142154173Y-96550897D01*
X142127442Y-96616669D01*
X142086988Y-96650027D01*
X142074540Y-96656507D01*
X142070407Y-96659610D01*
X142070404Y-96659612D01*
X142046180Y-96677800D01*
X141895898Y-96790635D01*
X141741562Y-96952138D01*
X141615676Y-97136680D01*
X141521621Y-97339305D01*
X141461922Y-97554570D01*
X141438184Y-97776695D01*
X141438481Y-97781848D01*
X141438481Y-97781851D01*
X141443944Y-97876590D01*
X141451043Y-97999715D01*
X141452180Y-98004761D01*
X141452181Y-98004767D01*
X141472052Y-98092939D01*
X141500155Y-98217639D01*
X141584199Y-98424616D01*
X141700920Y-98615088D01*
X141847183Y-98783938D01*
X142019059Y-98926632D01*
X142089528Y-98967811D01*
X142092378Y-98969476D01*
X142141102Y-99021114D01*
X142154173Y-99090897D01*
X142127442Y-99156669D01*
X142086988Y-99190027D01*
X142074540Y-99196507D01*
X142070407Y-99199610D01*
X142070404Y-99199612D01*
X142046180Y-99217800D01*
X141895898Y-99330635D01*
X141741562Y-99492138D01*
X141738648Y-99496410D01*
X141738647Y-99496411D01*
X141675203Y-99589416D01*
X141615676Y-99676680D01*
X141577929Y-99757999D01*
X141533434Y-99853857D01*
X141521621Y-99879305D01*
X141461922Y-100094570D01*
X141438184Y-100316695D01*
X141438481Y-100321848D01*
X141438481Y-100321851D01*
X141443944Y-100416590D01*
X141451043Y-100539715D01*
X141452180Y-100544761D01*
X141452181Y-100544767D01*
X141472052Y-100632939D01*
X141500155Y-100757639D01*
X141584199Y-100964616D01*
X141700920Y-101155088D01*
X141847183Y-101323938D01*
X142019059Y-101466632D01*
X142089528Y-101507811D01*
X142092378Y-101509476D01*
X142141102Y-101561114D01*
X142154173Y-101630897D01*
X142127442Y-101696669D01*
X142086988Y-101730027D01*
X142074540Y-101736507D01*
X142070407Y-101739610D01*
X142070404Y-101739612D01*
X141925223Y-101848617D01*
X141895898Y-101870635D01*
X141741562Y-102032138D01*
X141738648Y-102036410D01*
X141738647Y-102036411D01*
X141653489Y-102161249D01*
X141615676Y-102216680D01*
X141521621Y-102419305D01*
X141461922Y-102634570D01*
X141438184Y-102856695D01*
X141438481Y-102861848D01*
X141438481Y-102861851D01*
X141446879Y-103007492D01*
X141451043Y-103079715D01*
X141452180Y-103084761D01*
X141452181Y-103084767D01*
X141472052Y-103172939D01*
X141500155Y-103297639D01*
X141584199Y-103504616D01*
X141700920Y-103695088D01*
X141847183Y-103863938D01*
X142019059Y-104006632D01*
X142089528Y-104047811D01*
X142092378Y-104049476D01*
X142141102Y-104101114D01*
X142154173Y-104170897D01*
X142127442Y-104236669D01*
X142086988Y-104270027D01*
X142074540Y-104276507D01*
X142070407Y-104279610D01*
X142070404Y-104279612D01*
X142046180Y-104297800D01*
X141895898Y-104410635D01*
X141741562Y-104572138D01*
X141615676Y-104756680D01*
X141521621Y-104959305D01*
X141461922Y-105174570D01*
X141438184Y-105396695D01*
X141438481Y-105401848D01*
X141438481Y-105401851D01*
X141443944Y-105496590D01*
X141451043Y-105619715D01*
X141452180Y-105624761D01*
X141452181Y-105624767D01*
X141472052Y-105712939D01*
X141500155Y-105837639D01*
X141584199Y-106044616D01*
X141700920Y-106235088D01*
X141847183Y-106403938D01*
X142019059Y-106546632D01*
X142089528Y-106587811D01*
X142092378Y-106589476D01*
X142141102Y-106641114D01*
X142154173Y-106710897D01*
X142127442Y-106776669D01*
X142086988Y-106810027D01*
X142074540Y-106816507D01*
X142070407Y-106819610D01*
X142070404Y-106819612D01*
X141900033Y-106947530D01*
X141895898Y-106950635D01*
X141741562Y-107112138D01*
X141615676Y-107296680D01*
X141521621Y-107499305D01*
X141461922Y-107714570D01*
X141438184Y-107936695D01*
X141438481Y-107941848D01*
X141438481Y-107941851D01*
X141443944Y-108036590D01*
X141451043Y-108159715D01*
X141452180Y-108164761D01*
X141452181Y-108164767D01*
X141457283Y-108187404D01*
X141500155Y-108377639D01*
X141584199Y-108584616D01*
X141700920Y-108775088D01*
X141847183Y-108943938D01*
X142019059Y-109086632D01*
X142089528Y-109127811D01*
X142092378Y-109129476D01*
X142141102Y-109181114D01*
X142154173Y-109250897D01*
X142127442Y-109316669D01*
X142086988Y-109350027D01*
X142074540Y-109356507D01*
X142070407Y-109359610D01*
X142070404Y-109359612D01*
X142046180Y-109377800D01*
X141895898Y-109490635D01*
X141741562Y-109652138D01*
X141615676Y-109836680D01*
X141521621Y-110039305D01*
X141461922Y-110254570D01*
X141438184Y-110476695D01*
X141438481Y-110481848D01*
X141438481Y-110481851D01*
X141443944Y-110576590D01*
X141451043Y-110699715D01*
X141452180Y-110704761D01*
X141452181Y-110704767D01*
X141470354Y-110785405D01*
X141500155Y-110917639D01*
X141584199Y-111124616D01*
X141595989Y-111143856D01*
X141654110Y-111238700D01*
X141700920Y-111315088D01*
X141847183Y-111483938D01*
X142019059Y-111626632D01*
X142080129Y-111662318D01*
X142092888Y-111669774D01*
X142141612Y-111721412D01*
X142154683Y-111791195D01*
X142127952Y-111856967D01*
X142087495Y-111890327D01*
X142079393Y-111894544D01*
X142070667Y-111900039D01*
X142050610Y-111915099D01*
X142042156Y-111926427D01*
X142048901Y-111938758D01*
X142788121Y-112677978D01*
X142802065Y-112685592D01*
X142803898Y-112685461D01*
X142810513Y-112681210D01*
X143554322Y-111937401D01*
X143561343Y-111924544D01*
X143554544Y-111915213D01*
X143550492Y-111912521D01*
X143513535Y-111892120D01*
X143463564Y-111841687D01*
X143448792Y-111772245D01*
X143473908Y-111705839D01*
X143501260Y-111679232D01*
X143524973Y-111662318D01*
X143680793Y-111551173D01*
X143839029Y-111393489D01*
X143898527Y-111310689D01*
X143966368Y-111216277D01*
X143969386Y-111212077D01*
X143979324Y-111191970D01*
X144066069Y-111016453D01*
X144066070Y-111016451D01*
X144068363Y-111011811D01*
X144133303Y-110798069D01*
X144162462Y-110576590D01*
X144164089Y-110510000D01*
X144145785Y-110287361D01*
X144091364Y-110070702D01*
X144002287Y-109865840D01*
X143880947Y-109678277D01*
X143730603Y-109513051D01*
X143726552Y-109509852D01*
X143726548Y-109509848D01*
X143559347Y-109377800D01*
X143559343Y-109377798D01*
X143555292Y-109374598D01*
X143513986Y-109351796D01*
X143464017Y-109301364D01*
X143449245Y-109231921D01*
X143474361Y-109165516D01*
X143501713Y-109138909D01*
X143545536Y-109107650D01*
X143680793Y-109011173D01*
X143839029Y-108853489D01*
X143898527Y-108770689D01*
X143966368Y-108676277D01*
X143969386Y-108672077D01*
X144068363Y-108471811D01*
X144133303Y-108258069D01*
X144162462Y-108036590D01*
X144164089Y-107970000D01*
X144145785Y-107747361D01*
X144091364Y-107530702D01*
X144002287Y-107325840D01*
X143880947Y-107138277D01*
X143730603Y-106973051D01*
X143726552Y-106969852D01*
X143726548Y-106969848D01*
X143559347Y-106837800D01*
X143559343Y-106837798D01*
X143555292Y-106834598D01*
X143513986Y-106811796D01*
X143464017Y-106761364D01*
X143449245Y-106691921D01*
X143474361Y-106625516D01*
X143501713Y-106598909D01*
X143545536Y-106567650D01*
X143680793Y-106471173D01*
X143839029Y-106313489D01*
X143898527Y-106230689D01*
X143966368Y-106136277D01*
X143969386Y-106132077D01*
X144051503Y-105965926D01*
X144066069Y-105936453D01*
X144066070Y-105936451D01*
X144068363Y-105931811D01*
X144100833Y-105824940D01*
X144131798Y-105723023D01*
X144131798Y-105723021D01*
X144133303Y-105718069D01*
X144162462Y-105496590D01*
X144164089Y-105430000D01*
X144145785Y-105207361D01*
X144091364Y-104990702D01*
X144002287Y-104785840D01*
X143880947Y-104598277D01*
X143730603Y-104433051D01*
X143726552Y-104429852D01*
X143726548Y-104429848D01*
X143559347Y-104297800D01*
X143559343Y-104297798D01*
X143555292Y-104294598D01*
X143513986Y-104271796D01*
X143464017Y-104221364D01*
X143449245Y-104151921D01*
X143474361Y-104085516D01*
X143501713Y-104058909D01*
X143545536Y-104027650D01*
X143680793Y-103931173D01*
X143839029Y-103773489D01*
X143898527Y-103690689D01*
X143966368Y-103596277D01*
X143969386Y-103592077D01*
X144068363Y-103391811D01*
X144133303Y-103178069D01*
X144162462Y-102956590D01*
X144162659Y-102948525D01*
X144164007Y-102893365D01*
X144164007Y-102893361D01*
X144164089Y-102890000D01*
X144145785Y-102667361D01*
X144091364Y-102450702D01*
X144002287Y-102245840D01*
X143961140Y-102182237D01*
X143883755Y-102062617D01*
X143883753Y-102062614D01*
X143880947Y-102058277D01*
X143730603Y-101893051D01*
X143726552Y-101889852D01*
X143726548Y-101889848D01*
X143559347Y-101757800D01*
X143559343Y-101757798D01*
X143555292Y-101754598D01*
X143513986Y-101731796D01*
X143464017Y-101681364D01*
X143449245Y-101611921D01*
X143474361Y-101545516D01*
X143501713Y-101518909D01*
X143545536Y-101487650D01*
X143680793Y-101391173D01*
X143839029Y-101233489D01*
X143898527Y-101150689D01*
X143966368Y-101056277D01*
X143969386Y-101052077D01*
X144068363Y-100851811D01*
X144133303Y-100638069D01*
X144162462Y-100416590D01*
X144162544Y-100413240D01*
X144164007Y-100353365D01*
X144164007Y-100353361D01*
X144164089Y-100350000D01*
X144145785Y-100127361D01*
X144091364Y-99910702D01*
X144002287Y-99705840D01*
X143926969Y-99589416D01*
X143883755Y-99522617D01*
X143883753Y-99522614D01*
X143880947Y-99518277D01*
X143730603Y-99353051D01*
X143726552Y-99349852D01*
X143726548Y-99349848D01*
X143559347Y-99217800D01*
X143559343Y-99217798D01*
X143555292Y-99214598D01*
X143513986Y-99191796D01*
X143464017Y-99141364D01*
X143449245Y-99071921D01*
X143474361Y-99005516D01*
X143501713Y-98978909D01*
X143545536Y-98947650D01*
X143680793Y-98851173D01*
X143839029Y-98693489D01*
X143898527Y-98610689D01*
X143966368Y-98516277D01*
X143969386Y-98512077D01*
X144068363Y-98311811D01*
X144133303Y-98098069D01*
X144162462Y-97876590D01*
X144164089Y-97810000D01*
X144145785Y-97587361D01*
X144091364Y-97370702D01*
X144002287Y-97165840D01*
X143880947Y-96978277D01*
X143730603Y-96813051D01*
X143726552Y-96809852D01*
X143726548Y-96809848D01*
X143559347Y-96677800D01*
X143559343Y-96677798D01*
X143555292Y-96674598D01*
X143513986Y-96651796D01*
X143464017Y-96601364D01*
X143449245Y-96531921D01*
X143474361Y-96465516D01*
X143501713Y-96438909D01*
X143545536Y-96407650D01*
X143680793Y-96311173D01*
X143839029Y-96153489D01*
X143868141Y-96112976D01*
X143966368Y-95976277D01*
X143969386Y-95972077D01*
X144068363Y-95771811D01*
X144133303Y-95558069D01*
X144162462Y-95336590D01*
X144164089Y-95270000D01*
X144145785Y-95047361D01*
X144091364Y-94830702D01*
X144002287Y-94625840D01*
X143880947Y-94438277D01*
X143730603Y-94273051D01*
X143726552Y-94269852D01*
X143726548Y-94269848D01*
X143559347Y-94137800D01*
X143559343Y-94137798D01*
X143555292Y-94134598D01*
X143513986Y-94111796D01*
X143464017Y-94061364D01*
X143449245Y-93991921D01*
X143474361Y-93925516D01*
X143501713Y-93898909D01*
X143545536Y-93867650D01*
X143680793Y-93771173D01*
X143839029Y-93613489D01*
X143898527Y-93530689D01*
X143966368Y-93436277D01*
X143969386Y-93432077D01*
X143976499Y-93417686D01*
X144066069Y-93236453D01*
X144066070Y-93236451D01*
X144068363Y-93231811D01*
X144133303Y-93018069D01*
X144162462Y-92796590D01*
X144162544Y-92793240D01*
X144164007Y-92733365D01*
X144164007Y-92733361D01*
X144164089Y-92730000D01*
X144145785Y-92507361D01*
X144091364Y-92290702D01*
X144002287Y-92085840D01*
X143962839Y-92024862D01*
X143883755Y-91902617D01*
X143883753Y-91902614D01*
X143880947Y-91898277D01*
X143730603Y-91733051D01*
X143726552Y-91729852D01*
X143726548Y-91729848D01*
X143559347Y-91597800D01*
X143559343Y-91597798D01*
X143555292Y-91594598D01*
X143513986Y-91571796D01*
X143464017Y-91521364D01*
X143449245Y-91451921D01*
X143474361Y-91385516D01*
X143501713Y-91358909D01*
X143545536Y-91327650D01*
X143680793Y-91231173D01*
X143839029Y-91073489D01*
X143848769Y-91059935D01*
X143966368Y-90896277D01*
X143969386Y-90892077D01*
X143986229Y-90857999D01*
X144066069Y-90696453D01*
X144066070Y-90696451D01*
X144068363Y-90691811D01*
X144121942Y-90515463D01*
X144131798Y-90483023D01*
X144131798Y-90483021D01*
X144133303Y-90478069D01*
X144162462Y-90256590D01*
X144164089Y-90190000D01*
X144145785Y-89967361D01*
X144091364Y-89750702D01*
X144002287Y-89545840D01*
X143880947Y-89358277D01*
X143730603Y-89193051D01*
X143726552Y-89189852D01*
X143726548Y-89189848D01*
X143559347Y-89057800D01*
X143559343Y-89057798D01*
X143555292Y-89054598D01*
X143513986Y-89031796D01*
X143464017Y-88981364D01*
X143449245Y-88911921D01*
X143474361Y-88845516D01*
X143501713Y-88818909D01*
X143545536Y-88787650D01*
X143680793Y-88691173D01*
X143839029Y-88533489D01*
X143898527Y-88450689D01*
X143966368Y-88356277D01*
X143969386Y-88352077D01*
X144068363Y-88151811D01*
X144133303Y-87938069D01*
X144162462Y-87716590D01*
X144164089Y-87650000D01*
X144145785Y-87427361D01*
X144091364Y-87210702D01*
X144002287Y-87005840D01*
X143880947Y-86818277D01*
X143730603Y-86653051D01*
X143726552Y-86649852D01*
X143726548Y-86649848D01*
X143559347Y-86517800D01*
X143559343Y-86517798D01*
X143555292Y-86514598D01*
X143513986Y-86491796D01*
X143464017Y-86441364D01*
X143449245Y-86371921D01*
X143474361Y-86305516D01*
X143501713Y-86278909D01*
X143545536Y-86247650D01*
X143680793Y-86151173D01*
X143839029Y-85993489D01*
X143898527Y-85910689D01*
X143966368Y-85816277D01*
X143969386Y-85812077D01*
X144068363Y-85611811D01*
X144133303Y-85398069D01*
X144162462Y-85176590D01*
X144164089Y-85110000D01*
X144145785Y-84887361D01*
X144091364Y-84670702D01*
X144002287Y-84465840D01*
X143880947Y-84278277D01*
X143730603Y-84113051D01*
X143726552Y-84109852D01*
X143726548Y-84109848D01*
X143559347Y-83977800D01*
X143559343Y-83977798D01*
X143555292Y-83974598D01*
X143513986Y-83951796D01*
X143464017Y-83901364D01*
X143449245Y-83831921D01*
X143474361Y-83765516D01*
X143501713Y-83738909D01*
X143545536Y-83707650D01*
X143680793Y-83611173D01*
X143839029Y-83453489D01*
X143898527Y-83370689D01*
X143966368Y-83276277D01*
X143969386Y-83272077D01*
X144068363Y-83071811D01*
X144105539Y-82949452D01*
X144131798Y-82863023D01*
X144131798Y-82863021D01*
X144133303Y-82858069D01*
X144162462Y-82636590D01*
X144163150Y-82608451D01*
X144164007Y-82573365D01*
X144164007Y-82573361D01*
X144164089Y-82570000D01*
X144145785Y-82347361D01*
X144091364Y-82130702D01*
X144002287Y-81925840D01*
X143880947Y-81738277D01*
X143730603Y-81573051D01*
X143726552Y-81569852D01*
X143726548Y-81569848D01*
X143559347Y-81437800D01*
X143559343Y-81437798D01*
X143555292Y-81434598D01*
X143513986Y-81411796D01*
X143464017Y-81361364D01*
X143449245Y-81291921D01*
X143474361Y-81225516D01*
X143501713Y-81198909D01*
X143545536Y-81167650D01*
X143680793Y-81071173D01*
X143839029Y-80913489D01*
X143898527Y-80830689D01*
X143966368Y-80736277D01*
X143969386Y-80732077D01*
X144004106Y-80661827D01*
X144066069Y-80536453D01*
X144066070Y-80536451D01*
X144068363Y-80531811D01*
X144133303Y-80318069D01*
X144162462Y-80096590D01*
X144164089Y-80030000D01*
X144145785Y-79807361D01*
X144091364Y-79590702D01*
X144002287Y-79385840D01*
X143880947Y-79198277D01*
X143730603Y-79033051D01*
X143726552Y-79029852D01*
X143726548Y-79029848D01*
X143559347Y-78897800D01*
X143559343Y-78897798D01*
X143555292Y-78894598D01*
X143513986Y-78871796D01*
X143464017Y-78821364D01*
X143449245Y-78751921D01*
X143474361Y-78685516D01*
X143501713Y-78658909D01*
X143545536Y-78627650D01*
X143680793Y-78531173D01*
X143839029Y-78373489D01*
X143898527Y-78290689D01*
X143966368Y-78196277D01*
X143969386Y-78192077D01*
X144068363Y-77991811D01*
X144133303Y-77778069D01*
X144162462Y-77556590D01*
X144164089Y-77490000D01*
X144145785Y-77267361D01*
X144091364Y-77050702D01*
X144002287Y-76845840D01*
X143880947Y-76658277D01*
X143730603Y-76493051D01*
X143726552Y-76489852D01*
X143726548Y-76489848D01*
X143559347Y-76357800D01*
X143559343Y-76357798D01*
X143555292Y-76354598D01*
X143513986Y-76331796D01*
X143464017Y-76281364D01*
X143449245Y-76211921D01*
X143474361Y-76145516D01*
X143501713Y-76118909D01*
X143545536Y-76087650D01*
X143680793Y-75991173D01*
X143839029Y-75833489D01*
X143898527Y-75750689D01*
X143966368Y-75656277D01*
X143969386Y-75652077D01*
X143978869Y-75632891D01*
X144066069Y-75456453D01*
X144066070Y-75456451D01*
X144068363Y-75451811D01*
X144133303Y-75238069D01*
X144162462Y-75016590D01*
X144164089Y-74950000D01*
X144145785Y-74727361D01*
X144091364Y-74510702D01*
X144002287Y-74305840D01*
X143880947Y-74118277D01*
X143730603Y-73953051D01*
X143726552Y-73949852D01*
X143726548Y-73949848D01*
X143559347Y-73817800D01*
X143559343Y-73817798D01*
X143555292Y-73814598D01*
X143513986Y-73791796D01*
X143464017Y-73741364D01*
X143449245Y-73671921D01*
X143474361Y-73605516D01*
X143501713Y-73578909D01*
X143545536Y-73547650D01*
X143680793Y-73451173D01*
X143721905Y-73410205D01*
X143835368Y-73297137D01*
X143839029Y-73293489D01*
X143863264Y-73259763D01*
X143966368Y-73116277D01*
X143969386Y-73112077D01*
X144021719Y-73006190D01*
X144066069Y-72916453D01*
X144066070Y-72916451D01*
X144068363Y-72911811D01*
X144133303Y-72698069D01*
X144162462Y-72476590D01*
X144164089Y-72410000D01*
X144145785Y-72187361D01*
X144091364Y-71970702D01*
X144002287Y-71765840D01*
X143880947Y-71578277D01*
X143730603Y-71413051D01*
X143726552Y-71409852D01*
X143726548Y-71409848D01*
X143559347Y-71277800D01*
X143559343Y-71277798D01*
X143555292Y-71274598D01*
X143513986Y-71251796D01*
X143464017Y-71201364D01*
X143449245Y-71131921D01*
X143474361Y-71065516D01*
X143501713Y-71038909D01*
X143545536Y-71007650D01*
X143680793Y-70911173D01*
X143839029Y-70753489D01*
X143898527Y-70670689D01*
X143966368Y-70576277D01*
X143969386Y-70572077D01*
X144068363Y-70371811D01*
X144133303Y-70158069D01*
X144162462Y-69936590D01*
X144164089Y-69870000D01*
X144145785Y-69647361D01*
X144091364Y-69430702D01*
X144002287Y-69225840D01*
X143880947Y-69038277D01*
X143730603Y-68873051D01*
X143726552Y-68869852D01*
X143726548Y-68869848D01*
X143559347Y-68737800D01*
X143559343Y-68737798D01*
X143555292Y-68734598D01*
X143513986Y-68711796D01*
X143464017Y-68661364D01*
X143449245Y-68591921D01*
X143474361Y-68525516D01*
X143501713Y-68498909D01*
X143569988Y-68450209D01*
X143680793Y-68371173D01*
X143730505Y-68321635D01*
X143808839Y-68243574D01*
X143839029Y-68213489D01*
X143898527Y-68130689D01*
X143966368Y-68036277D01*
X143969386Y-68032077D01*
X144068363Y-67831811D01*
X144133303Y-67618069D01*
X144162462Y-67396590D01*
X144164089Y-67330000D01*
X144145785Y-67107361D01*
X144091364Y-66890702D01*
X144002287Y-66685840D01*
X143927164Y-66569717D01*
X143883755Y-66502617D01*
X143883753Y-66502614D01*
X143880947Y-66498277D01*
X143730603Y-66333051D01*
X143726552Y-66329852D01*
X143726548Y-66329848D01*
X143559347Y-66197800D01*
X143559343Y-66197798D01*
X143555292Y-66194598D01*
X143513986Y-66171796D01*
X143464017Y-66121364D01*
X143449245Y-66051921D01*
X143474361Y-65985516D01*
X143501713Y-65958909D01*
X143566043Y-65913023D01*
X143680793Y-65831173D01*
X143839029Y-65673489D01*
X143847559Y-65661619D01*
X143966368Y-65496277D01*
X143969386Y-65492077D01*
X143971807Y-65487180D01*
X144066069Y-65296453D01*
X144066070Y-65296451D01*
X144068363Y-65291811D01*
X144133303Y-65078069D01*
X144162462Y-64856590D01*
X144164089Y-64790000D01*
X144145785Y-64567361D01*
X144091364Y-64350702D01*
X144002287Y-64145840D01*
X143937223Y-64045267D01*
X143883755Y-63962617D01*
X143883753Y-63962614D01*
X143880947Y-63958277D01*
X143730603Y-63793051D01*
X143726552Y-63789852D01*
X143726548Y-63789848D01*
X143655049Y-63733382D01*
X143613986Y-63675465D01*
X143610754Y-63604542D01*
X143646379Y-63543130D01*
X143709551Y-63510728D01*
X143733141Y-63508500D01*
X144365500Y-63508500D01*
X144433621Y-63528502D01*
G37*
%TD.AperFunction*%
%TA.AperFunction,Conductor*%
G36*
X138834532Y-126165538D02*
G01*
X138891368Y-126208085D01*
X138916179Y-126274605D01*
X138916500Y-126283594D01*
X138916500Y-128035405D01*
X138896498Y-128103526D01*
X138879595Y-128124500D01*
X136424500Y-130579595D01*
X136362188Y-130613621D01*
X136335405Y-130616500D01*
X133278500Y-130616500D01*
X133210379Y-130596498D01*
X133163886Y-130542842D01*
X133152500Y-130490500D01*
X133152500Y-130059428D01*
X133152163Y-130056178D01*
X133142419Y-129962265D01*
X133142418Y-129962261D01*
X133141707Y-129955407D01*
X133138304Y-129945205D01*
X133088972Y-129797341D01*
X133086654Y-129790393D01*
X133003197Y-129655528D01*
X132984359Y-129587076D01*
X133005244Y-129520189D01*
X133005929Y-129519503D01*
X133012052Y-129509571D01*
X133093369Y-129377650D01*
X133093370Y-129377648D01*
X133097209Y-129371420D01*
X133151974Y-129206309D01*
X133153256Y-129193803D01*
X133162172Y-129106771D01*
X133162500Y-129103572D01*
X133162500Y-128529428D01*
X133151707Y-128425407D01*
X133134554Y-128373993D01*
X133131970Y-128303044D01*
X133168154Y-128241960D01*
X133231618Y-128210135D01*
X133293745Y-128214524D01*
X133323605Y-128224428D01*
X133414191Y-128254474D01*
X133421027Y-128255174D01*
X133421030Y-128255175D01*
X133471962Y-128260393D01*
X133516928Y-128265000D01*
X134091072Y-128265000D01*
X134094318Y-128264663D01*
X134094322Y-128264663D01*
X134188235Y-128254919D01*
X134188239Y-128254918D01*
X134195093Y-128254207D01*
X134201629Y-128252026D01*
X134201631Y-128252026D01*
X134353159Y-128201472D01*
X134360107Y-128199154D01*
X134508031Y-128107616D01*
X134598611Y-128016877D01*
X134660893Y-127982798D01*
X134677569Y-127980310D01*
X134691970Y-127979139D01*
X134707020Y-127977915D01*
X134717233Y-127977500D01*
X134725293Y-127977500D01*
X134738583Y-127975951D01*
X134753507Y-127974211D01*
X134757882Y-127973778D01*
X134823339Y-127968454D01*
X134823342Y-127968453D01*
X134830637Y-127967860D01*
X134837601Y-127965604D01*
X134843560Y-127964413D01*
X134849415Y-127963029D01*
X134856681Y-127962182D01*
X134925327Y-127937265D01*
X134929455Y-127935848D01*
X134991936Y-127915607D01*
X134991938Y-127915606D01*
X134998899Y-127913351D01*
X135005154Y-127909555D01*
X135010628Y-127907049D01*
X135016058Y-127904330D01*
X135022937Y-127901833D01*
X135073360Y-127868774D01*
X135083976Y-127861814D01*
X135087680Y-127859477D01*
X135150107Y-127821595D01*
X135158484Y-127814197D01*
X135158508Y-127814224D01*
X135161500Y-127811571D01*
X135164733Y-127808868D01*
X135170852Y-127804856D01*
X135224128Y-127748617D01*
X135226506Y-127746175D01*
X135452793Y-127519888D01*
X135515105Y-127485862D01*
X135585920Y-127490927D01*
X135642756Y-127533474D01*
X135667567Y-127599994D01*
X135667087Y-127617686D01*
X135666500Y-127619970D01*
X135666500Y-127640224D01*
X135664949Y-127659934D01*
X135661780Y-127679943D01*
X135662526Y-127687832D01*
X135662661Y-127689259D01*
X135662446Y-127690367D01*
X135662277Y-127695758D01*
X135661407Y-127695731D01*
X135649159Y-127758960D01*
X135630860Y-127785424D01*
X135560960Y-127863056D01*
X135510561Y-127950350D01*
X135472151Y-128016878D01*
X135465473Y-128028444D01*
X135406458Y-128210072D01*
X135405768Y-128216633D01*
X135405768Y-128216635D01*
X135401169Y-128260393D01*
X135386496Y-128400000D01*
X135387186Y-128406565D01*
X135402875Y-128555833D01*
X135406458Y-128589928D01*
X135465473Y-128771556D01*
X135468776Y-128777278D01*
X135468777Y-128777279D01*
X135497373Y-128826808D01*
X135560960Y-128936944D01*
X135565378Y-128941851D01*
X135565379Y-128941852D01*
X135589634Y-128968790D01*
X135688747Y-129078866D01*
X135843248Y-129191118D01*
X135849276Y-129193802D01*
X135849278Y-129193803D01*
X136011681Y-129266109D01*
X136017712Y-129268794D01*
X136111113Y-129288647D01*
X136198056Y-129307128D01*
X136198061Y-129307128D01*
X136204513Y-129308500D01*
X136395487Y-129308500D01*
X136401939Y-129307128D01*
X136401944Y-129307128D01*
X136488887Y-129288647D01*
X136582288Y-129268794D01*
X136588319Y-129266109D01*
X136750722Y-129193803D01*
X136750724Y-129193802D01*
X136756752Y-129191118D01*
X136911253Y-129078866D01*
X137010366Y-128968790D01*
X137034621Y-128941852D01*
X137034622Y-128941851D01*
X137039040Y-128936944D01*
X137102627Y-128826808D01*
X137131223Y-128777279D01*
X137131224Y-128777278D01*
X137134527Y-128771556D01*
X137193542Y-128589928D01*
X137197126Y-128555833D01*
X137212814Y-128406565D01*
X137213504Y-128400000D01*
X137198831Y-128260393D01*
X137194232Y-128216635D01*
X137194232Y-128216633D01*
X137193542Y-128210072D01*
X137134527Y-128028444D01*
X137127850Y-128016878D01*
X137085115Y-127942860D01*
X137068377Y-127873865D01*
X137091597Y-127806773D01*
X137105139Y-127790765D01*
X138701405Y-126194499D01*
X138763717Y-126160473D01*
X138834532Y-126165538D01*
G37*
%TD.AperFunction*%
%TA.AperFunction,Conductor*%
G36*
X133129450Y-98770622D02*
G01*
X133186285Y-98813169D01*
X133211096Y-98879689D01*
X133211417Y-98888678D01*
X133211417Y-100011000D01*
X133191415Y-100079121D01*
X133137759Y-100125614D01*
X133085417Y-100137000D01*
X132772115Y-100137000D01*
X132756876Y-100141475D01*
X132755671Y-100142865D01*
X132754000Y-100150548D01*
X132754000Y-102934884D01*
X132758475Y-102950123D01*
X132759865Y-102951328D01*
X132767548Y-102952999D01*
X133444669Y-102952999D01*
X133451490Y-102952629D01*
X133502352Y-102947105D01*
X133517604Y-102943479D01*
X133638054Y-102898324D01*
X133653649Y-102889786D01*
X133755724Y-102813285D01*
X133768285Y-102800724D01*
X133844786Y-102698649D01*
X133853325Y-102683052D01*
X133865278Y-102651167D01*
X133907919Y-102594402D01*
X133974480Y-102569702D01*
X134043829Y-102584909D01*
X134063741Y-102598448D01*
X134189349Y-102702730D01*
X134389322Y-102819584D01*
X134394147Y-102821426D01*
X134394148Y-102821427D01*
X134468665Y-102849883D01*
X134605694Y-102902209D01*
X134610760Y-102903240D01*
X134610761Y-102903240D01*
X134663846Y-102914040D01*
X134832656Y-102948385D01*
X134963324Y-102953176D01*
X135058949Y-102956683D01*
X135058953Y-102956683D01*
X135064113Y-102956872D01*
X135069233Y-102956216D01*
X135069235Y-102956216D01*
X135168660Y-102943479D01*
X135293847Y-102927442D01*
X135429294Y-102886806D01*
X135500288Y-102886390D01*
X135560238Y-102924422D01*
X135590110Y-102988828D01*
X135591500Y-103007492D01*
X135591500Y-120070643D01*
X135571498Y-120138764D01*
X135517842Y-120185257D01*
X135447568Y-120195361D01*
X135430991Y-120191278D01*
X135430903Y-120191609D01*
X135425900Y-120190287D01*
X135421028Y-120188562D01*
X135415939Y-120187655D01*
X135415937Y-120187655D01*
X135198095Y-120148851D01*
X135198089Y-120148850D01*
X135193006Y-120147945D01*
X135115644Y-120147000D01*
X134966581Y-120145179D01*
X134966579Y-120145179D01*
X134961411Y-120145116D01*
X134732464Y-120180150D01*
X134512314Y-120252106D01*
X134507726Y-120254494D01*
X134507722Y-120254496D01*
X134319145Y-120352663D01*
X134306872Y-120359052D01*
X134302739Y-120362155D01*
X134302736Y-120362157D01*
X134125789Y-120495013D01*
X134121655Y-120498117D01*
X134121066Y-120497333D01*
X134061346Y-120525484D01*
X133990955Y-120516231D01*
X133936741Y-120470391D01*
X133923925Y-120445224D01*
X133913323Y-120416944D01*
X133904786Y-120401351D01*
X133828285Y-120299276D01*
X133815724Y-120286715D01*
X133713649Y-120210214D01*
X133698054Y-120201676D01*
X133577606Y-120156522D01*
X133562351Y-120152895D01*
X133511486Y-120147369D01*
X133504672Y-120147000D01*
X132832115Y-120147000D01*
X132816876Y-120151475D01*
X132815671Y-120152865D01*
X132814000Y-120160548D01*
X132814000Y-122944884D01*
X132818475Y-122960123D01*
X132819865Y-122961328D01*
X132827548Y-122962999D01*
X133504669Y-122962999D01*
X133511490Y-122962629D01*
X133562352Y-122957105D01*
X133577604Y-122953479D01*
X133698054Y-122908324D01*
X133713649Y-122899786D01*
X133815724Y-122823285D01*
X133828285Y-122810724D01*
X133904786Y-122708649D01*
X133913325Y-122693052D01*
X133925278Y-122661167D01*
X133967919Y-122604402D01*
X134034480Y-122579702D01*
X134103829Y-122594909D01*
X134123741Y-122608448D01*
X134249349Y-122712730D01*
X134449322Y-122829584D01*
X134665694Y-122912209D01*
X134670760Y-122913240D01*
X134670761Y-122913240D01*
X134723846Y-122924040D01*
X134892656Y-122958385D01*
X135018489Y-122962999D01*
X135118949Y-122966683D01*
X135118953Y-122966683D01*
X135124113Y-122966872D01*
X135129233Y-122966216D01*
X135129235Y-122966216D01*
X135228660Y-122953479D01*
X135353847Y-122937442D01*
X135358795Y-122935957D01*
X135358802Y-122935956D01*
X135570747Y-122872369D01*
X135575690Y-122870886D01*
X135622741Y-122847836D01*
X135779049Y-122771262D01*
X135779052Y-122771260D01*
X135783684Y-122768991D01*
X135972243Y-122634494D01*
X136136303Y-122471005D01*
X136205370Y-122374888D01*
X136261365Y-122331240D01*
X136332068Y-122324794D01*
X136395033Y-122357597D01*
X136415128Y-122382584D01*
X136416799Y-122385311D01*
X136416804Y-122385317D01*
X136419501Y-122389719D01*
X136571147Y-122564784D01*
X136575122Y-122568084D01*
X136575125Y-122568087D01*
X136695985Y-122668427D01*
X136735620Y-122727330D01*
X136741500Y-122765371D01*
X136741500Y-124033629D01*
X136721498Y-124101750D01*
X136704595Y-124122724D01*
X134999401Y-125827918D01*
X134937089Y-125861944D01*
X134866274Y-125856879D01*
X134809438Y-125814332D01*
X134789410Y-125774322D01*
X134782525Y-125750876D01*
X134781135Y-125749671D01*
X134773452Y-125748000D01*
X133676000Y-125748000D01*
X133607879Y-125727998D01*
X133561386Y-125674342D01*
X133550000Y-125622000D01*
X133550000Y-125221885D01*
X134058000Y-125221885D01*
X134062475Y-125237124D01*
X134063865Y-125238329D01*
X134071548Y-125240000D01*
X134768885Y-125240000D01*
X134784124Y-125235525D01*
X134785329Y-125234135D01*
X134787000Y-125226452D01*
X134787000Y-125147734D01*
X134786663Y-125141218D01*
X134776925Y-125047368D01*
X134774032Y-125033972D01*
X134723512Y-124882547D01*
X134717347Y-124869385D01*
X134633574Y-124734008D01*
X134624540Y-124722610D01*
X134511871Y-124610137D01*
X134500460Y-124601125D01*
X134364937Y-124517588D01*
X134351759Y-124511444D01*
X134200234Y-124461185D01*
X134186868Y-124458319D01*
X134094230Y-124448828D01*
X134087815Y-124448500D01*
X134076115Y-124448500D01*
X134060876Y-124452975D01*
X134059671Y-124454365D01*
X134058000Y-124462048D01*
X134058000Y-125221885D01*
X133550000Y-125221885D01*
X133550000Y-124466615D01*
X133545525Y-124451376D01*
X133544135Y-124450171D01*
X133536452Y-124448500D01*
X133520234Y-124448500D01*
X133513718Y-124448837D01*
X133419868Y-124458575D01*
X133406472Y-124461468D01*
X133255047Y-124511988D01*
X133235255Y-124521259D01*
X133234308Y-124519237D01*
X133176346Y-124535185D01*
X133108577Y-124514021D01*
X133063008Y-124459578D01*
X133052500Y-124409203D01*
X133052500Y-124239998D01*
X133052307Y-124237542D01*
X133050067Y-124209079D01*
X133050066Y-124209074D01*
X133049562Y-124202669D01*
X133015614Y-124085819D01*
X133005357Y-124050512D01*
X133005356Y-124050510D01*
X133003145Y-124042899D01*
X132986107Y-124014089D01*
X132922491Y-123906520D01*
X132922489Y-123906517D01*
X132918453Y-123899693D01*
X132861012Y-123842252D01*
X132834468Y-123803194D01*
X132832231Y-123798024D01*
X132830018Y-123790407D01*
X132825981Y-123783581D01*
X132825979Y-123783576D01*
X132819706Y-123772968D01*
X132811010Y-123755218D01*
X132806472Y-123743756D01*
X132806469Y-123743751D01*
X132803552Y-123736383D01*
X132777573Y-123700625D01*
X132771057Y-123690707D01*
X132752575Y-123659457D01*
X132748542Y-123652637D01*
X132734218Y-123638313D01*
X132721376Y-123623278D01*
X132709472Y-123606893D01*
X132675406Y-123578711D01*
X132666627Y-123570722D01*
X132261041Y-123165136D01*
X132227015Y-123102824D01*
X132232080Y-123032009D01*
X132274627Y-122975173D01*
X132299478Y-122962733D01*
X132304329Y-122957135D01*
X132306000Y-122949452D01*
X132306000Y-120165116D01*
X132301525Y-120149877D01*
X132300135Y-120148672D01*
X132292452Y-120147001D01*
X131859500Y-120147001D01*
X131791379Y-120126999D01*
X131744886Y-120073343D01*
X131733500Y-120021001D01*
X131733500Y-119414594D01*
X131753502Y-119346473D01*
X131770405Y-119325499D01*
X132692247Y-118403657D01*
X132700537Y-118396113D01*
X132707018Y-118392000D01*
X132753659Y-118342332D01*
X132756413Y-118339491D01*
X132776134Y-118319770D01*
X132778612Y-118316575D01*
X132786318Y-118307553D01*
X132811158Y-118281101D01*
X132816586Y-118275321D01*
X132826346Y-118257568D01*
X132837199Y-118241045D01*
X132844753Y-118231306D01*
X132849613Y-118225041D01*
X132867176Y-118184457D01*
X132872383Y-118173827D01*
X132893695Y-118135060D01*
X132895666Y-118127383D01*
X132895668Y-118127378D01*
X132898732Y-118115442D01*
X132905138Y-118096730D01*
X132910033Y-118085419D01*
X132913181Y-118078145D01*
X132914421Y-118070317D01*
X132914423Y-118070310D01*
X132920099Y-118034476D01*
X132922505Y-118022856D01*
X132931528Y-117987711D01*
X132931528Y-117987710D01*
X132933500Y-117980030D01*
X132933500Y-117959776D01*
X132935051Y-117940065D01*
X132936980Y-117927886D01*
X132938220Y-117920057D01*
X132934059Y-117876038D01*
X132933500Y-117864181D01*
X132933500Y-112578767D01*
X132934027Y-112567584D01*
X132935702Y-112560091D01*
X132933562Y-112492014D01*
X132933500Y-112488055D01*
X132933500Y-112460144D01*
X132932995Y-112456144D01*
X132932062Y-112444301D01*
X132930922Y-112408030D01*
X132930673Y-112400111D01*
X132925021Y-112380657D01*
X132921013Y-112361300D01*
X132919468Y-112349070D01*
X132919468Y-112349069D01*
X132918474Y-112341203D01*
X132915555Y-112333830D01*
X132902196Y-112300088D01*
X132898351Y-112288858D01*
X132888229Y-112254017D01*
X132888229Y-112254016D01*
X132886018Y-112246407D01*
X132881985Y-112239588D01*
X132881983Y-112239583D01*
X132875707Y-112228972D01*
X132867012Y-112211224D01*
X132859552Y-112192383D01*
X132833564Y-112156613D01*
X132827048Y-112146693D01*
X132808580Y-112115465D01*
X132808578Y-112115462D01*
X132804542Y-112108638D01*
X132790221Y-112094317D01*
X132777380Y-112079283D01*
X132770131Y-112069306D01*
X132765472Y-112062893D01*
X132731395Y-112034702D01*
X132722616Y-112026712D01*
X131570405Y-110874500D01*
X131536379Y-110812188D01*
X131533500Y-110785405D01*
X131533500Y-103079000D01*
X131553502Y-103010879D01*
X131607158Y-102964386D01*
X131659500Y-102953000D01*
X132227885Y-102953000D01*
X132243124Y-102948525D01*
X132244329Y-102947135D01*
X132246000Y-102939452D01*
X132246000Y-100155116D01*
X132241525Y-100139877D01*
X132240135Y-100138672D01*
X132232452Y-100137001D01*
X131963093Y-100137001D01*
X131894972Y-100116999D01*
X131848479Y-100063343D01*
X131838375Y-99993069D01*
X131867869Y-99928489D01*
X131873998Y-99921906D01*
X132421584Y-99374321D01*
X132996322Y-98799583D01*
X133058634Y-98765557D01*
X133129450Y-98770622D01*
G37*
%TD.AperFunction*%
%TA.AperFunction,Conductor*%
G36*
X132188072Y-94669097D02*
G01*
X132243599Y-94713338D01*
X132266500Y-94785771D01*
X132266500Y-97685406D01*
X132246498Y-97753527D01*
X132229595Y-97774501D01*
X130507747Y-99496348D01*
X130499461Y-99503888D01*
X130492982Y-99508000D01*
X130487557Y-99513777D01*
X130446357Y-99557651D01*
X130443602Y-99560493D01*
X130423865Y-99580230D01*
X130421385Y-99583427D01*
X130413682Y-99592447D01*
X130383414Y-99624679D01*
X130379595Y-99631625D01*
X130379593Y-99631628D01*
X130373652Y-99642434D01*
X130362801Y-99658953D01*
X130350386Y-99674959D01*
X130347241Y-99682228D01*
X130347238Y-99682232D01*
X130332826Y-99715537D01*
X130327609Y-99726187D01*
X130306305Y-99764940D01*
X130304334Y-99772615D01*
X130304334Y-99772616D01*
X130301267Y-99784562D01*
X130294863Y-99803266D01*
X130286819Y-99821855D01*
X130285580Y-99829678D01*
X130285577Y-99829688D01*
X130279901Y-99865524D01*
X130277495Y-99877144D01*
X130268472Y-99912289D01*
X130266500Y-99919970D01*
X130266500Y-99940224D01*
X130264949Y-99959934D01*
X130261780Y-99979943D01*
X130262526Y-99987835D01*
X130265941Y-100023961D01*
X130266500Y-100035819D01*
X130266500Y-111021233D01*
X130265973Y-111032416D01*
X130264298Y-111039909D01*
X130264547Y-111047835D01*
X130264547Y-111047836D01*
X130266438Y-111107986D01*
X130266500Y-111111945D01*
X130266500Y-111139856D01*
X130266997Y-111143790D01*
X130266997Y-111143791D01*
X130267005Y-111143856D01*
X130267938Y-111155693D01*
X130269327Y-111199889D01*
X130274978Y-111219339D01*
X130278987Y-111238700D01*
X130281526Y-111258797D01*
X130284445Y-111266168D01*
X130284445Y-111266170D01*
X130297804Y-111299912D01*
X130301649Y-111311142D01*
X130303929Y-111318990D01*
X130313982Y-111353593D01*
X130318015Y-111360412D01*
X130318017Y-111360417D01*
X130324293Y-111371028D01*
X130332988Y-111388776D01*
X130340448Y-111407617D01*
X130345110Y-111414033D01*
X130345110Y-111414034D01*
X130366436Y-111443387D01*
X130372952Y-111453307D01*
X130388757Y-111480031D01*
X130395458Y-111491362D01*
X130409779Y-111505683D01*
X130422619Y-111520716D01*
X130434528Y-111537107D01*
X130440632Y-111542157D01*
X130440637Y-111542162D01*
X130468598Y-111565293D01*
X130477378Y-111573283D01*
X130632997Y-111728902D01*
X130667023Y-111791214D01*
X130661958Y-111862029D01*
X130619411Y-111918865D01*
X130552891Y-111943676D01*
X130519537Y-111941619D01*
X130492797Y-111936349D01*
X130488322Y-111935467D01*
X130483768Y-111935240D01*
X130483766Y-111935240D01*
X130222064Y-111922211D01*
X130222058Y-111922211D01*
X130217495Y-111921984D01*
X129947559Y-111947738D01*
X129943130Y-111948822D01*
X129943123Y-111948823D01*
X129813069Y-111980648D01*
X129684168Y-112012190D01*
X129679933Y-112013905D01*
X129679931Y-112013906D01*
X129437069Y-112112275D01*
X129432840Y-112113988D01*
X129236972Y-112228673D01*
X129218340Y-112239583D01*
X129198839Y-112251001D01*
X129151501Y-112288858D01*
X129124128Y-112310749D01*
X129058435Y-112337673D01*
X128988614Y-112324807D01*
X128936832Y-112276236D01*
X128919433Y-112212346D01*
X128919433Y-112151866D01*
X128912678Y-112089684D01*
X128861548Y-111953295D01*
X128774194Y-111836739D01*
X128657638Y-111749385D01*
X128603000Y-111728902D01*
X128539136Y-111704960D01*
X128482372Y-111662318D01*
X128457672Y-111595756D01*
X128472880Y-111526408D01*
X128494426Y-111497727D01*
X128512184Y-111480031D01*
X128599029Y-111393489D01*
X128658527Y-111310689D01*
X128726368Y-111216277D01*
X128729386Y-111212077D01*
X128739324Y-111191970D01*
X128826069Y-111016453D01*
X128826070Y-111016451D01*
X128828363Y-111011811D01*
X128893303Y-110798069D01*
X128922462Y-110576590D01*
X128924089Y-110510000D01*
X128905785Y-110287361D01*
X128851364Y-110070702D01*
X128762287Y-109865840D01*
X128640947Y-109678277D01*
X128490603Y-109513051D01*
X128486552Y-109509852D01*
X128486548Y-109509848D01*
X128319347Y-109377800D01*
X128319343Y-109377798D01*
X128315292Y-109374598D01*
X128273986Y-109351796D01*
X128224017Y-109301364D01*
X128209245Y-109231921D01*
X128234361Y-109165516D01*
X128261713Y-109138909D01*
X128305536Y-109107650D01*
X128440793Y-109011173D01*
X128599029Y-108853489D01*
X128658527Y-108770689D01*
X128726368Y-108676277D01*
X128729386Y-108672077D01*
X128828363Y-108471811D01*
X128893303Y-108258069D01*
X128922462Y-108036590D01*
X128924089Y-107970000D01*
X128905785Y-107747361D01*
X128851364Y-107530702D01*
X128762287Y-107325840D01*
X128640947Y-107138277D01*
X128490603Y-106973051D01*
X128486552Y-106969852D01*
X128486548Y-106969848D01*
X128319347Y-106837800D01*
X128319343Y-106837798D01*
X128315292Y-106834598D01*
X128273986Y-106811796D01*
X128224017Y-106761364D01*
X128209245Y-106691921D01*
X128234361Y-106625516D01*
X128261713Y-106598909D01*
X128305536Y-106567650D01*
X128440793Y-106471173D01*
X128599029Y-106313489D01*
X128658527Y-106230689D01*
X128726368Y-106136277D01*
X128729386Y-106132077D01*
X128811503Y-105965926D01*
X128826069Y-105936453D01*
X128826070Y-105936451D01*
X128828363Y-105931811D01*
X128860833Y-105824940D01*
X128891798Y-105723023D01*
X128891798Y-105723021D01*
X128893303Y-105718069D01*
X128922462Y-105496590D01*
X128924089Y-105430000D01*
X128905785Y-105207361D01*
X128851364Y-104990702D01*
X128762287Y-104785840D01*
X128640947Y-104598277D01*
X128490603Y-104433051D01*
X128486552Y-104429852D01*
X128486548Y-104429848D01*
X128319347Y-104297800D01*
X128319343Y-104297798D01*
X128315292Y-104294598D01*
X128273986Y-104271796D01*
X128224017Y-104221364D01*
X128209245Y-104151921D01*
X128234361Y-104085516D01*
X128261713Y-104058909D01*
X128305536Y-104027650D01*
X128440793Y-103931173D01*
X128599029Y-103773489D01*
X128658527Y-103690689D01*
X128726368Y-103596277D01*
X128729386Y-103592077D01*
X128828363Y-103391811D01*
X128893303Y-103178069D01*
X128922462Y-102956590D01*
X128922659Y-102948525D01*
X128924007Y-102893365D01*
X128924007Y-102893361D01*
X128924089Y-102890000D01*
X128905785Y-102667361D01*
X128851364Y-102450702D01*
X128762287Y-102245840D01*
X128721140Y-102182237D01*
X128643755Y-102062617D01*
X128643753Y-102062614D01*
X128640947Y-102058277D01*
X128490603Y-101893051D01*
X128486552Y-101889852D01*
X128486548Y-101889848D01*
X128319347Y-101757800D01*
X128319343Y-101757798D01*
X128315292Y-101754598D01*
X128273986Y-101731796D01*
X128224017Y-101681364D01*
X128209245Y-101611921D01*
X128234361Y-101545516D01*
X128261713Y-101518909D01*
X128305536Y-101487650D01*
X128440793Y-101391173D01*
X128599029Y-101233489D01*
X128658527Y-101150689D01*
X128726368Y-101056277D01*
X128729386Y-101052077D01*
X128828363Y-100851811D01*
X128893303Y-100638069D01*
X128922462Y-100416590D01*
X128922544Y-100413240D01*
X128924007Y-100353365D01*
X128924007Y-100353361D01*
X128924089Y-100350000D01*
X128905785Y-100127361D01*
X128851364Y-99910702D01*
X128762287Y-99705840D01*
X128686969Y-99589416D01*
X128643755Y-99522617D01*
X128643753Y-99522614D01*
X128640947Y-99518277D01*
X128490603Y-99353051D01*
X128486552Y-99349852D01*
X128486548Y-99349848D01*
X128319347Y-99217800D01*
X128319343Y-99217798D01*
X128315292Y-99214598D01*
X128273986Y-99191796D01*
X128224017Y-99141364D01*
X128209245Y-99071921D01*
X128234361Y-99005516D01*
X128261713Y-98978909D01*
X128305536Y-98947650D01*
X128440793Y-98851173D01*
X128599029Y-98693489D01*
X128658527Y-98610689D01*
X128726368Y-98516277D01*
X128729386Y-98512077D01*
X128828363Y-98311811D01*
X128893303Y-98098069D01*
X128922462Y-97876590D01*
X128924089Y-97810000D01*
X128905785Y-97587361D01*
X128851364Y-97370702D01*
X128762287Y-97165840D01*
X128640947Y-96978277D01*
X128490603Y-96813051D01*
X128486552Y-96809852D01*
X128486548Y-96809848D01*
X128319347Y-96677800D01*
X128319343Y-96677798D01*
X128315292Y-96674598D01*
X128273986Y-96651796D01*
X128224017Y-96601364D01*
X128209245Y-96531921D01*
X128234361Y-96465516D01*
X128261713Y-96438909D01*
X128305536Y-96407650D01*
X128440793Y-96311173D01*
X128599029Y-96153489D01*
X128628141Y-96112976D01*
X128726368Y-95976277D01*
X128729386Y-95972077D01*
X128767210Y-95895547D01*
X128818111Y-95792555D01*
X128866224Y-95740348D01*
X128934926Y-95722441D01*
X129005218Y-95746511D01*
X129209972Y-95895547D01*
X129449947Y-96021804D01*
X129454248Y-96023323D01*
X129454253Y-96023325D01*
X129587087Y-96070233D01*
X129705634Y-96112096D01*
X129803653Y-96131415D01*
X129967206Y-96163652D01*
X129967212Y-96163653D01*
X129971678Y-96164533D01*
X129976232Y-96164760D01*
X129976234Y-96164760D01*
X130237936Y-96177789D01*
X130237942Y-96177789D01*
X130242505Y-96178016D01*
X130512441Y-96152262D01*
X130516870Y-96151178D01*
X130516877Y-96151177D01*
X130676584Y-96112096D01*
X130775832Y-96087810D01*
X130807242Y-96075088D01*
X131022931Y-95987725D01*
X131022932Y-95987725D01*
X131027160Y-95986012D01*
X131261161Y-95848999D01*
X131472932Y-95679641D01*
X131591291Y-95552939D01*
X131654921Y-95484824D01*
X131654923Y-95484821D01*
X131658037Y-95481488D01*
X131812598Y-95258688D01*
X131814627Y-95254610D01*
X131931346Y-95019997D01*
X131931347Y-95019994D01*
X131933379Y-95015910D01*
X131994093Y-94830702D01*
X132016427Y-94762573D01*
X132016428Y-94762568D01*
X132017847Y-94758240D01*
X132018409Y-94755005D01*
X132054131Y-94694030D01*
X132117441Y-94661899D01*
X132188072Y-94669097D01*
G37*
%TD.AperFunction*%
%TA.AperFunction,Conductor*%
G36*
X136653292Y-92131192D02*
G01*
X136712277Y-92170705D01*
X136740536Y-92235836D01*
X136741500Y-92251391D01*
X136741500Y-99541405D01*
X136721498Y-99609526D01*
X136667842Y-99656019D01*
X136597568Y-99666123D01*
X136532988Y-99636629D01*
X136526405Y-99630500D01*
X135170405Y-98274500D01*
X135136379Y-98212188D01*
X135133500Y-98185405D01*
X135133500Y-92488061D01*
X135153502Y-92419940D01*
X135208251Y-92372954D01*
X135342380Y-92313236D01*
X135348413Y-92310550D01*
X135352768Y-92307386D01*
X135421322Y-92290755D01*
X135466576Y-92301505D01*
X135611677Y-92366108D01*
X135611685Y-92366111D01*
X135617712Y-92368794D01*
X135709132Y-92388226D01*
X135798056Y-92407128D01*
X135798061Y-92407128D01*
X135804513Y-92408500D01*
X135995487Y-92408500D01*
X136001939Y-92407128D01*
X136001944Y-92407128D01*
X136090868Y-92388226D01*
X136182288Y-92368794D01*
X136215449Y-92354030D01*
X136350722Y-92293803D01*
X136350724Y-92293802D01*
X136356752Y-92291118D01*
X136511253Y-92178866D01*
X136521864Y-92167082D01*
X136582308Y-92129841D01*
X136653292Y-92131192D01*
G37*
%TD.AperFunction*%
%TA.AperFunction,Conductor*%
G36*
X141509089Y-75410941D02*
G01*
X141540009Y-75455789D01*
X141584199Y-75564616D01*
X141586898Y-75569020D01*
X141695333Y-75745970D01*
X141700920Y-75755088D01*
X141847183Y-75923938D01*
X142019059Y-76066632D01*
X142089528Y-76107811D01*
X142092378Y-76109476D01*
X142141102Y-76161114D01*
X142154173Y-76230897D01*
X142127442Y-76296669D01*
X142086988Y-76330027D01*
X142074540Y-76336507D01*
X142070407Y-76339610D01*
X142070404Y-76339612D01*
X142046180Y-76357800D01*
X141895898Y-76470635D01*
X141741562Y-76632138D01*
X141615676Y-76816680D01*
X141521621Y-77019305D01*
X141461922Y-77234570D01*
X141438184Y-77456695D01*
X141438481Y-77461848D01*
X141438481Y-77461851D01*
X141443944Y-77556590D01*
X141451043Y-77679715D01*
X141452180Y-77684761D01*
X141452181Y-77684767D01*
X141472052Y-77772939D01*
X141500155Y-77897639D01*
X141584199Y-78104616D01*
X141700920Y-78295088D01*
X141847183Y-78463938D01*
X142019059Y-78606632D01*
X142089528Y-78647811D01*
X142092378Y-78649476D01*
X142141102Y-78701114D01*
X142154173Y-78770897D01*
X142127442Y-78836669D01*
X142086988Y-78870027D01*
X142074540Y-78876507D01*
X142070407Y-78879610D01*
X142070404Y-78879612D01*
X142046180Y-78897800D01*
X141895898Y-79010635D01*
X141741562Y-79172138D01*
X141615676Y-79356680D01*
X141521621Y-79559305D01*
X141461922Y-79774570D01*
X141438184Y-79996695D01*
X141438481Y-80001848D01*
X141438481Y-80001851D01*
X141447895Y-80165116D01*
X141451043Y-80219715D01*
X141452180Y-80224761D01*
X141452181Y-80224767D01*
X141465150Y-80282312D01*
X141500155Y-80437639D01*
X141584199Y-80644616D01*
X141611298Y-80688838D01*
X141666657Y-80779175D01*
X141700920Y-80835088D01*
X141847183Y-81003938D01*
X142019059Y-81146632D01*
X142089528Y-81187811D01*
X142092378Y-81189476D01*
X142141102Y-81241114D01*
X142154173Y-81310897D01*
X142127442Y-81376669D01*
X142086988Y-81410027D01*
X142074540Y-81416507D01*
X142070407Y-81419610D01*
X142070404Y-81419612D01*
X142046180Y-81437800D01*
X141895898Y-81550635D01*
X141741562Y-81712138D01*
X141615676Y-81896680D01*
X141521621Y-82099305D01*
X141461922Y-82314570D01*
X141438184Y-82536695D01*
X141438481Y-82541848D01*
X141438481Y-82541851D01*
X141443996Y-82637492D01*
X141451043Y-82759715D01*
X141452180Y-82764761D01*
X141452181Y-82764767D01*
X141465369Y-82823285D01*
X141500155Y-82977639D01*
X141584199Y-83184616D01*
X141700920Y-83375088D01*
X141847183Y-83543938D01*
X142019059Y-83686632D01*
X142089528Y-83727811D01*
X142092378Y-83729476D01*
X142141102Y-83781114D01*
X142154173Y-83850897D01*
X142127442Y-83916669D01*
X142086988Y-83950027D01*
X142074540Y-83956507D01*
X142070407Y-83959610D01*
X142070404Y-83959612D01*
X142046180Y-83977800D01*
X141895898Y-84090635D01*
X141741562Y-84252138D01*
X141615676Y-84436680D01*
X141521621Y-84639305D01*
X141461922Y-84854570D01*
X141438184Y-85076695D01*
X141438481Y-85081848D01*
X141438481Y-85081851D01*
X141443944Y-85176590D01*
X141451043Y-85299715D01*
X141452180Y-85304761D01*
X141452181Y-85304767D01*
X141472052Y-85392939D01*
X141500155Y-85517639D01*
X141584199Y-85724616D01*
X141700920Y-85915088D01*
X141847183Y-86083938D01*
X142019059Y-86226632D01*
X142089528Y-86267811D01*
X142092378Y-86269476D01*
X142141102Y-86321114D01*
X142154173Y-86390897D01*
X142127442Y-86456669D01*
X142086988Y-86490027D01*
X142074540Y-86496507D01*
X142070407Y-86499610D01*
X142070404Y-86499612D01*
X142046180Y-86517800D01*
X141895898Y-86630635D01*
X141741562Y-86792138D01*
X141615676Y-86976680D01*
X141521621Y-87179305D01*
X141461922Y-87394570D01*
X141438184Y-87616695D01*
X141438481Y-87621848D01*
X141438481Y-87621851D01*
X141443944Y-87716590D01*
X141451043Y-87839715D01*
X141452180Y-87844761D01*
X141452181Y-87844767D01*
X141472052Y-87932939D01*
X141500155Y-88057639D01*
X141584199Y-88264616D01*
X141700920Y-88455088D01*
X141847183Y-88623938D01*
X142019059Y-88766632D01*
X142089528Y-88807811D01*
X142092378Y-88809476D01*
X142141102Y-88861114D01*
X142154173Y-88930897D01*
X142127442Y-88996669D01*
X142086988Y-89030027D01*
X142074540Y-89036507D01*
X142070407Y-89039610D01*
X142070404Y-89039612D01*
X142046180Y-89057800D01*
X141895898Y-89170635D01*
X141741562Y-89332138D01*
X141615676Y-89516680D01*
X141521621Y-89719305D01*
X141461922Y-89934570D01*
X141438184Y-90156695D01*
X141438481Y-90161848D01*
X141438481Y-90161851D01*
X141443944Y-90256590D01*
X141451043Y-90379715D01*
X141452180Y-90384761D01*
X141452181Y-90384767D01*
X141463437Y-90434712D01*
X141500155Y-90597639D01*
X141538394Y-90691811D01*
X141570606Y-90771139D01*
X141584199Y-90804616D01*
X141700920Y-90995088D01*
X141847183Y-91163938D01*
X142019059Y-91306632D01*
X142089528Y-91347811D01*
X142092378Y-91349476D01*
X142141102Y-91401114D01*
X142154173Y-91470897D01*
X142127442Y-91536669D01*
X142086988Y-91570027D01*
X142074540Y-91576507D01*
X142070407Y-91579610D01*
X142070404Y-91579612D01*
X142046180Y-91597800D01*
X141895898Y-91710635D01*
X141741562Y-91872138D01*
X141615676Y-92056680D01*
X141592646Y-92106295D01*
X141525295Y-92251391D01*
X141521621Y-92259305D01*
X141461922Y-92474570D01*
X141461373Y-92479707D01*
X141461371Y-92479718D01*
X141457271Y-92518079D01*
X141430143Y-92583689D01*
X141371851Y-92624216D01*
X141300901Y-92626795D01*
X141239820Y-92590605D01*
X141231832Y-92581143D01*
X141203167Y-92543583D01*
X141009264Y-92354030D01*
X140964672Y-92321572D01*
X140793721Y-92197141D01*
X140790028Y-92194453D01*
X140550053Y-92068196D01*
X140545752Y-92066677D01*
X140545747Y-92066675D01*
X140367998Y-92003906D01*
X140294366Y-91977904D01*
X140196347Y-91958585D01*
X140032794Y-91926348D01*
X140032788Y-91926347D01*
X140028322Y-91925467D01*
X140023768Y-91925240D01*
X140023766Y-91925240D01*
X139762064Y-91912211D01*
X139762058Y-91912211D01*
X139757495Y-91911984D01*
X139487559Y-91937738D01*
X139483130Y-91938822D01*
X139483123Y-91938823D01*
X139353069Y-91970648D01*
X139224168Y-92002190D01*
X139219933Y-92003905D01*
X139219931Y-92003906D01*
X139005918Y-92090590D01*
X138972840Y-92103988D01*
X138738839Y-92241001D01*
X138681247Y-92287059D01*
X138543993Y-92396824D01*
X138527068Y-92410359D01*
X138476573Y-92464413D01*
X138415457Y-92500537D01*
X138344510Y-92497884D01*
X138286259Y-92457296D01*
X138259200Y-92391659D01*
X138258500Y-92378399D01*
X138258500Y-82823318D01*
X138278502Y-82755197D01*
X138311331Y-82720739D01*
X138318900Y-82715340D01*
X138432243Y-82634494D01*
X138596303Y-82471005D01*
X138731458Y-82282917D01*
X138809034Y-82125954D01*
X138831784Y-82079922D01*
X138831785Y-82079920D01*
X138834078Y-82075280D01*
X138901408Y-81853671D01*
X138931640Y-81624041D01*
X138933327Y-81555000D01*
X138927032Y-81478434D01*
X138914773Y-81329318D01*
X138914772Y-81329312D01*
X138914349Y-81324167D01*
X138870411Y-81149242D01*
X138859184Y-81104544D01*
X138859183Y-81104540D01*
X138857925Y-81099533D01*
X138855866Y-81094797D01*
X138767630Y-80891868D01*
X138767628Y-80891865D01*
X138765570Y-80887131D01*
X138639764Y-80692665D01*
X138483887Y-80521358D01*
X138479836Y-80518159D01*
X138479832Y-80518155D01*
X138306408Y-80381194D01*
X138265345Y-80323277D01*
X138258500Y-80282312D01*
X138258500Y-75701012D01*
X138278502Y-75632891D01*
X138332158Y-75586398D01*
X138402432Y-75576294D01*
X138467012Y-75605788D01*
X138472572Y-75610906D01*
X138610736Y-75745970D01*
X138614428Y-75748657D01*
X138614430Y-75748659D01*
X138735986Y-75837137D01*
X138829972Y-75905547D01*
X139069947Y-76031804D01*
X139074248Y-76033323D01*
X139074253Y-76033325D01*
X139159213Y-76063327D01*
X139325634Y-76122096D01*
X139423653Y-76141415D01*
X139587206Y-76173652D01*
X139587212Y-76173653D01*
X139591678Y-76174533D01*
X139596232Y-76174760D01*
X139596234Y-76174760D01*
X139857936Y-76187789D01*
X139857942Y-76187789D01*
X139862505Y-76188016D01*
X140132441Y-76162262D01*
X140136870Y-76161178D01*
X140136877Y-76161177D01*
X140301488Y-76120896D01*
X140395832Y-76097810D01*
X140466364Y-76069242D01*
X140642931Y-75997725D01*
X140642932Y-75997725D01*
X140647160Y-75996012D01*
X140881161Y-75858999D01*
X141026490Y-75742776D01*
X141089366Y-75692493D01*
X141089368Y-75692492D01*
X141092932Y-75689641D01*
X141124099Y-75656277D01*
X141274921Y-75494824D01*
X141274923Y-75494821D01*
X141278037Y-75491488D01*
X141302342Y-75456453D01*
X141319740Y-75431374D01*
X141375003Y-75386804D01*
X141445590Y-75379187D01*
X141509089Y-75410941D01*
G37*
%TD.AperFunction*%
%TD*%
M02*
