M48
; DRILL file {KiCad 6.0.10+dfsg-1~bpo11+1} date Wednesday, 01 February, 2023 03:11:03 PM
; FORMAT={-:-/ absolute / inch / decimal}
; #@! TF.CreationDate,2023-02-01T15:11:03+08:00
; #@! TF.GenerationSoftware,Kicad,Pcbnew,6.0.10+dfsg-1~bpo11+1
; #@! TF.FileFunction,Plated,1,2,PTH
FMAT,2
INCH
; #@! TA.AperFunction,Plated,PTH,ViaDrill
T1C0.0157
; #@! TA.AperFunction,Plated,PTH,ComponentDrill
T2C0.0197
; #@! TA.AperFunction,Plated,PTH,ComponentDrill
T3C0.0354
; #@! TA.AperFunction,Plated,PTH,ComponentDrill
T4C0.0394
; #@! TA.AperFunction,Plated,PTH,ComponentDrill
T5C0.0433
; #@! TA.AperFunction,Plated,PTH,ComponentDrill
T6C0.0480
; #@! TA.AperFunction,Plated,PTH,ComponentDrill
T7C0.0559
; #@! TA.AperFunction,Plated,PTH,ComponentDrill
T8C0.0563
%
G90
G05
T1
X4.9598Y-5.2122
X4.9638Y-5.2874
X4.965Y-5.4469
X4.972Y-5.665
X4.972Y-6.0236
X4.9732Y-5.5461
X4.9744Y-5.3209
X4.9803Y-4.8012
X4.9886Y-4.9799
X4.9886Y-6.1323
X4.9921Y-6.3563
X4.9941Y-4.5563
X4.9945Y-5.6972
X4.9965Y-4.5941
X4.998Y-4.8917
X5.0Y-4.748
X5.0016Y-5.6031
X5.0016Y-6.2358
X5.0016Y-6.4252
X5.0051Y-5.989
X5.0067Y-6.1965
X5.0291Y-4.6358
X5.0488Y-4.5783
X5.0654Y-4.6512
X5.0685Y-6.3693
X5.0843Y-3.9961
X5.0957Y-3.3921
X5.0965Y-4.6075
X5.098Y-3.8185
X5.0992Y-3.1945
X5.1004Y-3.5579
X5.1004Y-4.1287
X5.1008Y-4.1807
X5.1012Y-2.7909
X5.102Y-3.4984
X5.1028Y-3.2744
X5.1035Y-4.3638
X5.1043Y-4.2988
X5.1051Y-4.2252
X5.1067Y-6.2941
X5.1075Y-3.3232
X5.1075Y-3.4531
X5.1154Y-3.8996
X5.1173Y-2.685
X5.1181Y-3.1063
X5.124Y-3.0398
X5.1264Y-3.5984
X5.135Y-2.5283
X5.1425Y-2.8055
X5.1457Y-3.8453
X5.1492Y-3.0957
X5.1555Y-3.8
X5.1579Y-6.3181
X5.1626Y-5.4673
X5.1693Y-3.0346
X5.1791Y-5.5421
X5.1913Y-3.3012
X5.1941Y-3.5535
X5.1949Y-5.7937
X5.198Y-3.426
X5.2008Y-5.8677
X5.2039Y-2.6736
X5.2043Y-5.5862
X5.2067Y-4.2484
X5.2075Y-3.3598
X5.2118Y-3.4917
X5.2185Y-5.4457
X5.2217Y-2.5319
X5.2244Y-6.4358
X5.2256Y-6.1988
X5.2303Y-2.6154
X5.2343Y-4.678
X5.235Y-2.5795
X5.2453Y-3.4169
X5.2492Y-2.637
X5.2504Y-2.8169
X5.2504Y-3.1181
X5.2528Y-2.9252
X5.2614Y-6.1752
X5.2673Y-4.2547
X5.2689Y-3.4898
X5.2695Y-3.6024
X5.2697Y-6.4382
X5.2717Y-4.8701
X5.272Y-3.3181
X5.2736Y-4.676
X5.285Y-3.3535
X5.2909Y-3.0382
X5.2937Y-4.7181
X5.2949Y-5.9965
X5.298Y-3.0843
X5.3031Y-6.3728
X5.3044Y-4.4579
X5.3107Y-3.6031
X5.3134Y-4.678
X5.315Y-4.8701
X5.3154Y-3.4453
X5.3173Y-2.7476
X5.3205Y-3.4862
X5.3209Y-5.298
X5.3276Y-5.5606
X5.328Y-5.7268
X5.3307Y-5.6575
X5.3315Y-2.6106
X5.3315Y-2.9146
X5.3327Y-2.9587
X5.3339Y-5.4654
X5.3339Y-4.4284
X5.3374Y-3.0157
X5.3429Y-5.3717
X5.3445Y-2.6846
X5.348Y-5.228
X5.3504Y-3.6024
X5.3543Y-3.3331
X5.3587Y-3.3953
X5.3602Y-2.5413
X5.3602Y-6.4823
X5.3661Y-5.0551
X5.3701Y-5.1132
X5.374Y-3.7138
X5.3768Y-3.6563
X5.3783Y-6.4169
X5.3933Y-2.6319
X5.4236Y-6.2228
X5.4236Y-6.2787
X5.4256Y-2.5843
X5.4331Y-5.0472
X5.4354Y-6.0331
X5.4484Y-5.9748
X5.45Y-3.3043
X5.4528Y-3.3594
X5.4557Y-5.0089
X5.4567Y-3.6059
X5.4583Y-5.1606
X5.4673Y-3.0264
X5.4748Y-3.8232
X5.4807Y-3.5681
X5.4815Y-3.8661
X5.4831Y-3.0551
X5.4925Y-4.6079
X5.4929Y-5.1646
X5.4933Y-2.5307
X5.4953Y-3.5181
X5.5154Y-6.3551
X5.5177Y-4.1713
X5.5252Y-3.8146
X5.5311Y-3.8886
X5.5354Y-3.5126
X5.5413Y-3.4768
X5.5425Y-3.5882
X5.5437Y-3.8484
X5.5453Y-5.1469
X5.5465Y-4.6291
X5.55Y-4.598
X5.5504Y-3.3173
X5.5504Y-4.3945
X5.5524Y-4.1102
X5.5524Y-4.7476
X5.5535Y-3.389
X5.5555Y-3.1154
X5.5555Y-4.9469
X5.5559Y-3.072
X5.5559Y-5.9213
X5.5567Y-3.1972
X5.561Y-3.9209
X5.5622Y-4.2134
X5.563Y-3.7902
X5.5728Y-4.8941
X5.576Y-6.2752
X5.5843Y-5.9354
X5.5878Y-6.3941
X5.6047Y-5.8949
X5.6083Y-4.9055
X5.6083Y-6.0024
X5.6098Y-4.5256
X5.6177Y-4.8654
X5.6189Y-5.176
X5.6201Y-6.1811
X5.6256Y-4.9705
X5.6406Y-6.4469
X5.6535Y-6.2465
X5.6642Y-6.1083
T2
X5.1289Y-2.5994
X5.5207Y-2.5974
X5.6142Y-4.5945
X5.6142Y-4.6929
X5.6142Y-4.7953
T3
X5.0305Y-5.8661
X5.1305Y-5.8661
T4
X5.0221Y-2.5508
X5.0221Y-2.6508
X5.0221Y-2.7508
X5.0221Y-2.8508
X5.0221Y-2.9508
X5.0221Y-3.0508
X5.0221Y-3.1508
X5.0221Y-3.2508
X5.0221Y-3.3508
X5.0221Y-3.4508
X5.0221Y-3.5508
X5.0221Y-3.6508
X5.0221Y-3.7508
X5.0221Y-3.8508
X5.0221Y-3.9508
X5.0221Y-4.0508
X5.0221Y-4.1508
X5.0221Y-4.2508
X5.0221Y-4.3508
X5.0221Y-4.4508
X5.2165Y-3.9978
X5.2173Y-3.2108
X5.2189Y-4.7856
X5.315Y-3.9978
X5.3157Y-3.2108
X5.3173Y-4.7856
X5.4134Y-3.9978
X5.4142Y-3.2108
X5.4157Y-4.7856
X5.4625Y-5.3485
X5.4625Y-5.4485
X5.4625Y-5.5485
X5.4625Y-5.6485
X5.4625Y-5.7485
X5.5625Y-5.3485
X5.5625Y-5.4485
X5.5625Y-5.5485
X5.5625Y-5.6485
X5.5625Y-5.7485
X5.5827Y-5.063
X5.6221Y-2.5508
X5.6221Y-2.6508
X5.6221Y-2.7508
X5.6221Y-2.8508
X5.6221Y-2.9508
X5.6221Y-3.0508
X5.6221Y-3.1508
X5.6221Y-3.2508
X5.6221Y-3.3508
X5.6221Y-3.4508
X5.6221Y-3.5508
X5.6221Y-3.6508
X5.6221Y-3.7508
X5.6221Y-3.8508
X5.6221Y-3.9508
X5.6221Y-4.0508
X5.6221Y-4.1508
X5.6221Y-4.2508
X5.6221Y-4.3508
X5.6221Y-4.4508
T6
X5.1169Y-5.2378
X5.1181Y-6.03
X5.5118Y-6.03
T7
X5.1169Y-5.3598
X5.1181Y-6.152
X5.5118Y-6.152
T8
X5.1169Y-5.6866
X5.1181Y-6.4788
X5.5118Y-6.4788
T5
G00X5.126Y-3.7262
M15
G01X5.126Y-3.6789
M16
G05
G00X5.1268Y-2.9392
M15
G01X5.1268Y-2.8919
M16
G05
G00X5.1283Y-4.514
M15
G01X5.1283Y-4.4667
M16
G05
G00X5.5039Y-3.7262
M15
G01X5.5039Y-3.6789
M16
G05
G00X5.5047Y-2.9392
M15
G01X5.5047Y-2.8919
M16
G05
G00X5.5063Y-4.514
M15
G01X5.5063Y-4.4667
M16
G05
T0
M30
